<?xml version="1.0" encoding="UTF-8"?>
<svg xmlns="http://www.w3.org/2000/svg" xmlns:xlink="http://www.w3.org/1999/xlink" width="24px" height="24px" viewBox="0 0 24 24" version="1.1">
<g id="surface1">
<path style=" stroke:none;fill-rule:nonzero;fill:rgb(90.196079%,90.196079%,90.196079%);fill-opacity:1;" d="M 3.222656 0.359375 L 15.53125 0.359375 L 22.058594 6.859375 L 22.058594 22.09375 C 22.058594 22.894531 21.410156 23.542969 20.609375 23.542969 L 3.222656 23.542969 C 2.421875 23.542969 1.773438 22.894531 1.773438 22.09375 L 1.773438 1.808594 C 1.773438 1.007812 2.421875 0.359375 3.222656 0.359375 Z M 3.222656 0.359375 "/>
<path style=" stroke:none;fill-rule:nonzero;fill:rgb(50.196081%,50.196081%,50.196081%);fill-opacity:1;" d="M 6.699219 14.976562 L 17.105469 14.976562 L 17.105469 15.976562 L 6.699219 15.976562 Z M 6.699219 14.976562 "/>
<path style="fill-rule:nonzero;fill:rgb(60.000002%,60.000002%,60.000002%);fill-opacity:1;stroke-width:0.149924;stroke-linecap:butt;stroke-linejoin:miter;stroke:rgb(0%,0%,0%);stroke-opacity:1;stroke-miterlimit:4;" d="M 44.078125 13.765625 L 33.976562 13.765625 C 32.375 13.765625 31.078125 12.460938 31.078125 10.867188 L 31.078125 0.75 Z M 44.078125 13.765625 " transform="matrix(0.5,0,0,0.5,0,0)"/>
<path style="fill:none;stroke-width:0.15;stroke-linecap:round;stroke-linejoin:round;stroke:rgb(0%,0%,0%);stroke-opacity:1;stroke-miterlimit:4;" d="M 6.445312 0.71875 L 31.0625 0.71875 L 44.117188 13.71875 L 44.117188 44.1875 C 44.117188 45.789062 42.820312 47.085938 41.21875 47.085938 L 6.445312 47.085938 C 4.84375 47.085938 3.546875 45.789062 3.546875 44.1875 L 3.546875 3.617188 C 3.546875 2.015625 4.84375 0.71875 6.445312 0.71875 Z M 6.445312 0.71875 " transform="matrix(0.5,0,0,0.5,0,0)"/>
<path style=" stroke:none;fill-rule:nonzero;fill:rgb(50.196081%,50.196081%,50.196081%);fill-opacity:1;" d="M 6.699219 16.976562 L 12.507812 16.976562 L 12.507812 17.976562 L 6.699219 17.976562 Z M 6.699219 16.976562 "/>
<path style=" stroke:none;fill-rule:nonzero;fill:rgb(50.196081%,50.196081%,50.196081%);fill-opacity:1;" d="M 6.699219 12.976562 L 17.105469 12.976562 L 17.105469 13.976562 L 6.699219 13.976562 Z M 6.699219 12.976562 "/>
<path style=" stroke:none;fill-rule:nonzero;fill:rgb(40.000001%,40.000001%,40.000001%);fill-opacity:1;" d="M 8.4375 9.289062 L 8.953125 10.433594 L 7.925781 10.433594 Z M 7.054688 11.675781 C 7.125 11.710938 7.199219 11.710938 7.269531 11.683594 C 7.34375 11.65625 7.394531 11.605469 7.425781 11.535156 L 7.667969 11 L 9.207031 11 L 9.445312 11.535156 C 9.496094 11.648438 9.582031 11.703125 9.707031 11.703125 C 9.746094 11.703125 9.785156 11.695312 9.820312 11.675781 C 9.890625 11.644531 9.941406 11.59375 9.96875 11.519531 C 9.996094 11.449219 9.992188 11.375 9.960938 11.304688 L 8.695312 8.492188 C 8.644531 8.378906 8.558594 8.324219 8.4375 8.324219 C 8.316406 8.324219 8.230469 8.378906 8.179688 8.492188 L 6.914062 11.304688 C 6.882812 11.375 6.878906 11.449219 6.90625 11.519531 C 6.933594 11.59375 6.984375 11.644531 7.054688 11.675781 Z M 7.054688 11.675781 "/>
<path style=" stroke:none;fill-rule:nonzero;fill:rgb(40.000001%,40.000001%,40.000001%);fill-opacity:1;" d="M 11.140625 10.296875 L 12.40625 10.296875 C 12.523438 10.296875 12.625 10.335938 12.703125 10.421875 C 12.789062 10.503906 12.828125 10.601562 12.828125 10.71875 C 12.828125 10.835938 12.789062 10.933594 12.703125 11.015625 C 12.625 11.097656 12.523438 11.140625 12.40625 11.140625 L 11.140625 11.140625 Z M 11.140625 8.886719 L 12.125 8.886719 C 12.242188 8.886719 12.339844 8.929688 12.425781 9.011719 C 12.507812 9.09375 12.546875 9.195312 12.546875 9.308594 C 12.546875 9.425781 12.507812 9.527344 12.425781 9.609375 C 12.339844 9.691406 12.242188 9.734375 12.125 9.734375 L 11.140625 9.734375 Z M 12.40625 11.703125 C 12.679688 11.703125 12.910156 11.605469 13.101562 11.414062 C 13.296875 11.222656 13.390625 10.988281 13.390625 10.71875 C 13.390625 10.351562 13.238281 10.074219 12.929688 9.882812 C 13.050781 9.710938 13.113281 9.519531 13.113281 9.308594 C 13.113281 9.039062 13.015625 8.804688 12.824219 8.613281 C 12.628906 8.421875 12.398438 8.324219 12.125 8.324219 L 10.859375 8.324219 C 10.78125 8.324219 10.714844 8.351562 10.660156 8.40625 C 10.605469 8.464844 10.578125 8.527344 10.578125 8.605469 L 10.578125 11.421875 C 10.578125 11.5 10.605469 11.566406 10.660156 11.621094 C 10.714844 11.675781 10.78125 11.703125 10.859375 11.703125 Z M 12.40625 11.703125 "/>
<path style=" stroke:none;fill-rule:nonzero;fill:rgb(40.000001%,40.000001%,40.000001%);fill-opacity:1;" d="M 15.648438 11.703125 C 16.113281 11.703125 16.511719 11.539062 16.839844 11.210938 C 16.894531 11.152344 16.921875 11.085938 16.921875 11.007812 C 16.921875 10.933594 16.894531 10.867188 16.839844 10.8125 C 16.785156 10.757812 16.71875 10.730469 16.644531 10.730469 C 16.5625 10.730469 16.496094 10.757812 16.441406 10.8125 C 16.222656 11.03125 15.957031 11.140625 15.648438 11.140625 C 15.335938 11.140625 15.070312 11.03125 14.847656 10.8125 C 14.628906 10.589844 14.519531 10.324219 14.519531 10.011719 C 14.519531 9.703125 14.628906 9.4375 14.847656 9.21875 C 15.070312 9 15.335938 8.886719 15.648438 8.886719 C 15.957031 8.886719 16.222656 9 16.441406 9.21875 C 16.496094 9.273438 16.5625 9.300781 16.644531 9.300781 C 16.71875 9.300781 16.785156 9.273438 16.839844 9.21875 C 16.894531 9.164062 16.921875 9.097656 16.921875 9.019531 C 16.921875 8.941406 16.894531 8.875 16.839844 8.820312 C 16.511719 8.492188 16.113281 8.324219 15.648438 8.324219 C 15.179688 8.324219 14.78125 8.492188 14.453125 8.820312 C 14.121094 9.148438 13.957031 9.546875 13.957031 10.011719 C 13.957031 10.480469 14.121094 10.878906 14.453125 11.210938 C 14.78125 11.539062 15.179688 11.703125 15.648438 11.703125 Z M 15.648438 11.703125 "/>
</g>
</svg>
