<?xml version="1.0" encoding="UTF-8"?>
<svg xmlns="http://www.w3.org/2000/svg" xmlns:xlink="http://www.w3.org/1999/xlink" width="24px" height="24px" viewBox="0 0 24 24" version="1.1">
<g id="surface1">
<path style=" stroke:none;fill-rule:nonzero;fill:rgb(59.607846%,33.725491%,59.607846%);fill-opacity:1;" d="M 3.222656 0.359375 L 15.53125 0.359375 L 22.058594 6.859375 L 22.058594 22.09375 C 22.058594 22.894531 21.410156 23.542969 20.609375 23.542969 L 3.222656 23.542969 C 2.421875 23.542969 1.773438 22.894531 1.773438 22.09375 L 1.773438 1.808594 C 1.773438 1.007812 2.421875 0.359375 3.222656 0.359375 Z M 3.222656 0.359375 "/>
<path style="fill-rule:nonzero;fill:rgb(36.470589%,20.392157%,36.470589%);fill-opacity:1;stroke-width:0.149924;stroke-linecap:butt;stroke-linejoin:miter;stroke:rgb(0%,0%,0%);stroke-opacity:1;stroke-miterlimit:4;" d="M 44.078125 13.765625 L 33.976562 13.765625 C 32.375 13.765625 31.078125 12.460938 31.078125 10.867188 L 31.078125 0.75 Z M 44.078125 13.765625 " transform="matrix(0.5,0,0,0.5,0,0)"/>
<path style="fill:none;stroke-width:0.15;stroke-linecap:round;stroke-linejoin:round;stroke:rgb(0%,0%,0%);stroke-opacity:1;stroke-miterlimit:4;" d="M 6.445312 0.71875 L 31.0625 0.71875 L 44.117188 13.71875 L 44.117188 44.1875 C 44.117188 45.789062 42.820312 47.085938 41.21875 47.085938 L 6.445312 47.085938 C 4.84375 47.085938 3.546875 45.789062 3.546875 44.1875 L 3.546875 3.617188 C 3.546875 2.015625 4.84375 0.71875 6.445312 0.71875 Z M 6.445312 0.71875 " transform="matrix(0.5,0,0,0.5,0,0)"/>
<path style=" stroke:none;fill-rule:nonzero;fill:rgb(100%,100%,100%);fill-opacity:1;" d="M 3.875 3.945312 L 5.988281 3.945312 C 6.230469 3.945312 6.429688 4.246094 6.429688 4.625 L 6.429688 6.296875 C 6.429688 6.671875 6.230469 6.972656 5.988281 6.972656 L 3.875 6.972656 C 3.632812 6.972656 3.4375 6.671875 3.4375 6.296875 L 3.4375 4.625 C 3.4375 4.246094 3.632812 3.945312 3.875 3.945312 Z M 3.875 3.945312 "/>
<path style=" stroke:none;fill-rule:nonzero;fill:rgb(100%,100%,100%);fill-opacity:1;" d="M 3.875 8.457031 L 5.988281 8.457031 C 6.230469 8.457031 6.429688 8.761719 6.429688 9.136719 L 6.429688 10.808594 C 6.429688 11.183594 6.230469 11.488281 5.988281 11.488281 L 3.875 11.488281 C 3.632812 11.488281 3.4375 11.183594 3.4375 10.808594 L 3.4375 9.136719 C 3.4375 8.761719 3.632812 8.457031 3.875 8.457031 Z M 3.875 8.457031 "/>
<path style=" stroke:none;fill-rule:nonzero;fill:rgb(100%,100%,100%);fill-opacity:1;" d="M 3.875 12.972656 L 5.988281 12.972656 C 6.230469 12.972656 6.429688 13.273438 6.429688 13.648438 L 6.429688 15.320312 C 6.429688 15.695312 6.230469 16 5.988281 16 L 3.875 16 C 3.632812 16 3.4375 15.695312 3.4375 15.320312 L 3.4375 13.648438 C 3.4375 13.273438 3.632812 12.972656 3.875 12.972656 Z M 3.875 12.972656 "/>
<path style=" stroke:none;fill-rule:nonzero;fill:rgb(100%,100%,100%);fill-opacity:1;" d="M 3.875 17.484375 L 5.988281 17.484375 C 6.230469 17.484375 6.429688 17.785156 6.429688 18.164062 L 6.429688 19.832031 C 6.429688 20.210938 6.230469 20.511719 5.988281 20.511719 L 3.875 20.511719 C 3.632812 20.511719 3.4375 20.210938 3.4375 19.832031 L 3.4375 18.164062 C 3.4375 17.785156 3.632812 17.484375 3.875 17.484375 Z M 3.875 17.484375 "/>
<path style=" stroke:none;fill-rule:nonzero;fill:rgb(100%,100%,100%);fill-opacity:1;" d="M 17.875 8.457031 L 19.988281 8.457031 C 20.230469 8.457031 20.429688 8.761719 20.429688 9.136719 L 20.429688 10.808594 C 20.429688 11.183594 20.230469 11.488281 19.988281 11.488281 L 17.875 11.488281 C 17.632812 11.488281 17.4375 11.183594 17.4375 10.808594 L 17.4375 9.136719 C 17.4375 8.761719 17.632812 8.457031 17.875 8.457031 Z M 17.875 8.457031 "/>
<path style=" stroke:none;fill-rule:nonzero;fill:rgb(100%,100%,100%);fill-opacity:1;" d="M 17.875 12.972656 L 19.988281 12.972656 C 20.230469 12.972656 20.429688 13.273438 20.429688 13.648438 L 20.429688 15.320312 C 20.429688 15.695312 20.230469 16 19.988281 16 L 17.875 16 C 17.632812 16 17.4375 15.695312 17.4375 15.320312 L 17.4375 13.648438 C 17.4375 13.273438 17.632812 12.972656 17.875 12.972656 Z M 17.875 12.972656 "/>
<path style=" stroke:none;fill-rule:nonzero;fill:rgb(100%,100%,100%);fill-opacity:1;" d="M 17.875 17.484375 L 19.988281 17.484375 C 20.230469 17.484375 20.429688 17.785156 20.429688 18.164062 L 20.429688 19.832031 C 20.429688 20.210938 20.230469 20.511719 19.988281 20.511719 L 17.875 20.511719 C 17.632812 20.511719 17.4375 20.210938 17.4375 19.832031 L 17.4375 18.164062 C 17.4375 17.785156 17.632812 17.484375 17.875 17.484375 Z M 17.875 17.484375 "/>
<path style=" stroke:none;fill-rule:nonzero;fill:rgb(100%,100%,100%);fill-opacity:1;" d="M 9.652344 10.296875 C 9.371094 10.308594 9.152344 10.535156 9.152344 10.816406 L 9.152344 15.210938 C 9.152344 15.597656 9.558594 15.847656 9.902344 15.675781 L 14.300781 13.476562 C 14.679688 13.285156 14.679688 12.742188 14.300781 12.550781 L 9.902344 10.351562 C 9.824219 10.3125 9.738281 10.292969 9.652344 10.296875 Z M 9.652344 10.296875 "/>
</g>
</svg>
