<?xml version="1.0" encoding="UTF-8"?>
<svg xmlns="http://www.w3.org/2000/svg" xmlns:xlink="http://www.w3.org/1999/xlink" width="24px" height="24px" viewBox="0 0 24 24" version="1.1">
<g id="surface1">
<path style=" stroke:none;fill-rule:nonzero;fill:rgb(88.627452%,34.117648%,29.803923%);fill-opacity:1;" d="M 3.222656 0.359375 L 15.53125 0.359375 L 22.058594 6.859375 L 22.058594 22.09375 C 22.058594 22.894531 21.410156 23.542969 20.609375 23.542969 L 3.222656 23.542969 C 2.421875 23.542969 1.773438 22.894531 1.773438 22.09375 L 1.773438 1.808594 C 1.773438 1.007812 2.421875 0.359375 3.222656 0.359375 Z M 3.222656 0.359375 "/>
<path style="fill-rule:nonzero;fill:rgb(70.980394%,21.176471%,16.078432%);fill-opacity:1;stroke-width:0.149924;stroke-linecap:butt;stroke-linejoin:miter;stroke:rgb(0%,0%,0%);stroke-opacity:1;stroke-miterlimit:4;" d="M 44.078125 13.765625 L 33.976562 13.765625 C 32.375 13.765625 31.078125 12.460938 31.078125 10.867188 L 31.078125 0.75 Z M 44.078125 13.765625 " transform="matrix(0.5,0,0,0.5,0,0)"/>
<path style="fill:none;stroke-width:0.15;stroke-linecap:round;stroke-linejoin:round;stroke:rgb(0%,0%,0%);stroke-opacity:1;stroke-miterlimit:4;" d="M 6.445312 0.71875 L 31.0625 0.71875 L 44.117188 13.71875 L 44.117188 44.1875 C 44.117188 45.789062 42.820312 47.085938 41.21875 47.085938 L 6.445312 47.085938 C 4.84375 47.085938 3.546875 45.789062 3.546875 44.1875 L 3.546875 3.617188 C 3.546875 2.015625 4.84375 0.71875 6.445312 0.71875 Z M 6.445312 0.71875 " transform="matrix(0.5,0,0,0.5,0,0)"/>
<path style=" stroke:none;fill-rule:nonzero;fill:rgb(100%,100%,100%);fill-opacity:1;" d="M 9.785156 10.488281 L 8.480469 10.488281 C 8.109375 10.488281 7.902344 10.71875 7.902344 11.0625 L 7.902344 15.207031 C 7.902344 15.578125 8.140625 15.78125 8.457031 15.78125 C 8.773438 15.78125 9.011719 15.574219 9.011719 15.207031 L 9.011719 13.996094 L 9.828125 13.996094 C 10.839844 13.996094 11.671875 13.328125 11.671875 12.25 C 11.671875 11.195312 10.867188 10.488281 9.785156 10.488281 Z M 9.761719 13.023438 L 9.011719 13.023438 L 9.011719 11.460938 L 9.761719 11.460938 C 10.226562 11.460938 10.523438 11.800781 10.523438 12.242188 C 10.523438 12.6875 10.226562 13.023438 9.761719 13.023438 Z M 14.203125 11.941406 C 14.203125 11.632812 14.492188 11.460938 14.808594 11.460938 C 15.25 11.460938 15.488281 11.683594 15.789062 11.683594 C 16.089844 11.683594 16.28125 11.425781 16.28125 11.136719 C 16.28125 10.554688 15.25 10.398438 14.835938 10.398438 C 13.855469 10.398438 13.007812 11.042969 13.007812 12.074219 C 13.007812 13.785156 15.472656 13.261719 15.472656 14.132812 C 15.472656 14.492188 15.207031 14.765625 14.71875 14.765625 C 14.242188 14.765625 13.824219 14.480469 13.480469 14.480469 C 13.175781 14.480469 12.984375 14.714844 12.984375 15.003906 C 12.984375 15.695312 14.210938 15.828125 14.777344 15.828125 C 15.796875 15.828125 16.667969 15.171875 16.667969 14.117188 C 16.667969 12.214844 14.203125 12.699219 14.203125 11.941406 Z M 14.203125 11.941406 "/>
</g>
</svg>
