<?xml version="1.0" encoding="UTF-8"?>
<svg xmlns="http://www.w3.org/2000/svg" xmlns:xlink="http://www.w3.org/1999/xlink" width="24px" height="24px" viewBox="0 0 24 24" version="1.1">
<g id="surface1">
<path style=" stroke:none;fill-rule:nonzero;fill:rgb(21.568628%,44.313726%,78.431374%);fill-opacity:1;" d="M 3.222656 0.359375 L 15.53125 0.359375 L 22.058594 6.859375 L 22.058594 22.09375 C 22.058594 22.894531 21.410156 23.542969 20.609375 23.542969 L 3.222656 23.542969 C 2.421875 23.542969 1.773438 22.894531 1.773438 22.09375 L 1.773438 1.808594 C 1.773438 1.007812 2.421875 0.359375 3.222656 0.359375 Z M 3.222656 0.359375 "/>
<path style=" stroke:none;fill-rule:nonzero;fill:rgb(12.941177%,26.666668%,47.058824%);fill-opacity:1;" d="M 22.039062 6.882812 L 16.988281 6.882812 C 16.1875 6.882812 15.539062 6.230469 15.539062 5.433594 L 15.539062 0.375 Z M 22.039062 6.882812 "/>
<path style="fill:none;stroke-width:0.15;stroke-linecap:round;stroke-linejoin:round;stroke:rgb(0%,0%,0%);stroke-opacity:1;stroke-miterlimit:4;" d="M 6.445312 0.71875 L 31.0625 0.71875 L 44.117188 13.71875 L 44.117188 44.1875 C 44.117188 45.789062 42.820312 47.085938 41.21875 47.085938 L 6.445312 47.085938 C 4.84375 47.085938 3.546875 45.789062 3.546875 44.1875 L 3.546875 3.617188 C 3.546875 2.015625 4.84375 0.71875 6.445312 0.71875 Z M 6.445312 0.71875 " transform="matrix(0.5,0,0,0.5,0,0)"/>
<path style="fill:none;stroke-width:0.925756;stroke-linecap:butt;stroke-linejoin:miter;stroke:rgb(100%,100%,100%);stroke-opacity:1;stroke-miterlimit:4;" d="M 16.015625 35.296875 C 20.054688 37.914062 28.875 34.414062 21.539062 25.046875 C 14.273438 15.757812 28.765625 9.671875 33.0625 20.40625 " transform="matrix(0.5,0,0,0.5,0,0)"/>
<path style=" stroke:none;fill-rule:nonzero;fill:rgb(100%,100%,100%);fill-opacity:1;" d="M 6.859375 16.914062 L 8.238281 16.914062 L 8.238281 18.308594 L 6.859375 18.308594 Z M 6.859375 16.914062 "/>
<path style=" stroke:none;fill-rule:nonzero;fill:rgb(100%,100%,100%);fill-opacity:1;" d="M 15.613281 9.476562 L 16.992188 9.476562 L 16.992188 10.871094 L 15.613281 10.871094 Z M 15.613281 9.476562 "/>
<path style="fill:none;stroke-width:0.925756;stroke-linecap:butt;stroke-linejoin:miter;stroke:rgb(99.215686%,99.215686%,99.215686%);stroke-opacity:1;stroke-miterlimit:4;" d="M 15.039062 16.609375 L 28.984375 34.203125 " transform="matrix(0.5,0,0,0.5,0,0)"/>
<path style="fill-rule:nonzero;fill:rgb(37.64706%,37.64706%,37.64706%);fill-opacity:1;stroke-width:0.925756;stroke-linecap:butt;stroke-linejoin:miter;stroke:rgb(99.215686%,99.215686%,99.215686%);stroke-opacity:1;stroke-miterlimit:4;" d="M 16.015625 16.625 C 16.015625 17.140625 15.609375 17.554688 15.09375 17.554688 C 14.585938 17.554688 14.171875 17.140625 14.179688 16.625 C 14.171875 16.109375 14.585938 15.695312 15.09375 15.695312 C 15.609375 15.695312 16.015625 16.109375 16.015625 16.625 Z M 16.015625 16.625 " transform="matrix(0.5,0,0,0.5,0,0)"/>
<path style="fill-rule:nonzero;fill:rgb(37.64706%,37.64706%,37.64706%);fill-opacity:1;stroke-width:0.925756;stroke-linecap:butt;stroke-linejoin:miter;stroke:rgb(99.215686%,99.215686%,99.215686%);stroke-opacity:1;stroke-miterlimit:4;" d="M 29.84375 34.296875 C 29.84375 34.8125 29.429688 35.226562 28.921875 35.226562 C 28.414062 35.226562 28 34.8125 28 34.296875 C 28 33.78125 28.414062 33.367188 28.921875 33.367188 C 29.429688 33.367188 29.84375 33.78125 29.84375 34.296875 Z M 29.84375 34.296875 " transform="matrix(0.5,0,0,0.5,0,0)"/>
<path style=" stroke:none;fill-rule:nonzero;fill:rgb(100%,100%,100%);fill-opacity:1;" d="M 10.082031 11.800781 L 11.464844 11.800781 L 11.464844 13.195312 L 10.082031 13.195312 Z M 10.082031 11.800781 "/>
</g>
</svg>
