<?xml version="1.0" encoding="UTF-8"?>
<svg xmlns="http://www.w3.org/2000/svg" xmlns:xlink="http://www.w3.org/1999/xlink" width="24px" height="24px" viewBox="0 0 24 24" version="1.1">
<g id="surface1">
<path style=" stroke:none;fill-rule:nonzero;fill:rgb(82.745099%,37.254903%,37.254903%);fill-opacity:1;" d="M 3.148438 0.207031 L 15.578125 0.207031 L 22.167969 6.773438 L 22.167969 22.15625 C 22.167969 22.964844 21.515625 23.621094 20.707031 23.621094 L 3.148438 23.621094 C 2.339844 23.621094 1.683594 22.964844 1.683594 22.15625 L 1.683594 1.671875 C 1.683594 0.863281 2.339844 0.207031 3.148438 0.207031 Z M 3.148438 0.207031 "/>
<path style=" stroke:none;fill-rule:nonzero;fill:rgb(62.7451%,17.254902%,17.254902%);fill-opacity:1;" d="M 22.148438 6.792969 L 17.046875 6.792969 C 16.242188 6.792969 15.585938 6.136719 15.585938 5.328125 L 15.585938 0.222656 Z M 22.148438 6.792969 "/>
<path style="fill:none;stroke-width:0.997283;stroke-linecap:round;stroke-linejoin:round;stroke:rgb(0%,0%,0%);stroke-opacity:1;stroke-miterlimit:4;" d="M 38.681432 -0.00769763 L 202.865767 -0.00769763 L 289.911328 86.728276 L 289.911328 289.92058 C 289.911328 300.601333 281.294488 309.269771 270.613735 309.269771 L 38.681432 309.269771 C 28.000679 309.269771 19.332242 300.601333 19.332242 289.92058 L 19.332242 19.341493 C 19.332242 8.66074 28.000679 -0.00769763 38.681432 -0.00769763 Z M 38.681432 -0.00769763 " transform="matrix(0.0757057,0,0,0.0757057,0.220033,0.207614)"/>
<path style="fill:none;stroke-width:0.997283;stroke-linecap:round;stroke-linejoin:round;stroke:rgb(0%,0%,0%);stroke-opacity:1;stroke-miterlimit:4;" d="M 289.653339 86.986265 L 222.266556 86.986265 C 211.637401 86.986265 202.968963 78.317827 202.968963 67.637074 L 202.968963 0.198694 Z M 289.653339 86.986265 " transform="matrix(0.0757057,0,0,0.0757057,0.220033,0.207614)"/>
<path style=" stroke:none;fill-rule:nonzero;fill:rgb(94.901961%,94.901961%,94.901961%);fill-opacity:1;" d="M 7.507812 8.546875 L 16.222656 8.546875 C 16.742188 8.546875 17.167969 8.972656 17.167969 9.492188 L 17.167969 15.554688 C 17.167969 16.078125 16.742188 16.5 16.222656 16.5 L 7.507812 16.5 C 6.988281 16.5 6.5625 16.078125 6.5625 15.554688 L 6.5625 9.492188 C 6.5625 8.972656 6.988281 8.546875 7.507812 8.546875 Z M 7.507812 8.546875 "/>
<path style=" stroke:none;fill-rule:nonzero;fill:rgb(82.745099%,37.254903%,37.254903%);fill-opacity:1;" d="M 7.890625 9.875 L 15.839844 9.875 L 15.839844 10.757812 L 7.890625 10.757812 Z M 7.890625 9.875 "/>
<path style=" stroke:none;fill-rule:nonzero;fill:rgb(82.745099%,37.254903%,37.254903%);fill-opacity:1;" d="M 9.65625 11.640625 L 11.867188 11.640625 L 11.867188 12.523438 L 9.65625 12.523438 Z M 9.65625 11.640625 "/>
<path style=" stroke:none;fill-rule:nonzero;fill:rgb(82.745099%,37.254903%,37.254903%);fill-opacity:1;" d="M 8.773438 12.082031 C 8.773438 12.238281 8.691406 12.386719 8.550781 12.464844 C 8.414062 12.546875 8.246094 12.546875 8.109375 12.464844 C 7.972656 12.386719 7.890625 12.238281 7.890625 12.082031 C 7.890625 11.925781 7.972656 11.777344 8.109375 11.699219 C 8.246094 11.621094 8.414062 11.621094 8.550781 11.699219 C 8.691406 11.777344 8.773438 11.925781 8.773438 12.082031 Z M 8.773438 12.082031 "/>
<path style=" stroke:none;fill-rule:nonzero;fill:rgb(82.745099%,37.254903%,37.254903%);fill-opacity:1;" d="M 9.65625 12.964844 L 11.867188 12.964844 L 11.867188 13.847656 L 9.65625 13.847656 Z M 9.65625 12.964844 "/>
<path style=" stroke:none;fill-rule:nonzero;fill:rgb(82.745099%,37.254903%,37.254903%);fill-opacity:1;" d="M 8.773438 13.40625 C 8.773438 13.566406 8.691406 13.710938 8.550781 13.792969 C 8.414062 13.871094 8.246094 13.871094 8.109375 13.792969 C 7.972656 13.710938 7.890625 13.566406 7.890625 13.40625 C 7.890625 13.25 7.972656 13.101562 8.109375 13.023438 C 8.246094 12.945312 8.414062 12.945312 8.550781 13.023438 C 8.691406 13.101562 8.773438 13.25 8.773438 13.40625 Z M 8.773438 13.40625 "/>
<path style=" stroke:none;fill-rule:nonzero;fill:rgb(82.745099%,37.254903%,37.254903%);fill-opacity:1;" d="M 9.65625 14.292969 L 11.867188 14.292969 L 11.867188 15.175781 L 9.65625 15.175781 Z M 9.65625 14.292969 "/>
<path style=" stroke:none;fill-rule:nonzero;fill:rgb(82.745099%,37.254903%,37.254903%);fill-opacity:1;" d="M 8.773438 14.734375 C 8.773438 14.890625 8.691406 15.039062 8.550781 15.117188 C 8.414062 15.195312 8.246094 15.195312 8.109375 15.117188 C 7.972656 15.039062 7.890625 14.890625 7.890625 14.734375 C 7.890625 14.574219 7.972656 14.429688 8.109375 14.347656 C 8.246094 14.269531 8.414062 14.269531 8.550781 14.347656 C 8.691406 14.429688 8.773438 14.574219 8.773438 14.734375 Z M 8.773438 14.734375 "/>
<path style=" stroke:none;fill-rule:evenodd;fill:rgb(82.745099%,37.254903%,37.254903%);fill-opacity:1;" d="M 14.289062 11.621094 C 13.304688 11.621094 12.507812 12.417969 12.507812 13.402344 C 12.507812 14.382812 13.304688 15.179688 14.289062 15.179688 C 15.273438 15.179688 16.070312 14.382812 16.070312 13.402344 L 14.289062 13.402344 Z M 14.289062 11.621094 "/>
</g>
</svg>
