<?xml version="1.0" encoding="UTF-8"?>
<svg xmlns="http://www.w3.org/2000/svg" xmlns:xlink="http://www.w3.org/1999/xlink" width="24px" height="24px" viewBox="0 0 24 24" version="1.1">
<g id="surface1">
<path style="fill-rule:nonzero;fill:rgb(30.588236%,47.450981%,69.803923%);fill-opacity:1;stroke-width:0.149924;stroke-linecap:butt;stroke-linejoin:miter;stroke:rgb(0%,0%,0%);stroke-opacity:1;stroke-miterlimit:4;" d="M 6.445312 0.71875 L 31.0625 0.71875 L 44.117188 13.71875 L 44.117188 44.1875 C 44.117188 45.789062 42.820312 47.085938 41.21875 47.085938 L 6.445312 47.085938 C 4.84375 47.085938 3.546875 45.789062 3.546875 44.1875 L 3.546875 3.617188 C 3.546875 2.015625 4.84375 0.71875 6.445312 0.71875 Z M 6.445312 0.71875 " transform="matrix(0.5,0,0,0.5,0,0)"/>
<path style="fill-rule:nonzero;fill:rgb(22.745098%,34.117648%,51.372552%);fill-opacity:1;stroke-width:0.149924;stroke-linecap:butt;stroke-linejoin:miter;stroke:rgb(0%,0%,0%);stroke-opacity:1;stroke-miterlimit:4;" d="M 44.078125 13.765625 L 33.976562 13.765625 C 32.375 13.765625 31.078125 12.460938 31.078125 10.867188 L 31.078125 0.75 Z M 44.078125 13.765625 " transform="matrix(0.5,0,0,0.5,0,0)"/>
<path style="fill:none;stroke-width:0.15;stroke-linecap:round;stroke-linejoin:round;stroke:rgb(0%,0%,0%);stroke-opacity:1;stroke-miterlimit:4;" d="M 6.445312 0.71875 L 31.0625 0.71875 L 44.117188 13.71875 L 44.117188 44.1875 C 44.117188 45.789062 42.820312 47.085938 41.21875 47.085938 L 6.445312 47.085938 C 4.84375 47.085938 3.546875 45.789062 3.546875 44.1875 L 3.546875 3.617188 C 3.546875 2.015625 4.84375 0.71875 6.445312 0.71875 Z M 6.445312 0.71875 " transform="matrix(0.5,0,0,0.5,0,0)"/>
<path style=" stroke:none;fill-rule:nonzero;fill:rgb(100%,100%,100%);fill-opacity:1;" d="M 11.503906 6.296875 C 11.160156 6.25 11.113281 6.574219 11.148438 6.835938 C 11.144531 9.402344 11.15625 11.972656 11.144531 14.539062 C 11.058594 14.625 10.898438 14.480469 10.789062 14.519531 C 9.621094 14.449219 8.34375 15.296875 8.226562 16.527344 C 8.089844 17.503906 9.117188 18.304688 10.035156 18.152344 C 11.1875 18.03125 12.089844 16.859375 11.941406 15.707031 C 11.945312 13.671875 11.933594 11.636719 11.945312 9.605469 C 12.023438 9.515625 12.140625 9.707031 12.222656 9.71875 C 13.152344 10.269531 13.972656 11.179688 14.027344 12.3125 C 14.089844 13.195312 13.824219 14.0625 13.523438 14.882812 C 14.527344 13.640625 14.851562 11.824219 14.152344 10.355469 C 13.792969 9.503906 12.988281 8.976562 12.535156 8.1875 C 12.203125 7.65625 11.949219 7.066406 11.871094 6.441406 C 11.804688 6.3125 11.632812 6.296875 11.503906 6.296875 Z M 11.503906 6.296875 "/>
</g>
</svg>
