<?xml version="1.0" encoding="UTF-8"?>
<svg xmlns="http://www.w3.org/2000/svg" xmlns:xlink="http://www.w3.org/1999/xlink" width="24px" height="24px" viewBox="0 0 24 24" version="1.1">
<g id="surface1">
<path style=" stroke:none;fill-rule:nonzero;fill:rgb(90.196079%,90.196079%,90.196079%);fill-opacity:1;" d="M 3.222656 0.359375 L 15.53125 0.359375 L 22.058594 6.859375 L 22.058594 22.09375 C 22.058594 22.894531 21.410156 23.542969 20.609375 23.542969 L 3.222656 23.542969 C 2.421875 23.542969 1.773438 22.894531 1.773438 22.09375 L 1.773438 1.808594 C 1.773438 1.007812 2.421875 0.359375 3.222656 0.359375 Z M 3.222656 0.359375 "/>
<path style="fill-rule:nonzero;fill:rgb(60.000002%,60.000002%,60.000002%);fill-opacity:1;stroke-width:0.149924;stroke-linecap:butt;stroke-linejoin:miter;stroke:rgb(0%,0%,0%);stroke-opacity:1;stroke-miterlimit:4;" d="M 44.078125 13.765625 L 33.976562 13.765625 C 32.375 13.765625 31.078125 12.460938 31.078125 10.867188 L 31.078125 0.75 Z M 44.078125 13.765625 " transform="matrix(0.5,0,0,0.5,0,0)"/>
<path style="fill:none;stroke-width:0.15;stroke-linecap:round;stroke-linejoin:round;stroke:rgb(0%,0%,0%);stroke-opacity:1;stroke-miterlimit:4;" d="M 6.445312 0.71875 L 31.0625 0.71875 L 44.117188 13.71875 L 44.117188 44.1875 C 44.117188 45.789062 42.820312 47.085938 41.21875 47.085938 L 6.445312 47.085938 C 4.84375 47.085938 3.546875 45.789062 3.546875 44.1875 L 3.546875 3.617188 C 3.546875 2.015625 4.84375 0.71875 6.445312 0.71875 Z M 6.445312 0.71875 " transform="matrix(0.5,0,0,0.5,0,0)"/>
<path style=" stroke:none;fill-rule:nonzero;fill:rgb(40.000001%,40.000001%,40.000001%);fill-opacity:1;" d="M 11.609375 15.78125 C 12.503906 15.78125 13.265625 15.464844 13.898438 14.832031 C 14.003906 14.726562 14.054688 14.597656 14.054688 14.449219 C 14.054688 14.300781 14.003906 14.175781 13.898438 14.070312 C 13.792969 13.964844 13.667969 13.910156 13.519531 13.910156 C 13.367188 13.910156 13.238281 13.964844 13.132812 14.070312 C 12.714844 14.492188 12.203125 14.703125 11.609375 14.703125 C 11.007812 14.703125 10.5 14.492188 10.078125 14.070312 C 9.65625 13.648438 9.445312 13.136719 9.445312 12.539062 C 9.445312 11.941406 9.65625 11.433594 10.078125 11.011719 C 10.5 10.589844 11.007812 10.378906 11.609375 10.378906 C 12.203125 10.378906 12.714844 10.589844 13.132812 11.011719 C 13.238281 11.117188 13.367188 11.171875 13.519531 11.171875 C 13.667969 11.171875 13.792969 11.117188 13.898438 11.011719 C 14.003906 10.90625 14.054688 10.777344 14.054688 10.628906 C 14.054688 10.480469 14.003906 10.355469 13.898438 10.25 C 13.265625 9.617188 12.503906 9.300781 11.609375 9.300781 C 10.710938 9.300781 9.945312 9.617188 9.3125 10.25 C 8.683594 10.882812 8.367188 11.644531 8.367188 12.539062 C 8.367188 13.4375 8.683594 14.199219 9.3125 14.832031 C 9.945312 15.464844 10.710938 15.78125 11.609375 15.78125 Z M 11.609375 15.78125 "/>
</g>
</svg>
