<?xml version="1.0" encoding="UTF-8"?>
<svg xmlns="http://www.w3.org/2000/svg" xmlns:xlink="http://www.w3.org/1999/xlink" width="24px" height="24px" viewBox="0 0 24 24" version="1.1">
<g id="surface1">
<path style=" stroke:none;fill-rule:nonzero;fill:rgb(90.196079%,90.196079%,90.196079%);fill-opacity:1;" d="M 3.222656 0.359375 L 15.53125 0.359375 L 22.058594 6.859375 L 22.058594 22.09375 C 22.058594 22.894531 21.410156 23.542969 20.609375 23.542969 L 3.222656 23.542969 C 2.421875 23.542969 1.773438 22.894531 1.773438 22.09375 L 1.773438 1.808594 C 1.773438 1.007812 2.421875 0.359375 3.222656 0.359375 Z M 3.222656 0.359375 "/>
<path style="fill-rule:nonzero;fill:rgb(60.000002%,60.000002%,60.000002%);fill-opacity:1;stroke-width:0.149924;stroke-linecap:butt;stroke-linejoin:miter;stroke:rgb(0%,0%,0%);stroke-opacity:1;stroke-miterlimit:4;" d="M 44.078125 13.765625 L 33.976562 13.765625 C 32.375 13.765625 31.078125 12.460938 31.078125 10.867188 L 31.078125 0.75 Z M 44.078125 13.765625 " transform="matrix(0.5,0,0,0.5,0,0)"/>
<path style="fill:none;stroke-width:0.15;stroke-linecap:round;stroke-linejoin:round;stroke:rgb(0%,0%,0%);stroke-opacity:1;stroke-miterlimit:4;" d="M 6.445312 0.71875 L 31.0625 0.71875 L 44.117188 13.71875 L 44.117188 44.1875 C 44.117188 45.789062 42.820312 47.085938 41.21875 47.085938 L 6.445312 47.085938 C 4.84375 47.085938 3.546875 45.789062 3.546875 44.1875 L 3.546875 3.617188 C 3.546875 2.015625 4.84375 0.71875 6.445312 0.71875 Z M 6.445312 0.71875 " transform="matrix(0.5,0,0,0.5,0,0)"/>
<path style=" stroke:none;fill-rule:nonzero;fill:rgb(40.000001%,40.000001%,40.000001%);fill-opacity:1;" d="M 9.484375 7.722656 C 8.878906 7.722656 8.707031 7.929688 8.707031 8.5 L 8.707031 10.445312 L 11.621094 10.445312 L 7.929688 10.445312 C 7.273438 10.445312 6.761719 10.832031 6.761719 11.804688 L 6.761719 14.140625 C 6.761719 14.855469 7.148438 15.304688 7.929688 15.304688 L 9.09375 15.304688 L 9.09375 13.75 C 9.09375 13.1875 9.492188 12.777344 10.066406 12.777344 L 13.179688 12.777344 C 13.542969 12.777344 13.761719 12.582031 13.761719 12.195312 L 13.761719 8.5 C 13.761719 7.898438 13.472656 7.722656 12.984375 7.722656 Z M 9.484375 7.722656 "/>
<path style=" stroke:none;fill-rule:nonzero;fill:rgb(100%,100%,100%);fill-opacity:1;" d="M 11.039062 9.082031 C 11.039062 9.40625 10.777344 9.667969 10.457031 9.667969 C 10.132812 9.667969 9.871094 9.40625 9.871094 9.082031 C 9.871094 8.761719 10.132812 8.5 10.457031 8.5 C 10.777344 8.5 11.039062 8.761719 11.039062 9.082031 Z M 11.039062 9.082031 "/>
<path style=" stroke:none;fill-rule:nonzero;fill:rgb(40.000001%,40.000001%,40.000001%);fill-opacity:1;" d="M 13.722656 18.222656 C 14.328125 18.222656 14.5 18.015625 14.5 17.445312 L 14.5 15.5 L 11.582031 15.5 L 15.277344 15.5 C 15.933594 15.5 16.445312 15.113281 16.445312 14.140625 L 16.445312 11.804688 C 16.445312 11.089844 16.058594 10.640625 15.277344 10.640625 L 14.148438 10.640625 L 14.148438 12.195312 C 14.148438 12.769531 13.804688 13.167969 13.179688 13.167969 L 10.066406 13.167969 C 9.710938 13.167969 9.484375 13.378906 9.484375 13.75 L 9.484375 17.445312 C 9.484375 18.046875 9.730469 18.222656 10.222656 18.222656 Z M 13.722656 18.222656 "/>
<path style=" stroke:none;fill-rule:nonzero;fill:rgb(100%,100%,100%);fill-opacity:1;" d="M 12.167969 16.859375 C 12.167969 16.539062 12.429688 16.277344 12.75 16.277344 C 13.070312 16.277344 13.332031 16.539062 13.332031 16.859375 C 13.332031 17.183594 13.070312 17.445312 12.75 17.445312 C 12.429688 17.445312 12.167969 17.183594 12.167969 16.859375 Z M 12.167969 16.859375 "/>
</g>
</svg>
