<?xml version="1.0" encoding="UTF-8"?>
<svg xmlns="http://www.w3.org/2000/svg" xmlns:xlink="http://www.w3.org/1999/xlink" width="24px" height="24px" viewBox="0 0 24 24" version="1.1">
<g id="surface1">
<path style=" stroke:none;fill-rule:nonzero;fill:rgb(90.196079%,90.196079%,90.196079%);fill-opacity:1;" d="M 3.222656 0.359375 L 15.53125 0.359375 L 22.058594 6.859375 L 22.058594 22.09375 C 22.058594 22.894531 21.410156 23.542969 20.609375 23.542969 L 3.222656 23.542969 C 2.421875 23.542969 1.773438 22.894531 1.773438 22.09375 L 1.773438 1.808594 C 1.773438 1.007812 2.421875 0.359375 3.222656 0.359375 Z M 3.222656 0.359375 "/>
<path style=" stroke:none;fill-rule:nonzero;fill:rgb(40.000001%,40.000001%,40.000001%);fill-opacity:1;" d="M 7.480469 10.945312 C 7.875 10.945312 8.230469 11.148438 8.546875 11.550781 C 8.691406 11.800781 8.765625 12.027344 8.765625 12.234375 L 8.765625 12.367188 C 8.765625 12.765625 8.5625 13.121094 8.15625 13.4375 C 7.90625 13.578125 7.679688 13.652344 7.480469 13.652344 L 6.972656 13.652344 L 6.972656 14.125 C 6.972656 14.425781 6.921875 14.605469 6.816406 14.65625 C 6.816406 14.691406 6.734375 14.734375 6.570312 14.777344 L 6.453125 14.777344 C 6.285156 14.777344 6.152344 14.65625 6.0625 14.417969 L 6.0625 11.339844 C 6.0625 11.167969 6.179688 11.039062 6.417969 10.945312 Z M 6.972656 11.847656 L 6.972656 12.734375 L 7.46875 12.734375 C 7.632812 12.734375 7.761719 12.617188 7.847656 12.386719 L 7.847656 12.246094 C 7.847656 12.078125 7.734375 11.949219 7.503906 11.859375 L 7.265625 11.847656 Z M 6.972656 11.847656 "/>
<path style=" stroke:none;fill-rule:nonzero;fill:rgb(40.000001%,40.000001%,40.000001%);fill-opacity:1;" d="M 11.632812 10.945312 C 11.804688 10.945312 11.933594 11.066406 12.03125 11.304688 L 12.03125 11.453125 C 12.03125 11.625 11.910156 11.753906 11.667969 11.847656 L 10.699219 11.859375 L 10.238281 11.859375 L 10.238281 12.410156 L 11.410156 12.410156 C 11.578125 12.410156 11.710938 12.53125 11.808594 12.769531 L 11.808594 12.917969 C 11.808594 13.089844 11.6875 13.21875 11.445312 13.3125 L 11.207031 13.324219 L 10.238281 13.324219 L 10.238281 13.875 L 11.363281 13.863281 L 11.433594 13.863281 C 11.738281 13.863281 11.925781 13.953125 11.984375 14.136719 C 12 14.136719 12.015625 14.179688 12.03125 14.269531 L 12.03125 14.382812 C 12.03125 14.550781 11.910156 14.683594 11.667969 14.777344 L 9.71875 14.777344 C 9.550781 14.777344 9.417969 14.65625 9.328125 14.417969 L 9.328125 11.339844 C 9.328125 11.167969 9.445312 11.039062 9.683594 10.945312 Z M 11.632812 10.945312 "/>
<path style=" stroke:none;fill-rule:nonzero;fill:rgb(40.000001%,40.000001%,40.000001%);fill-opacity:1;" d="M 14.011719 10.945312 C 14.40625 10.945312 14.761719 11.148438 15.078125 11.550781 C 15.222656 11.800781 15.296875 12.027344 15.296875 12.234375 L 15.296875 12.367188 C 15.296875 12.785156 15.074219 13.152344 14.628906 13.464844 C 15.058594 13.871094 15.273438 14.105469 15.273438 14.175781 C 15.289062 14.207031 15.296875 14.25 15.296875 14.300781 L 15.296875 14.347656 C 15.296875 14.546875 15.175781 14.691406 14.933594 14.777344 L 14.824219 14.777344 C 14.667969 14.777344 14.480469 14.644531 14.257812 14.382812 L 13.515625 13.652344 L 13.503906 13.652344 L 13.503906 14.125 C 13.503906 14.425781 13.453125 14.605469 13.347656 14.65625 C 13.347656 14.691406 13.265625 14.734375 13.101562 14.777344 L 12.984375 14.777344 C 12.816406 14.777344 12.683594 14.65625 12.59375 14.417969 L 12.59375 11.339844 C 12.59375 11.167969 12.710938 11.039062 12.949219 10.945312 Z M 13.503906 11.847656 L 13.503906 12.734375 L 14 12.734375 C 14.164062 12.734375 14.292969 12.617188 14.378906 12.386719 L 14.378906 12.246094 C 14.378906 12.078125 14.265625 11.949219 14.035156 11.859375 L 13.796875 11.847656 Z M 13.503906 11.847656 "/>
<path style=" stroke:none;fill-rule:nonzero;fill:rgb(40.000001%,40.000001%,40.000001%);fill-opacity:1;" d="M 16.367188 10.945312 C 16.507812 10.945312 16.632812 11.042969 16.734375 11.242188 L 16.769531 11.441406 L 16.757812 13.863281 L 16.757812 13.875 L 18.164062 13.875 C 18.335938 13.875 18.46875 13.996094 18.5625 14.234375 L 18.5625 14.382812 C 18.5625 14.550781 18.441406 14.683594 18.199219 14.777344 L 16.25 14.777344 C 16.082031 14.777344 15.953125 14.65625 15.859375 14.417969 L 15.859375 11.339844 C 15.859375 11.167969 15.976562 11.039062 16.214844 10.945312 Z M 16.367188 10.945312 "/>
<path style="fill-rule:nonzero;fill:rgb(60.000002%,60.000002%,60.000002%);fill-opacity:1;stroke-width:0.149924;stroke-linecap:butt;stroke-linejoin:miter;stroke:rgb(0%,0%,0%);stroke-opacity:1;stroke-miterlimit:4;" d="M 44.078125 13.765625 L 33.976562 13.765625 C 32.375 13.765625 31.078125 12.460938 31.078125 10.867188 L 31.078125 0.75 Z M 44.078125 13.765625 " transform="matrix(0.5,0,0,0.5,0,0)"/>
<path style="fill:none;stroke-width:0.15;stroke-linecap:round;stroke-linejoin:round;stroke:rgb(0%,0%,0%);stroke-opacity:1;stroke-miterlimit:4;" d="M 6.445312 0.71875 L 31.0625 0.71875 L 44.117188 13.71875 L 44.117188 44.1875 C 44.117188 45.789062 42.820312 47.085938 41.21875 47.085938 L 6.445312 47.085938 C 4.84375 47.085938 3.546875 45.789062 3.546875 44.1875 L 3.546875 3.617188 C 3.546875 2.015625 4.84375 0.71875 6.445312 0.71875 Z M 6.445312 0.71875 " transform="matrix(0.5,0,0,0.5,0,0)"/>
</g>
</svg>
