<?xml version="1.0" encoding="UTF-8"?>
<svg xmlns="http://www.w3.org/2000/svg" xmlns:xlink="http://www.w3.org/1999/xlink" width="24px" height="24px" viewBox="0 0 24 24" version="1.1">
<g id="surface1">
<path style=" stroke:none;fill-rule:nonzero;fill:rgb(90.196079%,90.196079%,90.196079%);fill-opacity:1;" d="M 3.222656 0.359375 L 15.53125 0.359375 L 22.058594 6.859375 L 22.058594 22.09375 C 22.058594 22.894531 21.410156 23.542969 20.609375 23.542969 L 3.222656 23.542969 C 2.421875 23.542969 1.773438 22.894531 1.773438 22.09375 L 1.773438 1.808594 C 1.773438 1.007812 2.421875 0.359375 3.222656 0.359375 Z M 3.222656 0.359375 "/>
<path style=" stroke:none;fill-rule:nonzero;fill:rgb(60.000002%,60.000002%,60.000002%);fill-opacity:1;" d="M 22.039062 6.882812 L 16.988281 6.882812 C 16.1875 6.882812 15.539062 6.230469 15.539062 5.433594 L 15.539062 0.375 Z M 22.039062 6.882812 "/>
<path style="fill:none;stroke-width:0.15;stroke-linecap:round;stroke-linejoin:round;stroke:rgb(0%,0%,0%);stroke-opacity:1;stroke-miterlimit:4;" d="M 6.445312 0.71875 L 31.0625 0.71875 L 44.117188 13.71875 L 44.117188 44.1875 C 44.117188 45.789062 42.820312 47.085938 41.21875 47.085938 L 6.445312 47.085938 C 4.84375 47.085938 3.546875 45.789062 3.546875 44.1875 L 3.546875 3.617188 C 3.546875 2.015625 4.84375 0.71875 6.445312 0.71875 Z M 6.445312 0.71875 " transform="matrix(0.5,0,0,0.5,0,0)"/>
</g>
</svg>
