<?xml version="1.0" encoding="UTF-8"?>
<svg xmlns="http://www.w3.org/2000/svg" xmlns:xlink="http://www.w3.org/1999/xlink" width="24px" height="24px" viewBox="0 0 24 24" version="1.1">
<g id="surface1">
<path style=" stroke:none;fill-rule:nonzero;fill:rgb(90.196079%,90.196079%,90.196079%);fill-opacity:1;" d="M 3.222656 0.359375 L 15.53125 0.359375 L 22.058594 6.859375 L 22.058594 22.09375 C 22.058594 22.894531 21.410156 23.542969 20.609375 23.542969 L 3.222656 23.542969 C 2.421875 23.542969 1.773438 22.894531 1.773438 22.09375 L 1.773438 1.808594 C 1.773438 1.007812 2.421875 0.359375 3.222656 0.359375 Z M 3.222656 0.359375 "/>
<path style="fill-rule:nonzero;fill:rgb(60.000002%,60.000002%,60.000002%);fill-opacity:1;stroke-width:0.149924;stroke-linecap:butt;stroke-linejoin:miter;stroke:rgb(0%,0%,0%);stroke-opacity:1;stroke-miterlimit:4;" d="M 44.078125 13.765625 L 33.976562 13.765625 C 32.375 13.765625 31.078125 12.460938 31.078125 10.867188 L 31.078125 0.75 Z M 44.078125 13.765625 " transform="matrix(0.5,0,0,0.5,0,0)"/>
<path style="fill:none;stroke-width:0.15;stroke-linecap:round;stroke-linejoin:round;stroke:rgb(0%,0%,0%);stroke-opacity:1;stroke-miterlimit:4;" d="M 6.445312 0.71875 L 31.0625 0.71875 L 44.117188 13.71875 L 44.117188 44.1875 C 44.117188 45.789062 42.820312 47.085938 41.21875 47.085938 L 6.445312 47.085938 C 4.84375 47.085938 3.546875 45.789062 3.546875 44.1875 L 3.546875 3.617188 C 3.546875 2.015625 4.84375 0.71875 6.445312 0.71875 Z M 6.445312 0.71875 " transform="matrix(0.5,0,0,0.5,0,0)"/>
<path style=" stroke:none;fill-rule:nonzero;fill:rgb(40.000001%,40.000001%,40.000001%);fill-opacity:1;" d="M 5.136719 11.132812 L 5.21875 11.132812 C 5.398438 11.132812 5.535156 11.269531 5.628906 11.542969 L 6.460938 13.214844 C 6.699219 12.714844 7.027344 12.074219 7.441406 11.289062 C 7.523438 11.183594 7.621094 11.132812 7.734375 11.132812 L 7.792969 11.132812 C 7.925781 11.132812 8.046875 11.242188 8.164062 11.460938 L 8.175781 11.5 L 8.175781 11.625 L 6.800781 14.359375 C 6.707031 14.476562 6.601562 14.535156 6.480469 14.535156 L 6.410156 14.535156 C 6.253906 14.535156 6.117188 14.398438 6 14.125 C 5.699219 13.550781 5.296875 12.722656 4.789062 11.644531 L 4.78125 11.582031 L 4.78125 11.492188 C 4.78125 11.359375 4.875 11.25 5.0625 11.152344 Z M 5.136719 11.132812 "/>
<path style=" stroke:none;fill-rule:nonzero;fill:rgb(40.000001%,40.000001%,40.000001%);fill-opacity:1;" d="M 10.378906 11.132812 C 10.570312 11.132812 10.726562 11.296875 10.851562 11.625 C 11.617188 13.125 12.023438 13.933594 12.070312 14.042969 L 12.070312 14.167969 C 12.070312 14.261719 11.980469 14.371094 11.796875 14.507812 L 11.691406 14.535156 L 11.628906 14.535156 C 11.457031 14.535156 11.320312 14.40625 11.21875 14.148438 L 11.105469 13.9375 L 9.613281 13.9375 C 9.460938 14.304688 9.347656 14.484375 9.277344 14.484375 C 9.246094 14.519531 9.191406 14.535156 9.117188 14.535156 L 9.035156 14.535156 C 8.910156 14.535156 8.796875 14.445312 8.695312 14.265625 L 8.675781 14.179688 L 8.675781 14.085938 C 8.675781 14.035156 8.835938 13.6875 9.15625 13.042969 C 9.574219 12.160156 9.871094 11.566406 10.042969 11.269531 C 10.125 11.183594 10.210938 11.140625 10.296875 11.132812 Z M 10.023438 13.125 L 10.6875 13.125 L 10.359375 12.453125 C 10.304688 12.535156 10.191406 12.761719 10.023438 13.125 Z M 10.023438 13.125 "/>
<path style=" stroke:none;fill-rule:nonzero;fill:rgb(40.000001%,40.000001%,40.000001%);fill-opacity:1;" d="M 13.023438 11.132812 C 13.148438 11.132812 13.257812 11.21875 13.351562 11.394531 L 13.382812 11.574219 L 13.371094 13.726562 L 13.371094 13.738281 L 14.621094 13.738281 C 14.773438 13.738281 14.890625 13.84375 14.976562 14.054688 L 14.976562 14.1875 C 14.976562 14.339844 14.867188 14.453125 14.652344 14.535156 L 12.921875 14.535156 C 12.769531 14.535156 12.652344 14.429688 12.570312 14.21875 L 12.570312 11.480469 C 12.570312 11.332031 12.675781 11.214844 12.890625 11.132812 Z M 13.023438 11.132812 "/>
<path style=" stroke:none;fill-rule:nonzero;fill:rgb(40.000001%,40.000001%,40.000001%);fill-opacity:1;" d="M 17.179688 11.132812 C 17.371094 11.132812 17.527344 11.296875 17.648438 11.625 C 18.417969 13.125 18.824219 13.933594 18.871094 14.042969 L 18.871094 14.167969 C 18.871094 14.261719 18.78125 14.371094 18.597656 14.507812 L 18.492188 14.535156 L 18.429688 14.535156 C 18.257812 14.535156 18.121094 14.40625 18.019531 14.148438 L 17.90625 13.9375 L 16.414062 13.9375 C 16.261719 14.304688 16.148438 14.484375 16.074219 14.484375 C 16.046875 14.519531 15.992188 14.535156 15.917969 14.535156 L 15.835938 14.535156 C 15.710938 14.535156 15.597656 14.445312 15.496094 14.265625 L 15.476562 14.179688 L 15.476562 14.085938 C 15.476562 14.035156 15.636719 13.6875 15.957031 13.042969 C 16.375 12.160156 16.671875 11.566406 16.84375 11.269531 C 16.925781 11.183594 17.011719 11.140625 17.097656 11.132812 Z M 16.824219 13.125 L 17.484375 13.125 L 17.15625 12.453125 C 17.101562 12.535156 16.992188 12.761719 16.824219 13.125 Z M 16.824219 13.125 "/>
</g>
</svg>
