<?xml version="1.0" encoding="UTF-8"?>
<svg xmlns="http://www.w3.org/2000/svg" xmlns:xlink="http://www.w3.org/1999/xlink" width="24px" height="24px" viewBox="0 0 24 24" version="1.1">
<g id="surface1">
<path style="fill-rule:nonzero;fill:rgb(50.196081%,50.196081%,50.196081%);fill-opacity:1;stroke-width:0.999669;stroke-linecap:round;stroke-linejoin:round;stroke:rgb(0%,0%,0%);stroke-opacity:1;stroke-miterlimit:4;" d="M 38.65872 0.00788246 L 202.872453 0.00788246 L 289.911897 86.687659 L 289.911897 289.950966 C 289.911897 300.638217 281.279886 309.270228 270.592634 309.270228 L 38.65872 309.270228 C 27.971468 309.270228 19.339457 300.638217 19.339457 289.950966 L 19.339457 19.327145 C 19.339457 8.639893 27.971468 0.00788246 38.65872 0.00788246 Z M 38.65872 0.00788246 " transform="matrix(0.0760252,0,0,0.0760252,0.678152,0.304088)"/>
<path style=" stroke:none;fill-rule:nonzero;fill:rgb(50.196081%,50.196081%,50.196081%);fill-opacity:1;" d="M 3.617188 0.304688 L 16.101562 0.304688 L 22.71875 6.894531 L 22.71875 22.347656 C 22.71875 23.160156 22.0625 23.816406 21.25 23.816406 L 3.617188 23.816406 C 2.804688 23.816406 2.148438 23.160156 2.148438 22.347656 L 2.148438 1.773438 C 2.148438 0.960938 2.804688 0.304688 3.617188 0.304688 Z M 3.617188 0.304688 "/>
<path style="fill-rule:nonzero;fill:rgb(30.19608%,30.19608%,30.19608%);fill-opacity:1;stroke-width:1;stroke-linecap:butt;stroke-linejoin:miter;stroke:rgb(0%,0%,0%);stroke-opacity:1;stroke-miterlimit:4;" d="M 289.654992 86.995945 L 222.294477 86.995945 C 211.607226 86.995945 202.975215 78.312553 202.975215 67.676683 L 202.975215 0.213407 Z M 289.654992 86.995945 " transform="matrix(0.0760252,0,0,0.0760252,0.678152,0.304088)"/>
<path style=" stroke:none;fill-rule:nonzero;fill:rgb(94.901961%,94.901961%,94.901961%);fill-opacity:1;" d="M 8.5 6.976562 L 16 6.976562 L 16 8.976562 L 15 7.976562 L 10 7.976562 L 13 10.976562 L 10 13.976562 L 15 13.976562 L 16 12.976562 L 16 14.976562 L 8.5 14.976562 L 8.5 13.976562 L 11.5 10.976562 L 8.5 7.976562 Z M 8.5 6.976562 "/>
<path style=" stroke:none;fill-rule:nonzero;fill:rgb(94.901961%,94.901961%,94.901961%);fill-opacity:1;" d="M 8.5 15.964844 L 9 16.683594 L 8.5 17.464844 L 9 17.464844 L 9.234375 16.964844 L 9.5 17.464844 L 10 17.464844 L 9.5 16.683594 L 10 15.964844 L 9.5 15.964844 L 9.25 16.464844 L 9 15.964844 Z M 10.5 15.964844 L 10.5 16.464844 L 10 16.464844 L 10 16.964844 L 10.5 16.964844 L 10.5 17.464844 L 11 17.464844 L 11 16.964844 L 11.5 16.964844 L 11.5 16.464844 L 11 16.464844 L 11 15.964844 Z M 11.5 15.964844 L 12 16.964844 L 12 17.464844 L 11.5 17.464844 L 11.5 17.964844 L 12 17.964844 L 12.5 17.464844 L 12.5 16.964844 L 13 15.964844 L 12.5 15.964844 L 12.25 16.464844 L 12 15.964844 Z M 13.25 15.964844 L 13.25 16.464844 L 14 16.464844 L 14 15.964844 Z M 14.5 15.964844 L 14.5 16.464844 L 15.25 16.464844 L 14.5 16.964844 L 14.5 17.464844 L 16 17.464844 L 16 16.964844 L 15.25 16.964844 L 16 16.464844 L 16 15.964844 Z M 13.25 16.964844 L 13.265625 17.464844 L 14 17.464844 L 14 16.964844 Z M 13.25 16.964844 "/>
</g>
</svg>
