<?xml version="1.0" encoding="UTF-8" standalone="no"?>
<svg
   xmlns:dc="http://purl.org/dc/elements/1.1/"
   xmlns:cc="http://creativecommons.org/ns#"
   xmlns:rdf="http://www.w3.org/1999/02/22-rdf-syntax-ns#"
   xmlns:svg="http://www.w3.org/2000/svg"
   xmlns="http://www.w3.org/2000/svg"
   xmlns:sodipodi="http://sodipodi.sourceforge.net/DTD/sodipodi-0.dtd"
   xmlns:inkscape="http://www.inkscape.org/namespaces/inkscape"
   height="48"
   width="48"
   version="1"
   id="svg14"
   sodipodi:docname="computer.svg"
   inkscape:version="0.92.2 2405546, 2018-03-11">
  <metadata
     id="metadata20">
    <rdf:RDF>
      <cc:Work
         rdf:about="">
        <dc:format>image/svg+xml</dc:format>
        <dc:type
           rdf:resource="http://purl.org/dc/dcmitype/StillImage" />
      </cc:Work>
    </rdf:RDF>
  </metadata>
  <defs
     id="defs18">
    <linearGradient
       id="linearGradient3332-412-419-652-471-3">
      <stop
         id="stop2759-6"
         style="stop-color:#30b4e2;stop-opacity:1"
         offset="0" />
      <stop
         id="stop2761-7"
         style="stop-color:#bc27ad;stop-opacity:1"
         offset="1" />
    </linearGradient>
  </defs>
  <sodipodi:namedview
     pagecolor="#ffffff"
     bordercolor="#666666"
     borderopacity="1"
     objecttolerance="10"
     gridtolerance="10"
     guidetolerance="10"
     inkscape:pageopacity="0"
     inkscape:pageshadow="2"
     inkscape:window-width="1870"
     inkscape:window-height="1013"
     id="namedview16"
     showgrid="false"
     inkscape:zoom="9.8333333"
     inkscape:cx="-2.9491529"
     inkscape:cy="29.181605"
     inkscape:window-x="0"
     inkscape:window-y="0"
     inkscape:window-maximized="1"
     inkscape:current-layer="svg14" />
  <path
     inkscape:connector-curvature="0"
     style="opacity:0.2;fill:#000000;fill-opacity:1;stroke:none;stroke-width:0.28717291;stroke-linejoin:round;stroke-miterlimit:4;stroke-dasharray:none;stroke-opacity:1;paint-order:stroke fill markers"
     d="m 18.431091,34.285843 c -0.899385,0 -1.623094,0.723708 -1.623094,1.623093 v 2.335963 h -0.352408 c -0.831966,0 -1.502267,0.668288 -1.502267,1.500253 v 2.269509 c 0,0.831965 0.670301,1.502266 1.502267,1.502266 h 14.815248 c 0.831964,0 1.502263,-0.670301 1.502263,-1.502266 v -2.269509 c 0,-0.831965 -0.670299,-1.500253 -1.502263,-1.500253 h -0.350402 v -2.335963 c 0,-0.899385 -0.723703,-1.623093 -1.623091,-1.623093 z"
     id="rect847-8" />
  <path
     inkscape:connector-curvature="0"
     style="opacity:1;fill:#333333;fill-opacity:1;stroke:none;stroke-width:0.28717291;stroke-linejoin:round;stroke-miterlimit:4;stroke-dasharray:none;stroke-opacity:1;paint-order:stroke fill markers"
     d="m 18.431091,33.560629 c -0.899385,0 -1.623094,0.723708 -1.623094,1.623093 v 2.335963 h -0.352408 c -0.831966,0 -1.502267,0.668289 -1.502267,1.500253 v 2.26951 c 0,0.831965 0.670301,1.502266 1.502267,1.502266 h 14.815248 c 0.831964,0 1.502263,-0.670301 1.502263,-1.502266 v -2.26951 c 0,-0.831964 -0.670299,-1.500253 -1.502263,-1.500253 h -0.350402 v -2.335963 c 0,-0.899385 -0.723703,-1.623093 -1.623091,-1.623093 z"
     id="rect847" />
  <rect
     style="opacity:0.2;fill:#000000;fill-opacity:1;stroke-width:0.4981944"
     x="0.45314953"
     y="5.5503988"
     width="47.305084"
     height="31.284746"
     id="rect276-5-1"
     rx="2.2618408"
     ry="2.3109825" />
  <rect
     style="fill:#333333;fill-opacity:1;stroke-width:0.4981944"
     x="0.45314953"
     y="4.7584133"
     width="47.305084"
     height="31.284746"
     id="rect276-5"
     rx="2.2618408"
     ry="2.3109825" />
  <rect
     style="fill:#5be810;stroke-width:0.32321629"
     x="41.793732"
     y="34.04443"
     width="2.1784775"
     height="0.98580986"
     id="rect280-5"
     rx="0.49290493"
     ry="0.49290493" />
  <rect
     style="fill:#4d4d4d;fill-opacity:1;stroke-width:0.45065528"
     x="1.7665596"
     y="6.0135245"
     width="44.467464"
     height="27.232607"
     id="rect276-5-7"
     rx="2.1261635"
     ry="2.0116541" />
</svg>
