<?xml version="1.0" encoding="UTF-8"?>
<svg xmlns="http://www.w3.org/2000/svg" xmlns:xlink="http://www.w3.org/1999/xlink" width="24px" height="24px" viewBox="0 0 24 24" version="1.1">
<g id="surface1">
<path style=" stroke:none;fill-rule:nonzero;fill:rgb(16.470589%,36.078432%,61.56863%);fill-opacity:1;" d="M 3.589844 0.257812 L 20.671875 0.257812 C 21.679688 0.257812 22.5 1.074219 22.5 2.085938 L 22.5 21.976562 C 22.5 22.984375 21.679688 23.804688 20.671875 23.804688 L 3.589844 23.804688 C 2.582031 23.804688 1.761719 22.984375 1.761719 21.976562 L 1.761719 2.085938 C 1.761719 1.074219 2.582031 0.257812 3.589844 0.257812 Z M 3.589844 0.257812 "/>
<path style=" stroke:none;fill-rule:nonzero;fill:rgb(100%,100%,100%);fill-opacity:1;" d="M 16.191406 6.660156 L 16.191406 6.664062 C 15.796875 6.664062 15.039062 7.5625 14.753906 7.703125 C 14.46875 7.847656 12.207031 9.457031 11.996094 9.742188 C 11.78125 10.023438 11.496094 10.144531 11.1875 10.117188 C 10.878906 10.09375 9.902344 10.085938 9.566406 10.273438 C 9.234375 10.464844 7.714844 12.011719 7.335938 12.203125 C 6.957031 12.390625 6.457031 12.488281 6.222656 12.511719 C 5.984375 12.535156 5.195312 13.410156 4.980469 13.574219 C 4.769531 13.742188 3.078125 14.46875 2.839844 14.613281 C 2.601562 14.753906 4.574219 16.742188 4.859375 16.789062 C 5.097656 16.832031 4.4375 17.269531 4.199219 17.671875 C 4.199219 17.671875 4.171875 17.671875 4.171875 17.671875 L 2.265625 19.773438 L 2.265625 21.398438 C 2.265625 22.414062 3.082031 23.230469 4.09375 23.230469 L 13.710938 23.230469 L 13.796875 21.304688 C 13.808594 21.304688 13.820312 21.300781 13.832031 21.296875 C 13.917969 20.84375 13.871094 20.117188 13.921875 19.660156 C 13.96875 19.234375 14.132812 15.660156 14.753906 14.710938 C 15.371094 13.765625 17.136719 12.628906 17.753906 12.511719 C 18.375 12.390625 18.253906 12.15625 18.253906 11.941406 C 18.253906 11.730469 18.160156 11.253906 17.992188 11.183594 C 17.828125 11.113281 17.175781 11.539062 16.964844 11.585938 C 16.75 11.632812 15.726562 11.707031 15.585938 11.46875 C 15.441406 11.234375 16.738281 8.816406 16.902344 8.535156 C 17.070312 8.25 17.140625 7.871094 16.832031 7.46875 C 16.523438 7.066406 16.3125 6.660156 16.191406 6.660156 Z M 16.191406 6.660156 "/>
<path style=" stroke:none;fill-rule:nonzero;fill:rgb(16.470589%,36.078432%,61.56863%);fill-opacity:1;" d="M 10.835938 11.726562 C 10.835938 11.726562 9.910156 11.589844 9.375 12.105469 C 8.84375 12.617188 8.378906 13.753906 8.414062 14.097656 C 8.449219 14.441406 9.519531 12.929688 9.980469 12.824219 C 10.445312 12.722656 10.945312 11.964844 10.835938 11.726562 Z M 10.835938 11.726562 "/>
</g>
</svg>
