<?xml version="1.0" encoding="UTF-8"?>
<svg xmlns="http://www.w3.org/2000/svg" xmlns:xlink="http://www.w3.org/1999/xlink" width="24px" height="24px" viewBox="0 0 24 24" version="1.1">
<g id="surface1">
<path style="fill-rule:nonzero;fill:rgb(81.176472%,70.588237%,54.509807%);fill-opacity:1;stroke-width:0.45;stroke-linecap:round;stroke-linejoin:round;stroke:rgb(40.000001%,25.882354%,5.098039%);stroke-opacity:1;stroke-miterlimit:4;" d="M 279.015625 901.159027 L 312.507812 901.159027 C 314.492188 901.159027 316.09375 902.768402 316.09375 904.752777 L 316.09375 943.752777 C 316.09375 945.737152 314.492188 947.338715 312.507812 947.338715 L 279.015625 947.338715 C 277.039062 947.338715 275.429688 945.737152 275.429688 943.752777 L 275.429688 904.752777 C 275.429688 902.768402 277.039062 901.159027 279.015625 901.159027 Z M 279.015625 901.159027 " transform="matrix(0.5,0,0,0.5,-136,-450.181076)"/>
<path style=" stroke:none;fill-rule:nonzero;fill:rgb(32.549021%,40.392157%,42.352942%);fill-opacity:1;" d="M 8.167969 10.707031 C 7.335938 10.707031 6.648438 11.394531 6.648438 12.226562 C 6.648438 13.0625 7.335938 13.75 8.167969 13.75 L 15.429688 13.75 C 16.261719 13.75 16.949219 13.0625 16.949219 12.226562 C 16.949219 11.394531 16.261719 10.707031 15.429688 10.707031 Z M 8.167969 10.707031 "/>
<path style=" stroke:none;fill-rule:nonzero;fill:rgb(100%,100%,100%);fill-opacity:1;" d="M 8.167969 11.191406 L 15.429688 11.191406 C 16 11.191406 16.464844 11.65625 16.464844 12.226562 C 16.464844 12.800781 16 13.265625 15.429688 13.265625 L 8.167969 13.265625 C 7.597656 13.265625 7.132812 12.800781 7.132812 12.226562 C 7.132812 11.65625 7.597656 11.191406 8.167969 11.191406 Z M 8.167969 11.191406 "/>
<path style=" stroke:none;fill-rule:nonzero;fill:rgb(100%,33.333334%,33.333334%);fill-opacity:1;" d="M 8.167969 11.710938 C 7.875 11.710938 7.652344 11.933594 7.652344 12.226562 C 7.652344 12.519531 7.875 12.746094 8.167969 12.746094 L 12.835938 12.746094 C 13.128906 12.746094 13.355469 12.519531 13.355469 12.226562 C 13.355469 11.933594 13.128906 11.710938 12.835938 11.710938 Z M 8.167969 11.710938 "/>
<path style="fill-rule:nonzero;fill:rgb(47.058824%,26.666668%,12.941177%);fill-opacity:1;stroke-width:0.766;stroke-linecap:round;stroke-linejoin:round;stroke:rgb(47.058824%,26.666668%,12.941177%);stroke-opacity:1;stroke-miterlimit:4;" d="M 295.4375 911.174652 C 290.632812 911.182465 286.101562 913.409027 283.164062 917.205902 L 285.367188 917.205902 C 287.984375 914.432465 291.625 912.85434 295.4375 912.846527 C 299.179688 912.846527 302.765625 914.369965 305.367188 917.057465 L 304.257812 917.807465 L 308.640625 920.244965 L 307.921875 915.330902 L 306.757812 916.119965 C 303.828125 912.971527 299.734375 911.182465 295.4375 911.174652 Z M 295.4375 911.174652 " transform="matrix(0.5,0,0,0.5,-136,-450.181076)"/>
<path style="fill-rule:nonzero;fill:rgb(47.058824%,26.666668%,12.941177%);fill-opacity:1;stroke-width:0.765883;stroke-linecap:round;stroke-linejoin:round;stroke:rgb(47.058824%,26.666668%,12.941177%);stroke-opacity:1;stroke-miterlimit:4;" d="M 296.078125 938.205902 C 300.882812 938.19809 305.414062 935.971527 308.351562 932.174652 L 306.148438 932.174652 C 303.53125 934.94809 299.890625 936.526215 296.078125 936.534027 C 292.335938 936.526215 288.75 935.01059 286.148438 932.32309 L 287.257812 931.57309 L 282.875 929.13559 L 283.59375 934.04184 L 284.757812 933.26059 C 287.679688 936.401215 291.78125 938.19809 296.078125 938.205902 Z M 296.078125 938.205902 " transform="matrix(0.5,0,0,0.5,-136,-450.181076)"/>
</g>
</svg>
