<?xml version="1.0" encoding="UTF-8"?>
<svg xmlns="http://www.w3.org/2000/svg" xmlns:xlink="http://www.w3.org/1999/xlink" width="24px" height="24px" viewBox="0 0 24 24" version="1.1">
<g id="surface1">
<path style=" stroke:none;fill-rule:nonzero;fill:rgb(40.000001%,40.000001%,40.000001%);fill-opacity:1;" d="M 9.085938 11.992188 C 9.085938 10.351562 10.417969 9.019531 12.054688 9.019531 L 16.015625 9.019531 L 16.015625 1.101562 C 16.015625 0.554688 15.570312 0.109375 15.023438 0.109375 L 1.164062 0.109375 C 0.617188 0.109375 0.175781 0.554688 0.175781 1.101562 L 0.175781 22.878906 C 0.175781 23.425781 0.617188 23.871094 1.164062 23.871094 L 15.023438 23.871094 C 15.570312 23.871094 16.015625 23.425781 16.015625 22.878906 L 16.015625 14.960938 L 12.054688 14.960938 C 10.417969 14.960938 9.085938 13.628906 9.085938 11.992188 Z M 9.085938 11.992188 "/>
<path style=" stroke:none;fill-rule:nonzero;fill:rgb(40.000001%,40.000001%,40.000001%);fill-opacity:1;" d="M 23.710938 12.617188 C 23.714844 12.613281 23.714844 12.609375 23.71875 12.605469 C 23.738281 12.582031 23.753906 12.5625 23.769531 12.539062 C 23.773438 12.527344 23.78125 12.515625 23.789062 12.507812 C 23.796875 12.488281 23.808594 12.472656 23.816406 12.457031 C 23.824219 12.441406 23.832031 12.429688 23.835938 12.414062 C 23.84375 12.398438 23.851562 12.382812 23.859375 12.371094 C 23.863281 12.351562 23.871094 12.335938 23.875 12.320312 C 23.882812 12.304688 23.886719 12.292969 23.890625 12.277344 C 23.898438 12.257812 23.902344 12.238281 23.90625 12.21875 C 23.910156 12.207031 23.910156 12.199219 23.914062 12.1875 C 23.917969 12.160156 23.921875 12.132812 23.925781 12.105469 C 23.925781 12.101562 23.929688 12.09375 23.929688 12.089844 C 23.933594 12.023438 23.933594 11.957031 23.929688 11.890625 C 23.929688 11.886719 23.925781 11.882812 23.925781 11.875 C 23.921875 11.847656 23.917969 11.820312 23.914062 11.796875 C 23.910156 11.785156 23.910156 11.773438 23.90625 11.761719 C 23.902344 11.742188 23.898438 11.722656 23.890625 11.703125 C 23.886719 11.6875 23.882812 11.675781 23.875 11.660156 C 23.871094 11.644531 23.863281 11.628906 23.859375 11.613281 C 23.851562 11.597656 23.84375 11.582031 23.835938 11.566406 C 23.832031 11.554688 23.824219 11.539062 23.816406 11.523438 C 23.808594 11.507812 23.796875 11.492188 23.789062 11.476562 C 23.78125 11.464844 23.773438 11.453125 23.769531 11.441406 C 23.753906 11.417969 23.738281 11.398438 23.71875 11.375 C 23.714844 11.371094 23.714844 11.367188 23.710938 11.363281 C 23.6875 11.335938 23.664062 11.3125 23.640625 11.285156 L 19.683594 7.332031 C 19.296875 6.945312 18.671875 6.945312 18.285156 7.332031 C 17.898438 7.71875 17.898438 8.34375 18.285156 8.730469 L 20.554688 11 L 12.054688 11 C 11.507812 11 11.0625 11.445312 11.0625 11.992188 C 11.0625 12.535156 11.507812 12.980469 12.054688 12.980469 L 20.554688 12.980469 L 18.285156 15.25 C 17.898438 15.636719 17.898438 16.261719 18.285156 16.648438 C 18.476562 16.84375 18.730469 16.941406 18.984375 16.941406 C 19.238281 16.941406 19.492188 16.84375 19.683594 16.648438 L 23.640625 12.695312 C 23.664062 12.667969 23.6875 12.644531 23.710938 12.617188 Z M 23.710938 12.617188 "/>
</g>
</svg>
