<?xml version="1.0" encoding="UTF-8"?>
<svg xmlns="http://www.w3.org/2000/svg" xmlns:xlink="http://www.w3.org/1999/xlink" width="24px" height="24px" viewBox="0 0 24 24" version="1.1">
<g id="surface1">
<path style="fill-rule:nonzero;fill:rgb(94.901961%,94.901961%,94.901961%);fill-opacity:1;stroke-width:0.356959;stroke-linecap:round;stroke-linejoin:round;stroke:rgb(0%,0%,0%);stroke-opacity:1;stroke-miterlimit:4;" d="M 7.179688 0.515625 L 41.34375 0.515625 C 43.359375 0.515625 45 2.148438 45 4.171875 L 45 43.953125 C 45 45.96875 43.359375 47.609375 41.34375 47.609375 L 7.179688 47.609375 C 5.164062 47.609375 3.523438 45.96875 3.523438 43.953125 L 3.523438 4.171875 C 3.523438 2.148438 5.164062 0.515625 7.179688 0.515625 Z M 7.179688 0.515625 " transform="matrix(0.5,0,0,0.5,0,0)"/>
<path style=" stroke:none;fill-rule:nonzero;fill:rgb(26.666668%,66.666669%,0%);fill-opacity:1;" d="M 8.351562 4.070312 L 13.292969 4.070312 L 13.292969 5.570312 L 8.351562 5.570312 Z M 8.351562 4.070312 "/>
<path style=" stroke:none;fill-rule:nonzero;fill:rgb(74.117649%,74.117649%,74.117649%);fill-opacity:1;" d="M 8.351562 6.070312 L 13.292969 6.070312 L 13.292969 7.570312 L 8.351562 7.570312 Z M 8.351562 6.070312 "/>
<path style=" stroke:none;fill-rule:nonzero;fill:rgb(74.117649%,74.117649%,74.117649%);fill-opacity:1;" d="M 8.351562 8.070312 L 13.292969 8.070312 L 13.292969 9.570312 L 8.351562 9.570312 Z M 8.351562 8.070312 "/>
<path style=" stroke:none;fill-rule:nonzero;fill:rgb(74.117649%,74.117649%,74.117649%);fill-opacity:1;" d="M 8.351562 10.070312 L 13.292969 10.070312 L 13.292969 11.570312 L 8.351562 11.570312 Z M 8.351562 10.070312 "/>
<path style=" stroke:none;fill-rule:nonzero;fill:rgb(74.117649%,74.117649%,74.117649%);fill-opacity:1;" d="M 8.351562 12.070312 L 13.292969 12.070312 L 13.292969 13.570312 L 8.351562 13.570312 Z M 8.351562 12.070312 "/>
<path style=" stroke:none;fill-rule:nonzero;fill:rgb(26.666668%,66.666669%,0%);fill-opacity:1;" d="M 14.53125 4.070312 L 19.472656 4.070312 L 19.472656 5.570312 L 14.53125 5.570312 Z M 14.53125 4.070312 "/>
<path style=" stroke:none;fill-rule:nonzero;fill:rgb(74.117649%,74.117649%,74.117649%);fill-opacity:1;" d="M 14.53125 6.070312 L 19.472656 6.070312 L 19.472656 7.570312 L 14.53125 7.570312 Z M 14.53125 6.070312 "/>
<path style=" stroke:none;fill-rule:nonzero;fill:rgb(74.117649%,74.117649%,74.117649%);fill-opacity:1;" d="M 14.53125 8.070312 L 19.472656 8.070312 L 19.472656 9.570312 L 14.53125 9.570312 Z M 14.53125 8.070312 "/>
<path style=" stroke:none;fill-rule:nonzero;fill:rgb(74.117649%,74.117649%,74.117649%);fill-opacity:1;" d="M 14.53125 10.070312 L 19.472656 10.070312 L 19.472656 11.570312 L 14.53125 11.570312 Z M 14.53125 10.070312 "/>
<path style=" stroke:none;fill-rule:nonzero;fill:rgb(74.117649%,74.117649%,74.117649%);fill-opacity:1;" d="M 14.53125 12.070312 L 19.472656 12.070312 L 19.472656 13.570312 L 14.53125 13.570312 Z M 14.53125 12.070312 "/>
<path style=" stroke:none;fill-rule:nonzero;fill:rgb(21.568628%,44.313726%,78.431374%);fill-opacity:1;" d="M 15.285156 19.089844 C 15.058594 19.089844 14.875 19.304688 14.875 19.574219 L 14.875 23.0625 C 14.902344 23.066406 14.933594 23.066406 14.964844 23.066406 C 17.113281 23.066406 18.859375 21.324219 18.859375 19.175781 C 18.859375 19.144531 18.855469 19.117188 18.855469 19.089844 Z M 15.285156 19.089844 "/>
<path style=" stroke:none;fill-rule:nonzero;fill:rgb(78.431374%,21.568628%,21.568628%);fill-opacity:1;" d="M 14.21875 14.636719 C 12.070312 14.636719 10.324219 16.378906 10.324219 18.53125 C 10.328125 20.644531 12.015625 22.371094 14.128906 22.421875 L 14.128906 18.929688 C 14.128906 18.664062 14.3125 18.449219 14.539062 18.449219 L 18.109375 18.449219 C 18.066406 16.332031 16.335938 14.636719 14.21875 14.636719 Z M 14.21875 14.636719 "/>
<path style=" stroke:none;fill-rule:nonzero;fill:rgb(17.254902%,62.7451%,53.725493%);fill-opacity:1;" d="M 15.027344 19.199219 C 14.933594 19.285156 14.875 19.421875 14.875 19.574219 L 14.875 23.0625 C 14.902344 23.066406 14.933594 23.066406 14.964844 23.066406 C 15.949219 23.066406 16.894531 22.691406 17.613281 22.023438 Z M 15.027344 19.199219 "/>
<path style=" stroke:none;fill-rule:nonzero;fill:rgb(26.666668%,66.666669%,0%);fill-opacity:1;" d="M 3.589844 0.257812 C 2.578125 0.257812 1.761719 1.070312 1.761719 2.085938 L 1.761719 21.976562 C 1.761719 22.988281 2.578125 23.804688 3.589844 23.804688 L 5.367188 23.804688 L 5.367188 0.257812 Z M 3.589844 0.257812 "/>
</g>
</svg>
