<?xml version="1.0" encoding="UTF-8"?>
<svg xmlns="http://www.w3.org/2000/svg" xmlns:xlink="http://www.w3.org/1999/xlink" width="24px" height="24px" viewBox="0 0 24 24" version="1.1">
<g id="surface1">
<path style="fill-rule:nonzero;fill:rgb(94.901961%,94.901961%,94.901961%);fill-opacity:1;stroke-width:0.330112;stroke-linecap:round;stroke-linejoin:round;stroke:rgb(0%,0%,0%);stroke-opacity:1;stroke-miterlimit:4;" d="M 8.90625 4 L 40.5 4 C 42.367188 4 43.882812 5.515625 43.882812 7.382812 L 43.882812 44.171875 C 43.882812 46.039062 42.367188 47.554688 40.5 47.554688 L 8.90625 47.554688 C 7.039062 47.554688 5.523438 46.039062 5.523438 44.171875 L 5.523438 7.382812 C 5.523438 5.515625 7.039062 4 8.90625 4 Z M 8.90625 4 " transform="matrix(0.5,0,0,0.5,0,0)"/>
<path style=" stroke:none;fill-rule:evenodd;fill:rgb(100%,100%,100%);fill-opacity:1;" d="M 19.0625 13.753906 L 20.472656 15.160156 L 14.835938 20.796875 L 13.425781 19.386719 Z M 19.0625 13.753906 "/>
<path style=" stroke:none;fill-rule:evenodd;fill:rgb(35.294119%,35.294119%,35.294119%);fill-opacity:1;" d="M 15.011719 20.621094 L 19.589844 16.042969 L 18.183594 14.632812 L 13.605469 19.210938 Z M 15.011719 20.621094 "/>
<path style=" stroke:none;fill-rule:evenodd;fill:rgb(35.294119%,35.294119%,35.294119%);fill-opacity:1;" d="M 13.425781 19.386719 L 12.898438 20.621094 L 12.371094 21.851562 L 13.605469 21.324219 L 14.835938 20.796875 Z M 13.425781 19.386719 "/>
<path style=" stroke:none;fill-rule:evenodd;fill:rgb(35.294119%,35.294119%,35.294119%);fill-opacity:1;" d="M 20.648438 13.226562 L 21 13.578125 C 21.292969 13.871094 21.339844 14.292969 21 14.632812 L 20.296875 15.335938 L 18.886719 13.929688 L 19.589844 13.226562 C 19.933594 12.882812 20.355469 12.933594 20.648438 13.226562 Z M 20.648438 13.226562 "/>
<path style=" stroke:none;fill-rule:evenodd;fill:rgb(100%,100%,100%);fill-opacity:1;" d="M 18.183594 15.691406 C 18.28125 15.789062 18.28125 15.945312 18.183594 16.042969 L 15.011719 19.210938 C 14.914062 19.308594 14.757812 19.308594 14.660156 19.210938 C 14.5625 19.113281 14.5625 18.957031 14.660156 18.859375 L 17.828125 15.691406 C 17.925781 15.59375 18.085938 15.59375 18.183594 15.691406 Z M 18.183594 15.691406 "/>
<path style=" stroke:none;fill-rule:evenodd;fill:rgb(35.294119%,35.294119%,35.294119%);fill-opacity:1;" d="M 18.535156 14.28125 C 18.632812 14.183594 18.789062 14.183594 18.886719 14.28125 L 19.941406 15.335938 C 20.039062 15.433594 20.039062 15.59375 19.941406 15.691406 C 19.847656 15.789062 19.6875 15.789062 19.589844 15.691406 L 18.535156 14.632812 C 18.4375 14.535156 18.4375 14.378906 18.535156 14.28125 Z M 18.535156 14.28125 "/>
<path style=" stroke:none;fill-rule:nonzero;fill:rgb(50.196081%,50.196081%,50.196081%);fill-opacity:1;" d="M 7.144531 7.3125 L 17.777344 7.3125 L 17.777344 8.234375 L 7.144531 8.234375 Z M 7.144531 7.3125 "/>
<path style=" stroke:none;fill-rule:nonzero;fill:rgb(50.196081%,50.196081%,50.196081%);fill-opacity:1;" d="M 7.144531 9.160156 L 17.777344 9.160156 L 17.777344 10.085938 L 7.144531 10.085938 Z M 7.144531 9.160156 "/>
<path style=" stroke:none;fill-rule:nonzero;fill:rgb(50.196081%,50.196081%,50.196081%);fill-opacity:1;" d="M 7.144531 11.011719 L 17.777344 11.011719 L 17.777344 11.933594 L 7.144531 11.933594 Z M 7.144531 11.011719 "/>
<path style=" stroke:none;fill-rule:nonzero;fill:rgb(50.196081%,50.196081%,50.196081%);fill-opacity:1;" d="M 7.144531 12.859375 L 17.777344 12.859375 L 17.777344 13.785156 L 7.144531 13.785156 Z M 7.144531 12.859375 "/>
<path style=" stroke:none;fill-rule:nonzero;fill:rgb(50.196081%,50.196081%,50.196081%);fill-opacity:1;" d="M 7.144531 14.710938 L 16.097656 14.710938 L 16.097656 15.632812 L 7.144531 15.632812 Z M 7.144531 14.710938 "/>
<path style=" stroke:none;fill-rule:nonzero;fill:rgb(50.196081%,50.196081%,50.196081%);fill-opacity:1;" d="M 7.144531 16.558594 L 12.179688 16.558594 L 12.179688 17.484375 L 7.144531 17.484375 Z M 7.144531 16.558594 "/>
<path style=" stroke:none;fill-rule:nonzero;fill:rgb(35.294119%,35.294119%,35.294119%);fill-opacity:1;" d="M 6.429688 4.5625 C 5.890625 4.5625 5.457031 4.125 5.457031 3.589844 C 5.457031 3.050781 5.890625 2.617188 6.429688 2.617188 C 6.964844 2.617188 7.402344 3.050781 7.402344 3.589844 C 7.402344 4.125 6.964844 4.5625 6.429688 4.5625 Z M 6.429688 4.5625 "/>
<path style="fill-rule:nonzero;fill:rgb(60.000002%,60.000002%,60.000002%);fill-opacity:1;stroke-width:0.258711;stroke-linecap:butt;stroke-linejoin:miter;stroke:rgb(0%,0%,0%);stroke-opacity:1;stroke-miterlimit:4;" d="M -21.477622 -5.257897 L -15.9268 -5.257897 C -15.421505 -5.257897 -15.005379 -4.849202 -15.005379 -4.336475 C -15.005379 -3.823749 -15.421505 -3.407623 -15.9268 -3.407623 L -21.477622 -3.407623 C -21.990349 -3.407623 -22.399044 -3.823749 -22.399044 -4.336475 C -22.399044 -4.849202 -21.990349 -5.257897 -21.477622 -5.257897 Z M -21.477622 -5.257897 " transform="matrix(0,0.525682,-0.525682,0,4.150079,11.96228)"/>
<path style=" stroke:none;fill-rule:nonzero;fill:rgb(35.294119%,35.294119%,35.294119%);fill-opacity:1;" d="M 10.128906 4.5625 C 9.589844 4.5625 9.15625 4.125 9.15625 3.589844 C 9.15625 3.050781 9.589844 2.617188 10.128906 2.617188 C 10.664062 2.617188 11.101562 3.050781 11.101562 3.589844 C 11.101562 4.125 10.664062 4.5625 10.128906 4.5625 Z M 10.128906 4.5625 "/>
<path style="fill-rule:nonzero;fill:rgb(60.000002%,60.000002%,60.000002%);fill-opacity:1;stroke-width:0.258711;stroke-linecap:butt;stroke-linejoin:miter;stroke:rgb(0%,0%,0%);stroke-opacity:1;stroke-miterlimit:4;" d="M -21.477622 -12.294883 L -15.9268 -12.294883 C -15.421505 -12.294883 -15.005379 -11.886188 -15.005379 -11.373461 C -15.005379 -10.860735 -15.421505 -10.444609 -15.9268 -10.444609 L -21.477622 -10.444609 C -21.990349 -10.444609 -22.399044 -10.860735 -22.399044 -11.373461 C -22.399044 -11.886188 -21.990349 -12.294883 -21.477622 -12.294883 Z M -21.477622 -12.294883 " transform="matrix(0,0.525682,-0.525682,0,4.150079,11.96228)"/>
<path style=" stroke:none;fill-rule:nonzero;fill:rgb(35.294119%,35.294119%,35.294119%);fill-opacity:1;" d="M 13.828125 4.5625 C 13.289062 4.5625 12.855469 4.125 12.855469 3.589844 C 12.855469 3.050781 13.289062 2.617188 13.828125 2.617188 C 14.363281 2.617188 14.800781 3.050781 14.800781 3.589844 C 14.800781 4.125 14.363281 4.5625 13.828125 4.5625 Z M 13.828125 4.5625 "/>
<path style="fill-rule:nonzero;fill:rgb(60.000002%,60.000002%,60.000002%);fill-opacity:1;stroke-width:0.258711;stroke-linecap:butt;stroke-linejoin:miter;stroke:rgb(0%,0%,0%);stroke-opacity:1;stroke-miterlimit:4;" d="M -21.477622 -19.331869 L -15.9268 -19.331869 C -15.421505 -19.331869 -15.005379 -18.923174 -15.005379 -18.410447 C -15.005379 -17.897721 -15.421505 -17.481595 -15.9268 -17.481595 L -21.477622 -17.481595 C -21.990349 -17.481595 -22.399044 -17.897721 -22.399044 -18.410447 C -22.399044 -18.923174 -21.990349 -19.331869 -21.477622 -19.331869 Z M -21.477622 -19.331869 " transform="matrix(0,0.525682,-0.525682,0,4.150079,11.96228)"/>
<path style=" stroke:none;fill-rule:nonzero;fill:rgb(35.294119%,35.294119%,35.294119%);fill-opacity:1;" d="M 17.527344 4.5625 C 16.988281 4.5625 16.554688 4.125 16.554688 3.589844 C 16.554688 3.050781 16.988281 2.617188 17.527344 2.617188 C 18.0625 2.617188 18.5 3.050781 18.5 3.589844 C 18.5 4.125 18.0625 4.5625 17.527344 4.5625 Z M 17.527344 4.5625 "/>
<path style="fill-rule:nonzero;fill:rgb(60.000002%,60.000002%,60.000002%);fill-opacity:1;stroke-width:0.258711;stroke-linecap:butt;stroke-linejoin:miter;stroke:rgb(0%,0%,0%);stroke-opacity:1;stroke-miterlimit:4;" d="M -21.477622 -26.368855 L -15.9268 -26.368855 C -15.421505 -26.368855 -15.005379 -25.952729 -15.005379 -25.447433 C -15.005379 -24.934707 -15.421505 -24.518581 -15.9268 -24.518581 L -21.477622 -24.518581 C -21.990349 -24.518581 -22.399044 -24.934707 -22.399044 -25.447433 C -22.399044 -25.952729 -21.990349 -26.368855 -21.477622 -26.368855 Z M -21.477622 -26.368855 " transform="matrix(0,0.525682,-0.525682,0,4.150079,11.96228)"/>
</g>
</svg>
