<?xml version="1.0" encoding="UTF-8"?>
<svg xmlns="http://www.w3.org/2000/svg" xmlns:xlink="http://www.w3.org/1999/xlink" width="24px" height="24px" viewBox="0 0 24 24" version="1.1">
<g id="surface1">
<path style=" stroke:none;fill-rule:nonzero;fill:rgb(61.960787%,23.921569%,38.82353%);fill-opacity:1;" d="M 3.589844 0.257812 L 20.671875 0.257812 C 21.679688 0.257812 22.5 1.074219 22.5 2.085938 L 22.5 21.976562 C 22.5 22.984375 21.679688 23.804688 20.671875 23.804688 L 3.589844 23.804688 C 2.582031 23.804688 1.761719 22.984375 1.761719 21.976562 L 1.761719 2.085938 C 1.761719 1.074219 2.582031 0.257812 3.589844 0.257812 Z M 3.589844 0.257812 "/>
<path style=" stroke:none;fill-rule:nonzero;fill:rgb(94.901961%,94.901961%,94.901961%);fill-opacity:1;" d="M 5.339844 2.667969 C 4.535156 2.667969 3.886719 3.316406 3.886719 4.121094 L 3.886719 19.941406 C 3.886719 20.746094 4.535156 21.394531 5.339844 21.394531 L 18.921875 21.394531 C 19.730469 21.394531 20.378906 20.746094 20.378906 19.941406 L 20.378906 11.542969 L 11.5 2.667969 Z M 14.914062 2.667969 L 20.378906 8.128906 L 20.378906 4.121094 C 20.378906 3.316406 19.730469 2.667969 18.921875 2.667969 Z M 14.914062 2.667969 "/>
<path style=" stroke:none;fill-rule:nonzero;fill:rgb(47.843137%,47.843137%,47.843137%);fill-opacity:1;" d="M 7.839844 11.507812 L 7.839844 11.644531 C 7.839844 11.597656 7.847656 11.554688 7.851562 11.507812 Z M 7.839844 11.644531 L 7.839844 13.5 L 7.863281 13.5 C 8.046875 14.621094 9.75 15.5 11.839844 15.5 C 13.925781 15.5 15.632812 14.621094 15.8125 13.5 L 15.839844 13.5 L 15.839844 11.644531 C 15.839844 12.863281 14.046875 13.851562 11.839844 13.851562 C 9.628906 13.851562 7.839844 12.863281 7.839844 11.644531 Z M 15.839844 11.644531 L 15.839844 11.507812 L 15.828125 11.507812 C 15.832031 11.554688 15.839844 11.597656 15.839844 11.644531 Z M 15.839844 11.644531 "/>
<path style=" stroke:none;fill-rule:nonzero;fill:rgb(47.843137%,47.843137%,47.843137%);fill-opacity:1;" d="M 15.839844 11.203125 C 15.839844 12.421875 14.046875 13.410156 11.839844 13.410156 C 9.628906 13.410156 7.839844 12.421875 7.839844 11.203125 C 7.839844 9.984375 9.628906 9 11.839844 9 C 14.046875 9 15.839844 9.984375 15.839844 11.203125 Z M 15.839844 11.203125 "/>
<path style=" stroke:none;fill-rule:nonzero;fill:rgb(47.843137%,47.843137%,47.843137%);fill-opacity:1;" d="M 7.839844 13.65625 L 7.839844 13.792969 C 7.839844 13.746094 7.847656 13.703125 7.851562 13.65625 Z M 7.839844 13.792969 L 7.839844 15.648438 L 7.863281 15.648438 C 8.046875 16.769531 9.75 17.644531 11.839844 17.644531 C 13.925781 17.644531 15.632812 16.769531 15.8125 15.648438 L 15.839844 15.648438 L 15.839844 13.792969 C 15.839844 15.011719 14.046875 16 11.839844 16 C 9.628906 16 7.839844 15.011719 7.839844 13.792969 Z M 15.839844 13.792969 L 15.839844 13.65625 L 15.828125 13.65625 C 15.832031 13.703125 15.839844 13.746094 15.839844 13.792969 Z M 15.839844 13.792969 "/>
</g>
</svg>
