<?xml version="1.0" encoding="UTF-8"?>
<svg xmlns="http://www.w3.org/2000/svg" xmlns:xlink="http://www.w3.org/1999/xlink" width="24px" height="24px" viewBox="0 0 24 24" version="1.1">
<g id="surface1">
<path style=" stroke:none;fill-rule:nonzero;fill:rgb(17.647059%,61.176473%,94.901961%);fill-opacity:1;" d="M 3.589844 0.257812 L 20.671875 0.257812 C 21.679688 0.257812 22.5 1.074219 22.5 2.085938 L 22.5 21.976562 C 22.5 22.984375 21.679688 23.804688 20.671875 23.804688 L 3.589844 23.804688 C 2.582031 23.804688 1.761719 22.984375 1.761719 21.976562 L 1.761719 2.085938 C 1.761719 1.074219 2.582031 0.257812 3.589844 0.257812 Z M 3.589844 0.257812 "/>
<path style=" stroke:none;fill-rule:nonzero;fill:rgb(100%,100%,100%);fill-opacity:1;" d="M 7.886719 2.703125 C 5.019531 2.703125 2.703125 5.023438 2.703125 7.882812 C 2.703125 8.769531 2.925781 9.625 3.316406 10.351562 C 3.1875 10.96875 3.117188 11.597656 3.117188 12.253906 C 3.117188 17.296875 7.207031 21.386719 12.257812 21.386719 C 12.910156 21.386719 13.542969 21.316406 14.15625 21.1875 C 14.890625 21.582031 15.734375 21.804688 16.625 21.804688 C 19.488281 21.804688 21.804688 19.484375 21.804688 16.625 C 21.804688 15.734375 21.582031 14.886719 21.1875 14.152344 C 21.316406 13.539062 21.386719 12.90625 21.386719 12.257812 C 21.386719 7.214844 17.292969 3.121094 12.25 3.121094 C 11.59375 3.121094 10.964844 3.1875 10.347656 3.320312 C 9.617188 2.929688 8.761719 2.703125 7.878906 2.703125 "/>
<path style=" stroke:none;fill-rule:nonzero;fill:rgb(17.647059%,61.176473%,94.901961%);fill-opacity:1;" d="M 12.050781 5.5625 C 15.324219 5.5625 17.011719 7.28125 17.011719 8.289062 C 17.011719 9.300781 16.527344 9.453125 15.722656 9.453125 C 14.160156 9.453125 14.800781 7.582031 11.875 7.582031 C 10.90625 7.582031 9.699219 8.023438 9.699219 9.144531 C 9.699219 10.046875 10.769531 10.378906 12.660156 10.84375 C 15.507812 11.601562 17.644531 12.355469 17.644531 14.957031 C 17.644531 17.476562 15.578125 18.742188 12.304688 18.742188 C 9.03125 18.742188 6.9375 16.796875 6.9375 15.789062 C 6.9375 14.78125 7.324219 14.527344 8.128906 14.527344 C 9.691406 14.527344 9.480469 16.648438 12.40625 16.648438 C 13.375 16.648438 14.808594 16.210938 14.808594 15.082031 C 14.808594 14.183594 14.734375 13.871094 12.660156 13.316406 C 10.441406 13.019531 6.863281 12.300781 6.863281 9.554688 C 6.863281 7.035156 8.777344 5.566406 12.050781 5.566406 "/>
</g>
</svg>
