<?xml version="1.0" encoding="UTF-8"?>
<svg xmlns="http://www.w3.org/2000/svg" xmlns:xlink="http://www.w3.org/1999/xlink" width="24px" height="24px" viewBox="0 0 24 24" version="1.1">
<g id="surface1">
<path style=" stroke:none;fill-rule:nonzero;fill:rgb(66.666669%,53.333336%,0%);fill-opacity:1;" d="M 4.113281 4.191406 L 19.957031 4.191406 C 20.199219 4.191406 20.394531 4.378906 20.394531 4.613281 L 20.394531 7.304688 C 20.394531 7.535156 20.199219 7.726562 19.957031 7.726562 L 4.113281 7.726562 C 3.875 7.726562 3.679688 7.535156 3.679688 7.304688 L 3.679688 4.613281 C 3.679688 4.378906 3.875 4.191406 4.113281 4.191406 Z M 4.113281 4.191406 "/>
<path style=" stroke:none;fill-rule:nonzero;fill:rgb(81.568629%,48.627451%,24.705882%);fill-opacity:1;" d="M 2.742188 2.769531 L 21.820312 2.769531 L 21.820312 19.199219 L 2.757812 19.199219 Z M 2.742188 2.769531 "/>
<path style=" stroke:none;fill-rule:nonzero;fill:rgb(36.078432%,40.000001%,43.921569%);fill-opacity:1;" d="M 21.140625 3.765625 C 21.28125 3.3125 21.019531 2.824219 20.5625 2.683594 L 13.390625 0.503906 C 12.9375 0.367188 12.449219 0.625 12.308594 1.082031 L 9.804688 9.316406 C 9.667969 9.773438 9.925781 10.261719 10.382812 10.398438 L 17.554688 12.578125 C 18.011719 12.71875 18.5 12.457031 18.640625 12 Z M 21.140625 3.765625 "/>
<path style=" stroke:none;fill-rule:nonzero;fill:rgb(20%,24.313726%,28.235295%);fill-opacity:1;" d="M 20.5625 2.683594 L 13.390625 0.503906 C 12.9375 0.367188 12.449219 0.625 12.308594 1.082031 L 11.558594 3.546875 L 20.394531 6.230469 L 21.140625 3.765625 C 21.28125 3.3125 21.019531 2.824219 20.5625 2.683594 Z M 20.5625 2.683594 "/>
<path style=" stroke:none;fill-rule:nonzero;fill:rgb(0%,50.980395%,79.215688%);fill-opacity:1;" d="M 19.765625 3.628906 C 19.808594 3.492188 19.730469 3.34375 19.59375 3.300781 L 13.855469 1.558594 C 13.71875 1.515625 13.574219 1.59375 13.53125 1.730469 L 13.191406 2.855469 C 13.148438 2.992188 13.226562 3.136719 13.363281 3.179688 L 19.097656 4.925781 C 19.234375 4.964844 19.382812 4.886719 19.425781 4.75 Z M 19.765625 3.628906 "/>
<path style=" stroke:none;fill-rule:nonzero;fill:rgb(100%,100%,100%);fill-opacity:1;" d="M 18.714844 4.503906 C 18.625 4.476562 18.578125 4.382812 18.601562 4.292969 L 18.828125 3.550781 C 18.855469 3.460938 18.949219 3.410156 19.039062 3.4375 C 19.128906 3.464844 19.179688 3.5625 19.152344 3.648438 L 18.929688 4.390625 C 18.902344 4.480469 18.804688 4.53125 18.714844 4.503906 Z M 18.714844 4.503906 "/>
<path style=" stroke:none;fill-rule:nonzero;fill:rgb(100%,100%,100%);fill-opacity:1;" d="M 18.023438 4.292969 C 17.933594 4.265625 17.882812 4.171875 17.910156 4.082031 L 18.136719 3.339844 C 18.164062 3.25 18.257812 3.203125 18.347656 3.226562 C 18.4375 3.253906 18.488281 3.351562 18.460938 3.441406 L 18.234375 4.179688 C 18.207031 4.269531 18.113281 4.320312 18.023438 4.292969 Z M 18.023438 4.292969 "/>
<path style=" stroke:none;fill-rule:nonzero;fill:rgb(100%,100%,100%);fill-opacity:1;" d="M 17.332031 4.082031 C 17.242188 4.054688 17.191406 3.960938 17.21875 3.871094 L 17.445312 3.132812 C 17.472656 3.042969 17.566406 2.992188 17.65625 3.019531 C 17.746094 3.046875 17.796875 3.140625 17.769531 3.230469 L 17.542969 3.96875 C 17.515625 4.058594 17.421875 4.109375 17.332031 4.082031 Z M 17.332031 4.082031 "/>
<path style=" stroke:none;fill-rule:nonzero;fill:rgb(83.137256%,56.470591%,0%);fill-opacity:1;" d="M 16.613281 8.234375 C 16.660156 8.082031 16.820312 7.996094 16.972656 8.042969 L 18.371094 8.46875 C 18.523438 8.511719 18.609375 8.675781 18.5625 8.828125 L 17.78125 11.402344 C 17.734375 11.554688 17.570312 11.640625 17.417969 11.59375 L 16.023438 11.171875 C 15.871094 11.125 15.785156 10.960938 15.828125 10.808594 Z M 16.613281 8.234375 "/>
<path style=" stroke:none;fill-rule:nonzero;fill:rgb(20%,24.313726%,28.235295%);fill-opacity:1;" d="M 17.191406 6.324219 C 17.238281 6.171875 17.402344 6.085938 17.554688 6.132812 L 18.949219 6.558594 C 19.101562 6.601562 19.1875 6.765625 19.144531 6.917969 L 18.941406 7.582031 C 18.894531 7.734375 18.730469 7.820312 18.578125 7.773438 L 17.183594 7.351562 C 17.03125 7.304688 16.945312 7.140625 16.992188 6.988281 Z M 17.191406 6.324219 "/>
<path style=" stroke:none;fill-rule:nonzero;fill:rgb(20%,24.313726%,28.235295%);fill-opacity:1;" d="M 14.703125 5.570312 C 14.75 5.417969 14.914062 5.328125 15.066406 5.375 L 16.460938 5.800781 C 16.613281 5.847656 16.699219 6.007812 16.65625 6.160156 L 16.453125 6.824219 C 16.40625 6.976562 16.242188 7.066406 16.089844 7.019531 L 14.695312 6.59375 C 14.542969 6.546875 14.457031 6.386719 14.503906 6.234375 Z M 14.703125 5.570312 "/>
<path style=" stroke:none;fill-rule:nonzero;fill:rgb(20%,24.313726%,28.235295%);fill-opacity:1;" d="M 12.214844 4.8125 C 12.261719 4.660156 12.425781 4.574219 12.578125 4.621094 L 13.972656 5.042969 C 14.125 5.089844 14.210938 5.253906 14.167969 5.40625 L 13.964844 6.070312 C 13.917969 6.222656 13.753906 6.308594 13.601562 6.261719 L 12.207031 5.835938 C 12.054688 5.792969 11.96875 5.628906 12.015625 5.476562 Z M 12.214844 4.8125 "/>
<path style=" stroke:none;fill-rule:nonzero;fill:rgb(20%,24.313726%,28.235295%);fill-opacity:1;" d="M 14.125 7.480469 C 14.171875 7.328125 14.332031 7.238281 14.484375 7.285156 L 15.882812 7.710938 C 16.035156 7.757812 16.121094 7.917969 16.074219 8.070312 L 15.871094 8.734375 C 15.824219 8.886719 15.664062 8.976562 15.511719 8.929688 L 14.113281 8.503906 C 13.960938 8.457031 13.875 8.296875 13.921875 8.144531 Z M 14.125 7.480469 "/>
<path style=" stroke:none;fill-rule:nonzero;fill:rgb(20%,24.313726%,28.235295%);fill-opacity:1;" d="M 11.636719 6.722656 C 11.683594 6.570312 11.84375 6.484375 11.996094 6.53125 L 13.394531 6.953125 C 13.546875 7 13.632812 7.164062 13.585938 7.316406 L 13.382812 7.980469 C 13.335938 8.132812 13.175781 8.21875 13.023438 8.171875 L 11.625 7.746094 C 11.472656 7.703125 11.386719 7.539062 11.433594 7.386719 Z M 11.636719 6.722656 "/>
<path style=" stroke:none;fill-rule:nonzero;fill:rgb(20%,24.313726%,28.235295%);fill-opacity:1;" d="M 13.542969 9.390625 C 13.589844 9.238281 13.753906 9.148438 13.90625 9.195312 L 15.300781 9.621094 C 15.453125 9.667969 15.539062 9.828125 15.492188 9.980469 L 15.292969 10.644531 C 15.246094 10.796875 15.082031 10.886719 14.929688 10.839844 L 13.535156 10.414062 C 13.382812 10.367188 13.296875 10.207031 13.339844 10.054688 Z M 13.542969 9.390625 "/>
<path style=" stroke:none;fill-rule:nonzero;fill:rgb(20%,24.313726%,28.235295%);fill-opacity:1;" d="M 11.054688 8.632812 C 11.101562 8.480469 11.265625 8.394531 11.417969 8.441406 L 12.8125 8.863281 C 12.964844 8.910156 13.050781 9.074219 13.003906 9.226562 L 12.804688 9.890625 C 12.757812 10.042969 12.59375 10.128906 12.441406 10.082031 L 11.046875 9.65625 C 10.894531 9.613281 10.808594 9.449219 10.851562 9.296875 Z M 11.054688 8.632812 "/>
<path style=" stroke:none;fill-rule:nonzero;fill:rgb(100%,92.156863%,71.764708%);fill-opacity:1;" d="M 12.269531 6.910156 C 12.445312 8.957031 10.917969 10.769531 8.867188 10.941406 C 6.816406 11.117188 5.003906 9.589844 4.832031 7.539062 C 4.65625 5.488281 6.183594 3.679688 8.234375 3.503906 C 10.285156 3.332031 12.097656 4.859375 12.269531 6.910156 Z M 12.269531 6.910156 "/>
<path style=" stroke:none;fill-rule:nonzero;fill:rgb(100%,100%,100%);fill-opacity:1;" d="M 11.382812 6.984375 C 11.515625 8.546875 10.351562 9.925781 8.792969 10.058594 C 7.230469 10.1875 5.851562 9.027344 5.71875 7.464844 C 5.585938 5.902344 6.75 4.523438 8.3125 4.390625 C 9.875 4.257812 11.25 5.421875 11.382812 6.984375 Z M 11.382812 6.984375 "/>
<path style=" stroke:none;fill-rule:nonzero;fill:rgb(36.470589%,39.215687%,49.803922%);fill-opacity:1;" d="M 10.210938 3.191406 C 10.277344 3.183594 10.335938 3.144531 10.363281 3.082031 L 10.667969 2.359375 C 10.703125 2.269531 10.660156 2.164062 10.570312 2.125 C 10.480469 2.089844 10.375 2.128906 10.339844 2.222656 L 10.035156 2.945312 C 9.996094 3.035156 10.039062 3.140625 10.128906 3.175781 C 10.15625 3.1875 10.183594 3.191406 10.210938 3.191406 Z M 10.210938 3.191406 "/>
<path style=" stroke:none;fill-rule:nonzero;fill:rgb(70.588237%,71.372551%,73.725492%);fill-opacity:1;" d="M 8.984375 1.652344 C 9.339844 0.816406 10.304688 0.421875 11.140625 0.773438 C 11.546875 0.945312 11.863281 1.261719 12.027344 1.667969 C 12.195312 2.078125 12.191406 2.523438 12.019531 2.929688 C 11.992188 2.992188 11.933594 3.03125 11.871094 3.039062 C 11.84375 3.039062 11.816406 3.035156 11.789062 3.023438 L 9.082031 1.882812 C 9.039062 1.867188 9.003906 1.832031 8.984375 1.789062 C 8.96875 1.742188 8.96875 1.695312 8.984375 1.652344 Z M 8.984375 1.652344 "/>
<path style=" stroke:none;fill-rule:nonzero;fill:rgb(52.549022%,51.764709%,56.862748%);fill-opacity:1;" d="M 11.140625 0.773438 C 11.546875 0.945312 11.863281 1.261719 12.027344 1.667969 C 12.195312 2.078125 12.191406 2.523438 12.019531 2.929688 C 11.992188 2.992188 11.933594 3.03125 11.871094 3.039062 C 11.84375 3.039062 11.816406 3.035156 11.789062 3.023438 L 10.433594 2.453125 Z M 11.140625 0.773438 "/>
<path style=" stroke:none;fill-rule:nonzero;fill:rgb(36.470589%,39.215687%,49.803922%);fill-opacity:1;" d="M 6.230469 3.527344 C 6.164062 3.535156 6.101562 3.503906 6.0625 3.445312 L 5.640625 2.785156 C 5.589844 2.703125 5.613281 2.59375 5.695312 2.539062 C 5.78125 2.488281 5.890625 2.511719 5.941406 2.59375 L 6.363281 3.253906 C 6.417969 3.339844 6.390625 3.449219 6.308594 3.5 C 6.285156 3.515625 6.257812 3.527344 6.230469 3.527344 Z M 6.230469 3.527344 "/>
<path style=" stroke:none;fill-rule:nonzero;fill:rgb(36.470589%,39.215687%,49.803922%);fill-opacity:1;" d="M 6.136719 12.421875 C 6.105469 12.425781 6.074219 12.417969 6.046875 12.40625 C 5.957031 12.363281 5.921875 12.257812 5.960938 12.167969 L 6.414062 11.238281 C 6.453125 11.148438 6.5625 11.113281 6.648438 11.15625 C 6.738281 11.199219 6.773438 11.304688 6.730469 11.394531 L 6.28125 12.324219 C 6.253906 12.382812 6.199219 12.417969 6.136719 12.421875 Z M 6.136719 12.421875 "/>
<path style=" stroke:none;fill-rule:nonzero;fill:rgb(36.470589%,39.215687%,49.803922%);fill-opacity:1;" d="M 11.804688 11.941406 C 11.746094 11.945312 11.683594 11.921875 11.644531 11.867188 L 11.039062 11.015625 C 10.980469 10.9375 11 10.824219 11.078125 10.769531 C 11.160156 10.710938 11.269531 10.730469 11.328125 10.808594 L 11.933594 11.660156 C 11.992188 11.742188 11.972656 11.851562 11.894531 11.910156 C 11.867188 11.929688 11.835938 11.9375 11.804688 11.941406 Z M 11.804688 11.941406 "/>
<path style=" stroke:none;fill-rule:nonzero;fill:rgb(37.64706%,86.274511%,30.19608%);fill-opacity:1;" d="M 8.160156 2.621094 C 5.621094 2.835938 3.730469 5.074219 3.945312 7.613281 C 4.160156 10.152344 6.402344 12.042969 8.941406 11.828125 C 11.480469 11.613281 13.371094 9.371094 13.15625 6.832031 C 12.941406 4.292969 10.699219 2.402344 8.160156 2.621094 Z M 12.09375 6.921875 C 12.257812 8.875 10.804688 10.601562 8.851562 10.765625 C 6.898438 10.929688 5.175781 9.476562 5.007812 7.523438 C 4.84375 5.570312 6.296875 3.847656 8.25 3.683594 C 10.203125 3.515625 11.925781 4.96875 12.09375 6.921875 Z M 12.09375 6.921875 "/>
<path style=" stroke:none;fill-rule:nonzero;fill:rgb(0%,76.47059%,47.843137%);fill-opacity:1;" d="M 8.847656 10.765625 C 6.894531 10.929688 5.175781 9.476562 5.007812 7.523438 C 4.84375 5.574219 6.296875 3.851562 8.246094 3.683594 L 8.15625 2.621094 C 5.621094 2.835938 3.730469 5.078125 3.945312 7.613281 C 4.160156 10.152344 6.398438 12.039062 8.9375 11.828125 Z M 8.847656 10.765625 "/>
<path style=" stroke:none;fill-rule:nonzero;fill:rgb(52.549022%,51.764709%,56.862748%);fill-opacity:1;" d="M 6.265625 7.597656 L 5.554688 7.65625 C 5.457031 7.664062 5.371094 7.589844 5.363281 7.492188 C 5.355469 7.394531 5.425781 7.308594 5.523438 7.300781 L 6.234375 7.242188 C 6.332031 7.234375 6.417969 7.304688 6.425781 7.402344 C 6.433594 7.5 6.363281 7.585938 6.265625 7.597656 Z M 6.265625 7.597656 "/>
<path style=" stroke:none;fill-rule:nonzero;fill:rgb(52.549022%,51.764709%,56.862748%);fill-opacity:1;" d="M 11.578125 7.144531 L 10.867188 7.207031 C 10.769531 7.214844 10.683594 7.140625 10.675781 7.042969 C 10.667969 6.945312 10.738281 6.859375 10.839844 6.851562 L 11.546875 6.792969 C 11.644531 6.78125 11.730469 6.855469 11.738281 6.953125 C 11.746094 7.050781 11.675781 7.136719 11.578125 7.144531 Z M 11.578125 7.144531 "/>
<path style=" stroke:none;fill-rule:nonzero;fill:rgb(52.549022%,51.764709%,56.862748%);fill-opacity:1;" d="M 8.820312 10.410156 C 8.722656 10.417969 8.636719 10.347656 8.628906 10.25 L 8.570312 9.539062 C 8.5625 9.441406 8.632812 9.355469 8.730469 9.347656 C 8.828125 9.339844 8.914062 9.414062 8.921875 9.511719 L 8.984375 10.21875 C 8.992188 10.316406 8.917969 10.402344 8.820312 10.410156 Z M 8.820312 10.410156 "/>
<path style=" stroke:none;fill-rule:nonzero;fill:rgb(52.549022%,51.764709%,56.862748%);fill-opacity:1;" d="M 8.371094 5.097656 C 8.273438 5.105469 8.1875 5.035156 8.179688 4.9375 L 8.117188 4.226562 C 8.109375 4.128906 8.183594 4.042969 8.28125 4.035156 C 8.378906 4.027344 8.464844 4.101562 8.472656 4.199219 L 8.53125 4.90625 C 8.542969 5.003906 8.46875 5.089844 8.371094 5.097656 Z M 8.371094 5.097656 "/>
<path style=" stroke:none;fill-rule:nonzero;fill:rgb(70.588237%,71.372551%,73.725492%);fill-opacity:1;" d="M 7.179688 1.804688 C 6.691406 1.039062 5.671875 0.8125 4.90625 1.300781 C 4.535156 1.539062 4.277344 1.90625 4.183594 2.335938 C 4.089844 2.765625 4.167969 3.203125 4.402344 3.574219 C 4.441406 3.632812 4.503906 3.664062 4.566406 3.65625 C 4.597656 3.65625 4.625 3.644531 4.648438 3.628906 L 7.125 2.050781 C 7.164062 2.023438 7.191406 1.984375 7.203125 1.9375 C 7.214844 1.890625 7.203125 1.84375 7.179688 1.804688 Z M 7.179688 1.804688 "/>
<path style=" stroke:none;fill-rule:nonzero;fill:rgb(36.470589%,39.215687%,49.803922%);fill-opacity:1;" d="M 8.035156 7.445312 L 7.148438 7.519531 C 7.050781 7.527344 6.964844 7.457031 6.957031 7.359375 C 6.949219 7.261719 7.019531 7.175781 7.121094 7.167969 L 8.003906 7.089844 C 8.101562 7.082031 8.1875 7.15625 8.195312 7.253906 C 8.203125 7.351562 8.132812 7.4375 8.035156 7.445312 Z M 8.035156 7.445312 "/>
<path style=" stroke:none;fill-rule:nonzero;fill:rgb(36.470589%,39.215687%,49.803922%);fill-opacity:1;" d="M 8.535156 7.046875 C 8.4375 7.054688 8.351562 6.980469 8.34375 6.882812 L 8.238281 5.644531 C 8.230469 5.546875 8.304688 5.460938 8.402344 5.453125 C 8.5 5.445312 8.585938 5.515625 8.59375 5.613281 L 8.699219 6.855469 C 8.707031 6.953125 8.632812 7.039062 8.535156 7.046875 Z M 8.535156 7.046875 "/>
<path style=" stroke:none;fill-rule:nonzero;fill:rgb(100%,30.980393%,9.803922%);fill-opacity:1;" d="M 10.488281 9.019531 C 10.441406 9.023438 10.394531 9.011719 10.355469 8.980469 L 8.4375 7.359375 C 8.359375 7.296875 8.351562 7.183594 8.414062 7.109375 C 8.476562 7.035156 8.589844 7.023438 8.664062 7.085938 L 10.585938 8.707031 C 10.660156 8.773438 10.671875 8.882812 10.609375 8.957031 C 10.574219 8.996094 10.53125 9.019531 10.488281 9.019531 Z M 10.488281 9.019531 "/>
<path style=" stroke:none;fill-rule:nonzero;fill:rgb(52.549022%,51.764709%,56.862748%);fill-opacity:1;" d="M 4.90625 1.300781 C 4.535156 1.539062 4.277344 1.90625 4.183594 2.335938 C 4.089844 2.765625 4.167969 3.203125 4.402344 3.574219 C 4.441406 3.632812 4.503906 3.664062 4.566406 3.65625 C 4.597656 3.65625 4.625 3.644531 4.648438 3.628906 L 5.886719 2.839844 Z M 4.90625 1.300781 "/>
<path style=" stroke:none;fill-rule:nonzero;fill:rgb(36.078432%,32.941177%,41.568628%);fill-opacity:1;" d="M 9.082031 7.179688 C 9.105469 7.472656 8.890625 7.730469 8.597656 7.753906 C 8.300781 7.78125 8.042969 7.5625 8.019531 7.269531 C 7.996094 6.976562 8.210938 6.71875 8.503906 6.691406 C 8.800781 6.667969 9.058594 6.886719 9.082031 7.179688 Z M 9.082031 7.179688 "/>
<path style=" stroke:none;fill-rule:nonzero;fill:rgb(93.333334%,77.64706%,36.470589%);fill-opacity:1;" d="M 1.753906 6.714844 L 1.753906 22.617188 C 1.753906 23.390625 2.378906 23.820312 3.152344 23.820312 L 21.410156 23.820312 C 22.179688 23.820312 22.804688 23.390625 22.804688 22.617188 L 22.804688 6.714844 C 22.804688 6.730469 1.773438 6.714844 1.753906 6.714844 Z M 4.714844 4.101562 L 2.742188 2.769531 L 2.742188 6.058594 L 4.714844 6.058594 Z M 21.820312 2.769531 L 19.847656 4.082031 L 19.847656 6.058594 L 21.820312 6.058594 Z M 21.820312 2.769531 "/>
<path style=" stroke:none;fill-rule:nonzero;fill:rgb(86.274511%,63.921571%,30.980393%);fill-opacity:1;" d="M 4.714844 6.714844 L 4.714844 4.082031 L 1.738281 6.714844 Z M 19.847656 4.082031 L 19.847656 6.714844 L 22.839844 6.714844 Z M 19.847656 4.082031 "/>
<path style=" stroke:none;fill-rule:nonzero;fill:rgb(81.568629%,48.627451%,24.705882%);fill-opacity:1;" d="M 6.425781 8.5625 C 5.933594 8.5625 5.523438 8.972656 5.523438 9.46875 C 5.523438 9.960938 5.917969 10.371094 6.425781 10.371094 C 6.917969 10.371094 7.332031 9.960938 7.332031 9.46875 C 7.347656 8.972656 6.9375 8.5625 6.425781 8.5625 Z M 17.445312 8.5625 C 16.953125 8.5625 16.539062 8.972656 16.539062 9.46875 C 16.539062 9.960938 16.933594 10.371094 17.445312 10.371094 C 17.9375 10.371094 18.347656 9.960938 18.347656 9.46875 C 18.367188 8.972656 17.953125 8.5625 17.445312 8.5625 Z M 17.445312 8.5625 "/>
<path style=" stroke:none;fill-rule:nonzero;fill:rgb(79.607844%,66.274512%,30.980393%);fill-opacity:1;" d="M 11.953125 16.128906 C 8.679688 16.128906 6.03125 13.234375 6.03125 9.664062 C 6.03125 9.417969 6.210938 9.222656 6.441406 9.222656 C 6.671875 9.222656 6.855469 9.417969 6.855469 9.664062 C 6.855469 12.742188 9.140625 15.222656 11.953125 15.222656 C 14.765625 15.222656 17.050781 12.722656 17.050781 9.664062 C 17.050781 9.417969 17.230469 9.222656 17.460938 9.222656 C 17.691406 9.222656 17.871094 9.417969 17.871094 9.664062 C 17.871094 13.234375 15.207031 16.128906 11.953125 16.128906 Z M 11.953125 16.128906 "/>
<path style=" stroke:none;fill-rule:nonzero;fill:rgb(40.784314%,34.901962%,34.901962%);fill-opacity:1;" d="M 11.953125 15.617188 C 8.679688 15.617188 6.03125 12.9375 6.03125 9.632812 C 6.03125 9.402344 6.210938 9.222656 6.441406 9.222656 C 6.671875 9.222656 6.855469 9.402344 6.855469 9.632812 C 6.855469 12.476562 9.140625 14.796875 11.953125 14.796875 C 14.765625 14.796875 17.050781 12.476562 17.050781 9.632812 C 17.050781 9.402344 17.230469 9.222656 17.460938 9.222656 C 17.691406 9.222656 17.871094 9.402344 17.871094 9.632812 C 17.871094 12.9375 15.207031 15.617188 11.953125 15.617188 Z M 11.953125 15.617188 "/>
</g>
</svg>
