<?xml version="1.0" encoding="UTF-8"?>
<svg xmlns="http://www.w3.org/2000/svg" xmlns:xlink="http://www.w3.org/1999/xlink" width="22px" height="22px" viewBox="0 0 22 22" version="1.1">
<g id="surface1">
<path style=" stroke:none;fill-rule:nonzero;fill:rgb(21.568628%,44.313726%,78.431374%);fill-opacity:1;" d="M 3.316406 0.277344 L 14.761719 0.277344 L 20.828125 6.320312 L 20.828125 20.484375 C 20.828125 21.230469 20.222656 21.832031 19.480469 21.832031 L 3.316406 21.832031 C 2.570312 21.832031 1.96875 21.230469 1.96875 20.484375 L 1.96875 1.625 C 1.96875 0.882812 2.570312 0.277344 3.316406 0.277344 Z M 3.316406 0.277344 "/>
<path style="fill-rule:nonzero;fill:rgb(21.568628%,44.313726%,78.431374%);fill-opacity:1;stroke-width:0.999669;stroke-linecap:round;stroke-linejoin:round;stroke:rgb(0%,0%,0%);stroke-opacity:1;stroke-miterlimit:4;" d="M 38.668062 -0.0201404 L 202.900479 -0.0201404 L 289.949265 86.692334 L 289.949265 289.936956 C 289.949265 300.642891 281.261202 309.274902 270.611318 309.274902 L 38.668062 309.274902 C 27.962126 309.274902 19.330115 300.642891 19.330115 289.936956 L 19.330115 19.317806 C 19.330115 8.667923 27.962126 -0.0201404 38.668062 -0.0201404 Z M 38.668062 -0.0201404 " transform="matrix(0.0696897,0,0,0.0696897,0.62164,0.278747)"/>
<path style=" stroke:none;fill-rule:nonzero;fill:rgb(15.294118%,31.37255%,56.078434%);fill-opacity:1;" d="M 20.808594 6.339844 L 16.113281 6.339844 C 15.367188 6.339844 14.765625 5.738281 14.765625 4.992188 L 14.765625 0.292969 Z M 20.808594 6.339844 "/>
<path style="fill:none;stroke-width:1.4;stroke-linecap:round;stroke-linejoin:miter;stroke:rgb(100%,100%,100%);stroke-opacity:1;stroke-miterlimit:4;" d="M 33.903409 26.045455 C 33.903409 31.278409 29.650568 35.514205 24.409091 35.514205 C 19.159091 35.514205 14.90625 31.278409 14.90625 26.045455 C 14.90625 20.821023 19.159091 16.576705 24.409091 16.576705 C 29.650568 16.576705 33.903409 20.821023 33.903409 26.045455 Z M 33.903409 26.045455 " transform="matrix(0.458333,0,0,0.458333,0,0)"/>
<path style="fill:none;stroke-width:1.4;stroke-linecap:round;stroke-linejoin:miter;stroke:rgb(100%,100%,100%);stroke-opacity:1;stroke-miterlimit:4;" d="M 16.832386 31.576705 C 21.161932 29.957386 27.65625 29.957386 31.977273 31.576705 " transform="matrix(0.458333,0,0,0.458333,0,0)"/>
<path style="fill:none;stroke-width:1.4;stroke-linecap:butt;stroke-linejoin:miter;stroke:rgb(100%,100%,100%);stroke-opacity:1;stroke-miterlimit:4;" d="M 15.264205 26.045455 L 33.553977 26.045455 " transform="matrix(0.458333,0,0,0.458333,0,0)"/>
<path style="fill:none;stroke-width:1.4;stroke-linecap:round;stroke-linejoin:miter;stroke:rgb(100%,100%,100%);stroke-opacity:1;stroke-miterlimit:4;" d="M 22.244318 17.181818 C 19.542614 22.815341 19.542614 29.821023 22.244318 35.215909 " transform="matrix(0.458333,0,0,0.458333,0,0)"/>
<path style="fill:none;stroke-width:1.4;stroke-linecap:round;stroke-linejoin:miter;stroke:rgb(100%,100%,100%);stroke-opacity:1;stroke-miterlimit:4;" d="M 16.832386 20.522727 C 21.161932 22.142045 27.65625 22.142045 31.977273 20.522727 " transform="matrix(0.458333,0,0,0.458333,0,0)"/>
<path style="fill:none;stroke-width:1.4;stroke-linecap:round;stroke-linejoin:miter;stroke:rgb(100%,100%,100%);stroke-opacity:1;stroke-miterlimit:4;" d="M 26.573864 17.181818 C 29.275568 22.815341 29.275568 29.821023 26.573864 35.215909 " transform="matrix(0.458333,0,0,0.458333,0,0)"/>
</g>
</svg>
