<?xml version="1.0" encoding="UTF-8"?>
<svg xmlns="http://www.w3.org/2000/svg" xmlns:xlink="http://www.w3.org/1999/xlink" width="22px" height="22px" viewBox="0 0 22 22" version="1.1">
<g id="surface1">
<path style=" stroke:none;fill-rule:nonzero;fill:rgb(21.568628%,44.313726%,78.431374%);fill-opacity:1;" d="M 2.953125 0.332031 L 14.238281 0.332031 L 20.21875 6.289062 L 20.21875 20.253906 C 20.21875 20.988281 19.625 21.582031 18.890625 21.582031 L 2.953125 21.582031 C 2.21875 21.582031 1.625 20.988281 1.625 20.253906 L 1.625 1.660156 C 1.625 0.925781 2.21875 0.332031 2.953125 0.332031 Z M 2.953125 0.332031 "/>
<path style=" stroke:none;fill-rule:nonzero;fill:rgb(12.941177%,26.666668%,47.058824%);fill-opacity:1;" d="M 20.203125 6.308594 L 15.570312 6.308594 C 14.839844 6.308594 14.242188 5.710938 14.242188 4.980469 L 14.242188 0.34375 Z M 20.203125 6.308594 "/>
<path style="fill:none;stroke-width:0.15;stroke-linecap:round;stroke-linejoin:round;stroke:rgb(0%,0%,0%);stroke-opacity:1;stroke-miterlimit:4;" d="M 6.443182 0.724432 L 31.065341 0.724432 L 44.113636 13.721591 L 44.113636 44.190341 C 44.113636 45.792614 42.818182 47.088068 41.215909 47.088068 L 6.443182 47.088068 C 4.840909 47.088068 3.545455 45.792614 3.545455 44.190341 L 3.545455 3.622159 C 3.545455 2.019886 4.840909 0.724432 6.443182 0.724432 Z M 6.443182 0.724432 " transform="matrix(0.458333,0,0,0.458333,0,0)"/>
<path style="fill:none;stroke-width:0.925756;stroke-linecap:butt;stroke-linejoin:miter;stroke:rgb(100%,100%,100%);stroke-opacity:1;stroke-miterlimit:4;" d="M 16.014205 35.301136 C 20.053977 37.917614 28.875 34.414773 21.545455 25.048295 C 14.275568 15.758523 28.764205 9.673295 33.068182 20.411932 " transform="matrix(0.458333,0,0,0.458333,0,0)"/>
<path style=" stroke:none;fill-rule:nonzero;fill:rgb(100%,100%,100%);fill-opacity:1;" d="M 6.285156 15.503906 L 7.554688 15.503906 L 7.554688 16.785156 L 6.285156 16.785156 Z M 6.285156 15.503906 "/>
<path style=" stroke:none;fill-rule:nonzero;fill:rgb(100%,100%,100%);fill-opacity:1;" d="M 14.3125 8.683594 L 15.578125 8.683594 L 15.578125 9.964844 L 14.3125 9.964844 Z M 14.3125 8.683594 "/>
<path style="fill:none;stroke-width:0.925756;stroke-linecap:butt;stroke-linejoin:miter;stroke:rgb(99.215686%,99.215686%,99.215686%);stroke-opacity:1;stroke-miterlimit:4;" d="M 15.042614 16.610795 L 28.985795 34.201705 " transform="matrix(0.458333,0,0,0.458333,0,0)"/>
<path style="fill-rule:nonzero;fill:rgb(37.64706%,37.64706%,37.64706%);fill-opacity:1;stroke-width:0.925756;stroke-linecap:butt;stroke-linejoin:miter;stroke:rgb(99.215686%,99.215686%,99.215686%);stroke-opacity:1;stroke-miterlimit:4;" d="M 16.022727 16.627841 C 16.022727 17.139205 15.605114 17.556818 15.09375 17.556818 C 14.590909 17.556818 14.173295 17.139205 14.173295 16.627841 C 14.173295 16.107955 14.590909 15.690341 15.09375 15.690341 C 15.605114 15.690341 16.022727 16.107955 16.022727 16.627841 Z M 16.022727 16.627841 " transform="matrix(0.458333,0,0,0.458333,0,0)"/>
<path style="fill-rule:nonzero;fill:rgb(37.64706%,37.64706%,37.64706%);fill-opacity:1;stroke-width:0.925756;stroke-linecap:butt;stroke-linejoin:miter;stroke:rgb(99.215686%,99.215686%,99.215686%);stroke-opacity:1;stroke-miterlimit:4;" d="M 29.838068 34.295455 C 29.838068 34.806818 29.428977 35.224432 28.917614 35.224432 C 28.40625 35.224432 27.997159 34.806818 27.997159 34.295455 C 27.997159 33.784091 28.40625 33.366477 28.917614 33.366477 C 29.428977 33.366477 29.838068 33.784091 29.838068 34.295455 Z M 29.838068 34.295455 " transform="matrix(0.458333,0,0,0.458333,0,0)"/>
<path style=" stroke:none;fill-rule:nonzero;fill:rgb(100%,100%,100%);fill-opacity:1;" d="M 9.242188 10.816406 L 10.507812 10.816406 L 10.507812 12.09375 L 9.242188 12.09375 Z M 9.242188 10.816406 "/>
</g>
</svg>
