<?xml version="1.0" encoding="UTF-8"?>
<svg xmlns="http://www.w3.org/2000/svg" xmlns:xlink="http://www.w3.org/1999/xlink" width="22px" height="22px" viewBox="0 0 22 22" version="1.1">
<g id="surface1">
<path style=" stroke:none;fill-rule:nonzero;fill:rgb(87.058824%,33.333334%,25.882354%);fill-opacity:1;" d="M 2.953125 0.332031 L 14.238281 0.332031 L 20.21875 6.289062 L 20.21875 20.253906 C 20.21875 20.988281 19.625 21.582031 18.890625 21.582031 L 2.953125 21.582031 C 2.21875 21.582031 1.625 20.988281 1.625 20.253906 L 1.625 1.660156 C 1.625 0.925781 2.21875 0.332031 2.953125 0.332031 Z M 2.953125 0.332031 "/>
<path style=" stroke:none;fill-rule:nonzero;fill:rgb(68.235296%,28.235295%,27.058825%);fill-opacity:1;" d="M 20.203125 6.308594 L 15.570312 6.308594 C 14.839844 6.308594 14.242188 5.710938 14.242188 4.980469 L 14.242188 0.34375 Z M 20.203125 6.308594 "/>
<path style="fill:none;stroke-width:0.15;stroke-linecap:round;stroke-linejoin:round;stroke:rgb(0%,0%,0%);stroke-opacity:1;stroke-miterlimit:4;" d="M 6.443182 0.724432 L 31.065341 0.724432 L 44.113636 13.721591 L 44.113636 44.190341 C 44.113636 45.792614 42.818182 47.088068 41.215909 47.088068 L 6.443182 47.088068 C 4.840909 47.088068 3.545455 45.792614 3.545455 44.190341 L 3.545455 3.622159 C 3.545455 2.019886 4.840909 0.724432 6.443182 0.724432 Z M 6.443182 0.724432 " transform="matrix(0.458333,0,0,0.458333,0,0)"/>
<path style=" stroke:none;fill-rule:nonzero;fill:rgb(100%,100%,100%);fill-opacity:1;" d="M 10.546875 5.773438 C 10.230469 5.730469 10.1875 6.027344 10.21875 6.265625 C 10.21875 8.617188 10.226562 10.972656 10.214844 13.328125 C 10.136719 13.40625 9.988281 13.273438 9.890625 13.308594 C 8.820312 13.242188 7.648438 14.023438 7.542969 15.148438 C 7.417969 16.042969 8.359375 16.78125 9.199219 16.640625 C 10.257812 16.527344 11.082031 15.457031 10.945312 14.398438 C 10.949219 12.535156 10.9375 10.667969 10.949219 8.804688 C 11.023438 8.722656 11.128906 8.898438 11.207031 8.90625 C 12.054688 9.414062 12.808594 10.246094 12.859375 11.285156 C 12.917969 12.097656 12.671875 12.890625 12.394531 13.640625 C 13.320312 12.503906 13.613281 10.839844 12.972656 9.492188 C 12.644531 8.710938 11.90625 8.230469 11.492188 7.503906 C 11.1875 7.019531 10.953125 6.476562 10.882812 5.90625 C 10.820312 5.785156 10.664062 5.769531 10.546875 5.773438 Z M 10.546875 5.773438 "/>
</g>
</svg>
