<?xml version="1.0" encoding="UTF-8"?>
<svg xmlns="http://www.w3.org/2000/svg" xmlns:xlink="http://www.w3.org/1999/xlink" width="22px" height="22px" viewBox="0 0 22 22" version="1.1">
<g id="surface1">
<path style=" stroke:none;fill-rule:nonzero;fill:rgb(82.745099%,37.254903%,37.254903%);fill-opacity:1;" d="M 2.882812 0.191406 L 14.28125 0.191406 L 20.324219 6.207031 L 20.324219 20.3125 C 20.324219 21.050781 19.722656 21.652344 18.980469 21.652344 L 2.882812 21.652344 C 2.144531 21.652344 1.542969 21.050781 1.542969 20.3125 L 1.542969 1.53125 C 1.542969 0.789062 2.144531 0.191406 2.882812 0.191406 Z M 2.882812 0.191406 "/>
<path style=" stroke:none;fill-rule:nonzero;fill:rgb(62.7451%,17.254902%,17.254902%);fill-opacity:1;" d="M 20.304688 6.226562 L 15.628906 6.226562 C 14.886719 6.226562 14.285156 5.625 14.285156 4.886719 L 14.285156 0.203125 Z M 20.304688 6.226562 "/>
<path style="fill:none;stroke-width:0.997283;stroke-linecap:round;stroke-linejoin:round;stroke:rgb(0%,0%,0%);stroke-opacity:1;stroke-miterlimit:4;" d="M 38.634525 0.0157559 L 202.88453 0.0157559 L 289.962926 86.700131 L 289.962926 289.958105 C 289.962926 300.596642 281.294488 309.26508 270.599663 309.26508 L 38.634525 309.26508 C 27.995988 309.26508 19.327551 300.596642 19.327551 289.958105 L 19.327551 19.32273 C 19.327551 8.627905 27.995988 0.0157559 38.634525 0.0157559 Z M 38.634525 0.0157559 " transform="matrix(0.0693969,0,0,0.0693969,0.201697,0.190313)"/>
<path style="fill:none;stroke-width:0.997283;stroke-linecap:round;stroke-linejoin:round;stroke:rgb(0%,0%,0%);stroke-opacity:1;stroke-miterlimit:4;" d="M 289.681483 86.981574 L 222.304082 86.981574 C 211.609256 86.981574 202.940819 78.313137 202.940819 67.6746 L 202.940819 0.184622 Z M 289.681483 86.981574 " transform="matrix(0.0693969,0,0,0.0693969,0.201697,0.190313)"/>
<path style=" stroke:none;fill-rule:nonzero;fill:rgb(94.901961%,94.901961%,94.901961%);fill-opacity:1;" d="M 6.882812 7.835938 L 14.871094 7.835938 C 15.347656 7.835938 15.734375 8.222656 15.734375 8.703125 L 15.734375 14.257812 C 15.734375 14.738281 15.347656 15.125 14.871094 15.125 L 6.882812 15.125 C 6.40625 15.125 6.015625 14.738281 6.015625 14.257812 L 6.015625 8.703125 C 6.015625 8.222656 6.40625 7.835938 6.882812 7.835938 Z M 6.882812 7.835938 "/>
<path style=" stroke:none;fill-rule:nonzero;fill:rgb(82.745099%,37.254903%,37.254903%);fill-opacity:1;" d="M 7.230469 9.050781 L 14.519531 9.050781 L 14.519531 9.859375 L 7.230469 9.859375 Z M 7.230469 9.050781 "/>
<path style=" stroke:none;fill-rule:nonzero;fill:rgb(82.745099%,37.254903%,37.254903%);fill-opacity:1;" d="M 8.851562 10.671875 L 10.875 10.671875 L 10.875 11.480469 L 8.851562 11.480469 Z M 8.851562 10.671875 "/>
<path style=" stroke:none;fill-rule:nonzero;fill:rgb(82.745099%,37.254903%,37.254903%);fill-opacity:1;" d="M 8.042969 11.074219 C 8.042969 11.21875 7.964844 11.355469 7.839844 11.425781 C 7.714844 11.5 7.558594 11.5 7.433594 11.425781 C 7.308594 11.355469 7.230469 11.21875 7.230469 11.074219 C 7.230469 10.929688 7.308594 10.796875 7.433594 10.722656 C 7.558594 10.652344 7.714844 10.652344 7.839844 10.722656 C 7.964844 10.796875 8.042969 10.929688 8.042969 11.074219 Z M 8.042969 11.074219 "/>
<path style=" stroke:none;fill-rule:nonzero;fill:rgb(82.745099%,37.254903%,37.254903%);fill-opacity:1;" d="M 8.851562 11.886719 L 10.875 11.886719 L 10.875 12.695312 L 8.851562 12.695312 Z M 8.851562 11.886719 "/>
<path style=" stroke:none;fill-rule:nonzero;fill:rgb(82.745099%,37.254903%,37.254903%);fill-opacity:1;" d="M 8.042969 12.289062 C 8.042969 12.433594 7.964844 12.570312 7.839844 12.640625 C 7.714844 12.714844 7.558594 12.714844 7.433594 12.640625 C 7.308594 12.570312 7.230469 12.433594 7.230469 12.289062 C 7.230469 12.144531 7.308594 12.011719 7.433594 11.9375 C 7.558594 11.867188 7.714844 11.867188 7.839844 11.9375 C 7.964844 12.011719 8.042969 12.144531 8.042969 12.289062 Z M 8.042969 12.289062 "/>
<path style=" stroke:none;fill-rule:nonzero;fill:rgb(82.745099%,37.254903%,37.254903%);fill-opacity:1;" d="M 8.851562 13.101562 L 10.875 13.101562 L 10.875 13.910156 L 8.851562 13.910156 Z M 8.851562 13.101562 "/>
<path style=" stroke:none;fill-rule:nonzero;fill:rgb(82.745099%,37.254903%,37.254903%);fill-opacity:1;" d="M 8.042969 13.503906 C 8.042969 13.648438 7.964844 13.785156 7.839844 13.855469 C 7.714844 13.929688 7.558594 13.929688 7.433594 13.855469 C 7.308594 13.785156 7.230469 13.648438 7.230469 13.503906 C 7.230469 13.359375 7.308594 13.226562 7.433594 13.152344 C 7.558594 13.082031 7.714844 13.082031 7.839844 13.152344 C 7.964844 13.226562 8.042969 13.359375 8.042969 13.503906 Z M 8.042969 13.503906 "/>
<path style=" stroke:none;fill-rule:evenodd;fill:rgb(82.745099%,37.254903%,37.254903%);fill-opacity:1;" d="M 13.097656 10.652344 C 12.195312 10.652344 11.464844 11.382812 11.464844 12.285156 C 11.464844 13.1875 12.195312 13.917969 13.097656 13.917969 C 14 13.917969 14.730469 13.1875 14.730469 12.285156 L 13.097656 12.285156 Z M 13.097656 10.652344 "/>
</g>
</svg>
