<?xml version="1.0" encoding="UTF-8"?>
<svg xmlns="http://www.w3.org/2000/svg" xmlns:xlink="http://www.w3.org/1999/xlink" width="22px" height="22px" viewBox="0 0 22 22" version="1.1">
<g id="surface1">
<path style=" stroke:none;fill-rule:nonzero;fill:rgb(90.196079%,90.196079%,90.196079%);fill-opacity:1;" d="M 2.953125 0.332031 L 14.238281 0.332031 L 20.21875 6.289062 L 20.21875 20.253906 C 20.21875 20.988281 19.625 21.582031 18.890625 21.582031 L 2.953125 21.582031 C 2.21875 21.582031 1.625 20.988281 1.625 20.253906 L 1.625 1.660156 C 1.625 0.925781 2.21875 0.332031 2.953125 0.332031 Z M 2.953125 0.332031 "/>
<path style=" stroke:none;fill-rule:nonzero;fill:rgb(50.196081%,50.196081%,50.196081%);fill-opacity:1;" d="M 6.140625 13.726562 L 15.679688 13.726562 L 15.679688 14.644531 L 6.140625 14.644531 Z M 6.140625 13.726562 "/>
<path style="fill-rule:nonzero;fill:rgb(60.000002%,60.000002%,60.000002%);fill-opacity:1;stroke-width:0.149924;stroke-linecap:butt;stroke-linejoin:miter;stroke:rgb(0%,0%,0%);stroke-opacity:1;stroke-miterlimit:4;" d="M 44.079545 13.764205 L 33.971591 13.764205 C 32.377841 13.764205 31.073864 12.460227 31.073864 10.866477 L 31.073864 0.75 Z M 44.079545 13.764205 " transform="matrix(0.458333,0,0,0.458333,0,0)"/>
<path style="fill:none;stroke-width:0.15;stroke-linecap:round;stroke-linejoin:round;stroke:rgb(0%,0%,0%);stroke-opacity:1;stroke-miterlimit:4;" d="M 6.443182 0.724432 L 31.065341 0.724432 L 44.113636 13.721591 L 44.113636 44.190341 C 44.113636 45.792614 42.818182 47.088068 41.215909 47.088068 L 6.443182 47.088068 C 4.840909 47.088068 3.545455 45.792614 3.545455 44.190341 L 3.545455 3.622159 C 3.545455 2.019886 4.840909 0.724432 6.443182 0.724432 Z M 6.443182 0.724432 " transform="matrix(0.458333,0,0,0.458333,0,0)"/>
<path style=" stroke:none;fill-rule:nonzero;fill:rgb(50.196081%,50.196081%,50.196081%);fill-opacity:1;" d="M 6.140625 15.5625 L 11.464844 15.5625 L 11.464844 16.476562 L 6.140625 16.476562 Z M 6.140625 15.5625 "/>
<path style=" stroke:none;fill-rule:nonzero;fill:rgb(50.196081%,50.196081%,50.196081%);fill-opacity:1;" d="M 6.140625 11.894531 L 15.679688 11.894531 L 15.679688 12.8125 L 6.140625 12.8125 Z M 6.140625 11.894531 "/>
<path style=" stroke:none;fill-rule:nonzero;fill:rgb(40.000001%,40.000001%,40.000001%);fill-opacity:1;" d="M 7.734375 8.515625 L 8.207031 9.566406 L 7.261719 9.566406 Z M 6.46875 10.703125 C 6.53125 10.734375 6.597656 10.734375 6.664062 10.710938 C 6.730469 10.683594 6.78125 10.640625 6.808594 10.574219 L 7.03125 10.082031 L 8.441406 10.082031 L 8.660156 10.574219 C 8.707031 10.675781 8.785156 10.726562 8.898438 10.726562 C 8.933594 10.726562 8.96875 10.71875 9.003906 10.703125 C 9.066406 10.675781 9.113281 10.628906 9.136719 10.558594 C 9.164062 10.492188 9.160156 10.429688 9.132812 10.363281 L 7.96875 7.78125 C 7.925781 7.679688 7.847656 7.628906 7.734375 7.628906 C 7.625 7.628906 7.542969 7.679688 7.5 7.78125 L 6.339844 10.363281 C 6.308594 10.429688 6.308594 10.492188 6.332031 10.558594 C 6.355469 10.628906 6.402344 10.675781 6.46875 10.703125 Z M 6.46875 10.703125 "/>
<path style=" stroke:none;fill-rule:nonzero;fill:rgb(40.000001%,40.000001%,40.000001%);fill-opacity:1;" d="M 10.210938 9.4375 L 11.371094 9.4375 C 11.480469 9.4375 11.570312 9.476562 11.644531 9.550781 C 11.722656 9.628906 11.761719 9.71875 11.761719 9.824219 C 11.761719 9.933594 11.722656 10.023438 11.644531 10.097656 C 11.570312 10.175781 11.480469 10.210938 11.371094 10.210938 L 10.210938 10.210938 Z M 10.210938 8.148438 L 11.113281 8.148438 C 11.222656 8.148438 11.3125 8.183594 11.390625 8.261719 C 11.464844 8.335938 11.5 8.425781 11.5 8.535156 C 11.5 8.640625 11.464844 8.730469 11.390625 8.808594 C 11.3125 8.882812 11.222656 8.921875 11.113281 8.921875 L 10.210938 8.921875 Z M 11.371094 10.726562 C 11.621094 10.726562 11.835938 10.640625 12.011719 10.460938 C 12.1875 10.285156 12.277344 10.074219 12.277344 9.824219 C 12.277344 9.492188 12.132812 9.234375 11.851562 9.058594 C 11.964844 8.902344 12.019531 8.726562 12.019531 8.535156 C 12.019531 8.285156 11.929688 8.070312 11.753906 7.894531 C 11.578125 7.71875 11.363281 7.632812 11.113281 7.632812 L 9.953125 7.632812 C 9.882812 7.632812 9.820312 7.65625 9.769531 7.707031 C 9.71875 7.757812 9.695312 7.816406 9.695312 7.886719 L 9.695312 10.46875 C 9.695312 10.542969 9.71875 10.601562 9.769531 10.652344 C 9.820312 10.703125 9.882812 10.726562 9.953125 10.726562 Z M 11.371094 10.726562 "/>
<path style=" stroke:none;fill-rule:nonzero;fill:rgb(40.000001%,40.000001%,40.000001%);fill-opacity:1;" d="M 14.34375 10.726562 C 14.769531 10.726562 15.136719 10.578125 15.4375 10.273438 C 15.488281 10.226562 15.511719 10.164062 15.511719 10.089844 C 15.511719 10.019531 15.488281 9.960938 15.4375 9.910156 C 15.386719 9.859375 15.328125 9.835938 15.257812 9.835938 C 15.183594 9.835938 15.121094 9.859375 15.074219 9.910156 C 14.871094 10.113281 14.628906 10.210938 14.34375 10.210938 C 14.058594 10.210938 13.8125 10.113281 13.613281 9.910156 C 13.410156 9.710938 13.308594 9.464844 13.308594 9.179688 C 13.308594 8.894531 13.410156 8.652344 13.613281 8.449219 C 13.8125 8.25 14.058594 8.148438 14.34375 8.148438 C 14.628906 8.148438 14.871094 8.25 15.074219 8.449219 C 15.121094 8.5 15.183594 8.523438 15.257812 8.523438 C 15.328125 8.523438 15.386719 8.5 15.4375 8.449219 C 15.488281 8.398438 15.511719 8.339844 15.511719 8.265625 C 15.511719 8.195312 15.488281 8.136719 15.4375 8.085938 C 15.136719 7.78125 14.769531 7.632812 14.34375 7.632812 C 13.914062 7.632812 13.550781 7.78125 13.246094 8.085938 C 12.945312 8.386719 12.792969 8.75 12.792969 9.179688 C 12.792969 9.609375 12.945312 9.972656 13.246094 10.273438 C 13.550781 10.578125 13.914062 10.726562 14.34375 10.726562 Z M 14.34375 10.726562 "/>
</g>
</svg>
