<?xml version="1.0" encoding="UTF-8"?>
<svg xmlns="http://www.w3.org/2000/svg" xmlns:xlink="http://www.w3.org/1999/xlink" width="22px" height="22px" viewBox="0 0 22 22" version="1.1">
<g id="surface1">
<path style=" stroke:none;fill-rule:nonzero;fill:rgb(90.196079%,90.196079%,90.196079%);fill-opacity:1;" d="M 2.953125 0.332031 L 14.238281 0.332031 L 20.21875 6.289062 L 20.21875 20.253906 C 20.21875 20.988281 19.625 21.582031 18.890625 21.582031 L 2.953125 21.582031 C 2.21875 21.582031 1.625 20.988281 1.625 20.253906 L 1.625 1.660156 C 1.625 0.925781 2.21875 0.332031 2.953125 0.332031 Z M 2.953125 0.332031 "/>
<path style=" stroke:none;fill-rule:nonzero;fill:rgb(40.000001%,40.000001%,40.000001%);fill-opacity:1;" d="M 11.738281 11.878906 L 11.738281 12.441406 C 11.738281 12.53125 11.769531 12.605469 11.832031 12.667969 C 11.894531 12.730469 11.96875 12.761719 12.058594 12.761719 C 12.148438 12.761719 12.222656 12.730469 12.285156 12.667969 C 12.347656 12.605469 12.378906 12.53125 12.378906 12.441406 L 12.378906 11.878906 L 12.9375 11.878906 C 13.027344 11.878906 13.101562 11.847656 13.167969 11.785156 C 13.230469 11.722656 13.261719 11.648438 13.261719 11.558594 C 13.261719 11.472656 13.230469 11.398438 13.167969 11.335938 C 13.101562 11.273438 13.027344 11.242188 12.9375 11.242188 L 12.378906 11.242188 L 12.378906 10.679688 C 12.378906 10.589844 12.347656 10.515625 12.285156 10.453125 C 12.222656 10.390625 12.148438 10.359375 12.058594 10.359375 C 11.96875 10.359375 11.894531 10.390625 11.832031 10.453125 C 11.769531 10.515625 11.738281 10.589844 11.738281 10.679688 L 11.738281 11.242188 L 11.179688 11.242188 C 11.089844 11.242188 11.011719 11.273438 10.949219 11.335938 C 10.886719 11.398438 10.855469 11.472656 10.855469 11.558594 C 10.855469 11.648438 10.886719 11.722656 10.949219 11.785156 C 11.011719 11.847656 11.089844 11.878906 11.179688 11.878906 Z M 11.738281 11.878906 "/>
<path style="fill-rule:nonzero;fill:rgb(60.000002%,60.000002%,60.000002%);fill-opacity:1;stroke-width:0.149924;stroke-linecap:butt;stroke-linejoin:miter;stroke:rgb(0%,0%,0%);stroke-opacity:1;stroke-miterlimit:4;" d="M 44.079545 13.764205 L 33.971591 13.764205 C 32.377841 13.764205 31.073864 12.460227 31.073864 10.866477 L 31.073864 0.75 Z M 44.079545 13.764205 " transform="matrix(0.458333,0,0,0.458333,0,0)"/>
<path style="fill:none;stroke-width:0.15;stroke-linecap:round;stroke-linejoin:round;stroke:rgb(0%,0%,0%);stroke-opacity:1;stroke-miterlimit:4;" d="M 6.443182 0.724432 L 31.065341 0.724432 L 44.113636 13.721591 L 44.113636 44.190341 C 44.113636 45.792614 42.818182 47.088068 41.215909 47.088068 L 6.443182 47.088068 C 4.840909 47.088068 3.545455 45.792614 3.545455 44.190341 L 3.545455 3.622159 C 3.545455 2.019886 4.840909 0.724432 6.443182 0.724432 Z M 6.443182 0.724432 " transform="matrix(0.458333,0,0,0.458333,0,0)"/>
<path style=" stroke:none;fill-rule:nonzero;fill:rgb(40.000001%,40.000001%,40.000001%);fill-opacity:1;" d="M 14.402344 11.878906 L 14.402344 12.441406 C 14.402344 12.53125 14.433594 12.605469 14.496094 12.667969 C 14.558594 12.730469 14.632812 12.761719 14.722656 12.761719 C 14.8125 12.761719 14.886719 12.730469 14.949219 12.667969 C 15.011719 12.605469 15.042969 12.53125 15.042969 12.441406 L 15.042969 11.878906 L 15.601562 11.878906 C 15.691406 11.878906 15.765625 11.847656 15.832031 11.785156 C 15.894531 11.722656 15.925781 11.648438 15.925781 11.558594 C 15.925781 11.472656 15.894531 11.398438 15.832031 11.335938 C 15.765625 11.273438 15.691406 11.242188 15.601562 11.242188 L 15.042969 11.242188 L 15.042969 10.679688 C 15.042969 10.589844 15.011719 10.515625 14.949219 10.453125 C 14.886719 10.390625 14.8125 10.359375 14.722656 10.359375 C 14.632812 10.359375 14.558594 10.390625 14.496094 10.453125 C 14.433594 10.515625 14.402344 10.589844 14.402344 10.679688 L 14.402344 11.242188 L 13.84375 11.242188 C 13.753906 11.242188 13.675781 11.273438 13.613281 11.335938 C 13.550781 11.398438 13.519531 11.472656 13.519531 11.558594 C 13.519531 11.648438 13.550781 11.722656 13.613281 11.785156 C 13.675781 11.847656 13.753906 11.878906 13.84375 11.878906 Z M 14.402344 11.878906 "/>
<path style=" stroke:none;fill-rule:nonzero;fill:rgb(40.000001%,40.000001%,40.000001%);fill-opacity:1;" d="M 8.808594 14.464844 C 9.628906 14.464844 10.328125 14.175781 10.90625 13.597656 C 11.003906 13.5 11.050781 13.382812 11.050781 13.246094 C 11.050781 13.109375 11.003906 12.992188 10.90625 12.898438 C 10.808594 12.800781 10.695312 12.753906 10.558594 12.753906 C 10.421875 12.753906 10.304688 12.800781 10.207031 12.898438 C 9.820312 13.285156 9.355469 13.476562 8.808594 13.476562 C 8.257812 13.476562 7.789062 13.285156 7.40625 12.898438 C 7.019531 12.511719 6.824219 12.042969 6.824219 11.492188 C 6.824219 10.949219 7.019531 10.480469 7.40625 10.09375 C 7.789062 9.707031 8.257812 9.515625 8.808594 9.515625 C 9.355469 9.515625 9.820312 9.707031 10.207031 10.09375 C 10.304688 10.191406 10.421875 10.238281 10.558594 10.238281 C 10.695312 10.238281 10.808594 10.191406 10.90625 10.09375 C 11.003906 10 11.050781 9.878906 11.050781 9.742188 C 11.050781 9.609375 11.003906 9.492188 10.90625 9.394531 C 10.328125 8.816406 9.628906 8.527344 8.808594 8.527344 C 7.984375 8.527344 7.285156 8.816406 6.703125 9.394531 C 6.125 9.972656 5.835938 10.675781 5.835938 11.492188 C 5.835938 12.316406 6.125 13.015625 6.703125 13.597656 C 7.285156 14.175781 7.984375 14.464844 8.808594 14.464844 Z M 8.808594 14.464844 "/>
</g>
</svg>
