<?xml version="1.0" encoding="UTF-8"?>
<svg xmlns="http://www.w3.org/2000/svg" xmlns:xlink="http://www.w3.org/1999/xlink" width="22px" height="22px" viewBox="0 0 22 22" version="1.1">
<g id="surface1">
<path style=" stroke:none;fill-rule:nonzero;fill:rgb(90.196079%,90.196079%,90.196079%);fill-opacity:1;" d="M 2.953125 0.332031 L 14.238281 0.332031 L 20.21875 6.289062 L 20.21875 20.253906 C 20.21875 20.988281 19.625 21.582031 18.890625 21.582031 L 2.953125 21.582031 C 2.21875 21.582031 1.625 20.988281 1.625 20.253906 L 1.625 1.660156 C 1.625 0.925781 2.21875 0.332031 2.953125 0.332031 Z M 2.953125 0.332031 "/>
<path style=" stroke:none;fill-rule:nonzero;fill:rgb(40.000001%,40.000001%,40.000001%);fill-opacity:1;" d="M 6.855469 10.035156 C 7.21875 10.035156 7.546875 10.21875 7.835938 10.589844 C 7.96875 10.820312 8.035156 11.027344 8.035156 11.214844 L 8.035156 11.335938 C 8.035156 11.703125 7.847656 12.027344 7.476562 12.316406 C 7.246094 12.449219 7.039062 12.511719 6.855469 12.511719 L 6.390625 12.511719 L 6.390625 12.945312 C 6.390625 13.226562 6.34375 13.386719 6.25 13.433594 C 6.25 13.46875 6.171875 13.503906 6.023438 13.542969 L 5.914062 13.542969 C 5.761719 13.542969 5.640625 13.433594 5.554688 13.214844 L 5.554688 10.394531 C 5.554688 10.238281 5.664062 10.121094 5.882812 10.035156 Z M 6.390625 10.859375 L 6.390625 11.671875 L 6.847656 11.671875 C 6.996094 11.671875 7.113281 11.566406 7.195312 11.355469 L 7.195312 11.222656 C 7.195312 11.074219 7.089844 10.953125 6.878906 10.871094 L 6.660156 10.859375 Z M 6.390625 10.859375 "/>
<path style=" stroke:none;fill-rule:nonzero;fill:rgb(40.000001%,40.000001%,40.000001%);fill-opacity:1;" d="M 10.664062 10.035156 C 10.820312 10.035156 10.941406 10.144531 11.027344 10.363281 L 11.027344 10.5 C 11.027344 10.65625 10.917969 10.773438 10.695312 10.859375 L 9.808594 10.871094 L 9.386719 10.871094 L 9.386719 11.378906 L 10.457031 11.378906 C 10.613281 11.378906 10.734375 11.488281 10.824219 11.703125 L 10.824219 11.84375 C 10.824219 11.996094 10.710938 12.117188 10.488281 12.203125 L 10.273438 12.210938 L 9.386719 12.210938 L 9.386719 12.71875 L 10.414062 12.710938 L 10.480469 12.710938 C 10.761719 12.710938 10.929688 12.792969 10.988281 12.957031 C 11 12.957031 11.015625 12.996094 11.027344 13.078125 L 11.027344 13.183594 C 11.027344 13.339844 10.917969 13.460938 10.695312 13.542969 L 8.910156 13.542969 C 8.753906 13.542969 8.632812 13.433594 8.550781 13.214844 L 8.550781 10.394531 C 8.550781 10.238281 8.660156 10.121094 8.878906 10.035156 Z M 10.664062 10.035156 "/>
<path style=" stroke:none;fill-rule:nonzero;fill:rgb(40.000001%,40.000001%,40.000001%);fill-opacity:1;" d="M 12.84375 10.035156 C 13.207031 10.035156 13.53125 10.21875 13.820312 10.589844 C 13.957031 10.820312 14.023438 11.027344 14.023438 11.214844 L 14.023438 11.335938 C 14.023438 11.71875 13.816406 12.054688 13.410156 12.34375 C 13.804688 12.714844 14 12.929688 14 12.996094 C 14.015625 13.023438 14.023438 13.0625 14.023438 13.109375 L 14.023438 13.152344 C 14.023438 13.335938 13.910156 13.464844 13.691406 13.542969 L 13.589844 13.542969 C 13.445312 13.542969 13.273438 13.425781 13.070312 13.183594 L 12.390625 12.511719 L 12.378906 12.511719 L 12.378906 12.945312 C 12.378906 13.226562 12.332031 13.386719 12.234375 13.433594 C 12.234375 13.46875 12.160156 13.503906 12.007812 13.542969 L 11.902344 13.542969 C 11.75 13.542969 11.628906 13.433594 11.542969 13.214844 L 11.542969 10.394531 C 11.542969 10.238281 11.652344 10.121094 11.871094 10.035156 Z M 12.378906 10.859375 L 12.378906 11.671875 L 12.832031 11.671875 C 12.984375 11.671875 13.101562 11.566406 13.183594 11.355469 L 13.183594 11.222656 C 13.183594 11.074219 13.078125 10.953125 12.863281 10.871094 L 12.648438 10.859375 Z M 12.378906 10.859375 "/>
<path style=" stroke:none;fill-rule:nonzero;fill:rgb(40.000001%,40.000001%,40.000001%);fill-opacity:1;" d="M 15.003906 10.035156 C 15.132812 10.035156 15.246094 10.125 15.339844 10.304688 L 15.371094 10.488281 L 15.363281 12.710938 L 15.363281 12.71875 L 16.652344 12.71875 C 16.808594 12.71875 16.929688 12.828125 17.015625 13.046875 L 17.015625 13.183594 C 17.015625 13.339844 16.90625 13.460938 16.683594 13.542969 L 14.898438 13.542969 C 14.742188 13.542969 14.621094 13.433594 14.539062 13.214844 L 14.539062 10.394531 C 14.539062 10.238281 14.648438 10.121094 14.863281 10.035156 Z M 15.003906 10.035156 "/>
<path style="fill-rule:nonzero;fill:rgb(60.000002%,60.000002%,60.000002%);fill-opacity:1;stroke-width:0.149924;stroke-linecap:butt;stroke-linejoin:miter;stroke:rgb(0%,0%,0%);stroke-opacity:1;stroke-miterlimit:4;" d="M 44.079545 13.764205 L 33.971591 13.764205 C 32.377841 13.764205 31.073864 12.460227 31.073864 10.866477 L 31.073864 0.75 Z M 44.079545 13.764205 " transform="matrix(0.458333,0,0,0.458333,0,0)"/>
<path style="fill:none;stroke-width:0.15;stroke-linecap:round;stroke-linejoin:round;stroke:rgb(0%,0%,0%);stroke-opacity:1;stroke-miterlimit:4;" d="M 6.443182 0.724432 L 31.065341 0.724432 L 44.113636 13.721591 L 44.113636 44.190341 C 44.113636 45.792614 42.818182 47.088068 41.215909 47.088068 L 6.443182 47.088068 C 4.840909 47.088068 3.545455 45.792614 3.545455 44.190341 L 3.545455 3.622159 C 3.545455 2.019886 4.840909 0.724432 6.443182 0.724432 Z M 6.443182 0.724432 " transform="matrix(0.458333,0,0,0.458333,0,0)"/>
</g>
</svg>
