<?xml version="1.0" encoding="UTF-8"?>
<svg xmlns="http://www.w3.org/2000/svg" xmlns:xlink="http://www.w3.org/1999/xlink" width="22px" height="22px" viewBox="0 0 22 22" version="1.1">
<g id="surface1">
<path style=" stroke:none;fill-rule:nonzero;fill:rgb(59.607846%,33.725491%,59.607846%);fill-opacity:1;" d="M 2.953125 0.332031 L 14.238281 0.332031 L 20.21875 6.289062 L 20.21875 20.253906 C 20.21875 20.988281 19.625 21.582031 18.890625 21.582031 L 2.953125 21.582031 C 2.21875 21.582031 1.625 20.988281 1.625 20.253906 L 1.625 1.660156 C 1.625 0.925781 2.21875 0.332031 2.953125 0.332031 Z M 2.953125 0.332031 "/>
<path style="fill-rule:nonzero;fill:rgb(36.470589%,20.392157%,36.470589%);fill-opacity:1;stroke-width:0.149924;stroke-linecap:butt;stroke-linejoin:miter;stroke:rgb(0%,0%,0%);stroke-opacity:1;stroke-miterlimit:4;" d="M 44.079545 13.764205 L 33.971591 13.764205 C 32.377841 13.764205 31.073864 12.460227 31.073864 10.866477 L 31.073864 0.75 Z M 44.079545 13.764205 " transform="matrix(0.458333,0,0,0.458333,0,0)"/>
<path style="fill:none;stroke-width:0.15;stroke-linecap:round;stroke-linejoin:round;stroke:rgb(0%,0%,0%);stroke-opacity:1;stroke-miterlimit:4;" d="M 6.443182 0.724432 L 31.065341 0.724432 L 44.113636 13.721591 L 44.113636 44.190341 C 44.113636 45.792614 42.818182 47.088068 41.215909 47.088068 L 6.443182 47.088068 C 4.840909 47.088068 3.545455 45.792614 3.545455 44.190341 L 3.545455 3.622159 C 3.545455 2.019886 4.840909 0.724432 6.443182 0.724432 Z M 6.443182 0.724432 " transform="matrix(0.458333,0,0,0.458333,0,0)"/>
<path style=" stroke:none;fill-rule:nonzero;fill:rgb(100%,100%,100%);fill-opacity:1;" d="M 3.550781 3.617188 L 5.492188 3.617188 C 5.714844 3.617188 5.890625 3.894531 5.890625 4.238281 L 5.890625 5.769531 C 5.890625 6.113281 5.714844 6.394531 5.492188 6.394531 L 3.550781 6.394531 C 3.328125 6.394531 3.148438 6.113281 3.148438 5.769531 L 3.148438 4.238281 C 3.148438 3.894531 3.328125 3.617188 3.550781 3.617188 Z M 3.550781 3.617188 "/>
<path style=" stroke:none;fill-rule:nonzero;fill:rgb(100%,100%,100%);fill-opacity:1;" d="M 3.550781 7.753906 L 5.492188 7.753906 C 5.714844 7.753906 5.890625 8.03125 5.890625 8.375 L 5.890625 9.90625 C 5.890625 10.253906 5.714844 10.53125 5.492188 10.53125 L 3.550781 10.53125 C 3.328125 10.53125 3.148438 10.253906 3.148438 9.90625 L 3.148438 8.375 C 3.148438 8.03125 3.328125 7.753906 3.550781 7.753906 Z M 3.550781 7.753906 "/>
<path style=" stroke:none;fill-rule:nonzero;fill:rgb(100%,100%,100%);fill-opacity:1;" d="M 3.550781 11.890625 L 5.492188 11.890625 C 5.714844 11.890625 5.890625 12.167969 5.890625 12.511719 L 5.890625 14.042969 C 5.890625 14.390625 5.714844 14.667969 5.492188 14.667969 L 3.550781 14.667969 C 3.328125 14.667969 3.148438 14.390625 3.148438 14.042969 L 3.148438 12.511719 C 3.148438 12.167969 3.328125 11.890625 3.550781 11.890625 Z M 3.550781 11.890625 "/>
<path style=" stroke:none;fill-rule:nonzero;fill:rgb(100%,100%,100%);fill-opacity:1;" d="M 3.550781 16.027344 L 5.492188 16.027344 C 5.714844 16.027344 5.890625 16.304688 5.890625 16.648438 L 5.890625 18.179688 C 5.890625 18.527344 5.714844 18.804688 5.492188 18.804688 L 3.550781 18.804688 C 3.328125 18.804688 3.148438 18.527344 3.148438 18.179688 L 3.148438 16.648438 C 3.148438 16.304688 3.328125 16.027344 3.550781 16.027344 Z M 3.550781 16.027344 "/>
<path style=" stroke:none;fill-rule:nonzero;fill:rgb(100%,100%,100%);fill-opacity:1;" d="M 16.386719 7.753906 L 18.324219 7.753906 C 18.546875 7.753906 18.726562 8.03125 18.726562 8.375 L 18.726562 9.90625 C 18.726562 10.253906 18.546875 10.53125 18.324219 10.53125 L 16.386719 10.53125 C 16.164062 10.53125 15.984375 10.253906 15.984375 9.90625 L 15.984375 8.375 C 15.984375 8.03125 16.164062 7.753906 16.386719 7.753906 Z M 16.386719 7.753906 "/>
<path style=" stroke:none;fill-rule:nonzero;fill:rgb(100%,100%,100%);fill-opacity:1;" d="M 16.386719 11.890625 L 18.324219 11.890625 C 18.546875 11.890625 18.726562 12.167969 18.726562 12.511719 L 18.726562 14.042969 C 18.726562 14.390625 18.546875 14.667969 18.324219 14.667969 L 16.386719 14.667969 C 16.164062 14.667969 15.984375 14.390625 15.984375 14.042969 L 15.984375 12.511719 C 15.984375 12.167969 16.164062 11.890625 16.386719 11.890625 Z M 16.386719 11.890625 "/>
<path style=" stroke:none;fill-rule:nonzero;fill:rgb(100%,100%,100%);fill-opacity:1;" d="M 16.386719 16.027344 L 18.324219 16.027344 C 18.546875 16.027344 18.726562 16.304688 18.726562 16.648438 L 18.726562 18.179688 C 18.726562 18.527344 18.546875 18.804688 18.324219 18.804688 L 16.386719 18.804688 C 16.164062 18.804688 15.984375 18.527344 15.984375 18.179688 L 15.984375 16.648438 C 15.984375 16.304688 16.164062 16.027344 16.386719 16.027344 Z M 16.386719 16.027344 "/>
<path style=" stroke:none;fill-rule:nonzero;fill:rgb(100%,100%,100%);fill-opacity:1;" d="M 8.847656 9.4375 C 8.589844 9.449219 8.390625 9.660156 8.390625 9.914062 L 8.390625 13.945312 C 8.386719 14.296875 8.761719 14.527344 9.078125 14.371094 L 13.105469 12.355469 C 13.457031 12.179688 13.457031 11.679688 13.105469 11.503906 L 9.078125 9.488281 C 9.003906 9.453125 8.925781 9.4375 8.847656 9.4375 Z M 8.847656 9.4375 "/>
</g>
</svg>
