<?xml version="1.0" encoding="UTF-8"?>
<svg xmlns="http://www.w3.org/2000/svg" xmlns:xlink="http://www.w3.org/1999/xlink" width="22px" height="22px" viewBox="0 0 22 22" version="1.1">
<g id="surface1">
<path style=" stroke:none;fill-rule:nonzero;fill:rgb(66.666669%,0%,26.666668%);fill-opacity:1;" d="M 3.316406 0.277344 L 14.761719 0.277344 L 20.828125 6.320312 L 20.828125 20.484375 C 20.828125 21.230469 20.222656 21.832031 19.480469 21.832031 L 3.316406 21.832031 C 2.570312 21.832031 1.96875 21.230469 1.96875 20.484375 L 1.96875 1.625 C 1.96875 0.882812 2.570312 0.277344 3.316406 0.277344 Z M 3.316406 0.277344 "/>
<path style="fill-rule:nonzero;fill:rgb(61.960787%,23.921569%,39.215687%);fill-opacity:1;stroke-width:0.999669;stroke-linecap:round;stroke-linejoin:round;stroke:rgb(0%,0%,0%);stroke-opacity:1;stroke-miterlimit:4;" d="M 38.668062 -0.0201436 L 202.900479 -0.0201436 L 289.949265 86.69233 L 289.949265 289.936953 C 289.949265 300.642888 281.261202 309.274899 270.611318 309.274899 L 38.668062 309.274899 C 27.962126 309.274899 19.330115 300.642888 19.330115 289.936953 L 19.330115 19.317803 C 19.330115 8.667919 27.962126 -0.0201436 38.668062 -0.0201436 Z M 38.668062 -0.0201436 " transform="matrix(0.0696897,0,0,0.0696897,0.62164,0.278748)"/>
<path style="fill-rule:nonzero;fill:rgb(41.960785%,8.235294%,21.568628%);fill-opacity:1;stroke-width:1;stroke-linecap:butt;stroke-linejoin:miter;stroke:rgb(0%,0%,0%);stroke-opacity:1;stroke-miterlimit:4;" d="M 289.669005 86.97259 L 222.294477 86.97259 C 211.588542 86.97259 202.956531 78.340579 202.956531 67.634644 L 202.956531 0.204065 Z M 289.669005 86.97259 " transform="matrix(0.0696897,0,0,0.0696897,0.62164,0.278748)"/>
<path style=" stroke:none;fill-rule:nonzero;fill:rgb(100%,100%,100%);fill-opacity:1;" d="M 7.792969 10.550781 L 7.792969 10.675781 C 7.792969 10.632812 7.796875 10.589844 7.804688 10.550781 Z M 7.792969 10.675781 L 7.792969 12.375 L 7.816406 12.375 C 7.980469 13.40625 9.546875 14.207031 11.457031 14.207031 C 13.371094 14.207031 14.933594 13.40625 15.101562 12.375 L 15.125 12.375 L 15.125 10.675781 C 15.125 11.792969 13.484375 12.699219 11.457031 12.699219 C 9.433594 12.699219 7.792969 11.792969 7.792969 10.675781 Z M 15.125 10.675781 L 15.125 10.550781 L 15.113281 10.550781 C 15.117188 10.589844 15.125 10.632812 15.125 10.675781 Z M 15.125 10.675781 "/>
<path style=" stroke:none;fill-rule:nonzero;fill:rgb(90.196079%,90.196079%,90.196079%);fill-opacity:1;" d="M 15.125 10.269531 C 15.125 11.386719 13.484375 12.292969 11.457031 12.292969 C 9.433594 12.292969 7.792969 11.386719 7.792969 10.269531 C 7.792969 9.152344 9.433594 8.25 11.457031 8.25 C 13.484375 8.25 15.125 9.152344 15.125 10.269531 Z M 15.125 10.269531 "/>
<path style=" stroke:none;fill-rule:nonzero;fill:rgb(100%,100%,100%);fill-opacity:1;" d="M 7.792969 12.515625 L 7.792969 12.644531 C 7.792969 12.601562 7.796875 12.558594 7.804688 12.515625 Z M 7.792969 12.644531 L 7.792969 14.34375 L 7.816406 14.34375 C 7.980469 15.371094 9.546875 16.175781 11.457031 16.175781 C 13.371094 16.175781 14.933594 15.371094 15.101562 14.34375 L 15.125 14.34375 L 15.125 12.644531 C 15.125 13.761719 13.484375 14.664062 11.457031 14.664062 C 9.433594 14.664062 7.792969 13.761719 7.792969 12.644531 Z M 15.125 12.644531 L 15.125 12.515625 L 15.113281 12.515625 C 15.117188 12.558594 15.125 12.601562 15.125 12.644531 Z M 15.125 12.644531 "/>
</g>
</svg>
