<?xml version="1.0" encoding="UTF-8" standalone="no"?>
<svg
   xmlns:dc="http://purl.org/dc/elements/1.1/"
   xmlns:cc="http://creativecommons.org/ns#"
   xmlns:rdf="http://www.w3.org/1999/02/22-rdf-syntax-ns#"
   xmlns:svg="http://www.w3.org/2000/svg"
   xmlns="http://www.w3.org/2000/svg"
   xmlns:sodipodi="http://sodipodi.sourceforge.net/DTD/sodipodi-0.dtd"
   xmlns:inkscape="http://www.inkscape.org/namespaces/inkscape"
   height="32"
   width="32"
   version="1"
   id="svg18"
   sodipodi:docname="gnome-character-map.svg"
   inkscape:version="0.92.2 2405546, 2018-03-11">
  <metadata
     id="metadata24">
    <rdf:RDF>
      <cc:Work
         rdf:about="">
        <dc:format>image/svg+xml</dc:format>
        <dc:type
           rdf:resource="http://purl.org/dc/dcmitype/StillImage" />
        <dc:title />
      </cc:Work>
    </rdf:RDF>
  </metadata>
  <defs
     id="defs22" />
  <sodipodi:namedview
     pagecolor="#ffffff"
     bordercolor="#666666"
     borderopacity="1"
     objecttolerance="10"
     gridtolerance="10"
     guidetolerance="10"
     inkscape:pageopacity="0"
     inkscape:pageshadow="2"
     inkscape:window-width="1920"
     inkscape:window-height="1019"
     id="namedview20"
     showgrid="false"
     inkscape:zoom="10.429825"
     inkscape:cx="18.125829"
     inkscape:cy="14.123053"
     inkscape:window-x="0"
     inkscape:window-y="5"
     inkscape:window-maximized="1"
     inkscape:current-layer="svg18"
     showguides="false" />
  <path
     style="opacity:0.2;stroke:none;stroke-width:0.32511282"
     d="m 31.814195,25.969361 c 0,0.540337 -0.435001,0.975338 -0.97534,0.975338 H 20.435247 c -0.139965,0 -0.272322,-0.0299 -0.392422,-0.08255 l 0.170178,0.705469 c 0.07165,0.01667 0.145374,0.02729 0.222244,0.02729 h 10.403608 c 0.540339,0 0.97534,-0.435001 0.97534,-0.975338 z"
     id="path2-2"
     inkscape:connector-curvature="0" />
  <path
     style="opacity:1;fill:#e6e6e6;fill-opacity:1;stroke:none;stroke-width:0.21689546;stroke-linecap:round;stroke-linejoin:round;stroke-miterlimit:4;stroke-dasharray:none;stroke-opacity:1;paint-order:stroke fill markers"
     d="m 12.93455,7.832509 c -0.968386,0 -1.747798,0.7794125 -1.747798,1.747799 v 13.968369 l 1.482684,6.762553 c 0.08698,0.01321 0.174318,0.02665 0.265115,0.02665 h 16.32355 c 0.968387,0 1.7478,-0.779413 1.7478,-1.747799 V 9.580308 c 0,-0.9683865 -0.779413,-1.747799 -1.7478,-1.747799 z"
     id="rect859"
     inkscape:connector-curvature="0" />
  <path
     style="opacity:1;fill:#999999;fill-opacity:1;stroke:none;stroke-width:0.21689546;stroke-linecap:round;stroke-linejoin:round;stroke-miterlimit:4;stroke-dasharray:none;stroke-opacity:1;paint-order:stroke fill markers"
     d="m 3.0055776,2.0476572 c -0.9683868,0 -1.7477995,0.7808153 -1.7477995,1.7492022 V 22.805231 c 0,0.968387 0.7794127,1.749202 1.7477995,1.749202 H 19.694299 L 14.759501,2.0476572 Z"
     id="rect826"
     inkscape:connector-curvature="0"
     sodipodi:nodetypes="ssssccs" />
  <path
     style="fill:#333333;stroke:none;stroke-width:0.71819693px;stroke-linecap:butt;stroke-linejoin:miter;stroke-opacity:1"
     d="m 12.669436,30.31123 7.024863,-5.756797 -8.437187,0.04372 z"
     id="path834"
     inkscape:connector-curvature="0" />
  <path
     d="m 9.9143364,15.394147 c -0.9310162,9e-6 -1.5759852,0.103573 -1.9350718,0.310702 -0.3590428,0.207142 -0.5385609,0.560483 -0.5385609,1.060079 0,0.398024 0.133598,0.714821 0.4007938,0.950397 0.2713538,0.231506 0.6387428,0.347255 1.1021367,0.347255 0.6387483,0 1.1501238,-0.219319 1.5342638,-0.657949 0.388248,-0.442701 0.582384,-1.02961 0.582389,-1.760647 V 15.394207 H 9.9143107 m 2.2985583,-0.462928 v 3.892906 H 11.060628 V 17.78848 c -0.262353,0.414688 -0.590722,0.721049 -0.98256,0.91993 -0.3926838,0.195497 -0.872539,0.292821 -1.440406,0.292821 -0.7185097,0 -1.2897642,-0.194649 -1.7162998,-0.584794 -0.4214589,-0.394377 -0.632189,-0.919931 -0.632189,-1.577508 0,-0.767614 0.2630122,-1.346382 0.789051,-1.736274 0.530208,-0.389891 1.319213,-0.584846 2.3671079,-0.584846 h 1.6156759 v -0.109664 c -10e-6,-0.515796 -0.175344,-0.913837 -0.52603,-1.194047 -0.346515,-0.28429 -0.834971,-0.426453 -1.4653719,-0.426453 -0.4007837,9e-6 -0.7911339,0.04672 -1.1710281,0.140123 -0.3799144,0.09341 -0.7452115,0.233537 -1.0958756,0.420359 v -1.035705 c 0.421662,-0.158395 0.8307873,-0.276166 1.2273918,-0.353349 0.39661,-0.08122 0.7827854,-0.121833 1.1585015,-0.121842 1.0144643,9e-6 1.7722453,0.25588 2.2731713,0.767613 0.500978,0.511751 0.751468,1.28748 0.751474,2.327247 M 8.3312478,8.8463309 10.097231,11.12483 H 9.1391312 L 7.0978496,8.8465845 h 1.2336517"
     style="opacity:0.28800001;fill:#000000;stroke-width:0.4231512;enable-background:new"
     id="path838"
     inkscape:connector-curvature="0" />
  <path
     inkscape:connector-curvature="0"
     id="path836"
     style="fill:#ffffff;stroke-width:0.4231512;enable-background:new"
     d="m 9.9143364,14.963979 c -0.9310162,9e-6 -1.5759852,0.103572 -1.9350718,0.310702 -0.3590428,0.207142 -0.5385609,0.560482 -0.5385609,1.060078 0,0.398025 0.133598,0.714822 0.4007938,0.950397 0.2713538,0.231507 0.6387428,0.347256 1.1021367,0.347256 0.6387483,0 1.1501238,-0.21932 1.5342638,-0.65795 0.388248,-0.442701 0.582384,-1.02961 0.582389,-1.760646 V 14.964038 H 9.9143107 m 2.2985583,-0.462927 v 3.892905 h -1.152241 v -1.035705 c -0.262353,0.414689 -0.590722,0.721049 -0.98256,0.91993 -0.3926838,0.195497 -0.872539,0.292821 -1.440406,0.292821 -0.7185097,0 -1.2897642,-0.194649 -1.7162998,-0.584794 -0.4214589,-0.394377 -0.632189,-0.919931 -0.632189,-1.577507 0,-0.767614 0.2630122,-1.346383 0.789051,-1.736274 0.530208,-0.389892 1.319213,-0.584847 2.3671079,-0.584847 h 1.6156759 v -0.109663 c -10e-6,-0.515796 -0.175344,-0.913837 -0.52603,-1.194048 -0.346515,-0.284289 -0.834971,-0.426452 -1.4653719,-0.426452 -0.4007837,9e-6 -0.7911339,0.04672 -1.1710281,0.140122 -0.3799144,0.09341 -0.7452115,0.233538 -1.0958756,0.420359 v -1.035705 c 0.421662,-0.158394 0.8307873,-0.276166 1.2273918,-0.353348 0.39661,-0.08122 0.7827854,-0.121833 1.1585015,-0.121842 1.0144643,9e-6 1.7722453,0.255879 2.2731713,0.767613 0.500978,0.51175 0.751468,1.287479 0.751474,2.327247 M 8.3312478,8.4161628 10.097231,10.694662 H 9.1391312 L 7.0978496,8.4164164 h 1.2336517" />
  <path
     style="opacity:0.25100002;fill:#000000;stroke-width:0.45334417"
     d="m 25.940397,19.619754 v 0.578077 h -5.433964 c 0.05142,0.81359 0.295452,1.434472 0.732229,1.862701 0.441053,0.423931 1.053394,0.635887 1.837043,0.635887 0.453888,0 0.892809,-0.05566 1.316694,-0.166993 0.428192,-0.111335 0.852123,-0.278335 1.27181,-0.50101 v 1.117585 c -0.423931,0.17985 -0.858562,0.316869 -1.303905,0.411074 -0.445348,0.09421 -0.897099,0.141317 -1.355319,0.141317 -1.147594,0 -2.05755,-0.334007 -2.72986,-1.001982 -0.668,-0.668003 -1.001979,-1.571472 -1.001979,-2.710544 -10e-6,-1.177608 0.316869,-2.111043 0.95057,-2.800489 0.638027,-0.693689 1.496583,-1.040515 2.575633,-1.040515 0.967706,6e-6 1.732045,0.312598 2.293012,0.937788 0.565221,0.6209 0.847847,1.466568 0.847847,2.537095 M 24.758341,19.2729 c -0.0086,-0.646587 -0.190572,-1.162556 -0.545963,-1.54799 -0.351136,-0.385377 -0.817882,-0.578067 -1.400198,-0.578076 -0.659445,7e-6 -1.188307,0.18627 -1.586526,0.55881 -0.393954,0.372549 -0.620901,0.897096 -0.68085,1.573648 l 4.213563,-0.0064 m -1.425951,-5.72941 h 1.303909 v 1.297471 h -1.303909 v -1.29747 m -2.511435,0 h 1.303909 v 1.297471 h -1.303909 v -1.297471"
     id="path859"
     inkscape:connector-curvature="0" />
  <path
     inkscape:connector-curvature="0"
     id="path849"
     d="m 25.940397,19.189585 v 0.578078 h -5.433964 c 0.05142,0.81359 0.295452,1.434472 0.732229,1.862701 0.441053,0.423931 1.053394,0.635887 1.837043,0.635887 0.453888,0 0.892809,-0.05566 1.316694,-0.166994 0.428192,-0.111334 0.852123,-0.278335 1.27181,-0.501009 v 1.117585 c -0.423931,0.17985 -0.858562,0.316869 -1.303905,0.411073 -0.445348,0.09421 -0.897099,0.141317 -1.355319,0.141317 -1.147594,0 -2.05755,-0.334006 -2.72986,-1.001981 -0.668,-0.668003 -1.001979,-1.571472 -1.001979,-2.710544 -10e-6,-1.177608 0.316869,-2.111044 0.95057,-2.800489 0.638027,-0.693689 1.496583,-1.040515 2.575633,-1.040515 0.967706,6e-6 1.732045,0.312598 2.293012,0.937788 0.565221,0.620899 0.847847,1.466568 0.847847,2.537094 m -1.181867,-0.346845 c -0.0086,-0.646586 -0.190572,-1.162555 -0.545963,-1.547989 -0.351136,-0.385378 -0.817882,-0.578067 -1.400198,-0.578076 -0.659445,6e-6 -1.188307,0.18627 -1.586526,0.558809 -0.393954,0.372549 -0.620901,0.897096 -0.68085,1.573648 l 4.213563,-0.0064 m -1.425951,-5.729411 h 1.303909 v 1.297471 h -1.303909 v -1.29747 m -2.511435,0 h 1.303909 v 1.297471 H 20.820981 V 13.11332"
     style="fill:#808080;stroke-width:0.45334417" />
</svg>
