<?xml version="1.0" encoding="UTF-8" standalone="no"?>
<!-- Created with Inkscape (http://www.inkscape.org/) -->

<svg
   xmlns:dc="http://purl.org/dc/elements/1.1/"
   xmlns:cc="http://creativecommons.org/ns#"
   xmlns:rdf="http://www.w3.org/1999/02/22-rdf-syntax-ns#"
   xmlns:svg="http://www.w3.org/2000/svg"
   xmlns="http://www.w3.org/2000/svg"
   xmlns:sodipodi="http://sodipodi.sourceforge.net/DTD/sodipodi-0.dtd"
   xmlns:inkscape="http://www.inkscape.org/namespaces/inkscape"
   width="32"
   height="32"
   id="svg3330"
   version="1.1"
   inkscape:version="0.92.2 2405546, 2018-03-11"
   sodipodi:docname="applications-system.svg">
  <defs
     id="defs3332">
    <linearGradient
       gradientUnits="userSpaceOnUse"
       id="linearGradient1022-8-8-3-0-06-59-7-8-0-2"
       x2="0"
       y1="3.0069399"
       y2="11.02436">
      <stop
         offset="0"
         id="stop3001-0-9-4-9-02-6-2-81-9" />
      <stop
         offset="1"
         stop-color="#363636"
         id="stop3003-5-6-6-5-70-7-1-4-9" />
    </linearGradient>
  </defs>
  <sodipodi:namedview
     id="base"
     pagecolor="#ffffff"
     bordercolor="#666666"
     borderopacity="1.0"
     inkscape:pageopacity="0.0"
     inkscape:pageshadow="2"
     inkscape:zoom="14.202078"
     inkscape:cx="13.13424"
     inkscape:cy="16.823268"
     inkscape:document-units="px"
     inkscape:current-layer="capa1"
     showgrid="true"
     inkscape:showpageshadow="false"
     inkscape:window-width="1920"
     inkscape:window-height="1013"
     inkscape:window-x="0"
     inkscape:window-y="0"
     inkscape:window-maximized="1"
     inkscape:snap-to-guides="false"
     inkscape:snap-grids="true"
     showguides="false"
     inkscape:guide-bbox="true"
     inkscape:snap-global="false">
    <inkscape:grid
       type="xygrid"
       id="grid2990"
       empspacing="5"
       visible="true"
       enabled="true"
       snapvisiblegridlinesonly="true" />
    <sodipodi:guide
       position="-30.770145,6.6187497"
       orientation="1,0"
       id="guide842"
       inkscape:locked="false" />
  </sodipodi:namedview>
  <metadata
     id="metadata3335">
    <rdf:RDF>
      <cc:Work
         rdf:about="">
        <dc:format>image/svg+xml</dc:format>
        <dc:type
           rdf:resource="http://purl.org/dc/dcmitype/StillImage" />
        <dc:title />
      </cc:Work>
    </rdf:RDF>
  </metadata>
  <g
     inkscape:label="Capa 1"
     inkscape:groupmode="layer"
     id="capa1"
     transform="translate(0,-1020.3622)">
    <path
       style="fill:#000000;stroke-width:1.33333325"
       d="m 1885.4475,1331.1768 c -10.9679,-3.9194 -19.8631,-11.7444 -25.1653,-22.1375 -4.1199,-8.0758 -5.2876,-20.477 -5.3377,-56.6884 -0.053,-38.295 -0.9965,-44.3506 -9.6599,-62 -7.2124,-14.6935 -23.6088,-31.6235 -37.6802,-38.9063 -30.8116,-15.947 -64.1235,-15.0994 -92.8697,2.3629 -5.0672,3.0782 -17.4962,14.5258 -34.7831,32.0367 -31.7573,32.1687 -35.2388,34.4628 -52.3409,34.4898 -8.8897,0.014 -11.9866,-0.5984 -18.5354,-3.6657 -9.5792,-4.4866 -30.7509,-24.6569 -35.9955,-34.293 -7.0834,-13.0145 -7.2567,-28.6403 -0.4658,-42.0076 1.4855,-2.924 15.1211,-17.9355 30.3014,-33.3587 26.2774,-26.6979 27.9001,-28.6484 33.8465,-40.6835 17.9906,-36.4118 11.331,-77.33199 -17.2346,-105.89749 -11.0642,-11.0643 -22.5052,-18.1287 -37.2562,-23.0044 -10.3595,-3.4242 -11.8762,-3.548 -52.6667,-4.2992 -41.9063,-0.7718 -42.0168,-0.7814 -49.5405,-4.3087 -8.9233,-4.1834 -16.9854,-12.0665 -21.2891,-20.8165 -2.7788,-5.6497 -3.1559,-8.5626 -3.5792,-27.6483 -0.4247,-19.1534 -0.1851,-22.1027 2.3457,-28.8628 5.6614,-15.1227 18.7243,-25.3253 35.5366,-27.7555 5.0563,-0.7309 23.9472,-1.3408 41.9799,-1.3553 28.2094,-0.023 34.222,-0.3935 43.0673,-2.6557 14.3524,-3.6708 27.3259,-10.9012 38.8196,-21.635 32.5443,-30.3928 39.0968,-76.523 16.3411,-115.0421 -3.9351,-6.6611 -13.1257,-17.0837 -32.3324,-36.6667 -30.3473,-30.9418 -33.0763,-35.1085 -33.202,-50.6935 -0.1224,-15.1719 2.9308,-21.223 19.0628,-37.7806 18.5457,-19.0351 23.2237,-21.5447 40.1236,-21.5257 19.0233,0.021 20.7677,1.1265 53.4193,33.8372 29.955,30.0093 36.7517,35.045 55.2473,40.9329 22.9679,7.3117 45.8205,5.4225 68.6667,-5.6766 10.6812,-5.1891 14.447,-7.9537 24.0246,-17.6371 13.0366,-13.1806 19.903,-24.8939 24.0127,-40.9628 2.2693,-8.8728 2.633,-14.8617 2.6562,-43.734 0.029,-36.749 1.0227,-47.2709 5.2959,-56.0981 3.908,-8.0729 12.5828,-16.4302 21.3439,-20.5628 6.9689,-3.2872 8.4267,-3.4591 29.3334,-3.4591 21.3438,0 22.2244,0.1103 29.5238,3.6959 8.7783,4.3122 17.5144,13.2403 21.595,22.0699 2.6933,5.8278 2.9351,8.9724 3.7082,48.2342 0.9076,46.0934 1.4779,49.9956 9.7729,66.876 14.3226,29.1466 43.2883,48.7934 75.5988,51.277 19.6115,1.5074 42.6178,-4.3798 57.8013,-14.7911 3.6666,-2.5142 18.9666,-16.8229 34,-31.797 24.5108,-24.4142 28.1301,-27.5184 35.05,-30.0619 10.2441,-3.7653 22.4037,-3.7516 32.5288,0.037 6.1488,2.3006 10.3676,5.4889 21.1718,16.0006 17.1454,16.6812 20.8989,23.2353 21.6342,37.7765 0.4413,8.7252 -0.01,12.1494 -2.4604,18.6832 -2.7002,7.1984 -5.8192,10.8723 -31.1293,36.6667 -17.4039,17.7369 -29.8166,31.5467 -32.5562,36.2205 -9.6916,16.5342 -13.8825,36.5413 -11.992,57.2492 3.097,33.923 26.3913,63.4773 60.0555,76.1943 l 11.0309,4.167 42.6666,0.8605 c 38.9665,0.7858 43.2802,1.1024 49.7407,3.6511 10.0953,3.9826 17.7289,10.7974 23.014,20.5455 l 4.5787,8.4452 v 22.6667 c 0,22.0689 -0.098,22.865 -3.694,30.1886 -4.3111,8.7787 -13.2453,17.5191 -22.0718,21.5932 -5.8256,2.6889 -8.9869,2.9313 -48.2342,3.6991 -47.1006,0.9213 -50.1479,1.4042 -68.6667,10.8806 -8.0591,4.1239 -13.4432,8.2508 -22.0246,16.8817 -18.7553,18.8634 -26.6895,37.9032 -26.7075,64.09009 -0.011,16.1094 2.0755,25.602 8.7282,39.7081 6.3615,13.4886 13.0115,21.5418 39.3269,47.6252 28.1602,27.9118 29.9628,30.8371 29.9906,48.6667 0.026,16.9659 -2.4778,22.0184 -19.3158,38.9712 -16.5013,16.6138 -23.7993,20.3834 -39.3311,20.3153 -18.1575,-0.08 -21.7521,-2.4303 -54.6667,-35.7506 -25.2164,-25.5273 -29.0604,-28.89 -38.6666,-33.8254 -15.2477,-7.8338 -25.1456,-10.2 -42.6667,-10.2 -17.4228,0 -27.5086,2.3872 -42.0982,9.9642 -17.6188,9.1502 -30.6161,22.1485 -39.7573,39.7604 -9.1965,17.7184 -9.7135,21.0585 -10.6449,68.7648 -0.8158,41.7897 -0.9003,42.8037 -4.1092,49.3334 -4.7364,9.6375 -14.0371,18.386 -23.1859,21.8089 -6.6131,2.4743 -10.3592,2.8499 -27.9212,2.7992 -13.0653,-0.038 -21.9998,-0.6719 -25.1069,-1.7822 z m 43.592,-263.6138 c 94.3779,-9.4249 167.1388,-85.66959 172.1283,-180.36959 0.4301,-8.1634 0.1004,-21.0522 -0.7328,-28.6417 -9.2633,-84.3886 -70.6183,-150.9966 -154.561,-167.7938 -17.7995,-3.5618 -55.2334,-3.22 -73.1874,0.6681 -38.0649,8.2434 -69.6261,25.3304 -96.4297,52.2063 -70.5557,70.7459 -75.2146,181.2008 -10.8564,257.38529 26.8266,31.7562 62.2591,53.306 102.8706,62.5651 22.2563,5.0743 38.8986,6.1644 60.7684,3.9803 z m -37.291,-117.82829 c -27.2124,-7.8047 -47.742,-29.8381 -53.4671,-57.3838 -5.1643,-24.8478 2.771,-49.5842 21.6789,-67.5786 14.9364,-14.2147 29.6683,-20.1316 50.3108,-20.2066 20.2407,-0.074 36.4043,6.1547 50.8785,19.6046 15.2382,14.1599 23.0515,32.0701 23.0545,52.8473 0,14.9781 -1.3684,21.7056 -6.6966,32.8696 -8.1329,17.041 -24.2932,31.6704 -41.9031,37.9336 -10.2812,3.6566 -34.148,4.6982 -43.8559,1.9139 z"
       id="path817"
       inkscape:connector-curvature="0" />
    <rect
       ry="2.4503918"
       rx="2.4503918"
       y="1020.6475"
       x="2.1679511"
       height="31.549271"
       width="27.783443"
       id="rect859"
       style="opacity:1;fill:#6f8a91;fill-opacity:1;stroke:none;stroke-width:0.23912337;stroke-linecap:round;stroke-linejoin:round;stroke-miterlimit:4;stroke-dasharray:none;stroke-opacity:1;paint-order:stroke fill markers" />
    <rect
       style="opacity:1;fill:#414141;fill-opacity:1;stroke:none;stroke-width:0.15264033;stroke-linecap:round;stroke-linejoin:round;stroke-miterlimit:4;stroke-dasharray:none;stroke-opacity:1;paint-order:stroke fill markers"
       id="rect837"
       width="17.735085"
       height="20.138937"
       x="7.1921277"
       y="1026.3527"
       rx="1.5641656"
       ry="1.5641656" />
    <circle
       r="2.2084355"
       cy="1043.106"
       cx="22.514061"
       id="circle839"
       style="opacity:1;fill:#333333;fill-opacity:1;stroke:none;stroke-width:0.2313161;stroke-linejoin:round;stroke-miterlimit:4;stroke-dasharray:none;stroke-opacity:1;paint-order:stroke fill markers" />
    <path
       inkscape:connector-curvature="0"
       style="opacity:1;fill:#e6e6e6;fill-opacity:1;stroke:none;stroke-width:0.22280613;stroke-linejoin:round;stroke-miterlimit:4;stroke-dasharray:none;stroke-opacity:1;paint-order:stroke fill markers"
       d="m 8.6064852,1026.8917 c -0.5802063,0 -1.0867732,0.2885 -1.3842665,0.726 -0.018656,0.097 -0.030094,0.1972 -0.030094,0.2996 v 2.677 c 0.478286,-0.226 1.0095861,-0.3598 1.5765978,-0.3598 2.0160015,0 3.6503765,1.5974 3.6503765,3.568 0,1.9705 -1.634375,3.5679 -3.6503765,3.5679 -0.5670117,0 -1.0983118,-0.135 -1.5765978,-0.361 v 4.3882 l 0.4814843,1.324 h 2.1902271 l 0.7300749,-2.0082 c 0.668736,-0.1691 1.299645,-0.4311 1.88014,-0.7668 l 0.0026,0.011 1.97042,0.9159 1.549122,-1.5138 -0.938109,-1.9246 -0.0026,-0.011 c 0.343447,-0.5673 0.609468,-1.1832 0.78241,-1.837 l 2.056774,-0.7143 v -2.1405 l -2.056774,-0.713 c -0.1729,-0.6537 -0.438958,-1.2709 -0.78241,-1.8383 l 0.0026,-0.011 0.938109,-1.9259 -1.392116,-1.3594 H 14.11605 l -1.639399,0.7628 -0.0026,0.011 c -0.580469,-0.3357 -1.211448,-0.5978 -1.880141,-0.7666 z"
       id="path843" />
    <path
       inkscape:connector-curvature="0"
       style="opacity:1;fill:#b3b3b3;fill-opacity:1;stroke:none;stroke-width:0.22010325;stroke-linejoin:round;stroke-miterlimit:4;stroke-dasharray:none;stroke-opacity:1;paint-order:stroke fill markers"
       d="m 21.23758,1033.949 -0.713067,2.007 c -0.653135,0.1688 -1.270015,0.4299 -1.836965,0.7654 l -0.0026,-0.011 -1.923318,-0.9145 -1.513796,1.5112 0.915866,1.9246 0.0039,0.011 c -0.335521,0.567 -0.596625,1.1826 -0.765402,1.8356 l -2.007055,0.713 v 2.1393 l 2.007055,0.7131 c 0.168738,0.653 0.429925,1.27 0.765402,1.837 h -0.0039 l -0.0039,0.011 h 7.20394 c 0.724061,0 1.323576,-0.4897 1.503328,-1.1554 -0.648168,0.6701 -1.553279,1.09 -2.559191,1.09 -1.968968,0 -3.565335,-1.5965 -3.565335,-3.5654 0,-1.9689 1.596367,-3.564 3.565335,-3.564 1.040072,0 1.967679,0.4527 2.619377,1.1631 v -4.226 c -0.271903,-0.1085 -0.550222,-0.2032 -0.837364,-0.2774 l -0.713066,-2.0071 z"
       id="path848" />
    <circle
       r="2.2084355"
       cy="1042.8005"
       cx="22.279123"
       id="circle850"
       style="opacity:1;fill:#e6e6e6;fill-opacity:1;stroke:none;stroke-width:0.2313161;stroke-linejoin:round;stroke-miterlimit:4;stroke-dasharray:none;stroke-opacity:1;paint-order:stroke fill markers" />
    <path
       style="opacity:1;fill:#e6e6e6;fill-opacity:1;stroke:none;stroke-width:0.15264033;stroke-linecap:round;stroke-linejoin:round;stroke-miterlimit:4;stroke-dasharray:none;stroke-opacity:1;paint-order:stroke fill markers"
       d="m 8.5907837,1031.5193 a 2.2170068,2.2170068 0 0 0 -1.3986572,0.4999 v 3.4318 a 2.2170068,2.2170068 0 0 0 1.3986572,0.5012 2.2170068,2.2170068 0 0 0 2.2163943,-2.2164 2.2170068,2.2170068 0 0 0 -2.2163943,-2.2165 z"
       id="rect858"
       inkscape:connector-curvature="0" />
    <path
       inkscape:connector-curvature="0"
       style="opacity:0.28699999;fill:#000000;fill-opacity:1;stroke:none;stroke-width:0.15264033;stroke-linecap:round;stroke-linejoin:round;stroke-miterlimit:4;stroke-dasharray:none;stroke-opacity:1;paint-order:stroke fill markers"
       d="m 7.1921265,1043.5878 v 1.3398 c 0,0.8666 0.6969665,1.5636 1.563514,1.5636 H 23.363697 c 0.866548,0 1.563514,-0.697 1.563514,-1.5636 v -1.3398 c 0,0.8666 -0.696966,1.5635 -1.563514,1.5635 H 8.7556405 c -0.8665475,0 -1.563514,-0.6969 -1.563514,-1.5635 z"
       id="rect870" />
    <path
       id="path875"
       d="m 7.1921265,1029.2415 v -1.3398 c 0,-0.8666 0.6969665,-1.5635 1.563514,-1.5635 H 23.363697 c 0.866548,0 1.563514,0.6969 1.563514,1.5635 v 1.3398 c 0,-0.8666 -0.696966,-1.5636 -1.563514,-1.5636 H 8.7556405 c -0.8665475,0 -1.563514,0.697 -1.563514,1.5636 z"
       style="opacity:0.28699999;fill:#000000;fill-opacity:1;stroke:none;stroke-width:0.15264033;stroke-linecap:round;stroke-linejoin:round;stroke-miterlimit:4;stroke-dasharray:none;stroke-opacity:1;paint-order:stroke fill markers"
       inkscape:connector-curvature="0" />
  </g>
</svg>
