<?xml version="1.0" encoding="UTF-8" standalone="no"?>
<!-- Created with Inkscape (http://www.inkscape.org/) -->

<svg
   xmlns:dc="http://purl.org/dc/elements/1.1/"
   xmlns:cc="http://creativecommons.org/ns#"
   xmlns:rdf="http://www.w3.org/1999/02/22-rdf-syntax-ns#"
   xmlns:svg="http://www.w3.org/2000/svg"
   xmlns="http://www.w3.org/2000/svg"
   xmlns:sodipodi="http://sodipodi.sourceforge.net/DTD/sodipodi-0.dtd"
   xmlns:inkscape="http://www.inkscape.org/namespaces/inkscape"
   width="32"
   height="32"
   id="svg3330"
   version="1.1"
   inkscape:version="0.92.2 2405546, 2018-03-11"
   sodipodi:docname="applications-office.svg">
  <defs
     id="defs3332">
    <linearGradient
       gradientUnits="userSpaceOnUse"
       id="linearGradient1022-8-8-3-0-06-59-7-8-0-2"
       x2="0"
       y1="3.0069399"
       y2="11.02436">
      <stop
         offset="0"
         id="stop3001-0-9-4-9-02-6-2-81-9" />
      <stop
         offset="1"
         stop-color="#363636"
         id="stop3003-5-6-6-5-70-7-1-4-9" />
    </linearGradient>
  </defs>
  <sodipodi:namedview
     id="base"
     pagecolor="#ffffff"
     bordercolor="#666666"
     borderopacity="1.0"
     inkscape:pageopacity="0.0"
     inkscape:pageshadow="2"
     inkscape:zoom="9.3108434"
     inkscape:cx="18.328804"
     inkscape:cy="15.535714"
     inkscape:document-units="px"
     inkscape:current-layer="capa1"
     showgrid="true"
     inkscape:showpageshadow="false"
     inkscape:window-width="1920"
     inkscape:window-height="1013"
     inkscape:window-x="0"
     inkscape:window-y="0"
     inkscape:window-maximized="1"
     inkscape:snap-to-guides="false"
     inkscape:snap-grids="true"
     showguides="true"
     inkscape:guide-bbox="true"
     inkscape:snap-global="false">
    <inkscape:grid
       type="xygrid"
       id="grid2990"
       empspacing="5"
       visible="true"
       enabled="true"
       snapvisiblegridlinesonly="true" />
  </sodipodi:namedview>
  <metadata
     id="metadata3335">
    <rdf:RDF>
      <cc:Work
         rdf:about="">
        <dc:format>image/svg+xml</dc:format>
        <dc:type
           rdf:resource="http://purl.org/dc/dcmitype/StillImage" />
        <dc:title />
      </cc:Work>
    </rdf:RDF>
  </metadata>
  <g
     inkscape:label="Capa 1"
     inkscape:groupmode="layer"
     id="capa1"
     transform="translate(0,-1020.3622)">
    <rect
       ry="2.4690471"
       rx="2.4690471"
       y="1020.4695"
       x="1.9314566"
       height="31.789465"
       width="27.994965"
       id="rect859"
       style="opacity:1;fill:#6c5d53;fill-opacity:1;stroke:none;stroke-width:0.24094389;stroke-linecap:round;stroke-linejoin:round;stroke-miterlimit:4;stroke-dasharray:none;stroke-opacity:1;paint-order:stroke fill markers" />
    <path
       sodipodi:nodetypes="cccccccccscccccccccccccscccccc"
       style="fill:#000000;stroke-width:0.1365179;opacity:0.327"
       id="path818"
       d="m 6.3257435,1046.342 4.8487065,-7.8125 c 0.407232,0.537 0.863202,1.0685 1.379103,1.5844 0.510167,0.5106 1.041359,0.9712 1.581969,1.3813 z m 19.1889555,-12.767 c -0.515901,0.5161 -1.390435,0.5668 -2.362033,0.2362 l -2.597526,2.5966 c 1.305521,2.121 1.616372,4.1863 0.597266,5.2064 -0.412557,0.4125 -0.996308,0.6076 -1.685723,0.6076 -1.269343,0 -2.897046,-0.6643 -4.472599,-1.8546 -0.03509,-0.026 -0.06976,-0.054 -0.104436,-0.081 -0.112218,-0.086 -0.224163,-0.1755 -0.335698,-0.2677 -0.04423,-0.036 -0.08819,-0.072 -0.132422,-0.1101 -0.106211,-0.09 -0.211739,-0.1827 -0.316858,-0.2773 -0.04137,-0.037 -0.08314,-0.073 -0.124641,-0.1115 -0.143071,-0.1318 -0.28505,-0.2666 -0.425253,-0.4069 -0.159999,-0.1599 -0.313309,-0.3222 -0.461704,-0.4857 -0.09201,-0.1013 -0.178429,-0.2035 -0.26621,-0.3059 -0.04778,-0.056 -0.09734,-0.1116 -0.144163,-0.1682 -0.113719,-0.1367 -0.221295,-0.274 -0.326823,-0.4117 -0.0131,-0.018 -0.02662,-0.035 -0.03932,-0.051 -1.847223,-2.4371 -2.4377994,-5.0002 -1.262927,-6.1749 0.412558,-0.4126 0.996308,-0.6077 1.685723,-0.6077 1.015148,0 2.258552,0.4253 3.521889,1.2031 l 2.595752,-2.5953 c -0.330647,-0.9719 -0.279726,-1.8461 0.236858,-2.362 0.966956,-0.9677 3.189058,-0.3144 4.96188,1.4588 1.77364,1.7733 2.426878,3.9953 1.458966,4.9634 z"
       inkscape:connector-curvature="0" />
    <path
       inkscape:connector-curvature="0"
       d="m 6.3257435,1045.805 4.8487065,-7.8125 c 0.407232,0.537 0.863202,1.0685 1.379103,1.5844 0.510167,0.5106 1.041359,0.9712 1.581969,1.3813 z m 19.1889555,-12.767 c -0.515901,0.5161 -1.390435,0.5668 -2.362033,0.2362 l -2.597526,2.5966 c 1.305521,2.121 1.616372,4.1863 0.597266,5.2064 -0.412557,0.4125 -0.996308,0.6076 -1.685723,0.6076 -1.269343,0 -2.897046,-0.6643 -4.472599,-1.8546 -0.03509,-0.026 -0.06976,-0.054 -0.104436,-0.081 -0.112218,-0.086 -0.224163,-0.1755 -0.335698,-0.2677 -0.04423,-0.036 -0.08819,-0.072 -0.132422,-0.1101 -0.106211,-0.09 -0.211739,-0.1827 -0.316858,-0.2773 -0.04137,-0.037 -0.08314,-0.073 -0.124641,-0.1115 -0.143071,-0.1318 -0.28505,-0.2666 -0.425253,-0.4069 -0.159999,-0.1599 -0.313309,-0.3222 -0.461704,-0.4857 -0.09201,-0.1013 -0.178429,-0.2035 -0.26621,-0.3059 -0.04778,-0.056 -0.09734,-0.1116 -0.144163,-0.1682 -0.113719,-0.1367 -0.221295,-0.274 -0.326823,-0.4117 -0.0131,-0.018 -0.02662,-0.035 -0.03932,-0.051 -1.847223,-2.4371 -2.4377994,-5.0002 -1.262927,-6.1749 0.412558,-0.4126 0.996308,-0.6077 1.685723,-0.6077 1.015148,0 2.258552,0.4253 3.521889,1.2031 l 2.595752,-2.5953 c -0.330647,-0.9719 -0.279726,-1.8461 0.236858,-2.362 0.966956,-0.9677 3.189058,-0.3144 4.96188,1.4588 1.77364,1.7733 2.426878,3.9953 1.458966,4.9634 z"
       id="path2-3"
       style="fill:#ffffff;stroke-width:0.1365179"
       sodipodi:nodetypes="cccccccccscccccccccccccscccccc" />
  </g>
</svg>
