<?xml version="1.0" encoding="UTF-8" standalone="no"?>
<!-- Created with Inkscape (http://www.inkscape.org/) -->

<svg
   xmlns:dc="http://purl.org/dc/elements/1.1/"
   xmlns:cc="http://creativecommons.org/ns#"
   xmlns:rdf="http://www.w3.org/1999/02/22-rdf-syntax-ns#"
   xmlns:svg="http://www.w3.org/2000/svg"
   xmlns="http://www.w3.org/2000/svg"
   xmlns:sodipodi="http://sodipodi.sourceforge.net/DTD/sodipodi-0.dtd"
   xmlns:inkscape="http://www.inkscape.org/namespaces/inkscape"
   width="32"
   height="32"
   id="svg3330"
   version="1.1"
   inkscape:version="0.92.2 2405546, 2018-03-11"
   sodipodi:docname="cs-screen (copy 1).svg">
  <defs
     id="defs3332">
    <linearGradient
       gradientUnits="userSpaceOnUse"
       id="linearGradient1022-8-8-3-0-06-59-7-8-0-2"
       x2="0"
       y1="3.0069399"
       y2="11.02436">
      <stop
         offset="0"
         id="stop3001-0-9-4-9-02-6-2-81-9" />
      <stop
         offset="1"
         stop-color="#363636"
         id="stop3003-5-6-6-5-70-7-1-4-9" />
    </linearGradient>
    <linearGradient
       id="linearGradient3332-412-419-652-471-3">
      <stop
         id="stop2759-6"
         style="stop-color:#30b4e2;stop-opacity:1"
         offset="0" />
      <stop
         id="stop2761-7"
         style="stop-color:#bc27ad;stop-opacity:1"
         offset="1" />
    </linearGradient>
  </defs>
  <sodipodi:namedview
     id="base"
     pagecolor="#ffffff"
     bordercolor="#666666"
     borderopacity="1.0"
     inkscape:pageopacity="0.0"
     inkscape:pageshadow="2"
     inkscape:zoom="11.313708"
     inkscape:cx="23.286914"
     inkscape:cy="17.995898"
     inkscape:document-units="px"
     inkscape:current-layer="capa1"
     showgrid="true"
     inkscape:showpageshadow="false"
     inkscape:window-width="1920"
     inkscape:window-height="1019"
     inkscape:window-x="0"
     inkscape:window-y="5"
     inkscape:window-maximized="1"
     inkscape:snap-to-guides="false"
     inkscape:snap-grids="true"
     showguides="true"
     inkscape:guide-bbox="true"
     inkscape:snap-global="false">
    <inkscape:grid
       type="xygrid"
       id="grid2990"
       empspacing="5"
       visible="true"
       enabled="true"
       snapvisiblegridlinesonly="true" />
  </sodipodi:namedview>
  <metadata
     id="metadata3335">
    <rdf:RDF>
      <cc:Work
         rdf:about="">
        <dc:format>image/svg+xml</dc:format>
        <dc:type
           rdf:resource="http://purl.org/dc/dcmitype/StillImage" />
        <dc:title />
      </cc:Work>
    </rdf:RDF>
  </metadata>
  <g
     inkscape:label="Capa 1"
     inkscape:groupmode="layer"
     id="capa1"
     transform="translate(0,-1020.3622)">
    <path
       inkscape:connector-curvature="0"
       style="opacity:0.2;fill:#000000;fill-opacity:1;stroke:none;stroke-width:0.18364951;stroke-linejoin:round;stroke-miterlimit:4;stroke-dasharray:none;stroke-opacity:1;paint-order:stroke fill markers"
       d="m 12.366507,1042.8192 c -0.575163,0 -1.037981,0.4629 -1.037981,1.038 v 1.4939 h -0.225368 c -0.532049,0 -0.960712,0.4274 -0.960712,0.9594 v 1.4514 c 0,0.532 0.428663,0.9607 0.960712,0.9607 h 9.474475 c 0.532049,0 0.960713,-0.4287 0.960713,-0.9607 v -1.4514 c 0,-0.532 -0.428664,-0.9594 -0.960713,-0.9594 h -0.22408 v -1.4939 c 0,-0.5751 -0.462817,-1.038 -1.037981,-1.038 z"
       id="rect847-8" />
    <path
       inkscape:connector-curvature="0"
       style="opacity:1;fill:#333333;fill-opacity:1;stroke:none;stroke-width:0.18364951;stroke-linejoin:round;stroke-miterlimit:4;stroke-dasharray:none;stroke-opacity:1;paint-order:stroke fill markers"
       d="m 12.366507,1042.3555 c -0.575163,0 -1.037981,0.4628 -1.037981,1.0379 v 1.4939 h -0.225368 c -0.532049,0 -0.960712,0.4274 -0.960712,0.9594 v 1.4514 c 0,0.5321 0.428663,0.9607 0.960712,0.9607 h 9.474475 c 0.532049,0 0.960713,-0.4286 0.960713,-0.9607 v -1.4514 c 0,-0.532 -0.428664,-0.9594 -0.960713,-0.9594 h -0.22408 v -1.4939 c 0,-0.5751 -0.462817,-1.0379 -1.037981,-1.0379 z"
       id="rect847" />
    <rect
       style="opacity:0.2;fill:#000000;fill-opacity:1;stroke-width:0.31859955"
       x="0.86946267"
       y="1024.4427"
       width="30.252001"
       height="20.006859"
       id="rect276-5-1"
       rx="1.4464664"
       ry="1.4778929" />
    <rect
       style="fill:#333333;fill-opacity:1;stroke-width:0.31859955"
       x="0.86946267"
       y="1023.9362"
       width="30.252001"
       height="20.006859"
       id="rect276-5"
       rx="1.4464664"
       ry="1.4778929" />
    <rect
       style="fill:#5be810;stroke-width:0.20669955"
       x="27.307114"
       y="1042.6648"
       width="1.3931549"
       height="0.63043374"
       id="rect280-5"
       rx="0.31521687"
       ry="0.31521687" />
    <rect
       style="fill:#666666;fill-opacity:1;stroke-width:0.28819788"
       x="1.7093966"
       y="1024.7389"
       width="28.437317"
       height="17.415483"
       id="rect276-5-7"
       rx="1.3596995"
       ry="1.2864697" />
    <path
       inkscape:connector-curvature="0"
       style="opacity:0.41400003;fill:#000000;stroke-width:0.76977134"
       d="m 16.252381,1028.1333 c -1.705814,0 -3.079086,1.4022 -3.079086,3.1272 v 1.4918 h -0.769772 c -0.426452,0 -0.769771,0.3433 -0.769771,0.7698 v 4.6186 c 0,0.4265 0.343319,0.7698 0.769771,0.7698 h 7.697714 c 0.426454,0 0.769772,-0.3433 0.769772,-0.7698 v -4.6186 c 0,-0.4265 -0.343318,-0.7698 -0.769772,-0.7698 h -0.769771 v -1.4914 c 0,-1.7243 -1.373272,-3.1268 -3.079085,-3.1268 z m 0,1.5395 c 0.852906,0 1.539543,0.6867 1.539543,1.5396 v 1.5395 h -3.079086 v -1.5395 c 0,-0.8529 0.686636,-1.5396 1.539543,-1.5396 z"
       id="path10-9-4" />
    <path
       inkscape:connector-curvature="0"
       style="fill:#e6e6e6;stroke-width:0.76977134"
       d="m 15.975614,1027.6905 c -1.705814,0 -3.079086,1.4022 -3.079086,3.1272 v 1.4918 h -0.769772 c -0.426453,0 -0.769771,0.3433 -0.769771,0.7698 v 4.6186 c 0,0.4264 0.343318,0.7698 0.769771,0.7698 h 7.697715 c 0.426452,0 0.76977,-0.3434 0.76977,-0.7698 v -4.6186 c 0,-0.4265 -0.343318,-0.7698 -0.76977,-0.7698 h -0.769772 v -1.4915 c 0,-1.7242 -1.373273,-3.1268 -3.079085,-3.1268 z m 0,1.5395 c 0.852906,0 1.539542,0.6866 1.539542,1.5396 v 1.5395 H 14.43607 v -1.5395 c 0,-0.853 0.686637,-1.5396 1.539544,-1.5396 z"
       id="path10-9" />
  </g>
</svg>
