<?xml version="1.0" encoding="UTF-8" standalone="no"?>
<!-- Created with Inkscape (http://www.inkscape.org/) -->

<svg
   xmlns:dc="http://purl.org/dc/elements/1.1/"
   xmlns:cc="http://creativecommons.org/ns#"
   xmlns:rdf="http://www.w3.org/1999/02/22-rdf-syntax-ns#"
   xmlns:svg="http://www.w3.org/2000/svg"
   xmlns="http://www.w3.org/2000/svg"
   xmlns:sodipodi="http://sodipodi.sourceforge.net/DTD/sodipodi-0.dtd"
   xmlns:inkscape="http://www.inkscape.org/namespaces/inkscape"
   width="32"
   height="32"
   id="svg3330"
   version="1.1"
   inkscape:version="0.92.2 2405546, 2018-03-11"
   sodipodi:docname="kfontview1.svg">
  <defs
     id="defs3332">
    <linearGradient
       gradientUnits="userSpaceOnUse"
       id="linearGradient1022-8-8-3-0-06-59-7-8-0-2"
       x2="0"
       y1="3.0069399"
       y2="11.02436">
      <stop
         offset="0"
         id="stop3001-0-9-4-9-02-6-2-81-9" />
      <stop
         offset="1"
         stop-color="#363636"
         id="stop3003-5-6-6-5-70-7-1-4-9" />
    </linearGradient>
    <linearGradient
       gradientUnits="userSpaceOnUse"
       id="linearGradient1022-8-8-3-0-06-59-7-8-0-2-3"
       x2="0"
       y1="3.0069399"
       y2="11.02436">
      <stop
         offset="0"
         id="stop3001-0-9-4-9-02-6-2-81-9-6" />
      <stop
         offset="1"
         stop-color="#363636"
         id="stop3003-5-6-6-5-70-7-1-4-9-7" />
    </linearGradient>
  </defs>
  <sodipodi:namedview
     id="base"
     pagecolor="#ffffff"
     bordercolor="#666666"
     borderopacity="1.0"
     inkscape:pageopacity="0.0"
     inkscape:pageshadow="2"
     inkscape:zoom="5.870364"
     inkscape:cx="-79.113716"
     inkscape:cy="-3.297672"
     inkscape:document-units="px"
     inkscape:current-layer="capa1"
     showgrid="true"
     inkscape:showpageshadow="false"
     inkscape:window-width="1920"
     inkscape:window-height="1019"
     inkscape:window-x="0"
     inkscape:window-y="5"
     inkscape:window-maximized="1"
     inkscape:snap-to-guides="false"
     inkscape:snap-grids="true"
     showguides="true"
     inkscape:guide-bbox="true"
     inkscape:snap-global="false">
    <inkscape:grid
       type="xygrid"
       id="grid2990"
       empspacing="5"
       visible="true"
       enabled="true"
       snapvisiblegridlinesonly="true" />
  </sodipodi:namedview>
  <metadata
     id="metadata3335">
    <rdf:RDF>
      <cc:Work
         rdf:about="">
        <dc:format>image/svg+xml</dc:format>
        <dc:type
           rdf:resource="http://purl.org/dc/dcmitype/StillImage" />
        <dc:title />
      </cc:Work>
    </rdf:RDF>
  </metadata>
  <g
     inkscape:label="Capa 1"
     inkscape:groupmode="layer"
     id="capa1"
     transform="translate(0,-1020.3622)">
    <rect
       ry="2.4690471"
       rx="2.4690471"
       y="1020.4695"
       x="1.9314566"
       height="31.789465"
       width="27.994965"
       id="rect859"
       style="opacity:1;fill:#00aad4;fill-opacity:1;stroke:none;stroke-width:0.24094389;stroke-linecap:round;stroke-linejoin:round;stroke-miterlimit:4;stroke-dasharray:none;stroke-opacity:1;paint-order:stroke fill markers" />
    <g
       transform="matrix(0.96231984,0,-0.05561498,0.96231984,-228.14241,888.27011)"
       id="g1449"
       style="font-style:normal;font-weight:normal;font-size:24.223032px;line-height:1.25;font-family:sans-serif;letter-spacing:0px;word-spacing:0px;display:inline;fill:#ccff00;fill-opacity:1;stroke:none;stroke-width:0.6055758"
       aria-label="A">
      <path
         inkscape:connector-curvature="0"
         id="path1447"
         transform="translate(239.39962,125.20797)"
         d="m 19.378906,18.980469 -6.742187,17.658203 h 2.519531 l 1.609375,-4.53125 h 1.574219 l 1.193359,-1.986328 h -2.046875 l 3.242188,-8.78711 1.55664,4.207032 1.410156,-2.34375 -1.607421,-4.216797 z"
         style="fill:#ccff00;stroke-width:0.6055758" />
    </g>
    <path
       inkscape:connector-curvature="0"
       style="font-style:italic;font-variant:normal;font-weight:normal;font-stretch:normal;font-size:46.60050201px;line-height:125%;font-family:'Nimbus Roman No9 L';text-align:start;writing-mode:lr-tb;text-anchor:start;display:inline;fill:#ffffff;fill-opacity:1;stroke:none;stroke-width:0.80474412"
       id="path1451"
       d="m 25.928365,1043.6283 c -0.864021,0.047 -1.837255,-0.3068 -1.879745,-1.3064 -0.530914,-2.8591 -0.963987,-5.7364 -1.454431,-8.603 -0.406017,-2.4448 -0.812035,-4.8894 -1.218052,-7.3342 -0.342885,-0.063 -0.598433,0.028 -0.706292,0.3784 -2.829174,4.7279 -5.625564,9.4758 -8.477376,14.1899 -0.693987,0.9877 -1.319765,2.2725 -2.5866648,2.5943 -0.470888,-0.1634 -0.482943,0.6251 -0.281331,0.725 1.7143388,0 3.4286688,0 5.1429988,0 0.09441,-0.5188 -0.04708,-0.8248 -0.65292,-0.7029 -1.176553,0.1866 -1.052445,-1.1949 -0.609884,-1.8754 0.536024,-1.074 1.166758,-2.0983 1.744798,-3.1503 1.963713,0 3.927417,0 5.891122,0 0.191649,1.2941 0.49437,2.5755 0.589112,3.8809 0.243653,1.0663 -0.951618,1.1646 -1.69912,1.189 -0.220009,-0.046 -0.293868,0.7856 0.03967,0.6587 2.052709,0 4.105403,0 6.158112,0 0,-0.2147 0,-0.4293 -1e-6,-0.644 z m -10.41656,-6.3718 c 1.338893,-2.3207 2.677778,-4.6415 4.016671,-6.9622 0.39274,2.3207 0.785479,4.6415 1.178226,6.9622 -1.731632,0 -3.463264,0 -5.194897,0 z" />
    <g
       transform="matrix(0.96231984,0,-0.05561498,0.96231984,-228.14241,888.79415)"
       id="g1455"
       style="font-style:normal;font-weight:normal;font-size:24.223032px;line-height:1.25;font-family:sans-serif;letter-spacing:0px;word-spacing:0px;display:inline;opacity:0.206;fill:#000000;fill-opacity:1;stroke:none;stroke-width:0.6055758"
       aria-label="A">
      <path
         inkscape:connector-curvature="0"
         id="path1453"
         transform="translate(239.39962,125.20797)"
         d="m 19.378906,18.980469 -6.742187,17.658203 h 2.519531 l 1.609375,-4.53125 h 1.574219 l 1.193359,-1.986328 h -2.046875 l 3.242188,-8.78711 1.55664,4.207032 1.410156,-2.34375 -1.607421,-4.216797 z"
         style="fill:#000000;stroke-width:0.6055758" />
    </g>
    <path
       id="path1457"
       d="m 19.528169,1030.2946 c -1.338894,2.3207 -2.677023,4.6414 -4.015916,6.9622 h 0.302101 c 1.238115,-2.1461 2.475699,-4.292 3.713815,-6.438 0.363174,2.146 0.726732,4.292 1.089912,6.438 h 0.0886 c -0.392747,-2.3208 -0.785775,-4.6415 -1.178514,-6.9622 z m -4.578486,8.2496 c -0.57804,1.052 -1.20933,2.0761 -1.745354,3.1502 -0.231436,0.3558 -0.369297,0.8993 -0.286089,1.3141 0.04463,-0.2856 0.14516,-0.5733 0.286089,-0.79 0.536024,-1.074 1.167314,-2.0993 1.745354,-3.1513 h 5.890437 c 0.190654,1.2875 0.490731,2.5628 0.587123,3.8612 0.04305,-0.1378 0.04782,-0.304 0.0021,-0.5039 -0.09474,-1.3054 -0.397607,-2.5862 -0.589257,-3.8803 z m -5.6918828,5.6577 c -0.101683,0.1997 -0.06012,0.532 0.06618,0.5946 h 5.1431908 c 0.03992,-0.2193 0.03393,-0.3971 -0.02775,-0.5241 H 9.3239862 c -0.02613,-0.013 -0.04777,-0.038 -0.06618,-0.071 z m 10.3472278,0.027 c -0.105342,0.2021 -0.09015,0.6652 0.165462,0.5679 h 6.158379 v -0.5241 H 19.77049 c -0.07573,0.029 -0.128677,0.01 -0.165462,-0.044 z"
       style="font-style:italic;font-variant:normal;font-weight:normal;font-stretch:normal;font-size:46.60050201px;line-height:125%;font-family:'Nimbus Roman No9 L';text-align:start;writing-mode:lr-tb;text-anchor:start;display:inline;opacity:0.206;fill:#000000;fill-opacity:1;stroke:none;stroke-width:0.80474412"
       inkscape:connector-curvature="0" />
    <g
       transform="matrix(0.96231984,0,-0.05561498,0.96231984,-228.14241,888.27011)"
       id="g1461"
       style="font-style:normal;font-weight:normal;font-size:24.223032px;line-height:1.25;font-family:sans-serif;letter-spacing:0px;word-spacing:0px;display:inline;fill:#ccff00;fill-opacity:1;stroke:none;stroke-width:0.6055758"
       aria-label="A">
      <path
         inkscape:connector-curvature="0"
         id="path1459"
         transform="translate(239.39962,125.20797)"
         d="m 19.378906,18.980469 -6.742187,17.658203 h 2.519531 l 1.609375,-4.53125 h 1.574219 l 1.193359,-1.986328 h -2.046875 l 3.242188,-8.78711 1.55664,4.207032 1.410156,-2.34375 -1.607421,-4.216797 z"
         style="fill:#ccff00;stroke-width:0.6055758" />
    </g>
  </g>
</svg>
