<?xml version="1.0" encoding="UTF-8" standalone="no"?>
<!-- Created with Inkscape (http://www.inkscape.org/) -->

<svg
   xmlns:dc="http://purl.org/dc/elements/1.1/"
   xmlns:cc="http://creativecommons.org/ns#"
   xmlns:rdf="http://www.w3.org/1999/02/22-rdf-syntax-ns#"
   xmlns:svg="http://www.w3.org/2000/svg"
   xmlns="http://www.w3.org/2000/svg"
   xmlns:sodipodi="http://sodipodi.sourceforge.net/DTD/sodipodi-0.dtd"
   xmlns:inkscape="http://www.inkscape.org/namespaces/inkscape"
   width="32"
   height="32"
   id="svg3330"
   version="1.1"
   inkscape:version="0.92.2 2405546, 2018-03-11"
   sodipodi:docname="preferences-desktop-theme.svg">
  <defs
     id="defs3332">
    <linearGradient
       gradientUnits="userSpaceOnUse"
       id="linearGradient1022-8-8-3-0-06-59-7-8-0-2"
       x2="0"
       y1="3.0069399"
       y2="11.02436">
      <stop
         offset="0"
         id="stop3001-0-9-4-9-02-6-2-81-9" />
      <stop
         offset="1"
         stop-color="#363636"
         id="stop3003-5-6-6-5-70-7-1-4-9" />
    </linearGradient>
  </defs>
  <sodipodi:namedview
     id="base"
     pagecolor="#ffffff"
     bordercolor="#666666"
     borderopacity="1.0"
     inkscape:pageopacity="0.0"
     inkscape:pageshadow="2"
     inkscape:zoom="14.46288"
     inkscape:cx="-2.8813927"
     inkscape:cy="19.643282"
     inkscape:document-units="px"
     inkscape:current-layer="capa1"
     showgrid="true"
     inkscape:showpageshadow="false"
     inkscape:window-width="1920"
     inkscape:window-height="1019"
     inkscape:window-x="0"
     inkscape:window-y="5"
     inkscape:window-maximized="1"
     inkscape:snap-to-guides="false"
     inkscape:snap-grids="true"
     showguides="true"
     inkscape:guide-bbox="true"
     inkscape:snap-global="false">
    <inkscape:grid
       type="xygrid"
       id="grid2990"
       empspacing="5"
       visible="true"
       enabled="true"
       snapvisiblegridlinesonly="true" />
    <sodipodi:guide
       position="81.75,47"
       orientation="0,1"
       id="guide949"
       inkscape:locked="false" />
  </sodipodi:namedview>
  <metadata
     id="metadata3335">
    <rdf:RDF>
      <cc:Work
         rdf:about="">
        <dc:format>image/svg+xml</dc:format>
        <dc:type
           rdf:resource="http://purl.org/dc/dcmitype/StillImage" />
        <dc:title />
      </cc:Work>
    </rdf:RDF>
  </metadata>
  <g
     inkscape:label="Capa 1"
     inkscape:groupmode="layer"
     id="capa1"
     transform="translate(0,-1020.3622)">
    <g
       transform="matrix(0.04881958,0,0,0.04881958,0.70688756,1027.9057)"
       id="surface1" />
    <rect
       ry="2.4319968"
       rx="2.4319968"
       y="1020.6589"
       x="2.2116838"
       height="31.312433"
       width="27.574875"
       id="rect859"
       style="opacity:1;fill:#deb84c;fill-opacity:1;stroke:none;stroke-width:0.23732831;stroke-linecap:round;stroke-linejoin:round;stroke-miterlimit:4;stroke-dasharray:none;stroke-opacity:1;paint-order:stroke fill markers" />
    <path
       inkscape:connector-curvature="0"
       style="opacity:0.68699999;fill:#00aad4;fill-opacity:1;stroke:none;stroke-width:0.40561476;stroke-linecap:round;stroke-linejoin:round;stroke-miterlimit:4;stroke-dasharray:none;stroke-opacity:1;paint-order:stroke fill markers"
       d="m 2.2116831,1045.6216 v 3.9177 c 0,1.3474 1.0848729,2.4323 2.4321992,2.4323 H 27.354354 c 1.347325,0 2.432199,-1.0849 2.432199,-2.4323 v -3.9177 z"
       id="rect1009" />
    <path
       inkscape:connector-curvature="0"
       style="opacity:0.68699999;fill:#88aa00;fill-opacity:1;stroke:none;stroke-width:0.37941787;stroke-linecap:round;stroke-linejoin:round;stroke-miterlimit:4;stroke-dasharray:none;stroke-opacity:1;paint-order:stroke fill markers"
       d="m 2.2116831,1037.4926 v 8.129 H 29.786553 v -8.129 z"
       id="rect1006" />
    <path
       inkscape:connector-curvature="0"
       style="opacity:0.68699999;fill:#ff5555;fill-opacity:1;stroke:none;stroke-width:0.47228774;stroke-linecap:round;stroke-linejoin:round;stroke-miterlimit:4;stroke-dasharray:none;stroke-opacity:1;paint-order:stroke fill markers"
       d="m 4.6438823,1020.6594 c -1.3473263,0 -2.4321992,1.085 -2.4321992,2.4323 v 5.8265 H 29.786553 v -5.8265 c 0,-1.3473 -1.084874,-2.4323 -2.432199,-2.4323 z"
       id="rect1000" />
    <path
       inkscape:connector-curvature="0"
       style="opacity:0.68699999;fill:#f5cb35;fill-opacity:1;stroke:none;stroke-width:0.38970208;stroke-linecap:round;stroke-linejoin:round;stroke-miterlimit:4;stroke-dasharray:none;stroke-opacity:1;paint-order:stroke fill markers"
       d="m 2.2116831,1028.9182 v 8.5744 H 29.786553 v -8.5744 z"
       id="rect1004" />
    <path
       sodipodi:nodetypes="sssssscccccccssssssccccccsss"
       style="opacity:0.26000001;fill:#000000;fill-opacity:1;stroke:none;stroke-width:0.59023935;stroke-linecap:round;stroke-linejoin:round;stroke-miterlimit:4;stroke-dasharray:none;stroke-opacity:0.42028988"
       d="m 6.1064821,1028.5105 c -0.2892307,0 -0.5223426,0.273 -0.5223426,0.6122 v 3.9164 c 0,0.3393 0.2331119,0.6122 0.5223426,0.6122 H 23.164103 c 0.28923,0 0.522342,-0.2729 0.522342,-0.6122 v -1.2196 h 2.574199 v 5.2025 H 16.020841 14.544447 v 1.4763 3.5007 c -0.393869,0 -0.710767,0.3414 -0.710767,0.7655 v 6.5623 c 0,0.4242 0.316898,0.7657 0.710767,0.7657 h 1.476394 c 0.393868,0 0.710767,-0.3415 0.710767,-0.7657 v -6.5623 c 0,-0.4241 -0.316899,-0.7655 -0.710767,-0.7655 v -3.5007 h 11.716196 v -1.4763 -6.6797 h -4.050592 v -1.2196 c 0,-0.3392 -0.233112,-0.6122 -0.522342,-0.6122 z"
       id="path991"
       inkscape:connector-curvature="0" />
    <path
       inkscape:connector-curvature="0"
       id="path990"
       d="m 6.1064821,1027.5279 c -0.2892307,0 -0.5223426,0.273 -0.5223426,0.6123 v 3.9163 c 0,0.3393 0.2331119,0.6123 0.5223426,0.6123 H 23.164103 c 0.28923,0 0.522342,-0.273 0.522342,-0.6123 v -1.2195 h 2.574199 v 5.2024 H 16.020841 14.544447 v 1.4764 3.5006 c -0.393869,0 -0.710767,0.3415 -0.710767,0.7656 v 6.5622 c 0,0.4242 0.316898,0.7657 0.710767,0.7657 h 1.476394 c 0.393868,0 0.710767,-0.3415 0.710767,-0.7657 v -6.5622 c 0,-0.4241 -0.316899,-0.7656 -0.710767,-0.7656 v -3.5006 h 11.716196 v -1.4764 -6.6796 h -4.050592 v -1.2196 c 0,-0.3393 -0.233112,-0.6123 -0.522342,-0.6123 z"
       style="opacity:1;fill:#ffffff;fill-opacity:1;stroke:none;stroke-width:0.59023935;stroke-linecap:round;stroke-linejoin:round;stroke-miterlimit:4;stroke-dasharray:none;stroke-opacity:0.42028988"
       sodipodi:nodetypes="sssssscccccccssssssccccccsss" />
  </g>
</svg>
