<?xml version="1.0" encoding="UTF-8"?>
<svg xmlns="http://www.w3.org/2000/svg" xmlns:xlink="http://www.w3.org/1999/xlink" width="32px" height="32px" viewBox="0 0 32 32" version="1.1">
<g id="surface1">
<path style=" stroke:none;fill-rule:nonzero;fill:rgb(80.000001%,80.000001%,80.000001%);fill-opacity:1;" d="M 4.621094 0.257812 L 27.5 0.257812 C 28.855469 0.257812 29.953125 1.355469 29.953125 2.707031 L 29.953125 29.355469 C 29.953125 30.707031 28.855469 31.804688 27.5 31.804688 L 4.621094 31.804688 C 3.265625 31.804688 2.167969 30.707031 2.167969 29.355469 L 2.167969 2.707031 C 2.167969 1.355469 3.265625 0.257812 4.621094 0.257812 Z M 4.621094 0.257812 "/>
<path style=" stroke:none;fill-rule:nonzero;fill:rgb(40.000001%,40.000001%,40.000001%);fill-opacity:1;" d="M 8.5 9.253906 L 7.054688 9.253906 C 6.605469 9.253906 6.238281 9.621094 6.238281 10.070312 L 6.238281 10.699219 C 6.238281 11.148438 6.605469 11.515625 7.054688 11.515625 L 8.5 11.515625 Z M 8.5 9.253906 "/>
<path style=" stroke:none;fill-rule:nonzero;fill:rgb(40.000001%,40.000001%,40.000001%);fill-opacity:1;" d="M 8.5 12.816406 L 7.054688 12.816406 C 6.605469 12.816406 6.238281 13.183594 6.238281 13.632812 L 6.238281 14.261719 C 6.238281 14.710938 6.605469 15.078125 7.054688 15.078125 L 8.5 15.078125 Z M 8.5 12.816406 "/>
<path style=" stroke:none;fill-rule:nonzero;fill:rgb(40.000001%,40.000001%,40.000001%);fill-opacity:1;" d="M 8.5 16.378906 L 7.054688 16.378906 C 6.605469 16.378906 6.238281 16.746094 6.238281 17.195312 L 6.238281 17.824219 C 6.238281 18.273438 6.605469 18.640625 7.054688 18.640625 L 8.5 18.640625 Z M 8.5 16.378906 "/>
<path style=" stroke:none;fill-rule:nonzero;fill:rgb(40.000001%,40.000001%,40.000001%);fill-opacity:1;" d="M 8.5 19.941406 L 7.054688 19.941406 C 6.605469 19.941406 6.238281 20.308594 6.238281 20.757812 L 6.238281 21.386719 C 6.238281 21.835938 6.605469 22.203125 7.054688 22.203125 L 8.5 22.203125 Z M 8.5 19.941406 "/>
<path style=" stroke:none;fill-rule:nonzero;fill:rgb(40.000001%,40.000001%,40.000001%);fill-opacity:1;" d="M 9.660156 23.367188 L 9.660156 24.808594 C 9.660156 25.261719 10.027344 25.628906 10.476562 25.628906 L 11.105469 25.628906 C 11.558594 25.628906 11.921875 25.261719 11.921875 24.808594 L 11.921875 23.367188 Z M 9.660156 23.367188 "/>
<path style=" stroke:none;fill-rule:nonzero;fill:rgb(40.000001%,40.000001%,40.000001%);fill-opacity:1;" d="M 13.222656 23.367188 L 13.222656 24.808594 C 13.222656 25.261719 13.589844 25.628906 14.039062 25.628906 L 14.667969 25.628906 C 15.121094 25.628906 15.484375 25.261719 15.484375 24.808594 L 15.484375 23.367188 Z M 13.222656 23.367188 "/>
<path style=" stroke:none;fill-rule:nonzero;fill:rgb(40.000001%,40.000001%,40.000001%);fill-opacity:1;" d="M 16.785156 23.367188 L 16.785156 24.808594 C 16.785156 25.261719 17.152344 25.628906 17.601562 25.628906 L 18.230469 25.628906 C 18.679688 25.628906 19.046875 25.261719 19.046875 24.808594 L 19.046875 23.367188 Z M 16.785156 23.367188 "/>
<path style=" stroke:none;fill-rule:nonzero;fill:rgb(40.000001%,40.000001%,40.000001%);fill-opacity:1;" d="M 20.347656 23.367188 L 20.347656 24.808594 C 20.347656 25.261719 20.714844 25.628906 21.164062 25.628906 L 21.792969 25.628906 C 22.242188 25.628906 22.609375 25.261719 22.609375 24.808594 L 22.609375 23.367188 Z M 20.347656 23.367188 "/>
<path style=" stroke:none;fill-rule:nonzero;fill:rgb(40.000001%,40.000001%,40.000001%);fill-opacity:1;" d="M 25.21875 9.253906 L 23.773438 9.253906 L 23.773438 11.515625 L 25.21875 11.515625 C 25.667969 11.515625 26.035156 11.148438 26.035156 10.699219 L 26.035156 10.070312 C 26.035156 9.621094 25.667969 9.253906 25.21875 9.253906 Z M 25.21875 9.253906 "/>
<path style=" stroke:none;fill-rule:nonzero;fill:rgb(40.000001%,40.000001%,40.000001%);fill-opacity:1;" d="M 25.21875 12.816406 L 23.773438 12.816406 L 23.773438 15.078125 L 25.21875 15.078125 C 25.667969 15.078125 26.035156 14.710938 26.035156 14.261719 L 26.035156 13.632812 C 26.035156 13.183594 25.667969 12.816406 25.21875 12.816406 Z M 25.21875 12.816406 "/>
<path style=" stroke:none;fill-rule:nonzero;fill:rgb(40.000001%,40.000001%,40.000001%);fill-opacity:1;" d="M 25.21875 16.378906 L 23.773438 16.378906 L 23.773438 18.640625 L 25.21875 18.640625 C 25.667969 18.640625 26.035156 18.273438 26.035156 17.824219 L 26.035156 17.195312 C 26.035156 16.746094 25.667969 16.378906 25.21875 16.378906 Z M 25.21875 16.378906 "/>
<path style=" stroke:none;fill-rule:nonzero;fill:rgb(40.000001%,40.000001%,40.000001%);fill-opacity:1;" d="M 25.21875 19.941406 L 23.773438 19.941406 L 23.773438 22.203125 L 25.21875 22.203125 C 25.667969 22.203125 26.035156 21.835938 26.035156 21.386719 L 26.035156 20.757812 C 26.035156 20.308594 25.667969 19.941406 25.21875 19.941406 Z M 25.21875 19.941406 "/>
<path style=" stroke:none;fill-rule:nonzero;fill:rgb(40.000001%,40.000001%,40.000001%);fill-opacity:1;" d="M 11.921875 8.089844 L 11.921875 6.648438 C 11.921875 6.195312 11.558594 5.832031 11.105469 5.832031 L 10.476562 5.832031 C 10.027344 5.832031 9.660156 6.195312 9.660156 6.648438 L 9.660156 8.089844 Z M 11.921875 8.089844 "/>
<path style=" stroke:none;fill-rule:nonzero;fill:rgb(40.000001%,40.000001%,40.000001%);fill-opacity:1;" d="M 15.484375 8.089844 L 15.484375 6.648438 C 15.484375 6.195312 15.121094 5.832031 14.667969 5.832031 L 14.039062 5.832031 C 13.589844 5.832031 13.222656 6.195312 13.222656 6.648438 L 13.222656 8.089844 Z M 15.484375 8.089844 "/>
<path style=" stroke:none;fill-rule:nonzero;fill:rgb(40.000001%,40.000001%,40.000001%);fill-opacity:1;" d="M 19.046875 8.089844 L 19.046875 6.648438 C 19.046875 6.195312 18.679688 5.832031 18.230469 5.832031 L 17.601562 5.832031 C 17.152344 5.832031 16.785156 6.195312 16.785156 6.648438 L 16.785156 8.089844 Z M 19.046875 8.089844 "/>
<path style=" stroke:none;fill-rule:nonzero;fill:rgb(40.000001%,40.000001%,40.000001%);fill-opacity:1;" d="M 22.609375 8.089844 L 22.609375 6.648438 C 22.609375 6.195312 22.242188 5.832031 21.792969 5.832031 L 21.164062 5.832031 C 20.714844 5.832031 20.347656 6.195312 20.347656 6.648438 L 20.347656 8.089844 Z M 22.609375 8.089844 "/>
<path style=" stroke:none;fill-rule:nonzero;fill:rgb(20%,20%,20%);fill-opacity:1;" d="M 22.988281 23.480469 L 9.285156 23.480469 C 8.785156 23.480469 8.382812 23.078125 8.382812 22.582031 L 8.382812 8.875 C 8.382812 8.378906 8.785156 7.976562 9.285156 7.976562 L 22.988281 7.976562 C 23.484375 7.976562 23.886719 8.378906 23.886719 8.875 L 23.886719 22.582031 C 23.886719 23.078125 23.484375 23.480469 22.988281 23.480469 Z M 22.988281 23.480469 "/>
<path style=" stroke:none;fill-rule:nonzero;fill:rgb(30.19608%,30.19608%,30.19608%);fill-opacity:1;" d="M 22.121094 17.808594 L 22.121094 10.480469 C 22.121094 10.074219 21.789062 9.742188 21.382812 9.742188 L 10.890625 9.742188 C 10.480469 9.742188 10.152344 10.074219 10.152344 10.480469 L 10.152344 20.976562 C 10.152344 21.382812 10.480469 21.714844 10.890625 21.714844 L 18.214844 21.714844 C 18.410156 21.714844 18.601562 21.636719 18.738281 21.496094 L 21.902344 18.332031 C 22.042969 18.191406 22.121094 18.003906 22.121094 17.808594 Z M 22.121094 17.808594 "/>
<path style=" stroke:none;fill-rule:nonzero;fill:rgb(94.901961%,94.509804%,93.725491%);fill-opacity:1;" d="M 14.472656 16.398438 L 14.472656 11.824219 C 14.472656 11.160156 14.976562 10.628906 15.636719 10.628906 C 16.296875 10.628906 16.804688 11.160156 16.804688 11.824219 L 16.804688 16.398438 C 16.804688 16.652344 16.929688 16.894531 17.113281 17.082031 C 17.464844 17.441406 17.679688 17.933594 17.679688 18.480469 C 17.6875 19.566406 16.804688 20.5 15.714844 20.539062 C 14.550781 20.589844 13.597656 19.65625 13.597656 18.5 C 13.597656 17.945312 13.808594 17.449219 14.171875 17.082031 C 14.335938 16.894531 14.472656 16.652344 14.472656 16.398438 Z M 14.472656 16.398438 "/>
<path style=" stroke:none;fill-rule:nonzero;fill:rgb(88.627452%,34.117648%,29.803923%);fill-opacity:1;" d="M 17.289062 18.5 C 17.289062 19.414062 16.550781 20.152344 15.636719 20.152344 C 14.722656 20.152344 13.984375 19.414062 13.984375 18.5 C 13.984375 17.867188 14.335938 17.324219 14.859375 17.042969 L 14.859375 12.765625 L 16.414062 12.765625 L 16.414062 17.042969 C 16.941406 17.324219 17.289062 17.867188 17.289062 18.5 Z M 17.289062 18.5 "/>
</g>
</svg>
