<?xml version="1.0" encoding="UTF-8" standalone="no"?>
<!-- Created with Inkscape (http://www.inkscape.org/) -->

<svg
   xmlns:dc="http://purl.org/dc/elements/1.1/"
   xmlns:cc="http://creativecommons.org/ns#"
   xmlns:rdf="http://www.w3.org/1999/02/22-rdf-syntax-ns#"
   xmlns:svg="http://www.w3.org/2000/svg"
   xmlns="http://www.w3.org/2000/svg"
   xmlns:xlink="http://www.w3.org/1999/xlink"
   xmlns:sodipodi="http://sodipodi.sourceforge.net/DTD/sodipodi-0.dtd"
   xmlns:inkscape="http://www.inkscape.org/namespaces/inkscape"
   width="32"
   height="32"
   id="svg3330"
   version="1.1"
   inkscape:version="0.92.2 2405546, 2018-03-11"
   sodipodi:docname="utilities-tweak-tool.svg">
  <defs
     id="defs3332">
    <linearGradient
       gradientUnits="userSpaceOnUse"
       id="linearGradient1022-8-8-3-0-06-59-7-8-0-2"
       x2="0"
       y1="3.0069399"
       y2="11.02436">
      <stop
         offset="0"
         id="stop3001-0-9-4-9-02-6-2-81-9" />
      <stop
         offset="1"
         stop-color="#363636"
         id="stop3003-5-6-6-5-70-7-1-4-9" />
    </linearGradient>
    <linearGradient
       inkscape:collect="always"
       xlink:href="#linearGradient1022-8-8-3-0-06-59-7-8-0-2-3"
       id="linearGradient3365"
       gradientUnits="userSpaceOnUse"
       gradientTransform="matrix(2.3556973,0,0,2.3198273,-518.14273,-1229.807)"
       x1="226.85118"
       y1="970.40381"
       x2="226.85118"
       y2="983.33582" />
    <linearGradient
       gradientUnits="userSpaceOnUse"
       id="linearGradient1022-8-8-3-0-06-59-7-8-0-2-3"
       x2="0"
       y1="3.0069399"
       y2="11.02436">
      <stop
         offset="0"
         id="stop3001-0-9-4-9-02-6-2-81-9-6" />
      <stop
         offset="1"
         stop-color="#363636"
         id="stop3003-5-6-6-5-70-7-1-4-9-7" />
    </linearGradient>
    <linearGradient
       gradientTransform="matrix(0.648699,0,0,0.648699,0.43932649,1020.7782)"
       inkscape:collect="always"
       xlink:href="#linearGradient865"
       id="linearGradient867"
       x1="23.900095"
       y1="41.241783"
       x2="23.489613"
       y2="26.887138"
       gradientUnits="userSpaceOnUse" />
    <linearGradient
       inkscape:collect="always"
       id="linearGradient865">
      <stop
         style="stop-color:#fafafa;stop-opacity:1"
         offset="0"
         id="stop861" />
      <stop
         style="stop-color:#000000;stop-opacity:0;"
         offset="1"
         id="stop863" />
    </linearGradient>
    <linearGradient
       gradientTransform="matrix(0.648699,0,0,0.648699,0.43932649,1020.7782)"
       inkscape:collect="always"
       xlink:href="#linearGradient873"
       id="linearGradient875"
       x1="23.96003"
       y1="21.667557"
       x2="23.860315"
       y2="7.456459"
       gradientUnits="userSpaceOnUse" />
    <linearGradient
       inkscape:collect="always"
       id="linearGradient873">
      <stop
         style="stop-color:#fafafa;stop-opacity:1;"
         offset="0"
         id="stop869" />
      <stop
         style="stop-color:#fafafa;stop-opacity:0;"
         offset="1"
         id="stop871" />
    </linearGradient>
  </defs>
  <sodipodi:namedview
     id="base"
     pagecolor="#ffffff"
     bordercolor="#666666"
     borderopacity="1.0"
     inkscape:pageopacity="0.0"
     inkscape:pageshadow="2"
     inkscape:zoom="8"
     inkscape:cx="-17.261154"
     inkscape:cy="19.140312"
     inkscape:document-units="px"
     inkscape:current-layer="capa1"
     showgrid="true"
     inkscape:showpageshadow="false"
     inkscape:window-width="1920"
     inkscape:window-height="1019"
     inkscape:window-x="0"
     inkscape:window-y="5"
     inkscape:window-maximized="1"
     inkscape:snap-to-guides="false"
     inkscape:snap-grids="true"
     showguides="true"
     inkscape:guide-bbox="true"
     inkscape:snap-global="false">
    <inkscape:grid
       type="xygrid"
       id="grid2990"
       empspacing="5"
       visible="true"
       enabled="true"
       snapvisiblegridlinesonly="true" />
  </sodipodi:namedview>
  <metadata
     id="metadata3335">
    <rdf:RDF>
      <cc:Work
         rdf:about="">
        <dc:format>image/svg+xml</dc:format>
        <dc:type
           rdf:resource="http://purl.org/dc/dcmitype/StillImage" />
        <dc:title />
      </cc:Work>
    </rdf:RDF>
  </metadata>
  <g
     inkscape:label="Capa 1"
     inkscape:groupmode="layer"
     id="capa1"
     transform="translate(0,-1020.3622)">
    <rect
       ry="2.3717558"
       rx="2.3717558"
       y="1021.1661"
       x="2.656743"
       height="30.536814"
       width="26.891844"
       id="rect859-3"
       style="opacity:1;fill:#b3b3b3;fill-opacity:1;stroke:#474747;stroke-width:0.23147626;stroke-linecap:round;stroke-linejoin:round;stroke-miterlimit:4;stroke-dasharray:none;stroke-opacity:1;paint-order:stroke fill markers" />
    <path
       inkscape:connector-curvature="0"
       style="fill:#38454f;stroke:url(#linearGradient875);stroke-width:0.1342807;stroke-miterlimit:4;stroke-dasharray:none"
       d="m 10.226828,1025.6903 c -2.4683971,0 -4.4876816,2.0194 -4.4876816,4.4878 0,2.4684 2.0192845,4.4877 4.4876816,4.4877 h 5.482264 0.853952 5.482268 c 2.468394,0 4.487678,-2.0193 4.487678,-4.4877 0,-2.4684 -2.019284,-4.4878 -4.487678,-4.4878 h -5.482268 -0.853952 z"
       id="path2" />
    <circle
       style="fill:#e0e1e2;stroke-width:0.26399946"
       cx="10.226769"
       cy="1030.1775"
       r="3.1679943"
       id="circle4" />
    <path
       inkscape:connector-curvature="0"
       style="fill:#38454f;stroke:url(#linearGradient867);stroke-width:0.1342807;stroke-miterlimit:4;stroke-dasharray:none;stroke-opacity:1"
       d="m 10.226828,1038.4806 c -2.4683971,0 -4.4876816,2.0206 -4.4876816,4.4889 0,2.4684 2.0192845,4.4876 4.4876816,4.4876 h 5.482264 0.853952 5.482268 c 2.468394,0 4.487678,-2.0192 4.487678,-4.4876 0,-2.4683 -2.019284,-4.4889 -4.487678,-4.4889 h -5.482268 -0.853952 z"
       id="path912" />
    <circle
       id="circle916"
       r="3.1679943"
       cy="1042.9692"
       cx="-22.044832"
       style="fill:#e0e1e2;stroke-width:0.26399946"
       transform="scale(-1,1)" />
    <path
       inkscape:connector-curvature="0"
       style="fill:#ffffff;stroke-width:0.26399946"
       d="m 10.22769,1027.0097 a 3.1679939,3.1679939 0 0 0 -3.1679868,3.1679 3.1679939,3.1679939 0 0 0 0.011477,0.2526 3.1679939,3.1679939 0 0 1 3.1565978,-2.9344 3.1679939,3.1679939 0 0 1 3.154693,2.9174 3.1679939,3.1679939 0 0 0 0.01339,-0.2356 3.1679939,3.1679939 0 0 0 -3.167989,-3.1679 z"
       id="circle918" />
    <path
       id="path923"
       d="m 22.02219,1039.809 a 3.1679939,3.1679939 0 0 0 -3.16799,3.1681 3.1679939,3.1679939 0 0 0 0.01148,0.2525 3.1679939,3.1679939 0 0 1 3.156595,-2.9343 3.1679939,3.1679939 0 0 1 3.154696,2.917 3.1679939,3.1679939 0 0 0 0.01339,-0.2352 3.1679939,3.1679939 0 0 0 -3.167992,-3.1681 z"
       style="fill:#ffffff;stroke-width:0.26399946"
       inkscape:connector-curvature="0" />
    <path
       id="path925"
       d="m 10.22769,1033.8948 a 3.1679939,3.1679939 0 0 1 -3.1679868,-3.1682 3.1679939,3.1679939 0 0 1 0.011477,-0.2526 3.1679939,3.1679939 0 0 0 3.1565978,2.9346 3.1679939,3.1679939 0 0 0 3.154693,-2.9177 3.1679939,3.1679939 0 0 1 0.01339,0.2357 3.1679939,3.1679939 0 0 1 -3.167989,3.1682 z"
       style="opacity:0.33000004;fill:#000000;stroke-width:0.26399946"
       inkscape:connector-curvature="0" />
    <path
       inkscape:connector-curvature="0"
       style="opacity:0.28000004;fill:#000000;stroke-width:0.26399946"
       d="m 22.02219,1046.6939 a 3.1679939,3.1679939 0 0 1 -3.16799,-3.168 3.1679939,3.1679939 0 0 1 0.01148,-0.2528 3.1679939,3.1679939 0 0 0 3.156595,2.9345 3.1679939,3.1679939 0 0 0 3.154696,-2.9172 3.1679939,3.1679939 0 0 1 0.01339,0.2355 3.1679939,3.1679939 0 0 1 -3.167992,3.168 z"
       id="path927" />
    <path
       inkscape:connector-curvature="0"
       style="opacity:0.28300003;fill:#000000;stroke-width:0.26399946"
       d="m 10.226828,1025.6903 c -2.4683971,0 -4.4876816,2.0194 -4.4876816,4.4878 0,0.1415 0.00859,0.281 0.021546,0.4194 0.2132757,-2.2738 2.1391725,-4.0697 4.4661426,-4.0697 h 5.482265 0.853951 5.482268 c 2.326964,0 4.252862,1.7959 4.466139,4.0697 0.01298,-0.1377 0.02153,-0.2779 0.02153,-0.4194 0,-2.4684 -2.019286,-4.4878 -4.487677,-4.4878 h -5.48226 -0.853952 z"
       id="path854" />
    <path
       id="path859"
       d="m 10.226828,1038.478 c -2.4683971,0 -4.4876816,2.0192 -4.4876816,4.4877 0,0.1416 0.00859,0.2812 0.021546,0.4195 0.2132757,-2.2735 2.1391725,-4.0696 4.4661426,-4.0696 h 5.482265 0.853951 5.482268 c 2.326964,0 4.252862,1.7961 4.466139,4.0696 0.01298,-0.1376 0.02153,-0.2779 0.02153,-0.4195 0,-2.4685 -2.019286,-4.4877 -4.487677,-4.4877 h -5.48226 -0.853952 z"
       style="opacity:0.28300003;fill:#000000;stroke-width:0.26399946"
       inkscape:connector-curvature="0" />
  </g>
</svg>
