<?xml version="1.0" encoding="UTF-8"?>
<svg xmlns="http://www.w3.org/2000/svg" xmlns:xlink="http://www.w3.org/1999/xlink" width="22px" height="22px" viewBox="0 0 22 22" version="1.1">
<g id="surface1">
<path style=" stroke:none;fill-rule:nonzero;fill:rgb(36.078432%,38.039216%,42.352942%);fill-opacity:1;" d="M 11 0 C 7.980469 0 5.546875 2.460938 5.5 5.5 L 5.5 6.875 L 8.25 6.875 L 8.25 5.5 C 8.25 3.976562 9.476562 2.75 11 2.75 C 12.523438 2.75 13.75 3.976562 13.75 5.5 L 13.75 11 L 4.125 11 C 3.363281 11 2.75 11.613281 2.75 12.375 L 2.75 20.625 C 2.75 21.386719 3.363281 22 4.125 22 L 17.875 22 C 18.636719 22 19.25 21.386719 19.25 20.625 L 19.25 12.375 C 19.25 11.613281 18.636719 11 17.875 11 L 16.5 11 L 16.5 5.585938 C 16.5 2.507812 14.046875 0 11 0 Z M 11 0 "/>
</g>
</svg>
