<?xml version="1.0" encoding="UTF-8"?>
<svg xmlns="http://www.w3.org/2000/svg" xmlns:xlink="http://www.w3.org/1999/xlink" width="22px" height="22px" viewBox="0 0 22 22" version="1.1">
<g id="surface1">
<path style=" stroke:none;fill-rule:nonzero;fill:rgb(36.078432%,38.039216%,42.352942%);fill-opacity:1;" d="M 9.664062 1.375 C 8.976562 1.355469 8.382812 1.847656 8.269531 2.523438 L 6.605469 12.5 L 5.460938 7.917969 C 5.277344 7.335938 4.734375 6.945312 4.125 6.957031 L 0 6.957031 L 0 9.707031 L 3.050781 9.707031 L 5.539062 19.664062 C 5.699219 20.296875 6.277344 20.730469 6.929688 20.707031 C 7.582031 20.679688 8.125 20.199219 8.230469 19.554688 L 10.109375 8.277344 L 11.769531 12.917969 C 11.96875 13.476562 12.503906 13.84375 13.097656 13.828125 C 13.691406 13.8125 14.207031 13.417969 14.378906 12.851562 L 15.191406 10.136719 L 16.570312 14.265625 C 16.75 14.835938 17.277344 15.222656 17.875 15.226562 L 22 15.226562 L 22 12.476562 L 18.867188 12.476562 L 16.429688 5.167969 C 16.238281 4.597656 15.703125 4.21875 15.105469 4.226562 C 14.503906 4.238281 13.980469 4.632812 13.808594 5.207031 L 12.949219 8.074219 L 10.917969 2.390625 C 10.730469 1.855469 10.230469 1.492188 9.664062 1.476562 Z M 9.664062 1.375 "/>
</g>
</svg>
