<?xml version="1.0" encoding="UTF-8"?>
<svg xmlns="http://www.w3.org/2000/svg" xmlns:xlink="http://www.w3.org/1999/xlink" width="22px" height="22px" viewBox="0 0 22 22" version="1.1">
<g id="surface1">
<path style=" stroke:none;fill-rule:nonzero;fill:rgb(35.686275%,38.039216%,41.960785%);fill-opacity:1;" d="M 11.089844 1.65625 C 5.757812 1.65625 1.417969 5.996094 1.417969 11.328125 C 1.417969 13.515625 2.128906 15.578125 3.476562 17.296875 C 5.324219 19.652344 8.097656 21.003906 11.089844 21.003906 C 14.082031 21.003906 16.855469 19.652344 18.703125 17.296875 C 20.050781 15.578125 20.761719 13.515625 20.761719 11.328125 C 20.761719 5.996094 16.421875 1.65625 11.089844 1.65625 Z M 14.800781 10.761719 C 14.757812 9.824219 14.617188 8.9375 14.410156 8.117188 C 15.605469 7.828125 16.632812 7.414062 17.472656 6.984375 C 18.21875 8.074219 18.683594 9.367188 18.785156 10.761719 Z M 11.023438 19.054688 C 10.996094 19.050781 10.96875 19.050781 10.941406 19.050781 C 10.441406 18.40625 9.65625 17.214844 9.078125 15.566406 C 9.707031 15.46875 10.375 15.40625 11.089844 15.40625 C 11.71875 15.40625 12.316406 15.457031 12.878906 15.535156 C 12.292969 17.140625 11.511719 18.375 11.023438 19.054688 Z M 11.089844 14.238281 C 10.253906 14.238281 9.472656 14.320312 8.742188 14.441406 C 8.554688 13.679688 8.417969 12.839844 8.378906 11.929688 L 13.636719 11.929688 C 13.589844 12.808594 13.441406 13.636719 13.234375 14.40625 C 12.5625 14.300781 11.847656 14.238281 11.089844 14.238281 Z M 3.394531 10.761719 C 3.496094 9.367188 3.960938 8.074219 4.707031 6.984375 C 5.5 7.390625 6.460938 7.78125 7.574219 8.070312 C 7.382812 8.890625 7.25 9.789062 7.210938 10.761719 Z M 8.375 10.761719 C 8.414062 9.878906 8.542969 9.0625 8.722656 8.316406 C 9.457031 8.441406 10.25 8.515625 11.089844 8.515625 C 11.855469 8.515625 12.582031 8.449219 13.261719 8.34375 C 13.457031 9.097656 13.59375 9.90625 13.636719 10.761719 Z M 11.027344 3.609375 C 11.523438 4.296875 12.324219 5.5625 12.914062 7.214844 C 12.339844 7.296875 11.730469 7.34375 11.089844 7.34375 C 10.367188 7.34375 9.6875 7.285156 9.050781 7.183594 C 9.628906 5.492188 10.433594 4.273438 10.941406 3.613281 C 10.96875 3.613281 10.996094 3.609375 11.027344 3.609375 Z M 16.714844 6.054688 C 15.976562 6.414062 15.097656 6.753906 14.082031 6.996094 C 13.628906 5.660156 13.039062 4.554688 12.53125 3.742188 C 14.167969 4.054688 15.621094 4.882812 16.714844 6.054688 Z M 9.375 3.804688 C 8.875 4.582031 8.316406 5.636719 7.890625 6.945312 C 6.960938 6.707031 6.148438 6.386719 5.460938 6.054688 C 6.496094 4.949219 7.847656 4.152344 9.375 3.804688 Z M 3.390625 11.929688 L 7.214844 11.929688 C 7.253906 12.929688 7.394531 13.851562 7.597656 14.6875 C 6.464844 14.976562 5.511719 15.367188 4.757812 15.746094 C 3.964844 14.613281 3.496094 13.3125 3.390625 11.929688 Z M 5.515625 16.675781 C 6.171875 16.359375 6.984375 16.050781 7.917969 15.8125 C 8.34375 17.078125 8.890625 18.101562 9.378906 18.863281 C 7.910156 18.535156 6.570312 17.777344 5.515625 16.675781 Z M 12.527344 18.917969 C 13.023438 18.128906 13.601562 17.050781 14.054688 15.753906 C 15.0625 15.988281 15.9375 16.328125 16.664062 16.675781 C 15.542969 17.847656 14.105469 18.625 12.527344 18.917969 Z M 17.421875 15.746094 C 16.59375 15.328125 15.578125 14.917969 14.386719 14.628906 C 14.605469 13.796875 14.753906 12.890625 14.800781 11.929688 L 18.789062 11.929688 C 18.683594 13.308594 18.214844 14.609375 17.421875 15.746094 Z M 17.421875 15.746094 "/>
</g>
</svg>
