<?xml version="1.0" encoding="UTF-8"?>
<svg xmlns="http://www.w3.org/2000/svg" xmlns:xlink="http://www.w3.org/1999/xlink" width="22px" height="22px" viewBox="0 0 22 22" version="1.1">
<g id="surface1">
<path style=" stroke:none;fill-rule:nonzero;fill:rgb(36.078432%,38.039216%,42.352942%);fill-opacity:1;" d="M 4.125 2.75 L 9.625 2.75 C 10.386719 2.75 11 3.363281 11 4.125 L 11 9.625 C 11 10.386719 10.386719 11 9.625 11 L 4.125 11 C 3.363281 11 2.75 10.386719 2.75 9.625 L 2.75 4.125 C 2.75 3.363281 3.363281 2.75 4.125 2.75 Z M 4.125 2.75 "/>
<path style=" stroke:none;fill-rule:nonzero;fill:rgb(36.078432%,38.039216%,42.352942%);fill-opacity:1;" d="M 13.75 2.75 L 19.25 2.75 C 20.011719 2.75 20.625 3.363281 20.625 4.125 L 20.625 9.625 C 20.625 10.386719 20.011719 11 19.25 11 L 13.75 11 C 12.988281 11 12.375 10.386719 12.375 9.625 L 12.375 4.125 C 12.375 3.363281 12.988281 2.75 13.75 2.75 Z M 13.75 2.75 "/>
<path style=" stroke:none;fill-rule:nonzero;fill:rgb(36.078432%,38.039216%,42.352942%);fill-opacity:1;" d="M 4.125 12.375 L 9.625 12.375 C 10.386719 12.375 11 12.988281 11 13.75 L 11 19.25 C 11 20.011719 10.386719 20.625 9.625 20.625 L 4.125 20.625 C 3.363281 20.625 2.75 20.011719 2.75 19.25 L 2.75 13.75 C 2.75 12.988281 3.363281 12.375 4.125 12.375 Z M 4.125 12.375 "/>
<path style=" stroke:none;fill-rule:nonzero;fill:rgb(36.078432%,38.039216%,42.352942%);fill-opacity:1;" d="M 13.75 12.375 L 19.25 12.375 C 20.011719 12.375 20.625 12.988281 20.625 13.75 L 20.625 19.25 C 20.625 20.011719 20.011719 20.625 19.25 20.625 L 13.75 20.625 C 12.988281 20.625 12.375 20.011719 12.375 19.25 L 12.375 13.75 C 12.375 12.988281 12.988281 12.375 13.75 12.375 Z M 13.75 12.375 "/>
</g>
</svg>
