<?xml version="1.0" encoding="UTF-8"?>
<svg xmlns="http://www.w3.org/2000/svg" xmlns:xlink="http://www.w3.org/1999/xlink" width="22px" height="22px" viewBox="0 0 22 22" version="1.1">
<g id="surface1">
<path style=" stroke:none;fill-rule:nonzero;fill:rgb(36.078432%,38.039216%,42.352942%);fill-opacity:1;" d="M 12.375 4.125 C 10.308594 4.125 8.417969 5.289062 7.480469 7.128906 C 7.070312 6.960938 6.628906 6.875 6.1875 6.875 C 4.46875 6.875 3.015625 8.148438 2.785156 9.851562 C 1.121094 10.425781 0 11.988281 0 13.75 C 0 16.027344 1.847656 17.875 4.125 17.875 L 16.5 17.875 C 18.777344 17.875 20.625 16.027344 20.625 13.75 C 20.625 12 19.515625 10.441406 17.863281 9.859375 C 17.871094 9.78125 17.875 9.703125 17.875 9.625 C 17.875 6.585938 15.414062 4.125 12.375 4.125 Z M 12.375 6.871094 L 12.375 6.875 C 13.925781 6.875 15.121094 8.070312 15.121094 9.621094 C 15.121094 9.640625 15.121094 9.660156 15.121094 9.679688 C 15.035156 10.914062 15.789062 12.050781 16.953125 12.457031 C 17.511719 12.65625 17.875 13.160156 17.875 13.753906 C 17.875 14.542969 17.289062 15.125 16.5 15.125 L 4.125 15.125 C 3.335938 15.125 2.753906 14.542969 2.753906 13.753906 C 2.753906 13.15625 3.117188 12.648438 3.679688 12.457031 C 4.664062 12.117188 5.371094 11.253906 5.511719 10.222656 C 5.558594 9.859375 5.828125 9.625 6.1875 9.625 C 6.273438 9.625 6.359375 9.640625 6.441406 9.671875 C 7.761719 10.214844 9.28125 9.652344 9.929688 8.378906 C 10.402344 7.453125 11.339844 6.871094 12.375 6.871094 Z M 12.375 6.871094 "/>
</g>
</svg>
