<?xml version="1.0" encoding="UTF-8"?>
<svg xmlns="http://www.w3.org/2000/svg" xmlns:xlink="http://www.w3.org/1999/xlink" width="22px" height="22px" viewBox="0 0 22 22" version="1.1">
<g id="surface1">
<path style=" stroke:none;fill-rule:nonzero;fill:rgb(36.078432%,38.039216%,42.352942%);fill-opacity:1;" d="M 16.003906 1.375 C 12.246094 1.375 11.539062 7.085938 13.65625 7.085938 C 15.769531 7.085938 19.765625 1.375 16.003906 1.375 Z M 10.214844 2.253906 C 10.15625 2.253906 10.09375 2.253906 10.023438 2.265625 C 7.894531 2.535156 8.644531 6.140625 9.777344 6.210938 C 10.875 6.273438 12.078125 2.261719 10.214844 2.257812 Z M 6.519531 3.585938 C 6.390625 3.570312 6.246094 3.601562 6.085938 3.667969 C 4.371094 4.371094 5.824219 7.273438 6.785156 7.078125 C 7.652344 6.902344 7.777344 3.667969 6.519531 3.585938 Z M 3.726562 5.960938 C 3.574219 5.960938 3.414062 6.003906 3.242188 6.132812 C 1.875 7.15625 3.703125 9.628906 4.511719 9.246094 C 5.21875 8.910156 4.765625 5.996094 3.726562 5.960938 Z M 11.820312 8.316406 C 8.851562 8.265625 4.933594 9.773438 4.265625 12.800781 C 3.542969 16.078125 7.242188 20.625 11.105469 20.625 C 13.007812 20.625 15.199219 18.886719 15.609375 16.6875 C 15.925781 15.011719 11.921875 15.683594 12.066406 16.792969 C 12.238281 18.121094 11.105469 18.78125 9.992188 17.921875 C 6.445312 15.191406 15.859375 13.828125 15.238281 10.101562 C 15.042969 8.9375 13.605469 8.347656 11.820312 8.316406 Z M 11.820312 8.316406 "/>
</g>
</svg>
