<?xml version="1.0" encoding="UTF-8"?>
<svg xmlns="http://www.w3.org/2000/svg" xmlns:xlink="http://www.w3.org/1999/xlink" width="22px" height="22px" viewBox="0 0 22 22" version="1.1">
<g id="surface1">
<path style=" stroke:none;fill-rule:nonzero;fill:rgb(36.078432%,38.039216%,42.352942%);fill-opacity:1;" d="M 4 1.421875 C 3.316406 1.480469 2.851562 2.082031 2.710938 2.710938 C 2.3125 3.9375 1.898438 5.179688 1.507812 6.40625 L 1.378906 6.921875 L 1.378906 17.921875 C 1.378906 18.683594 1.992188 19.296875 2.753906 19.296875 L 19.253906 19.296875 C 20.015625 19.296875 20.628906 18.683594 20.628906 17.921875 L 20.628906 6.921875 L 20.457031 6.277344 C 19.992188 4.917969 19.574219 3.503906 19.082031 2.152344 C 18.789062 1.550781 18.117188 1.359375 17.492188 1.421875 Z M 5.125 4.171875 L 16.859375 4.171875 C 17.007812 4.617188 17.164062 5.089844 17.316406 5.546875 L 4.679688 5.546875 C 4.828125 5.089844 4.976562 4.636719 5.125 4.171875 Z M 9.628906 8.296875 L 12.378906 8.296875 L 12.378906 12.421875 L 14.785156 12.421875 L 11.003906 16.546875 L 7.222656 12.421875 L 9.628906 12.421875 Z M 9.628906 8.296875 "/>
</g>
</svg>
