<?xml version="1.0" encoding="UTF-8"?>
<svg xmlns="http://www.w3.org/2000/svg" xmlns:xlink="http://www.w3.org/1999/xlink" width="22px" height="22px" viewBox="0 0 22 22" version="1.1">
<g id="surface1">
<path style=" stroke:none;fill-rule:nonzero;fill:rgb(36.078432%,38.039216%,42.352942%);fill-opacity:1;" d="M 11 1.375 C 7.953125 1.375 5.5 3.878906 5.5 6.960938 L 5.5 9.625 L 4.125 9.625 C 3.363281 9.625 2.75 10.238281 2.75 11 L 2.75 19.25 C 2.75 20.011719 3.363281 20.625 4.125 20.625 L 17.875 20.625 C 18.636719 20.625 19.25 20.011719 19.25 19.25 L 19.25 11 C 19.25 10.238281 18.636719 9.625 17.875 9.625 L 16.5 9.625 L 16.5 6.960938 C 16.5 3.882812 14.046875 1.375 11 1.375 Z M 11 4.125 C 12.523438 4.125 13.75 5.351562 13.75 6.875 L 13.75 9.625 L 8.25 9.625 L 8.25 6.875 C 8.25 5.351562 9.476562 4.125 11 4.125 Z M 11 4.125 "/>
</g>
</svg>
