<?xml version="1.0" encoding="UTF-8"?>
<svg xmlns="http://www.w3.org/2000/svg" xmlns:xlink="http://www.w3.org/1999/xlink" width="22px" height="22px" viewBox="0 0 22 22" version="1.1">
<g id="surface1">
<path style=" stroke:none;fill-rule:nonzero;fill:rgb(36.078432%,38.039216%,42.352942%);fill-opacity:1;" d="M 19.25 1.367188 L 6.875 1.375 L 6.875 12.632812 C 6.433594 12.46875 5.996094 12.371094 5.5 12.371094 C 3.222656 12.371094 1.375 14.21875 1.375 16.496094 C 1.375 18.777344 3.222656 20.621094 5.5 20.621094 C 7.777344 20.621094 9.625 18.777344 9.625 16.496094 L 9.625 6.871094 L 17.875 6.871094 L 17.875 12.628906 C 17.433594 12.464844 16.996094 12.367188 16.5 12.367188 C 14.222656 12.367188 12.375 14.214844 12.375 16.492188 C 12.375 18.769531 14.222656 20.617188 16.5 20.617188 C 18.777344 20.617188 20.625 18.769531 20.625 16.492188 L 20.625 1.367188 Z M 19.25 1.367188 "/>
</g>
</svg>
