<?xml version="1.0" encoding="UTF-8"?>
<svg xmlns="http://www.w3.org/2000/svg" xmlns:xlink="http://www.w3.org/1999/xlink" width="22px" height="22px" viewBox="0 0 22 22" version="1.1">
<g id="surface1">
<path style=" stroke:none;fill-rule:nonzero;fill:rgb(36.078432%,38.039216%,42.352942%);fill-opacity:1;" d="M 10.023438 4.136719 C 9.632812 4.160156 9.214844 4.234375 8.761719 4.359375 C 5.132812 5.355469 5.121094 8.15625 4.285156 9.65625 C 3.597656 10.882812 1.46875 12.679688 0.386719 13.882812 C 1.414062 12.765625 4.027344 10.6875 9.984375 9.050781 C 15.367188 7.570312 18.589844 7.820312 20.207031 8.203125 C 18.699219 7.789062 16.464844 7.390625 15.214844 6.648438 C 14.019531 5.933594 12.75 3.953125 10.023438 4.136719 Z M 20.207031 8.203125 C 20.433594 8.261719 20.6875 8.324219 20.871094 8.386719 C 20.695312 8.324219 20.464844 8.261719 20.207031 8.203125 Z M 12.15625 5.378906 C 12.472656 5.386719 12.855469 5.503906 13.171875 5.730469 C 13.773438 6.160156 13.953125 6.816406 13.296875 6.996094 C 12.644531 7.175781 11.808594 6.703125 11.546875 6.179688 C 11.363281 5.808594 11.527344 5.503906 11.871094 5.410156 C 11.957031 5.386719 12.050781 5.378906 12.15625 5.378906 Z M 9.609375 5.839844 C 10.007812 5.875 10.34375 6.113281 10.4375 6.476562 C 10.5625 6.957031 10.214844 7.472656 9.65625 7.625 C 9.09375 7.78125 8.539062 7.511719 8.414062 7.03125 C 8.289062 6.550781 8.636719 6.035156 9.199219 5.882812 C 9.335938 5.84375 9.476562 5.832031 9.609375 5.839844 Z M 6.898438 6.828125 C 7.121094 6.855469 7.292969 7.035156 7.308594 7.34375 C 7.335938 7.933594 6.839844 8.769531 6.1875 8.949219 C 5.535156 9.128906 5.371094 8.472656 5.683594 7.789062 C 5.902344 7.3125 6.3125 6.941406 6.65625 6.84375 C 6.738281 6.820312 6.820312 6.816406 6.898438 6.828125 Z M 21.289062 8.554688 C 21.351562 8.582031 21.410156 8.609375 21.457031 8.636719 C 21.421875 8.613281 21.363281 8.585938 21.289062 8.554688 Z M 18.265625 9.058594 C 16.183594 9.078125 13.410156 9.515625 10.433594 10.335938 C 4.484375 11.980469 -0.0234375 14.550781 0.417969 16.246094 C 0.71875 17.394531 3.257812 18.046875 6.710938 17.835938 C 8.152344 17.960938 10.085938 17.746094 12.148438 17.179688 C 14.179688 16.621094 15.9375 15.828125 17.128906 14.996094 C 20.320312 13.375 22.269531 11.457031 21.96875 10.289062 C 21.746094 9.441406 20.351562 9.039062 18.265625 9.058594 Z M 14.757812 13.582031 C 15.664062 13.558594 16.265625 13.710938 16.351562 14.042969 C 16.527344 14.710938 14.527344 15.667969 11.941406 16.378906 C 9.351562 17.089844 7.152344 17.285156 6.980469 16.617188 C 6.804688 15.953125 8.769531 14.863281 11.355469 14.152344 C 12.652344 13.796875 13.855469 13.601562 14.757812 13.582031 Z M 14.757812 13.582031 "/>
</g>
</svg>
