<?xml version="1.0" encoding="UTF-8"?>
<svg xmlns="http://www.w3.org/2000/svg" xmlns:xlink="http://www.w3.org/1999/xlink" width="22px" height="22px" viewBox="0 0 22 22" version="1.1">
<g id="surface1">
<path style=" stroke:none;fill-rule:nonzero;fill:rgb(36.078432%,38.039216%,42.352942%);fill-opacity:1;" d="M 6.1875 5.496094 L 6.1875 5.5 C 2.769531 5.5 0 8.269531 0 11.6875 C 0 15.105469 2.769531 17.875 6.1875 17.875 C 8.804688 17.875 11.140625 16.21875 12.011719 13.75 L 16.5 13.75 L 16.5 16.5 L 20.625 16.5 L 20.625 13.746094 L 22 13.746094 L 22 9.621094 L 12.011719 9.621094 C 11.140625 7.152344 8.804688 5.5 6.1875 5.496094 Z M 6.1875 9.625 C 7.328125 9.625 8.25 10.546875 8.25 11.6875 C 8.25 12.828125 7.328125 13.75 6.1875 13.75 C 5.046875 13.75 4.125 12.828125 4.125 11.6875 C 4.125 10.546875 5.046875 9.625 6.1875 9.625 Z M 6.1875 9.625 "/>
</g>
</svg>
