<?xml version="1.0" encoding="UTF-8"?>
<svg xmlns="http://www.w3.org/2000/svg" xmlns:xlink="http://www.w3.org/1999/xlink" width="22px" height="22px" viewBox="0 0 22 22" version="1.1">
<g id="surface1">
<path style=" stroke:none;fill-rule:nonzero;fill:rgb(36.078432%,38.039216%,42.352942%);fill-opacity:1;" d="M 17.1875 2.75 C 14.828125 2.75 12.816406 4.464844 12.4375 6.792969 L 9.03125 12.453125 C 8.773438 12.402344 8.511719 12.375 8.25 12.375 C 7.628906 12.375 7.011719 12.519531 6.453125 12.792969 L 0.367188 9.277344 C 0.128906 10.292969 0.00390625 11.332031 0 12.375 C 0.00390625 12.878906 0.0390625 13.386719 0.0976562 13.886719 L 4.136719 16.214844 C 4.128906 16.308594 4.125 16.40625 4.125 16.5 C 4.125 18.777344 5.972656 20.625 8.25 20.625 C 10.527344 20.625 12.375 18.777344 12.375 16.5 C 12.375 16.371094 12.367188 16.238281 12.355469 16.109375 L 18.371094 12.21875 C 20.503906 11.679688 21.996094 9.761719 22 7.5625 C 22 4.90625 19.84375 2.75 17.1875 2.75 Z M 17.1875 4.125 C 19.085938 4.125 20.625 5.664062 20.625 7.5625 C 20.625 9.460938 19.085938 11 17.1875 11 C 15.289062 11 13.75 9.460938 13.75 7.5625 C 13.75 5.664062 15.289062 4.125 17.1875 4.125 Z M 17.1875 5.5 C 16.046875 5.5 15.125 6.421875 15.125 7.5625 C 15.125 8.703125 16.046875 9.625 17.1875 9.625 C 18.328125 9.625 19.25 8.703125 19.25 7.5625 C 19.25 6.421875 18.328125 5.5 17.1875 5.5 Z M 8.25 13.75 C 9.769531 13.75 11 14.980469 11 16.5 C 11 18.019531 9.769531 19.25 8.25 19.25 C 6.9375 19.25 5.8125 18.320312 5.554688 17.035156 L 6.527344 17.59375 C 7.515625 18.167969 8.773438 17.832031 9.34375 16.839844 C 9.914062 15.851562 9.578125 14.59375 8.589844 14.023438 L 8.125 13.753906 C 8.164062 13.753906 8.207031 13.75 8.25 13.75 Z M 8.25 13.75 "/>
</g>
</svg>
