<?xml version="1.0" encoding="UTF-8"?>
<svg xmlns="http://www.w3.org/2000/svg" xmlns:xlink="http://www.w3.org/1999/xlink" width="22px" height="22px" viewBox="0 0 22 22" version="1.1">
<g id="surface1">
<path style=" stroke:none;fill-rule:nonzero;fill:rgb(36.078432%,38.039216%,42.352942%);fill-opacity:1;" d="M 5.203125 2.792969 C 4.871094 2.792969 4.488281 2.882812 4.09375 3.09375 C 2.667969 3.84375 1.355469 6.304688 0.644531 9.496094 C 0.0351562 12.207031 -0.1875 15.910156 0.175781 17.402344 C 0.492188 18.683594 1.035156 19.25 2.007812 19.25 C 3.445312 19.226562 5.25 17.625 6.398438 15.46875 C 7.226562 14.273438 9.148438 13.734375 11 13.792969 C 12.851562 13.726562 14.773438 14.273438 15.601562 15.46875 C 16.75 17.625 18.554688 19.226562 19.992188 19.25 C 20.964844 19.25 21.507812 18.683594 21.824219 17.402344 C 22.1875 15.910156 21.964844 12.207031 21.355469 9.496094 C 20.644531 6.304688 19.332031 3.84375 17.90625 3.09375 C 17.121094 2.675781 16.472656 2.6875 15.902344 3.09375 C 15.175781 3.609375 13.664062 4.164062 11 4.167969 C 8.335938 4.167969 6.824219 3.609375 6.097656 3.09375 C 5.8125 2.890625 5.539062 2.792969 5.203125 2.792969 Z M 5.542969 6.917969 L 6.910156 6.917969 L 6.910156 8.292969 L 8.273438 8.292969 L 8.273438 9.667969 L 6.910156 9.667969 L 6.910156 11.042969 L 5.542969 11.042969 L 5.542969 9.667969 L 4.179688 9.667969 L 4.179688 8.292969 L 5.542969 8.292969 Z M 15.773438 6.917969 C 16.148438 6.917969 16.457031 7.226562 16.457031 7.605469 C 16.457031 7.984375 16.148438 8.292969 15.773438 8.292969 C 15.398438 8.292969 15.089844 7.984375 15.089844 7.605469 C 15.089844 7.226562 15.398438 6.917969 15.773438 6.917969 Z M 14.410156 8.292969 C 14.785156 8.292969 15.089844 8.601562 15.089844 8.980469 C 15.089844 9.359375 14.785156 9.667969 14.410156 9.667969 C 14.03125 9.667969 13.726562 9.359375 13.726562 8.980469 C 13.726562 8.601562 14.03125 8.292969 14.410156 8.292969 Z M 17.136719 8.292969 C 17.511719 8.292969 17.820312 8.601562 17.820312 8.980469 C 17.820312 9.359375 17.511719 9.667969 17.136719 9.667969 C 16.761719 9.667969 16.457031 9.359375 16.457031 8.980469 C 16.457031 8.601562 16.761719 8.292969 17.136719 8.292969 Z M 15.773438 9.667969 C 16.148438 9.667969 16.457031 9.976562 16.457031 10.355469 C 16.457031 10.734375 16.148438 11.042969 15.773438 11.042969 C 15.398438 11.042969 15.089844 10.734375 15.089844 10.355469 C 15.089844 9.976562 15.398438 9.667969 15.773438 9.667969 Z M 15.773438 9.667969 "/>
</g>
</svg>
