<?xml version="1.0" encoding="UTF-8"?>
<svg xmlns="http://www.w3.org/2000/svg" xmlns:xlink="http://www.w3.org/1999/xlink" width="22px" height="22px" viewBox="0 0 22 22" version="1.1">
<g id="surface1">
<path style=" stroke:none;fill-rule:nonzero;fill:rgb(35.686275%,37.64706%,41.960785%);fill-opacity:1;" d="M 4.125 4.125 L 6.875 4.125 L 6.875 6.875 L 4.125 6.875 Z M 15.125 4.125 L 17.875 4.125 L 17.875 6.875 L 15.125 6.875 Z M 4.125 8.25 L 6.875 8.25 L 6.875 11 L 4.125 11 Z M 15.125 8.25 L 17.875 8.25 L 17.875 11 L 15.125 11 Z M 4.125 12.375 L 6.875 12.375 L 6.875 15.125 L 4.125 15.125 Z M 15.125 12.375 L 17.875 12.375 L 17.875 15.125 L 15.125 15.125 Z M 4.125 16.5 L 6.875 16.5 L 6.875 19.25 L 4.125 19.25 Z M 15.125 16.5 L 17.875 16.5 L 17.875 19.25 L 15.125 19.25 Z M 2.75 2.75 L 2.75 20.625 L 19.25 20.625 L 19.25 2.75 Z M 2.75 2.75 "/>
</g>
</svg>
