<?xml version="1.0" encoding="UTF-8"?>
<svg xmlns="http://www.w3.org/2000/svg" xmlns:xlink="http://www.w3.org/1999/xlink" width="22px" height="22px" viewBox="0 0 22 22" version="1.1">
<g id="surface1">
<path style=" stroke:none;fill-rule:nonzero;fill:rgb(36.078432%,38.039216%,42.352942%);fill-opacity:1;" d="M 11.164062 1.394531 C 10.667969 1.371094 10.136719 1.378906 9.570312 1.421875 C 0.589844 2.144531 2.972656 11.632812 2.839844 14.808594 C 2.71875 16.488281 2.164062 18.542969 1.375 20.632812 L 3.800781 20.632812 C 4.050781 19.746094 4.234375 18.871094 4.3125 18.035156 C 4.460938 18.136719 4.617188 18.234375 4.78125 18.328125 C 5.054688 18.488281 5.289062 18.703125 5.535156 18.929688 C 6.113281 19.453125 6.769531 20.054688 8.046875 20.128906 C 8.132812 20.132812 8.222656 20.132812 8.304688 20.132812 C 9.601562 20.132812 10.488281 19.566406 11.199219 19.109375 C 11.539062 18.890625 11.835938 18.703125 12.113281 18.613281 C 12.898438 18.367188 13.585938 17.96875 14.101562 17.460938 C 14.183594 17.382812 14.257812 17.300781 14.328125 17.21875 C 14.613281 18.269531 15.007812 19.449219 15.441406 20.628906 L 20.625 20.628906 C 19.382812 18.707031 18.097656 16.828125 18.125 14.425781 L 18.121094 14.425781 C 18.171875 9.972656 18.601562 1.800781 11.164062 1.394531 Z M 11.625 8.429688 C 13.015625 8.390625 14.179688 9.816406 14.214844 11.609375 C 14.230469 12.421875 14.011719 13.167969 13.640625 13.746094 C 13.558594 13.707031 13.472656 13.667969 13.382812 13.628906 C 12.96875 13.453125 12.636719 13.332031 12.359375 13.234375 C 12.511719 12.9375 12.609375 12.566406 12.617188 12.160156 L 12.617188 12.15625 C 12.636719 11.171875 12.140625 10.375 11.507812 10.371094 C 10.875 10.371094 10.339844 11.167969 10.320312 12.152344 C 10.320312 12.183594 10.320312 12.21875 10.320312 12.25 C 9.929688 12.070312 9.546875 11.941406 9.171875 11.859375 C 9.167969 11.824219 9.164062 11.785156 9.164062 11.746094 C 9.128906 9.953125 10.230469 8.46875 11.625 8.429688 Z M 5.363281 8.925781 C 6.367188 8.867188 7.253906 10.078125 7.34375 11.628906 C 7.347656 11.710938 7.351562 11.796875 7.351562 11.878906 C 7.03125 11.957031 6.746094 12.074219 6.488281 12.207031 C 6.488281 12.199219 6.488281 12.183594 6.484375 12.171875 C 6.398438 11.292969 5.929688 10.628906 5.4375 10.6875 C 4.941406 10.75 4.609375 11.511719 4.695312 12.390625 C 4.695312 12.390625 4.695312 12.394531 4.695312 12.394531 C 4.734375 12.777344 4.84375 13.121094 4.996094 13.378906 C 4.960938 13.410156 4.851562 13.488281 4.726562 13.578125 C 4.632812 13.644531 4.519531 13.730469 4.382812 13.832031 C 4.007812 13.339844 3.75 12.636719 3.707031 11.839844 C 3.617188 10.289062 4.359375 8.984375 5.363281 8.925781 Z M 8.285156 12.855469 C 9.007812 12.855469 9.804688 13.136719 10.65625 13.683594 C 11.058594 13.945312 11.40625 14.0625 11.847656 14.214844 C 12.152344 14.320312 12.496094 14.4375 12.957031 14.636719 L 12.964844 14.640625 C 13.394531 14.816406 13.902344 15.140625 13.878906 15.671875 C 13.84375 16.492188 12.773438 17.261719 11.78125 17.570312 L 11.777344 17.574219 C 11.363281 17.707031 11 17.941406 10.609375 18.1875 C 9.957031 18.605469 9.28125 19.039062 8.304688 19.039062 C 8.242188 19.039062 8.175781 19.039062 8.113281 19.035156 C 7.21875 18.984375 6.800781 18.601562 6.269531 18.121094 C 5.992188 17.863281 5.707031 17.601562 5.332031 17.382812 L 5.324219 17.378906 C 4.523438 16.925781 4.023438 16.363281 3.992188 15.871094 C 3.976562 15.628906 4.082031 15.417969 4.3125 15.246094 C 4.8125 14.871094 5.148438 14.625 5.371094 14.460938 C 5.617188 14.28125 5.691406 14.226562 5.746094 14.175781 C 5.785156 14.136719 5.832031 14.09375 5.875 14.050781 C 6.335938 13.605469 7.105469 12.855469 8.285156 12.855469 Z M 5.222656 15.121094 C 5.085938 15.144531 4.957031 15.222656 4.875 15.347656 C 4.703125 15.597656 4.769531 15.9375 5.019531 16.109375 C 5.671875 16.550781 6.824219 16.878906 8.03125 16.964844 C 8.234375 16.980469 8.460938 16.988281 8.699219 16.988281 C 9.75 16.988281 11.082031 16.890625 12.507812 16.226562 C 12.78125 16.097656 12.898438 15.773438 12.773438 15.5 C 12.644531 15.226562 12.320312 15.109375 12.042969 15.234375 C 10.503906 15.953125 9.074219 15.945312 8.109375 15.875 C 6.960938 15.792969 6.039062 15.476562 5.632812 15.203125 C 5.507812 15.117188 5.359375 15.09375 5.222656 15.121094 Z M 5.222656 15.121094 "/>
</g>
</svg>
