<?xml version="1.0" encoding="UTF-8"?>
<svg xmlns="http://www.w3.org/2000/svg" xmlns:xlink="http://www.w3.org/1999/xlink" width="22px" height="22px" viewBox="0 0 22 22" version="1.1">
<g id="surface1">
<path style=" stroke:none;fill-rule:nonzero;fill:rgb(36.078432%,38.039216%,42.352942%);fill-opacity:1;" d="M 16.335938 11.6875 C 16.308594 8.902344 18.609375 7.566406 18.710938 7.5 C 17.417969 5.609375 15.40625 5.347656 14.6875 5.320312 C 12.976562 5.144531 11.34375 6.328125 10.476562 6.328125 C 9.609375 6.328125 8.265625 5.34375 6.847656 5.371094 C 4.980469 5.398438 3.257812 6.457031 2.296875 8.128906 C 0.355469 11.496094 1.800781 16.480469 3.691406 19.210938 C 4.613281 20.550781 5.714844 22.050781 7.164062 21.996094 C 8.554688 21.941406 9.082031 21.09375 10.765625 21.09375 C 12.449219 21.09375 12.925781 21.996094 14.398438 21.96875 C 15.898438 21.941406 16.847656 20.605469 17.765625 19.265625 C 18.824219 17.714844 19.261719 16.214844 19.289062 16.136719 C 19.253906 16.121094 16.367188 15.015625 16.335938 11.6875 Z M 13.566406 3.511719 C 14.335938 2.578125 14.851562 1.289062 14.710938 -0.00390625 C 13.605469 0.0429688 12.265625 0.734375 11.472656 1.664062 C 10.757812 2.488281 10.136719 3.804688 10.300781 5.066406 C 11.539062 5.164062 12.796875 4.441406 13.566406 3.511719 Z M 13.566406 3.511719 "/>
</g>
</svg>
