<?xml version="1.0" encoding="UTF-8"?>
<svg xmlns="http://www.w3.org/2000/svg" xmlns:xlink="http://www.w3.org/1999/xlink" width="22px" height="22px" viewBox="0 0 22 22" version="1.1">
<g id="surface1">
<path style=" stroke:none;fill-rule:nonzero;fill:rgb(36.078432%,38.039216%,42.352942%);fill-opacity:1;" d="M 8.484375 1.375 C 8.484375 1.375 9.617188 2.015625 8.816406 3.695312 C 7.605469 6.230469 9.933594 6.808594 9.933594 6.808594 C 9.933594 6.808594 9.195312 6.214844 10.179688 4.121094 C 11.269531 1.804688 8.484375 1.375 8.484375 1.375 Z M 12.882812 3.90625 C 12.882812 3.90625 10.625 4.769531 12.078125 7.136719 C 13.042969 8.707031 11.976562 9.484375 11.976562 9.484375 C 11.976562 9.484375 14.703125 8.710938 13.386719 6.542969 C 12.203125 4.585938 12.882812 3.90625 12.882812 3.90625 Z M 6.382812 3.96875 C 6.382812 3.96875 4.40625 5.476562 6.363281 7.324219 C 7.65625 8.558594 6.808594 9.625 6.808594 9.625 C 6.808594 9.625 9.257812 8.066406 7.488281 6.363281 C 5.886719 4.828125 6.382812 3.96875 6.382812 3.96875 Z M 6.808594 9.625 L 1.371094 9.625 L 4.121094 20.625 L 15.121094 20.625 L 15.5 19.117188 C 15.820312 19.195312 16.152344 19.25 16.496094 19.25 C 18.777344 19.25 20.621094 17.402344 20.621094 15.125 C 20.621094 13.191406 19.289062 11.582031 17.492188 11.132812 L 17.871094 9.625 Z M 17.164062 12.460938 C 17.5625 12.5625 17.824219 12.933594 17.941406 13.5 C 18.058594 14.0625 18.015625 14.777344 17.828125 15.480469 C 17.441406 16.914062 16.558594 17.933594 15.832031 17.789062 Z M 17.164062 12.460938 "/>
</g>
</svg>
