<?xml version="1.0" encoding="UTF-8"?>
<svg xmlns="http://www.w3.org/2000/svg" xmlns:xlink="http://www.w3.org/1999/xlink" width="22px" height="22px" viewBox="0 0 22 22" version="1.1">
<g id="surface1">
<path style=" stroke:none;fill-rule:nonzero;fill:rgb(36.078432%,38.039216%,42.352942%);fill-opacity:1;" d="M 10.992188 2.75 C 8.421875 2.75 6.324219 4.859375 6.25 7.496094 C 6.1875 7.511719 6.125 7.535156 6.0625 7.566406 C 5.472656 7.878906 5.320312 8.855469 5.726562 9.757812 C 6.050781 10.480469 6.628906 10.929688 7.15625 10.917969 C 7.550781 13.328125 9.121094 15.125 10.992188 15.125 C 10.996094 15.125 11.003906 15.125 11.007812 15.125 C 12.878906 15.125 14.449219 13.328125 14.84375 10.917969 C 15.371094 10.929688 15.945312 10.480469 16.273438 9.757812 C 16.675781 8.855469 16.527344 7.878906 15.9375 7.566406 C 15.875 7.535156 15.8125 7.511719 15.75 7.496094 C 15.675781 4.859375 13.578125 2.75 11.007812 2.75 C 11.003906 2.75 10.996094 2.75 10.992188 2.75 Z M 14.292969 15.125 C 13.894531 16.089844 12.539062 16.8125 10.925781 16.8125 C 9.316406 16.8125 7.972656 16.097656 7.570312 15.140625 C 4.175781 15.496094 1.703125 16.363281 1.40625 17.390625 C 1.402344 17.402344 1.40625 17.414062 1.40625 17.421875 C 1.394531 17.460938 1.390625 17.492188 1.386719 17.53125 C 1.386719 17.546875 1.375 17.558594 1.375 17.578125 C 1.375 17.582031 1.375 17.585938 1.375 17.589844 L 1.375 20.132812 C 1.375 20.40625 1.589844 20.625 1.855469 20.625 L 20.144531 20.625 C 20.410156 20.625 20.625 20.40625 20.625 20.132812 L 20.625 17.589844 C 20.625 17.578125 20.625 17.570312 20.625 17.5625 C 20.621094 17.5 20.597656 17.449219 20.578125 17.390625 C 20.277344 16.351562 17.75 15.472656 14.292969 15.125 Z M 14.292969 15.125 "/>
</g>
</svg>
