<?xml version="1.0" encoding="UTF-8"?>
<svg xmlns="http://www.w3.org/2000/svg" xmlns:xlink="http://www.w3.org/1999/xlink" width="22px" height="22px" viewBox="0 0 22 22" version="1.1">
<g id="surface1">
<path style=" stroke:none;fill-rule:nonzero;fill:rgb(36.078432%,38.039216%,42.352942%);fill-opacity:1;" d="M 11 1.375 C 5.683594 1.375 1.375 5.683594 1.375 11 C 1.375 16.316406 5.683594 20.625 11 20.625 C 16.316406 20.625 20.625 16.316406 20.625 11 C 20.625 5.683594 16.316406 1.375 11 1.375 Z M 10.3125 4.039062 C 10.40625 4.03125 10.519531 4.042969 10.613281 4.039062 C 10.625 4.082031 10.546875 4.238281 10.441406 4.46875 C 9.773438 5.929688 9.734375 7.636719 10.355469 8.550781 C 10.46875 8.714844 10.570312 8.875 10.570312 8.894531 C 10.570312 8.914062 10.449219 8.9375 10.3125 8.9375 C 9.992188 8.9375 9.6875 8.742188 9.066406 8.25 C 8.789062 8.03125 8.433594 7.847656 8.292969 7.820312 C 8.074219 7.777344 8.015625 7.796875 7.734375 8.078125 C 7.472656 8.339844 7.390625 8.480469 7.390625 8.722656 C 7.390625 9.632812 8.472656 10.359375 10.484375 10.785156 C 13.214844 11.363281 13.890625 11.882812 13.964844 13.320312 C 14.058594 15.121094 13.101562 16.480469 11 17.53125 C 10.75 17.65625 10.589844 17.707031 10.484375 17.746094 C 10.4375 17.742188 10.402344 17.75 10.355469 17.746094 C 10.335938 17.691406 10.3125 17.5625 10.3125 17.316406 C 10.3125 16.359375 9.9375 15.375 9.367188 14.824219 C 9.214844 14.675781 8.789062 14.363281 8.421875 14.136719 C 8.054688 13.910156 7.6875 13.648438 7.605469 13.535156 C 7.46875 13.347656 7.457031 13.234375 7.5625 12.890625 C 7.753906 12.261719 7.980469 11.914062 8.421875 11.515625 C 8.652344 11.308594 8.886719 11.132812 8.9375 11.128906 C 8.988281 11.125 8.640625 11.019531 8.121094 10.914062 C 7.601562 10.808594 6.839844 10.582031 6.445312 10.441406 C 5.726562 10.179688 4.753906 9.632812 4.382812 9.238281 C 4.367188 9.222656 4.355469 9.210938 4.339844 9.195312 C 4.871094 7.082031 6.359375 5.347656 8.335938 4.511719 C 8.75 4.335938 9.175781 4.21875 9.625 4.125 C 9.847656 4.078125 10.082031 4.0625 10.3125 4.039062 Z M 16.757812 7.261719 C 16.917969 7.363281 17.527344 8.679688 17.703125 9.324219 C 17.929688 10.15625 17.910156 11.59375 17.703125 12.417969 C 17.625 12.730469 17.523438 13.027344 17.488281 13.0625 C 17.453125 13.097656 17.332031 12.886719 17.1875 12.632812 C 17.042969 12.378906 16.582031 11.832031 16.199219 11.429688 C 15.09375 10.261719 14.917969 9.652344 15.382812 8.722656 C 15.617188 8.253906 16.632812 7.183594 16.757812 7.261719 Z M 16.757812 7.261719 "/>
</g>
</svg>
