<?xml version="1.0" encoding="UTF-8"?>
<svg xmlns="http://www.w3.org/2000/svg" xmlns:xlink="http://www.w3.org/1999/xlink" width="22px" height="22px" viewBox="0 0 22 22" version="1.1">
<g id="surface1">
<path style=" stroke:none;fill-rule:nonzero;fill:rgb(36.078432%,38.039216%,42.352942%);fill-opacity:1;" d="M 8.25 1.367188 C 6.875 1.367188 6.875 2.742188 6.875 2.742188 L 2.75 2.742188 C 2.75 2.742188 1.375 2.742188 1.375 4.121094 L 1.375 5.5 L 19.25 5.496094 L 19.25 4.121094 C 19.25 2.746094 17.875 2.742188 17.875 2.742188 L 13.75 2.742188 C 13.75 2.742188 13.75 1.367188 12.375 1.367188 Z M 2.75 6.875 L 2.75 19.25 C 2.75 19.96875 3.40625 20.625 4.125 20.625 L 16.5 20.625 C 17.21875 20.625 17.875 19.96875 17.875 19.25 L 17.875 6.875 Z M 2.75 6.875 "/>
</g>
</svg>
