<?xml version="1.0" encoding="UTF-8"?>
<svg xmlns="http://www.w3.org/2000/svg" xmlns:xlink="http://www.w3.org/1999/xlink" width="16px" height="16px" viewBox="0 0 16 16" version="1.1">
<g id="surface1">
<path style="fill-rule:nonzero;fill:rgb(81.176472%,70.588237%,54.509807%);fill-opacity:1;stroke-width:0.45;stroke-linecap:round;stroke-linejoin:round;stroke:rgb(40.000001%,25.882354%,5.098039%);stroke-opacity:1;stroke-miterlimit:4;" d="M 279.019531 901.159027 L 312.511719 901.159027 C 314.492188 901.159027 316.097656 902.764496 316.097656 904.744965 L 316.097656 943.756683 C 316.097656 945.737152 314.492188 947.342621 312.511719 947.342621 L 279.019531 947.342621 C 277.039062 947.342621 275.433594 945.737152 275.433594 943.756683 L 275.433594 904.744965 C 275.433594 902.764496 277.039062 901.159027 279.019531 901.159027 Z M 279.019531 901.159027 " transform="matrix(0.333333,0,0,0.333333,-90.666667,-300.120717)"/>
<path style=" stroke:none;fill-rule:nonzero;fill:rgb(32.549021%,40.392157%,42.352942%);fill-opacity:1;" d="M 5.445312 7.136719 C 4.890625 7.136719 4.433594 7.59375 4.433594 8.152344 C 4.433594 8.707031 4.890625 9.164062 5.445312 9.164062 L 10.285156 9.164062 C 10.839844 9.164062 11.300781 8.707031 11.300781 8.152344 C 11.300781 7.59375 10.839844 7.136719 10.285156 7.136719 Z M 5.445312 7.136719 "/>
<path style=" stroke:none;fill-rule:nonzero;fill:rgb(100%,100%,100%);fill-opacity:1;" d="M 5.445312 7.460938 L 10.285156 7.460938 C 10.667969 7.460938 10.976562 7.769531 10.976562 8.152344 C 10.976562 8.535156 10.667969 8.84375 10.285156 8.84375 L 5.445312 8.84375 C 5.066406 8.84375 4.753906 8.535156 4.753906 8.152344 C 4.753906 7.769531 5.066406 7.460938 5.445312 7.460938 Z M 5.445312 7.460938 "/>
<path style=" stroke:none;fill-rule:nonzero;fill:rgb(100%,33.333334%,33.333334%);fill-opacity:1;" d="M 5.445312 7.804688 C 5.25 7.804688 5.101562 7.957031 5.101562 8.152344 C 5.101562 8.347656 5.25 8.496094 5.445312 8.496094 L 8.558594 8.496094 C 8.753906 8.496094 8.902344 8.347656 8.902344 8.152344 C 8.902344 7.957031 8.753906 7.804688 8.558594 7.804688 Z M 5.445312 7.804688 "/>
<path style="fill-rule:nonzero;fill:rgb(47.058824%,26.666668%,12.941177%);fill-opacity:1;stroke-width:0.766;stroke-linecap:round;stroke-linejoin:round;stroke:rgb(47.058824%,26.666668%,12.941177%);stroke-opacity:1;stroke-miterlimit:4;" d="M 295.4375 911.178558 C 290.632812 911.178558 286.097656 913.405121 283.167969 917.201996 L 285.371094 917.201996 C 287.984375 914.424652 291.617188 912.85434 295.4375 912.842621 C 299.175781 912.85434 302.761719 914.366058 305.363281 917.061371 L 304.261719 917.811371 L 308.632812 920.237152 L 307.917969 915.338715 L 306.757812 916.123871 C 303.828125 912.971527 299.726562 911.178558 295.4375 911.178558 Z M 295.4375 911.178558 " transform="matrix(0.333333,0,0,0.333333,-90.666667,-300.120717)"/>
<path style="fill-rule:nonzero;fill:rgb(47.058824%,26.666668%,12.941177%);fill-opacity:1;stroke-width:0.765883;stroke-linecap:round;stroke-linejoin:round;stroke:rgb(47.058824%,26.666668%,12.941177%);stroke-opacity:1;stroke-miterlimit:4;" d="M 296.082031 938.201996 C 300.886719 938.201996 305.410156 935.975433 308.351562 932.178558 L 306.148438 932.178558 C 303.535156 934.944183 299.890625 936.526215 296.082031 936.537933 C 292.332031 936.526215 288.757812 935.014496 286.144531 932.319183 L 287.257812 931.569183 L 282.875 929.131683 L 283.589844 934.04184 L 284.75 933.256683 C 287.679688 936.409027 291.78125 938.190277 296.082031 938.201996 Z M 296.082031 938.201996 " transform="matrix(0.333333,0,0,0.333333,-90.666667,-300.120717)"/>
</g>
</svg>
