<?xml version="1.0" encoding="UTF-8"?>
<svg xmlns="http://www.w3.org/2000/svg" xmlns:xlink="http://www.w3.org/1999/xlink" width="16px" height="16px" viewBox="0 0 16 16" version="1.1">
<g id="surface1">
<path style="fill-rule:nonzero;fill:rgb(94.901961%,94.901961%,94.901961%);fill-opacity:1;stroke-width:0.330112;stroke-linecap:round;stroke-linejoin:round;stroke:rgb(0%,0%,0%);stroke-opacity:1;stroke-miterlimit:4;" d="M 8.90625 3.996094 L 40.5 3.996094 C 42.363281 3.996094 43.875 5.519531 43.875 7.382812 L 43.875 44.167969 C 43.875 46.042969 42.363281 47.554688 40.5 47.554688 L 8.90625 47.554688 C 7.042969 47.554688 5.53125 46.042969 5.53125 44.167969 L 5.53125 7.382812 C 5.53125 5.519531 7.042969 3.996094 8.90625 3.996094 Z M 8.90625 3.996094 " transform="matrix(0.333333,0,0,0.333333,0,0)"/>
<path style=" stroke:none;fill-rule:evenodd;fill:rgb(100%,100%,100%);fill-opacity:1;" d="M 12.707031 9.167969 L 13.648438 10.109375 L 9.890625 13.863281 L 8.953125 12.925781 Z M 12.707031 9.167969 "/>
<path style=" stroke:none;fill-rule:evenodd;fill:rgb(35.294119%,35.294119%,35.294119%);fill-opacity:1;" d="M 10.007812 13.746094 L 13.0625 10.695312 L 12.121094 9.753906 L 9.070312 12.808594 Z M 10.007812 13.746094 "/>
<path style=" stroke:none;fill-rule:evenodd;fill:rgb(35.294119%,35.294119%,35.294119%);fill-opacity:1;" d="M 8.953125 12.925781 L 8.597656 13.746094 L 8.246094 14.570312 L 9.070312 14.214844 L 9.890625 13.863281 Z M 8.953125 12.925781 "/>
<path style=" stroke:none;fill-rule:evenodd;fill:rgb(35.294119%,35.294119%,35.294119%);fill-opacity:1;" d="M 13.765625 8.816406 L 14 9.050781 C 14.195312 9.246094 14.226562 9.527344 14 9.753906 L 13.53125 10.226562 L 12.589844 9.285156 L 13.0625 8.816406 C 13.289062 8.589844 13.570312 8.621094 13.765625 8.816406 Z M 13.765625 8.816406 "/>
<path style=" stroke:none;fill-rule:evenodd;fill:rgb(100%,100%,100%);fill-opacity:1;" d="M 12.121094 10.460938 C 12.1875 10.523438 12.1875 10.628906 12.121094 10.695312 L 10.007812 12.808594 C 9.945312 12.871094 9.839844 12.871094 9.773438 12.808594 C 9.707031 12.742188 9.707031 12.636719 9.773438 12.574219 L 11.886719 10.460938 C 11.953125 10.394531 12.054688 10.394531 12.121094 10.460938 Z M 12.121094 10.460938 "/>
<path style=" stroke:none;fill-rule:evenodd;fill:rgb(35.294119%,35.294119%,35.294119%);fill-opacity:1;" d="M 12.355469 9.519531 C 12.421875 9.457031 12.527344 9.457031 12.589844 9.519531 L 13.296875 10.226562 C 13.359375 10.289062 13.359375 10.394531 13.296875 10.460938 C 13.230469 10.523438 13.125 10.523438 13.0625 10.460938 L 12.355469 9.753906 C 12.292969 9.691406 12.292969 9.585938 12.355469 9.519531 Z M 12.355469 9.519531 "/>
<path style=" stroke:none;fill-rule:nonzero;fill:rgb(50.196081%,50.196081%,50.196081%);fill-opacity:1;" d="M 4.761719 4.875 L 11.851562 4.875 L 11.851562 5.492188 L 4.761719 5.492188 Z M 4.761719 4.875 "/>
<path style=" stroke:none;fill-rule:nonzero;fill:rgb(50.196081%,50.196081%,50.196081%);fill-opacity:1;" d="M 4.761719 6.105469 L 11.851562 6.105469 L 11.851562 6.722656 L 4.761719 6.722656 Z M 4.761719 6.105469 "/>
<path style=" stroke:none;fill-rule:nonzero;fill:rgb(50.196081%,50.196081%,50.196081%);fill-opacity:1;" d="M 4.761719 7.339844 L 11.851562 7.339844 L 11.851562 7.957031 L 4.761719 7.957031 Z M 4.761719 7.339844 "/>
<path style=" stroke:none;fill-rule:nonzero;fill:rgb(50.196081%,50.196081%,50.196081%);fill-opacity:1;" d="M 4.761719 8.574219 L 11.851562 8.574219 L 11.851562 9.191406 L 4.761719 9.191406 Z M 4.761719 8.574219 "/>
<path style=" stroke:none;fill-rule:nonzero;fill:rgb(50.196081%,50.196081%,50.196081%);fill-opacity:1;" d="M 4.761719 9.804688 L 10.734375 9.804688 L 10.734375 10.421875 L 4.761719 10.421875 Z M 4.761719 9.804688 "/>
<path style=" stroke:none;fill-rule:nonzero;fill:rgb(50.196081%,50.196081%,50.196081%);fill-opacity:1;" d="M 4.761719 11.039062 L 8.121094 11.039062 L 8.121094 11.65625 L 4.761719 11.65625 Z M 4.761719 11.039062 "/>
<path style=" stroke:none;fill-rule:nonzero;fill:rgb(35.294119%,35.294119%,35.294119%);fill-opacity:1;" d="M 4.285156 3.039062 C 3.929688 3.039062 3.636719 2.75 3.636719 2.390625 C 3.636719 2.035156 3.929688 1.746094 4.285156 1.746094 C 4.644531 1.746094 4.933594 2.035156 4.933594 2.390625 C 4.933594 2.75 4.644531 3.039062 4.285156 3.039062 Z M 4.285156 3.039062 "/>
<path style="fill-rule:nonzero;fill:rgb(60.000002%,60.000002%,60.000002%);fill-opacity:1;stroke-width:0.258711;stroke-linecap:butt;stroke-linejoin:miter;stroke:rgb(0%,0%,0%);stroke-opacity:1;stroke-miterlimit:4;" d="M -21.473907 -5.257897 L -15.934231 -5.257897 C -15.421505 -5.257897 -15.009094 -4.845487 -15.009094 -4.33276 C -15.009094 -3.820033 -15.421505 -3.407623 -15.934231 -3.407623 L -21.473907 -3.407623 C -21.986633 -3.407623 -22.399044 -3.820033 -22.399044 -4.33276 C -22.399044 -4.845487 -21.986633 -5.257897 -21.473907 -5.257897 Z M -21.473907 -5.257897 " transform="matrix(0,0.350455,-0.350455,0,2.76672,7.974854)"/>
<path style=" stroke:none;fill-rule:nonzero;fill:rgb(35.294119%,35.294119%,35.294119%);fill-opacity:1;" d="M 6.753906 3.039062 C 6.394531 3.039062 6.105469 2.75 6.105469 2.390625 C 6.105469 2.035156 6.394531 1.746094 6.753906 1.746094 C 7.109375 1.746094 7.398438 2.035156 7.398438 2.390625 C 7.398438 2.75 7.109375 3.039062 6.753906 3.039062 Z M 6.753906 3.039062 "/>
<path style="fill-rule:nonzero;fill:rgb(60.000002%,60.000002%,60.000002%);fill-opacity:1;stroke-width:0.258711;stroke-linecap:butt;stroke-linejoin:miter;stroke:rgb(0%,0%,0%);stroke-opacity:1;stroke-miterlimit:4;" d="M -21.473907 -12.291168 L -15.934231 -12.291168 C -15.421505 -12.291168 -15.009094 -11.878757 -15.009094 -11.377177 C -15.009094 -10.86445 -15.421505 -10.45204 -15.934231 -10.45204 L -21.473907 -10.45204 C -21.986633 -10.45204 -22.399044 -10.86445 -22.399044 -11.377177 C -22.399044 -11.878757 -21.986633 -12.291168 -21.473907 -12.291168 Z M -21.473907 -12.291168 " transform="matrix(0,0.350455,-0.350455,0,2.76672,7.974854)"/>
<path style=" stroke:none;fill-rule:nonzero;fill:rgb(35.294119%,35.294119%,35.294119%);fill-opacity:1;" d="M 9.21875 3.039062 C 8.859375 3.039062 8.570312 2.75 8.570312 2.390625 C 8.570312 2.035156 8.859375 1.746094 9.21875 1.746094 C 9.574219 1.746094 9.867188 2.035156 9.867188 2.390625 C 9.867188 2.75 9.574219 3.039062 9.21875 3.039062 Z M 9.21875 3.039062 "/>
<path style="fill-rule:nonzero;fill:rgb(60.000002%,60.000002%,60.000002%);fill-opacity:1;stroke-width:0.258711;stroke-linecap:butt;stroke-linejoin:miter;stroke:rgb(0%,0%,0%);stroke-opacity:1;stroke-miterlimit:4;" d="M -21.473907 -19.335584 L -15.934231 -19.335584 C -15.421505 -19.335584 -15.009094 -18.923174 -15.009094 -18.410447 C -15.009094 -17.897721 -15.421505 -17.48531 -15.934231 -17.48531 L -21.473907 -17.48531 C -21.986633 -17.48531 -22.399044 -17.897721 -22.399044 -18.410447 C -22.399044 -18.923174 -21.986633 -19.335584 -21.473907 -19.335584 Z M -21.473907 -19.335584 " transform="matrix(0,0.350455,-0.350455,0,2.76672,7.974854)"/>
<path style=" stroke:none;fill-rule:nonzero;fill:rgb(35.294119%,35.294119%,35.294119%);fill-opacity:1;" d="M 11.683594 3.039062 C 11.328125 3.039062 11.035156 2.75 11.035156 2.390625 C 11.035156 2.035156 11.328125 1.746094 11.683594 1.746094 C 12.042969 1.746094 12.332031 2.035156 12.332031 2.390625 C 12.332031 2.75 12.042969 3.039062 11.683594 3.039062 Z M 11.683594 3.039062 "/>
<path style="fill-rule:nonzero;fill:rgb(60.000002%,60.000002%,60.000002%);fill-opacity:1;stroke-width:0.258711;stroke-linecap:butt;stroke-linejoin:miter;stroke:rgb(0%,0%,0%);stroke-opacity:1;stroke-miterlimit:4;" d="M -21.473907 -26.368855 L -15.934231 -26.368855 C -15.421505 -26.368855 -15.009094 -25.956444 -15.009094 -25.443718 C -15.009094 -24.930991 -15.421505 -24.518581 -15.934231 -24.518581 L -21.473907 -24.518581 C -21.986633 -24.518581 -22.399044 -24.930991 -22.399044 -25.443718 C -22.399044 -25.956444 -21.986633 -26.368855 -21.473907 -26.368855 Z M -21.473907 -26.368855 " transform="matrix(0,0.350455,-0.350455,0,2.76672,7.974854)"/>
</g>
</svg>
