<?xml version="1.0" encoding="UTF-8"?>
<svg xmlns="http://www.w3.org/2000/svg" xmlns:xlink="http://www.w3.org/1999/xlink" width="16px" height="16px" viewBox="0 0 16 16" version="1.1">
<g id="surface1">
<path style=" stroke:none;fill-rule:nonzero;fill:rgb(83.137256%,37.64706%,37.64706%);fill-opacity:1;" d="M 2.394531 0.171875 L 13.78125 0.171875 C 14.453125 0.171875 15 0.714844 15 1.390625 L 15 14.652344 C 15 15.324219 14.453125 15.871094 13.78125 15.871094 L 2.394531 15.871094 C 1.722656 15.871094 1.175781 15.324219 1.175781 14.652344 L 1.175781 1.390625 C 1.175781 0.714844 1.722656 0.171875 2.394531 0.171875 Z M 2.394531 0.171875 "/>
<path style=" stroke:none;fill-rule:nonzero;fill:rgb(94.901961%,94.901961%,94.901961%);fill-opacity:1;" d="M 3.558594 1.777344 C 3.023438 1.777344 2.589844 2.210938 2.589844 2.746094 L 2.589844 13.292969 C 2.589844 13.832031 3.023438 14.261719 3.558594 14.261719 L 12.613281 14.261719 C 13.152344 14.261719 13.585938 13.832031 13.585938 13.292969 L 13.585938 7.695312 L 7.667969 1.777344 Z M 9.941406 1.777344 L 13.585938 5.417969 L 13.585938 2.746094 C 13.585938 2.210938 13.152344 1.777344 12.613281 1.777344 Z M 9.941406 1.777344 "/>
<path style=" stroke:none;fill-rule:nonzero;fill:rgb(47.843137%,47.843137%,47.843137%);fill-opacity:1;" d="M 4.316406 7.046875 L 11.128906 7.046875 L 11.128906 7.800781 L 4.316406 7.800781 Z M 4.316406 7.046875 "/>
<path style=" stroke:none;fill-rule:nonzero;fill:rgb(47.843137%,47.843137%,47.843137%);fill-opacity:1;" d="M 5.832031 8.558594 L 7.722656 8.558594 L 7.722656 9.316406 L 5.832031 9.316406 Z M 5.832031 8.558594 "/>
<path style=" stroke:none;fill-rule:nonzero;fill:rgb(47.843137%,47.843137%,47.843137%);fill-opacity:1;" d="M 5.074219 8.9375 C 5.074219 9.074219 5.003906 9.199219 4.886719 9.269531 C 4.769531 9.335938 4.621094 9.335938 4.503906 9.269531 C 4.386719 9.199219 4.316406 9.074219 4.316406 8.9375 C 4.316406 8.800781 4.386719 8.675781 4.503906 8.609375 C 4.621094 8.542969 4.769531 8.542969 4.886719 8.609375 C 5.003906 8.675781 5.074219 8.800781 5.074219 8.9375 Z M 5.074219 8.9375 "/>
<path style=" stroke:none;fill-rule:nonzero;fill:rgb(47.843137%,47.843137%,47.843137%);fill-opacity:1;" d="M 5.832031 9.695312 L 7.722656 9.695312 L 7.722656 10.453125 L 5.832031 10.453125 Z M 5.832031 9.695312 "/>
<path style=" stroke:none;fill-rule:nonzero;fill:rgb(47.843137%,47.843137%,47.843137%);fill-opacity:1;" d="M 5.074219 10.074219 C 5.074219 10.210938 5.003906 10.335938 4.886719 10.402344 C 4.769531 10.472656 4.621094 10.472656 4.503906 10.402344 C 4.386719 10.335938 4.316406 10.210938 4.316406 10.074219 C 4.316406 9.941406 4.386719 9.8125 4.503906 9.746094 C 4.621094 9.675781 4.769531 9.675781 4.886719 9.746094 C 5.003906 9.8125 5.074219 9.941406 5.074219 10.074219 Z M 5.074219 10.074219 "/>
<path style=" stroke:none;fill-rule:nonzero;fill:rgb(47.843137%,47.843137%,47.843137%);fill-opacity:1;" d="M 5.832031 10.832031 L 7.722656 10.832031 L 7.722656 11.589844 L 5.832031 11.589844 Z M 5.832031 10.832031 "/>
<path style=" stroke:none;fill-rule:nonzero;fill:rgb(47.843137%,47.843137%,47.843137%);fill-opacity:1;" d="M 5.074219 11.210938 C 5.074219 11.347656 5.003906 11.472656 4.886719 11.539062 C 4.769531 11.605469 4.621094 11.605469 4.503906 11.539062 C 4.386719 11.472656 4.316406 11.347656 4.316406 11.210938 C 4.316406 11.074219 4.386719 10.949219 4.503906 10.878906 C 4.621094 10.8125 4.769531 10.8125 4.886719 10.878906 C 5.003906 10.949219 5.074219 11.074219 5.074219 11.210938 Z M 5.074219 11.210938 "/>
<path style=" stroke:none;fill-rule:evenodd;fill:rgb(47.843137%,47.843137%,47.843137%);fill-opacity:1;" d="M 9.800781 8.542969 C 8.957031 8.542969 8.273438 9.226562 8.273438 10.066406 C 8.273438 10.910156 8.957031 11.59375 9.800781 11.59375 C 10.644531 11.59375 11.324219 10.910156 11.324219 10.066406 L 9.800781 10.066406 Z M 9.800781 8.542969 "/>
</g>
</svg>
