<?xml version="1.0" encoding="UTF-8"?>
<svg xmlns="http://www.w3.org/2000/svg" xmlns:xlink="http://www.w3.org/1999/xlink" width="16px" height="16px" viewBox="0 0 16 16" version="1.1">
<g id="surface1">
<path style=" stroke:none;fill-rule:nonzero;fill:rgb(17.647059%,61.176473%,94.901961%);fill-opacity:1;" d="M 2.394531 0.171875 L 13.78125 0.171875 C 14.453125 0.171875 15 0.71875 15 1.390625 L 15 14.652344 C 15 15.324219 14.453125 15.871094 13.78125 15.871094 L 2.394531 15.871094 C 1.722656 15.871094 1.175781 15.324219 1.175781 14.652344 L 1.175781 1.390625 C 1.175781 0.71875 1.722656 0.171875 2.394531 0.171875 Z M 2.394531 0.171875 "/>
<path style=" stroke:none;fill-rule:nonzero;fill:rgb(100%,100%,100%);fill-opacity:1;" d="M 5.257812 1.800781 C 3.347656 1.800781 1.800781 3.347656 1.800781 5.257812 C 1.800781 5.84375 1.953125 6.414062 2.210938 6.902344 C 2.125 7.3125 2.078125 7.730469 2.078125 8.167969 C 2.078125 11.53125 4.804688 14.257812 8.171875 14.257812 C 8.609375 14.257812 9.027344 14.210938 9.4375 14.125 C 9.925781 14.390625 10.488281 14.535156 11.082031 14.535156 C 12.992188 14.535156 14.535156 12.992188 14.535156 11.082031 C 14.535156 10.488281 14.386719 9.921875 14.125 9.4375 C 14.210938 9.027344 14.257812 8.605469 14.257812 8.171875 C 14.257812 4.8125 11.53125 2.082031 8.167969 2.082031 C 7.730469 2.082031 7.308594 2.125 6.898438 2.214844 C 6.414062 1.953125 5.84375 1.800781 5.253906 1.800781 "/>
<path style=" stroke:none;fill-rule:nonzero;fill:rgb(17.647059%,61.176473%,94.901961%);fill-opacity:1;" d="M 8.035156 3.707031 C 10.214844 3.707031 11.34375 4.855469 11.34375 5.527344 C 11.34375 6.199219 11.015625 6.300781 10.480469 6.300781 C 9.441406 6.300781 9.867188 5.054688 7.917969 5.054688 C 7.273438 5.054688 6.464844 5.347656 6.464844 6.097656 C 6.464844 6.699219 7.179688 6.921875 8.441406 7.230469 C 10.339844 7.734375 11.761719 8.238281 11.761719 9.96875 C 11.761719 11.652344 10.386719 12.496094 8.203125 12.496094 C 6.019531 12.496094 4.625 11.199219 4.625 10.527344 C 4.625 9.855469 4.882812 9.683594 5.417969 9.683594 C 6.460938 9.683594 6.320312 11.097656 8.269531 11.097656 C 8.917969 11.097656 9.871094 10.804688 9.871094 10.054688 C 9.871094 9.457031 9.824219 9.246094 8.4375 8.878906 C 6.960938 8.679688 4.574219 8.199219 4.574219 6.371094 C 4.574219 4.6875 5.851562 3.710938 8.035156 3.710938 "/>
</g>
</svg>
