<?xml version="1.0" encoding="UTF-8" standalone="no"?>
<svg
   xmlns:dc="http://purl.org/dc/elements/1.1/"
   xmlns:cc="http://creativecommons.org/ns#"
   xmlns:rdf="http://www.w3.org/1999/02/22-rdf-syntax-ns#"
   xmlns:svg="http://www.w3.org/2000/svg"
   xmlns="http://www.w3.org/2000/svg"
   xmlns:sodipodi="http://sodipodi.sourceforge.net/DTD/sodipodi-0.dtd"
   xmlns:inkscape="http://www.inkscape.org/namespaces/inkscape"
   height="48"
   width="48"
   version="1"
   id="svg21"
   sodipodi:docname="akonaditray.svg"
   inkscape:version="0.92.2 2405546, 2018-03-11">
  <metadata
     id="metadata25">
    <rdf:RDF>
      <cc:Work
         rdf:about="">
        <dc:format>image/svg+xml</dc:format>
        <dc:type
           rdf:resource="http://purl.org/dc/dcmitype/StillImage" />
      </cc:Work>
    </rdf:RDF>
  </metadata>
  <sodipodi:namedview
     pagecolor="#ffffff"
     bordercolor="#666666"
     borderopacity="1"
     objecttolerance="10"
     gridtolerance="10"
     guidetolerance="10"
     inkscape:pageopacity="0"
     inkscape:pageshadow="2"
     inkscape:window-width="1920"
     inkscape:window-height="1012"
     id="namedview23"
     showgrid="false"
     inkscape:zoom="4.9166667"
     inkscape:cx="24"
     inkscape:cy="24"
     inkscape:window-x="0"
     inkscape:window-y="38"
     inkscape:window-maximized="1"
     inkscape:current-layer="svg21" />
  <defs
     id="defs5">
    <clipPath
       id="clipPath4186"
       clipPathUnits="userSpaceOnUse">
      <circle
         cx="286"
         cy="26"
         r="10"
         fill="url(#linearGradient4190)"
         id="circle2" />
    </clipPath>
  </defs>
  <path
     d="M 44.630508,24 A 20.630508,20.630508 0 0 1 24,44.630508 20.630508,20.630508 0 0 1 3.3694915,24 20.630508,20.630508 0 0 1 24,3.3694915 20.630508,20.630508 0 0 1 44.630508,24 Z"
     id="path7"
     inkscape:connector-curvature="0"
     style="fill:#cddff0;stroke-width:1.21355927" />
  <circle
     style="color:#000000;opacity:0;stroke-width:0.45500001"
     clip-path="url(#clipPath4186)"
     r="10"
     transform="matrix(2.4271186,0,0,2.4271186,-670.15593,-39.105085)"
     cy="26"
     cx="286"
     id="circle9" />
  <circle
     style="color:#000000;opacity:0;stroke-width:0.90899998"
     clip-path="url(#clipPath4186)"
     r="10"
     transform="matrix(2.4271186,0,0,2.4271186,-670.15593,-39.105085)"
     cy="26"
     cx="286"
     id="circle11" />
  <path
     d="M 24,3.3694915 A 20.630508,20.630508 0 0 0 3.3694915,24 20.630508,20.630508 0 0 0 3.3955831,24.703864 20.630508,20.630508 0 0 1 23.999393,4.5830508 20.630508,20.630508 0 0 1 44.604417,24.509695 20.630508,20.630508 0 0 0 44.629902,24 20.630508,20.630508 0 0 0 23.999393,3.3694915 Z"
     id="path13"
     inkscape:connector-curvature="0"
     style="opacity:0.5;fill:#ffffff;stroke-width:1.21355927" />
  <path
     d="M 36.746014,42.750705 C 25.7184,49.118251 11.615627,45.339227 5.2492949,34.311614 -1.1182508,23.282786 2.6602875,9.1812271 13.688386,2.8136814 26.68318,2.7539985 34.934169,30.833553 36.746014,42.750705 Z"
     id="path15"
     inkscape:connector-curvature="0"
     style="fill:#85b4df;stroke-width:1.21355927" />
  <path
     d="M 47.057627,24 C 47.057627,36.733878 36.733878,47.057627 24,47.057627 11.266122,47.057627 0.94237288,36.733878 0.94237288,24 7.3879505,12.716447 35.83099,19.61092 47.057627,24 Z"
     id="path17"
     inkscape:connector-curvature="0"
     style="fill:#608ab5;stroke-width:1.21355927" />
  <path
     style="color:#000000;opacity:0.2;stroke-width:1.21355927"
     d="m 0.99928881,23.90827 c -0.0174753,0.02913 -0.0398047,0.05461 -0.0569159,0.08495 0,12.733878 10.32374909,23.057627 23.05762709,23.057627 12.733878,0 23.057627,-10.323749 23.057627,-23.057627 -0.0182,-0.0073 -0.04126,-0.01456 -0.05946,-0.02184 C 46.374393,36.148229 36.33219,45.837287 24,45.837287 11.645966,45.837287 1.5916271,36.11425 0.99941017,23.90827 Z"
     id="path19"
     inkscape:connector-curvature="0" />
</svg>
