<?xml version="1.0" encoding="UTF-8" standalone="no"?>
<svg
   xmlns:dc="http://purl.org/dc/elements/1.1/"
   xmlns:cc="http://creativecommons.org/ns#"
   xmlns:rdf="http://www.w3.org/1999/02/22-rdf-syntax-ns#"
   xmlns:svg="http://www.w3.org/2000/svg"
   xmlns="http://www.w3.org/2000/svg"
   xmlns:sodipodi="http://sodipodi.sourceforge.net/DTD/sodipodi-0.dtd"
   xmlns:inkscape="http://www.inkscape.org/namespaces/inkscape"
   height="48"
   width="48"
   version="1"
   id="svg22"
   sodipodi:docname="amazon-store.svg"
   inkscape:version="0.92.2 2405546, 2018-03-11">
  <metadata
     id="metadata28">
    <rdf:RDF>
      <cc:Work
         rdf:about="">
        <dc:format>image/svg+xml</dc:format>
        <dc:type
           rdf:resource="http://purl.org/dc/dcmitype/StillImage" />
      </cc:Work>
    </rdf:RDF>
  </metadata>
  <defs
     id="defs26" />
  <sodipodi:namedview
     pagecolor="#ffffff"
     bordercolor="#666666"
     borderopacity="1"
     objecttolerance="10"
     gridtolerance="10"
     guidetolerance="10"
     inkscape:pageopacity="0"
     inkscape:pageshadow="2"
     inkscape:window-width="1920"
     inkscape:window-height="1013"
     id="namedview24"
     showgrid="false"
     inkscape:zoom="4.9166667"
     inkscape:cx="-12.305085"
     inkscape:cy="24"
     inkscape:window-x="0"
     inkscape:window-y="0"
     inkscape:window-maximized="1"
     inkscape:current-layer="svg22" />
  <polygon
     points="502 812.5 551.5 721.5 612.5 637 628.5 616 668 619.5 707 615 713 603 688.5 578 676.5 569.5 693.5 560.5 693.5 540 732.5 497.5 664 430.5 588 333 517.5 214 500 192 386 355 328 328 304 332.5 299.5 366 318.5 403.5 338 431 309.5 462 275.5 507 300 533 304 551 318.5 569.5 340.5 583 351.5 604.5 373.5 617 395 637.5 452.5 723 488.5 788.5"
     fill="#5a0e00"
     transform="matrix(.063142 0 0 .063142 -131 -8.0295)"
     display="none"
     id="polygon2" />
  <rect
     ry="3.6578989"
     rx="3.6578989"
     y="0.51302302"
     x="3.5253937"
     height="47.096165"
     width="41.474606"
     id="rect859"
     style="opacity:1;fill:#364558;fill-opacity:1;stroke:none;stroke-width:0.35695893;stroke-linecap:round;stroke-linejoin:round;stroke-miterlimit:4;stroke-dasharray:none;stroke-opacity:1;paint-order:stroke fill markers" />
  <g
     style="opacity:0.2;fill-rule:evenodd"
     id="g831"
     transform="translate(0.20338976,0.38983051)">
    <path
       inkscape:connector-curvature="0"
       id="path827"
       d="m 25.861,22.175 c 0,1.367 0.035,2.504 -0.625,3.715 -0.531,0.984 -1.375,1.59 -2.316,1.59 -1.285,0 -2.031,-1.023 -2.031,-2.535 0,-2.984 2.555,-3.527 4.973,-3.527 v 0.758 m 3.375,8.531 c -0.219,0.207 -0.539,0.223 -0.789,0.086 -1.109,-0.965 -1.309,-1.414 -1.922,-2.336 -1.836,1.961 -3.133,2.547 -5.516,2.547 -2.816,0 -5.01,-1.816 -5.01,-5.453 0,-2.84 1.473,-4.777 3.566,-5.723 1.813,-0.836 4.352,-0.984 6.293,-1.215 V 18.16 c 0,-0.832 0.063,-1.816 -0.402,-2.535 -0.41,-0.645 -1.191,-0.91 -1.879,-0.91 -1.277,0 -2.414,0.684 -2.691,2.102 -0.059,0.316 -0.277,0.625 -0.582,0.641 l -3.246,-0.363 c -0.273,-0.066 -0.574,-0.297 -0.5,-0.734 0.75,-4.109 4.305,-5.352 7.484,-5.352 1.629,0 3.758,0.453 5.04,1.742 1.629,1.59 1.473,3.711 1.473,6.02 v 5.453 c 0,1.641 0.648,2.359 1.262,3.246 0.215,0.313 0.262,0.695 -0.008,0.93 -0.684,0.602 -1.898,1.703 -2.566,2.324 l -0.012,-0.012" />
    <path
       inkscape:connector-curvature="0"
       id="path829"
       d="m 35.092,30.998 c -0.90962,0.01312 -1.9844,0.22259 -2.7969,0.80859 -0.254,0.18 -0.21069,0.42953 0.07031,0.39453 0.914,-0.114 2.9573,-0.36372 3.3203,0.11328 0.367,0.476 -0.40609,2.4452 -0.74609,3.3242 -0.105,0.266 0.11756,0.37488 0.35156,0.17188 1.531,-1.308 1.9224,-4.0503 1.6094,-4.4453 -0.154,-0.1975 -0.89897,-0.38031 -1.8086,-0.36719 z M 11.19,31.525 c -0.18975,0.02545 -0.27372,0.26081 -0.07422,0.44531 3.393,3.144 7.879,5.03 12.859,5.03 3.554,0 7.677,-1.149 10.525,-3.297 l 0.002,-0.0039 c 0.473,-0.36 0.06994,-0.89059 -0.41406,-0.68359 -3.188,1.391 -6.6605,2.0586 -9.8125,2.0586 -4.676,0 -9.2072,-1.3121 -12.867,-3.4961 -0.08,-0.04775 -0.1555,-0.06122 -0.21875,-0.05273 z" />
  </g>
  <g
     style="fill-rule:evenodd"
     transform="translate(0.20338976,-0.61016948)"
     id="g837">
    <path
       style="fill:#ffffff"
       inkscape:connector-curvature="0"
       id="path833"
       d="m 25.861,22.175 c 0,1.367 0.035,2.504 -0.625,3.715 -0.531,0.984 -1.375,1.59 -2.316,1.59 -1.285,0 -2.031,-1.023 -2.031,-2.535 0,-2.984 2.555,-3.527 4.973,-3.527 v 0.758 m 3.375,8.531 c -0.219,0.207 -0.539,0.223 -0.789,0.086 -1.109,-0.965 -1.309,-1.414 -1.922,-2.336 -1.836,1.961 -3.133,2.547 -5.516,2.547 -2.816,0 -5.01,-1.816 -5.01,-5.453 0,-2.84 1.473,-4.777 3.566,-5.723 1.813,-0.836 4.352,-0.984 6.293,-1.215 V 18.16 c 0,-0.832 0.063,-1.816 -0.402,-2.535 -0.41,-0.645 -1.191,-0.91 -1.879,-0.91 -1.277,0 -2.414,0.684 -2.691,2.102 -0.059,0.316 -0.277,0.625 -0.582,0.641 l -3.246,-0.363 c -0.273,-0.066 -0.574,-0.297 -0.5,-0.734 0.75,-4.109 4.305,-5.352 7.484,-5.352 1.629,0 3.758,0.453 5.04,1.742 1.629,1.59 1.473,3.711 1.473,6.02 v 5.453 c 0,1.641 0.648,2.359 1.262,3.246 0.215,0.313 0.262,0.695 -0.008,0.93 -0.684,0.602 -1.898,1.703 -2.566,2.324 l -0.012,-0.012" />
    <path
       style="fill:#ff9900"
       inkscape:connector-curvature="0"
       id="path835"
       d="m 35.092,30.998 c -0.91,0.013 -1.985,0.223 -2.797,0.809 -0.254,0.18 -0.211,0.429 0.07,0.394 0.914,-0.114 2.958,-0.364 3.321,0.113 0.367,0.476 -0.407,2.446 -0.747,3.325 -0.105,0.266 0.118,0.375 0.352,0.172 1.531,-1.308 1.922,-4.051 1.609,-4.446 -0.154,-0.197 -0.899,-0.38 -1.808,-0.367 z M 11.189,31.525 C 11,31.551 10.916,31.786 11.115,31.971 14.509,35.114 18.995,37 23.975,37 27.529,37 31.652,35.851 34.5,33.703 l 0.002,-0.004 c 0.473,-0.36 0.07,-0.89 -0.414,-0.683 -3.188,1.391 -6.661,2.058 -9.813,2.058 -4.676,0 -9.207,-1.312 -12.867,-3.496 -0.08,-0.048 -0.155,-0.061 -0.219,-0.053 z" />
  </g>
  <path
     style="opacity:0.223;fill:#000000;fill-opacity:1;stroke:none;stroke-width:0.35695893;stroke-linecap:round;stroke-linejoin:round;stroke-miterlimit:4;stroke-dasharray:none;stroke-opacity:1;paint-order:stroke fill markers"
     d="M 3.5253906 41.509766 L 3.5253906 43.951172 C 3.5253906 45.977648 5.1571178 47.609375 7.1835938 47.609375 L 41.341797 47.609375 C 43.368273 47.609375 45 45.977648 45 43.951172 L 45 41.509766 C 45 43.536242 43.368273 45.167969 41.341797 45.167969 L 7.1835938 45.167969 C 5.1571178 45.167969 3.5253906 43.536242 3.5253906 41.509766 z "
     id="rect839" />
</svg>
