<?xml version="1.0" encoding="UTF-8"?>
<svg xmlns="http://www.w3.org/2000/svg" xmlns:xlink="http://www.w3.org/1999/xlink" width="48px" height="48px" viewBox="0 0 48 48" version="1.1">
<g id="surface1">
<path style="fill-rule:nonzero;fill:rgb(60.000002%,34.117648%,60.000002%);fill-opacity:1;stroke-width:0.302;stroke-linecap:round;stroke-linejoin:round;stroke:rgb(0%,0%,0%);stroke-opacity:1;stroke-miterlimit:4;" d="M 4.635417 1020.677287 L 27.364583 1020.677287 C 28.708333 1020.677287 29.799479 1021.765828 29.799479 1023.109578 L 29.799479 1049.578328 C 29.799479 1050.922078 28.708333 1052.013224 27.364583 1052.013224 L 4.635417 1052.013224 C 3.291667 1052.013224 2.203125 1050.922078 2.203125 1049.578328 L 2.203125 1023.109578 C 2.203125 1021.765828 3.291667 1020.677287 4.635417 1020.677287 Z M 4.635417 1020.677287 " transform="matrix(1.5,0,0,1.5,0,-1530.543274)"/>
<path style=" stroke:none;fill-rule:nonzero;fill:rgb(100%,100%,100%);fill-opacity:1;" d="M 7.566406 7.230469 L 11.71875 7.230469 C 12.195312 7.230469 12.582031 7.824219 12.582031 8.5625 L 12.582031 11.84375 C 12.582031 12.582031 12.195312 13.175781 11.71875 13.175781 L 7.566406 13.175781 C 7.089844 13.175781 6.707031 12.582031 6.707031 11.84375 L 6.707031 8.5625 C 6.707031 7.824219 7.089844 7.230469 7.566406 7.230469 Z M 7.566406 7.230469 "/>
<path style=" stroke:none;fill-rule:nonzero;fill:rgb(100%,100%,100%);fill-opacity:1;" d="M 7.566406 16.089844 L 11.71875 16.089844 C 12.195312 16.089844 12.582031 16.683594 12.582031 17.421875 L 12.582031 20.703125 C 12.582031 21.441406 12.195312 22.039062 11.71875 22.039062 L 7.566406 22.039062 C 7.089844 22.039062 6.707031 21.441406 6.707031 20.703125 L 6.707031 17.421875 C 6.707031 16.683594 7.089844 16.089844 7.566406 16.089844 Z M 7.566406 16.089844 "/>
<path style=" stroke:none;fill-rule:nonzero;fill:rgb(100%,100%,100%);fill-opacity:1;" d="M 7.566406 24.949219 L 11.71875 24.949219 C 12.195312 24.949219 12.582031 25.546875 12.582031 26.285156 L 12.582031 29.566406 C 12.582031 30.304688 12.195312 30.898438 11.71875 30.898438 L 7.566406 30.898438 C 7.089844 30.898438 6.707031 30.304688 6.707031 29.566406 L 6.707031 26.285156 C 6.707031 25.546875 7.089844 24.949219 7.566406 24.949219 Z M 7.566406 24.949219 "/>
<path style=" stroke:none;fill-rule:nonzero;fill:rgb(100%,100%,100%);fill-opacity:1;" d="M 7.566406 33.8125 L 11.71875 33.8125 C 12.195312 33.8125 12.582031 34.40625 12.582031 35.144531 L 12.582031 38.425781 C 12.582031 39.164062 12.195312 39.757812 11.71875 39.757812 L 7.566406 39.757812 C 7.089844 39.757812 6.707031 39.164062 6.707031 38.425781 L 6.707031 35.144531 C 6.707031 34.40625 7.089844 33.8125 7.566406 33.8125 Z M 7.566406 33.8125 "/>
<path style=" stroke:none;fill-rule:nonzero;fill:rgb(100%,100%,100%);fill-opacity:1;" d="M 35.054688 16.089844 L 39.207031 16.089844 C 39.683594 16.089844 40.070312 16.683594 40.070312 17.421875 L 40.070312 20.703125 C 40.070312 21.441406 39.683594 22.039062 39.207031 22.039062 L 35.054688 22.039062 C 34.578125 22.039062 34.195312 21.441406 34.195312 20.703125 L 34.195312 17.421875 C 34.195312 16.683594 34.578125 16.089844 35.054688 16.089844 Z M 35.054688 16.089844 "/>
<path style=" stroke:none;fill-rule:nonzero;fill:rgb(100%,100%,100%);fill-opacity:1;" d="M 35.054688 24.949219 L 39.207031 24.949219 C 39.683594 24.949219 40.070312 25.546875 40.070312 26.285156 L 40.070312 29.566406 C 40.070312 30.304688 39.683594 30.898438 39.207031 30.898438 L 35.054688 30.898438 C 34.578125 30.898438 34.195312 30.304688 34.195312 29.566406 L 34.195312 26.285156 C 34.195312 25.546875 34.578125 24.949219 35.054688 24.949219 Z M 35.054688 24.949219 "/>
<path style=" stroke:none;fill-rule:nonzero;fill:rgb(100%,100%,100%);fill-opacity:1;" d="M 35.054688 33.8125 L 39.207031 33.8125 C 39.683594 33.8125 40.070312 34.40625 40.070312 35.144531 L 40.070312 38.425781 C 40.070312 39.164062 39.683594 39.757812 39.207031 39.757812 L 35.054688 39.757812 C 34.578125 39.757812 34.195312 39.164062 34.195312 38.425781 L 34.195312 35.144531 C 34.195312 34.40625 34.578125 33.8125 35.054688 33.8125 Z M 35.054688 33.8125 "/>
<path style=" stroke:none;fill-rule:nonzero;fill:rgb(100%,100%,100%);fill-opacity:1;" d="M 35.054688 7.089844 L 39.207031 7.089844 C 39.683594 7.089844 40.070312 7.683594 40.070312 8.421875 L 40.070312 11.703125 C 40.070312 12.441406 39.683594 13.039062 39.207031 13.039062 L 35.054688 13.039062 C 34.578125 13.039062 34.195312 12.441406 34.195312 11.703125 L 34.195312 8.421875 C 34.195312 7.683594 34.578125 7.089844 35.054688 7.089844 Z M 35.054688 7.089844 "/>
<path style=" stroke:none;fill-rule:nonzero;fill:rgb(100%,100%,100%);fill-opacity:1;" d="M 19.441406 19.699219 C 18.894531 19.722656 18.460938 20.171875 18.460938 20.71875 L 18.460938 29.351562 C 18.460938 30.109375 19.257812 30.601562 19.933594 30.261719 L 28.570312 25.945312 C 29.316406 25.570312 29.316406 24.5 28.570312 24.125 L 19.933594 19.808594 C 19.78125 19.730469 19.613281 19.695312 19.441406 19.699219 Z M 19.441406 19.699219 "/>
</g>
</svg>
