<?xml version="1.0" encoding="UTF-8"?>
<svg xmlns="http://www.w3.org/2000/svg" xmlns:xlink="http://www.w3.org/1999/xlink" width="48px" height="48px" viewBox="0 0 48 48" version="1.1">
<g id="surface1">
<path style="fill-rule:nonzero;fill:rgb(50.196081%,50.196081%,50.196081%);fill-opacity:1;stroke-width:5.068696;stroke-linecap:round;stroke-linejoin:round;stroke:rgb(0%,0%,0%);stroke-opacity:1;stroke-miterlimit:4;" d="M 71.154228 -7.827779 L 452.635192 -7.827779 C 475.188374 -7.827779 493.501908 10.442047 493.501908 32.99523 L 493.501908 477.240477 C 493.501908 499.793659 475.188374 518.107193 452.635192 518.107193 L 71.154228 518.107193 C 48.601045 518.107193 30.331219 499.793659 30.331219 477.240477 L 30.331219 32.99523 C 30.331219 10.442047 48.601045 -7.827779 71.154228 -7.827779 Z M 71.154228 -7.827779 " transform="matrix(0.0893721,0,0,0.0893721,0.593923,1.172241)"/>
<path style=" stroke:none;fill-rule:nonzero;fill:rgb(100%,100%,100%);fill-opacity:1;" d="M 37.757812 38.230469 L 27.222656 22.242188 L 27.222656 6.5625 L 19.726562 6.5625 L 19.726562 22.242188 L 9.1875 38.230469 C 7.546875 40.722656 9.332031 44.039062 12.316406 44.039062 L 34.628906 44.039062 C 37.613281 44.039062 39.402344 40.722656 37.757812 38.230469 Z M 37.757812 38.230469 "/>
<path style=" stroke:none;fill-rule:nonzero;fill:rgb(100%,80.000001%,0%);fill-opacity:1;" d="M 35.554688 39.15625 L 31.292969 32.691406 C 31.183594 32.523438 30.996094 32.421875 30.796875 32.421875 L 16.148438 32.421875 C 15.949219 32.421875 15.761719 32.523438 15.652344 32.691406 L 11.390625 39.15625 C 11.023438 39.710938 10.996094 40.394531 11.3125 40.976562 C 11.625 41.566406 12.210938 41.914062 12.878906 41.914062 L 34.066406 41.914062 C 34.734375 41.914062 35.320312 41.566406 35.632812 40.980469 C 35.953125 40.394531 35.921875 39.710938 35.554688 39.15625 Z M 35.554688 39.15625 "/>
<path style=" stroke:none;fill-rule:nonzero;fill:rgb(92.54902%,92.54902%,92.54902%);fill-opacity:1;" d="M 27.222656 6.5625 L 19.726562 6.5625 C 19.035156 6.5625 18.476562 6.003906 18.476562 5.3125 C 18.476562 4.621094 19.035156 4.0625 19.726562 4.0625 L 27.222656 4.0625 C 27.910156 4.0625 28.46875 4.621094 28.46875 5.3125 C 28.46875 6.003906 27.910156 6.5625 27.222656 6.5625 Z M 27.222656 6.5625 "/>
<path style=" stroke:none;fill-rule:nonzero;fill:rgb(40.000001%,40.000001%,40.000001%);fill-opacity:1;" d="M 20.351562 36.542969 C 20.351562 37.234375 19.789062 37.792969 19.101562 37.792969 C 18.410156 37.792969 17.851562 37.234375 17.851562 36.542969 C 17.851562 35.855469 18.410156 35.296875 19.101562 35.296875 C 19.789062 35.296875 20.351562 35.855469 20.351562 36.542969 Z M 20.351562 36.542969 "/>
<path style=" stroke:none;fill-rule:nonzero;fill:rgb(40.000001%,40.000001%,40.000001%);fill-opacity:1;" d="M 30.34375 37.792969 C 30.34375 38.484375 29.785156 39.042969 29.09375 39.042969 C 28.40625 39.042969 27.84375 38.484375 27.84375 37.792969 C 27.84375 37.105469 28.40625 36.542969 29.09375 36.542969 C 29.785156 36.542969 30.34375 37.105469 30.34375 37.792969 Z M 30.34375 37.792969 "/>
<path style=" stroke:none;fill-rule:nonzero;fill:rgb(40.000001%,40.000001%,40.000001%);fill-opacity:1;" d="M 25.347656 36.542969 C 25.179688 36.542969 25.023438 36.476562 24.90625 36.363281 C 24.785156 36.246094 24.722656 36.082031 24.722656 35.917969 C 24.722656 35.757812 24.785156 35.59375 24.90625 35.476562 C 25.136719 35.246094 25.554688 35.246094 25.785156 35.476562 C 25.90625 35.59375 25.972656 35.75 25.972656 35.917969 C 25.972656 36.089844 25.90625 36.246094 25.785156 36.363281 C 25.671875 36.476562 25.511719 36.542969 25.347656 36.542969 Z M 25.347656 36.542969 "/>
<path style=" stroke:none;fill-rule:nonzero;fill:rgb(100%,80.000001%,0%);fill-opacity:1;" d="M 21.582031 29.671875 C 21.414062 29.671875 21.257812 29.605469 21.136719 29.492188 C 21.019531 29.375 20.957031 29.210938 20.957031 29.046875 C 20.957031 28.886719 21.019531 28.722656 21.136719 28.605469 C 21.371094 28.375 21.78125 28.375 22.019531 28.605469 C 22.136719 28.722656 22.207031 28.886719 22.207031 29.046875 C 22.207031 29.210938 22.136719 29.375 22.027344 29.492188 C 21.90625 29.605469 21.746094 29.671875 21.582031 29.671875 Z M 21.582031 29.671875 "/>
<path style=" stroke:none;fill-rule:nonzero;fill:rgb(100%,80.000001%,0%);fill-opacity:1;" d="M 25.328125 25.167969 C 25.027344 25.167969 24.746094 25.042969 24.535156 24.84375 C 24.324219 24.628906 24.210938 24.339844 24.210938 24.046875 C 24.210938 23.757812 24.324219 23.464844 24.535156 23.253906 C 24.949219 22.839844 25.6875 22.839844 26.113281 23.253906 C 26.324219 23.464844 26.449219 23.757812 26.449219 24.046875 C 26.449219 24.339844 26.324219 24.628906 26.113281 24.84375 C 25.910156 25.042969 25.621094 25.167969 25.328125 25.167969 Z M 25.328125 25.167969 "/>
<path style=" stroke:none;fill-rule:nonzero;fill:rgb(100%,80.000001%,0%);fill-opacity:1;" d="M 21.582031 20.304688 C 21.414062 20.304688 21.25 20.234375 21.136719 20.117188 C 21.019531 20.003906 20.957031 19.839844 20.957031 19.679688 C 20.957031 19.515625 21.019531 19.355469 21.136719 19.234375 C 21.371094 19.003906 21.789062 19.003906 22.019531 19.234375 C 22.136719 19.355469 22.207031 19.515625 22.207031 19.679688 C 22.207031 19.839844 22.136719 20.003906 22.019531 20.121094 C 21.90625 20.234375 21.746094 20.304688 21.582031 20.304688 Z M 21.582031 20.304688 "/>
<path style=" stroke:none;fill-rule:nonzero;fill:rgb(40.000001%,40.000001%,40.000001%);fill-opacity:1;" d="M 21.582031 40.285156 C 21.414062 40.285156 21.257812 40.214844 21.136719 40.101562 C 21.019531 39.984375 20.957031 39.820312 20.957031 39.660156 C 20.957031 39.496094 21.019531 39.335938 21.136719 39.214844 C 21.371094 38.984375 21.789062 38.984375 22.019531 39.214844 C 22.136719 39.335938 22.207031 39.496094 22.207031 39.660156 C 22.207031 39.820312 22.136719 39.984375 22.019531 40.101562 C 21.90625 40.214844 21.746094 40.285156 21.582031 40.285156 Z M 21.582031 40.285156 "/>
<path style=" stroke:none;fill-rule:nonzero;fill:rgb(40.000001%,40.000001%,40.000001%);fill-opacity:1;" d="M 15.355469 39.667969 C 15.1875 39.667969 15.023438 39.597656 14.910156 39.488281 C 14.792969 39.367188 14.730469 39.207031 14.730469 39.042969 C 14.730469 38.878906 14.792969 38.71875 14.910156 38.597656 C 15.140625 38.367188 15.558594 38.367188 15.792969 38.597656 C 15.910156 38.71875 15.980469 38.878906 15.980469 39.042969 C 15.980469 39.207031 15.910156 39.367188 15.792969 39.488281 C 15.679688 39.597656 15.515625 39.667969 15.355469 39.667969 Z M 15.355469 39.667969 "/>
</g>
</svg>
