<?xml version="1.0" encoding="UTF-8" standalone="no"?>
<svg
   xmlns:dc="http://purl.org/dc/elements/1.1/"
   xmlns:cc="http://creativecommons.org/ns#"
   xmlns:rdf="http://www.w3.org/1999/02/22-rdf-syntax-ns#"
   xmlns:svg="http://www.w3.org/2000/svg"
   xmlns="http://www.w3.org/2000/svg"
   xmlns:sodipodi="http://sodipodi.sourceforge.net/DTD/sodipodi-0.dtd"
   xmlns:inkscape="http://www.inkscape.org/namespaces/inkscape"
   height="48"
   width="48"
   version="1"
   id="svg14"
   sodipodi:docname="audacity.svg"
   inkscape:version="0.92.2 2405546, 2018-03-11">
  <metadata
     id="metadata20">
    <rdf:RDF>
      <cc:Work
         rdf:about="">
        <dc:format>image/svg+xml</dc:format>
        <dc:type
           rdf:resource="http://purl.org/dc/dcmitype/StillImage" />
      </cc:Work>
    </rdf:RDF>
  </metadata>
  <defs
     id="defs18" />
  <sodipodi:namedview
     pagecolor="#ffffff"
     bordercolor="#666666"
     borderopacity="1"
     objecttolerance="10"
     gridtolerance="10"
     guidetolerance="10"
     inkscape:pageopacity="0"
     inkscape:pageshadow="2"
     inkscape:window-width="1920"
     inkscape:window-height="1012"
     id="namedview16"
     showgrid="false"
     inkscape:zoom="4.9166667"
     inkscape:cx="24"
     inkscape:cy="24"
     inkscape:window-x="0"
     inkscape:window-y="38"
     inkscape:window-maximized="1"
     inkscape:current-layer="svg14" />
  <path
     d="m 11.211323,33.564195 3.197162,-14.920093 2.131442,24.511582 2.131442,-22.38014 0.899469,19.6828 2.297694,-16.485637 1.065721,11.72293 2.131442,-14.920093 1.065721,19.182977 3.197162,-21.314419 3.197163,23.445861 1.065721,-17.051535 3.197163,8.525767"
     id="path2"
     inkscape:connector-curvature="0"
     style="opacity:0.2;fill:none;stroke:#000000;stroke-width:2.13144183;stroke-linecap:round;stroke-linejoin:round" />
  <path
     d="m 11.211323,32.497409 3.197162,-14.920093 2.131442,24.511581 2.131442,-22.380139 0.899469,19.682799 2.297694,-16.485637 1.065721,11.72293 2.131442,-14.920092 1.065721,19.182976 3.197162,-21.314418 3.197163,23.44586 1.065721,-17.051535 3.197163,8.525768"
     id="path4"
     inkscape:connector-curvature="0"
     style="fill:none;stroke:#fbc34f;stroke-width:2.13144183;stroke-linecap:round;stroke-linejoin:round" />
  <path
     d="m 14.389302,16.511595 a 1.0658275,1.0658275 0 0 0 -1.024093,0.843006 l -3.197163,14.920093 a 1.0663603,1.0663603 0 0 0 0.08118,0.682722 l 3.115955,-14.53963 a 1.0658275,1.0658275 0 0 1 1.024094,-0.843007 1.0658275,1.0658275 0 0 1 1.080321,0.974133 l 1.117728,12.85366 1.022005,-10.731809 a 1.0658275,1.0658275 0 0 1 2.125154,0.05412 l 0.372587,8.159372 0.705624,-5.062174 a 1.0658275,1.0658275 0 0 1 2.116842,0.05204 l 0.239371,2.635208 0.840918,-5.886403 a 1.0658275,1.0658275 0 0 1 2.118973,0.09159 l 0.489144,8.810955 1.656877,-11.041935 a 1.0658275,1.0658275 0 0 1 2.108529,0.01457 l 1.748421,12.815294 0.395479,-6.344344 a 1.0658275,1.0658275 0 0 1 2.060678,-0.308057 l 3.145155,8.388396 a 1.0658275,1.0658275 0 0 0 0.05204,-0.926261 L 34.587954,23.59736 a 1.0658275,1.0658275 0 0 0 -2.060678,0.308057 l -0.395479,6.344344 -1.748421,-12.815294 a 1.0658275,1.0658275 0 0 0 -2.108529,-0.01457 L 26.61797,28.461833 26.128826,19.650878 a 1.0658275,1.0658275 0 0 0 -2.118973,-0.09159 l -0.840918,5.886403 -0.239371,-2.635208 a 1.0658275,1.0658275 0 0 0 -2.116842,-0.05204 L 20.107098,27.82062 19.734511,19.661248 A 1.0658275,1.0658275 0 0 0 17.609357,19.60713 L 16.587331,30.33894 15.469389,17.48528 a 1.0658275,1.0658275 0 0 0 -1.080641,-0.974069 z"
     id="path6"
     inkscape:connector-curvature="0"
     style="opacity:0.2;fill:#ffffff;fill-rule:evenodd;stroke-width:1.06572092" />
  <path
     d="m 23.999974,4.6429807 c -4.858835,0 -9.28989,1.5169472 -12.558456,4.0641267 C 8.1726327,11.254394 6.0491837,14.899159 6.0491837,18.953161 v 1.465367 c -3.2453333,1.644407 -5.49507016,5.95738 -5.49507016,11.01316 0,6.471057 3.68153296,11.72293 8.42580276,11.72293 V 18.953161 c 0,-3.036238 1.5715117,-5.830665 4.2701307,-7.933546 2.698405,-2.1033065 6.509423,-3.4462215 10.749927,-3.4462215 4.240503,0 8.051202,1.3430215 10.749927,3.4459025 2.698618,2.10288 4.27013,4.897307 4.27013,7.933546 v 24.201456 c 4.74459,0 8.42559,-5.251873 8.42559,-11.72293 0,-5.05578 -2.249737,-9.368753 -5.494857,-11.01316 v -1.465366 c 0,-4.054429 -2.123343,-7.698981 -5.392122,-10.2461608 C 33.290076,6.1596082 28.858809,4.642661 24.000187,4.642661 Z M 10.079527,20.075685 v 23.079253 c 0.732683,0 1.465366,-0.366342 1.831761,-1.098972 V 20.807622 c -0.367674,-0.365542 -1.099824,-0.73215 -1.831974,-0.73215 z m 27.841959,0 c -0.732683,0 -1.465366,0.366342 -1.831761,0.732683 v 21.248344 c 0.366608,0.731085 1.098758,1.097693 1.830908,1.097693 V 20.075152 Z"
     id="path8"
     inkscape:connector-curvature="0"
     style="fill:#608ab5;stroke-width:1.06572092" />
  <path
     d="m 23.999974,4.6429807 c -4.858835,0 -9.290955,1.5158815 -12.559521,4.063061 C 8.1715669,11.253328 6.0491837,14.899159 6.0491837,18.953161 v 1.065721 c 0,-4.054428 2.1223832,-7.700046 5.3910563,-10.2471194 3.268566,-2.5473927 7.700899,-4.0632741 12.559521,-4.0632741 4.858834,0 9.290955,1.5158814 12.559521,4.063061 3.268672,2.5471795 5.391055,6.1926915 5.391055,10.2471195 v -1.065721 c 0,-4.054428 -2.122383,-7.700046 -5.391055,-10.2471194 -3.268566,-2.5471796 -7.7009,-4.063061 -12.559521,-4.063061 z M 10.079527,20.075685 v 1.065721 c 0.732683,0 1.465366,0.366342 1.831761,0.732683 V 20.808368 C 11.543614,20.44176 10.811464,20.075152 10.079314,20.075152 Z m 27.841959,0 c -0.732683,0 -1.465366,0.366342 -1.831761,0.732683 v 1.065721 c 0.366342,-0.366341 1.098971,-0.732683 1.831761,-0.732683 z M 6.0489706,20.418847 c -3.2453333,1.644408 -5.4950702,5.95738 -5.4950702,11.01316 0,0.220477 0.0144522,0.436093 0.022896,0.653586 0.12044773,-4.873755 2.3169838,-9.002358 5.4722637,-10.601046 v -1.065721 z m 35.9020064,0 v 1.065721 c 3.15528,1.598688 5.351731,5.727291 5.472264,10.601046 0.0075,-0.217407 0.02238,-0.432683 0.02238,-0.653287 0,-5.05578 -2.249737,-9.368752 -5.494857,-11.01316 z"
     id="path10"
     inkscape:connector-curvature="0"
     style="opacity:0.2;fill:#ffffff;stroke-width:1.06572092" />
  <path
     d="m 23.999974,7.5733935 c -4.240504,1e-7 -8.050136,1.3439807 -10.748861,3.4469675 -2.698619,2.102881 -4.2711967,4.896242 -4.2711967,7.932587 v 1.065721 c 0,-3.036239 1.5725777,-5.8296 4.2711967,-7.932587 2.698405,-2.1033066 6.508357,-3.4472873 10.748861,-3.4472873 4.240503,0 8.050136,1.3439807 10.748861,3.4469673 2.698618,2.102881 4.271196,4.896242 4.271196,7.932588 v -1.065721 c 0,-3.036239 -1.572578,-5.8296 -4.271196,-7.932587 C 32.05043,8.9157756 28.240477,7.571795 23.999974,7.571795 Z M 0.5775594,32.084975 c -0.00341,0.139609 -0.022913,0.271758 -0.022913,0.412434 0,6.471057 3.6815329,11.72293 8.4258027,11.72293 v -1.065721 c -4.5825999,0 -8.16352878,-4.903382 -8.4028897,-11.069643 z m 46.8458946,0 C 47.184732,38.251236 43.60391,43.154618 39.02131,43.154618 v 1.065721 c 4.74459,0 8.42559,-5.251873 8.42559,-11.72293 0,-0.140676 -0.01918,-0.272825 -0.02238,-0.412434 z M 11.911501,42.05586 c -0.366608,0.73215 -1.098758,1.098758 -1.830908,1.098758 v 1.065721 c 0.732683,0 1.465366,-0.366342 1.831761,-1.098972 v -1.065721 z m 24.179077,0 v 1.06572 c 0.366608,0.732151 1.098758,1.098759 1.830908,1.098759 v -1.065721 c -0.732683,0 -1.465366,-0.366342 -1.831761,-1.098972 z"
     id="path12"
     inkscape:connector-curvature="0"
     style="opacity:0.2;stroke-width:1.06572092" />
</svg>
