<?xml version="1.0" encoding="UTF-8" standalone="no"?>
<!-- Created with Inkscape (http://www.inkscape.org/) -->

<svg
   xmlns:dc="http://purl.org/dc/elements/1.1/"
   xmlns:cc="http://creativecommons.org/ns#"
   xmlns:rdf="http://www.w3.org/1999/02/22-rdf-syntax-ns#"
   xmlns:svg="http://www.w3.org/2000/svg"
   xmlns="http://www.w3.org/2000/svg"
   xmlns:xlink="http://www.w3.org/1999/xlink"
   xmlns:sodipodi="http://sodipodi.sourceforge.net/DTD/sodipodi-0.dtd"
   xmlns:inkscape="http://www.inkscape.org/namespaces/inkscape"
   version="1.0"
   width="48"
   height="48"
   id="svg11172"
   sodipodi:docname="audio-player.svg"
   inkscape:version="0.92.2 2405546, 2018-03-11">
  <metadata
     id="metadata30">
    <rdf:RDF>
      <cc:Work
         rdf:about="">
        <dc:format>image/svg+xml</dc:format>
        <dc:type
           rdf:resource="http://purl.org/dc/dcmitype/StillImage" />
      </cc:Work>
    </rdf:RDF>
  </metadata>
  <sodipodi:namedview
     pagecolor="#ffffff"
     bordercolor="#666666"
     borderopacity="1"
     objecttolerance="10"
     gridtolerance="10"
     guidetolerance="10"
     inkscape:pageopacity="0"
     inkscape:pageshadow="2"
     inkscape:window-width="1920"
     inkscape:window-height="1012"
     id="namedview28"
     showgrid="false"
     inkscape:zoom="9.8333333"
     inkscape:cx="11.213085"
     inkscape:cy="20.352484"
     inkscape:window-x="0"
     inkscape:window-y="38"
     inkscape:window-maximized="1"
     inkscape:current-layer="layer1" />
  <defs
     id="defs11174">
    <linearGradient
       id="linearGradient8838">
      <stop
         id="stop8840"
         style="stop-color:black;stop-opacity:1"
         offset="0" />
      <stop
         id="stop8842"
         style="stop-color:black;stop-opacity:0"
         offset="1" />
    </linearGradient>
    <radialGradient
       cx="62.625"
       cy="4.625"
       r="10.625"
       fx="62.625"
       fy="4.625"
       id="radialGradient2612"
       xlink:href="#linearGradient8838"
       gradientUnits="userSpaceOnUse"
       gradientTransform="matrix(1,0,0,0.341176,0,3.047059)" />
    <linearGradient
       id="linearGradient2490-532-649-691-926-291-773">
      <stop
         id="stop11035"
         style="stop-color:#245a71;stop-opacity:1"
         offset="0" />
      <stop
         id="stop11037"
         style="stop-color:#498bd2;stop-opacity:1"
         offset="1" />
    </linearGradient>
    <linearGradient
       x1="15.046636"
       y1="44.787998"
       x2="15.046636"
       y2="3.8851264"
       id="linearGradient3722-654-507-728-209-749-106"
       xlink:href="#linearGradient2490-532-649-691-926-291-773"
       gradientUnits="userSpaceOnUse"
       gradientTransform="matrix(1.0051426,0,0,1.0051197,-0.2286603,-0.01235769)" />
    <linearGradient
       id="linearGradient3242-62-192-227-214-440-158">
      <stop
         id="stop11025"
         style="stop-color:#9a9af9;stop-opacity:1"
         offset="0" />
      <stop
         id="stop11027"
         style="stop-color:#708ade;stop-opacity:1"
         offset="0.26238" />
      <stop
         id="stop11029"
         style="stop-color:#4777ba;stop-opacity:1"
         offset="0.66093999" />
      <stop
         id="stop11031"
         style="stop-color:#194263;stop-opacity:1"
         offset="1" />
    </linearGradient>
    <radialGradient
       cx="61.341709"
       cy="-6.1398492"
       r="9.7552834"
       fx="61.341709"
       fy="-6.1398492"
       id="radialGradient3724-220-597-264-558-243-961"
       xlink:href="#linearGradient3242-62-192-227-214-440-158"
       gradientUnits="userSpaceOnUse"
       gradientTransform="matrix(0,4.523581,-4.3653221,0,-4.1595525,-273.48419)" />
    <linearGradient
       id="linearGradient4873">
      <stop
         id="stop4875"
         style="stop-color:white;stop-opacity:1"
         offset="0" />
      <stop
         id="stop4877"
         style="stop-color:white;stop-opacity:0"
         offset="1" />
    </linearGradient>
    <linearGradient
       x1="63.397362"
       y1="-12.486685"
       x2="63.397362"
       y2="7.4434662"
       id="linearGradient3726"
       xlink:href="#linearGradient4873"
       gradientUnits="userSpaceOnUse"
       gradientTransform="matrix(2.1725458,0,0,2.1724962,-111.63324,32.127275)" />
  </defs>
  <g
     id="layer1">
    <path
       d="m 23.992004,0.78968505 c -12.811456,0 -23.19490184,10.38344395 -23.19490184,23.19490595 0,12.811455 10.38344584,23.23137 23.19490184,23.231368 12.811456,0 23.231383,-10.419913 23.231375,-23.231368 0,-12.811462 -10.419919,-23.19490595 -23.231375,-23.19490595 z"
       id="path2555"
       style="fill:#0089e8;fill-opacity:1;stroke:none;stroke-width:2.32118917;stroke-linecap:round;stroke-linejoin:round;stroke-miterlimit:4;stroke-dasharray:none;stroke-dashoffset:0;stroke-opacity:1"
       inkscape:connector-curvature="0" />
    <path
       d="m 44.916404,23.998432 c 0,11.548082 -9.361742,20.90972 -20.908245,20.90972 -11.547551,0 -20.9087677,-9.361743 -20.9087677,-20.90972 0,-11.547551 9.3612167,-20.9082428 20.9087677,-20.9082428 11.546503,0 20.908245,9.3606918 20.908245,20.9082428 z"
       id="path8655"
       style="opacity:0.52747258;fill:none;stroke:none;stroke-width:2.32130766;stroke-miterlimit:4;stroke-dasharray:none;stroke-opacity:1"
       inkscape:connector-curvature="0" />
    <path
       d="m 39.098736,24.002825 a 15.0885,15.0885 0 1 1 -30.176999,0 15.0885,15.0885 0 1 1 30.176999,0 z"
       id="path3199-6"
       style="fill:#0048d8;fill-opacity:1;stroke:none;stroke-width:1.158391"
       inkscape:connector-curvature="0" />
    <path
       d="m 33.541247,24.658316 c 0.0014,0.161702 -6.747536,3.980845 -6.88547,4.061686 -0.139279,0.08162 -6.834504,4.142135 -6.974431,4.061688 -0.138583,-0.07967 -0.02229,-7.922578 -0.02229,-8.084263 3.3e-5,-0.163234 -0.116339,-8.079679 0.02229,-8.162478 0.137258,-0.08202 6.769783,3.941737 6.907716,4.022582 0.139278,0.08162 6.950857,3.937542 6.952185,4.100785 z"
       id="path3218-7-0"
       style="fill:#000000;fill-opacity:0.2;stroke:none;stroke-width:2.3213079;stroke-linecap:round;stroke-linejoin:round;stroke-miterlimit:0;stroke-dasharray:none;stroke-dashoffset:0;stroke-opacity:1"
       inkscape:connector-curvature="0" />
    <path
       d="m 33.295445,24.002844 c 0.0014,0.161702 -6.747536,3.980845 -6.88547,4.061686 -0.139279,0.08162 -6.834504,4.142135 -6.974431,4.061688 -0.138583,-0.07967 -0.02229,-7.922578 -0.02229,-8.084263 3.3e-5,-0.163234 -0.116339,-8.079679 0.02229,-8.162478 0.137258,-0.08202 6.769784,3.941737 6.907716,4.022582 0.139279,0.08162 6.950857,3.937543 6.952185,4.100785 z"
       id="path3218-7"
       style="fill:#ffffff;fill-opacity:1;stroke:none;stroke-width:2.3213079;stroke-linecap:round;stroke-linejoin:round;stroke-miterlimit:0;stroke-dasharray:none;stroke-dashoffset:0;stroke-opacity:1"
       inkscape:connector-curvature="0" />
    <path
       style="opacity:0.20100002;fill:#ffffff;fill-opacity:1;stroke:none;stroke-width:2.32118917;stroke-linecap:round;stroke-linejoin:round;stroke-miterlimit:4;stroke-dasharray:none;stroke-dashoffset:0;stroke-opacity:1"
       d="m 23.991801,0.70761034 c -12.811455,0 -23.19549278,10.38402766 -23.19549289,23.19548966 0,0.219606 0.0117416,0.436112 0.0178033,0.654272 C 1.1622042,12.050091 11.400288,2.0183793 23.991801,2.0183793 c 12.591523,0 22.866232,10.0317007 23.215521,22.5389927 0.006,-0.218152 0.01558,-0.434675 0.01558,-0.654272 0,-12.811462 -10.419643,-23.19548966 -23.231101,-23.19548966 z"
       id="path2555-6"
       inkscape:connector-curvature="0" />
    <path
       style="opacity:0.20100002;fill:#000000;fill-opacity:1;stroke:none;stroke-width:2.32118917;stroke-linecap:round;stroke-linejoin:round;stroke-miterlimit:4;stroke-dasharray:none;stroke-dashoffset:0;stroke-opacity:1"
       d="m 24.027405,47.252031 c 12.811455,0 23.195493,-10.384028 23.195493,-23.19549 0,-0.219606 -0.01174,-0.436112 -0.01781,-0.654272 -0.348093,12.507281 -10.586176,22.538992 -23.17769,22.538992 -12.591523,0 -22.8662317,-10.0317 -23.21552083,-22.538992 -0.006039,0.218152 -0.0155758,0.434675 -0.0155758,0.654272 0,12.811462 10.41964263,23.19549 23.23109963,23.19549 z"
       id="path2555-6-3"
       inkscape:connector-curvature="0" />
  </g>
</svg>
