<?xml version="1.0" encoding="UTF-8" standalone="no"?>
<svg
   xmlns:dc="http://purl.org/dc/elements/1.1/"
   xmlns:cc="http://creativecommons.org/ns#"
   xmlns:rdf="http://www.w3.org/1999/02/22-rdf-syntax-ns#"
   xmlns:svg="http://www.w3.org/2000/svg"
   xmlns="http://www.w3.org/2000/svg"
   xmlns:sodipodi="http://sodipodi.sourceforge.net/DTD/sodipodi-0.dtd"
   xmlns:inkscape="http://www.inkscape.org/namespaces/inkscape"
   height="48"
   width="48"
   version="1"
   id="svg18"
   sodipodi:docname="internet-web-browser.svg"
   inkscape:version="0.92.2 2405546, 2018-03-11">
  <metadata
     id="metadata24">
    <rdf:RDF>
      <cc:Work
         rdf:about="">
        <dc:format>image/svg+xml</dc:format>
        <dc:type
           rdf:resource="http://purl.org/dc/dcmitype/StillImage" />
      </cc:Work>
    </rdf:RDF>
  </metadata>
  <defs
     id="defs22">
    <mask
       maskUnits="userSpaceOnUse"
       id="mask899">
      <rect
         ry="3.8739548"
         rx="3.8739548"
         y="-3.4430382"
         x="2.2819273"
         height="49.877926"
         width="43.924324"
         id="rect901"
         style="opacity:1;fill:#ffffff;fill-opacity:1;stroke:#000000;stroke-width:0.27217984;stroke-linecap:round;stroke-linejoin:round;stroke-miterlimit:4;stroke-dasharray:none;stroke-opacity:1;paint-order:stroke fill markers" />
    </mask>
  </defs>
  <sodipodi:namedview
     pagecolor="#ffffff"
     bordercolor="#666666"
     borderopacity="1"
     objecttolerance="10"
     gridtolerance="10"
     guidetolerance="10"
     inkscape:pageopacity="0"
     inkscape:pageshadow="2"
     inkscape:window-width="1920"
     inkscape:window-height="1013"
     id="namedview20"
     showgrid="false"
     inkscape:zoom="9.1611266"
     inkscape:cx="15.121681"
     inkscape:cy="28.107764"
     inkscape:window-x="0"
     inkscape:window-y="0"
     inkscape:window-maximized="1"
     inkscape:current-layer="svg18"
     showguides="false"
     inkscape:snap-global="false" />
  <rect
     ry="3.6578989"
     rx="3.6578989"
     y="0.51298302"
     x="3.5253937"
     height="47.096165"
     width="41.474606"
     id="rect859"
     style="opacity:1;fill:#666666;fill-opacity:1;stroke:#000000;stroke-width:0.257;stroke-linecap:round;stroke-linejoin:round;stroke-miterlimit:4;stroke-dasharray:none;stroke-opacity:1;paint-order:stroke fill markers" />
  <g
     id="g874"
     mask="url(#mask899)"
     transform="matrix(0.94422863,0,0,0.94422863,1.3707325,3.7639984)">
    <circle
       transform="rotate(-45.11331)"
       r="25.443869"
       cy="39.73428"
       cx="-5.0646777"
       id="path4703-6"
       style="opacity:1;fill:#00aad4;fill-opacity:1;stroke:none;stroke-width:2.63366389;stroke-miterlimit:4;stroke-dasharray:none;stroke-opacity:1" />
    <path
       inkscape:connector-curvature="0"
       style="opacity:0.40900005;fill:#ffffff;fill-opacity:1;fill-rule:nonzero;stroke:none;stroke-width:2.48887968"
       id="path6566-1"
       d="m 16.012992,36.597447 c -0.564048,-1.440213 -2.631418,-2.314181 -3.115003,-3.342306 -1.667021,3.48e-4 -3.0380284,-1.676332 -4.1066036,0.166751 -2.0622168,0.845268 -1.9647625,-2.123555 -3.0585233,-2.335604 0.072889,-1.238302 0.011446,-2.541818 -1.2240063,-0.970113 -2.5081725,0.317502 -1.2905571,-3.973663 0.874908,-3.739386 1.3385545,-0.884432 3.0882477,1.943317 2.7922296,-0.202348 1.2363052,-1.929314 2.6770996,-3.776987 4.6681756,-4.958157 1.004526,-0.118829 2.87065,-1.612299 0.731731,-1.520002 -2.23871,-0.439694 2.733224,-0.3056 2.825942,-1.620999 -0.404147,-1.181776 -1.00813,-2.168191 -2.245804,-2.298757 -0.898632,-2.298077 -1.961561,1.101049 -2.776263,1.845443 -0.759699,1.650346 -1.4836154,-1.107607 -2.583845,-1.046852 -0.488019,-1.827255 4.910029,-2.550949 2.14383,-4.247066 -1.7319624,1.224748 -3.4986062,2.477377 -4.7722644,4.287484 -2.8995472,3.688978 -4.854808,8.162158 -5.35074376,12.843211 1.07985166,2.708213 4.71608056,2.660238 6.49334946,4.681328 2.7289197,0.855874 -1.3799297,3.786212 0.082998,5.808652 0.7947759,2.259318 3.8608467,3.448199 3.5484707,6.123352 0.396936,1.84974 -0.792664,5.163499 2.123766,5.411267 1.574692,-0.244654 2.220214,-2.43058 3.350181,-3.247573 -0.04787,-1.867151 1.316337,-2.887312 2.477886,-3.747138 0.189153,-1.852586 0.742405,-3.72127 1.213285,-5.343654 -0.690885,-1.634718 -2.917951,-1.450526 -4.093942,-2.547812 M 27.391728,8.7436651 c -2.662456,-1.6738075 -5.885989,-0.5860934 -8.648939,0.1625917 -2.641097,1.3630042 2.50384,1.7411852 0.703603,3.6798672 -1.090335,1.628466 1.513442,3.692042 2.250684,1.341713 1.03661,-1.894733 3.862011,-0.805664 4.824133,-2.918425 0.369605,-0.71946 0.524043,-1.5287418 0.870532,-2.265873 m 20.420753,18.761247 c -1.046642,1.348231 -3.667461,-1.982615 -3.944283,-0.629436 0.157642,0.908698 1.487672,2.315892 2.132195,0.972742 1.635577,2.175894 -2.052914,4.177031 -3.140725,4.772351 -0.742991,-1.657615 -1.150373,-3.467432 -2.189543,-4.973312 -0.903237,-1.630006 -1.752538,-0.16747 -0.502592,0.752128 0.772525,2.10321 1.337616,4.831927 4.133801,4.561269 0.851514,2.679941 -3.144867,4.249758 -2.563797,6.989466 0.694334,2.05154 -0.280169,3.715815 -1.94144,4.726761 0.650637,1.59181 -0.9138,4.2354 -2.735293,4.752761 -1.127964,0.710703 -2.539886,0.622239 -2.360985,-1.17447 -0.772987,-2.591466 -1.361973,-5.151748 -0.922004,-7.901049 -0.44204,-1.638366 -0.803009,-3.649327 -1.321189,-4.86902 -1.976136,-1.728073 -4.451201,1.681583 -5.678857,-0.84745 -1.778793,-1.526337 -2.149367,-3.707552 -1.277537,-5.798605 0.607127,-2.416921 2.591119,-4.736835 5.134425,-5.16132 2.242198,-0.99275 3.531079,2.590478 5.534248,1.274158 1.043508,0.956302 4.783181,-0.06483 2.906201,-1.169582 -1.531456,-0.235519 -2.530122,-2.542441 -3.237937,-0.617127 -0.572841,-0.192422 -1.473396,-3.127745 -1.65373,-1.726517 1.295926,0.754958 -0.984535,2.253545 -0.359456,0.520394 -1.729054,-2.359239 -3.76396,0.345666 -4.845466,1.642407 -2.331463,-0.180666 -1.508522,-3.342916 0.530017,-3.022394 -1.591014,-1.779803 1.000153,-1.426688 1.593224,-2.900315 0.917485,-1.402521 1.528809,-0.934038 2.795238,-0.286796 1.030189,-0.820254 2.800389,-2.392434 1.314679,-2.968034 0.787255,-2.468605 -1.638011,0.246809 -1.331088,1.422974 -0.615971,1.264716 -1.571381,-0.664006 -2.49631,0.0049 -0.747467,-1.814243 1.583895,-2.84125 2.699702,-3.829671 1.274315,-0.362688 4.17614,-0.108106 4.484864,0.80474 -1.998206,0.01233 -0.622868,2.059533 0.456999,0.788257 1.53322,-1.062464 3.104572,2.334982 4.305917,3.418693 2.353844,3.030957 3.905042,6.678406 4.480722,10.470986 z" />
    <path
       inkscape:connector-curvature="0"
       id="rect843"
       d="M 42.278859,13.366183 6.320076,49.324965 a 25.443869,25.443869 0 0 0 0.3009299,0.330124 25.443869,25.443869 0 0 0 35.9834861,-0.06962 25.443869,25.443869 0 0 0 -0.07182,-35.983483 25.443869,25.443869 0 0 0 -0.253774,-0.235804 z"
       style="opacity:0.153;fill:#21367b;fill-opacity:1;stroke:none;stroke-width:0.54756719;stroke-linejoin:round;stroke-miterlimit:4;stroke-dasharray:none;stroke-opacity:1;paint-order:stroke fill markers" />
  </g>
</svg>
