<?xml version="1.0" encoding="UTF-8" standalone="no"?>
<svg
   xmlns:dc="http://purl.org/dc/elements/1.1/"
   xmlns:cc="http://creativecommons.org/ns#"
   xmlns:rdf="http://www.w3.org/1999/02/22-rdf-syntax-ns#"
   xmlns:svg="http://www.w3.org/2000/svg"
   xmlns="http://www.w3.org/2000/svg"
   xmlns:sodipodi="http://sodipodi.sourceforge.net/DTD/sodipodi-0.dtd"
   xmlns:inkscape="http://www.inkscape.org/namespaces/inkscape"
   height="48"
   width="48"
   version="1"
   id="svg14"
   sodipodi:docname="libreoffice-calc.svg"
   inkscape:version="0.92.2 2405546, 2018-03-11">
  <metadata
     id="metadata20">
    <rdf:RDF>
      <cc:Work
         rdf:about="">
        <dc:format>image/svg+xml</dc:format>
        <dc:type
           rdf:resource="http://purl.org/dc/dcmitype/StillImage" />
      </cc:Work>
    </rdf:RDF>
  </metadata>
  <defs
     id="defs18" />
  <sodipodi:namedview
     pagecolor="#ffffff"
     bordercolor="#666666"
     borderopacity="1"
     objecttolerance="10"
     gridtolerance="10"
     guidetolerance="10"
     inkscape:pageopacity="0"
     inkscape:pageshadow="2"
     inkscape:window-width="1920"
     inkscape:window-height="1013"
     id="namedview16"
     showgrid="false"
     inkscape:zoom="9.8333333"
     inkscape:cx="-7.8437704"
     inkscape:cy="22.278113"
     inkscape:window-x="0"
     inkscape:window-y="0"
     inkscape:window-maximized="1"
     inkscape:current-layer="svg14" />
  <rect
     ry="3.6578989"
     rx="3.6578989"
     y="0.51302344"
     x="3.5253937"
     height="47.096165"
     width="41.474606"
     id="rect859"
     style="opacity:1;fill:#3db29d;fill-opacity:1;stroke:none;stroke-width:0.35695893;stroke-linecap:round;stroke-linejoin:round;stroke-miterlimit:4;stroke-dasharray:none;stroke-opacity:1;paint-order:stroke fill markers" />
  <path
     style="opacity:1;fill:#f2f2f2;fill-opacity:1;stroke:none;stroke-width:0.28388485;stroke-linecap:round;stroke-linejoin:round;stroke-miterlimit:4;stroke-dasharray:none;stroke-opacity:1;paint-order:stroke fill markers"
     d="m 10.678991,5.3330572 c -1.6116301,0 -2.9078708,1.2980593 -2.9078708,2.9096896 V 39.880165 c 0,1.611631 1.2962407,2.907871 2.9078708,2.907871 h 27.167408 c 1.611631,0 2.907871,-1.29624 2.907871,-2.907871 V 23.087619 L 23.001527,5.3330572 Z m 19.151214,0 L 40.75427,16.257124 V 8.2427468 c 0,-1.6116303 -1.29624,-2.9096896 -2.907871,-2.9096896 z"
     id="rect832"
     inkscape:connector-curvature="0" />
  <path
     inkscape:connector-curvature="0"
     id="path831"
     d="m 13.02754,36.427754 h 20.25 V 20.364329 h -20.25 z m 2.25,-13.768651 h 6.75 v 2.294776 h -6.75 z m 9,0 h 6.75 v 2.294776 h -6.75 z m -9,4.589551 h 6.75 v 2.294775 h -6.75 z m 9,0 h 6.75 v 2.294775 h -6.75 z m -9,4.58955 h 6.75 v 2.294776 h -6.75 z m 9,0 h 6.75 v 2.294776 h -6.75 z"
     style="opacity:0.5;stroke-width:1.13613856;filter:url(#filter14069);enable-background:new" />
</svg>
