<?xml version="1.0" encoding="UTF-8" standalone="no"?>
<svg
   xmlns:dc="http://purl.org/dc/elements/1.1/"
   xmlns:cc="http://creativecommons.org/ns#"
   xmlns:rdf="http://www.w3.org/1999/02/22-rdf-syntax-ns#"
   xmlns:svg="http://www.w3.org/2000/svg"
   xmlns="http://www.w3.org/2000/svg"
   xmlns:sodipodi="http://sodipodi.sourceforge.net/DTD/sodipodi-0.dtd"
   xmlns:inkscape="http://www.inkscape.org/namespaces/inkscape"
   height="48"
   width="48"
   version="1"
   id="svg14"
   sodipodi:docname="libreoffice-base.svg"
   inkscape:version="0.92.2 2405546, 2018-03-11">
  <metadata
     id="metadata20">
    <rdf:RDF>
      <cc:Work
         rdf:about="">
        <dc:format>image/svg+xml</dc:format>
        <dc:type
           rdf:resource="http://purl.org/dc/dcmitype/StillImage" />
      </cc:Work>
    </rdf:RDF>
  </metadata>
  <defs
     id="defs18" />
  <sodipodi:namedview
     pagecolor="#ffffff"
     bordercolor="#666666"
     borderopacity="1"
     objecttolerance="10"
     gridtolerance="10"
     guidetolerance="10"
     inkscape:pageopacity="0"
     inkscape:pageshadow="2"
     inkscape:window-width="1920"
     inkscape:window-height="1013"
     id="namedview16"
     showgrid="false"
     inkscape:zoom="9.8333333"
     inkscape:cx="-28.248175"
     inkscape:cy="24.173666"
     inkscape:window-x="0"
     inkscape:window-y="0"
     inkscape:window-maximized="1"
     inkscape:current-layer="svg14" />
  <rect
     ry="3.6578989"
     rx="3.6578989"
     y="0.51302344"
     x="3.5253937"
     height="47.096165"
     width="41.474606"
     id="rect859"
     style="opacity:1;fill:#9e3d63;fill-opacity:1;stroke:none;stroke-width:0.35695893;stroke-linecap:round;stroke-linejoin:round;stroke-miterlimit:4;stroke-dasharray:none;stroke-opacity:1;paint-order:stroke fill markers" />
  <path
     style="opacity:1;fill:#f2f2f2;fill-opacity:1;stroke:none;stroke-width:0.28388485;stroke-linecap:round;stroke-linejoin:round;stroke-miterlimit:4;stroke-dasharray:none;stroke-opacity:1;paint-order:stroke fill markers"
     d="m 10.678991,5.3330572 c -1.6116301,0 -2.9078708,1.2980593 -2.9078708,2.9096896 V 39.880165 c 0,1.611631 1.2962407,2.907871 2.9078708,2.907871 h 27.167408 c 1.611631,0 2.907871,-1.29624 2.907871,-2.907871 V 23.087619 L 23.001527,5.3330572 Z m 19.151214,0 L 40.75427,16.257124 V 8.2427468 c 0,-1.6116303 -1.29624,-2.9096896 -2.907871,-2.9096896 z"
     id="rect832"
     inkscape:connector-curvature="0" />
  <path
     sodipodi:nodetypes="ccccccccsccccsccccc"
     inkscape:connector-curvature="0"
     id="path2698"
     d="m 15.677965,23.015632 v 0.275734 c 0,-0.09488 0.0143,-0.182339 0.025,-0.275734 z m 0,0.275734 v 3.294118 0.413603 h 0.05 c 0.36598,2.246783 3.77582,3.998162 7.95,3.998162 4.17417,0 7.58402,-1.751379 7.95,-3.998162 h 0.05 v -0.413603 -3.294118 c 0,2.436547 -3.58173,4.411765 -8,4.411765 -4.41828,0 -8,-1.975218 -8,-4.411765 z m 16,0 v -0.275734 h -0.025 c 0.0107,0.09339 0.025,0.18085 0.025,0.275734 z"
     style="color:#000000;display:inline;overflow:visible;visibility:visible;fill:#7a7a7a;fill-opacity:1;fill-rule:nonzero;stroke:none;stroke-width:1;marker:none;enable-background:accumulate" />
  <path
     d="m 31.677965,22.409014 c 0,2.436546 -3.58171,4.411765 -7.99999,4.411765 -4.41827,0 -7.99998,-1.975219 -7.99998,-4.411765 0,-2.436546 3.58171,-4.411765 7.99998,-4.411765 4.41828,0 7.99999,1.975219 7.99999,4.411765 z"
     id="path2700"
     inkscape:connector-curvature="0"
     style="color:#000000;display:inline;overflow:visible;visibility:visible;fill:#7a7a7a;fill-opacity:1;fill-rule:nonzero;stroke:none;stroke-width:1;stroke-linecap:butt;stroke-linejoin:miter;stroke-miterlimit:4;stroke-dasharray:none;stroke-dashoffset:0;stroke-opacity:1;marker:none;enable-background:accumulate" />
  <path
     style="color:#000000;display:inline;overflow:visible;visibility:visible;fill:#7a7a7a;fill-opacity:1;fill-rule:nonzero;stroke:none;stroke-width:1;marker:none;enable-background:accumulate"
     d="m 15.677965,27.30975 v 0.275734 c 0,-0.09488 0.0143,-0.182339 0.025,-0.275734 z m 0,0.275734 v 3.294118 0.413603 h 0.05 c 0.36598,2.246783 3.77582,3.998162 7.95,3.998162 4.17417,0 7.58402,-1.751379 7.95,-3.998162 h 0.05 v -0.413603 -3.294118 c 0,2.436547 -3.58173,4.411765 -8,4.411765 -4.41828,0 -8,-1.975218 -8,-4.411765 z m 16,0 V 27.30975 h -0.025 c 0.0107,0.09339 0.025,0.18085 0.025,0.275734 z"
     id="path2702"
     inkscape:connector-curvature="0"
     sodipodi:nodetypes="ccccccccsccccsccccc" />
</svg>
