<?xml version="1.0" encoding="UTF-8" standalone="no"?>
<svg
   xmlns:dc="http://purl.org/dc/elements/1.1/"
   xmlns:cc="http://creativecommons.org/ns#"
   xmlns:rdf="http://www.w3.org/1999/02/22-rdf-syntax-ns#"
   xmlns:svg="http://www.w3.org/2000/svg"
   xmlns="http://www.w3.org/2000/svg"
   xmlns:sodipodi="http://sodipodi.sourceforge.net/DTD/sodipodi-0.dtd"
   xmlns:inkscape="http://www.inkscape.org/namespaces/inkscape"
   width="48"
   version="1.1"
   height="48"
   viewBox="0 0 48 48"
   id="svg23"
   sodipodi:docname="pocket.svg"
   inkscape:version="0.92.2 2405546, 2018-03-11">
  <metadata
     id="metadata27">
    <rdf:RDF>
      <cc:Work
         rdf:about="">
        <dc:format>image/svg+xml</dc:format>
        <dc:type
           rdf:resource="http://purl.org/dc/dcmitype/StillImage" />
      </cc:Work>
    </rdf:RDF>
  </metadata>
  <sodipodi:namedview
     pagecolor="#ffffff"
     bordercolor="#666666"
     borderopacity="1"
     objecttolerance="10"
     gridtolerance="10"
     guidetolerance="10"
     inkscape:pageopacity="0"
     inkscape:pageshadow="2"
     inkscape:window-width="1920"
     inkscape:window-height="1016"
     id="namedview25"
     showgrid="false"
     inkscape:zoom="4.9166667"
     inkscape:cx="24"
     inkscape:cy="24"
     inkscape:window-x="0"
     inkscape:window-y="5"
     inkscape:window-maximized="1"
     inkscape:current-layer="svg23" />
  <defs
     id="defs5">
    <clipPath
       id="clipPath4599"
       clipPathUnits="userSpaceOnUse">
      <path
         fill="url(#linearGradient4603)"
         d="m81.455 87c-9.666 0-17.455 7.889-17.455 17.68 0 72.554 13.1 122.05 80 122.31 66.9 0.26579 80-49.699 80-122.31-0.00001-9.7951-7.789-17.684-17.455-17.684h-125.09zm99.372 39.823c2.7453 0 5.4955 1.0797 7.6033 3.2153 4.2157 4.2711 4.2157 11.202 0 15.474l-36 36.473c-2.3152 2.3456-5.4152 3.312-8.4298 3.0813-3.0146 0.23069-6.1146-0.73571-8.4298-3.0813l-36-36.473c-4.2157-4.2711-4.2157-11.202 0-15.474 2.1078-2.1356 4.8855-3.1818 7.6363-3.1818 2.7509 0 5.4624 1.0462 7.5702 3.1818l29.22 29.61 29.22-29.61c2.1078-2.1356 4.858-3.2153 7.6033-3.2153z"
         id="path2" />
    </clipPath>
  </defs>
  <rect
     ry="3.6578989"
     rx="3.6578989"
     y="0.51302302"
     x="3.5253937"
     height="47.096165"
     width="41.474606"
     id="rect859"
     style="opacity:1;fill:#ee4056;fill-opacity:1;stroke:none;stroke-width:0.35695893;stroke-linecap:round;stroke-linejoin:round;stroke-miterlimit:4;stroke-dasharray:none;stroke-opacity:1;paint-order:stroke fill markers" />
  <g
     transform="translate(-70.576271,-1010.2983)"
     id="g21">
    <path
       d="m 7,1008.4 c -1.662,0 -3,1.338 -3,3 v 1 c 0,-1.662 1.338,-3 3,-3 h 34 c 1.662,0 3,1.338 3,3 v -1 c 0,-1.662 -1.338,-3 -3,-3 z"
       id="path9"
       inkscape:connector-curvature="0"
       style="opacity:0.2;fill:#ffffff" />
    <path
       style="color:#000000;opacity:0.2"
       d="m 83.834661,1024.0949 c -1.6915,0 -3.0547,1.3521 -3.0547,3.0313 0,12.448 2.2924,21.014 14,20.969 11.707999,-0.046 13.999999,-8.5309 13.999999,-20.969 0,-1.6792 -1.3632,-3.0313 -3.0547,-3.0313 H 83.834261 Z m 4.5,6.8262 c 0.48044,0 0.96316,0.1866 1.332,0.5527 l 5.1133,5.0742 5.1133,-5.0742 c 0.368869,-0.3661 0.844769,-0.5468 1.326199,-0.5468 0.4814,0 0.96707,0.1807 1.3359,0.5468 0.73774,0.7322 0.73774,1.9202 0,2.6524 l -6.300799,6.2519 c -0.40516,0.4021 -0.94706,0.567 -1.4746,0.5274 -0.52755,0.04 -1.0694,-0.1253 -1.4746,-0.5274 l -6.3008,-6.2519 c -0.73774,-0.7322 -0.73774,-1.9202 0,-2.6524 0.36888,-0.3661 0.84965,-0.5527 1.3301,-0.5527 z"
       id="path11"
       inkscape:connector-curvature="0" />
    <path
       d="m 83.834661,1023.0949 c -1.6915,0 -3.0547,1.3521 -3.0547,3.0313 0,12.448 2.2924,21.014 14,20.969 11.707999,-0.046 13.999999,-8.5309 13.999999,-20.969 0,-1.6792 -1.3632,-3.0313 -3.0547,-3.0313 H 83.834261 Z m 4.5,6.8262 c 0.48044,0 0.96316,0.1866 1.332,0.5527 l 5.1133,5.0742 5.1133,-5.0742 c 0.368869,-0.3661 0.844769,-0.5469 1.326199,-0.5469 0.4814,0 0.96707,0.1808 1.3359,0.5469 0.73774,0.7322 0.73774,1.9202 0,2.6524 l -6.300799,6.2519 c -0.40516,0.4021 -0.94706,0.567 -1.4746,0.5274 -0.52755,0.04 -1.0694,-0.1253 -1.4746,-0.5274 l -6.3008,-6.2519 c -0.73774,-0.7322 -0.73774,-1.9202 0,-2.6524 0.36888,-0.3661 0.84965,-0.5527 1.3301,-0.5527 z"
       id="path13"
       inkscape:connector-curvature="0"
       style="fill:#ffffff" />
    <path
       style="color:#000000;opacity:0;stroke-width:2.46199989"
       d="M 81.455,87 C 71.789,87 64,94.889 64,104.68 c 0,72.554 13.1,122.05 80,122.31 66.9,0.26579 80,-49.699 80,-122.31 -1e-5,-9.7951 -7.789,-17.684 -17.455,-17.684 H 81.455 Z m 99.372,39.823 c 2.7453,0 5.4955,1.0797 7.6033,3.2153 4.2157,4.2711 4.2157,11.202 0,15.474 l -36,36.473 c -2.3152,2.3456 -5.4152,3.312 -8.4298,3.0813 -3.0146,0.23069 -6.1146,-0.73571 -8.4298,-3.0813 l -36,-36.473 c -4.2157,-4.2711 -4.2157,-11.202 0,-15.474 2.1078,-2.1356 4.8855,-3.1818 7.6363,-3.1818 2.7509,0 5.4624,1.0462 7.5702,3.1818 l 29.22,29.61 29.22,-29.61 c 2.1078,-2.1356 4.858,-3.2153 7.6033,-3.2153 z"
       clip-path="url(#clipPath4599)"
       transform="matrix(-0.175,0,0,0.17143,119.97966,1008.0949)"
       id="path15"
       inkscape:connector-curvature="0" />
    <path
       style="color:#000000;opacity:0;stroke-width:1.23099995"
       d="M 81.455,87 C 71.789,87 64,94.889 64,104.68 c 0,72.554 13.1,122.05 80,122.31 66.9,0.26579 80,-49.699 80,-122.31 -1e-5,-9.7951 -7.789,-17.684 -17.455,-17.684 H 81.455 Z m 99.372,39.823 c 2.7453,0 5.4955,1.0797 7.6033,3.2153 4.2157,4.2711 4.2157,11.202 0,15.474 l -36,36.473 c -2.3152,2.3456 -5.4152,3.312 -8.4298,3.0813 -3.0146,0.23069 -6.1146,-0.73571 -8.4298,-3.0813 l -36,-36.473 c -4.2157,-4.2711 -4.2157,-11.202 0,-15.474 2.1078,-2.1356 4.8855,-3.1818 7.6363,-3.1818 2.7509,0 5.4624,1.0462 7.5702,3.1818 l 29.22,29.61 29.22,-29.61 c 2.1078,-2.1356 4.858,-3.2153 7.6033,-3.2153 z"
       clip-path="url(#clipPath4599)"
       transform="matrix(-0.175,0,0,0.17143,119.97966,1008.0949)"
       id="path17"
       inkscape:connector-curvature="0" />
  </g>
</svg>
