<?xml version="1.0" encoding="UTF-8"?>
<svg xmlns="http://www.w3.org/2000/svg" xmlns:xlink="http://www.w3.org/1999/xlink" width="48px" height="48px" viewBox="0 0 48 48" version="1.1">
<g id="surface3">
<path style=" stroke:none;fill-rule:nonzero;fill:rgb(92.156863%,92.156863%,92.156863%);fill-opacity:1;" d="M 24 3.472656 C 35.335938 3.472656 44.527344 12.664062 44.527344 24 C 44.527344 35.335938 35.335938 44.527344 24 44.527344 C 12.664062 44.527344 3.472656 35.335938 3.472656 24 C 3.472656 12.664062 12.664062 3.472656 24 3.472656 Z M 24 3.472656 "/>
<path style=" stroke:none;fill-rule:nonzero;fill:rgb(19.607843%,30.19608%,35.686275%);fill-opacity:1;" d="M 32.980469 22.71875 L 25.28125 22.71875 L 25.28125 13.734375 C 25.28125 13.027344 24.707031 12.453125 24 12.453125 C 23.292969 12.453125 22.71875 13.027344 22.71875 13.734375 L 22.71875 24 C 22.71875 24.707031 23.292969 25.28125 24 25.28125 L 32.980469 25.28125 C 33.6875 25.28125 34.261719 24.707031 34.261719 24 C 34.261719 23.292969 33.6875 22.71875 32.980469 22.71875 Z M 32.980469 22.71875 "/>
<path style=" stroke:none;fill-rule:nonzero;fill:rgb(88.627452%,34.117648%,29.803923%);fill-opacity:1;" d="M 24 3.472656 C 12.664062 3.472656 3.472656 12.664062 3.472656 24 C 3.472656 35.335938 12.664062 44.527344 24 44.527344 C 35.335938 44.527344 44.527344 35.335938 44.527344 24 C 44.527344 12.664062 35.335938 3.472656 24 3.472656 Z M 24 40.675781 C 14.804688 40.675781 7.324219 33.195312 7.324219 24 C 7.324219 14.804688 14.804688 7.324219 24 7.324219 C 33.195312 7.324219 40.675781 14.804688 40.675781 24 C 40.675781 33.195312 33.195312 40.675781 24 40.675781 Z M 24 40.675781 "/>
</g>
</svg>
