<?xml version="1.0" encoding="UTF-8"?>
<svg xmlns="http://www.w3.org/2000/svg" xmlns:xlink="http://www.w3.org/1999/xlink" width="48px" height="48px" viewBox="0 0 48 48" version="1.1">
<g id="surface1">
<path style=" stroke:none;fill-rule:nonzero;fill:rgb(0%,66.666669%,83.137256%);fill-opacity:1;" d="M 6.601562 0.160156 L 41.1875 0.160156 C 43.230469 0.160156 44.890625 1.820312 44.890625 3.863281 L 44.890625 44.140625 C 44.890625 46.1875 43.230469 47.84375 41.1875 47.84375 L 6.601562 47.84375 C 4.554688 47.84375 2.898438 46.1875 2.898438 44.140625 L 2.898438 3.863281 C 2.898438 1.820312 4.554688 0.160156 6.601562 0.160156 Z M 6.601562 0.160156 "/>
<path style="fill-rule:nonzero;fill:rgb(100%,100%,100%);fill-opacity:1;stroke-width:0.5;stroke-linecap:round;stroke-linejoin:round;stroke:rgb(98.039216%,100%,100%);stroke-opacity:1;stroke-miterlimit:4;" d="M 16.184896 1027.008016 C 15.143229 1027.008016 14.299479 1027.851766 14.299479 1028.890828 C 14.299479 1029.932495 15.143229 1030.776245 16.184896 1030.776245 C 17.226562 1030.776245 18.070312 1029.932495 18.070312 1028.890828 C 18.070312 1027.851766 17.223958 1027.008016 16.184896 1027.008016 Z M 11.119792 1031.963745 C 10.59375 1031.963745 10.169271 1032.388224 10.169271 1032.914266 C 10.169271 1033.442912 10.59375 1033.864787 11.119792 1033.864787 L 14.432292 1033.864787 L 14.432292 1037.63562 L 10.585938 1043.976766 C 10.200521 1045.393433 11.700521 1045.481974 12.119792 1044.880412 L 16.140625 1039.44812 L 16.200521 1039.44812 L 19.919271 1044.79187 C 20.776042 1045.937703 22.020833 1044.91687 21.507812 1043.976766 L 17.934896 1037.69812 L 17.934896 1033.864787 L 21.25 1033.864787 C 21.776042 1033.864787 22.200521 1033.442912 22.200521 1032.914266 C 22.200521 1032.388224 21.776042 1031.963745 21.25 1031.963745 Z M 11.119792 1031.963745 " transform="matrix(1.5,0,0,1.5,0,-1530.543274)"/>
</g>
</svg>
