<?xml version="1.0" encoding="UTF-8" standalone="no"?>
<!-- Created with Inkscape (http://www.inkscape.org/) -->

<svg
   xmlns:dc="http://purl.org/dc/elements/1.1/"
   xmlns:cc="http://creativecommons.org/ns#"
   xmlns:rdf="http://www.w3.org/1999/02/22-rdf-syntax-ns#"
   xmlns:svg="http://www.w3.org/2000/svg"
   xmlns="http://www.w3.org/2000/svg"
   xmlns:xlink="http://www.w3.org/1999/xlink"
   xmlns:sodipodi="http://sodipodi.sourceforge.net/DTD/sodipodi-0.dtd"
   xmlns:inkscape="http://www.inkscape.org/namespaces/inkscape"
   width="48px"
   height="48px"
   id="svg4700"
   version="1.1"
   inkscape:version="0.92.2 2405546, 2018-03-11"
   sodipodi:docname="sylpheed.svg">
  <defs
     id="defs4702">
    <linearGradient
       id="linearGradient7611">
      <stop
         style="stop-color:#ffffff;stop-opacity:1;"
         offset="0"
         id="stop7613" />
      <stop
         style="stop-color:#ffffff;stop-opacity:0;"
         offset="1"
         id="stop7615" />
    </linearGradient>
    <linearGradient
       id="linearGradient4050">
      <stop
         id="stop4052"
         offset="0"
         style="stop-color:#ffffff;stop-opacity:0.66929132;" />
      <stop
         id="stop4054"
         offset="1"
         style="stop-color:#ffffff;stop-opacity:0;" />
    </linearGradient>
    <filter
       id="filter3174"
       color-interpolation-filters="sRGB">
      <feGaussianBlur
         stdDeviation="1.71"
         id="feGaussianBlur3176" />
    </filter>
    <linearGradient
       gradientTransform="scale(1.0058652,0.994169)"
       gradientUnits="userSpaceOnUse"
       id="ButtonShadow"
       y2="7.0165396"
       x2="45.447727"
       y1="92.539597"
       x1="45.447727">
      <stop
         offset="0"
         style="stop-color:#000000;stop-opacity:1"
         id="stop3750" />
      <stop
         offset="1"
         style="stop-color:#000000;stop-opacity:0.58823532"
         id="stop3752" />
    </linearGradient>
    <linearGradient
       gradientTransform="scale(1.0058652,0.994169)"
       gradientUnits="userSpaceOnUse"
       xlink:href="#ButtonShadow-4"
       id="linearGradient2875"
       y2="7.0165396"
       x2="45.447727"
       y1="92.539597"
       x1="45.447727" />
    <filter
       id="filter3174-2"
       color-interpolation-filters="sRGB">
      <feGaussianBlur
         stdDeviation="1.71"
         id="feGaussianBlur3176-2" />
    </filter>
    <linearGradient
       gradientTransform="scale(1.0058652,0.994169)"
       gradientUnits="userSpaceOnUse"
       id="ButtonShadow-4"
       y2="7.0165396"
       x2="45.447727"
       y1="92.539597"
       x1="45.447727">
      <stop
         offset="0"
         style="stop-color:#000000;stop-opacity:1"
         id="stop3750-6" />
      <stop
         offset="1"
         style="stop-color:#000000;stop-opacity:0.58823532"
         id="stop3752-9" />
    </linearGradient>
    <linearGradient
       x1="45.447727"
       y1="92.539597"
       x2="45.447727"
       y2="7.0165396"
       id="ButtonShadow-0"
       gradientUnits="userSpaceOnUse"
       gradientTransform="scale(1.0058652,0.994169)">
      <stop
         id="stop3750-74"
         style="stop-color:#000000;stop-opacity:1"
         offset="0" />
      <stop
         id="stop3752-4"
         style="stop-color:#000000;stop-opacity:0.58823532"
         offset="1" />
    </linearGradient>
    <filter
       color-interpolation-filters="sRGB"
       id="filter3174-3">
      <feGaussianBlur
         id="feGaussianBlur3176-21"
         stdDeviation="1.71" />
    </filter>
    <linearGradient
       id="linearGradient3242-967-12-570-862-307-5-2-3">
      <stop
         id="stop4498-9-9-5"
         style="stop-color:#ffffff;stop-opacity:1"
         offset="0" />
      <stop
         id="stop4504-8-9-0"
         style="stop-color:#999999;stop-opacity:1"
         offset="1" />
    </linearGradient>
    <linearGradient
       id="linearGradient2490-495-150-777-3-6-38">
      <stop
         id="stop4108-9-0-26"
         style="stop-color:#454545;stop-opacity:1;"
         offset="0" />
      <stop
         id="stop4110-50-0-8"
         style="stop-color:#a5a5a5;stop-opacity:1;"
         offset="1" />
    </linearGradient>
    <linearGradient
       id="linearGradient3866-21">
      <stop
         offset="0"
         style="stop-color:#828282;stop-opacity:1"
         id="stop3868-2" />
      <stop
         offset="0.5"
         style="stop-color:#8f8f8f;stop-opacity:0.63478261"
         id="stop3872-10" />
      <stop
         offset="1"
         style="stop-color:#9d9d9d;stop-opacity:0"
         id="stop3870-8" />
    </linearGradient>
    <linearGradient
       id="linearGradient3333-4-0">
      <stop
         offset="0"
         style="stop-color:#ffffff;stop-opacity:1"
         id="stop3335-4-28" />
      <stop
         offset="1"
         style="stop-color:#ffffff;stop-opacity:0"
         id="stop3337-7-5" />
    </linearGradient>
    <linearGradient
       id="linearGradient3495-6">
      <stop
         offset="0"
         style="stop-color:#000000;stop-opacity:1"
         id="stop3497-2" />
      <stop
         offset="0.5"
         style="stop-color:#000000;stop-opacity:0.49803922"
         id="stop3874-3" />
      <stop
         offset="1"
         style="stop-color:#000000;stop-opacity:0"
         id="stop3499-16" />
    </linearGradient>
    <linearGradient
       id="linearGradient5060">
      <stop
         id="stop5062"
         style="stop-color:#000000;stop-opacity:1"
         offset="0" />
      <stop
         id="stop5064"
         style="stop-color:#000000;stop-opacity:0"
         offset="1" />
    </linearGradient>
    <linearGradient
       id="linearGradient5048">
      <stop
         id="stop5050"
         style="stop-color:#000000;stop-opacity:0"
         offset="0" />
      <stop
         id="stop5056"
         style="stop-color:#000000;stop-opacity:1"
         offset="0.5" />
      <stop
         id="stop5052"
         style="stop-color:#000000;stop-opacity:0"
         offset="1" />
    </linearGradient>
    <clipPath
       id="clipPath4334-6"
       clipPathUnits="userSpaceOnUse">
      <path
         style="fill:#fe9700"
         inkscape:connector-curvature="0"
         d="m 160,238 -19.09,14.324 c -0.0411,0.0267 -0.0783,0.0583 -0.11719,0.0879 l -0.0234,0.0176 v 0.002 c -0.47,0.37 -0.77,0.93 -0.77,1.57 v 24 c 0,1.108 0.892,2 2,2 h 36 c 1.108,0 2,-0.892 2,-2 v -24 c 0,-0.65501 -0.31697,-1.2294 -0.80078,-1.5938 l 0.008,-0.0117 -19.21,-14.4 z"
         id="path2" />
    </clipPath>
    <filter
       id="filter4338"
       style="color-interpolation-filters:sRGB"
       height="1.1339999"
       width="1.109"
       y="-0.07"
       x="-0.050000001">
      <feGaussianBlur
         stdDeviation=".725"
         id="feGaussianBlur5" />
    </filter>
  </defs>
  <sodipodi:namedview
     id="base"
     pagecolor="#ffffff"
     bordercolor="#666666"
     borderopacity="1.0"
     inkscape:pageopacity="0.0"
     inkscape:pageshadow="2"
     inkscape:zoom="10.984631"
     inkscape:cx="-14.716466"
     inkscape:cy="14.587474"
     inkscape:current-layer="layer1"
     showgrid="true"
     inkscape:grid-bbox="true"
     inkscape:document-units="px"
     inkscape:window-width="1920"
     inkscape:window-height="1013"
     inkscape:window-x="0"
     inkscape:window-y="0"
     inkscape:window-maximized="1"
     inkscape:snap-to-guides="false"
     inkscape:snap-grids="false">
    <inkscape:grid
       type="xygrid"
       id="grid1021"
       empspacing="5"
       visible="true"
       enabled="true"
       snapvisiblegridlinesonly="true" />
  </sodipodi:namedview>
  <metadata
     id="metadata4705">
    <rdf:RDF>
      <cc:Work
         rdf:about="">
        <dc:format>image/svg+xml</dc:format>
        <dc:type
           rdf:resource="http://purl.org/dc/dcmitype/StillImage" />
        <dc:title />
      </cc:Work>
    </rdf:RDF>
  </metadata>
  <g
     id="layer1"
     inkscape:label="Layer 1"
     inkscape:groupmode="layer">
    <g
       id="layer2"
       style="display:none"
       transform="translate(5.204491,-179.6879)">
      <rect
         width="86"
         height="85"
         rx="6"
         ry="6"
         x="5"
         y="7"
         id="rect3745"
         style="opacity:0.9;fill:url(#ButtonShadow);fill-opacity:1;fill-rule:nonzero;stroke:none;filter:url(#filter3174)" />
    </g>
    <g
       id="layer4"
       transform="translate(5.204491,-179.6879)" />
    <g
       id="layer2-9"
       style="display:none"
       transform="translate(-65.348932,-154.8626)">
      <rect
         width="86"
         height="85"
         rx="6"
         ry="6"
         x="5"
         y="7"
         id="rect3745-1"
         style="opacity:0.9;fill:url(#ButtonShadow-0);fill-opacity:1;fill-rule:nonzero;stroke:none;filter:url(#filter3174-3)" />
    </g>
    <g
       id="layer4-0"
       transform="translate(-65.348932,-154.8626)" />
    <g
       id="layer2-7"
       style="display:none"
       transform="translate(63.017297,-9.203493)">
      <path
         d="m 11,7.0000001 c -2.8840938,0 -5.2600098,2.0142918 -5.84375,4.7187499 2.508553,0.0336 4.5312502,2.077266 4.53125,4.59375 0,2.53742 -2.0563306,4.59375 -4.59375,4.59375 -0.031404,0 -0.062496,6.28e-4 -0.09375,0 l 0,7.15625 c 0.031254,-6.28e-4 0.062346,0 0.09375,0 2.5374193,0 4.5937502,2.056331 4.59375,4.59375 0,2.53742 -2.0563306,4.593749 -4.59375,4.59375 -0.031404,0 -0.062496,6.28e-4 -0.09375,0 l 0,7.15625 c 0.031254,-6.28e-4 0.062346,0 0.09375,0 2.5374193,0 4.5937502,2.056331 4.59375,4.59375 0,2.53742 -2.0563306,4.593749 -4.59375,4.59375 -0.031404,0 -0.062496,6.28e-4 -0.09375,0 L 5,60.75 c 0.031254,-6.28e-4 0.062346,0 0.09375,0 2.5374193,0 4.5937502,2.056331 4.59375,4.59375 0,2.53742 -2.0563306,4.593753 -4.59375,4.59375 -0.031404,0 -0.062496,6.28e-4 -0.09375,0 l 0,7.15625 c 0.031254,-6.28e-4 0.062346,0 0.09375,0 2.5374193,-4e-6 4.5937502,2.056332 4.59375,4.59375 0,2.537416 -2.0563306,4.593753 -4.59375,4.59375 -0.031404,0 -0.062496,6.28e-4 -0.09375,0 C 5.1443858,89.475105 7.7692544,92 11,92 l 0.21875,0 c -6.28e-4,-0.03125 0,-0.06235 0,-0.09375 0,-2.53742 2.05633,-4.593748 4.59375,-4.59375 2.53742,0 4.59375,2.056327 4.59375,4.59375 0,0.0314 6.28e-4,0.0625 0,0.09375 l 7.15625,0 c -6.28e-4,-0.03125 0,-0.06235 0,-0.09375 0,-2.53742 2.056329,-4.593748 4.59375,-4.59375 2.53742,0 4.593752,2.056327 4.59375,4.59375 0,0.0314 6.28e-4,0.0625 0,0.09375 l 7.15625,0 c -6.28e-4,-0.03125 0,-0.06235 0,-0.09375 0,-2.53742 2.056329,-4.593748 4.59375,-4.59375 2.53742,0 4.593748,2.056327 4.59375,4.59375 0,0.0314 6.28e-4,0.0625 0,0.09375 L 60.25,92 c -6.28e-4,-0.03125 0,-0.06235 0,-0.09375 0,-2.53742 2.056333,-4.593748 4.59375,-4.59375 2.53742,0 4.593749,2.056327 4.59375,4.59375 0,0.0314 6.28e-4,0.0625 0,0.09375 l 7.15625,0 c -6.28e-4,-0.03125 0,-0.06235 0,-0.09375 -5e-6,-2.53742 2.056334,-4.593748 4.59375,-4.59375 2.537416,0 4.593749,2.056327 4.59375,4.59375 0,0.01047 7e-5,0.0208 0,0.03125 2.865173,-0.366463 5.086108,-2.72217 5.21875,-5.65625 -0.03125,6.28e-4 -0.06235,0 -0.09375,0 -2.53742,-3e-6 -4.593748,-2.05633 -4.59375,-4.59375 0,-2.537423 2.056327,-4.593752 4.59375,-4.59375 0.0314,0 0.0625,-6.28e-4 0.09375,0 l 0,-7.15625 c -0.03125,6.28e-4 -0.06235,0 -0.09375,0 -2.53742,10e-7 -4.593748,-2.056331 -4.59375,-4.59375 0,-2.537419 2.056327,-4.593749 4.59375,-4.59375 0.0314,0 0.0625,-6.28e-4 0.09375,0 l 0,-7.15625 c -0.03125,6.28e-4 -0.06235,0 -0.09375,0 -2.53742,10e-7 -4.593748,-2.056331 -4.59375,-4.59375 0,-2.537419 2.056327,-4.593749 4.59375,-4.59375 0.0314,0 0.0625,-6.28e-4 0.09375,0 L 91,37.25 c -0.03125,6.28e-4 -0.06235,0 -0.09375,0 -2.53742,10e-7 -4.593748,-2.056331 -4.59375,-4.59375 0,-2.537419 2.056327,-4.593749 4.59375,-4.59375 0.0314,0 0.0625,-6.28e-4 0.09375,0 l 0,-7.15625 c -0.03125,6.28e-4 -0.06235,0 -0.09375,0 -2.53742,1e-6 -4.593748,-2.056332 -4.59375,-4.59375 0,-2.516483 2.022694,-4.560154 4.53125,-4.59375 -0.537373,-2.4896402 -2.580279,-4.4005759 -5.15625,-4.6874999 -0.428865,2.094046 -2.279755,3.6562499 -4.5,3.6562499 -2.230714,0 -4.082641,-1.5787032 -4.5,-3.6874999 l -7.34375,0 c -0.417358,2.1087966 -2.269287,3.6874999 -4.5,3.6874999 -2.23071,0 -4.082641,-1.5787032 -4.5,-3.6874999 l -7.34375,0 C 52.582641,9.1087967 50.730709,10.6875 48.5,10.6875 c -2.23071,0 -4.082641,-1.5787032 -4.5,-3.6874999 l -7.34375,0 c -0.417359,2.1087966 -2.269291,3.6874999 -4.5,3.6874999 -2.23071,0 -4.082641,-1.5787032 -4.5,-3.6874999 l -7.34375,0 c -0.417359,2.1087966 -2.269291,3.6874999 -4.5,3.6874999 -2.23071,0 -4.082641,-1.5787032 -4.5,-3.6874999 l -0.3125,0 z"
         inkscape:connector-curvature="0"
         id="rect3745-6"
         style="opacity:0.9;fill:url(#linearGradient2875);fill-opacity:1;fill-rule:nonzero;stroke:none;display:inline;filter:url(#filter3174-2)" />
    </g>
    <path
       style="opacity:1;fill:#535d6c;fill-opacity:1;stroke:none;stroke-width:0.35695893;stroke-linecap:round;stroke-linejoin:round;stroke-miterlimit:4;stroke-dasharray:none;stroke-opacity:1;paint-order:stroke fill markers"
       d="m 23.898438,0.467823 c -0.935544,0 -1.871029,0.32694756 -2.587891,0.9804688 L 3.5253906,17.661182 v 7.59375 L 21.310547,41.467823 c 1.433723,1.307042 3.742058,1.307042 5.175781,0 L 45,24.590869 V 18.325244 L 26.486328,1.4482918 C 25.769466,0.79477056 24.833981,0.467823 23.898438,0.467823 Z"
       id="rect843"
       inkscape:connector-curvature="0" />
    <rect
       ry="3.0300622"
       rx="3.0300622"
       y="6.283597"
       x="7.0847158"
       height="39.012642"
       width="34.355961"
       id="rect859"
       style="opacity:0.907;fill:#ffffff;fill-opacity:1;stroke:#000000;stroke-width:0.29569098;stroke-linecap:round;stroke-linejoin:round;stroke-miterlimit:4;stroke-dasharray:none;stroke-opacity:1;paint-order:stroke fill markers" />
    <path
       inkscape:connector-curvature="0"
       style="fill:#6f7c91;fill-opacity:1;stroke-width:1.22714341"
       d="m 3.5253906,17.947266 v 26.003906 c 0,2.026476 1.6317272,3.658203 3.6582032,3.658203 H 41.341797 c 1.296892,0 2.426948,-0.671308 3.076172,-1.683594 z"
       id="path829" />
    <path
       inkscape:connector-curvature="0"
       style="fill:#939dac;stroke-width:1.24278879"
       d="M 45,18.214844 4.2363281,46.105469 c 0.6642598,0.908883 1.7303476,1.503906 2.9472657,1.503906 H 41.341797 C 43.368273,47.609375 45,45.977648 45,43.951172 Z"
       id="path836" />
    <path
       id="path904"
       style="color:#000000;font-style:normal;font-variant:normal;font-weight:normal;font-stretch:normal;font-size:medium;line-height:normal;font-family:Sans;-inkscape-font-specification:Sans;text-indent:0;text-align:start;text-decoration:none;text-decoration-line:none;letter-spacing:normal;word-spacing:normal;text-transform:none;writing-mode:lr-tb;direction:ltr;baseline-shift:baseline;text-anchor:start;display:inline;overflow:visible;visibility:visible;fill:#4074c0;fill-opacity:1;fill-rule:evenodd;stroke:none;stroke-width:2.62905145;marker:none;enable-background:accumulate"
       d="m 18.992814,21.320928 c 2.027862,0 3.60054,1.068067 4.706653,2.154881 -1.026947,0.457655 -2.178291,0.78144 -3.552619,0.78144 -1.688062,0 -2.686518,-0.880617 -2.896401,-1.586559 -0.104949,-0.352973 -0.06403,-0.648226 0.181027,-0.899842 0.245046,-0.251616 0.742986,-0.44992 1.56134,-0.44992 z m 5.702292,-6.440959 c -0.765716,0.09381 -1.54649,0.459706 -2.285444,1.136638 -0.01635,0.01002 -0.02891,0.01355 -0.04525,0.02367 -0.01698,0.01587 -0.0283,0.03113 -0.04525,0.04736 a 0.36600756,0.38302131 0 0 0 0.429934,0.61568 c 1.289412,-0.800464 2.351765,-0.757132 3.122684,-0.284161 0.770916,0.472974 1.267175,1.423374 1.267175,2.53376 0,1.425626 -0.678348,2.716409 -1.900763,3.694081 -0.198756,0.15896 -0.497648,0.239556 -0.7241,0.378882 -1.239619,-1.570644 -3.029592,-3.196802 -5.657036,-3.196802 -1.910967,0.03167 -3.119329,1.402999 -2.941656,2.8416 0.08882,0.719298 0.516971,1.422027 1.267176,1.918079 0.750201,0.496054 1.825574,0.805119 3.23582,0.805119 1.269826,0 2.7527,-0.333493 4.163579,-0.852478 0.345351,0.49079 0.927752,1.231359 0.927752,1.231359 a 0.36940201,0.38657352 0 0 0 0.656219,-0.355201 c 0,0 -0.586947,-0.775887 -0.814614,-1.160319 0.214979,-0.09811 0.450452,-0.148024 0.656218,-0.260479 1.750431,-0.956651 3.145308,-2.498917 3.145308,-4.64128 0,-1.676406 -0.900164,-3.221955 -2.217555,-4.00192 -0.658695,-0.389982 -1.442707,-0.571297 -2.240187,-0.4736 z m 0.04525,-4.807035 c -1.495426,0 -2.863984,0.484188 -3.869415,1.326077 -1.005432,0.841889 -1.651853,2.047027 -1.651853,3.4336 0,1.416887 0.802126,2.61483 1.92339,3.149439 1.089594,0.519505 2.47758,0.337812 3.643131,-0.757761 0.02534,-0.02383 0.06542,0.0011 0.09052,-0.02367 0.0085,-0.0083 0.01414,-0.01526 0.02262,-0.02368 a 0.36600756,0.38302131 0 0 0 -0.475192,-0.568321 c -0.0097,0.0073 -0.01313,0.0163 -0.02263,0.02368 -1.085645,0.83553 -2.083263,0.737915 -2.851144,0.284158 -0.774654,-0.457758 -1.262637,-1.334774 -1.221919,-2.060159 a 0.36600756,0.38302131 0 0 0 0,-0.02367 c 0,-0.979818 0.28443,-1.56655 0.746729,-1.989121 0.4623,-0.42257 1.133074,-0.674217 1.900761,-0.78144 1.535381,-0.214447 3.408332,0.125932 4.503,0.284159 1.501155,0.217009 2.612488,-0.15611 3.348966,-0.592001 0.646447,-0.382602 0.892604,-0.748512 0.97301,-0.852477 0.01121,-0.01443 0.135772,-0.118398 0.135772,-0.118398 a 0.36600756,0.38302131 0 0 0 0.09051,-0.21313 0.36600756,0.38302131 0 0 0 -0.520446,-0.355199 c -2.162687,1.006865 -4.491679,-0.10038 -6.765813,-0.142082 z"
       inkscape:connector-curvature="0" />
  </g>
</svg>
