<?xml version="1.0" encoding="UTF-8" standalone="no"?>
<!-- Created with Inkscape (http://www.inkscape.org/) -->

<svg
   xmlns:dc="http://purl.org/dc/elements/1.1/"
   xmlns:cc="http://creativecommons.org/ns#"
   xmlns:rdf="http://www.w3.org/1999/02/22-rdf-syntax-ns#"
   xmlns:svg="http://www.w3.org/2000/svg"
   xmlns="http://www.w3.org/2000/svg"
   xmlns:sodipodi="http://sodipodi.sourceforge.net/DTD/sodipodi-0.dtd"
   xmlns:inkscape="http://www.inkscape.org/namespaces/inkscape"
   width="48.000004"
   height="48"
   id="svg3827"
   version="1.1"
   inkscape:version="0.92.2 2405546, 2018-03-11"
   sodipodi:docname="system-software-update.svg">
  <defs
     id="defs3829">
    <linearGradient
       id="linearGradient5032">
      <stop
         style="stop-color:#f4f4f4;stop-opacity:1;"
         offset="0"
         id="stop5034" />
      <stop
         style="stop-color:#9d9d9d;stop-opacity:1;"
         offset="1"
         id="stop5036" />
    </linearGradient>
    <linearGradient
       id="linearGradient7958">
      <stop
         id="stop7960"
         offset="0"
         style="stop-color:#5d5d57;stop-opacity:1;" />
      <stop
         id="stop7962"
         offset="1"
         style="stop-color:#2d2c2b;stop-opacity:1;" />
    </linearGradient>
    <linearGradient
       id="linearGradient5081">
      <stop
         id="stop5083"
         offset="0"
         style="stop-color:#c3c1bf;stop-opacity:1;" />
      <stop
         id="stop5085"
         offset="1"
         style="stop-color:#a39f9b;stop-opacity:1;" />
    </linearGradient>
    <clipPath
       clipPathUnits="userSpaceOnUse"
       id="clipPath5101">
      <path
         sodipodi:type="arc"
         style="fill:#ff00ff;fill-opacity:1;stroke:none"
         id="path5103"
         sodipodi:cx="296"
         sodipodi:cy="448"
         sodipodi:rx="19"
         sodipodi:ry="19"
         d="m 315,448 a 19,19 0 1 1 -38,0 19,19 0 1 1 38,0 z"
         transform="translate(0,-0.44665647)" />
    </clipPath>
    <clipPath
       clipPathUnits="userSpaceOnUse"
       id="clipPath5149">
      <path
         id="path5151"
         d="m 306.50004,1007.5487 c 10.04414,-5.7989 13.48552,-18.64235 7.68653,-28.68649 -5.79901,-10.04418 -18.64239,-13.48553 -28.68653,-7.68654 -10.04415,5.79899 -13.48555,18.64236 -7.68654,28.68654 5.79899,10.04419 18.64239,13.48549 28.68654,7.68649 z m -2,-3.4641 c -8.13098,4.6945 -18.52802,1.9086 -23.22244,-6.22239 -4.69442,-8.13098 -1.90854,-18.52801 6.22244,-23.22243 8.13097,-4.69442 18.52801,-1.90855 23.22243,6.22243 4.69442,8.13097 1.90854,18.52801 -6.22243,23.22239 z"
         style="fill:#ff00ff;fill-opacity:1;stroke:none"
         inkscape:connector-curvature="0" />
    </clipPath>
    <clipPath
       clipPathUnits="userSpaceOnUse"
       id="clipPath5171">
      <path
         id="path5173"
         d="m 281.15075,974.51295 c -8.20101,8.20101 -8.20101,21.49748 0,29.69845 8.20104,8.2011 21.49748,8.201 29.69849,0 8.20101,-8.20097 8.20104,-21.49741 0,-29.69845 -8.20101,-8.20101 -21.49748,-8.20101 -29.69849,0 z m 2.82843,2.82843 c 6.63891,-6.63891 17.40272,-6.63891 24.04163,0 6.63891,6.63891 6.63891,17.40272 0,24.04162 -6.63891,6.6389 -17.40272,6.6389 -24.04163,0 -6.63891,-6.6389 -6.63891,-17.40271 0,-24.04162 z"
         style="fill:#ff00ff;fill-opacity:1;stroke:none"
         inkscape:connector-curvature="0" />
    </clipPath>
    <linearGradient
       id="linearGradient4100-34">
      <stop
         style="stop-color:#f5f5f5;stop-opacity:1;"
         offset="0"
         id="stop4102-9" />
      <stop
         style="stop-color:#f5f5f5;stop-opacity:0;"
         offset="1"
         id="stop4104-2" />
    </linearGradient>
    <linearGradient
       id="linearGradient3780">
      <stop
         style="stop-color:#f5f5f5;stop-opacity:1;"
         offset="0"
         id="stop3782" />
      <stop
         style="stop-color:#f5f5f5;stop-opacity:0;"
         offset="1"
         id="stop3784" />
    </linearGradient>
    <linearGradient
       id="linearGradient8054">
      <stop
         style="stop-color:#de4814;stop-opacity:1;"
         offset="0"
         id="stop8056" />
      <stop
         style="stop-color:#ff6000;stop-opacity:1;"
         offset="1"
         id="stop8058" />
    </linearGradient>
  </defs>
  <sodipodi:namedview
     id="base"
     pagecolor="#ffffff"
     bordercolor="#666666"
     borderopacity="1.0"
     inkscape:pageopacity="0.0"
     inkscape:pageshadow="2"
     inkscape:zoom="8.6289963"
     inkscape:cx="-15.122135"
     inkscape:cy="23.392857"
     inkscape:document-units="px"
     inkscape:current-layer="48px"
     showgrid="false"
     fit-margin-top="0"
     fit-margin-left="0"
     fit-margin-right="0"
     fit-margin-bottom="0"
     inkscape:window-width="1920"
     inkscape:window-height="1013"
     inkscape:window-x="0"
     inkscape:window-y="0"
     inkscape:window-maximized="1" />
  <metadata
     id="metadata3832">
    <rdf:RDF>
      <cc:Work
         rdf:about="">
        <dc:format>image/svg+xml</dc:format>
        <dc:type
           rdf:resource="http://purl.org/dc/dcmitype/StillImage" />
        <dc:title />
      </cc:Work>
    </rdf:RDF>
  </metadata>
  <g
     inkscape:label="Layer 1"
     inkscape:groupmode="layer"
     id="layer1"
     transform="translate(-530.28571,-811.21932)">
    <g
       transform="translate(258.28571,-89.142855)"
       id="48px"
       inkscape:export-filename="software-updater.png"
       inkscape:export-xdpi="180"
       inkscape:export-ydpi="180"
       style="display:inline"
       inkscape:label="#g5358">
      <rect
         ry="3.5865881"
         rx="3.5865881"
         y="901.16266"
         x="275.42966"
         height="46.178024"
         width="40.666058"
         id="rect859-3"
         style="opacity:1;fill:#cfb48b;fill-opacity:1;stroke:#66420d;stroke-width:0.44999999;stroke-linecap:round;stroke-linejoin:round;stroke-miterlimit:4;stroke-dasharray:none;stroke-opacity:1;paint-order:stroke fill markers" />
      <path
         sodipodi:type="inkscape:offset"
         inkscape:radius="0.93296653"
         inkscape:original="M 333 392 C 331.892 392 331 392.892 331 394 C 331 395.108 331.892 396 333 396 L 347 396 C 348.108 396 349 395.108 349 394 C 349 392.892 348.108 392 347 392 L 333 392 z "
         style="display:inline;fill:#53676c;fill-opacity:1;stroke:none"
         id="path865"
         d="m 333,391.06641 c -1.60873,0 -2.93359,1.32486 -2.93359,2.93359 0,1.60873 1.32486,2.93359 2.93359,2.93359 h 14 c 1.60873,0 2.93359,-1.32486 2.93359,-2.93359 0,-1.60873 -1.32486,-2.93359 -2.93359,-2.93359 z"
         transform="matrix(1.0369201,0,0,1.0369201,-56.955688,516.27089)" />
      <rect
         style="display:inline;fill:#ffffff;fill-opacity:1;stroke:none;stroke-width:1.03692031"
         id="rect867"
         width="18.664566"
         height="4.1476812"
         x="286.26492"
         y="922.74365"
         ry="2.0738406" />
      <path
         style="display:inline;fill:#ff5555;fill-opacity:1;stroke:none;stroke-width:1.03692031"
         d="m 288.33878,923.78059 c -0.58595,0 -1.03692,0.45096 -1.03692,1.03691 0,0.58597 0.45097,1.03692 1.03692,1.03692 h 9.3323 c 0.58595,0 1.03691,-0.45095 1.03691,-1.03692 0,-0.58595 -0.45096,-1.03691 -1.03691,-1.03691 z"
         id="path869"
         inkscape:connector-curvature="0"
         sodipodi:nodetypes="sssssss" />
      <path
         style="display:inline;fill:#784421;stroke:#784421;stroke-width:0.766;stroke-linecap:round;stroke-linejoin:round;stroke-opacity:1;stroke-miterlimit:4;stroke-dasharray:none;paint-order:stroke fill markers;fill-opacity:1"
         d="m 295.43372,911.17556 a 15.51724,15.51724 0 0 0 -12.26842,6.02965 h 2.20441 a 13.847814,13.847814 0 0 1 10.06401,-4.35989 13.847814,13.847814 0 0 1 9.93416,4.21314 l -1.10979,0.74886 4.38012,2.43547 -0.7168,-4.90972 -1.16207,0.78596 a 15.51724,15.51724 0 0 0 -11.32562,-4.94347 z"
         id="path871"
         inkscape:connector-curvature="0" />
      <path
         style="display:inline;fill:#784421;stroke:#784421;stroke-width:0.76588327px;stroke-linecap:round;stroke-linejoin:round;stroke-opacity:1;paint-order:stroke markers fill"
         d="m 296.08079,938.203 a 15.51724,15.51724 0 0 0 12.26842,-6.02964 h -2.2044 a 13.847814,13.847814 0 0 1 -10.06402,4.35989 13.847814,13.847814 0 0 1 -9.93415,-4.21315 l 1.10979,-0.74886 -4.38013,-2.43547 0.71681,4.90972 1.16208,-0.78595 a 15.51724,15.51724 0 0 0 11.3256,4.94346 z"
         id="path873"
         inkscape:connector-curvature="0" />
    </g>
  </g>
</svg>
