<?xml version="1.0" encoding="UTF-8"?>
<svg xmlns="http://www.w3.org/2000/svg" xmlns:xlink="http://www.w3.org/1999/xlink" width="16px" height="16px" viewBox="0 0 16 16" version="1.1">
<g id="surface1">
<path style=" stroke:none;fill-rule:nonzero;fill:rgb(16.470589%,36.078432%,61.56863%);fill-opacity:1;" d="M 2.394531 0.171875 L 13.78125 0.171875 C 14.453125 0.171875 15 0.71875 15 1.390625 L 15 14.652344 C 15 15.324219 14.453125 15.871094 13.78125 15.871094 L 2.394531 15.871094 C 1.722656 15.871094 1.175781 15.324219 1.175781 14.652344 L 1.175781 1.390625 C 1.175781 0.71875 1.722656 0.171875 2.394531 0.171875 Z M 2.394531 0.171875 "/>
<path style=" stroke:none;fill-rule:nonzero;fill:rgb(100%,100%,100%);fill-opacity:1;" d="M 10.792969 4.441406 C 10.53125 4.441406 10.023438 5.042969 9.835938 5.136719 C 9.644531 5.230469 8.140625 6.304688 7.996094 6.492188 C 7.855469 6.683594 7.664062 6.761719 7.457031 6.746094 C 7.253906 6.730469 6.601562 6.722656 6.378906 6.851562 C 6.15625 6.976562 5.144531 8.007812 4.890625 8.136719 C 4.636719 8.261719 4.304688 8.324219 4.148438 8.339844 C 3.988281 8.359375 3.464844 8.941406 3.320312 9.050781 C 3.179688 9.160156 2.050781 9.648438 1.894531 9.742188 C 1.734375 9.835938 3.050781 11.164062 3.238281 11.195312 C 3.398438 11.21875 2.957031 11.511719 2.800781 11.78125 C 2.800781 11.78125 2.78125 11.78125 2.78125 11.78125 L 1.511719 13.179688 L 1.511719 14.265625 C 1.511719 14.941406 2.054688 15.484375 2.730469 15.484375 L 9.140625 15.484375 L 9.199219 14.203125 C 9.207031 14.203125 9.214844 14.199219 9.222656 14.199219 C 9.28125 13.894531 9.246094 13.410156 9.28125 13.105469 C 9.3125 12.824219 9.421875 10.4375 9.835938 9.808594 C 10.246094 9.175781 11.425781 8.417969 11.835938 8.339844 C 12.25 8.261719 12.167969 8.105469 12.167969 7.960938 C 12.167969 7.820312 12.105469 7.503906 11.996094 7.457031 C 11.886719 7.410156 11.453125 7.691406 11.308594 7.722656 C 11.167969 7.757812 10.484375 7.804688 10.390625 7.644531 C 10.292969 7.488281 11.160156 5.878906 11.269531 5.6875 C 11.378906 5.5 11.429688 5.246094 11.222656 4.976562 C 11.015625 4.710938 10.875 4.441406 10.792969 4.441406 Z M 10.792969 4.441406 "/>
<path style=" stroke:none;fill-rule:nonzero;fill:rgb(16.470589%,36.078432%,61.56863%);fill-opacity:1;" d="M 7.222656 7.816406 C 7.222656 7.816406 6.605469 7.726562 6.25 8.070312 C 5.894531 8.414062 5.585938 9.167969 5.609375 9.398438 C 5.632812 9.625 6.347656 8.617188 6.65625 8.550781 C 6.964844 8.480469 7.296875 7.976562 7.222656 7.816406 Z M 7.222656 7.816406 "/>
</g>
</svg>
