<?xml version="1.0" encoding="UTF-8"?>
<svg xmlns="http://www.w3.org/2000/svg" xmlns:xlink="http://www.w3.org/1999/xlink" width="16px" height="16px" viewBox="0 0 16 16" version="1.1">
<g id="surface1">
<path style=" stroke:none;fill-rule:nonzero;fill:rgb(40.000001%,40.000001%,40.000001%);fill-opacity:1;" d="M 6.058594 7.996094 C 6.058594 6.902344 6.945312 6.015625 8.035156 6.015625 L 10.675781 6.015625 L 10.675781 0.734375 C 10.675781 0.371094 10.378906 0.0742188 10.015625 0.0742188 L 0.777344 0.0742188 C 0.410156 0.0742188 0.117188 0.371094 0.117188 0.734375 L 0.117188 15.253906 C 0.117188 15.617188 0.410156 15.914062 0.777344 15.914062 L 10.015625 15.914062 C 10.378906 15.914062 10.675781 15.617188 10.675781 15.253906 L 10.675781 9.972656 L 8.035156 9.972656 C 6.945312 9.972656 6.058594 9.085938 6.058594 7.996094 Z M 6.058594 7.996094 "/>
<path style=" stroke:none;fill-rule:nonzero;fill:rgb(40.000001%,40.000001%,40.000001%);fill-opacity:1;" d="M 15.808594 8.410156 C 15.808594 8.410156 15.808594 8.40625 15.8125 8.402344 C 15.828125 8.390625 15.835938 8.375 15.847656 8.359375 C 15.847656 8.351562 15.855469 8.34375 15.859375 8.339844 C 15.863281 8.328125 15.871094 8.316406 15.878906 8.304688 C 15.882812 8.296875 15.890625 8.285156 15.890625 8.277344 C 15.894531 8.265625 15.902344 8.253906 15.90625 8.246094 C 15.910156 8.234375 15.914062 8.222656 15.917969 8.214844 C 15.921875 8.203125 15.921875 8.195312 15.925781 8.183594 C 15.933594 8.171875 15.933594 8.160156 15.9375 8.144531 C 15.941406 8.140625 15.941406 8.132812 15.941406 8.125 C 15.945312 8.109375 15.949219 8.089844 15.953125 8.070312 C 15.953125 8.066406 15.953125 8.0625 15.953125 8.058594 C 15.953125 8.015625 15.953125 7.972656 15.953125 7.925781 C 15.953125 7.921875 15.953125 7.921875 15.953125 7.917969 C 15.949219 7.898438 15.945312 7.878906 15.941406 7.863281 C 15.941406 7.859375 15.941406 7.847656 15.9375 7.839844 C 15.933594 7.828125 15.933594 7.816406 15.925781 7.800781 C 15.921875 7.792969 15.921875 7.785156 15.917969 7.773438 C 15.914062 7.765625 15.910156 7.753906 15.90625 7.742188 C 15.902344 7.734375 15.894531 7.722656 15.890625 7.710938 C 15.890625 7.703125 15.882812 7.691406 15.878906 7.683594 C 15.871094 7.671875 15.863281 7.660156 15.859375 7.652344 C 15.855469 7.640625 15.847656 7.636719 15.847656 7.628906 C 15.835938 7.609375 15.828125 7.597656 15.8125 7.582031 C 15.808594 7.578125 15.808594 7.578125 15.808594 7.578125 C 15.792969 7.558594 15.777344 7.542969 15.761719 7.523438 L 13.121094 4.890625 C 12.863281 4.628906 12.449219 4.628906 12.191406 4.890625 C 11.933594 5.144531 11.933594 5.5625 12.191406 5.820312 L 13.703125 7.332031 L 8.035156 7.332031 C 7.671875 7.332031 7.375 7.628906 7.375 7.996094 C 7.375 8.359375 7.671875 8.652344 8.035156 8.652344 L 13.703125 8.652344 L 12.191406 10.167969 C 11.933594 10.421875 11.933594 10.839844 12.191406 11.097656 C 12.316406 11.230469 12.484375 11.296875 12.65625 11.296875 C 12.828125 11.296875 12.996094 11.230469 13.121094 11.097656 L 15.761719 8.464844 C 15.777344 8.445312 15.792969 8.429688 15.808594 8.410156 Z M 15.808594 8.410156 "/>
</g>
</svg>
