<?xml version="1.0" encoding="UTF-8"?>
<svg xmlns="http://www.w3.org/2000/svg" xmlns:xlink="http://www.w3.org/1999/xlink" width="16px" height="16px" viewBox="0 0 16 16" version="1.1">
<g id="surface1">
<path style="fill-rule:nonzero;fill:rgb(94.901961%,94.901961%,94.901961%);fill-opacity:1;stroke-width:0.356959;stroke-linecap:round;stroke-linejoin:round;stroke:rgb(0%,0%,0%);stroke-opacity:1;stroke-miterlimit:4;" d="M 7.183594 0.515625 L 41.34375 0.515625 C 43.359375 0.515625 45 2.15625 45 4.171875 L 45 43.957031 C 45 45.972656 43.359375 47.613281 41.34375 47.613281 L 7.183594 47.613281 C 5.167969 47.613281 3.527344 45.972656 3.527344 43.957031 L 3.527344 4.171875 C 3.527344 2.15625 5.167969 0.515625 7.183594 0.515625 Z M 7.183594 0.515625 " transform="matrix(0.333333,0,0,0.333333,0,0)"/>
<path style=" stroke:none;fill-rule:nonzero;fill:rgb(26.666668%,66.666669%,0%);fill-opacity:1;" d="M 5.566406 2.714844 L 8.863281 2.714844 L 8.863281 3.714844 L 5.566406 3.714844 Z M 5.566406 2.714844 "/>
<path style=" stroke:none;fill-rule:nonzero;fill:rgb(74.117649%,74.117649%,74.117649%);fill-opacity:1;" d="M 5.566406 4.046875 L 8.863281 4.046875 L 8.863281 5.046875 L 5.566406 5.046875 Z M 5.566406 4.046875 "/>
<path style=" stroke:none;fill-rule:nonzero;fill:rgb(74.117649%,74.117649%,74.117649%);fill-opacity:1;" d="M 5.566406 5.382812 L 8.863281 5.382812 L 8.863281 6.382812 L 5.566406 6.382812 Z M 5.566406 5.382812 "/>
<path style=" stroke:none;fill-rule:nonzero;fill:rgb(74.117649%,74.117649%,74.117649%);fill-opacity:1;" d="M 5.566406 6.714844 L 8.863281 6.714844 L 8.863281 7.714844 L 5.566406 7.714844 Z M 5.566406 6.714844 "/>
<path style=" stroke:none;fill-rule:nonzero;fill:rgb(74.117649%,74.117649%,74.117649%);fill-opacity:1;" d="M 5.566406 8.046875 L 8.863281 8.046875 L 8.863281 9.046875 L 5.566406 9.046875 Z M 5.566406 8.046875 "/>
<path style=" stroke:none;fill-rule:nonzero;fill:rgb(26.666668%,66.666669%,0%);fill-opacity:1;" d="M 9.6875 2.714844 L 12.980469 2.714844 L 12.980469 3.714844 L 9.6875 3.714844 Z M 9.6875 2.714844 "/>
<path style=" stroke:none;fill-rule:nonzero;fill:rgb(74.117649%,74.117649%,74.117649%);fill-opacity:1;" d="M 9.6875 4.046875 L 12.980469 4.046875 L 12.980469 5.046875 L 9.6875 5.046875 Z M 9.6875 4.046875 "/>
<path style=" stroke:none;fill-rule:nonzero;fill:rgb(74.117649%,74.117649%,74.117649%);fill-opacity:1;" d="M 9.6875 5.382812 L 12.980469 5.382812 L 12.980469 6.382812 L 9.6875 6.382812 Z M 9.6875 5.382812 "/>
<path style=" stroke:none;fill-rule:nonzero;fill:rgb(74.117649%,74.117649%,74.117649%);fill-opacity:1;" d="M 9.6875 6.714844 L 12.980469 6.714844 L 12.980469 7.714844 L 9.6875 7.714844 Z M 9.6875 6.714844 "/>
<path style=" stroke:none;fill-rule:nonzero;fill:rgb(74.117649%,74.117649%,74.117649%);fill-opacity:1;" d="M 9.6875 8.046875 L 12.980469 8.046875 L 12.980469 9.046875 L 9.6875 9.046875 Z M 9.6875 8.046875 "/>
<path style=" stroke:none;fill-rule:nonzero;fill:rgb(21.568628%,44.313726%,78.431374%);fill-opacity:1;" d="M 10.191406 12.726562 C 10.039062 12.726562 9.914062 12.871094 9.914062 13.050781 L 9.914062 15.375 C 9.9375 15.375 9.957031 15.378906 9.976562 15.378906 C 11.410156 15.378906 12.574219 14.214844 12.574219 12.78125 C 12.570312 12.765625 12.570312 12.746094 12.570312 12.726562 Z M 10.191406 12.726562 "/>
<path style=" stroke:none;fill-rule:nonzero;fill:rgb(78.431374%,21.568628%,21.568628%);fill-opacity:1;" d="M 9.480469 9.757812 C 8.046875 9.757812 6.882812 10.921875 6.882812 12.355469 C 6.886719 13.761719 8.011719 14.914062 9.417969 14.945312 L 9.417969 12.621094 C 9.417969 12.441406 9.542969 12.296875 9.695312 12.296875 L 12.074219 12.296875 C 12.042969 10.886719 10.890625 9.757812 9.480469 9.757812 Z M 9.480469 9.757812 "/>
<path style=" stroke:none;fill-rule:nonzero;fill:rgb(17.254902%,62.7451%,53.725493%);fill-opacity:1;" d="M 10.019531 12.796875 C 9.957031 12.859375 9.914062 12.949219 9.914062 13.050781 L 9.914062 15.375 C 9.9375 15.375 9.957031 15.378906 9.976562 15.378906 C 10.632812 15.378906 11.261719 15.128906 11.742188 14.679688 Z M 10.019531 12.796875 "/>
<path style=" stroke:none;fill-rule:nonzero;fill:rgb(26.666668%,66.666669%,0%);fill-opacity:1;" d="M 2.394531 0.171875 C 1.71875 0.171875 1.175781 0.714844 1.175781 1.390625 L 1.175781 14.652344 C 1.175781 15.328125 1.71875 15.871094 2.394531 15.871094 L 3.578125 15.871094 L 3.578125 0.171875 Z M 2.394531 0.171875 "/>
</g>
</svg>
