<?xml version="1.0" encoding="UTF-8"?>
<svg xmlns="http://www.w3.org/2000/svg" xmlns:xlink="http://www.w3.org/1999/xlink" width="16px" height="16px" viewBox="0 0 16 16" version="1.1">
<g id="surface1">
<path style=" stroke:none;fill-rule:nonzero;fill:rgb(61.960787%,23.921569%,38.82353%);fill-opacity:1;" d="M 2.394531 0.171875 L 13.78125 0.171875 C 14.453125 0.171875 15 0.71875 15 1.390625 L 15 14.652344 C 15 15.324219 14.453125 15.871094 13.78125 15.871094 L 2.394531 15.871094 C 1.722656 15.871094 1.175781 15.324219 1.175781 14.652344 L 1.175781 1.390625 C 1.175781 0.71875 1.722656 0.171875 2.394531 0.171875 Z M 2.394531 0.171875 "/>
<path style=" stroke:none;fill-rule:nonzero;fill:rgb(94.901961%,94.901961%,94.901961%);fill-opacity:1;" d="M 3.558594 1.777344 C 3.023438 1.777344 2.589844 2.210938 2.589844 2.746094 L 2.589844 13.292969 C 2.589844 13.832031 3.023438 14.261719 3.558594 14.261719 L 12.617188 14.261719 C 13.152344 14.261719 13.585938 13.832031 13.585938 13.292969 L 13.585938 7.695312 L 7.667969 1.777344 Z M 9.945312 1.777344 L 13.585938 5.417969 L 13.585938 2.746094 C 13.585938 2.210938 13.152344 1.777344 12.617188 1.777344 Z M 9.945312 1.777344 "/>
<path style=" stroke:none;fill-rule:nonzero;fill:rgb(47.843137%,47.843137%,47.843137%);fill-opacity:1;" d="M 5.226562 7.671875 L 5.226562 7.765625 C 5.226562 7.730469 5.230469 7.703125 5.234375 7.671875 Z M 5.226562 7.765625 L 5.226562 9 L 5.242188 9 C 5.363281 9.75 6.5 10.332031 7.894531 10.332031 C 9.285156 10.332031 10.421875 9.75 10.542969 9 L 10.558594 9 L 10.558594 7.765625 C 10.558594 8.574219 9.367188 9.234375 7.894531 9.234375 C 6.417969 9.234375 5.226562 8.574219 5.226562 7.765625 Z M 10.558594 7.765625 L 10.558594 7.671875 L 10.550781 7.671875 C 10.554688 7.703125 10.558594 7.730469 10.558594 7.765625 Z M 10.558594 7.765625 "/>
<path style=" stroke:none;fill-rule:nonzero;fill:rgb(47.843137%,47.843137%,47.843137%);fill-opacity:1;" d="M 10.558594 7.46875 C 10.558594 8.28125 9.367188 8.941406 7.894531 8.941406 C 6.417969 8.941406 5.226562 8.28125 5.226562 7.46875 C 5.226562 6.65625 6.417969 6 7.894531 6 C 9.367188 6 10.558594 6.65625 10.558594 7.46875 Z M 10.558594 7.46875 "/>
<path style=" stroke:none;fill-rule:nonzero;fill:rgb(47.843137%,47.843137%,47.843137%);fill-opacity:1;" d="M 5.226562 9.101562 L 5.226562 9.195312 C 5.226562 9.164062 5.230469 9.132812 5.234375 9.101562 Z M 5.226562 9.195312 L 5.226562 10.429688 L 5.242188 10.429688 C 5.363281 11.179688 6.5 11.765625 7.894531 11.765625 C 9.285156 11.765625 10.421875 11.179688 10.542969 10.429688 L 10.558594 10.429688 L 10.558594 9.195312 C 10.558594 10.007812 9.367188 10.664062 7.894531 10.664062 C 6.417969 10.664062 5.226562 10.007812 5.226562 9.195312 Z M 10.558594 9.195312 L 10.558594 9.101562 L 10.550781 9.101562 C 10.554688 9.132812 10.558594 9.164062 10.558594 9.195312 Z M 10.558594 9.195312 "/>
</g>
</svg>
