<?xml version="1.0" encoding="UTF-8"?>
<svg xmlns="http://www.w3.org/2000/svg" xmlns:xlink="http://www.w3.org/1999/xlink" width="16px" height="16px" viewBox="0 0 16 16" version="1.1">
<g id="surface1">
<path style=" stroke:none;fill-rule:nonzero;fill:rgb(38.82353%,43.137255%,45.09804%);fill-opacity:1;" d="M 2.394531 0.171875 L 13.78125 0.171875 C 14.453125 0.171875 15 0.714844 15 1.390625 L 15 14.652344 C 15 15.324219 14.453125 15.871094 13.78125 15.871094 L 2.394531 15.871094 C 1.722656 15.871094 1.175781 15.324219 1.175781 14.652344 L 1.175781 1.390625 C 1.175781 0.714844 1.722656 0.171875 2.394531 0.171875 Z M 2.394531 0.171875 "/>
<path style=" stroke:none;fill-rule:nonzero;fill:rgb(94.901961%,94.901961%,94.901961%);fill-opacity:1;" d="M 3.558594 1.777344 C 3.023438 1.777344 2.589844 2.210938 2.589844 2.746094 L 2.589844 13.292969 C 2.589844 13.832031 3.023438 14.261719 3.558594 14.261719 L 12.613281 14.261719 C 13.152344 14.261719 13.585938 13.832031 13.585938 13.292969 L 13.585938 7.695312 L 7.667969 1.777344 Z M 9.941406 1.777344 L 13.585938 5.417969 L 13.585938 2.746094 C 13.585938 2.210938 13.152344 1.777344 12.613281 1.777344 Z M 9.941406 1.777344 "/>
<path style=" stroke:none;fill-rule:nonzero;fill:rgb(38.82353%,43.137255%,45.09804%);fill-opacity:1;" d="M 9.9375 10.085938 C 10.035156 10.085938 10.191406 10.207031 10.402344 10.449219 L 11.042969 11.082031 C 11.675781 10.449219 12.003906 10.128906 12.019531 10.128906 C 12.074219 10.101562 12.121094 10.085938 12.152344 10.085938 L 12.242188 10.085938 C 12.371094 10.085938 12.476562 10.179688 12.550781 10.367188 L 12.550781 10.484375 C 12.550781 10.585938 12.429688 10.738281 12.1875 10.953125 L 11.558594 11.59375 C 12.191406 12.222656 12.503906 12.550781 12.503906 12.566406 C 12.535156 12.621094 12.550781 12.667969 12.550781 12.699219 L 12.550781 12.792969 C 12.550781 12.925781 12.457031 13.027344 12.265625 13.097656 L 12.152344 13.097656 C 12.050781 13.097656 11.886719 12.96875 11.65625 12.707031 L 11.042969 12.105469 C 10.410156 12.738281 10.085938 13.054688 10.066406 13.054688 C 10.011719 13.082031 9.972656 13.097656 9.9375 13.097656 L 9.847656 13.097656 C 9.71875 13.097656 9.617188 13.007812 9.535156 12.824219 L 9.535156 12.699219 C 9.535156 12.601562 9.660156 12.445312 9.902344 12.230469 L 10.53125 11.59375 C 9.898438 10.960938 9.582031 10.636719 9.582031 10.617188 C 9.550781 10.5625 9.535156 10.519531 9.535156 10.484375 L 9.535156 10.394531 C 9.535156 10.261719 9.628906 10.160156 9.820312 10.085938 Z M 9.9375 10.085938 "/>
<path style=" stroke:none;fill-rule:nonzero;fill:rgb(38.82353%,43.137255%,45.09804%);fill-opacity:1;" d="M 9.371094 9.070312 L 11.238281 9.070312 L 11.238281 8.601562 L 8.945312 8.601562 L 8.035156 11.980469 L 7.359375 10.167969 L 6.046875 10.167969 L 6.046875 10.636719 L 6.976562 10.636719 L 7.886719 13.167969 L 8.289062 13.167969 Z M 9.371094 9.070312 "/>
<path style=" stroke:none;fill-rule:nonzero;fill:rgb(38.82353%,43.137255%,45.09804%);fill-opacity:1;" d="M 11.472656 8.832031 C 11.472656 8.964844 11.367188 9.066406 11.238281 9.066406 C 11.105469 9.066406 11.003906 8.964844 11.003906 8.832031 C 11.003906 8.707031 11.105469 8.597656 11.238281 8.597656 C 11.367188 8.597656 11.472656 8.707031 11.472656 8.832031 Z M 11.472656 8.832031 "/>
<path style=" stroke:none;fill-rule:nonzero;fill:rgb(38.82353%,43.137255%,45.09804%);fill-opacity:1;" d="M 6.292969 10.402344 C 6.292969 10.53125 6.1875 10.636719 6.058594 10.636719 C 5.929688 10.636719 5.824219 10.53125 5.824219 10.402344 C 5.824219 10.273438 5.929688 10.167969 6.058594 10.167969 C 6.1875 10.167969 6.292969 10.273438 6.292969 10.402344 Z M 6.292969 10.402344 "/>
</g>
</svg>
