<?xml version="1.0" encoding="UTF-8"?>
<svg xmlns="http://www.w3.org/2000/svg" xmlns:xlink="http://www.w3.org/1999/xlink" width="16px" height="16px" viewBox="0 0 16 16" version="1.1">
<g id="surface1">
<path style=" stroke:none;fill-rule:nonzero;fill:rgb(66.666669%,53.333336%,0%);fill-opacity:1;" d="M 2.742188 2.792969 L 13.304688 2.792969 C 13.464844 2.792969 13.59375 2.917969 13.59375 3.074219 L 13.59375 4.867188 C 13.59375 5.023438 13.464844 5.148438 13.304688 5.148438 L 2.742188 5.148438 C 2.582031 5.148438 2.453125 5.023438 2.453125 4.867188 L 2.453125 3.074219 C 2.453125 2.917969 2.582031 2.792969 2.742188 2.792969 Z M 2.742188 2.792969 "/>
<path style=" stroke:none;fill-rule:nonzero;fill:rgb(81.568629%,48.627451%,24.705882%);fill-opacity:1;" d="M 1.828125 1.84375 L 14.546875 1.84375 L 14.546875 12.796875 L 1.839844 12.796875 Z M 1.828125 1.84375 "/>
<path style=" stroke:none;fill-rule:nonzero;fill:rgb(36.078432%,40.000001%,43.921569%);fill-opacity:1;" d="M 14.09375 2.511719 C 14.1875 2.207031 14.015625 1.882812 13.710938 1.789062 L 8.929688 0.335938 C 8.625 0.242188 8.300781 0.417969 8.207031 0.722656 L 6.539062 6.210938 C 6.445312 6.515625 6.617188 6.839844 6.921875 6.933594 L 11.703125 8.386719 C 12.007812 8.480469 12.332031 8.304688 12.425781 8 Z M 14.09375 2.511719 "/>
<path style=" stroke:none;fill-rule:nonzero;fill:rgb(20%,24.313726%,28.235295%);fill-opacity:1;" d="M 13.710938 1.789062 L 8.929688 0.335938 C 8.625 0.242188 8.300781 0.417969 8.207031 0.722656 L 7.707031 2.363281 L 13.59375 4.152344 L 14.09375 2.511719 C 14.1875 2.207031 14.015625 1.882812 13.710938 1.789062 Z M 13.710938 1.789062 "/>
<path style=" stroke:none;fill-rule:nonzero;fill:rgb(0%,50.980395%,79.215688%);fill-opacity:1;" d="M 13.175781 2.417969 C 13.203125 2.328125 13.152344 2.230469 13.0625 2.203125 L 9.238281 1.039062 C 9.144531 1.011719 9.046875 1.0625 9.019531 1.15625 L 8.792969 1.902344 C 8.765625 1.996094 8.816406 2.09375 8.910156 2.121094 L 12.734375 3.28125 C 12.824219 3.308594 12.921875 3.257812 12.949219 3.167969 Z M 13.175781 2.417969 "/>
<path style=" stroke:none;fill-rule:nonzero;fill:rgb(100%,100%,100%);fill-opacity:1;" d="M 12.476562 3.003906 C 12.417969 2.984375 12.382812 2.921875 12.402344 2.863281 L 12.550781 2.367188 C 12.570312 2.308594 12.632812 2.273438 12.695312 2.292969 C 12.753906 2.3125 12.785156 2.375 12.769531 2.433594 L 12.617188 2.925781 C 12.601562 2.988281 12.539062 3.019531 12.476562 3.003906 Z M 12.476562 3.003906 "/>
<path style=" stroke:none;fill-rule:nonzero;fill:rgb(100%,100%,100%);fill-opacity:1;" d="M 12.015625 2.863281 C 11.957031 2.84375 11.921875 2.78125 11.941406 2.722656 L 12.089844 2.226562 C 12.109375 2.167969 12.171875 2.132812 12.230469 2.152344 C 12.292969 2.171875 12.324219 2.234375 12.308594 2.292969 L 12.15625 2.785156 C 12.140625 2.847656 12.074219 2.878906 12.015625 2.863281 Z M 12.015625 2.863281 "/>
<path style=" stroke:none;fill-rule:nonzero;fill:rgb(100%,100%,100%);fill-opacity:1;" d="M 11.554688 2.722656 C 11.496094 2.703125 11.460938 2.640625 11.480469 2.582031 L 11.628906 2.085938 C 11.648438 2.027344 11.710938 1.992188 11.769531 2.011719 C 11.832031 2.03125 11.863281 2.09375 11.847656 2.152344 L 11.695312 2.648438 C 11.675781 2.707031 11.613281 2.738281 11.554688 2.722656 Z M 11.554688 2.722656 "/>
<path style=" stroke:none;fill-rule:nonzero;fill:rgb(83.137256%,56.470591%,0%);fill-opacity:1;" d="M 11.074219 5.488281 C 11.105469 5.390625 11.214844 5.332031 11.316406 5.363281 L 12.246094 5.644531 C 12.347656 5.675781 12.40625 5.785156 12.375 5.886719 L 11.851562 7.601562 C 11.820312 7.703125 11.714844 7.761719 11.613281 7.730469 L 10.683594 7.445312 C 10.582031 7.417969 10.523438 7.308594 10.554688 7.207031 Z M 11.074219 5.488281 "/>
<path style=" stroke:none;fill-rule:nonzero;fill:rgb(20%,24.313726%,28.235295%);fill-opacity:1;" d="M 11.460938 4.21875 C 11.492188 4.117188 11.601562 4.058594 11.703125 4.089844 L 12.632812 4.371094 C 12.734375 4.402344 12.792969 4.511719 12.761719 4.613281 L 12.628906 5.054688 C 12.597656 5.15625 12.488281 5.214844 12.386719 5.183594 L 11.457031 4.902344 C 11.355469 4.871094 11.296875 4.761719 11.328125 4.660156 Z M 11.460938 4.21875 "/>
<path style=" stroke:none;fill-rule:nonzero;fill:rgb(20%,24.313726%,28.235295%);fill-opacity:1;" d="M 9.804688 3.710938 C 9.835938 3.609375 9.941406 3.554688 10.042969 3.585938 L 10.976562 3.867188 C 11.074219 3.898438 11.132812 4.007812 11.101562 4.109375 L 10.96875 4.550781 C 10.9375 4.652344 10.828125 4.710938 10.726562 4.679688 L 9.796875 4.394531 C 9.695312 4.367188 9.636719 4.257812 9.667969 4.15625 Z M 9.804688 3.710938 "/>
<path style=" stroke:none;fill-rule:nonzero;fill:rgb(20%,24.313726%,28.235295%);fill-opacity:1;" d="M 8.144531 3.207031 C 8.175781 3.105469 8.285156 3.050781 8.386719 3.078125 L 9.316406 3.363281 C 9.417969 3.394531 9.476562 3.5 9.445312 3.601562 L 9.308594 4.046875 C 9.277344 4.148438 9.171875 4.207031 9.070312 4.175781 L 8.136719 3.890625 C 8.035156 3.859375 7.980469 3.753906 8.011719 3.652344 Z M 8.144531 3.207031 "/>
<path style=" stroke:none;fill-rule:nonzero;fill:rgb(20%,24.313726%,28.235295%);fill-opacity:1;" d="M 9.417969 4.984375 C 9.445312 4.882812 9.554688 4.828125 9.65625 4.859375 L 10.585938 5.140625 C 10.6875 5.171875 10.746094 5.28125 10.714844 5.382812 L 10.582031 5.824219 C 10.550781 5.925781 10.441406 5.984375 10.339844 5.953125 L 9.410156 5.667969 C 9.308594 5.636719 9.25 5.53125 9.28125 5.429688 Z M 9.417969 4.984375 "/>
<path style=" stroke:none;fill-rule:nonzero;fill:rgb(20%,24.313726%,28.235295%);fill-opacity:1;" d="M 7.757812 4.480469 C 7.789062 4.378906 7.894531 4.324219 7.996094 4.351562 L 8.929688 4.636719 C 9.03125 4.667969 9.085938 4.773438 9.058594 4.875 L 8.921875 5.320312 C 8.890625 5.421875 8.78125 5.480469 8.683594 5.449219 L 7.75 5.164062 C 7.648438 5.132812 7.59375 5.027344 7.621094 4.925781 Z M 7.757812 4.480469 "/>
<path style=" stroke:none;fill-rule:nonzero;fill:rgb(20%,24.313726%,28.235295%);fill-opacity:1;" d="M 9.027344 6.257812 C 9.058594 6.15625 9.167969 6.101562 9.269531 6.128906 L 10.199219 6.414062 C 10.300781 6.445312 10.359375 6.554688 10.328125 6.65625 L 10.195312 7.097656 C 10.164062 7.199219 10.054688 7.257812 9.953125 7.226562 L 9.023438 6.941406 C 8.921875 6.910156 8.863281 6.804688 8.894531 6.703125 Z M 9.027344 6.257812 "/>
<path style=" stroke:none;fill-rule:nonzero;fill:rgb(20%,24.313726%,28.235295%);fill-opacity:1;" d="M 7.371094 5.753906 C 7.402344 5.652344 7.507812 5.59375 7.609375 5.625 L 8.542969 5.910156 C 8.644531 5.941406 8.699219 6.046875 8.667969 6.148438 L 8.535156 6.59375 C 8.503906 6.695312 8.394531 6.753906 8.292969 6.722656 L 7.363281 6.4375 C 7.261719 6.40625 7.203125 6.300781 7.234375 6.199219 Z M 7.371094 5.753906 "/>
<path style=" stroke:none;fill-rule:nonzero;fill:rgb(100%,92.156863%,71.764708%);fill-opacity:1;" d="M 8.179688 4.605469 C 8.296875 5.972656 7.277344 7.179688 5.910156 7.296875 C 4.542969 7.410156 3.335938 6.394531 3.222656 5.027344 C 3.105469 3.660156 4.125 2.453125 5.492188 2.335938 C 6.859375 2.21875 8.0625 3.238281 8.179688 4.605469 Z M 8.179688 4.605469 "/>
<path style=" stroke:none;fill-rule:nonzero;fill:rgb(100%,100%,100%);fill-opacity:1;" d="M 7.589844 4.65625 C 7.679688 5.695312 6.902344 6.617188 5.859375 6.703125 C 4.820312 6.792969 3.898438 6.015625 3.8125 4.976562 C 3.722656 3.933594 4.5 3.015625 5.539062 2.925781 C 6.582031 2.839844 7.5 3.613281 7.589844 4.65625 Z M 7.589844 4.65625 "/>
<path style=" stroke:none;fill-rule:nonzero;fill:rgb(36.470589%,39.215687%,49.803922%);fill-opacity:1;" d="M 6.808594 2.128906 C 6.851562 2.125 6.890625 2.097656 6.90625 2.054688 L 7.109375 1.574219 C 7.136719 1.511719 7.109375 1.441406 7.046875 1.417969 C 6.988281 1.390625 6.917969 1.421875 6.890625 1.480469 L 6.6875 1.964844 C 6.664062 2.023438 6.691406 2.09375 6.753906 2.117188 C 6.769531 2.125 6.789062 2.128906 6.808594 2.128906 Z M 6.808594 2.128906 "/>
<path style=" stroke:none;fill-rule:nonzero;fill:rgb(70.588237%,71.372551%,73.725492%);fill-opacity:1;" d="M 5.992188 1.101562 C 6.226562 0.542969 6.871094 0.28125 7.429688 0.515625 C 7.699219 0.628906 7.90625 0.839844 8.019531 1.113281 C 8.128906 1.382812 8.128906 1.683594 8.011719 1.953125 C 7.996094 1.996094 7.957031 2.023438 7.914062 2.023438 C 7.894531 2.027344 7.875 2.023438 7.859375 2.015625 L 6.054688 1.257812 C 6.023438 1.242188 6 1.21875 5.988281 1.191406 C 5.976562 1.164062 5.976562 1.128906 5.992188 1.101562 Z M 5.992188 1.101562 "/>
<path style=" stroke:none;fill-rule:nonzero;fill:rgb(52.549022%,51.764709%,56.862748%);fill-opacity:1;" d="M 7.425781 0.515625 C 7.429688 0.515625 7.429688 0.515625 7.429688 0.515625 C 7.699219 0.628906 7.90625 0.839844 8.019531 1.113281 C 8.128906 1.382812 8.128906 1.683594 8.011719 1.953125 C 7.996094 1.996094 7.957031 2.023438 7.914062 2.023438 C 7.894531 2.027344 7.875 2.023438 7.859375 2.015625 L 6.957031 1.636719 Z M 7.425781 0.515625 "/>
<path style=" stroke:none;fill-rule:nonzero;fill:rgb(36.470589%,39.215687%,49.803922%);fill-opacity:1;" d="M 4.152344 2.351562 C 4.109375 2.355469 4.066406 2.335938 4.042969 2.296875 L 3.761719 1.855469 C 3.726562 1.800781 3.742188 1.726562 3.796875 1.691406 C 3.851562 1.65625 3.925781 1.675781 3.960938 1.730469 L 4.242188 2.171875 C 4.277344 2.226562 4.261719 2.296875 4.207031 2.335938 C 4.191406 2.34375 4.171875 2.351562 4.152344 2.351562 Z M 4.152344 2.351562 "/>
<path style=" stroke:none;fill-rule:nonzero;fill:rgb(36.470589%,39.215687%,49.803922%);fill-opacity:1;" d="M 4.089844 8.28125 C 4.070312 8.285156 4.050781 8.28125 4.03125 8.269531 C 3.972656 8.242188 3.945312 8.171875 3.976562 8.113281 L 4.273438 7.492188 C 4.304688 7.433594 4.375 7.410156 4.433594 7.4375 C 4.492188 7.464844 4.515625 7.535156 4.488281 7.59375 L 4.1875 8.214844 C 4.167969 8.253906 4.132812 8.277344 4.089844 8.28125 Z M 4.089844 8.28125 "/>
<path style=" stroke:none;fill-rule:nonzero;fill:rgb(36.470589%,39.215687%,49.803922%);fill-opacity:1;" d="M 7.871094 7.960938 C 7.828125 7.964844 7.789062 7.949219 7.761719 7.910156 L 7.359375 7.34375 C 7.320312 7.292969 7.332031 7.21875 7.386719 7.179688 C 7.441406 7.140625 7.511719 7.152344 7.550781 7.207031 L 7.957031 7.773438 C 7.996094 7.828125 7.980469 7.902344 7.929688 7.941406 C 7.910156 7.953125 7.890625 7.960938 7.871094 7.960938 Z M 7.871094 7.960938 "/>
<path style=" stroke:none;fill-rule:nonzero;fill:rgb(37.64706%,86.274511%,30.19608%);fill-opacity:1;" d="M 5.441406 1.746094 C 3.746094 1.890625 2.488281 3.382812 2.632812 5.074219 C 2.773438 6.769531 4.269531 8.027344 5.960938 7.886719 C 7.652344 7.742188 8.914062 6.25 8.769531 4.554688 C 8.625 2.863281 7.132812 1.601562 5.441406 1.746094 Z M 8.0625 4.617188 C 8.171875 5.917969 7.203125 7.066406 5.902344 7.175781 C 4.597656 7.289062 3.449219 6.316406 3.339844 5.015625 C 3.230469 3.714844 4.199219 2.566406 5.5 2.453125 C 6.800781 2.34375 7.953125 3.3125 8.0625 4.617188 Z M 8.0625 4.617188 "/>
<path style=" stroke:none;fill-rule:nonzero;fill:rgb(0%,76.47059%,47.843137%);fill-opacity:1;" d="M 5.898438 7.175781 C 4.597656 7.285156 3.449219 6.316406 3.339844 5.015625 C 3.230469 3.714844 4.195312 2.566406 5.496094 2.453125 L 5.4375 1.746094 C 3.746094 1.890625 2.488281 3.382812 2.632812 5.074219 C 2.773438 6.765625 4.265625 8.027344 5.957031 7.886719 Z M 5.898438 7.175781 "/>
<path style=" stroke:none;fill-rule:nonzero;fill:rgb(52.549022%,51.764709%,56.862748%);fill-opacity:1;" d="M 4.175781 5.0625 L 3.703125 5.105469 C 3.636719 5.109375 3.582031 5.0625 3.574219 4.996094 C 3.570312 4.929688 3.617188 4.875 3.683594 4.867188 L 4.15625 4.828125 C 4.222656 4.820312 4.277344 4.871094 4.285156 4.9375 C 4.289062 5 4.242188 5.058594 4.175781 5.0625 Z M 4.175781 5.0625 "/>
<path style=" stroke:none;fill-rule:nonzero;fill:rgb(52.549022%,51.764709%,56.862748%);fill-opacity:1;" d="M 7.71875 4.761719 L 7.246094 4.804688 C 7.179688 4.808594 7.121094 4.761719 7.117188 4.695312 C 7.113281 4.628906 7.160156 4.574219 7.226562 4.566406 L 7.699219 4.527344 C 7.761719 4.523438 7.820312 4.570312 7.824219 4.636719 C 7.832031 4.699219 7.78125 4.757812 7.71875 4.761719 Z M 7.71875 4.761719 "/>
<path style=" stroke:none;fill-rule:nonzero;fill:rgb(52.549022%,51.764709%,56.862748%);fill-opacity:1;" d="M 5.878906 6.941406 C 5.816406 6.945312 5.757812 6.898438 5.753906 6.832031 L 5.710938 6.359375 C 5.707031 6.296875 5.753906 6.238281 5.820312 6.234375 C 5.886719 6.226562 5.941406 6.273438 5.949219 6.339844 L 5.988281 6.8125 C 5.996094 6.878906 5.945312 6.933594 5.878906 6.941406 Z M 5.878906 6.941406 "/>
<path style=" stroke:none;fill-rule:nonzero;fill:rgb(52.549022%,51.764709%,56.862748%);fill-opacity:1;" d="M 5.582031 3.398438 C 5.515625 3.40625 5.457031 3.355469 5.453125 3.289062 L 5.414062 2.820312 C 5.40625 2.753906 5.457031 2.695312 5.519531 2.691406 C 5.585938 2.683594 5.644531 2.734375 5.648438 2.796875 L 5.6875 3.269531 C 5.695312 3.335938 5.644531 3.394531 5.582031 3.398438 Z M 5.582031 3.398438 "/>
<path style=" stroke:none;fill-rule:nonzero;fill:rgb(70.588237%,71.372551%,73.725492%);fill-opacity:1;" d="M 4.785156 1.203125 C 4.460938 0.691406 3.78125 0.542969 3.269531 0.867188 C 3.023438 1.027344 2.851562 1.269531 2.789062 1.554688 C 2.726562 1.84375 2.777344 2.136719 2.933594 2.382812 C 2.960938 2.421875 3.003906 2.441406 3.046875 2.4375 C 3.0625 2.4375 3.082031 2.429688 3.097656 2.417969 L 4.75 1.367188 C 4.777344 1.351562 4.796875 1.324219 4.800781 1.292969 C 4.808594 1.261719 4.804688 1.230469 4.785156 1.203125 Z M 4.785156 1.203125 "/>
<path style=" stroke:none;fill-rule:nonzero;fill:rgb(36.470589%,39.215687%,49.803922%);fill-opacity:1;" d="M 5.355469 4.964844 L 4.765625 5.015625 C 4.699219 5.019531 4.644531 4.972656 4.636719 4.90625 C 4.632812 4.839844 4.679688 4.785156 4.746094 4.777344 L 5.335938 4.726562 C 5.402344 4.722656 5.457031 4.769531 5.464844 4.835938 C 5.46875 4.902344 5.421875 4.957031 5.355469 4.964844 Z M 5.355469 4.964844 "/>
<path style=" stroke:none;fill-rule:nonzero;fill:rgb(36.470589%,39.215687%,49.803922%);fill-opacity:1;" d="M 5.691406 4.699219 C 5.625 4.703125 5.566406 4.65625 5.5625 4.589844 L 5.492188 3.761719 C 5.488281 3.699219 5.535156 3.640625 5.601562 3.636719 C 5.664062 3.628906 5.722656 3.679688 5.730469 3.742188 L 5.796875 4.570312 C 5.804688 4.636719 5.753906 4.691406 5.691406 4.699219 Z M 5.691406 4.699219 "/>
<path style=" stroke:none;fill-rule:nonzero;fill:rgb(100%,30.980393%,9.803922%);fill-opacity:1;" d="M 6.992188 6.015625 C 6.960938 6.015625 6.929688 6.007812 6.90625 5.988281 L 5.625 4.90625 C 5.574219 4.863281 5.566406 4.789062 5.609375 4.738281 C 5.652344 4.6875 5.726562 4.683594 5.777344 4.726562 L 7.058594 5.804688 C 7.109375 5.847656 7.113281 5.921875 7.070312 5.972656 C 7.050781 5.996094 7.019531 6.011719 6.992188 6.015625 Z M 6.992188 6.015625 "/>
<path style=" stroke:none;fill-rule:nonzero;fill:rgb(52.549022%,51.764709%,56.862748%);fill-opacity:1;" d="M 3.269531 0.867188 C 3.023438 1.027344 2.851562 1.269531 2.789062 1.554688 C 2.726562 1.84375 2.777344 2.136719 2.933594 2.382812 C 2.960938 2.421875 3.003906 2.441406 3.046875 2.4375 C 3.0625 2.4375 3.082031 2.429688 3.097656 2.417969 L 3.925781 1.894531 Z M 3.269531 0.867188 "/>
<path style=" stroke:none;fill-rule:nonzero;fill:rgb(36.078432%,32.941177%,41.568628%);fill-opacity:1;" d="M 6.054688 4.785156 C 6.070312 4.980469 5.925781 5.152344 5.730469 5.167969 C 5.535156 5.1875 5.363281 5.042969 5.347656 4.847656 C 5.328125 4.648438 5.476562 4.476562 5.671875 4.460938 C 5.867188 4.445312 6.039062 4.589844 6.054688 4.785156 Z M 6.054688 4.785156 "/>
<path style=" stroke:none;fill-rule:nonzero;fill:rgb(93.333334%,77.64706%,36.470589%);fill-opacity:1;" d="M 1.171875 4.476562 L 1.171875 15.078125 C 1.171875 15.59375 1.585938 15.878906 2.101562 15.878906 L 14.273438 15.878906 C 14.789062 15.878906 15.203125 15.59375 15.203125 15.078125 L 15.203125 4.476562 C 15.203125 4.488281 1.179688 4.476562 1.171875 4.476562 Z M 3.144531 2.734375 L 1.828125 1.84375 L 1.828125 4.039062 L 3.144531 4.039062 Z M 14.546875 1.84375 L 13.230469 2.722656 L 13.230469 4.039062 L 14.546875 4.039062 Z M 14.546875 1.84375 "/>
<path style=" stroke:none;fill-rule:nonzero;fill:rgb(86.274511%,63.921571%,30.980393%);fill-opacity:1;" d="M 3.144531 4.476562 L 3.144531 2.722656 L 1.160156 4.476562 Z M 13.230469 2.722656 L 13.230469 4.476562 L 15.226562 4.476562 Z M 13.230469 2.722656 "/>
<path style=" stroke:none;fill-rule:nonzero;fill:rgb(81.568629%,48.627451%,24.705882%);fill-opacity:1;" d="M 4.285156 5.707031 C 3.957031 5.707031 3.679688 5.984375 3.679688 6.3125 C 3.679688 6.640625 3.945312 6.914062 4.285156 6.914062 C 4.613281 6.914062 4.886719 6.640625 4.886719 6.3125 C 4.898438 5.984375 4.625 5.707031 4.285156 5.707031 Z M 11.628906 5.707031 C 11.300781 5.707031 11.027344 5.984375 11.027344 6.3125 C 11.027344 6.640625 11.289062 6.914062 11.628906 6.914062 C 11.957031 6.914062 12.234375 6.640625 12.234375 6.3125 C 12.242188 5.984375 11.96875 5.707031 11.628906 5.707031 Z M 11.628906 5.707031 "/>
<path style=" stroke:none;fill-rule:nonzero;fill:rgb(79.607844%,66.274512%,30.980393%);fill-opacity:1;" d="M 7.96875 10.753906 C 5.785156 10.753906 4.019531 8.824219 4.019531 6.445312 C 4.019531 6.277344 4.140625 6.148438 4.296875 6.148438 C 4.449219 6.148438 4.570312 6.277344 4.570312 6.445312 C 4.570312 8.492188 6.09375 10.148438 7.96875 10.148438 C 9.84375 10.148438 11.367188 8.484375 11.367188 6.445312 C 11.367188 6.277344 11.488281 6.148438 11.640625 6.148438 C 11.792969 6.148438 11.914062 6.277344 11.914062 6.445312 C 11.914062 8.824219 10.140625 10.753906 7.96875 10.753906 Z M 7.96875 10.753906 "/>
<path style=" stroke:none;fill-rule:nonzero;fill:rgb(40.784314%,34.901962%,34.901962%);fill-opacity:1;" d="M 7.96875 10.414062 C 5.785156 10.414062 4.019531 8.625 4.019531 6.421875 C 4.019531 6.269531 4.140625 6.148438 4.296875 6.148438 C 4.449219 6.148438 4.570312 6.269531 4.570312 6.421875 C 4.570312 8.316406 6.09375 9.863281 7.96875 9.863281 C 9.84375 9.863281 11.367188 8.316406 11.367188 6.421875 C 11.367188 6.269531 11.488281 6.148438 11.640625 6.148438 C 11.792969 6.148438 11.914062 6.269531 11.914062 6.421875 C 11.914062 8.625 10.140625 10.414062 7.96875 10.414062 Z M 7.96875 10.414062 "/>
</g>
</svg>
