<?xml version="1.0" encoding="UTF-8" standalone="no"?>
<svg
   xmlns:dc="http://purl.org/dc/elements/1.1/"
   xmlns:cc="http://creativecommons.org/ns#"
   xmlns:rdf="http://www.w3.org/1999/02/22-rdf-syntax-ns#"
   xmlns:svg="http://www.w3.org/2000/svg"
   xmlns="http://www.w3.org/2000/svg"
   xmlns:sodipodi="http://sodipodi.sourceforge.net/DTD/sodipodi-0.dtd"
   xmlns:inkscape="http://www.inkscape.org/namespaces/inkscape"
   height="48"
   width="48"
   version="1"
   id="svg12"
   sodipodi:docname="dialog-error (copy 1).svg"
   inkscape:version="0.92.2 2405546, 2018-03-11">
  <metadata
     id="metadata18">
    <rdf:RDF>
      <cc:Work
         rdf:about="">
        <dc:format>image/svg+xml</dc:format>
        <dc:type
           rdf:resource="http://purl.org/dc/dcmitype/StillImage" />
      </cc:Work>
    </rdf:RDF>
  </metadata>
  <defs
     id="defs16">
    <mask
       id="mask0">
      <g
         style="filter:url(#alpha)"
         id="g7">
        <rect
           x="0"
           y="0"
           width="24"
           height="24"
           style="fill:#000000;fill-opacity:0.1;stroke:none"
           id="rect5" />
      </g>
    </mask>
    <filter
       id="alpha"
       filterUnits="objectBoundingBox"
       x="0"
       y="0"
       width="1"
       height="1">
      <feColorMatrix
         type="matrix"
         in="SourceGraphic"
         values="0 0 0 0 1 0 0 0 0 1 0 0 0 0 1 0 0 0 1 0"
         id="feColorMatrix2" />
    </filter>
  </defs>
  <sodipodi:namedview
     pagecolor="#ffffff"
     bordercolor="#666666"
     borderopacity="1"
     objecttolerance="10"
     gridtolerance="10"
     guidetolerance="10"
     inkscape:pageopacity="0"
     inkscape:pageshadow="2"
     inkscape:window-width="1920"
     inkscape:window-height="1019"
     id="namedview14"
     showgrid="false"
     inkscape:zoom="4.9166667"
     inkscape:cx="-48.81356"
     inkscape:cy="24.20339"
     inkscape:window-x="0"
     inkscape:window-y="5"
     inkscape:window-maximized="1"
     inkscape:current-layer="svg12" />
  <g
     transform="matrix(1.9491525,0,0,1.9491525,64.067796,-3.0508474)"
     id="surface1"
     style="fill:#30a3db;fill-opacity:1">
    <path
       inkscape:connector-curvature="0"
       style="fill:#30a3db;fill-opacity:1;fill-rule:nonzero;stroke:none"
       d="m -29.202175,2.0579489 h 17.261719 c 1.019531,0 1.847656,0.828124 1.847656,1.847656 V 24.007167 c 0,1.019532 -0.828125,1.847656 -1.847656,1.847656 h -17.261719 c -1.019531,0 -1.847656,-0.828124 -1.847656,-1.847656 V 3.9056049 c 0,-1.019532 0.828125,-1.847656 1.847656,-1.847656 z m 0,0"
       id="path13" />
  </g>
  <g
     style="opacity:0.2"
     transform="matrix(2,0,0,-2,-1068.7119,-672.06607)"
     id="g6">
    <path
       inkscape:connector-curvature="0"
       d="m 545,-355 h 2 v 9.0039 h -2 z m 0,11.004 h 2 v 1.9961 h -2 z"
       class="error"
       id="path4" />
  </g>
  <g
     transform="matrix(2,0,0,-2,-1068.7119,-673.10997)"
     id="g10">
    <path
       style="fill:#ffffff"
       inkscape:connector-curvature="0"
       class="error"
       d="m 545,-355 h 2 v 9.0039 h -2 z m 0,11.004 h 2 v 1.9961 h -2 z"
       id="path8-3" />
  </g>
</svg>
