<?xml version="1.0" encoding="UTF-8"?>
<svg xmlns="http://www.w3.org/2000/svg" xmlns:xlink="http://www.w3.org/1999/xlink" width="24px" height="24px" viewBox="0 0 24 24" version="1.1">
<g id="surface1">
<path style=" stroke:none;fill-rule:nonzero;fill:rgb(82.352942%,85.882354%,89.019608%);fill-opacity:1;" d="M 10.933594 4.511719 C 10.507812 4.539062 10.050781 4.617188 9.558594 4.753906 C 5.597656 5.84375 5.589844 8.898438 4.671875 10.53125 C 3.921875 11.871094 1.601562 13.832031 0.421875 15.144531 C 1.542969 13.925781 4.390625 11.660156 10.894531 9.871094 C 16.765625 8.257812 20.277344 8.53125 22.046875 8.949219 C 20.398438 8.496094 17.960938 8.0625 16.597656 7.25 C 15.292969 6.472656 13.910156 4.308594 10.933594 4.511719 Z M 22.046875 8.949219 C 22.289062 9.015625 22.566406 9.082031 22.769531 9.148438 C 22.574219 9.082031 22.328125 9.011719 22.046875 8.949219 Z M 13.261719 5.867188 C 13.605469 5.875 14.023438 6.003906 14.371094 6.253906 C 15.027344 6.71875 15.21875 7.4375 14.507812 7.632812 C 13.792969 7.828125 12.882812 7.3125 12.597656 6.742188 C 12.398438 6.339844 12.578125 6.003906 12.949219 5.902344 C 13.042969 5.878906 13.148438 5.867188 13.261719 5.867188 Z M 10.480469 6.371094 C 10.917969 6.40625 11.285156 6.667969 11.386719 7.0625 C 11.523438 7.589844 11.140625 8.152344 10.53125 8.320312 C 9.921875 8.488281 9.316406 8.195312 9.179688 7.667969 C 9.042969 7.144531 9.425781 6.585938 10.035156 6.417969 C 10.1875 6.375 10.335938 6.359375 10.480469 6.371094 Z M 7.523438 7.449219 C 7.769531 7.480469 7.953125 7.675781 7.972656 8.011719 C 8.003906 8.652344 7.464844 9.566406 6.75 9.765625 C 6.039062 9.960938 5.859375 9.242188 6.199219 8.5 C 6.4375 7.976562 6.886719 7.570312 7.261719 7.46875 C 7.351562 7.441406 7.441406 7.4375 7.523438 7.449219 Z M 23.226562 9.332031 C 23.289062 9.363281 23.355469 9.390625 23.410156 9.421875 C 23.367188 9.398438 23.304688 9.367188 23.226562 9.332031 Z M 19.925781 9.882812 C 17.652344 9.902344 14.628906 10.378906 11.382812 11.277344 C 4.890625 13.070312 -0.0234375 15.875 0.457031 17.722656 C 0.78125 18.976562 3.554688 19.6875 7.320312 19.457031 C 8.894531 19.59375 11.003906 19.359375 13.253906 18.742188 C 15.46875 18.132812 17.386719 17.269531 18.683594 16.359375 C 22.164062 14.59375 24.296875 12.5 23.964844 11.222656 C 23.726562 10.296875 22.203125 9.859375 19.925781 9.882812 Z M 16.101562 14.816406 C 17.085938 14.792969 17.742188 14.957031 17.839844 15.320312 C 18.027344 16.046875 15.847656 17.09375 13.027344 17.867188 C 10.203125 18.644531 7.804688 18.855469 7.613281 18.128906 C 7.425781 17.402344 9.566406 16.214844 12.390625 15.441406 C 13.800781 15.050781 15.117188 14.839844 16.101562 14.816406 Z M 16.101562 14.816406 "/>
</g>
</svg>
