<?xml version="1.0" encoding="UTF-8"?>
<svg xmlns="http://www.w3.org/2000/svg" xmlns:xlink="http://www.w3.org/1999/xlink" width="24px" height="24px" viewBox="0 0 24 24" version="1.1">
<g id="surface1">
<path style=" stroke:none;fill-rule:nonzero;fill:rgb(83.137256%,85.490197%,89.019608%);fill-opacity:1;" d="M 21.851562 12.910156 C 21.78125 12.746094 21.625 12.640625 21.449219 12.640625 L 16.707031 12.640625 L 16.707031 1.816406 C 16.707031 1.578125 16.511719 1.386719 16.273438 1.386719 L 9.34375 1.386719 C 9.105469 1.386719 8.914062 1.578125 8.914062 1.816406 L 8.914062 12.640625 L 4.148438 12.640625 C 3.972656 12.640625 3.816406 12.746094 3.75 12.910156 C 3.683594 13.070312 3.71875 13.257812 3.84375 13.382812 L 12.480469 22.046875 C 12.5625 22.128906 12.671875 22.175781 12.789062 22.175781 C 12.902344 22.175781 13.011719 22.128906 13.09375 22.046875 L 21.757812 13.382812 C 21.878906 13.257812 21.917969 13.070312 21.851562 12.910156 Z M 21.851562 12.910156 "/>
</g>
</svg>
