<?xml version="1.0" encoding="UTF-8"?>
<svg xmlns="http://www.w3.org/2000/svg" xmlns:xlink="http://www.w3.org/1999/xlink" width="24px" height="24px" viewBox="0 0 24 24" version="1.1">
<g id="surface1">
<path style=" stroke:none;fill-rule:nonzero;fill:rgb(82.352942%,85.882354%,89.019608%);fill-opacity:1;" d="M 5.675781 3.046875 C 5.3125 3.046875 4.894531 3.144531 4.46875 3.375 C 2.910156 4.195312 1.480469 6.878906 0.703125 10.359375 C 0.0390625 13.316406 -0.203125 17.359375 0.191406 18.984375 C 0.535156 20.382812 1.132812 21 2.191406 21 C 3.757812 20.972656 5.730469 19.226562 6.980469 16.875 C 7.882812 15.574219 9.980469 14.980469 12 15.046875 C 14.019531 14.976562 16.117188 15.574219 17.019531 16.875 C 18.269531 19.226562 20.242188 20.972656 21.808594 21 C 22.867188 21 23.464844 20.382812 23.808594 18.984375 C 24.203125 17.359375 23.960938 13.316406 23.296875 10.359375 C 22.519531 6.878906 21.089844 4.195312 19.53125 3.375 C 18.675781 2.917969 17.972656 2.929688 17.347656 3.375 C 16.554688 3.9375 14.90625 4.542969 12 4.546875 C 9.09375 4.546875 7.445312 3.9375 6.652344 3.375 C 6.339844 3.152344 6.039062 3.046875 5.675781 3.046875 Z M 6.046875 7.546875 L 7.535156 7.546875 L 7.535156 9.046875 L 9.023438 9.046875 L 9.023438 10.546875 L 7.535156 10.546875 L 7.535156 12.046875 L 6.046875 12.046875 L 6.046875 10.546875 L 4.5625 10.546875 L 4.5625 9.046875 L 6.046875 9.046875 Z M 17.207031 7.546875 C 17.617188 7.546875 17.949219 7.882812 17.949219 8.296875 C 17.949219 8.710938 17.617188 9.046875 17.207031 9.046875 C 16.796875 9.046875 16.464844 8.710938 16.464844 8.296875 C 16.464844 7.882812 16.796875 7.546875 17.207031 7.546875 Z M 15.71875 9.046875 C 16.128906 9.046875 16.464844 9.382812 16.464844 9.796875 C 16.464844 10.210938 16.128906 10.546875 15.71875 10.546875 C 15.308594 10.546875 14.976562 10.210938 14.976562 9.796875 C 14.976562 9.382812 15.308594 9.046875 15.71875 9.046875 Z M 18.695312 9.046875 C 19.105469 9.046875 19.4375 9.382812 19.4375 9.796875 C 19.4375 10.210938 19.105469 10.546875 18.695312 10.546875 C 18.285156 10.546875 17.949219 10.210938 17.949219 9.796875 C 17.949219 9.382812 18.285156 9.046875 18.695312 9.046875 Z M 17.207031 10.546875 C 17.617188 10.546875 17.949219 10.882812 17.949219 11.296875 C 17.949219 11.710938 17.617188 12.046875 17.207031 12.046875 C 16.796875 12.046875 16.464844 11.710938 16.464844 11.296875 C 16.464844 10.882812 16.796875 10.546875 17.207031 10.546875 Z M 17.207031 10.546875 "/>
</g>
</svg>
