<?xml version="1.0" encoding="UTF-8"?>
<svg xmlns="http://www.w3.org/2000/svg" xmlns:xlink="http://www.w3.org/1999/xlink" width="24px" height="24px" viewBox="0 0 24 24" version="1.1">
<g id="surface1">
<path style=" stroke:none;fill-rule:nonzero;fill:rgb(82.352942%,85.882354%,89.019608%);fill-opacity:1;" d="M 9.734375 1.492188 C 5.191406 1.492188 1.484375 5.207031 1.484375 9.746094 C 1.484375 14.28125 5.191406 17.996094 9.734375 17.996094 C 11.464844 17.996094 13.09375 17.457031 14.421875 16.542969 L 19.953125 22.074219 C 20.339844 22.453125 20.898438 22.597656 21.417969 22.453125 C 21.941406 22.308594 22.34375 21.898438 22.476562 21.371094 C 22.609375 20.847656 22.453125 20.292969 22.0625 19.917969 L 16.53125 14.386719 C 17.449219 13.054688 18.03125 11.46875 18.03125 9.746094 C 18.03125 5.207031 14.277344 1.492188 9.734375 1.492188 Z M 9.734375 4.496094 C 12.65625 4.496094 14.984375 6.828125 14.984375 9.746094 C 14.984375 12.660156 12.65625 14.996094 9.734375 14.996094 C 6.8125 14.996094 4.484375 12.660156 4.484375 9.746094 C 4.484375 6.828125 6.8125 4.496094 9.734375 4.496094 Z M 9.734375 4.496094 "/>
</g>
</svg>
