<?xml version="1.0" encoding="UTF-8"?>
<svg xmlns="http://www.w3.org/2000/svg" xmlns:xlink="http://www.w3.org/1999/xlink" width="24px" height="24px" viewBox="0 0 24 24" version="1.1">
<g id="surface1">
<path style=" stroke:none;fill-rule:nonzero;fill:rgb(82.352942%,85.882354%,89.019608%);fill-opacity:1;" d="M 17.820312 12.75 C 17.792969 9.710938 20.300781 8.253906 20.414062 8.179688 C 19.003906 6.117188 16.804688 5.835938 16.023438 5.800781 C 14.15625 5.613281 12.378906 6.902344 11.429688 6.902344 C 10.484375 6.902344 9.019531 5.832031 7.46875 5.859375 C 5.433594 5.886719 3.554688 7.042969 2.503906 8.867188 C 0.386719 12.539062 1.960938 17.980469 4.023438 20.960938 C 5.035156 22.417969 6.234375 24.054688 7.8125 23.996094 C 9.332031 23.933594 9.90625 23.011719 11.746094 23.011719 C 13.582031 23.011719 14.097656 23.996094 15.707031 23.964844 C 17.34375 23.9375 18.378906 22.480469 19.378906 21.019531 C 20.539062 19.328125 21.015625 17.6875 21.042969 17.605469 C 21.003906 17.589844 17.851562 16.378906 17.820312 12.75 Z M 14.800781 3.832031 C 15.636719 2.8125 16.203125 1.40625 16.046875 -0.00390625 C 14.84375 0.046875 13.378906 0.800781 12.515625 1.816406 C 11.738281 2.714844 11.058594 4.152344 11.238281 5.527344 C 12.585938 5.632812 13.960938 4.84375 14.800781 3.832031 Z M 14.800781 3.832031 "/>
</g>
</svg>
