<?xml version="1.0" encoding="UTF-8"?>
<svg xmlns="http://www.w3.org/2000/svg" xmlns:xlink="http://www.w3.org/1999/xlink" width="24px" height="24px" viewBox="0 0 24 24" version="1.1">
<g id="surface1">
<path style=" stroke:none;fill-rule:nonzero;fill:rgb(82.352942%,85.882354%,89.019608%);fill-opacity:1;" d="M 6 1.5 L 6 4.5 L 18 4.5 L 18 1.5 Z M 3 6 C 2.25 6 1.5 6.75 1.5 7.5 L 1.5 13.5 C 1.5 14.25 2.25 15 3 15 L 4.5 15 L 4.5 12 L 19.5 12 L 19.5 15 L 21 15 C 21.75 15 22.5 14.25 22.5 13.5 L 22.5 7.5 C 22.5 6.75 21.75 6 21 6 Z M 6 13.5 L 6 21 L 18 21 L 18 13.5 Z M 6 13.5 "/>
</g>
</svg>
