<?xml version="1.0" encoding="UTF-8"?>
<svg xmlns="http://www.w3.org/2000/svg" xmlns:xlink="http://www.w3.org/1999/xlink" width="24px" height="24px" viewBox="0 0 24 24" version="1.1">
<g id="surface1">
<path style=" stroke:none;fill-rule:nonzero;fill:rgb(82.352942%,85.882354%,89.019608%);fill-opacity:1;" d="M 17.460938 1.5 C 13.359375 1.5 12.589844 7.730469 14.898438 7.730469 C 17.203125 7.730469 21.5625 1.5 17.460938 1.5 Z M 11.144531 2.457031 C 11.078125 2.457031 11.007812 2.457031 10.9375 2.472656 C 8.613281 2.765625 9.429688 6.699219 10.667969 6.773438 C 11.863281 6.84375 13.175781 2.46875 11.140625 2.460938 Z M 7.113281 3.910156 C 6.972656 3.894531 6.8125 3.929688 6.636719 4.003906 C 4.769531 4.769531 6.355469 7.933594 7.402344 7.722656 C 8.351562 7.53125 8.484375 4 7.113281 3.910156 Z M 4.0625 6.5 C 3.902344 6.5 3.726562 6.550781 3.539062 6.691406 C 2.042969 7.808594 4.042969 10.503906 4.921875 10.085938 C 5.691406 9.722656 5.199219 6.542969 4.0625 6.5 Z M 12.894531 9.074219 C 9.65625 9.019531 5.382812 10.664062 4.652344 13.964844 C 3.863281 17.539062 7.902344 22.5 12.117188 22.5 C 14.191406 22.5 16.582031 20.605469 17.03125 18.207031 C 17.371094 16.375 13.007812 17.109375 13.164062 18.320312 C 13.351562 19.769531 12.113281 20.488281 10.898438 19.550781 C 7.03125 16.574219 17.300781 15.085938 16.621094 11.019531 C 16.414062 9.753906 14.839844 9.105469 12.894531 9.074219 Z M 12.894531 9.074219 "/>
</g>
</svg>
