<?xml version="1.0" encoding="UTF-8"?>
<svg xmlns="http://www.w3.org/2000/svg" xmlns:xlink="http://www.w3.org/1999/xlink" width="24px" height="24px" viewBox="0 0 24 24" version="1.1">
<g id="surface1">
<path style=" stroke:none;fill-rule:nonzero;fill:rgb(82.352942%,85.882354%,89.019608%);fill-opacity:1;" d="M 21 1.492188 L 7.5 1.5 L 7.5 13.78125 C 7.019531 13.601562 6.539062 13.496094 6 13.496094 C 3.515625 13.496094 1.5 15.511719 1.5 17.996094 C 1.5 20.480469 3.515625 22.496094 6 22.496094 C 8.484375 22.496094 10.5 20.480469 10.5 17.996094 L 10.5 7.496094 L 19.5 7.496094 L 19.5 13.777344 C 19.019531 13.597656 18.539062 13.492188 18 13.492188 C 15.515625 13.492188 13.5 15.507812 13.5 17.992188 C 13.5 20.476562 15.515625 22.492188 18 22.492188 C 20.484375 22.492188 22.5 20.476562 22.5 17.992188 L 22.5 1.492188 Z M 21 1.492188 "/>
</g>
</svg>
