<?xml version="1.0" encoding="UTF-8"?>
<svg xmlns="http://www.w3.org/2000/svg" xmlns:xlink="http://www.w3.org/1999/xlink" width="24px" height="24px" viewBox="0 0 24 24" version="1.1">
<g id="surface1">
<path style=" stroke:none;fill-rule:nonzero;fill:rgb(82.352942%,85.882354%,89.019608%);fill-opacity:1;" d="M 9.253906 1.5 C 9.253906 1.5 10.492188 2.199219 9.617188 4.03125 C 8.296875 6.792969 10.835938 7.425781 10.835938 7.425781 C 10.835938 7.425781 10.03125 6.777344 11.105469 4.496094 C 12.296875 1.96875 9.253906 1.5 9.253906 1.5 Z M 14.054688 4.261719 C 14.054688 4.261719 11.589844 5.203125 13.175781 7.785156 C 14.226562 9.5 13.0625 10.347656 13.0625 10.347656 C 13.0625 10.347656 16.039062 9.503906 14.605469 7.140625 C 13.3125 5.003906 14.054688 4.261719 14.054688 4.261719 Z M 6.960938 4.332031 C 6.960938 4.332031 4.804688 5.972656 6.941406 7.992188 C 8.351562 9.335938 7.425781 10.5 7.425781 10.5 C 7.425781 10.5 10.101562 8.800781 8.167969 6.941406 C 6.421875 5.265625 6.960938 4.332031 6.960938 4.332031 Z M 7.425781 10.5 L 1.496094 10.5 L 4.496094 22.5 L 16.496094 22.5 L 16.910156 20.855469 C 17.257812 20.941406 17.621094 21 17.996094 21 C 20.480469 21 22.496094 18.984375 22.496094 16.5 C 22.496094 14.390625 21.042969 12.632812 19.082031 12.144531 L 19.496094 10.5 Z M 18.722656 13.59375 C 19.160156 13.703125 19.445312 14.109375 19.570312 14.726562 C 19.699219 15.34375 19.652344 16.121094 19.449219 16.890625 C 19.027344 18.453125 18.066406 19.566406 17.269531 19.40625 Z M 18.722656 13.59375 "/>
</g>
</svg>
