<?xml version="1.0" encoding="UTF-8"?>
<svg xmlns="http://www.w3.org/2000/svg" xmlns:xlink="http://www.w3.org/1999/xlink" width="24px" height="24px" viewBox="0 0 24 24" version="1.1">
<g id="surface1">
<path style=" stroke:none;fill-rule:nonzero;fill:rgb(82.352942%,85.882354%,89.019608%);fill-opacity:1;" d="M 7.5 3 L 6 4.5 L 4.5 4.5 C 1.5 4.5 1.5 7.5 1.5 7.5 L 1.5 18 C 1.5 21 4.5 21 4.5 21 L 19.5 21 C 22.5 21 22.5 18 22.5 18 L 22.5 7.5 C 22.5 4.5 19.5 4.5 19.5 4.5 L 18 4.5 L 16.5 3 Z M 12 7.5 C 14.484375 7.5 16.5 9.515625 16.5 12 C 16.5 14.484375 14.484375 16.5 12 16.5 C 9.515625 16.5 7.5 14.484375 7.5 12 C 7.5 9.515625 9.515625 7.5 12 7.5 Z M 12 7.5 "/>
</g>
</svg>
