<?xml version="1.0" encoding="UTF-8"?>
<svg xmlns="http://www.w3.org/2000/svg" xmlns:xlink="http://www.w3.org/1999/xlink" width="24px" height="24px" viewBox="0 0 24 24" version="1.1">
<g id="surface1">
<path style=" stroke:none;fill-rule:nonzero;fill:rgb(82.352942%,85.882354%,89.019608%);fill-opacity:1;" d="M 13.5 4.5 C 11.246094 4.5 9.183594 5.769531 8.160156 7.777344 C 7.710938 7.59375 7.234375 7.5 6.75 7.5 C 4.875 7.5 3.289062 8.890625 3.039062 10.75 C 1.222656 11.371094 0.00390625 13.078125 0 15 C 0 17.484375 2.015625 19.5 4.5 19.5 L 18 19.5 C 20.484375 19.5 22.5 17.484375 22.5 15 C 22.5 13.089844 21.289062 11.390625 19.488281 10.757812 C 19.492188 10.671875 19.496094 10.585938 19.5 10.5 C 19.5 7.1875 16.8125 4.5 13.5 4.5 Z M 13.5 4.5 "/>
</g>
</svg>
