<?xml version="1.0" encoding="UTF-8"?>
<svg xmlns="http://www.w3.org/2000/svg" xmlns:xlink="http://www.w3.org/1999/xlink" width="24px" height="24px" viewBox="0 0 24 24" version="1.1">
<g id="surface1">
<path style=" stroke:none;fill-rule:nonzero;fill:rgb(82.352942%,85.882354%,89.019608%);fill-opacity:1;" d="M 4.363281 1.550781 C 3.617188 1.617188 3.109375 2.273438 2.957031 2.957031 C 2.519531 4.296875 2.070312 5.648438 1.644531 6.988281 L 1.503906 7.550781 L 1.503906 19.550781 C 1.503906 20.382812 2.175781 21.050781 3.003906 21.050781 L 21.003906 21.050781 C 21.835938 21.050781 22.503906 20.382812 22.503906 19.550781 L 22.503906 7.550781 L 22.316406 6.847656 C 21.8125 5.363281 21.355469 3.824219 20.816406 2.347656 C 20.496094 1.691406 19.765625 1.484375 19.082031 1.550781 Z M 5.59375 4.550781 L 18.394531 4.550781 C 18.554688 5.039062 18.726562 5.554688 18.890625 6.050781 L 5.105469 6.050781 C 5.265625 5.550781 5.425781 5.058594 5.59375 4.550781 Z M 10.503906 9.050781 L 13.503906 9.050781 L 13.503906 13.550781 L 16.128906 13.550781 L 12.003906 18.050781 L 7.878906 13.550781 L 10.503906 13.550781 Z M 10.503906 9.050781 "/>
</g>
</svg>
