<?xml version="1.0" encoding="UTF-8"?>
<svg xmlns="http://www.w3.org/2000/svg" xmlns:xlink="http://www.w3.org/1999/xlink" width="24px" height="24px" viewBox="0 0 24 24" version="1.1">
<g id="surface1">
<path style=" stroke:none;fill-rule:nonzero;fill:rgb(82.352942%,85.882354%,89.019608%);fill-opacity:1;" d="M 4.058594 0.0234375 L 3.003906 1.085938 L 5.113281 3.195312 C 4.710938 3.804688 4.496094 4.519531 4.496094 5.25 C 4.496094 7.03125 5.75 8.566406 7.496094 8.925781 L 7.496094 15.082031 C 5.753906 15.4375 4.5 16.96875 4.496094 18.75 C 4.496094 20.820312 6.175781 22.5 8.246094 22.5 C 10.316406 22.5 11.996094 20.820312 11.996094 18.75 C 11.996094 16.96875 10.742188 15.433594 8.996094 15.074219 L 8.996094 8.917969 C 9.460938 8.824219 9.902344 8.644531 10.300781 8.386719 L 12.613281 10.699219 C 12.210938 11.308594 12 12.023438 12 12.753906 C 12 14.824219 13.679688 16.503906 15.75 16.503906 C 17.820312 16.503906 19.5 14.824219 19.5 12.753906 C 19.5 10.683594 17.820312 9.003906 15.75 9.003906 C 15.007812 9.003906 14.285156 9.222656 13.667969 9.636719 L 11.371094 7.332031 C 11.78125 6.71875 12 5.992188 12 5.253906 C 12 3.183594 10.320312 1.503906 8.25 1.503906 C 7.511719 1.503906 6.789062 1.722656 6.171875 2.136719 Z M 4.058594 0.0234375 "/>
</g>
</svg>
