<?xml version="1.0" encoding="UTF-8"?>
<svg xmlns="http://www.w3.org/2000/svg" xmlns:xlink="http://www.w3.org/1999/xlink" width="24px" height="24px" viewBox="0 0 24 24" version="1.1">
<g id="surface1">
<path style=" stroke:none;fill-rule:nonzero;fill:rgb(82.352942%,85.882354%,89.019608%);fill-opacity:1;" d="M 13.5 4.5 C 11.246094 4.5 9.183594 5.769531 8.160156 7.777344 C 7.710938 7.59375 7.234375 7.5 6.75 7.5 C 4.875 7.5 3.289062 8.890625 3.039062 10.75 C 1.222656 11.371094 0.00390625 13.078125 0 15 C 0 17.484375 2.015625 19.5 4.5 19.5 L 18 19.5 C 20.484375 19.5 22.5 17.484375 22.5 15 C 22.5 13.089844 21.292969 11.390625 19.488281 10.757812 C 19.496094 10.671875 19.5 10.585938 19.5 10.5 C 19.5 7.1875 16.8125 4.5 13.5 4.5 Z M 13.5 7.496094 L 13.5 7.5 C 15.191406 7.5 16.492188 8.804688 16.496094 10.496094 C 16.496094 10.515625 16.496094 10.539062 16.496094 10.558594 C 16.402344 11.902344 17.222656 13.144531 18.496094 13.589844 C 19.105469 13.804688 19.5 14.355469 19.5 15.003906 C 19.5 15.867188 18.863281 16.5 18 16.5 L 4.5 16.5 C 3.636719 16.5 3.003906 15.867188 3.003906 15.003906 C 3.003906 14.355469 3.398438 13.800781 4.011719 13.589844 C 5.085938 13.21875 5.859375 12.277344 6.011719 11.152344 C 6.066406 10.753906 6.355469 10.5 6.75 10.5 C 6.84375 10.5 6.9375 10.515625 7.027344 10.550781 C 8.46875 11.144531 10.125 10.53125 10.832031 9.140625 C 11.347656 8.128906 12.371094 7.496094 13.5 7.496094 Z M 13.5 7.496094 "/>
</g>
</svg>
