<?xml version="1.0" encoding="UTF-8"?>
<svg xmlns="http://www.w3.org/2000/svg" xmlns:xlink="http://www.w3.org/1999/xlink" width="24px" height="24px" viewBox="0 0 24 24" version="1.1">
<g id="surface1">
<path style=" stroke:none;fill-rule:nonzero;fill:rgb(82.352942%,85.882354%,89.019608%);fill-opacity:1;" d="M 4.5 9 C 2.84375 9 1.5 10.34375 1.5 12 C 1.5 13.65625 2.84375 15 4.5 15 C 6.15625 15 7.5 13.65625 7.5 12 C 7.5 10.34375 6.15625 9 4.5 9 Z M 12 9 C 10.34375 9 9 10.34375 9 12 C 9 13.65625 10.34375 15 12 15 C 13.65625 15 15 13.65625 15 12 C 15 10.34375 13.65625 9 12 9 Z M 19.5 9 C 17.84375 9 16.5 10.34375 16.5 12 C 16.5 13.65625 17.84375 15 19.5 15 C 21.15625 15 22.5 13.65625 22.5 12 C 22.5 10.34375 21.15625 9 19.5 9 Z M 19.5 9 "/>
</g>
</svg>
