<?xml version="1.0" encoding="UTF-8"?>
<svg xmlns="http://www.w3.org/2000/svg" xmlns:xlink="http://www.w3.org/1999/xlink" width="24px" height="24px" viewBox="0 0 24 24" version="1.1">
<g id="surface1">
<path style=" stroke:none;fill-rule:nonzero;fill:rgb(82.352942%,85.882354%,89.019608%);fill-opacity:1;" d="M 12 1.5 C 8.675781 1.5 6 4.230469 6 7.59375 L 6 10.5 L 4.5 10.5 C 3.667969 10.5 3 11.167969 3 12 L 3 21 C 3 21.832031 3.667969 22.5 4.5 22.5 L 19.5 22.5 C 20.332031 22.5 21 21.832031 21 21 L 21 12 C 21 11.167969 20.332031 10.5 19.5 10.5 L 18 10.5 L 18 7.59375 C 18 4.234375 15.324219 1.5 12 1.5 Z M 12 4.5 C 13.660156 4.5 15 5.839844 15 7.5 L 15 10.5 L 9 10.5 L 9 7.5 C 9 5.839844 10.339844 4.5 12 4.5 Z M 12 4.5 "/>
</g>
</svg>
