<?xml version="1.0" encoding="UTF-8"?>
<svg xmlns="http://www.w3.org/2000/svg" xmlns:xlink="http://www.w3.org/1999/xlink" width="24px" height="24px" viewBox="0 0 24 24" version="1.1">
<g id="surface1">
<path style=" stroke:none;fill-rule:nonzero;fill:rgb(82.352942%,85.882354%,89.019608%);fill-opacity:1;" d="M 12 4.5 C 8.785156 4.503906 5.929688 6.554688 4.902344 9.597656 C 2.824219 10.597656 1.503906 12.695312 1.5 15 C 1.5 18.3125 4.1875 21 7.5 21 C 8.972656 20.996094 10.390625 20.453125 11.488281 19.472656 C 11.65625 19.488281 11.828125 19.496094 12 19.5 C 13.097656 19.496094 14.179688 19.253906 15.167969 18.789062 C 16.039062 19.253906 17.011719 19.5 18 19.5 C 21.3125 19.5 24 16.8125 24 13.5 C 24 10.1875 21.3125 7.5 18 7.5 C 16.574219 5.613281 14.355469 4.503906 12 4.5 Z M 12 4.5 "/>
</g>
</svg>
