<?xml version="1.0" encoding="UTF-8"?>
<svg xmlns="http://www.w3.org/2000/svg" xmlns:xlink="http://www.w3.org/1999/xlink" width="24px" height="24px" viewBox="0 0 24 24" version="1.1">
<g id="surface1">
<path style=" stroke:none;fill-rule:nonzero;fill:rgb(82.352942%,85.882354%,89.019608%);fill-opacity:1;" d="M 12 1.5 C 6.199219 1.5 1.5 6.199219 1.5 12 C 1.5 17.800781 6.199219 22.5 12 22.5 C 17.800781 22.5 22.5 17.800781 22.5 12 C 22.5 6.199219 17.800781 1.5 12 1.5 Z M 11.25 4.40625 C 11.351562 4.394531 11.476562 4.414062 11.578125 4.40625 C 11.589844 4.453125 11.503906 4.625 11.390625 4.875 C 10.660156 6.46875 10.621094 8.332031 11.296875 9.328125 C 11.417969 9.507812 11.53125 9.679688 11.53125 9.703125 C 11.53125 9.726562 11.398438 9.75 11.25 9.75 C 10.898438 9.75 10.566406 9.535156 9.890625 9 C 9.589844 8.761719 9.199219 8.5625 9.046875 8.53125 C 8.808594 8.484375 8.746094 8.503906 8.4375 8.8125 C 8.152344 9.097656 8.0625 9.253906 8.0625 9.515625 C 8.0625 10.511719 9.242188 11.300781 11.4375 11.765625 C 14.417969 12.398438 15.152344 12.964844 15.234375 14.53125 C 15.335938 16.496094 14.292969 17.976562 12 19.125 C 11.726562 19.261719 11.550781 19.316406 11.4375 19.359375 C 11.386719 19.355469 11.347656 19.363281 11.296875 19.359375 C 11.277344 19.296875 11.25 19.15625 11.25 18.890625 C 11.25 17.847656 10.839844 16.773438 10.21875 16.171875 C 10.050781 16.011719 9.585938 15.667969 9.1875 15.421875 C 8.789062 15.175781 8.386719 14.886719 8.296875 14.765625 C 8.148438 14.5625 8.136719 14.4375 8.25 14.0625 C 8.457031 13.378906 8.707031 12.996094 9.1875 12.5625 C 9.441406 12.335938 9.695312 12.144531 9.75 12.140625 C 9.804688 12.136719 9.425781 12.023438 8.859375 11.90625 C 8.292969 11.789062 7.460938 11.546875 7.03125 11.390625 C 6.246094 11.105469 5.1875 10.511719 4.78125 10.078125 C 4.765625 10.058594 4.75 10.046875 4.734375 10.03125 C 5.3125 7.722656 6.9375 5.832031 9.09375 4.921875 C 9.542969 4.730469 10.007812 4.601562 10.5 4.5 C 10.746094 4.449219 10.996094 4.433594 11.25 4.40625 Z M 18.28125 7.921875 C 18.457031 8.03125 19.121094 9.46875 19.3125 10.171875 C 19.558594 11.078125 19.539062 12.648438 19.3125 13.546875 C 19.226562 13.890625 19.113281 14.210938 19.078125 14.25 C 19.042969 14.289062 18.90625 14.058594 18.75 13.78125 C 18.59375 13.503906 18.089844 12.910156 17.671875 12.46875 C 16.464844 11.195312 16.277344 10.53125 16.78125 9.515625 C 17.035156 9.003906 18.144531 7.835938 18.28125 7.921875 Z M 18.28125 7.921875 "/>
</g>
</svg>
