<?xml version="1.0" encoding="UTF-8"?>
<svg xmlns="http://www.w3.org/2000/svg" xmlns:xlink="http://www.w3.org/1999/xlink" width="24px" height="24px" viewBox="0 0 24 24" version="1.1">
<g id="surface1">
<path style=" stroke:none;fill-rule:nonzero;fill:rgb(82.352942%,85.882354%,89.019608%);fill-opacity:1;" d="M 9.378906 1.5 L 9.148438 4.265625 C 8.269531 4.589844 7.453125 5.058594 6.734375 5.660156 L 4.222656 4.476562 L 1.597656 9.023438 L 3.878906 10.605469 C 3.796875 11.066406 3.753906 11.53125 3.753906 12 C 3.753906 12.464844 3.792969 12.933594 3.875 13.394531 L 1.597656 14.976562 L 4.222656 19.523438 L 6.730469 18.339844 C 7.449219 18.9375 8.269531 19.40625 9.148438 19.726562 L 9.371094 22.5 L 14.621094 22.5 L 14.851562 19.734375 C 15.730469 19.410156 16.546875 18.941406 17.265625 18.339844 L 19.777344 19.523438 L 22.402344 14.976562 L 20.121094 13.394531 C 20.203125 12.933594 20.246094 12.46875 20.246094 12 C 20.246094 11.535156 20.207031 11.066406 20.125 10.605469 L 22.402344 9.023438 L 19.777344 4.476562 L 17.269531 5.660156 C 16.550781 5.0625 15.730469 4.59375 14.851562 4.273438 L 14.628906 1.5 Z M 12.003906 9 C 13.660156 9 15.003906 10.339844 15.003906 12 C 15.003906 13.65625 13.660156 15 12.003906 15 C 10.347656 15 9.003906 13.65625 9.003906 12 C 9.003906 10.339844 10.347656 9 12.003906 9 Z M 12.003906 9 "/>
</g>
</svg>
