<?xml version="1.0" encoding="UTF-8"?>
<svg xmlns="http://www.w3.org/2000/svg" xmlns:xlink="http://www.w3.org/1999/xlink" width="24px" height="24px" viewBox="0 0 24 24" version="1.1">
<g id="surface1">
<path style=" stroke:none;fill-rule:nonzero;fill:rgb(82.352942%,85.882354%,89.019608%);fill-opacity:1;" d="M 10.542969 1.5 C 9.792969 1.480469 9.144531 2.015625 9.019531 2.753906 L 7.207031 13.636719 L 5.957031 8.636719 C 5.757812 8.003906 5.164062 7.578125 4.5 7.589844 L 0 7.589844 L 0 10.589844 L 3.328125 10.589844 L 6.042969 21.449219 C 6.214844 22.140625 6.847656 22.617188 7.558594 22.585938 C 8.269531 22.558594 8.863281 22.035156 8.980469 21.332031 L 11.03125 9.027344 L 12.839844 14.089844 C 13.058594 14.699219 13.640625 15.101562 14.289062 15.085938 C 14.933594 15.066406 15.5 14.636719 15.683594 14.019531 L 16.574219 11.058594 L 18.074219 15.5625 C 18.273438 16.183594 18.847656 16.609375 19.5 16.613281 L 24 16.613281 L 24 13.613281 L 20.582031 13.613281 L 17.925781 5.636719 C 17.714844 5.015625 17.132812 4.601562 16.476562 4.613281 C 15.824219 4.621094 15.253906 5.054688 15.066406 5.679688 L 14.128906 8.808594 L 11.910156 2.605469 C 11.703125 2.023438 11.160156 1.628906 10.542969 1.613281 Z M 10.542969 1.5 "/>
</g>
</svg>
