<?xml version="1.0" encoding="UTF-8"?>
<svg xmlns="http://www.w3.org/2000/svg" xmlns:xlink="http://www.w3.org/1999/xlink" width="24px" height="24px" viewBox="0 0 24 24" version="1.1">
<g id="surface1">
<path style=" stroke:none;fill-rule:nonzero;fill:rgb(82.352942%,85.882354%,89.019608%);fill-opacity:1;" d="M 11.992188 3 C 9.1875 3 6.898438 5.300781 6.816406 8.175781 C 6.75 8.195312 6.679688 8.222656 6.613281 8.253906 C 5.96875 8.597656 5.804688 9.660156 6.246094 10.644531 C 6.601562 11.433594 7.230469 11.925781 7.804688 11.910156 C 8.234375 14.539062 9.949219 16.5 11.992188 16.5 C 11.996094 16.5 12.003906 16.5 12.007812 16.5 C 14.050781 16.5 15.765625 14.539062 16.195312 11.910156 C 16.769531 11.925781 17.394531 11.433594 17.75 10.644531 C 18.191406 9.660156 18.03125 8.597656 17.386719 8.253906 C 17.320312 8.222656 17.25 8.195312 17.183594 8.175781 C 17.101562 5.300781 14.8125 3 12.007812 3 C 12.003906 3 11.996094 3 11.992188 3 Z M 15.589844 16.5 C 15.160156 17.550781 13.679688 18.339844 11.917969 18.339844 C 10.164062 18.339844 8.699219 17.5625 8.257812 16.519531 C 4.554688 16.90625 1.855469 17.851562 1.53125 18.972656 C 1.527344 18.984375 1.535156 18.996094 1.53125 19.007812 C 1.523438 19.046875 1.519531 19.085938 1.515625 19.125 C 1.511719 19.144531 1.5 19.15625 1.5 19.175781 C 1.5 19.179688 1.5 19.183594 1.5 19.191406 L 1.5 21.964844 C 1.5 22.261719 1.734375 22.5 2.023438 22.5 L 21.976562 22.5 C 22.265625 22.5 22.5 22.261719 22.5 21.964844 L 22.5 19.191406 C 22.5 19.175781 22.5 19.167969 22.5 19.15625 C 22.496094 19.09375 22.46875 19.035156 22.449219 18.972656 C 22.117188 17.839844 19.363281 16.878906 15.589844 16.5 Z M 15.589844 16.5 "/>
</g>
</svg>
