<?xml version="1.0" encoding="UTF-8"?>
<svg xmlns="http://www.w3.org/2000/svg" xmlns:xlink="http://www.w3.org/1999/xlink" width="24px" height="24px" viewBox="0 0 24 24" version="1.1">
<g id="surface1">
<path style=" stroke:none;fill-rule:nonzero;fill:rgb(82.352942%,85.882354%,89.019608%);fill-opacity:1;" d="M 18.75 3 C 16.175781 3 13.980469 4.871094 13.570312 7.410156 L 9.851562 13.585938 C 9.570312 13.53125 9.285156 13.5 9 13.5 C 8.320312 13.5 7.652344 13.65625 7.039062 13.953125 L 0.402344 10.121094 C 0.140625 11.230469 0.00390625 12.363281 0 13.5 C 0.00390625 14.050781 0.0429688 14.601562 0.109375 15.148438 L 4.511719 17.691406 C 4.503906 17.792969 4.5 17.894531 4.5 18 C 4.5 20.484375 6.515625 22.5 9 22.5 C 11.484375 22.5 13.5 20.484375 13.5 18 C 13.5 17.859375 13.492188 17.714844 13.476562 17.574219 L 20.042969 13.332031 C 22.367188 12.738281 23.996094 10.648438 24 8.25 C 24 5.351562 21.648438 3 18.75 3 Z M 18.75 4.5 C 20.820312 4.5 22.5 6.179688 22.5 8.25 C 22.5 10.320312 20.820312 12 18.75 12 C 16.679688 12 15 10.320312 15 8.25 C 15 6.179688 16.679688 4.5 18.75 4.5 Z M 18.75 6 C 17.507812 6 16.5 7.007812 16.5 8.25 C 16.5 9.492188 17.507812 10.5 18.75 10.5 C 19.992188 10.5 21 9.492188 21 8.25 C 21 7.007812 19.992188 6 18.75 6 Z M 9 15 C 10.65625 15 12 16.34375 12 18 C 12 19.65625 10.65625 21 9 21 C 7.570312 20.996094 6.339844 19.984375 6.0625 18.582031 L 7.117188 19.195312 C 8.199219 19.820312 9.570312 19.453125 10.191406 18.371094 C 10.816406 17.292969 10.449219 15.921875 9.367188 15.300781 L 8.863281 15.003906 C 8.90625 15.003906 8.953125 15 9 15 Z M 9 15 "/>
</g>
</svg>
