<?xml version="1.0" encoding="UTF-8" standalone="no"?>
<svg
   xmlns:dc="http://purl.org/dc/elements/1.1/"
   xmlns:cc="http://creativecommons.org/ns#"
   xmlns:rdf="http://www.w3.org/1999/02/22-rdf-syntax-ns#"
   xmlns:svg="http://www.w3.org/2000/svg"
   xmlns="http://www.w3.org/2000/svg"
   xmlns:sodipodi="http://sodipodi.sourceforge.net/DTD/sodipodi-0.dtd"
   xmlns:inkscape="http://www.inkscape.org/namespaces/inkscape"
   height="48"
   width="48"
   version="1"
   id="svg56"
   sodipodi:docname="input-keyboard.svg"
   inkscape:version="0.92.2 2405546, 2018-03-11">
  <metadata
     id="metadata62">
    <rdf:RDF>
      <cc:Work
         rdf:about="">
        <dc:format>image/svg+xml</dc:format>
        <dc:type
           rdf:resource="http://purl.org/dc/dcmitype/StillImage" />
      </cc:Work>
    </rdf:RDF>
  </metadata>
  <defs
     id="defs60" />
  <sodipodi:namedview
     pagecolor="#ffffff"
     bordercolor="#666666"
     borderopacity="1"
     objecttolerance="10"
     gridtolerance="10"
     guidetolerance="10"
     inkscape:pageopacity="0"
     inkscape:pageshadow="2"
     inkscape:window-width="1920"
     inkscape:window-height="1019"
     id="namedview58"
     showgrid="false"
     inkscape:zoom="13.447572"
     inkscape:cx="26.237288"
     inkscape:cy="29.491526"
     inkscape:window-x="0"
     inkscape:window-y="5"
     inkscape:window-maximized="1"
     inkscape:current-layer="svg56" />
  <path
     style="opacity:0.5;fill:#808080;fill-opacity:1;stroke:none;stroke-width:0.40182465;stroke-miterlimit:4;stroke-dasharray:none;stroke-opacity:1"
     d="M 1.3828125 39.117188 L 1.3828125 39.931641 C 1.3828125 42.296625 3.0465297 44.201172 5.1132812 44.201172 L 42.886719 44.201172 C 44.95347 44.201172 46.617188 42.296625 46.617188 39.931641 L 46.617188 39.117188 C 46.617188 41.482172 44.95347 43.386719 42.886719 43.386719 L 5.1132812 43.386719 C 3.0465297 43.386719 1.3828125 41.482172 1.3828125 39.117188 z "
     id="rect4520-6" />
  <rect
     style="opacity:1;fill:#666666;fill-opacity:1;stroke:none;stroke-width:0.40182465;stroke-miterlimit:4;stroke-dasharray:none;stroke-opacity:1"
     id="rect4520"
     width="45.233517"
     height="25.880375"
     x="1.3832443"
     y="17.506626"
     rx="3.7305984"
     ry="4.2689257" />
  <rect
     style="opacity:0.287;fill:#000000;fill-opacity:1;stroke:none;stroke-width:0.36885446;stroke-miterlimit:4;stroke-dasharray:none;stroke-opacity:1"
     id="rect4522-8"
     width="4.7961507"
     height="4.7961507"
     x="5.7693067"
     y="22.310186"
     rx="0.87734604"
     ry="0.87734604" />
  <rect
     style="opacity:1;fill:#ffffff;fill-opacity:1;stroke:none;stroke-width:0.36885446;stroke-miterlimit:4;stroke-dasharray:none;stroke-opacity:1"
     id="rect4522"
     width="4.7961507"
     height="4.7961507"
     x="5.7693067"
     y="21.663006"
     rx="0.87734604"
     ry="0.87734604" />
  <rect
     style="opacity:0.287;fill:#000000;fill-opacity:1;stroke:none;stroke-width:0.36885446;stroke-miterlimit:4;stroke-dasharray:none;stroke-opacity:1"
     id="rect4522-3-5"
     width="4.7961507"
     height="4.7961507"
     x="12.121762"
     y="22.310183"
     rx="0.87734604"
     ry="0.87734604" />
  <rect
     style="opacity:1;fill:#ffffff;fill-opacity:1;stroke:none;stroke-width:0.36885446;stroke-miterlimit:4;stroke-dasharray:none;stroke-opacity:1"
     id="rect4522-3"
     width="4.7961507"
     height="4.7961507"
     x="12.121762"
     y="21.663002"
     rx="0.87734604"
     ry="0.87734604" />
  <rect
     style="opacity:0.287;fill:#000000;fill-opacity:1;stroke:none;stroke-width:0.36885446;stroke-miterlimit:4;stroke-dasharray:none;stroke-opacity:1"
     id="rect4522-6-9"
     width="4.7961507"
     height="4.7961507"
     x="5.7693067"
     y="28.76239"
     rx="0.87734604"
     ry="0.87734604" />
  <rect
     style="opacity:1;fill:#ffffff;fill-opacity:1;stroke:none;stroke-width:0.36885446;stroke-miterlimit:4;stroke-dasharray:none;stroke-opacity:1"
     id="rect4522-6"
     width="4.7961507"
     height="4.7961507"
     x="5.7693067"
     y="28.11521"
     rx="0.87734604"
     ry="0.87734604" />
  <rect
     style="opacity:0.287;fill:#000000;fill-opacity:1;stroke:none;stroke-width:0.36885446;stroke-miterlimit:4;stroke-dasharray:none;stroke-opacity:1"
     id="rect4522-3-7-7"
     width="4.7961507"
     height="4.7961507"
     x="12.121762"
     y="28.76239"
     rx="0.87734604"
     ry="0.87734604" />
  <rect
     style="opacity:1;fill:#ffffff;fill-opacity:1;stroke:none;stroke-width:0.36885446;stroke-miterlimit:4;stroke-dasharray:none;stroke-opacity:1"
     id="rect4522-3-7"
     width="4.7961507"
     height="4.7961507"
     x="12.121762"
     y="28.11521"
     rx="0.87734604"
     ry="0.87734604" />
  <rect
     style="opacity:0.287;fill:#000000;fill-opacity:1;stroke:none;stroke-width:0.36885446;stroke-miterlimit:4;stroke-dasharray:none;stroke-opacity:1"
     id="rect4522-5-5"
     width="4.7961507"
     height="4.7961507"
     x="18.440929"
     y="22.310186"
     rx="0.87734604"
     ry="0.87734604" />
  <rect
     style="opacity:1;fill:#ffffff;fill-opacity:1;stroke:none;stroke-width:0.36885446;stroke-miterlimit:4;stroke-dasharray:none;stroke-opacity:1"
     id="rect4522-5"
     width="4.7961507"
     height="4.7961507"
     x="18.440929"
     y="21.663006"
     rx="0.87734604"
     ry="0.87734604" />
  <rect
     style="opacity:0.287;fill:#000000;fill-opacity:1;stroke:none;stroke-width:0.36885446;stroke-miterlimit:4;stroke-dasharray:none;stroke-opacity:1"
     id="rect4522-3-3-3"
     width="4.7961507"
     height="4.7961507"
     x="24.793362"
     y="22.310183"
     rx="0.87734604"
     ry="0.87734604" />
  <rect
     style="opacity:1;fill:#ffffff;fill-opacity:1;stroke:none;stroke-width:0.36885446;stroke-miterlimit:4;stroke-dasharray:none;stroke-opacity:1"
     id="rect4522-3-3"
     width="4.7961507"
     height="4.7961507"
     x="24.793362"
     y="21.663002"
     rx="0.87734604"
     ry="0.87734604" />
  <rect
     style="opacity:0.287;fill:#000000;fill-opacity:1;stroke:none;stroke-width:0.36885446;stroke-miterlimit:4;stroke-dasharray:none;stroke-opacity:1"
     id="rect4522-6-5-8"
     width="4.7961507"
     height="4.7961507"
     x="18.440929"
     y="28.76239"
     rx="0.87734604"
     ry="0.87734604" />
  <rect
     style="opacity:1;fill:#ffffff;fill-opacity:1;stroke:none;stroke-width:0.36885446;stroke-miterlimit:4;stroke-dasharray:none;stroke-opacity:1"
     id="rect4522-6-5"
     width="4.7961507"
     height="4.7961507"
     x="18.440929"
     y="28.11521"
     rx="0.87734604"
     ry="0.87734604" />
  <rect
     style="opacity:0.287;fill:#000000;fill-opacity:1;stroke:none;stroke-width:0.36885446;stroke-miterlimit:4;stroke-dasharray:none;stroke-opacity:1"
     id="rect4522-3-7-6-8"
     width="4.7961507"
     height="4.7961507"
     x="24.793362"
     y="28.76239"
     rx="0.87734604"
     ry="0.87734604" />
  <rect
     style="opacity:1;fill:#ffffff;fill-opacity:1;stroke:none;stroke-width:0.36885446;stroke-miterlimit:4;stroke-dasharray:none;stroke-opacity:1"
     id="rect4522-3-7-6"
     width="4.7961507"
     height="4.7961507"
     x="24.793362"
     y="28.11521"
     rx="0.87734604"
     ry="0.87734604" />
  <rect
     style="opacity:0.287;fill:#000000;fill-opacity:1;stroke:none;stroke-width:0.36885446;stroke-miterlimit:4;stroke-dasharray:none;stroke-opacity:1"
     id="rect4522-3-9-3"
     width="4.7961507"
     height="4.7961507"
     x="31.116657"
     y="22.310183"
     rx="0.87734604"
     ry="0.87734604" />
  <rect
     style="opacity:1;fill:#ffffff;fill-opacity:1;stroke:none;stroke-width:0.36885446;stroke-miterlimit:4;stroke-dasharray:none;stroke-opacity:1"
     id="rect4522-3-9"
     width="4.7961507"
     height="4.7961507"
     x="31.116657"
     y="21.663002"
     rx="0.87734604"
     ry="0.87734604" />
  <rect
     style="opacity:0.287;fill:#000000;fill-opacity:1;stroke:none;stroke-width:0.36885446;stroke-miterlimit:4;stroke-dasharray:none;stroke-opacity:1"
     id="rect4522-3-7-2-1"
     width="4.7961507"
     height="4.7961507"
     x="31.116657"
     y="28.76239"
     rx="0.87734604"
     ry="0.87734604" />
  <path
     style="opacity:0.5;fill:#000000;fill-opacity:1;stroke:none;stroke-width:0.43894729;stroke-miterlimit:4;stroke-dasharray:none;stroke-opacity:1"
     d="M 13.484375 21.724609 L 13.484375 22.539062 C 13.484375 22.622522 13.500663 22.699759 13.507812 22.78125 C 13.440093 23.38249 13.605423 24.003981 14.064453 24.46875 L 22.544922 33.054688 C 23.348673 33.868499 24.64542 33.874211 25.455078 33.066406 L 33.960938 24.580078 C 34.435138 24.106932 34.598241 23.467363 34.519531 22.851562 C 34.531931 22.747151 34.550781 22.646852 34.550781 22.539062 L 34.550781 21.724609 C 34.550781 21.832398 34.531931 21.934651 34.519531 22.039062 C 34.598241 22.654862 34.435138 23.292479 33.960938 23.765625 L 25.455078 32.251953 C 24.64542 33.059758 23.348673 33.054045 22.544922 32.240234 L 14.064453 23.654297 C 13.605423 23.189528 13.440093 22.56999 13.507812 21.96875 C 13.500663 21.887259 13.484375 21.808069 13.484375 21.724609 z "
     id="rect4673-4" />
  <rect
     style="opacity:0.287;fill:#000000;fill-opacity:1;stroke:none;stroke-width:0.36885446;stroke-miterlimit:4;stroke-dasharray:none;stroke-opacity:1"
     id="rect4522-5-7-8"
     width="4.7961507"
     height="4.7961507"
     x="37.435863"
     y="22.310186"
     rx="0.87734604"
     ry="0.87734604" />
  <rect
     style="opacity:1;fill:#ffffff;fill-opacity:1;stroke:none;stroke-width:0.36885446;stroke-miterlimit:4;stroke-dasharray:none;stroke-opacity:1"
     id="rect4522-3-7-2"
     width="4.7961507"
     height="4.7961507"
     x="31.116657"
     y="28.11521"
     rx="0.87734604"
     ry="0.87734604" />
  <rect
     style="opacity:0.287;fill:#000000;fill-opacity:1;stroke:none;stroke-width:0.36885446;stroke-miterlimit:4;stroke-dasharray:none;stroke-opacity:1"
     id="rect4522-6-5-0-9"
     width="4.7961507"
     height="4.7961507"
     x="37.435863"
     y="28.76239"
     rx="0.87734604"
     ry="0.87734604" />
  <rect
     style="opacity:1;fill:#ffffff;fill-opacity:1;stroke:none;stroke-width:0.36885446;stroke-miterlimit:4;stroke-dasharray:none;stroke-opacity:1"
     id="rect4522-5-7"
     width="4.7961507"
     height="4.7961507"
     x="37.435863"
     y="21.663006"
     rx="0.87734604"
     ry="0.87734604" />
  <rect
     style="opacity:0.287;fill:#000000;fill-opacity:1;stroke:none;stroke-width:0.36885446;stroke-miterlimit:4;stroke-dasharray:none;stroke-opacity:1"
     id="rect4641-6"
     width="20.968182"
     height="4.5910277"
     x="13.412778"
     y="35.308155"
     rx="0.59559053"
     ry="0.62306654" />
  <rect
     style="opacity:1;fill:#ffffff;fill-opacity:1;stroke:none;stroke-width:0.36885446;stroke-miterlimit:4;stroke-dasharray:none;stroke-opacity:1"
     id="rect4522-6-5-0"
     width="4.7961507"
     height="4.7961507"
     x="37.435863"
     y="28.11521"
     rx="0.87734604"
     ry="0.87734604" />
  <rect
     style="opacity:0.287;fill:#000000;fill-opacity:1;stroke:none;stroke-width:0.36885446;stroke-miterlimit:4;stroke-dasharray:none;stroke-opacity:1"
     id="rect4522-6-5-0-6-4"
     width="6.1937895"
     height="4.7961507"
     x="36.083759"
     y="35.168362"
     rx="0.90762967"
     ry="0.90762967" />
  <rect
     style="opacity:1;fill:#ffffff;fill-opacity:1;stroke:none;stroke-width:0.36885446;stroke-miterlimit:4;stroke-dasharray:none;stroke-opacity:1"
     id="rect4641"
     width="20.968182"
     height="4.5910277"
     x="13.412778"
     y="34.660957"
     rx="0.59559053"
     ry="0.62306654" />
  <rect
     style="opacity:0.287;fill:#000000;fill-opacity:1;stroke:none;stroke-width:0.36885446;stroke-miterlimit:4;stroke-dasharray:none;stroke-opacity:1"
     id="rect4522-6-5-0-6-0-3"
     width="6.1937895"
     height="4.7961507"
     x="5.5916867"
     y="35.122837"
     rx="0.86738271"
     ry="0.86738271" />
  <rect
     style="opacity:1;fill:#ffffff;fill-opacity:1;stroke:none;stroke-width:0.36885446;stroke-miterlimit:4;stroke-dasharray:none;stroke-opacity:1"
     id="rect4522-6-5-0-6"
     width="6.1937895"
     height="4.7961507"
     x="36.083759"
     y="34.521164"
     rx="0.90762967"
     ry="0.90762967" />
  <rect
     style="opacity:1;fill:#ffffff;fill-opacity:1;stroke:none;stroke-width:0.36885446;stroke-miterlimit:4;stroke-dasharray:none;stroke-opacity:1"
     id="rect4522-6-5-0-6-0"
     width="6.1937895"
     height="4.7961507"
     x="5.5916867"
     y="34.475639"
     rx="0.86738271"
     ry="0.86738271" />
  <path
     style="opacity:1;fill:#0080e8;fill-opacity:1;stroke:none;stroke-width:0.43894729;stroke-miterlimit:4;stroke-dasharray:none;stroke-opacity:1"
     d="m 16.16916,3.4112799 c -1.48779,0 -2.685654,1.19786 -2.685654,2.685649 V 21.725327 c 0,0.08346 0.01731,0.161266 0.02446,0.242757 -0.06772,0.60124 0.09715,1.222215 0.55618,1.686984 l 8.481002,8.585479 c 0.803751,0.813811 2.100312,0.820165 2.90997,0.01236 l 8.505584,-8.487289 c 0.4742,-0.473146 0.63797,-1.111132 0.55926,-1.726932 0.0124,-0.104412 0.0309,-0.205631 0.0309,-0.31342 V 6.0968719 c 0,-1.48779 -1.19787,-2.68565 -2.68566,-2.68565 z"
     id="rect4673"
     inkscape:connector-curvature="0" />
  <text
     xml:space="preserve"
     style="font-style:normal;font-weight:normal;font-size:19.8211422px;line-height:1.25;font-family:sans-serif;letter-spacing:0px;word-spacing:0px;fill:#ffffff;fill-opacity:1;stroke:none;stroke-width:0.49552852;"
     x="17.163845"
     y="21.212057"
     id="text4693"><tspan
       sodipodi:role="line"
       id="tspan4691"
       x="17.163845"
       y="21.212057"
       style="fill:#ffffff;stroke-width:0.49552852;stroke:none;">A</tspan></text>
</svg>
