<?xml version="1.0" encoding="UTF-8" standalone="no"?>
<svg
   xmlns:dc="http://purl.org/dc/elements/1.1/"
   xmlns:cc="http://creativecommons.org/ns#"
   xmlns:rdf="http://www.w3.org/1999/02/22-rdf-syntax-ns#"
   xmlns:svg="http://www.w3.org/2000/svg"
   xmlns="http://www.w3.org/2000/svg"
   xmlns:sodipodi="http://sodipodi.sourceforge.net/DTD/sodipodi-0.dtd"
   xmlns:inkscape="http://www.inkscape.org/namespaces/inkscape"
   height="48"
   width="48"
   version="1"
   id="svg18"
   sodipodi:docname="input-mouse.svg"
   inkscape:version="0.92.2 2405546, 2018-03-11">
  <metadata
     id="metadata24">
    <rdf:RDF>
      <cc:Work
         rdf:about="">
        <dc:format>image/svg+xml</dc:format>
        <dc:type
           rdf:resource="http://purl.org/dc/dcmitype/StillImage" />
      </cc:Work>
    </rdf:RDF>
  </metadata>
  <defs
     id="defs22">
    <filter
       inkscape:collect="always"
       style="color-interpolation-filters:sRGB"
       id="filter845"
       x="-0.014779072"
       width="1.0295581"
       y="-0.010100661"
       height="1.0202013">
      <feGaussianBlur
         inkscape:collect="always"
         stdDeviation="0.0062060525"
         id="feGaussianBlur847" />
    </filter>
  </defs>
  <sodipodi:namedview
     pagecolor="#ffffff"
     bordercolor="#666666"
     borderopacity="1"
     objecttolerance="10"
     gridtolerance="10"
     guidetolerance="10"
     inkscape:pageopacity="0"
     inkscape:pageshadow="2"
     inkscape:window-width="1920"
     inkscape:window-height="1019"
     id="namedview20"
     showgrid="false"
     inkscape:zoom="4.9166667"
     inkscape:cx="-14.542373"
     inkscape:cy="24"
     inkscape:window-x="0"
     inkscape:window-y="5"
     inkscape:window-maximized="1"
     inkscape:current-layer="svg18" />
  <g
     transform="translate(-52.273 -2.186)"
     display="none"
     id="g4">
    <rect
       display="inline"
       rx="9"
       ry="9"
       height="44"
       width="44"
       y="2"
       x="2"
       fill="#abe1ad"
       id="rect2" />
  </g>
  <rect
     ry="3.6700332"
     rx="3.6700332"
     y="0.44362047"
     x="3.1251826"
     height="47.252399"
     width="41.612186"
     id="rect859"
     style="opacity:1;fill:#666666;fill-opacity:1;stroke:none;stroke-width:0.35814306;stroke-linecap:round;stroke-linejoin:round;stroke-miterlimit:4;stroke-dasharray:none;stroke-opacity:1;paint-order:stroke fill markers" />
  <path
     id="path822"
     d="m 23.74049,17.246126 c -0.375138,0 -0.680292,0.266762 -0.680292,0.595247 v 4.148662 c 0,0.328183 0.305154,0.595096 0.680292,0.595096 0.375131,0 0.680288,-0.266913 0.680288,-0.595096 v -4.148662 c 0,-0.328485 -0.305157,-0.595247 -0.680288,-0.595247 z m 0,0"
     inkscape:connector-curvature="0"
     style="fill:#ffffff;stroke-width:0.05700682" />
  <path
     id="path824"
     d="m 24.675709,9.7716703 v 5.9937157 c 0.944741,0.32713 1.615271,1.13404 1.615271,2.075987 v 4.148662 c 0,1.230538 -1.14421,2.23225 -2.55049,2.23225 -1.406284,0 -2.550494,-1.001712 -2.550494,-2.23225 v -4.148662 c 0,-0.941947 0.67053,-1.748857 1.615511,-2.075987 V 9.7716703 c -4.58589,0.4109817 -8.175383,3.8111447 -8.175383,7.9313537 V 29.10379 c 0,4.396606 4.086741,7.973355 9.110126,7.973355 5.023387,0 9.110126,-3.576749 9.110126,-7.973355 V 17.703024 c 0,-4.120209 -3.589256,-7.520221 -8.174667,-7.9313537 z m 0,0"
     inkscape:connector-curvature="0"
     style="fill:#e6e6e6;stroke-width:0.05700682" />
  <path
     style="opacity:0.169;fill:#000000;stroke-width:0.0451335;filter:url(#filter845)"
     d="m 15.119141,1035.3243 v 0.9707 c 0,0.2778 0.226052,0.5039 0.503906,0.5039 0.277851,0 0.503906,-0.2261 0.503906,-0.5039 v -0.9707 c 0,0.2778 -0.226055,0.502 -0.503906,0.502 -0.277854,0 -0.503906,-0.2242 -0.503906,-0.502 z"
     id="path831"
     inkscape:connector-curvature="0"
     transform="matrix(1.3501212,0,0,1.181634,2.6464321,-1201.4879)" />
  <path
     style="opacity:0.19800002;fill:#000000;stroke-width:0.05700682"
     d="m 22.805958,15.764483 c -0.94498,0.32713 -1.616454,1.134943 -1.616454,2.07689 v 1.149546 c 0,-0.942098 0.671474,-1.750062 1.616454,-2.077342 z m 1.8696,0 v 1.149094 c 0.944741,0.32728 1.616455,1.135244 1.616455,2.077342 v -1.149546 c 0,-0.941947 -0.671714,-1.74976 -1.616455,-2.07689 z M 14.631395,29.10379 v 1.149546 c 0,4.396455 4.08466,7.973505 9.108045,7.973505 5.023387,0 9.110682,-3.57705 9.110682,-7.973505 V 29.10379 c 0,4.396606 -4.087295,7.973957 -9.110682,7.973957 -5.023385,0 -9.108045,-3.577351 -9.108045,-7.973957 z"
     id="path833"
     inkscape:connector-curvature="0" />
</svg>
