<?xml version="1.0" encoding="UTF-8" standalone="no"?>
<!-- Created with Inkscape (http://www.inkscape.org/) -->

<svg
   xmlns:dc="http://purl.org/dc/elements/1.1/"
   xmlns:cc="http://creativecommons.org/ns#"
   xmlns:rdf="http://www.w3.org/1999/02/22-rdf-syntax-ns#"
   xmlns:svg="http://www.w3.org/2000/svg"
   xmlns="http://www.w3.org/2000/svg"
   xmlns:xlink="http://www.w3.org/1999/xlink"
   xmlns:sodipodi="http://sodipodi.sourceforge.net/DTD/sodipodi-0.dtd"
   xmlns:inkscape="http://www.inkscape.org/namespaces/inkscape"
   width="48"
   height="48"
   id="svg3098"
   version="1.1"
   inkscape:version="0.92.2 2405546, 2018-03-11"
   sodipodi:docname="media-removable.svg">
  <defs
     id="defs3100">
    <linearGradient
       id="linearGradient3806">
      <stop
         style="stop-color:#bd0000;stop-opacity:1;"
         offset="0"
         id="stop3808" />
      <stop
         style="stop-color:#ff9601;stop-opacity:1;"
         offset="1"
         id="stop3810" />
    </linearGradient>
    <linearGradient
       gradientTransform="translate(-40.372881,0)"
       y2="37.287701"
       y1="43.8284"
       x2="29.636"
       x1="17.391701"
       id="linearGradient4241"
       gradientUnits="userSpaceOnUse">
      <stop
         style="stop-color:#a2a2a2;stop-opacity:1;"
         id="stop4243"
         stop-opacity=".706"
         offset="0" />
      <stop
         style="stop-color:white;stop-opacity:1;"
         id="stop4245"
         stop-opacity=".353"
         offset="1" />
    </linearGradient>
    <linearGradient
       gradientUnits="userSpaceOnUse"
       id="linearGradient6103"
       x1="20.799999"
       x2="31.226999"
       y1="22.346155"
       y2="36.1441"
       gradientTransform="matrix(1.1666668,0,0,1.4736842,45.592865,978.6635)">
      <stop
         offset="0"
         stop-color="#fff"
         id="stop3555" />
      <stop
         offset="1"
         stop-color="#fff"
         stop-opacity="0"
         id="stop3557" />
    </linearGradient>
    <linearGradient
       gradientUnits="userSpaceOnUse"
       id="linearGradient4523-7"
       x2="0"
       xlink:href="#linearGradient4050-3"
       y1="11.2534"
       y2="33.3442"
       gradientTransform="matrix(0.86206897,0,0,1.08,17.072566,1006.1392)" />
    <linearGradient
       id="linearGradient4050-3">
      <stop
         offset="0"
         stop-color="#fff"
         stop-opacity=".669"
         id="stop3495-5" />
      <stop
         offset="1"
         stop-color="#fff"
         stop-opacity="0"
         id="stop3497-9" />
    </linearGradient>
    <linearGradient
       id="linearGradient3806-4">
      <stop
         style="stop-color:#bd0000;stop-opacity:1;"
         offset="0"
         id="stop3808-1" />
      <stop
         style="stop-color:#ff9601;stop-opacity:1;"
         offset="1"
         id="stop3810-5" />
    </linearGradient>
    <linearGradient
       id="linearGradient5048-8">
      <stop
         id="stop5050-4"
         style="stop-color:#000000;stop-opacity:0"
         offset="0" />
      <stop
         id="stop5056-7"
         style="stop-color:#000000;stop-opacity:1"
         offset="0.5" />
      <stop
         id="stop5052-0-1"
         style="stop-color:#000000;stop-opacity:0"
         offset="1" />
    </linearGradient>
    <linearGradient
       id="linearGradient5060-29">
      <stop
         id="stop5062-9"
         style="stop-color:#000000;stop-opacity:1"
         offset="0" />
      <stop
         id="stop5064-08"
         style="stop-color:#000000;stop-opacity:0"
         offset="1" />
    </linearGradient>
  </defs>
  <sodipodi:namedview
     id="base"
     pagecolor="#ffffff"
     bordercolor="#666666"
     borderopacity="1.0"
     inkscape:pageopacity="0.0"
     inkscape:pageshadow="2"
     inkscape:zoom="3.959798"
     inkscape:cx="13.499081"
     inkscape:cy="20.584989"
     inkscape:document-units="px"
     inkscape:current-layer="capa1"
     showgrid="true"
     inkscape:window-width="1920"
     inkscape:window-height="1012"
     inkscape:window-x="0"
     inkscape:window-y="38"
     inkscape:window-maximized="1"
     showguides="true"
     inkscape:guide-bbox="true">
    <inkscape:grid
       type="xygrid"
       id="grid3106"
       empspacing="5"
       visible="true"
       enabled="true"
       snapvisiblegridlinesonly="true" />
  </sodipodi:namedview>
  <metadata
     id="metadata3103">
    <rdf:RDF>
      <cc:Work
         rdf:about="">
        <dc:format>image/svg+xml</dc:format>
        <dc:type
           rdf:resource="http://purl.org/dc/dcmitype/StillImage" />
        <dc:title />
      </cc:Work>
    </rdf:RDF>
  </metadata>
  <g
     inkscape:label="Capa 1"
     inkscape:groupmode="layer"
     id="capa1"
     transform="translate(0,-1004.3622)">
    <rect
       style="color:#000000;display:inline;overflow:visible;visibility:visible;fill:#e6e6e6;fill-opacity:1;fill-rule:nonzero;stroke:#5e5e5e;stroke-width:0.81758714;stroke-linecap:butt;stroke-linejoin:miter;stroke-miterlimit:4;stroke-dasharray:none;stroke-dashoffset:0;stroke-opacity:1;marker:none;enable-background:accumulate"
       id="rect876"
       width="14.764284"
       height="8.4663725"
       x="17.314289"
       y="1007.2183"
       ry="0.94070822" />
    <rect
       transform="scale(1,-1)"
       ry="0.34207579"
       y="-1012.2213"
       x="19.485506"
       height="3.0786812"
       width="2.6054618"
       id="rect878"
       style="color:#000000;display:inline;overflow:visible;visibility:visible;fill:#999999;fill-opacity:1;fill-rule:nonzero;stroke:none;stroke-width:0.81758714;marker:none;enable-background:accumulate" />
    <path
       sodipodi:nodetypes="cccccc"
       inkscape:connector-curvature="0"
       id="path880"
       d="m 25.130674,1007.6032 v 2.3429 h -0.868487 v 3.0788 h 0.868487 v 2.5214"
       style="color:#000000;display:inline;overflow:visible;visibility:visible;fill:none;stroke:#949494;stroke-width:0.81758714;stroke-linecap:butt;stroke-linejoin:miter;stroke-miterlimit:4;stroke-dasharray:none;stroke-dashoffset:0;stroke-opacity:1;marker:none;enable-background:accumulate" />
    <rect
       style="color:#000000;display:inline;overflow:visible;visibility:visible;fill:#999999;fill-opacity:1;fill-rule:nonzero;stroke:none;stroke-width:0.81758714;marker:none;enable-background:accumulate"
       id="rect882"
       width="2.6054618"
       height="3.0786812"
       x="27.301893"
       y="-1012.2213"
       ry="0.34207579"
       transform="scale(1,-1)" />
    <rect
       style="opacity:1;fill:#666666;fill-opacity:1;stroke-width:0;stroke-miterlimit:4;stroke-dasharray:none"
       id="rect860"
       width="24.60714"
       height="34.89172"
       x="12.392861"
       y="1014.976"
       ry="3.5047486" />
    <path
       style="opacity:0.10700001;fill:#ffffff;fill-opacity:1;stroke-width:0;stroke-miterlimit:4;stroke-dasharray:none"
       d="m 16.348267,1014.9762 c -2.190914,0 -3.955406,1.5637 -3.955406,3.5053 v 27.8811 c 0,1.9416 1.764492,3.5053 3.955406,3.5053 h 8.348163 v -34.8917 z"
       id="rect890"
       inkscape:connector-curvature="0" />
    <path
       style="opacity:0.67900002;fill:#333333;fill-opacity:1;stroke-width:0;stroke-miterlimit:4;stroke-dasharray:none"
       d="m 12.392861,1042.8572 v 3.5054 c 0,1.9416 1.764492,3.5053 3.955406,3.5053 h 16.696327 c 2.190914,0 3.955406,-1.5637 3.955406,-3.5053 v -3.5054 c 0,1.9416 -1.764492,3.5054 -3.955406,3.5054 H 16.348267 c -2.190914,0 -3.955406,-1.5638 -3.955406,-3.5054 z"
       id="rect862"
       inkscape:connector-curvature="0" />
    <path
       style="opacity:0.67900002;fill:#333333;fill-opacity:1;stroke-width:0;stroke-miterlimit:4;stroke-dasharray:none"
       d="m 12.392861,1045.2913 v 1.0713 c 0,1.9416 1.764492,3.5053 3.955406,3.5053 h 16.696327 c 2.190914,0 3.955406,-1.5637 3.955406,-3.5053 v -1.0713 c 0,1.9416 -1.764492,3.5054 -3.955406,3.5054 H 16.348267 c -2.190914,0 -3.955406,-1.5638 -3.955406,-3.5054 z"
       id="rect867"
       inkscape:connector-curvature="0" />
    <path
       style="display:inline;fill:#4d4d4d;fill-opacity:1;stroke:none;stroke-width:0.78914112"
       id="path872"
       inkscape:connector-curvature="0"
       d="m 20.575998,1028.1766 c 0,0.4548 0.318191,0.8445 0.769635,1.0194 v 1.1357 c 0,0.406 0.238787,0.7882 0.52593,1.0638 0.0024,0 0.0038,0.011 0.0064,0.011 0,0 0,0.011 0,0.011 0,0 0.01281,0.017 0.01281,0.017 5.1e-5,0 0.01157,0.015 0.0128,0.017 0.0013,0 0.0051,0 0.0064,0 10e-4,0 -0.001,0.01 0,0.01 0.0038,0.011 0.01294,0.011 0.01922,0.011 0.0024,0 0.0038,0 0.0064,0.01 0.0064,0.011 2.128848,1.7131 2.154979,1.7341 0.101841,0.1119 0.175691,0.2658 0.179585,0.4043 v 0.9917 c -0.642991,0.1853 -1.109565,0.7053 -1.109565,1.3131 0,0.7632 0.730069,1.3794 1.629065,1.3794 0.899275,0 1.629074,-0.6162 1.629074,-1.3794 0,-0.608 -0.4662,-1.1279 -1.109563,-1.3131 v -0.9805 c 0,0 -1.29e-4,-0.011 0,-0.011 1.16e-4,0 7.62e-4,0 0,-0.011 v -1.7118 c 0.0038,-0.1386 0.07672,-0.281 0.179582,-0.3933 0.01294,-0.01 0.535024,-0.434 1.071072,-0.8644 0.271337,-0.2177 0.546246,-0.4343 0.750398,-0.5983 0.102083,-0.082 0.183799,-0.1513 0.243719,-0.1994 0.02997,-0.024 0.05431,-0.043 0.07058,-0.056 0.0077,-0.011 0.01499,-0.011 0.01922,-0.011 0.0024,0 0.0038,-0.01 0.0064,-0.01 0.0064,-0.011 0.01525,-0.011 0.01921,-0.011 0.0012,0 -0.0012,-0.01 0,-0.01 0.0012,0 0.0038,0 0.0064,0 0.0024,0 0.01281,-0.022 0.01281,-0.022 0,0 0.01281,-0.01 0.01281,-0.01 0,0 0,-0.011 0,-0.011 0,0 0.0064,-0.01 0.0064,-0.01 0.001,0 -10e-4,-0.011 0,-0.011 0.0024,-0.011 0.0064,-0.011 0.0064,-0.011 0.282787,-0.2749 0.519499,-0.6509 0.519499,-1.0525 v -1.0415 h 0.72474 v -2.2106 h -2.493121 v 2.2106 h 0.729377 c 0,0.2318 0,0.4727 0,1.0581 -0.0038,0.1384 -0.07608,0.2802 -0.179584,0.3932 l -1.706018,1.3741 v -6.1218 h 1.125253 l -1.667284,-2.5927 -1.667721,2.5927 h 1.170739 v 7.8336 l -1.706032,-1.3683 c -0.102219,-0.1123 -0.175792,-0.2657 -0.179583,-0.4044 0,-0.4777 6.3e-5,-0.8495 0,-1.1414 0.462064,-0.1716 0.788888,-0.5636 0.788888,-1.0248 0,-0.6185 -0.585954,-1.1246 -1.30197,-1.1246 -0.715881,0 -1.295429,0.5092 -1.295429,1.1279 z" />
    <path
       d="m 20.575998,1027.4337 c 0,0.4547 0.318191,0.8444 0.769635,1.0193 v 1.1358 c 0,0.4058 0.238787,0.7882 0.52593,1.0636 0.0024,0 0.0038,0.011 0.0064,0.011 0,0 0,0.01 0,0.01 0,0 0.01281,0.017 0.01281,0.017 5.1e-5,10e-5 0.01157,0.015 0.0128,0.017 0.0013,0 0.0051,0 0.0064,0 10e-4,0 -0.001,0.011 0,0.011 0.0038,0.01 0.01294,0.01 0.01922,0.01 0.0024,0 0.0038,0 0.0064,0.011 0.0064,0.011 2.128848,1.713 2.154979,1.7338 0.101841,0.1119 0.175691,0.266 0.179585,0.4045 v 0.9917 c -0.642991,0.1852 -1.109565,0.7052 -1.109565,1.313 0,0.7631 0.730069,1.3795 1.629065,1.3795 0.899275,0 1.629074,-0.6164 1.629074,-1.3795 0,-0.6079 -0.4662,-1.1279 -1.109563,-1.313 v -0.9805 c 0,0 -1.29e-4,-0.011 0,-0.011 1.16e-4,0 7.62e-4,0 0,-0.01 v -1.7119 c 0.0038,-0.1384 0.07672,-0.281 0.179582,-0.3933 0.01294,-0.011 0.535024,-0.434 1.071072,-0.8643 0.271337,-0.2178 0.546246,-0.4345 0.750398,-0.5983 0.102083,-0.082 0.183799,-0.1514 0.243719,-0.1994 0.02997,-0.024 0.05431,-0.043 0.07058,-0.056 0.0077,-0.011 0.01499,-0.011 0.01922,-0.011 0.0024,0 0.0038,-0.011 0.0064,-0.011 0.0064,-0.01 0.01525,-0.01 0.01921,-0.01 0.0012,0 -0.0012,-0.011 0,-0.011 0.0012,0 0.0038,0 0.0064,0 0.0024,0 0.01281,-0.023 0.01281,-0.023 0,0 0.01281,-0.01 0.01281,-0.01 0,0 0,-0.01 0,-0.01 0,0 0.0064,-0.011 0.0064,-0.011 0.001,0 -10e-4,-0.011 0,-0.011 0.0024,-0.01 0.0064,-0.01 0.0064,-0.01 0.282787,-0.2749 0.519499,-0.6508 0.519499,-1.0525 v -1.0415 h 0.72474 v -2.2105 h -2.493121 v 2.2105 h 0.729377 c 0,0.2318 0,0.4727 0,1.0581 -0.0038,0.1384 -0.07608,0.2802 -0.179584,0.3933 l -1.706018,1.374 v -6.1218 h 1.125253 l -1.667284,-2.5926 -1.667721,2.5927 h 1.170739 v 7.8336 l -1.706032,-1.3684 c -0.102219,-0.1123 -0.175792,-0.2657 -0.179583,-0.4043 0,-0.4777 6.3e-5,-0.8496 0,-1.1414 0.462064,-0.1715 0.788888,-0.5636 0.788888,-1.0249 0,-0.6185 -0.585954,-1.1246 -1.30197,-1.1246 -0.715881,0 -1.295429,0.5092 -1.295429,1.1278 z"
       inkscape:connector-curvature="0"
       id="path874"
       style="display:inline;fill:#e6e6e6;fill-opacity:1;stroke:none;stroke-width:0.78914112" />
    <path
       style="opacity:0.22699998;fill:#ffffff;fill-opacity:1;stroke-width:0;stroke-miterlimit:4;stroke-dasharray:none"
       d="m 15.898438,1014.9763 c -1.941631,0 -3.50586,1.5623 -3.50586,3.5039 v 0.9824 c 0,-1.9416 1.564229,-3.5039 3.50586,-3.5039 h 17.597656 c 1.94163,0 3.503906,1.5623 3.503906,3.5039 v -0.9824 c 0,-1.9416 -1.562276,-3.5039 -3.503906,-3.5039 z"
       id="rect897"
       inkscape:connector-curvature="0" />
  </g>
</svg>
