<?xml version="1.0" encoding="UTF-8" standalone="no"?>
<svg
   xmlns:dc="http://purl.org/dc/elements/1.1/"
   xmlns:cc="http://creativecommons.org/ns#"
   xmlns:rdf="http://www.w3.org/1999/02/22-rdf-syntax-ns#"
   xmlns:svg="http://www.w3.org/2000/svg"
   xmlns="http://www.w3.org/2000/svg"
   xmlns:sodipodi="http://sodipodi.sourceforge.net/DTD/sodipodi-0.dtd"
   xmlns:inkscape="http://www.inkscape.org/namespaces/inkscape"
   height="48"
   width="48"
   version="1"
   id="svg10"
   sodipodi:docname="network-wired.svg"
   inkscape:version="0.92.2 5c3e80d, 2017-08-06">
  <metadata
     id="metadata16">
    <rdf:RDF>
      <cc:Work
         rdf:about="">
        <dc:format>image/svg+xml</dc:format>
        <dc:type
           rdf:resource="http://purl.org/dc/dcmitype/StillImage" />
      </cc:Work>
    </rdf:RDF>
  </metadata>
  <defs
     id="defs14" />
  <sodipodi:namedview
     pagecolor="#ffffff"
     bordercolor="#666666"
     borderopacity="1"
     objecttolerance="10"
     gridtolerance="10"
     guidetolerance="10"
     inkscape:pageopacity="0"
     inkscape:pageshadow="2"
     inkscape:window-width="1920"
     inkscape:window-height="1020"
     id="namedview12"
     showgrid="false"
     inkscape:zoom="4.9166667"
     inkscape:cx="31.510152"
     inkscape:cy="29.514813"
     inkscape:window-x="0"
     inkscape:window-y="27"
     inkscape:window-maximized="1"
     inkscape:current-layer="svg10" />
  <rect
     style="opacity:1;fill:#cccccc;fill-opacity:1;stroke:none;stroke-width:0.43863595;stroke-linejoin:round;stroke-miterlimit:4;stroke-dasharray:none;stroke-opacity:1;paint-order:stroke fill markers"
     id="rect860"
     width="39.340939"
     height="39.715614"
     x="4.387136"
     y="3.6989295"
     ry="3.5539041"
     rx="3.5539041" />
  <path
     style="fill:#5d5d5d;fill-opacity:1;stroke-width:0.07177818"
     d="m 10.776323,27.000547 v -9.905389 l 3.032628,-0.001 c 1.782841,-6.13e-4 3.076997,-0.02912 3.140298,-0.06907 0.09006,-0.05686 0.111174,-0.36178 0.129109,-1.863371 l 0.02142,-1.795401 1.162893,-0.0197 1.162898,-0.01971 0.0192,-1.812401 0.01919,-1.8123985 h 4.520796 4.520796 v 1.7442105 c 0,1.260903 0.02387,1.768077 0.08613,1.830343 0.05975,0.05972 0.433856,0.08614 1.220228,0.08614 h 1.134096 v 1.822664 c 0,1.595817 0.01413,1.828086 0.11354,1.866231 0.06244,0.02395 1.48365,0.04359 3.158238,0.04359 h 3.044699 v 9.905347 9.905388 H 35.719251 34.176022 V 34.582 c 0,-1.887113 -0.01864,-2.339438 -0.09894,-2.406114 -0.06877,-0.05707 -0.533858,-0.07618 -1.525287,-0.06263 l -1.426347,0.01949 -0.01897,2.386625 -0.01898,2.386623 h -1.326921 -1.32693 v -2.323992 c 0,-1.887113 -0.01864,-2.33944 -0.09894,-2.406117 -0.06877,-0.05706 -0.533861,-0.07618 -1.525283,-0.06263 l -1.426342,0.01949 -0.01897,2.386626 -0.01898,2.386622 h -1.326928 -1.32692 v -2.324041 c 0,-1.887113 -0.01864,-2.339437 -0.09894,-2.406115 -0.06877,-0.05707 -0.533871,-0.07618 -1.525288,-0.06263 l -1.426348,0.01949 -0.01897,2.386627 -0.01897,2.386622 h -1.326945 -1.32693 v -2.26573 c 0,-1.42456 -0.0276,-2.317276 -0.07431,-2.404568 -0.06966,-0.130156 -0.164024,-0.138838 -1.509125,-0.138838 h -1.434805 l -0.07001,0.18412 c -0.03999,0.105226 -0.07002,1.13555 -0.07002,2.404567 v 2.220449 h -1.507318 -1.507348 z"
     id="path821-2"
     inkscape:connector-curvature="0"
     sodipodi:nodetypes="ccscscccccccscscscscccccscscccccscscccccscscccccscscsscccc" />
  <path
     style="opacity:0.20800003;fill:#000000;fill-opacity:1;stroke-width:0.07177818"
     d="m 13.930306,31.298496 -0.06895,0.185305 c -0.03999,0.105226 -0.07039,1.134202 -0.07039,2.403219 v 0.79868 c 0,-1.269017 0.03039,-2.29943 0.07039,-2.404657 l 0.06895,-0.183869 h 1.435037 c 1.345101,10e-7 1.440085,0.0077 1.509734,0.137902 0.04672,0.08729 0.07326,0.980096 0.07326,2.404657 V 33.84249 c 0,-1.424562 -0.02654,-2.317365 -0.07326,-2.404657 -0.06965,-0.130156 -0.164633,-0.139337 -1.509734,-0.139337 z m 7.1364,0.01724 -1.426418,0.01867 -0.01867,2.387419 -0.01867,2.385982 H 18.27564 16.948338 v 0.798685 h 1.327302 1.327301 l 0.01867,-2.387419 0.01867,-2.385982 1.426418,-0.02011 c 0.991418,-0.01355 1.456768,0.0061 1.525534,0.06321 0.0803,0.06668 0.09912,0.518981 0.09912,2.406093 v -0.798679 c 0,-1.887113 -0.01882,-2.339414 -0.09912,-2.406093 -0.06877,-0.05707 -0.534116,-0.07532 -1.525534,-0.06176 z m 5.74302,0 -1.426418,0.01867 -0.01867,2.387419 -0.02011,2.385982 H 24.018662 22.69136 v 0.798685 h 1.327302 1.325864 l 0.02011,-2.387419 0.01867,-2.385982 1.426418,-0.02011 c 0.991423,-0.01355 1.456768,0.0061 1.525535,0.06321 0.08031,0.06668 0.09768,0.51898 0.09768,2.406093 v -0.798679 c 0,-1.887114 -0.01737,-2.339415 -0.09768,-2.406093 -0.06877,-0.05707 -0.534112,-0.07532 -1.525535,-0.06176 z m 5.741584,0 -1.426418,0.01867 -0.01867,2.387419 -0.01867,2.385982 h -1.327308 -1.327302 v 0.798685 h 1.327302 1.327301 l 0.01867,-2.387419 0.01867,-2.385982 1.426418,-0.02011 c 0.991429,-0.01355 1.456769,0.0061 1.525535,0.06321 0.0803,0.06668 0.09912,0.51898 0.09912,2.406093 v -0.798676 c 0,-1.887114 -0.01882,-2.339416 -0.09912,-2.406093 -0.06877,-0.05707 -0.534106,-0.07532 -1.525535,-0.06177 z m -21.775499,4.792078 v 0.798679 h 1.50686 1.508298 v -0.798679 h -1.508298 z m 23.400151,0 v 0.798679 h 1.542772 1.544209 v -0.798679 h -1.544209 z"
     id="path821-2-8"
     inkscape:connector-curvature="0" />
  <path
     style="opacity:0.203;fill:#000000;fill-opacity:1;stroke-width:0.07177818"
     d="m 19.464337,9.7064325 -0.01974,1.8125845 -0.01974,1.812583 -1.162846,0.01974 -1.162847,0.01974 -0.02125,1.795883 c -0.01794,1.501591 -0.03898,1.805832 -0.129038,1.862681 -0.0633,0.03996 -1.356541,0.06922 -3.139382,0.06982 h -3.033113 v 0.869857 h 3.033118 c 1.782843,-6.11e-4 3.076084,-0.02988 3.139383,-0.06983 0.09006,-0.05686 0.111102,-0.361088 0.129038,-1.86268 l 0.02125,-1.795885 1.162847,-0.01973 1.162846,-0.01974 0.01974,-1.812583 0.01974,-1.812584 h 4.520835 4.520833 V 9.7064375 h -4.520828 z m 9.041667,1.7442705 v 0.869859 c 0,1.260903 0.02276,1.768532 0.08502,1.830799 0.05975,0.05972 0.434161,0.08652 1.220533,0.08652 h 1.134005 v -0.869856 h -1.134008 c -0.786372,0 -1.160785,-0.0268 -1.220533,-0.08652 -0.06227,-0.06227 -0.08502,-0.569897 -0.08502,-1.830801 z m 2.43955,3.739021 v 0.869859 c 0,1.595817 0.01446,1.829089 0.113856,1.867235 0.06244,0.02395 1.484532,0.04251 3.159118,0.04251 h 3.043744 V 17.09947 h -3.043744 c -1.674586,0 -3.096674,-0.01855 -3.159118,-0.04251 C 30.96,17.0188 30.945554,16.785541 30.945554,15.189724 Z"
     id="path821-3"
     inkscape:connector-curvature="0" />
  <path
     style="opacity:0.20899999;fill:#ffffff;fill-opacity:1;stroke:none;stroke-width:0.43863595;stroke-linejoin:round;stroke-miterlimit:4;stroke-dasharray:none;stroke-opacity:1;paint-order:stroke fill markers"
     d="m 7.9416487,3.7051805 c -1.9688625,0 -3.5538353,1.584972 -3.5538353,3.553836 v 1.295706 c 0,-1.968871 1.5849728,-3.553843 3.5538353,-3.553843 H 40.174674 c 1.968863,0 3.553835,1.584972 3.553835,3.553843 v -1.295706 c 0,-1.968864 -1.584972,-3.553836 -3.553835,-3.553836 z"
     id="rect860-3"
     inkscape:connector-curvature="0" />
  <path
     style="opacity:0.19899998;fill:#000000;fill-opacity:1;stroke:none;stroke-width:0.43863595;stroke-linejoin:round;stroke-miterlimit:4;stroke-dasharray:none;stroke-opacity:1;paint-order:stroke fill markers"
     d="m 40.174675,44.69893 c 1.968862,0 3.553834,-1.584972 3.553834,-3.553835 v -1.295706 c 0,1.96887 -1.584972,3.553842 -3.553834,3.553842 H 7.9416495 c -1.9688633,0 -3.5538361,-1.584972 -3.5538361,-3.553842 v 1.295706 c 0,1.968863 1.5849728,3.553835 3.5538361,3.553835 z"
     id="rect860-3-1"
     inkscape:connector-curvature="0" />
</svg>
