<?xml version="1.0" encoding="UTF-8"?>
<svg xmlns="http://www.w3.org/2000/svg" xmlns:xlink="http://www.w3.org/1999/xlink" width="22px" height="22px" viewBox="0 0 22 22" version="1.1">
<g id="surface1">
<path style="fill-rule:nonzero;fill:rgb(94.901961%,94.901961%,94.901961%);fill-opacity:1;stroke-width:0.330112;stroke-linecap:round;stroke-linejoin:round;stroke:rgb(0%,0%,0%);stroke-opacity:1;stroke-miterlimit:4;" d="M 8.90625 3.997159 L 40.5 3.997159 C 42.366477 3.997159 43.883523 5.514205 43.883523 7.380682 L 43.883523 44.173295 C 43.883523 46.039773 42.366477 47.556818 40.5 47.556818 L 8.90625 47.556818 C 7.039773 47.556818 5.522727 46.039773 5.522727 44.173295 L 5.522727 7.380682 C 5.522727 5.514205 7.039773 3.997159 8.90625 3.997159 Z M 8.90625 3.997159 " transform="matrix(0.458333,0,0,0.458333,0,0)"/>
<path style=" stroke:none;fill-rule:evenodd;fill:rgb(100%,100%,100%);fill-opacity:1;" d="M 17.472656 12.605469 L 18.765625 13.898438 L 13.601562 19.0625 L 12.308594 17.773438 Z M 17.472656 12.605469 "/>
<path style=" stroke:none;fill-rule:evenodd;fill:rgb(35.294119%,35.294119%,35.294119%);fill-opacity:1;" d="M 13.761719 18.902344 L 17.957031 14.707031 L 16.667969 13.414062 L 12.46875 17.609375 Z M 13.761719 18.902344 "/>
<path style=" stroke:none;fill-rule:evenodd;fill:rgb(35.294119%,35.294119%,35.294119%);fill-opacity:1;" d="M 12.308594 17.773438 L 11.339844 20.03125 L 12.46875 19.546875 L 13.601562 19.0625 Z M 12.308594 17.773438 "/>
<path style=" stroke:none;fill-rule:evenodd;fill:rgb(35.294119%,35.294119%,35.294119%);fill-opacity:1;" d="M 18.925781 12.121094 L 19.25 12.445312 C 19.519531 12.714844 19.5625 13.101562 19.25 13.414062 L 18.605469 14.058594 L 17.3125 12.769531 L 17.957031 12.121094 C 18.269531 11.808594 18.660156 11.855469 18.925781 12.121094 Z M 18.925781 12.121094 "/>
<path style=" stroke:none;fill-rule:evenodd;fill:rgb(100%,100%,100%);fill-opacity:1;" d="M 16.667969 14.382812 C 16.757812 14.472656 16.757812 14.617188 16.667969 14.707031 L 13.761719 17.609375 C 13.671875 17.699219 13.527344 17.699219 13.4375 17.609375 C 13.347656 17.523438 13.347656 17.378906 13.4375 17.289062 L 16.34375 14.382812 C 16.433594 14.292969 16.578125 14.292969 16.667969 14.382812 Z M 16.667969 14.382812 "/>
<path style=" stroke:none;fill-rule:evenodd;fill:rgb(35.294119%,35.294119%,35.294119%);fill-opacity:1;" d="M 16.988281 13.089844 C 17.078125 13.003906 17.222656 13.003906 17.3125 13.089844 L 18.28125 14.058594 C 18.371094 14.148438 18.371094 14.292969 18.28125 14.382812 C 18.191406 14.472656 18.046875 14.472656 17.957031 14.382812 L 16.988281 13.414062 C 16.902344 13.324219 16.902344 13.179688 16.988281 13.089844 Z M 16.988281 13.089844 "/>
<path style=" stroke:none;fill-rule:nonzero;fill:rgb(50.196081%,50.196081%,50.196081%);fill-opacity:1;" d="M 6.546875 6.703125 L 16.296875 6.703125 L 16.296875 7.550781 L 6.546875 7.550781 Z M 6.546875 6.703125 "/>
<path style=" stroke:none;fill-rule:nonzero;fill:rgb(50.196081%,50.196081%,50.196081%);fill-opacity:1;" d="M 6.546875 8.398438 L 16.296875 8.398438 L 16.296875 9.246094 L 6.546875 9.246094 Z M 6.546875 8.398438 "/>
<path style=" stroke:none;fill-rule:nonzero;fill:rgb(50.196081%,50.196081%,50.196081%);fill-opacity:1;" d="M 6.546875 10.09375 L 16.296875 10.09375 L 16.296875 10.941406 L 6.546875 10.941406 Z M 6.546875 10.09375 "/>
<path style=" stroke:none;fill-rule:nonzero;fill:rgb(50.196081%,50.196081%,50.196081%);fill-opacity:1;" d="M 6.546875 11.789062 L 16.296875 11.789062 L 16.296875 12.636719 L 6.546875 12.636719 Z M 6.546875 11.789062 "/>
<path style=" stroke:none;fill-rule:nonzero;fill:rgb(50.196081%,50.196081%,50.196081%);fill-opacity:1;" d="M 6.546875 13.484375 L 14.757812 13.484375 L 14.757812 14.332031 L 6.546875 14.332031 Z M 6.546875 13.484375 "/>
<path style=" stroke:none;fill-rule:nonzero;fill:rgb(50.196081%,50.196081%,50.196081%);fill-opacity:1;" d="M 6.546875 15.179688 L 11.167969 15.179688 L 11.167969 16.027344 L 6.546875 16.027344 Z M 6.546875 15.179688 "/>
<path style=" stroke:none;fill-rule:nonzero;fill:rgb(35.294119%,35.294119%,35.294119%);fill-opacity:1;" d="M 5.894531 4.179688 C 5.402344 4.179688 5 3.78125 5 3.289062 C 5 2.796875 5.402344 2.398438 5.894531 2.398438 C 6.386719 2.398438 6.785156 2.796875 6.785156 3.289062 C 6.785156 3.78125 6.386719 4.179688 5.894531 4.179688 Z M 5.894531 4.179688 "/>
<path style="fill-rule:nonzero;fill:rgb(60.000002%,60.000002%,60.000002%);fill-opacity:1;stroke-width:0.258711;stroke-linecap:butt;stroke-linejoin:miter;stroke:rgb(0%,0%,0%);stroke-opacity:1;stroke-miterlimit:4;" d="M -21.47492 -5.26195 L -15.930178 -5.26195 C -15.419478 -5.26195 -15.006054 -4.848526 -15.006054 -4.337826 C -15.006054 -3.827127 -15.419478 -3.413703 -15.930178 -3.413703 L -21.47492 -3.413703 C -21.98562 -3.413703 -22.399044 -3.827127 -22.399044 -4.337826 C -22.399044 -4.848526 -21.98562 -5.26195 -21.47492 -5.26195 Z M -21.47492 -5.26195 " transform="matrix(0,0.481875,-0.481875,0,3.804239,10.965424)"/>
<path style=" stroke:none;fill-rule:nonzero;fill:rgb(35.294119%,35.294119%,35.294119%);fill-opacity:1;" d="M 9.285156 4.179688 C 8.792969 4.179688 8.394531 3.78125 8.394531 3.289062 C 8.394531 2.796875 8.792969 2.398438 9.285156 2.398438 C 9.777344 2.398438 10.175781 2.796875 10.175781 3.289062 C 10.175781 3.78125 9.777344 4.179688 9.285156 4.179688 Z M 9.285156 4.179688 "/>
<path style="fill-rule:nonzero;fill:rgb(60.000002%,60.000002%,60.000002%);fill-opacity:1;stroke-width:0.258711;stroke-linecap:butt;stroke-linejoin:miter;stroke:rgb(0%,0%,0%);stroke-opacity:1;stroke-miterlimit:4;" d="M -21.47492 -12.298261 L -15.930178 -12.298261 C -15.419478 -12.298261 -15.006054 -11.884837 -15.006054 -11.374137 C -15.006054 -10.863437 -15.419478 -10.450013 -15.930178 -10.450013 L -21.47492 -10.450013 C -21.98562 -10.450013 -22.399044 -10.863437 -22.399044 -11.374137 C -22.399044 -11.884837 -21.98562 -12.298261 -21.47492 -12.298261 Z M -21.47492 -12.298261 " transform="matrix(0,0.481875,-0.481875,0,3.804239,10.965424)"/>
<path style=" stroke:none;fill-rule:nonzero;fill:rgb(35.294119%,35.294119%,35.294119%);fill-opacity:1;" d="M 12.675781 4.179688 C 12.183594 4.179688 11.785156 3.78125 11.785156 3.289062 C 11.785156 2.796875 12.183594 2.398438 12.675781 2.398438 C 13.167969 2.398438 13.566406 2.796875 13.566406 3.289062 C 13.566406 3.78125 13.167969 4.179688 12.675781 4.179688 Z M 12.675781 4.179688 "/>
<path style="fill-rule:nonzero;fill:rgb(60.000002%,60.000002%,60.000002%);fill-opacity:1;stroke-width:0.258711;stroke-linecap:butt;stroke-linejoin:miter;stroke:rgb(0%,0%,0%);stroke-opacity:1;stroke-miterlimit:4;" d="M -21.47492 -19.334571 L -15.930178 -19.334571 C -15.419478 -19.334571 -15.006054 -18.921147 -15.006054 -18.410447 C -15.006054 -17.899747 -15.419478 -17.486324 -15.930178 -17.486324 L -21.47492 -17.486324 C -21.98562 -17.486324 -22.399044 -17.899747 -22.399044 -18.410447 C -22.399044 -18.921147 -21.98562 -19.334571 -21.47492 -19.334571 Z M -21.47492 -19.334571 " transform="matrix(0,0.481875,-0.481875,0,3.804239,10.965424)"/>
<path style=" stroke:none;fill-rule:nonzero;fill:rgb(35.294119%,35.294119%,35.294119%);fill-opacity:1;" d="M 16.066406 4.179688 C 15.574219 4.179688 15.175781 3.78125 15.175781 3.289062 C 15.175781 2.796875 15.574219 2.398438 16.066406 2.398438 C 16.558594 2.398438 16.957031 2.796875 16.957031 3.289062 C 16.957031 3.78125 16.558594 4.179688 16.066406 4.179688 Z M 16.066406 4.179688 "/>
<path style="fill-rule:nonzero;fill:rgb(60.000002%,60.000002%,60.000002%);fill-opacity:1;stroke-width:0.258711;stroke-linecap:butt;stroke-linejoin:miter;stroke:rgb(0%,0%,0%);stroke-opacity:1;stroke-miterlimit:4;" d="M -21.47492 -26.370881 L -15.930178 -26.370881 C -15.419478 -26.370881 -15.006054 -25.957458 -15.006054 -25.446758 C -15.006054 -24.936058 -15.419478 -24.522634 -15.930178 -24.522634 L -21.47492 -24.522634 C -21.98562 -24.522634 -22.399044 -24.936058 -22.399044 -25.446758 C -22.399044 -25.957458 -21.98562 -26.370881 -21.47492 -26.370881 Z M -21.47492 -26.370881 " transform="matrix(0,0.481875,-0.481875,0,3.804239,10.965424)"/>
</g>
</svg>
