<?xml version="1.0" encoding="UTF-8"?>
<svg xmlns="http://www.w3.org/2000/svg" xmlns:xlink="http://www.w3.org/1999/xlink" width="22px" height="22px" viewBox="0 0 22 22" version="1.1">
<g id="surface1">
<path style=" stroke:none;fill-rule:nonzero;fill:rgb(16.470589%,36.078432%,61.56863%);fill-opacity:1;" d="M 3.292969 0.234375 L 18.949219 0.234375 C 19.875 0.234375 20.625 0.984375 20.625 1.910156 L 20.625 20.144531 C 20.625 21.070312 19.875 21.820312 18.949219 21.820312 L 3.292969 21.820312 C 2.367188 21.820312 1.617188 21.070312 1.617188 20.144531 L 1.617188 1.910156 C 1.617188 0.984375 2.367188 0.234375 3.292969 0.234375 Z M 3.292969 0.234375 "/>
<path style=" stroke:none;fill-rule:nonzero;fill:rgb(100%,100%,100%);fill-opacity:1;" d="M 14.84375 6.105469 L 14.839844 6.109375 C 14.480469 6.109375 13.785156 6.933594 13.523438 7.0625 C 13.261719 7.191406 11.191406 8.667969 10.996094 8.929688 C 10.800781 9.191406 10.539062 9.296875 10.253906 9.277344 C 9.972656 9.253906 9.074219 9.246094 8.769531 9.417969 C 8.464844 9.59375 7.074219 11.011719 6.726562 11.1875 C 6.375 11.359375 5.921875 11.449219 5.703125 11.46875 C 5.484375 11.492188 4.761719 12.292969 4.566406 12.445312 C 4.371094 12.597656 2.820312 13.265625 2.605469 13.394531 C 2.386719 13.523438 4.191406 15.347656 4.453125 15.390625 C 4.671875 15.429688 4.066406 15.828125 3.851562 16.199219 C 3.851562 16.199219 3.824219 16.199219 3.824219 16.199219 L 2.078125 18.125 L 2.078125 19.617188 C 2.078125 20.546875 2.824219 21.292969 3.753906 21.292969 L 12.570312 21.292969 L 12.648438 19.53125 C 12.660156 19.527344 12.667969 19.523438 12.679688 19.523438 C 12.757812 19.105469 12.714844 18.441406 12.761719 18.023438 C 12.804688 17.632812 12.957031 14.355469 13.523438 13.484375 C 14.089844 12.617188 15.710938 11.578125 16.277344 11.46875 C 16.84375 11.359375 16.734375 11.140625 16.734375 10.945312 C 16.734375 10.75 16.648438 10.316406 16.496094 10.253906 C 16.339844 10.1875 15.746094 10.578125 15.550781 10.621094 C 15.355469 10.664062 14.417969 10.730469 14.285156 10.515625 C 14.15625 10.296875 15.34375 8.082031 15.496094 7.824219 C 15.648438 7.5625 15.714844 7.214844 15.429688 6.84375 C 15.148438 6.476562 14.953125 6.105469 14.84375 6.105469 Z M 14.84375 6.105469 "/>
<path style=" stroke:none;fill-rule:nonzero;fill:rgb(16.470589%,36.078432%,61.56863%);fill-opacity:1;" d="M 9.933594 10.75 C 9.933594 10.75 9.085938 10.621094 8.59375 11.09375 C 8.105469 11.566406 7.679688 12.605469 7.714844 12.921875 C 7.746094 13.238281 8.726562 11.851562 9.148438 11.757812 C 9.574219 11.660156 10.03125 10.96875 9.933594 10.75 Z M 9.933594 10.75 "/>
</g>
</svg>
