<?xml version="1.0" encoding="UTF-8"?>
<svg xmlns="http://www.w3.org/2000/svg" xmlns:xlink="http://www.w3.org/1999/xlink" width="22px" height="22px" viewBox="0 0 22 22" version="1.1">
<g id="surface1">
<path style=" stroke:none;fill-rule:nonzero;fill:rgb(40.000001%,40.000001%,40.000001%);fill-opacity:1;" d="M 8.328125 10.992188 C 8.328125 9.488281 9.550781 8.269531 11.050781 8.269531 L 14.679688 8.269531 L 14.679688 1.007812 C 14.679688 0.507812 14.273438 0.101562 13.773438 0.101562 L 1.066406 0.101562 C 0.566406 0.101562 0.160156 0.507812 0.160156 1.007812 L 0.160156 20.972656 C 0.160156 21.472656 0.566406 21.882812 1.066406 21.882812 L 13.773438 21.882812 C 14.273438 21.882812 14.679688 21.472656 14.679688 20.972656 L 14.679688 13.714844 L 11.050781 13.714844 C 9.550781 13.714844 8.328125 12.492188 8.328125 10.992188 Z M 8.328125 10.992188 "/>
<path style=" stroke:none;fill-rule:nonzero;fill:rgb(40.000001%,40.000001%,40.000001%);fill-opacity:1;" d="M 21.734375 11.566406 C 21.738281 11.5625 21.738281 11.558594 21.742188 11.554688 C 21.761719 11.535156 21.773438 11.515625 21.789062 11.492188 C 21.792969 11.484375 21.800781 11.472656 21.804688 11.464844 C 21.8125 11.449219 21.824219 11.433594 21.832031 11.417969 C 21.839844 11.40625 21.847656 11.394531 21.851562 11.378906 C 21.855469 11.367188 21.863281 11.351562 21.871094 11.339844 C 21.875 11.320312 21.882812 11.308594 21.886719 11.292969 C 21.890625 11.28125 21.894531 11.269531 21.898438 11.253906 C 21.90625 11.234375 21.910156 11.21875 21.914062 11.199219 C 21.917969 11.191406 21.917969 11.183594 21.921875 11.171875 C 21.925781 11.148438 21.929688 11.121094 21.933594 11.097656 C 21.933594 11.09375 21.9375 11.085938 21.9375 11.082031 C 21.9375 11.023438 21.9375 10.960938 21.9375 10.898438 C 21.9375 10.894531 21.933594 10.890625 21.933594 10.886719 C 21.929688 10.859375 21.925781 10.835938 21.921875 10.8125 C 21.917969 10.804688 21.917969 10.792969 21.914062 10.78125 C 21.910156 10.765625 21.90625 10.746094 21.898438 10.726562 C 21.894531 10.714844 21.890625 10.703125 21.886719 10.6875 C 21.882812 10.675781 21.875 10.660156 21.871094 10.644531 C 21.863281 10.632812 21.855469 10.617188 21.851562 10.601562 C 21.847656 10.59375 21.839844 10.578125 21.832031 10.5625 C 21.824219 10.546875 21.8125 10.535156 21.804688 10.519531 C 21.800781 10.507812 21.792969 10.5 21.789062 10.488281 C 21.773438 10.464844 21.761719 10.449219 21.742188 10.425781 C 21.738281 10.421875 21.738281 10.421875 21.734375 10.417969 C 21.714844 10.390625 21.691406 10.371094 21.671875 10.34375 L 18.042969 6.722656 C 17.6875 6.367188 17.117188 6.367188 16.761719 6.722656 C 16.40625 7.074219 16.40625 7.648438 16.761719 8.003906 L 18.84375 10.082031 L 11.050781 10.082031 C 10.546875 10.082031 10.140625 10.492188 10.140625 10.992188 C 10.140625 11.492188 10.546875 11.898438 11.050781 11.898438 L 18.84375 11.898438 L 16.761719 13.980469 C 16.40625 14.332031 16.40625 14.90625 16.761719 15.261719 C 16.9375 15.441406 17.167969 15.53125 17.402344 15.53125 C 17.636719 15.53125 17.867188 15.441406 18.042969 15.261719 L 21.671875 11.636719 C 21.691406 11.613281 21.714844 11.589844 21.734375 11.566406 Z M 21.734375 11.566406 "/>
</g>
</svg>
