<?xml version="1.0" encoding="UTF-8"?>
<svg xmlns="http://www.w3.org/2000/svg" xmlns:xlink="http://www.w3.org/1999/xlink" width="22px" height="22px" viewBox="0 0 22 22" version="1.1">
<g id="surface1">
<path style=" stroke:none;fill-rule:nonzero;fill:rgb(23.921569%,69.803923%,61.56863%);fill-opacity:1;" d="M 3.292969 0.234375 L 18.949219 0.234375 C 19.875 0.234375 20.625 0.984375 20.625 1.910156 L 20.625 20.144531 C 20.625 21.070312 19.875 21.820312 18.949219 21.820312 L 3.292969 21.820312 C 2.367188 21.820312 1.617188 21.070312 1.617188 20.144531 L 1.617188 1.910156 C 1.617188 0.984375 2.367188 0.234375 3.292969 0.234375 Z M 3.292969 0.234375 "/>
<path style=" stroke:none;fill-rule:nonzero;fill:rgb(94.901961%,94.901961%,94.901961%);fill-opacity:1;" d="M 4.894531 2.445312 C 4.15625 2.445312 3.5625 3.039062 3.5625 3.777344 L 3.5625 18.277344 C 3.5625 19.015625 4.15625 19.609375 4.894531 19.609375 L 17.347656 19.609375 C 18.085938 19.609375 18.679688 19.015625 18.679688 18.277344 L 18.679688 10.582031 L 10.542969 2.445312 Z M 13.671875 2.445312 L 18.679688 7.453125 L 18.679688 3.777344 C 18.679688 3.039062 18.085938 2.445312 17.347656 2.445312 Z M 13.671875 2.445312 "/>
</g>
</svg>
