<?xml version="1.0" encoding="UTF-8"?>
<svg xmlns="http://www.w3.org/2000/svg" xmlns:xlink="http://www.w3.org/1999/xlink" width="22px" height="22px" viewBox="0 0 22 22" version="1.1">
<g id="surface1">
<path style=" stroke:none;fill-rule:nonzero;fill:rgb(61.960787%,23.921569%,38.82353%);fill-opacity:1;" d="M 3.292969 0.234375 L 18.949219 0.234375 C 19.875 0.234375 20.625 0.984375 20.625 1.910156 L 20.625 20.144531 C 20.625 21.070312 19.875 21.820312 18.949219 21.820312 L 3.292969 21.820312 C 2.367188 21.820312 1.617188 21.070312 1.617188 20.144531 L 1.617188 1.910156 C 1.617188 0.984375 2.367188 0.234375 3.292969 0.234375 Z M 3.292969 0.234375 "/>
<path style=" stroke:none;fill-rule:nonzero;fill:rgb(94.901961%,94.901961%,94.901961%);fill-opacity:1;" d="M 4.894531 2.445312 C 4.15625 2.445312 3.5625 3.039062 3.5625 3.777344 L 3.5625 18.277344 C 3.5625 19.015625 4.15625 19.609375 4.894531 19.609375 L 17.347656 19.609375 C 18.085938 19.609375 18.679688 19.015625 18.679688 18.277344 L 18.679688 10.582031 L 10.542969 2.445312 Z M 13.671875 2.445312 L 18.679688 7.453125 L 18.679688 3.777344 C 18.679688 3.039062 18.085938 2.445312 17.347656 2.445312 Z M 13.671875 2.445312 "/>
<path style=" stroke:none;fill-rule:nonzero;fill:rgb(47.843137%,47.843137%,47.843137%);fill-opacity:1;" d="M 7.1875 10.550781 L 7.1875 10.675781 C 7.1875 10.632812 7.191406 10.589844 7.195312 10.550781 Z M 7.1875 10.675781 L 7.1875 12.375 L 7.207031 12.375 C 7.375 13.40625 8.9375 14.207031 10.851562 14.207031 C 12.765625 14.207031 14.328125 13.40625 14.496094 12.375 L 14.519531 12.375 L 14.519531 10.675781 C 14.519531 11.792969 12.878906 12.699219 10.851562 12.699219 C 8.828125 12.699219 7.1875 11.792969 7.1875 10.675781 Z M 14.519531 10.675781 L 14.519531 10.550781 L 14.507812 10.550781 C 14.511719 10.589844 14.519531 10.632812 14.519531 10.675781 Z M 14.519531 10.675781 "/>
<path style=" stroke:none;fill-rule:nonzero;fill:rgb(47.843137%,47.843137%,47.843137%);fill-opacity:1;" d="M 14.519531 10.269531 C 14.519531 11.386719 12.878906 12.292969 10.851562 12.292969 C 8.828125 12.292969 7.1875 11.386719 7.1875 10.269531 C 7.1875 9.152344 8.828125 8.25 10.851562 8.25 C 12.878906 8.25 14.519531 9.152344 14.519531 10.269531 Z M 14.519531 10.269531 "/>
<path style=" stroke:none;fill-rule:nonzero;fill:rgb(47.843137%,47.843137%,47.843137%);fill-opacity:1;" d="M 7.1875 12.515625 L 7.1875 12.644531 C 7.1875 12.601562 7.191406 12.558594 7.195312 12.515625 Z M 7.1875 12.644531 L 7.1875 14.34375 L 7.207031 14.34375 C 7.375 15.371094 8.9375 16.175781 10.851562 16.175781 C 12.765625 16.175781 14.328125 15.371094 14.496094 14.34375 L 14.519531 14.34375 L 14.519531 12.644531 C 14.519531 13.761719 12.878906 14.664062 10.851562 14.664062 C 8.828125 14.664062 7.1875 13.761719 7.1875 12.644531 Z M 14.519531 12.644531 L 14.519531 12.515625 L 14.507812 12.515625 C 14.511719 12.558594 14.519531 12.601562 14.519531 12.644531 Z M 14.519531 12.644531 "/>
</g>
</svg>
