<?xml version="1.0" encoding="UTF-8"?>
<svg xmlns="http://www.w3.org/2000/svg" xmlns:xlink="http://www.w3.org/1999/xlink" width="22px" height="22px" viewBox="0 0 22 22" version="1.1">
<g id="surface1">
<path style="fill-rule:nonzero;fill:rgb(81.176472%,70.588237%,54.509807%);fill-opacity:1;stroke-width:0.45;stroke-linecap:round;stroke-linejoin:round;stroke:rgb(40.000001%,25.882354%,5.098039%);stroke-opacity:1;stroke-miterlimit:4;" d="M 279.014205 901.163288 L 312.508523 901.163288 C 314.485795 901.163288 316.096591 902.765561 316.096591 904.751357 L 316.096591 943.751357 C 316.096591 945.737152 314.485795 947.339425 312.508523 947.339425 L 279.014205 947.339425 C 277.036932 947.339425 275.426136 945.737152 275.426136 943.751357 L 275.426136 904.751357 C 275.426136 902.765561 277.036932 901.163288 279.014205 901.163288 Z M 279.014205 901.163288 " transform="matrix(0.458333,0,0,0.458333,-124.666667,-412.665986)"/>
<path style=" stroke:none;fill-rule:nonzero;fill:rgb(32.549021%,40.392157%,42.352942%);fill-opacity:1;" d="M 7.488281 9.8125 C 6.722656 9.8125 6.09375 10.445312 6.09375 11.207031 C 6.09375 11.972656 6.722656 12.601562 7.488281 12.601562 L 14.140625 12.601562 C 14.90625 12.601562 15.535156 11.972656 15.535156 11.207031 C 15.535156 10.445312 14.90625 9.8125 14.140625 9.8125 Z M 7.488281 9.8125 "/>
<path style=" stroke:none;fill-rule:nonzero;fill:rgb(100%,100%,100%);fill-opacity:1;" d="M 7.488281 10.257812 L 14.140625 10.257812 C 14.667969 10.257812 15.09375 10.683594 15.09375 11.207031 C 15.09375 11.734375 14.667969 12.160156 14.140625 12.160156 L 7.488281 12.160156 C 6.964844 12.160156 6.539062 11.734375 6.539062 11.207031 C 6.539062 10.683594 6.964844 10.257812 7.488281 10.257812 Z M 7.488281 10.257812 "/>
<path style=" stroke:none;fill-rule:nonzero;fill:rgb(100%,33.333334%,33.333334%);fill-opacity:1;" d="M 7.488281 10.734375 C 7.21875 10.734375 7.011719 10.941406 7.011719 11.207031 C 7.011719 11.476562 7.21875 11.683594 7.488281 11.683594 L 11.765625 11.683594 C 12.035156 11.683594 12.242188 11.476562 12.242188 11.207031 C 12.242188 10.941406 12.035156 10.734375 11.765625 10.734375 Z M 7.488281 10.734375 "/>
<path style="fill-rule:nonzero;fill:rgb(47.058824%,26.666668%,12.941177%);fill-opacity:1;stroke-width:0.766;stroke-linecap:round;stroke-linejoin:round;stroke:rgb(47.058824%,26.666668%,12.941177%);stroke-opacity:1;stroke-miterlimit:4;" d="M 295.4375 911.177493 C 290.630682 911.177493 286.105114 913.401925 283.164773 917.203061 L 285.372159 917.203061 C 287.980114 914.424652 291.619318 912.847948 295.4375 912.847948 C 299.178977 912.847948 302.758523 914.364993 305.366477 917.058175 L 304.258523 917.808175 L 308.639205 920.245675 L 307.923295 915.336584 L 306.755682 916.120675 C 303.832386 912.975788 299.732955 911.186016 295.4375 911.177493 Z M 295.4375 911.177493 " transform="matrix(0.458333,0,0,0.458333,-124.666667,-412.665986)"/>
<path style="fill-rule:nonzero;fill:rgb(47.058824%,26.666668%,12.941177%);fill-opacity:1;stroke-width:0.765883;stroke-linecap:round;stroke-linejoin:round;stroke:rgb(47.058824%,26.666668%,12.941177%);stroke-opacity:1;stroke-miterlimit:4;" d="M 296.076705 938.203061 C 300.883523 938.203061 305.409091 935.970107 308.349432 932.177493 L 306.142045 932.177493 C 303.534091 934.947379 299.894886 936.524084 296.076705 936.532607 C 292.335227 936.532607 288.755682 935.007038 286.147727 932.322379 L 287.255682 931.572379 L 282.875 929.134879 L 283.590909 934.04397 L 284.758523 933.259879 C 287.681818 936.404766 291.78125 938.194538 296.076705 938.203061 Z M 296.076705 938.203061 " transform="matrix(0.458333,0,0,0.458333,-124.666667,-412.665986)"/>
</g>
</svg>
