<?xml version="1.0" encoding="UTF-8" standalone="no"?>
<svg
   xmlns:dc="http://purl.org/dc/elements/1.1/"
   xmlns:cc="http://creativecommons.org/ns#"
   xmlns:rdf="http://www.w3.org/1999/02/22-rdf-syntax-ns#"
   xmlns:svg="http://www.w3.org/2000/svg"
   xmlns="http://www.w3.org/2000/svg"
   xmlns:sodipodi="http://sodipodi.sourceforge.net/DTD/sodipodi-0.dtd"
   xmlns:inkscape="http://www.inkscape.org/namespaces/inkscape"
   height="32"
   width="32"
   version="1"
   id="svg20"
   sodipodi:docname="accessories-camera.svg"
   inkscape:version="0.92.2 5c3e80d, 2017-08-06">
  <metadata
     id="metadata26">
    <rdf:RDF>
      <cc:Work
         rdf:about="">
        <dc:format>image/svg+xml</dc:format>
        <dc:type
           rdf:resource="http://purl.org/dc/dcmitype/StillImage" />
        <dc:title></dc:title>
      </cc:Work>
    </rdf:RDF>
  </metadata>
  <defs
     id="defs24" />
  <sodipodi:namedview
     pagecolor="#ffffff"
     bordercolor="#666666"
     borderopacity="1"
     objecttolerance="10"
     gridtolerance="10"
     guidetolerance="10"
     inkscape:pageopacity="0"
     inkscape:pageshadow="2"
     inkscape:window-width="1920"
     inkscape:window-height="1029"
     id="namedview22"
     showgrid="false"
     inkscape:zoom="7.375"
     inkscape:cx="61.57868"
     inkscape:cy="15.042913"
     inkscape:window-x="0"
     inkscape:window-y="27"
     inkscape:window-maximized="1"
     inkscape:current-layer="svg20" />
  <path
     style="fill:#999999;fill-opacity:1;stroke-width:0.06353673"
     d="M 5.6832061,30.681558 C 4.8320418,30.533351 4.2233076,29.935849 4.2254394,29.250702 c 0.00265,-0.832945 0.9811667,-2.268276 2.1746567,-3.189728 0.405601,-0.313149 1.325081,-0.870944 1.754816,-1.064543 l 0.276102,-0.124391 0.421007,0.239673 c 1.6152539,0.919533 3.3400029,1.527445 5.0970669,1.796533 0.986279,0.151049 2.873452,0.151187 3.869626,2.55e-4 1.811874,-0.27446 3.523239,-0.8607 4.930498,-1.688962 0.300083,-0.176592 0.58511,-0.321103 0.633386,-0.321103 0.13977,0 1.140409,0.543288 1.669628,0.906515 0.613522,0.421091 1.40659,1.172867 1.761079,1.669395 0.348295,0.487852 0.709687,1.239421 0.761219,1.583065 0.138269,0.922052 -0.711829,1.652288 -1.906957,1.638072 -0.573826,-0.0069 -1.421236,-0.230383 -3.934801,-1.038029 -3.323311,-1.067829 -4.088443,-1.229462 -5.820151,-1.229462 -1.73221,0 -2.499518,0.162136 -5.831413,1.232225 -2.9440359,0.945522 -3.7536639,1.133536 -4.3979959,1.021341 z"
     id="path817-7"
     inkscape:connector-curvature="0"
     sodipodi:nodetypes="ccsccssccsscccsssc" />
  <path
     inkscape:connector-curvature="0"
     style="opacity:0.2;stroke-width:0.42978162"
     d="m 3.9043581,13.048678 c -0.0053,0.143543 -0.021847,0.284508 -0.021847,0.429769 0,6.666583 5.366957,12.033544 12.0335409,12.033544 6.666585,0 12.033541,-5.366961 12.033541,-12.033544 0,-0.145124 -0.01675,-0.285917 -0.02185,-0.429769 -0.226915,6.464591 -5.490733,11.603775 -12.012055,11.603775 -6.5214909,0 -11.7851334,-5.139184 -12.0120485,-11.603775 z"
     id="path2-7" />
  <path
     inkscape:connector-curvature="0"
     style="fill:#999999;stroke-width:0.42978162"
     d="m 15.916068,1.0151481 c -6.6665849,0 -12.0335413,5.3669594 -12.0335413,12.0335419 0,6.666583 5.3669564,12.033545 12.0335413,12.033545 6.666584,0 12.033541,-5.366962 12.033541,-12.033545 0,-6.6665825 -5.366957,-12.0335419 -12.033541,-12.0335419 z"
     id="path4-5" />
  <path
     inkscape:connector-curvature="0"
     style="opacity:0.1;fill:#ffffff;stroke-width:0.42978162"
     d="m 15.916413,1.0152754 c -6.6665849,0 -12.0338863,5.3664641 -12.0338863,12.0330466 0,0.0488 0.00478,0.09629 0.00758,0.14438 C 4.0411925,6.6594522 9.3455811,1.4442177 15.916441,1.4442177 c 6.57086,0 11.875249,5.2152345 12.02633,11.7484843 0.0027,-0.04806 0.0076,-0.09562 0.0076,-0.14438 0,-6.6665825 -5.3673,-12.0330466 -12.033886,-12.0330466 z"
     id="path6-9" />
  <path
     inkscape:connector-curvature="0"
     style="opacity:0.2;stroke-width:0.42978162"
     d="M 9.6251081,13.622003 A 6.3032551,6.256496 0 0 1 9.6128061,13.288502 6.3032551,6.256496 0 0 1 15.916057,7.0319186 6.3032551,6.256496 0 0 1 22.219054,13.288502 6.3032551,6.256496 0 0 1 22.20702,13.524016 6.3032551,6.256496 0 0 0 15.916054,7.6006757 6.3032551,6.256496 0 0 0 9.6250951,13.622003 Z"
     id="path8-2" />
  <circle
     style="fill:#3f3f3f;stroke-width:0.42978162"
     cy="13.480159"
     cx="15.915982"
     id="circle10-2"
     r="7.73564" />
  <circle
     style="opacity:1;fill:#e6e6e6;stroke-width:0.42978162"
     transform="scale(1,-1)"
     cy="-13.478532"
     cx="15.915982"
     id="circle12-8"
     r="6.0169425" />
  <circle
     style="opacity:0.2;stroke-width:0.42978162"
     cy="13.478532"
     cx="15.915982"
     id="circle16-7"
     r="3.4382529" />
  <circle
     style="fill:#333333;stroke-width:0.42978162"
     cy="13.048748"
     cx="15.915982"
     id="circle18-3"
     r="3.4382529" />
  <circle
     style="fill:#ffffff;stroke-width:0.11160337"
     transform="scale(1,-1)"
     cy="-11.070814"
     cx="13.278737"
     id="circle14-9"
     r="1.562447" />
  <circle
     style="fill:#008ce8;fill-opacity:1;stroke-width:0.17118421"
     cy="13.048748"
     cx="15.915982"
     id="circle18-3-9"
     r="1.3694737" />
  <path
     inkscape:connector-curvature="0"
     style="opacity:0.2;fill:#000000;fill-opacity:1;stroke-width:0.06353673"
     d="m 15.913011,28.428014 c -1.732211,0 -2.500089,0.162386 -5.831985,1.232473 -2.9440359,0.945522 -3.7532179,1.133389 -4.3975499,1.021194 -0.7791972,-0.135676 -1.3494097,-0.649156 -1.4396119,-1.260438 -0.00486,0.04426 -0.018511,0.09323 -0.018642,0.13464 -0.00213,0.685146 0.6070898,1.282085 1.4582539,1.430291 0.644332,0.112196 1.453514,-0.07568 4.3975509,-1.021193 3.331896,-1.070089 4.099774,-1.231438 5.831985,-1.231438 1.731706,0 2.496245,0.161537 5.819555,1.229367 2.513565,0.807645 3.36077,1.030923 3.934595,1.037763 1.172073,0.01394 2.007222,-0.689874 1.908782,-1.58668 -0.09868,0.746266 -0.873004,1.293473 -1.908782,1.281152 -0.573825,-0.0069 -1.42103,-0.230119 -3.934595,-1.037764 -3.32331,-1.06783 -4.087849,-1.229367 -5.819556,-1.229367 z"
     id="path817-7-6" />
</svg>
