<?xml version="1.0" encoding="UTF-8" standalone="no"?>
<!-- Created with Inkscape (http://www.inkscape.org/) -->

<svg
   xmlns:dc="http://purl.org/dc/elements/1.1/"
   xmlns:cc="http://creativecommons.org/ns#"
   xmlns:rdf="http://www.w3.org/1999/02/22-rdf-syntax-ns#"
   xmlns:svg="http://www.w3.org/2000/svg"
   xmlns="http://www.w3.org/2000/svg"
   xmlns:xlink="http://www.w3.org/1999/xlink"
   xmlns:sodipodi="http://sodipodi.sourceforge.net/DTD/sodipodi-0.dtd"
   xmlns:inkscape="http://www.inkscape.org/namespaces/inkscape"
   width="32"
   height="32"
   id="svg3330"
   version="1.1"
   inkscape:version="0.92.2 2405546, 2018-03-11"
   sodipodi:docname="preferences-desktop-wallpaper1.svg">
  <defs
     id="defs3332">
    <linearGradient
       gradientUnits="userSpaceOnUse"
       id="linearGradient1022-8-8-3-0-06-59-7-8-0-2"
       x2="0"
       y1="3.0069399"
       y2="11.02436">
      <stop
         offset="0"
         id="stop3001-0-9-4-9-02-6-2-81-9" />
      <stop
         offset="1"
         stop-color="#363636"
         id="stop3003-5-6-6-5-70-7-1-4-9" />
    </linearGradient>
    <linearGradient
       id="linearGradient3332-412-419-652-471-3">
      <stop
         id="stop2759-6"
         style="stop-color:#30b4e2;stop-opacity:1"
         offset="0" />
      <stop
         id="stop2761-7"
         style="stop-color:#bc27ad;stop-opacity:1"
         offset="1" />
    </linearGradient>
    <linearGradient
       inkscape:collect="always"
       xlink:href="#linearGradient3332-412-419-652-471-3"
       id="linearGradient870-8"
       x1="-74.799286"
       y1="24.962273"
       x2="-32.630997"
       y2="-1.0168768"
       gradientUnits="userSpaceOnUse"
       gradientTransform="matrix(0.59032314,0,0,0.59032314,45.837657,1029.0041)" />
  </defs>
  <sodipodi:namedview
     id="base"
     pagecolor="#ffffff"
     bordercolor="#666666"
     borderopacity="1.0"
     inkscape:pageopacity="0.0"
     inkscape:pageshadow="2"
     inkscape:zoom="58.044241"
     inkscape:cx="27.002641"
     inkscape:cy="12.860505"
     inkscape:document-units="px"
     inkscape:current-layer="capa1"
     showgrid="true"
     inkscape:showpageshadow="false"
     inkscape:window-width="1920"
     inkscape:window-height="1019"
     inkscape:window-x="0"
     inkscape:window-y="5"
     inkscape:window-maximized="1"
     inkscape:snap-to-guides="false"
     inkscape:snap-grids="true"
     showguides="true"
     inkscape:guide-bbox="true"
     inkscape:snap-global="false">
    <inkscape:grid
       type="xygrid"
       id="grid2990"
       empspacing="5"
       visible="true"
       enabled="true"
       snapvisiblegridlinesonly="true" />
  </sodipodi:namedview>
  <metadata
     id="metadata3335">
    <rdf:RDF>
      <cc:Work
         rdf:about="">
        <dc:format>image/svg+xml</dc:format>
        <dc:type
           rdf:resource="http://purl.org/dc/dcmitype/StillImage" />
        <dc:title />
      </cc:Work>
    </rdf:RDF>
  </metadata>
  <g
     inkscape:label="Capa 1"
     inkscape:groupmode="layer"
     id="capa1"
     transform="translate(0,-1020.3622)">
    <path
       inkscape:connector-curvature="0"
       style="opacity:0.2;fill:#000000;fill-opacity:1;stroke:none;stroke-width:0.18364842;stroke-linejoin:round;stroke-miterlimit:4;stroke-dasharray:none;stroke-opacity:1;paint-order:stroke fill markers"
       d="m 12.245151,1044.4189 c -0.575159,0 -1.037974,0.4628 -1.037974,1.038 v 1.4938 h -0.225368 c -0.532045,0 -0.960706,0.4274 -0.960706,0.9594 v 1.4514 c 0,0.532 0.428661,0.9607 0.960706,0.9607 h 9.474421 c 0.532045,0 0.960705,-0.4287 0.960705,-0.9607 v -1.4514 c 0,-0.532 -0.42866,-0.9594 -0.960705,-0.9594 h -0.22408 v -1.4938 c 0,-0.5752 -0.462815,-1.038 -1.037974,-1.038 z"
       id="rect847-8" />
    <path
       inkscape:connector-curvature="0"
       style="opacity:1;fill:#333333;fill-opacity:1;stroke:none;stroke-width:0.18364842;stroke-linejoin:round;stroke-miterlimit:4;stroke-dasharray:none;stroke-opacity:1;paint-order:stroke fill markers"
       d="m 12.245151,1043.9551 c -0.575159,0 -1.037974,0.4628 -1.037974,1.038 v 1.4939 h -0.225368 c -0.532045,0 -0.960706,0.4273 -0.960706,0.9594 v 1.4513 c 0,0.5321 0.428661,0.9607 0.960706,0.9607 h 9.474421 c 0.532045,0 0.960705,-0.4286 0.960705,-0.9607 v -1.4513 c 0,-0.5321 -0.42866,-0.9594 -0.960705,-0.9594 h -0.22408 v -1.4939 c 0,-0.5752 -0.462815,-1.038 -1.037974,-1.038 z"
       id="rect847" />
    <rect
       style="opacity:0.2;fill:#000000;fill-opacity:1;stroke-width:0.31859767"
       x="0.74817479"
       y="1026.0424"
       width="30.251823"
       height="20.006742"
       id="rect276-5-1"
       rx="1.4464579"
       ry="1.4778842" />
    <rect
       style="fill:#333333;fill-opacity:1;stroke-width:0.31859767"
       x="0.74817479"
       y="1025.5359"
       width="30.251823"
       height="20.006742"
       id="rect276-5"
       rx="1.4464579"
       ry="1.4778842" />
    <rect
       style="fill:#5be810;stroke-width:0.20669833"
       x="27.185671"
       y="1044.2645"
       width="1.3931466"
       height="0.63042998"
       id="rect280-5"
       rx="0.31521499"
       ry="0.31521499" />
    <rect
       style="fill:#666666;fill-opacity:1;stroke-width:0.28819615"
       x="1.5881068"
       y="1026.3385"
       width="28.437151"
       height="17.41538"
       id="rect276-5-7"
       rx="1.3596915"
       ry="1.2864623" />
    <path
       inkscape:connector-curvature="0"
       style="fill:url(#linearGradient870-8);fill-opacity:1;stroke-width:0.28756455"
       d="m 3.0386042,1026.3622 c -0.7516188,0 -1.3566392,0.5725 -1.3566392,1.2837 v 14.8099 c 0,0.7112 0.6050204,1.2837 1.3566392,1.2837 H 28.699624 c 0.751617,0 1.356638,-0.5725 1.356638,-1.2837 v -9.8367 l -6.255952,-6.2569 z"
       id="rect276-5-7-9" />
    <path
       style="fill:#ff5bff;fill-opacity:1;stroke-width:0.28756455"
       d="m 30.056262,1032.6191 -6.255952,-6.2569 v 4.9734 c 0,0.7111 0.60502,1.2835 1.356638,1.2835 z"
       id="rect276-5-7-6"
       inkscape:connector-curvature="0" />
  </g>
</svg>
