<?xml version="1.0" encoding="UTF-8" standalone="no"?>
<!-- Created with Inkscape (http://www.inkscape.org/) -->

<svg
   xmlns:dc="http://purl.org/dc/elements/1.1/"
   xmlns:cc="http://creativecommons.org/ns#"
   xmlns:rdf="http://www.w3.org/1999/02/22-rdf-syntax-ns#"
   xmlns:svg="http://www.w3.org/2000/svg"
   xmlns="http://www.w3.org/2000/svg"
   xmlns:xlink="http://www.w3.org/1999/xlink"
   xmlns:sodipodi="http://sodipodi.sourceforge.net/DTD/sodipodi-0.dtd"
   xmlns:inkscape="http://www.inkscape.org/namespaces/inkscape"
   width="32"
   height="32"
   id="svg3330"
   version="1.1"
   inkscape:version="0.92.2 2405546, 2018-03-11"
   sodipodi:docname="preferences-desktop.svg">
  <defs
     id="defs3332">
    <linearGradient
       gradientUnits="userSpaceOnUse"
       id="linearGradient1022-8-8-3-0-06-59-7-8-0-2"
       x2="0"
       y1="3.0069399"
       y2="11.02436">
      <stop
         offset="0"
         id="stop3001-0-9-4-9-02-6-2-81-9" />
      <stop
         offset="1"
         stop-color="#363636"
         id="stop3003-5-6-6-5-70-7-1-4-9" />
    </linearGradient>
    <linearGradient
       inkscape:collect="always"
       xlink:href="#linearGradient1022-8-8-3-0-06-59-7-8-0-2-3"
       id="linearGradient3365"
       gradientUnits="userSpaceOnUse"
       gradientTransform="matrix(2.3556973,0,0,2.3198273,-518.14273,-1229.807)"
       x1="226.85118"
       y1="970.40381"
       x2="226.85118"
       y2="983.33582" />
    <linearGradient
       gradientUnits="userSpaceOnUse"
       id="linearGradient1022-8-8-3-0-06-59-7-8-0-2-3"
       x2="0"
       y1="3.0069399"
       y2="11.02436">
      <stop
         offset="0"
         id="stop3001-0-9-4-9-02-6-2-81-9-6" />
      <stop
         offset="1"
         stop-color="#363636"
         id="stop3003-5-6-6-5-70-7-1-4-9-7" />
    </linearGradient>
    <linearGradient
       gradientTransform="matrix(0.66609452,0,0,0.66609452,0.01929922,1020.3584)"
       inkscape:collect="always"
       xlink:href="#linearGradient865"
       id="linearGradient867"
       x1="23.900095"
       y1="41.241783"
       x2="23.489613"
       y2="26.887138"
       gradientUnits="userSpaceOnUse" />
    <linearGradient
       inkscape:collect="always"
       id="linearGradient865">
      <stop
         style="stop-color:#fafafa;stop-opacity:1"
         offset="0"
         id="stop861" />
      <stop
         style="stop-color:#000000;stop-opacity:0;"
         offset="1"
         id="stop863" />
    </linearGradient>
    <linearGradient
       gradientTransform="matrix(0.66609452,0,0,0.66609452,0.01929922,1020.3584)"
       inkscape:collect="always"
       xlink:href="#linearGradient873"
       id="linearGradient875"
       x1="23.96003"
       y1="21.667557"
       x2="23.860315"
       y2="7.456459"
       gradientUnits="userSpaceOnUse" />
    <linearGradient
       inkscape:collect="always"
       id="linearGradient873">
      <stop
         style="stop-color:#fafafa;stop-opacity:1;"
         offset="0"
         id="stop869" />
      <stop
         style="stop-color:#fafafa;stop-opacity:0;"
         offset="1"
         id="stop871" />
    </linearGradient>
  </defs>
  <sodipodi:namedview
     id="base"
     pagecolor="#ffffff"
     bordercolor="#666666"
     borderopacity="1.0"
     inkscape:pageopacity="0.0"
     inkscape:pageshadow="2"
     inkscape:zoom="16"
     inkscape:cx="-6.4392765"
     inkscape:cy="20.584444"
     inkscape:document-units="px"
     inkscape:current-layer="capa1"
     showgrid="true"
     inkscape:showpageshadow="false"
     inkscape:window-width="1920"
     inkscape:window-height="1013"
     inkscape:window-x="0"
     inkscape:window-y="0"
     inkscape:window-maximized="1"
     inkscape:snap-to-guides="false"
     inkscape:snap-grids="true"
     showguides="true"
     inkscape:guide-bbox="true"
     inkscape:snap-global="false">
    <inkscape:grid
       type="xygrid"
       id="grid2990"
       empspacing="5"
       visible="true"
       enabled="true"
       snapvisiblegridlinesonly="true" />
  </sodipodi:namedview>
  <metadata
     id="metadata3335">
    <rdf:RDF>
      <cc:Work
         rdf:about="">
        <dc:format>image/svg+xml</dc:format>
        <dc:type
           rdf:resource="http://purl.org/dc/dcmitype/StillImage" />
        <dc:title />
      </cc:Work>
    </rdf:RDF>
  </metadata>
  <g
     inkscape:label="Capa 1"
     inkscape:groupmode="layer"
     id="capa1"
     transform="translate(0,-1020.3622)">
    <rect
       ry="2.4353569"
       rx="2.4353569"
       y="1020.7567"
       x="2.2961779"
       height="31.35569"
       width="27.612972"
       id="rect859-3"
       style="opacity:1;fill:#b3b3b3;fill-opacity:1;stroke:#474747;stroke-width:0.23768352;stroke-linecap:round;stroke-linejoin:round;stroke-miterlimit:4;stroke-dasharray:none;stroke-opacity:1;paint-order:stroke fill markers" />
    <path
       inkscape:connector-curvature="0"
       style="fill:#38454f;stroke:url(#linearGradient875);stroke-width:0.13788156;stroke-miterlimit:4;stroke-dasharray:none"
       d="m 10.069261,1025.4022 c -2.5345886,0 -4.6080221,2.0735 -4.6080221,4.6081 0,2.5346 2.0734335,4.608 4.6080221,4.608 h 5.629277 0.876851 5.629281 c 2.534587,0 4.60802,-2.0734 4.60802,-4.608 0,-2.5346 -2.073433,-4.6081 -4.60802,-4.6081 h -5.629281 -0.876851 z"
       id="path2" />
    <circle
       style="fill:#e0e1e2;stroke-width:0.27107888"
       cx="10.069202"
       cy="1030.0098"
       r="3.2529471"
       id="circle4" />
    <path
       inkscape:connector-curvature="0"
       style="fill:#38454f;stroke:url(#linearGradient867);stroke-width:0.13788156;stroke-miterlimit:4;stroke-dasharray:none;stroke-opacity:1"
       d="m 10.069261,1038.5356 c -2.5345886,0 -4.6080221,2.0746 -4.6080221,4.6092 0,2.5346 2.0734335,4.608 4.6080221,4.608 h 5.629277 0.876851 5.629281 c 2.534587,0 4.60802,-2.0734 4.60802,-4.608 0,-2.5346 -2.073433,-4.6092 -4.60802,-4.6092 h -5.629281 -0.876851 z"
       id="path912" />
    <circle
       id="circle916"
       r="3.2529471"
       cy="1043.1445"
       cx="-22.204176"
       style="fill:#e0e1e2;stroke-width:0.27107888"
       transform="scale(-1,1)" />
    <path
       inkscape:connector-curvature="0"
       style="fill:#ffffff;stroke-width:0.27107888"
       d="m 10.070148,1026.757 a 3.2529468,3.2529468 0 0 0 -3.2529404,3.2529 3.2529468,3.2529468 0 0 0 0.011779,0.2593 3.2529468,3.2529468 0 0 1 3.2412424,-3.013 3.2529468,3.2529468 0 0 1 3.239291,2.9955 3.2529468,3.2529468 0 0 0 0.01374,-0.2418 3.2529468,3.2529468 0 0 0 -3.252942,-3.2529 z"
       id="circle918" />
    <path
       id="path923"
       d="m 22.180928,1039.8994 a 3.2529468,3.2529468 0 0 0 -3.252944,3.2531 3.2529468,3.2529468 0 0 0 0.01178,0.2593 3.2529468,3.2529468 0 0 1 3.241242,-3.013 3.2529468,3.2529468 0 0 1 3.239291,2.9953 3.2529468,3.2529468 0 0 0 0.01374,-0.2416 3.2529468,3.2529468 0 0 0 -3.252945,-3.2531 z"
       style="fill:#ffffff;stroke-width:0.27107888"
       inkscape:connector-curvature="0" />
    <path
       id="path925"
       d="m 10.070148,1033.8266 a 3.2529468,3.2529468 0 0 1 -3.2529404,-3.2531 3.2529468,3.2529468 0 0 1 0.011779,-0.2593 3.2529468,3.2529468 0 0 0 3.2412424,3.0132 3.2529468,3.2529468 0 0 0 3.239291,-2.9958 3.2529468,3.2529468 0 0 1 0.01374,0.2419 3.2529468,3.2529468 0 0 1 -3.252942,3.2531 z"
       style="opacity:0.33000004;fill:#000000;stroke-width:0.27107888"
       inkscape:connector-curvature="0" />
    <path
       inkscape:connector-curvature="0"
       style="opacity:0.28000004;fill:#000000;stroke-width:0.27107888"
       d="m 22.180928,1046.969 a 3.2529468,3.2529468 0 0 1 -3.252944,-3.2529 3.2529468,3.2529468 0 0 1 0.01178,-0.2596 3.2529468,3.2529468 0 0 0 3.241242,3.0132 3.2529468,3.2529468 0 0 0 3.239291,-2.9955 3.2529468,3.2529468 0 0 1 0.01374,0.2419 3.2529468,3.2529468 0 0 1 -3.252945,3.2529 z"
       id="path927" />
    <path
       inkscape:connector-curvature="0"
       style="opacity:0.28300003;fill:#000000;stroke-width:0.27107888"
       d="m 10.069261,1025.4022 c -2.5345886,0 -4.6080221,2.0735 -4.6080221,4.6081 0,0.1453 0.00883,0.2886 0.022124,0.4307 0.2189949,-2.3348 2.1965375,-4.1789 4.5859061,-4.1789 h 5.629277 0.876851 5.629281 c 2.389364,0 4.366907,1.8441 4.585904,4.1789 0.01335,-0.1414 0.02212,-0.2854 0.02212,-0.4307 0,-2.5346 -2.073434,-4.6081 -4.60802,-4.6081 H 16.575401 15.69855 Z"
       id="path854" />
    <path
       id="path859"
       d="m 10.069261,1038.5328 c -2.5345886,0 -4.6080221,2.0735 -4.6080221,4.6081 0,0.1452 0.00883,0.2887 0.022124,0.4307 0.2189949,-2.3346 2.1965375,-4.1787 4.5859061,-4.1787 h 5.629277 0.876851 5.629281 c 2.389364,0 4.366907,1.8441 4.585904,4.1787 0.01335,-0.1414 0.02212,-0.2855 0.02212,-0.4307 0,-2.5346 -2.073434,-4.6081 -4.60802,-4.6081 H 16.575401 15.69855 Z"
       style="opacity:0.28300003;fill:#000000;stroke-width:0.27107888"
       inkscape:connector-curvature="0" />
  </g>
</svg>
