<?xml version="1.0" encoding="UTF-8" standalone="no"?>
<svg
   xmlns:dc="http://purl.org/dc/elements/1.1/"
   xmlns:cc="http://creativecommons.org/ns#"
   xmlns:rdf="http://www.w3.org/1999/02/22-rdf-syntax-ns#"
   xmlns:svg="http://www.w3.org/2000/svg"
   xmlns="http://www.w3.org/2000/svg"
   xmlns:sodipodi="http://sodipodi.sourceforge.net/DTD/sodipodi-0.dtd"
   xmlns:inkscape="http://www.inkscape.org/namespaces/inkscape"
   height="64"
   width="64"
   version="1"
   id="svg22"
   sodipodi:docname="preferences-desktop-locale.svg"
   inkscape:version="0.92.2 5c3e80d, 2017-08-06">
  <metadata
     id="metadata28">
    <rdf:RDF>
      <cc:Work
         rdf:about="">
        <dc:format>image/svg+xml</dc:format>
        <dc:type
           rdf:resource="http://purl.org/dc/dcmitype/StillImage" />
      </cc:Work>
    </rdf:RDF>
  </metadata>
  <defs
     id="defs26" />
  <sodipodi:namedview
     pagecolor="#ffffff"
     bordercolor="#666666"
     borderopacity="1"
     objecttolerance="10"
     gridtolerance="10"
     guidetolerance="10"
     inkscape:pageopacity="0"
     inkscape:pageshadow="2"
     inkscape:window-width="1920"
     inkscape:window-height="1020"
     id="namedview24"
     showgrid="false"
     inkscape:zoom="3.6875"
     inkscape:cx="-40.849924"
     inkscape:cy="8.5922968"
     inkscape:window-x="0"
     inkscape:window-y="27"
     inkscape:window-maximized="1"
     inkscape:current-layer="svg22" />
  <path
     style="opacity:0.2;stroke-width:0.84500116"
     d="m 59.999479,49.39595 c 0,1.40439 -1.130612,2.535 -2.535003,2.535 H 30.424437 c -0.363782,0 -0.70779,-0.0777 -1.019942,-0.21455 l 0.442308,1.83358 c 0.186238,0.0433 0.377842,0.071 0.577634,0.071 h 27.040039 c 1.404391,0 2.535003,-1.13061 2.535003,-2.535 z"
     id="path2-2"
     inkscape:connector-curvature="0" />
  <path
     inkscape:connector-curvature="0"
     style="opacity:0.2;stroke-width:0.84500116"
     d="m 4.000786,38.024348 v 1.690002 c 0,1.40439 1.130611,2.535 2.535003,2.535 h 32.110044 c 1.404392,0 2.535004,-1.13061 2.535004,-2.535 v -1.690002 c 0,1.404392 -1.130612,2.535002 -2.535004,2.535002 H 6.535789 c -1.404392,0 -2.535003,-1.13061 -2.535003,-2.535002 z"
     id="path4-7"
     sodipodi:nodetypes="csssscssc" />
  <path
     style="fill:#b3b3b3;fill-opacity:1;stroke-width:0.84500116"
     d="m 30.424437,20.665907 c -1.404392,0 -2.535004,1.130612 -2.535004,2.535004 V 45.40695 l 1.742815,7.23202 c 0.250484,0.0824 0.51344,0.13698 0.792189,0.13698 h 27.040039 c 1.404391,0 2.535003,-1.13061 2.535003,-2.535 V 23.200911 c 0,-1.404392 -1.130612,-2.535004 -2.535003,-2.535004 z"
     id="rect6-0"
     inkscape:connector-curvature="0" />
  <path
     inkscape:connector-curvature="0"
     d="m 41.100506,26.987558 c 0.750364,0.519488 1.443,1.154374 2.077999,1.904655 l -1.125453,1.383584 c -0.693454,-0.865422 -1.41509,-1.587213 -2.165454,-2.163555 l 1.212181,-1.125411 m 0,5.454339 c 0.692636,0.51949 1.3564,1.096649 1.991272,1.731534 l -1.125526,1.4718 C 41.330434,34.835444 40.637707,34.142742 39.887343,33.5664 l 1.212182,-1.125412 m 0.346327,5.973775 1.38529,0.952367 c -0.692727,2.36537 -1.702544,4.64529 -3.03018,6.83793 l -1.471818,-1.12541 c 1.327564,-2.13556 2.366545,-4.35766 3.116908,-6.666487 m 4.068726,-12.119543 1.645017,0.346296 c -0.115455,0.577214 -0.2886,1.125521 -0.519473,1.644974 h 6.75327 v 1.558359 H 45.947778 L 45.16856,31.14191 c -0.230892,0.461746 -0.606073,0.952364 -1.125527,1.471799 l -1.038982,-1.212045 c 1.096691,-1.327496 1.933636,-3.03025 2.510908,-5.107989 m -0.43289,5.367797 h 7.96545 c -3.6e-5,1.78926 -0.02891,3.463142 -0.08673,5.021447 h 1.125527 v 1.558395 H 52.874208 C 52.758754,39.45341 52.672171,40.63668 52.61448,41.79101 h 1.298691 v 1.47182 h -1.471853 c -0.230909,2.01992 -1.04,3.03079 -2.425453,3.03079 -0.346327,0 -0.836945,-0.0579 -1.471855,-0.17309 l -0.259744,-1.4718 c 0.750345,0.11527 1.327562,0.17309 1.731599,0.17309 0.404036,0 0.663762,-0.51947 0.779235,-1.55839 h -6.753268 c 0.230874,-1.55841 0.432892,-3.23225 0.606055,-5.021461 h -1.212109 v -1.558395 h 1.385273 c 0.115454,-1.616104 0.202017,-3.289876 0.259745,-5.021448 m 1.29869,5.021448 h 4.935089 c 0.05782,-1.212064 0.08673,-2.395183 0.08673,-3.549684 h -4.761817 c -0.05782,1.269806 -0.144364,2.452998 -0.259746,3.549684 m 2.167273,-3.116246 c 0.634908,0.40402 1.212126,0.865767 1.731617,1.38522 l -1.038964,1.298642 c -0.519491,-0.57716 -1.096709,-1.096613 -1.731599,-1.558378 l 1.038181,-1.125411 m 2.424181,8.224789 c 0.115454,-1.21206 0.202,-2.39537 0.259745,-3.549694 h -4.935089 c -0.115454,1.269774 -0.259745,2.453004 -0.43289,3.549694 h 5.108179 m -2.683999,-3.116801 c 0.692618,0.404021 1.327546,0.865771 1.904727,1.385221 l -1.125545,1.29867 c -0.5772,-0.63491 -1.183272,-1.18321 -1.818182,-1.64496 l 1.038964,-1.038931 M 39.195436,28.372687 V 41.96527 H 37.637 v -1.4718 h -1.471853 v 2.25101 H 34.60671 V 28.37265 h 4.588725 m -3.030362,10.64887 h 1.471853 v -9.177107 h -1.471853 v 9.177107"
     style="opacity:0.2;fill:#000000;stroke-width:0.90909046"
     id="path6-3" />
  <path
     inkscape:connector-curvature="0"
     style="opacity:0.1;fill:#ffffff;stroke-width:0.84500116"
     d="m 30.424876,20.666019 c -1.404392,0 -2.535003,1.130612 -2.535003,2.535004 v 0.845001 c 0,-1.404392 1.130611,-2.535003 2.535003,-2.535003 H 57.464997 C 58.869389,21.511021 60,22.641632 60,24.046024 v -0.845001 c 0,-1.404392 -1.130611,-2.535004 -2.535003,-2.535004 z"
     id="path12-0" />
  <path
     style="fill:#009aff;fill-opacity:1;stroke-width:0.84500116"
     d="M 6.535004,9.2947008 C 5.130612,9.2947008 4,10.425311 4,11.829703 V 38.86974 c 0,1.40439 1.130612,2.535 2.535004,2.535 H 37.148136 L 29.645456,9.2947008 Z"
     id="rect10-6"
     inkscape:connector-curvature="0"
     sodipodi:nodetypes="ssssccs" />
  <path
     inkscape:connector-curvature="0"
     style="opacity:0.1;fill:#ffffff;stroke-width:0.84500116"
     d="m 6.535789,9.2943088 c -1.404392,0 -2.535003,1.1306112 -2.535003,2.5350032 v 0.845001 c 0,-1.404392 1.130611,-2.535003 2.535003,-2.535003 h 32.110044 c 1.404392,0 2.535004,1.130611 2.535004,2.535003 v -0.845001 c 0,-1.404392 -1.130612,-2.5350032 -2.535004,-2.5350032 z"
     id="path14-6"
     sodipodi:nodetypes="sscsscsss" />
  <path
     style="fill:#666666;stroke:none;stroke-width:0.84500116px;stroke-linecap:butt;stroke-linejoin:miter;stroke-opacity:1"
     d="M 29.658342,52.74699 37.148136,41.40474 26.916068,41.36854 Z"
     id="path892"
     inkscape:connector-curvature="0" />
  <path
     inkscape:connector-curvature="0"
     style="opacity:0.2;fill:#000000;fill-opacity:1;stroke-width:0.86956525"
     d="m 16.366756,27.33682 c 0.739469,-2.66347 1.411148,-5.430965 1.965861,-7.826086 h 0.117391 c 0.689764,2.852142 1.313254,5.098139 1.9952,7.826086 h -4.078435 m 6.133913,7.826087 h 4.577217 L 21.092338,16.032472 H 15.898947 L 9.9133821,35.162907 h 4.4012169 l 1.173653,-4.347827 h 5.838956 l 1.173913,4.347827"
     id="path14-2" />
  <path
     inkscape:connector-curvature="0"
     d="m 16.366756,26.467255 c 0.739469,-2.663471 1.411148,-5.430965 1.965861,-7.826087 h 0.117391 c 0.689764,2.852142 1.313254,5.09814 1.9952,7.826087 h -4.078435 m 6.133913,7.826087 h 4.577217 L 21.092338,15.162907 H 15.898947 L 9.9133821,34.293342 h 4.4012169 l 1.173653,-4.347827 h 5.838956 l 1.173913,4.347827"
     style="fill:#ffffff;stroke-width:0.86956525"
     id="path16-9" />
</svg>
