<?xml version="1.0" encoding="UTF-8" standalone="no"?>
<svg
   xmlns:dc="http://purl.org/dc/elements/1.1/"
   xmlns:cc="http://creativecommons.org/ns#"
   xmlns:rdf="http://www.w3.org/1999/02/22-rdf-syntax-ns#"
   xmlns:svg="http://www.w3.org/2000/svg"
   xmlns="http://www.w3.org/2000/svg"
   xmlns:sodipodi="http://sodipodi.sourceforge.net/DTD/sodipodi-0.dtd"
   xmlns:inkscape="http://www.inkscape.org/namespaces/inkscape"
   width="32px"
   height="32px"
   viewBox="0 0 32 32"
   version="1.1"
   id="svg7"
   sodipodi:docname="qt4logo1.svg"
   inkscape:version="0.92.2 2405546, 2018-03-11">
  <metadata
     id="metadata13">
    <rdf:RDF>
      <cc:Work
         rdf:about="">
        <dc:format>image/svg+xml</dc:format>
        <dc:type
           rdf:resource="http://purl.org/dc/dcmitype/StillImage" />
      </cc:Work>
    </rdf:RDF>
  </metadata>
  <defs
     id="defs11" />
  <sodipodi:namedview
     pagecolor="#ffffff"
     bordercolor="#666666"
     borderopacity="1"
     objecttolerance="10"
     gridtolerance="10"
     guidetolerance="10"
     inkscape:pageopacity="0"
     inkscape:pageshadow="2"
     inkscape:window-width="1920"
     inkscape:window-height="1019"
     id="namedview9"
     showgrid="false"
     showguides="false"
     inkscape:zoom="6.0926701"
     inkscape:cx="-36.522462"
     inkscape:cy="5.5398056"
     inkscape:window-x="0"
     inkscape:window-y="5"
     inkscape:window-maximized="1"
     inkscape:current-layer="svg7" />
  <g
     id="surface1"
     style="fill:#41cd52;fill-opacity:1">
    <path
       style="stroke:none;fill-rule:nonzero;fill:#41cd52;fill-opacity:1"
       d="M 4.8125 0.394531 L 27.476562 0.394531 C 28.816406 0.394531 29.902344 1.480469 29.902344 2.820312 L 29.902344 29.210938 C 29.902344 30.550781 28.816406 31.636719 27.476562 31.636719 L 4.8125 31.636719 C 3.472656 31.636719 2.386719 30.550781 2.386719 29.210938 L 2.386719 2.820312 C 2.386719 1.480469 3.472656 0.394531 4.8125 0.394531 Z M 4.8125 0.394531 "
       id="path2" />
  </g>
  <path
     inkscape:connector-curvature="0"
     style="opacity:0.20499998;fill:#000000;fill-opacity:1;stroke:none;stroke-width:0.14821951;stroke-miterlimit:4;stroke-dasharray:none;stroke-opacity:1"
     d="m 26.339159,20.013982 -6.481265,6.481266 H 6.6844522 c -0.5381128,0 -0.9716712,-0.433559 -0.9716712,-0.971672 v 0.565391 c 0,0.538112 0.4335584,0.971671 0.9716712,0.971671 H 19.857894 l 6.481265,-6.481265 z"
     id="path892" />
  <path
     inkscape:connector-curvature="0"
     style="fill:#ececec;fill-opacity:1;stroke:none;stroke-width:0.14821951;stroke-miterlimit:4;stroke-dasharray:none;stroke-opacity:1"
     d="M 12.0786,5.8688683 5.712781,12.235428 v 13.288148 c 0,0.538113 0.4335584,0.971672 0.9716712,0.971672 H 19.857894 l 6.481265,-6.481266 V 6.8398001 c 0,-0.5381125 -0.433559,-0.9709318 -0.971671,-0.9709318 z"
     id="rect2-7-3" />
  <path
     id="path914"
     d="m 13.188659,10.565562 c -0.927275,-0.0083 -1.902156,0.123559 -2.690783,0.645314 -0.6718698,0.435752 -1.0695828,1.177864 -1.3098698,1.921142 -0.3106577,0.988261 -0.3765889,2.033807 -0.3692801,3.063764 0.014071,0.952815 0.096836,1.919701 0.4033215,2.82769 0.1871212,0.536872 0.460435,1.064964 0.8961884,1.442337 0.567101,0.494652 1.316449,0.718555 2.051388,0.806644 0.613493,0.06776 1.237515,0.07566 1.847878,-0.02442 0.45139,0.741194 0.899266,1.484542 1.349093,2.226779 0.528529,-0.242373 1.054936,-0.487003 1.582944,-0.730419 -0.420114,-0.680731 -0.848312,-1.356598 -1.268428,-2.037328 0.583783,-0.419073 1.026338,-1.022402 1.258808,-1.702091 0.347141,-0.999205 0.394552,-2.070545 0.392961,-3.119266 -0.01251,-1.041427 -0.122406,-2.100124 -0.495087,-3.080045 -0.230386,-0.596813 -0.575441,-1.173699 -1.107099,-1.547424 -0.731812,-0.526968 -1.659066,-0.681738 -2.542035,-0.692677 z m -0.281955,1.919662 c 0.360901,-0.01298 0.724734,0.0299 1.061216,0.164289 0.363428,0.143712 0.672445,0.424963 0.835505,0.781481 0.250115,0.540306 0.345336,1.136642 0.3937,1.725773 0.05251,0.783972 0.04534,1.575438 -0.0629,2.354805 -0.076,0.463843 -0.183905,0.95302 -0.498047,1.318751 -0.318748,0.367113 -0.810074,0.5241 -1.281749,0.560949 -0.497466,0.03639 -1.022096,4.3e-5 -1.471197,-0.235332 -0.262092,-0.139568 -0.485079,-0.357994 -0.614973,-0.626074 -0.157531,-0.321051 -0.244096,-0.671743 -0.304897,-1.022734 -0.183324,-1.112853 -0.227633,-2.264472 0.02294,-3.37088 0.103177,-0.417318 0.253799,-0.84578 0.558729,-1.160382 0.265315,-0.269462 0.634259,-0.408254 1.002754,-0.460304 0.118494,-0.01543 0.238618,-0.02601 0.358919,-0.03034 z"
     style="opacity:0.2;fill:#000000;stroke-width:0.05212337"
     inkscape:connector-curvature="0" />
  <path
     inkscape:connector-curvature="0"
     style="fill:#41cd52;stroke-width:0.05212337;fill-opacity:1"
     d="m 13.188659,10.257302 c -0.927275,-0.0083 -1.902156,0.123559 -2.690783,0.645315 -0.6718698,0.435752 -1.0695828,1.177864 -1.3098698,1.921142 -0.3106577,0.98826 -0.3765889,2.033806 -0.3692801,3.063763 0.014071,0.952815 0.096836,1.919702 0.4033215,2.827691 0.1871212,0.536871 0.460435,1.064964 0.8961884,1.442337 0.567101,0.494651 1.316449,0.718555 2.051388,0.806643 0.613493,0.06776 1.237515,0.07566 1.847878,-0.02442 0.45139,0.741194 0.899266,1.484542 1.349093,2.226779 0.528529,-0.242373 1.054936,-0.487004 1.582944,-0.73042 -0.420114,-0.680731 -0.848312,-1.356597 -1.268428,-2.037328 0.583783,-0.419072 1.026338,-1.022402 1.258808,-1.70209 0.347141,-0.999206 0.394552,-2.070545 0.392961,-3.119267 -0.01251,-1.041426 -0.122406,-2.100123 -0.495087,-3.080045 -0.230386,-0.596812 -0.575441,-1.173698 -1.107099,-1.547422 -0.731812,-0.526968 -1.659066,-0.681738 -2.542035,-0.692677 z m -0.281955,1.919663 c 0.360901,-0.01297 0.724734,0.0299 1.061216,0.164289 0.363428,0.143711 0.672445,0.424963 0.835505,0.781481 0.250115,0.540305 0.345336,1.136641 0.3937,1.725773 0.05251,0.783972 0.04534,1.575438 -0.0629,2.354804 -0.076,0.463844 -0.183905,0.95302 -0.498047,1.31875 -0.318748,0.367113 -0.810074,0.524101 -1.281749,0.560951 -0.497466,0.03639 -1.022096,4.3e-5 -1.471197,-0.235333 -0.262092,-0.139567 -0.485079,-0.357993 -0.614973,-0.626074 -0.157531,-0.32105 -0.244096,-0.671743 -0.304897,-1.022733 -0.183324,-1.112855 -0.227633,-2.264474 0.02294,-3.370881 0.103177,-0.417319 0.253799,-0.84578 0.558729,-1.160381 0.265315,-0.269462 0.634259,-0.408256 1.002754,-0.460305 0.118494,-0.01543 0.238618,-0.02602 0.358919,-0.03034 z"
     id="path886" />
  <path
     inkscape:connector-curvature="0"
     style="opacity:0.2;fill:#000000;stroke-width:0.05212337"
     d="m 19.450542,11.177674 c 0.552507,-5.68e-4 1.105015,-5.68e-4 1.657523,0 0.0016,0.730771 -5.68e-4,1.461019 9.49e-4,2.191788 0.706272,9.49e-4 1.412544,0 2.118816,5.68e-4 -0.01198,0.474323 -0.02502,0.948646 -0.03857,1.422971 -0.70575,0.0016 -1.41098,-5.69e-4 -2.11673,9.49e-4 0.0016,1.197794 -0.0036,2.395589 0.0026,3.593383 0.01355,0.327857 0.0063,0.673956 0.150637,0.976793 0.105288,0.233512 0.38884,0.293455 0.619746,0.301272 0.435231,-0.0016 0.86994,-0.02711 1.305169,-0.03492 0.02659,0.435752 0.05213,0.872024 0.07714,1.307776 -0.865769,0.145424 -1.774279,0.319517 -2.634315,0.04743 -0.362257,-0.107375 -0.700016,-0.347664 -0.847003,-0.705751 -0.263226,-0.609322 -0.284596,-1.287447 -0.296062,-1.941595 -9.49e-4,-1.181638 0,-2.362753 -5.68e-4,-3.544389 -0.385191,-9.49e-4 -0.770385,5.68e-4 -1.155576,-9.49e-4 -9.49e-4,-0.473802 -9.49e-4,-0.948125 0,-1.422448 0.385191,-0.0016 0.769862,5.69e-4 1.155054,-9.49e-4 0.0016,-0.73077 -5.67e-4,-1.461018 9.49e-4,-2.191787 z"
     id="path916" />
  <path
     id="path888"
     d="m 19.450542,10.869415 c 0.552507,-5.69e-4 1.105015,-5.69e-4 1.657523,0 0.0016,0.730771 -5.68e-4,1.461019 9.49e-4,2.191788 0.706272,9.49e-4 1.412544,0 2.118816,5.68e-4 -0.01198,0.474322 -0.02502,0.948646 -0.03857,1.42297 -0.70575,0.0016 -1.41098,-5.68e-4 -2.11673,9.49e-4 0.0016,1.197794 -0.0036,2.395589 0.0026,3.593384 0.01355,0.327856 0.0063,0.673956 0.150637,0.976793 0.105288,0.233512 0.38884,0.293454 0.619746,0.301272 0.435231,-0.0016 0.86994,-0.02711 1.305169,-0.03492 0.02659,0.435751 0.05213,0.872025 0.07714,1.307775 -0.865769,0.145424 -1.774279,0.319517 -2.634315,0.04743 -0.362257,-0.107374 -0.700016,-0.347664 -0.847003,-0.70575 -0.263226,-0.609322 -0.284596,-1.287447 -0.296062,-1.941596 -9.49e-4,-1.181637 0,-2.362753 -5.68e-4,-3.544388 -0.385191,-9.49e-4 -0.770385,5.68e-4 -1.155576,-9.49e-4 -9.49e-4,-0.473803 -9.49e-4,-0.948125 0,-1.422448 0.385191,-0.0016 0.769862,5.69e-4 1.155054,-9.49e-4 0.0016,-0.730771 -5.67e-4,-1.461019 9.49e-4,-2.191788 z"
     style="fill:#41cd52;stroke-width:0.05212337;fill-opacity:1"
     inkscape:connector-curvature="0" />
  <path
     style="opacity:0.2;fill:#ffffff;fill-opacity:1;stroke:none;stroke-width:0.14821951;stroke-miterlimit:4;stroke-dasharray:none;stroke-opacity:1"
     d="M 12.0786,5.8667905 5.712781,12.233348 v 0.472146 L 12.0786,6.3389354 h 13.288888 c 0.538112,0 0.971671,0.4328192 0.971671,0.9709317 V 6.8377222 c 0,-0.5381129 -0.433559,-0.9709317 -0.971671,-0.9709317 z"
     id="path899"
     inkscape:connector-curvature="0" />
</svg>
