<?xml version="1.0" encoding="UTF-8"?>
<svg xmlns="http://www.w3.org/2000/svg" xmlns:xlink="http://www.w3.org/1999/xlink" width="22px" height="22px" viewBox="0 0 22 22" version="1.1">
<g id="surface1">
<path style="fill-rule:nonzero;fill:rgb(94.901961%,94.901961%,94.901961%);fill-opacity:1;stroke-width:0.356959;stroke-linecap:round;stroke-linejoin:round;stroke:rgb(0%,0%,0%);stroke-opacity:1;stroke-miterlimit:4;" d="M 7.184659 0.511364 L 41.34375 0.511364 C 43.363636 0.511364 45 2.147727 45 4.167614 L 45 43.951705 C 45 45.971591 43.363636 47.607955 41.34375 47.607955 L 7.184659 47.607955 C 5.164773 47.607955 3.528409 45.971591 3.528409 43.951705 L 3.528409 4.167614 C 3.528409 2.147727 5.164773 0.511364 7.184659 0.511364 Z M 7.184659 0.511364 " transform="matrix(0.458333,0,0,0.458333,0,0)"/>
<path style=" stroke:none;fill-rule:nonzero;fill:rgb(26.666668%,66.666669%,0%);fill-opacity:1;" d="M 7.65625 3.734375 L 12.1875 3.734375 L 12.1875 5.109375 L 7.65625 5.109375 Z M 7.65625 3.734375 "/>
<path style=" stroke:none;fill-rule:nonzero;fill:rgb(74.117649%,74.117649%,74.117649%);fill-opacity:1;" d="M 7.65625 5.566406 L 12.1875 5.566406 L 12.1875 6.941406 L 7.65625 6.941406 Z M 7.65625 5.566406 "/>
<path style=" stroke:none;fill-rule:nonzero;fill:rgb(74.117649%,74.117649%,74.117649%);fill-opacity:1;" d="M 7.65625 7.398438 L 12.1875 7.398438 L 12.1875 8.773438 L 7.65625 8.773438 Z M 7.65625 7.398438 "/>
<path style=" stroke:none;fill-rule:nonzero;fill:rgb(74.117649%,74.117649%,74.117649%);fill-opacity:1;" d="M 7.65625 9.234375 L 12.1875 9.234375 L 12.1875 10.609375 L 7.65625 10.609375 Z M 7.65625 9.234375 "/>
<path style=" stroke:none;fill-rule:nonzero;fill:rgb(74.117649%,74.117649%,74.117649%);fill-opacity:1;" d="M 7.65625 11.066406 L 12.1875 11.066406 L 12.1875 12.441406 L 7.65625 12.441406 Z M 7.65625 11.066406 "/>
<path style=" stroke:none;fill-rule:nonzero;fill:rgb(26.666668%,66.666669%,0%);fill-opacity:1;" d="M 13.320312 3.734375 L 17.847656 3.734375 L 17.847656 5.109375 L 13.320312 5.109375 Z M 13.320312 3.734375 "/>
<path style=" stroke:none;fill-rule:nonzero;fill:rgb(74.117649%,74.117649%,74.117649%);fill-opacity:1;" d="M 13.320312 5.566406 L 17.847656 5.566406 L 17.847656 6.941406 L 13.320312 6.941406 Z M 13.320312 5.566406 "/>
<path style=" stroke:none;fill-rule:nonzero;fill:rgb(74.117649%,74.117649%,74.117649%);fill-opacity:1;" d="M 13.320312 7.398438 L 17.847656 7.398438 L 17.847656 8.773438 L 13.320312 8.773438 Z M 13.320312 7.398438 "/>
<path style=" stroke:none;fill-rule:nonzero;fill:rgb(74.117649%,74.117649%,74.117649%);fill-opacity:1;" d="M 13.320312 9.234375 L 17.847656 9.234375 L 17.847656 10.609375 L 13.320312 10.609375 Z M 13.320312 9.234375 "/>
<path style=" stroke:none;fill-rule:nonzero;fill:rgb(74.117649%,74.117649%,74.117649%);fill-opacity:1;" d="M 13.320312 11.066406 L 17.847656 11.066406 L 17.847656 12.441406 L 13.320312 12.441406 Z M 13.320312 11.066406 "/>
<path style=" stroke:none;fill-rule:nonzero;fill:rgb(21.568628%,44.313726%,78.431374%);fill-opacity:1;" d="M 14.011719 17.5 C 13.804688 17.5 13.632812 17.699219 13.632812 17.941406 L 13.632812 21.140625 C 13.660156 21.144531 13.691406 21.144531 13.71875 21.144531 C 15.6875 21.144531 17.285156 19.546875 17.285156 17.574219 C 17.285156 17.550781 17.285156 17.527344 17.285156 17.5 Z M 14.011719 17.5 "/>
<path style=" stroke:none;fill-rule:nonzero;fill:rgb(78.431374%,21.568628%,21.568628%);fill-opacity:1;" d="M 13.035156 13.417969 C 11.0625 13.417969 9.464844 15.015625 9.464844 16.988281 C 9.464844 18.925781 11.015625 20.507812 12.949219 20.550781 L 12.949219 17.355469 C 12.949219 17.109375 13.121094 16.910156 13.328125 16.910156 L 16.601562 16.910156 C 16.558594 14.96875 14.976562 13.417969 13.035156 13.417969 Z M 13.035156 13.417969 "/>
<path style=" stroke:none;fill-rule:nonzero;fill:rgb(17.254902%,62.7451%,53.725493%);fill-opacity:1;" d="M 13.777344 17.597656 C 13.691406 17.679688 13.632812 17.800781 13.632812 17.941406 L 13.632812 21.140625 C 13.660156 21.144531 13.691406 21.144531 13.71875 21.144531 C 14.617188 21.144531 15.484375 20.800781 16.144531 20.1875 Z M 13.777344 17.597656 "/>
<path style=" stroke:none;fill-rule:nonzero;fill:rgb(26.666668%,66.666669%,0%);fill-opacity:1;" d="M 3.292969 0.234375 C 2.363281 0.234375 1.617188 0.984375 1.617188 1.910156 L 1.617188 20.144531 C 1.617188 21.074219 2.363281 21.820312 3.292969 21.820312 L 4.921875 21.820312 L 4.921875 0.234375 Z M 3.292969 0.234375 "/>
</g>
</svg>
