<?xml version="1.0" encoding="UTF-8"?>
<svg xmlns="http://www.w3.org/2000/svg" xmlns:xlink="http://www.w3.org/1999/xlink" width="22px" height="22px" viewBox="0 0 22 22" version="1.1">
<g id="surface1">
<path style=" stroke:none;fill-rule:nonzero;fill:rgb(38.82353%,43.137255%,45.09804%);fill-opacity:1;" d="M 3.292969 0.234375 L 18.949219 0.234375 C 19.875 0.234375 20.625 0.984375 20.625 1.910156 L 20.625 20.144531 C 20.625 21.070312 19.875 21.820312 18.949219 21.820312 L 3.292969 21.820312 C 2.367188 21.820312 1.617188 21.070312 1.617188 20.144531 L 1.617188 1.910156 C 1.617188 0.984375 2.367188 0.234375 3.292969 0.234375 Z M 3.292969 0.234375 "/>
<path style=" stroke:none;fill-rule:nonzero;fill:rgb(94.901961%,94.901961%,94.901961%);fill-opacity:1;" d="M 4.894531 2.445312 C 4.15625 2.445312 3.5625 3.039062 3.5625 3.777344 L 3.5625 18.277344 C 3.5625 19.015625 4.15625 19.609375 4.894531 19.609375 L 17.347656 19.609375 C 18.085938 19.609375 18.679688 19.015625 18.679688 18.277344 L 18.679688 10.582031 L 10.542969 2.445312 Z M 13.671875 2.445312 L 18.679688 7.453125 L 18.679688 3.777344 C 18.679688 3.039062 18.085938 2.445312 17.347656 2.445312 Z M 13.671875 2.445312 "/>
<path style=" stroke:none;fill-rule:nonzero;fill:rgb(38.82353%,43.137255%,45.09804%);fill-opacity:1;" d="M 13.664062 13.867188 C 13.800781 13.867188 14.015625 14.035156 14.304688 14.367188 L 15.1875 15.234375 C 16.054688 14.363281 16.503906 13.929688 16.527344 13.929688 C 16.601562 13.886719 16.664062 13.867188 16.710938 13.867188 L 16.835938 13.867188 C 17.011719 13.867188 17.15625 13.996094 17.257812 14.253906 L 17.257812 14.417969 C 17.257812 14.554688 17.09375 14.769531 16.757812 15.058594 L 15.890625 15.941406 C 16.761719 16.808594 17.195312 17.257812 17.195312 17.28125 C 17.238281 17.355469 17.257812 17.417969 17.257812 17.460938 L 17.257812 17.585938 C 17.257812 17.769531 17.128906 17.914062 16.867188 18.011719 L 16.710938 18.011719 C 16.566406 18.011719 16.339844 17.832031 16.027344 17.476562 L 15.1875 16.644531 C 14.316406 17.515625 13.871094 17.949219 13.84375 17.949219 C 13.769531 17.992188 13.710938 18.011719 13.664062 18.011719 L 13.539062 18.011719 C 13.363281 18.011719 13.222656 17.886719 13.113281 17.632812 L 13.113281 17.460938 C 13.113281 17.324219 13.28125 17.109375 13.613281 16.820312 L 14.480469 15.941406 C 13.613281 15.070312 13.175781 14.621094 13.175781 14.597656 C 13.136719 14.523438 13.113281 14.460938 13.113281 14.417969 L 13.113281 14.292969 C 13.113281 14.109375 13.242188 13.96875 13.5 13.867188 Z M 13.664062 13.867188 "/>
<path style=" stroke:none;fill-rule:nonzero;fill:rgb(38.82353%,43.137255%,45.09804%);fill-opacity:1;" d="M 12.886719 12.472656 L 15.453125 12.472656 L 15.453125 11.824219 L 12.296875 11.824219 L 11.046875 16.472656 L 10.121094 13.980469 L 8.316406 13.980469 L 8.316406 14.625 L 9.59375 14.625 L 10.84375 18.101562 L 11.398438 18.101562 Z M 12.886719 12.472656 "/>
<path style=" stroke:none;fill-rule:nonzero;fill:rgb(38.82353%,43.137255%,45.09804%);fill-opacity:1;" d="M 15.773438 12.148438 C 15.773438 12.324219 15.628906 12.46875 15.449219 12.46875 C 15.273438 12.46875 15.128906 12.324219 15.128906 12.148438 C 15.128906 11.96875 15.273438 11.824219 15.449219 11.824219 C 15.628906 11.824219 15.773438 11.96875 15.773438 12.148438 Z M 15.773438 12.148438 "/>
<path style=" stroke:none;fill-rule:nonzero;fill:rgb(38.82353%,43.137255%,45.09804%);fill-opacity:1;" d="M 8.652344 14.300781 C 8.652344 14.480469 8.507812 14.625 8.332031 14.625 C 8.152344 14.625 8.007812 14.480469 8.007812 14.300781 C 8.007812 14.125 8.152344 13.980469 8.332031 13.980469 C 8.507812 13.980469 8.652344 14.125 8.652344 14.300781 Z M 8.652344 14.300781 "/>
</g>
</svg>
