<?xml version="1.0" encoding="UTF-8"?>
<svg xmlns="http://www.w3.org/2000/svg" xmlns:xlink="http://www.w3.org/1999/xlink" width="22px" height="22px" viewBox="0 0 22 22" version="1.1">
<g id="surface1">
<path style=" stroke:none;fill-rule:nonzero;fill:rgb(83.137256%,37.64706%,37.64706%);fill-opacity:1;" d="M 3.292969 0.234375 L 18.949219 0.234375 C 19.875 0.234375 20.625 0.984375 20.625 1.910156 L 20.625 20.144531 C 20.625 21.070312 19.875 21.820312 18.949219 21.820312 L 3.292969 21.820312 C 2.367188 21.820312 1.617188 21.070312 1.617188 20.144531 L 1.617188 1.910156 C 1.617188 0.984375 2.367188 0.234375 3.292969 0.234375 Z M 3.292969 0.234375 "/>
<path style=" stroke:none;fill-rule:nonzero;fill:rgb(94.901961%,94.901961%,94.901961%);fill-opacity:1;" d="M 4.894531 2.445312 C 4.15625 2.445312 3.5625 3.039062 3.5625 3.777344 L 3.5625 18.277344 C 3.5625 19.015625 4.15625 19.609375 4.894531 19.609375 L 17.347656 19.609375 C 18.085938 19.609375 18.679688 19.015625 18.679688 18.277344 L 18.679688 10.582031 L 10.542969 2.445312 Z M 13.671875 2.445312 L 18.679688 7.453125 L 18.679688 3.777344 C 18.679688 3.039062 18.085938 2.445312 17.347656 2.445312 Z M 13.671875 2.445312 "/>
<path style=" stroke:none;fill-rule:nonzero;fill:rgb(47.843137%,47.843137%,47.843137%);fill-opacity:1;" d="M 5.933594 9.6875 L 15.304688 9.6875 L 15.304688 10.730469 L 5.933594 10.730469 Z M 5.933594 9.6875 "/>
<path style=" stroke:none;fill-rule:nonzero;fill:rgb(47.843137%,47.843137%,47.843137%);fill-opacity:1;" d="M 8.015625 11.769531 L 10.621094 11.769531 L 10.621094 12.8125 L 8.015625 12.8125 Z M 8.015625 11.769531 "/>
<path style=" stroke:none;fill-rule:nonzero;fill:rgb(47.843137%,47.843137%,47.843137%);fill-opacity:1;" d="M 6.976562 12.289062 C 6.976562 12.476562 6.878906 12.648438 6.714844 12.742188 C 6.554688 12.835938 6.355469 12.835938 6.195312 12.742188 C 6.035156 12.648438 5.933594 12.476562 5.933594 12.289062 C 5.933594 12.105469 6.035156 11.933594 6.195312 11.839844 C 6.355469 11.746094 6.554688 11.746094 6.714844 11.839844 C 6.878906 11.933594 6.976562 12.105469 6.976562 12.289062 Z M 6.976562 12.289062 "/>
<path style=" stroke:none;fill-rule:nonzero;fill:rgb(47.843137%,47.843137%,47.843137%);fill-opacity:1;" d="M 8.015625 13.332031 L 10.621094 13.332031 L 10.621094 14.375 L 8.015625 14.375 Z M 8.015625 13.332031 "/>
<path style=" stroke:none;fill-rule:nonzero;fill:rgb(47.843137%,47.843137%,47.843137%);fill-opacity:1;" d="M 6.976562 13.851562 C 6.976562 14.039062 6.878906 14.210938 6.714844 14.304688 C 6.554688 14.398438 6.355469 14.398438 6.195312 14.304688 C 6.035156 14.210938 5.933594 14.039062 5.933594 13.851562 C 5.933594 13.664062 6.035156 13.492188 6.195312 13.398438 C 6.355469 13.308594 6.554688 13.308594 6.714844 13.398438 C 6.878906 13.492188 6.976562 13.664062 6.976562 13.851562 Z M 6.976562 13.851562 "/>
<path style=" stroke:none;fill-rule:nonzero;fill:rgb(47.843137%,47.843137%,47.843137%);fill-opacity:1;" d="M 8.015625 14.894531 L 10.621094 14.894531 L 10.621094 15.933594 L 8.015625 15.933594 Z M 8.015625 14.894531 "/>
<path style=" stroke:none;fill-rule:nonzero;fill:rgb(47.843137%,47.843137%,47.843137%);fill-opacity:1;" d="M 6.976562 15.414062 C 6.976562 15.601562 6.878906 15.773438 6.714844 15.867188 C 6.554688 15.960938 6.355469 15.960938 6.195312 15.867188 C 6.035156 15.773438 5.933594 15.601562 5.933594 15.414062 C 5.933594 15.226562 6.035156 15.054688 6.195312 14.960938 C 6.355469 14.867188 6.554688 14.867188 6.714844 14.960938 C 6.878906 15.054688 6.976562 15.226562 6.976562 15.414062 Z M 6.976562 15.414062 "/>
<path style=" stroke:none;fill-rule:evenodd;fill:rgb(47.843137%,47.843137%,47.843137%);fill-opacity:1;" d="M 13.476562 11.746094 C 12.316406 11.746094 11.378906 12.6875 11.378906 13.84375 C 11.378906 15.003906 12.316406 15.941406 13.476562 15.941406 C 14.632812 15.941406 15.574219 15.003906 15.574219 13.84375 L 13.476562 13.84375 Z M 13.476562 11.746094 "/>
</g>
</svg>
