<?xml version="1.0" encoding="UTF-8"?>
<svg xmlns="http://www.w3.org/2000/svg" xmlns:xlink="http://www.w3.org/1999/xlink" width="22px" height="22px" viewBox="0 0 22 22" version="1.1">
<g id="surface1">
<path style=" stroke:none;fill-rule:nonzero;fill:rgb(17.647059%,61.176473%,94.901961%);fill-opacity:1;" d="M 3.292969 0.234375 L 18.949219 0.234375 C 19.875 0.234375 20.625 0.984375 20.625 1.910156 L 20.625 20.144531 C 20.625 21.070312 19.875 21.820312 18.949219 21.820312 L 3.292969 21.820312 C 2.367188 21.820312 1.617188 21.070312 1.617188 20.144531 L 1.617188 1.910156 C 1.617188 0.984375 2.367188 0.234375 3.292969 0.234375 Z M 3.292969 0.234375 "/>
<path style=" stroke:none;fill-rule:nonzero;fill:rgb(100%,100%,100%);fill-opacity:1;" d="M 7.226562 2.476562 C 4.601562 2.476562 2.476562 4.605469 2.476562 7.226562 C 2.476562 8.039062 2.683594 8.820312 3.042969 9.488281 C 2.921875 10.054688 2.855469 10.632812 2.855469 11.230469 C 2.855469 15.855469 6.609375 19.605469 11.238281 19.605469 C 11.835938 19.605469 12.414062 19.539062 12.976562 19.421875 C 13.648438 19.785156 14.421875 19.988281 15.238281 19.988281 C 17.863281 19.988281 19.988281 17.863281 19.988281 15.238281 C 19.988281 14.421875 19.78125 13.644531 19.421875 12.972656 C 19.539062 12.410156 19.605469 11.832031 19.605469 11.234375 C 19.605469 6.613281 15.851562 2.863281 11.230469 2.863281 C 10.628906 2.863281 10.050781 2.921875 9.488281 3.042969 C 8.816406 2.6875 8.03125 2.476562 7.222656 2.476562 "/>
<path style=" stroke:none;fill-rule:nonzero;fill:rgb(17.647059%,61.176473%,94.901961%);fill-opacity:1;" d="M 11.046875 5.101562 C 14.046875 5.101562 15.59375 6.675781 15.59375 7.597656 C 15.59375 8.523438 15.148438 8.664062 14.414062 8.664062 C 12.980469 8.664062 13.566406 6.949219 10.886719 6.949219 C 10 6.949219 8.890625 7.355469 8.890625 8.382812 C 8.890625 9.210938 9.871094 9.515625 11.605469 9.941406 C 14.214844 10.636719 16.175781 11.328125 16.175781 13.710938 C 16.175781 16.019531 14.277344 17.179688 11.277344 17.179688 C 8.277344 17.179688 6.359375 15.398438 6.359375 14.472656 C 6.359375 13.550781 6.714844 13.316406 7.449219 13.316406 C 8.882812 13.316406 8.691406 15.261719 11.371094 15.261719 C 12.261719 15.261719 13.574219 14.859375 13.574219 13.824219 C 13.574219 13 13.507812 12.714844 11.605469 12.207031 C 9.574219 11.933594 6.289062 11.277344 6.289062 8.757812 C 6.289062 6.449219 8.046875 5.101562 11.046875 5.101562 "/>
</g>
</svg>
