<?xml version="1.0" encoding="UTF-8"?>
<svg xmlns="http://www.w3.org/2000/svg" xmlns:xlink="http://www.w3.org/1999/xlink" width="22px" height="22px" viewBox="0 0 22 22" version="1.1">
<g id="surface1">
<path style=" stroke:none;fill-rule:nonzero;fill:rgb(66.666669%,53.333336%,0%);fill-opacity:1;" d="M 3.773438 3.839844 L 18.292969 3.839844 C 18.515625 3.839844 18.691406 4.015625 18.691406 4.226562 L 18.691406 6.695312 C 18.691406 6.90625 18.515625 7.082031 18.292969 7.082031 L 3.773438 7.082031 C 3.550781 7.082031 3.375 6.90625 3.375 6.695312 L 3.375 4.226562 C 3.375 4.015625 3.550781 3.839844 3.773438 3.839844 Z M 3.773438 3.839844 "/>
<path style=" stroke:none;fill-rule:nonzero;fill:rgb(81.568629%,48.627451%,24.705882%);fill-opacity:1;" d="M 2.515625 2.539062 L 20 2.539062 L 20 17.597656 L 2.527344 17.597656 Z M 2.515625 2.539062 "/>
<path style=" stroke:none;fill-rule:nonzero;fill:rgb(36.078432%,40.000001%,43.921569%);fill-opacity:1;" d="M 19.378906 3.453125 C 19.507812 3.035156 19.269531 2.589844 18.851562 2.460938 L 12.277344 0.460938 C 11.859375 0.335938 11.410156 0.574219 11.285156 0.992188 L 8.988281 8.539062 C 8.863281 8.957031 9.101562 9.40625 9.519531 9.53125 L 16.09375 11.53125 C 16.511719 11.660156 16.957031 11.421875 17.085938 11 Z M 19.378906 3.453125 "/>
<path style=" stroke:none;fill-rule:nonzero;fill:rgb(20%,24.313726%,28.235295%);fill-opacity:1;" d="M 18.851562 2.460938 L 12.277344 0.460938 C 11.859375 0.335938 11.410156 0.574219 11.285156 0.992188 L 10.597656 3.25 L 18.695312 5.710938 L 19.378906 3.453125 C 19.507812 3.035156 19.269531 2.589844 18.851562 2.460938 Z M 18.851562 2.460938 "/>
<path style=" stroke:none;fill-rule:nonzero;fill:rgb(0%,50.980395%,79.215688%);fill-opacity:1;" d="M 18.117188 3.324219 C 18.15625 3.199219 18.085938 3.066406 17.960938 3.027344 L 12.703125 1.429688 C 12.574219 1.390625 12.441406 1.460938 12.402344 1.585938 L 12.089844 2.617188 C 12.050781 2.742188 12.125 2.875 12.25 2.914062 L 17.507812 4.511719 C 17.632812 4.550781 17.765625 4.480469 17.804688 4.355469 Z M 18.117188 3.324219 "/>
<path style=" stroke:none;fill-rule:nonzero;fill:rgb(100%,100%,100%);fill-opacity:1;" d="M 17.15625 4.128906 C 17.074219 4.101562 17.027344 4.015625 17.054688 3.933594 L 17.257812 3.253906 C 17.285156 3.171875 17.371094 3.128906 17.453125 3.152344 C 17.535156 3.175781 17.582031 3.265625 17.558594 3.347656 L 17.351562 4.023438 C 17.324219 4.105469 17.238281 4.152344 17.15625 4.128906 Z M 17.15625 4.128906 "/>
<path style=" stroke:none;fill-rule:nonzero;fill:rgb(100%,100%,100%);fill-opacity:1;" d="M 16.523438 3.933594 C 16.441406 3.910156 16.394531 3.824219 16.417969 3.742188 L 16.625 3.0625 C 16.648438 2.980469 16.738281 2.933594 16.820312 2.960938 C 16.902344 2.984375 16.949219 3.070312 16.921875 3.152344 L 16.714844 3.832031 C 16.691406 3.914062 16.605469 3.960938 16.523438 3.933594 Z M 16.523438 3.933594 "/>
<path style=" stroke:none;fill-rule:nonzero;fill:rgb(100%,100%,100%);fill-opacity:1;" d="M 15.886719 3.742188 C 15.804688 3.71875 15.757812 3.628906 15.785156 3.546875 L 15.992188 2.871094 C 16.015625 2.789062 16.101562 2.742188 16.183594 2.765625 C 16.265625 2.792969 16.3125 2.878906 16.289062 2.960938 L 16.082031 3.640625 C 16.058594 3.722656 15.96875 3.769531 15.886719 3.742188 Z M 15.886719 3.742188 "/>
<path style=" stroke:none;fill-rule:nonzero;fill:rgb(83.137256%,56.470591%,0%);fill-opacity:1;" d="M 15.226562 7.550781 C 15.269531 7.410156 15.417969 7.328125 15.558594 7.371094 L 16.839844 7.761719 C 16.976562 7.804688 17.058594 7.953125 17.015625 8.09375 L 16.296875 10.453125 C 16.253906 10.59375 16.105469 10.671875 15.96875 10.628906 L 14.6875 10.238281 C 14.546875 10.199219 14.46875 10.046875 14.511719 9.910156 Z M 15.226562 7.550781 "/>
<path style=" stroke:none;fill-rule:nonzero;fill:rgb(20%,24.313726%,28.235295%);fill-opacity:1;" d="M 15.761719 5.796875 C 15.804688 5.660156 15.953125 5.578125 16.089844 5.621094 L 17.371094 6.011719 C 17.511719 6.054688 17.589844 6.203125 17.546875 6.339844 L 17.363281 6.949219 C 17.320312 7.089844 17.171875 7.167969 17.03125 7.128906 L 15.75 6.738281 C 15.613281 6.695312 15.53125 6.546875 15.574219 6.40625 Z M 15.761719 5.796875 "/>
<path style=" stroke:none;fill-rule:nonzero;fill:rgb(20%,24.313726%,28.235295%);fill-opacity:1;" d="M 13.480469 5.105469 C 13.523438 4.964844 13.671875 4.886719 13.808594 4.929688 L 15.089844 5.316406 C 15.230469 5.359375 15.308594 5.507812 15.265625 5.648438 L 15.082031 6.257812 C 15.039062 6.398438 14.890625 6.476562 14.75 6.433594 L 13.472656 6.042969 C 13.332031 6.003906 13.253906 5.851562 13.292969 5.714844 Z M 13.480469 5.105469 "/>
<path style=" stroke:none;fill-rule:nonzero;fill:rgb(20%,24.313726%,28.235295%);fill-opacity:1;" d="M 11.199219 4.410156 C 11.242188 4.273438 11.390625 4.191406 11.53125 4.234375 L 12.808594 4.625 C 12.949219 4.667969 13.027344 4.816406 12.984375 4.953125 L 12.800781 5.5625 C 12.757812 5.703125 12.609375 5.78125 12.46875 5.742188 L 11.191406 5.351562 C 11.050781 5.308594 10.972656 5.160156 11.011719 5.019531 Z M 11.199219 4.410156 "/>
<path style=" stroke:none;fill-rule:nonzero;fill:rgb(20%,24.313726%,28.235295%);fill-opacity:1;" d="M 12.949219 6.855469 C 12.988281 6.714844 13.136719 6.636719 13.277344 6.679688 L 14.558594 7.066406 C 14.699219 7.109375 14.777344 7.257812 14.734375 7.398438 L 14.550781 8.007812 C 14.507812 8.148438 14.359375 8.226562 14.21875 8.183594 L 12.9375 7.796875 C 12.800781 7.753906 12.71875 7.605469 12.761719 7.464844 Z M 12.949219 6.855469 "/>
<path style=" stroke:none;fill-rule:nonzero;fill:rgb(20%,24.313726%,28.235295%);fill-opacity:1;" d="M 10.667969 6.164062 C 10.707031 6.023438 10.859375 5.941406 10.996094 5.984375 L 12.277344 6.375 C 12.417969 6.417969 12.496094 6.566406 12.453125 6.707031 L 12.269531 7.316406 C 12.226562 7.453125 12.078125 7.535156 11.9375 7.492188 L 10.65625 7.101562 C 10.519531 7.058594 10.4375 6.910156 10.480469 6.769531 Z M 10.667969 6.164062 "/>
<path style=" stroke:none;fill-rule:nonzero;fill:rgb(20%,24.313726%,28.235295%);fill-opacity:1;" d="M 12.414062 8.605469 C 12.457031 8.46875 12.605469 8.386719 12.746094 8.429688 L 14.027344 8.820312 C 14.164062 8.863281 14.246094 9.011719 14.203125 9.148438 L 14.015625 9.757812 C 13.972656 9.898438 13.824219 9.976562 13.6875 9.933594 L 12.40625 9.546875 C 12.265625 9.503906 12.1875 9.355469 12.230469 9.214844 Z M 12.414062 8.605469 "/>
<path style=" stroke:none;fill-rule:nonzero;fill:rgb(20%,24.313726%,28.235295%);fill-opacity:1;" d="M 10.132812 7.914062 C 10.175781 7.773438 10.324219 7.695312 10.464844 7.738281 L 11.746094 8.125 C 11.882812 8.167969 11.964844 8.316406 11.921875 8.457031 L 11.734375 9.066406 C 11.695312 9.203125 11.542969 9.285156 11.40625 9.242188 L 10.125 8.851562 C 9.984375 8.808594 9.90625 8.660156 9.949219 8.523438 Z M 10.132812 7.914062 "/>
<path style=" stroke:none;fill-rule:nonzero;fill:rgb(100%,92.156863%,71.764708%);fill-opacity:1;" d="M 11.246094 6.332031 C 11.40625 8.210938 10.007812 9.871094 8.128906 10.03125 C 6.246094 10.191406 4.589844 8.789062 4.429688 6.910156 C 4.269531 5.03125 5.667969 3.371094 7.550781 3.210938 C 9.429688 3.054688 11.089844 4.453125 11.246094 6.332031 Z M 11.246094 6.332031 "/>
<path style=" stroke:none;fill-rule:nonzero;fill:rgb(100%,100%,100%);fill-opacity:1;" d="M 10.4375 6.402344 C 10.558594 7.832031 9.492188 9.097656 8.058594 9.21875 C 6.625 9.339844 5.363281 8.273438 5.242188 6.839844 C 5.121094 5.410156 6.1875 4.144531 7.617188 4.023438 C 9.050781 3.902344 10.3125 4.96875 10.4375 6.402344 Z M 10.4375 6.402344 "/>
<path style=" stroke:none;fill-rule:nonzero;fill:rgb(36.470589%,39.215687%,49.803922%);fill-opacity:1;" d="M 9.363281 2.925781 C 9.417969 2.917969 9.472656 2.882812 9.496094 2.824219 L 9.777344 2.164062 C 9.8125 2.078125 9.773438 1.984375 9.691406 1.949219 C 9.605469 1.914062 9.511719 1.953125 9.476562 2.035156 L 9.199219 2.699219 C 9.164062 2.78125 9.203125 2.878906 9.285156 2.914062 C 9.308594 2.921875 9.335938 2.925781 9.363281 2.925781 Z M 9.363281 2.925781 "/>
<path style=" stroke:none;fill-rule:nonzero;fill:rgb(70.588237%,71.372551%,73.725492%);fill-opacity:1;" d="M 8.238281 1.515625 C 8.558594 0.746094 9.445312 0.386719 10.214844 0.707031 C 10.585938 0.867188 10.875 1.15625 11.027344 1.53125 C 11.175781 1.902344 11.175781 2.3125 11.019531 2.683594 C 10.996094 2.742188 10.941406 2.78125 10.882812 2.785156 C 10.855469 2.785156 10.832031 2.78125 10.804688 2.773438 L 8.324219 1.726562 C 8.285156 1.710938 8.253906 1.679688 8.234375 1.636719 C 8.21875 1.597656 8.21875 1.554688 8.238281 1.515625 Z M 8.238281 1.515625 "/>
<path style=" stroke:none;fill-rule:nonzero;fill:rgb(52.549022%,51.764709%,56.862748%);fill-opacity:1;" d="M 10.214844 0.707031 C 10.585938 0.867188 10.875 1.15625 11.027344 1.53125 C 11.175781 1.902344 11.175781 2.3125 11.019531 2.683594 C 10.996094 2.742188 10.941406 2.78125 10.882812 2.785156 C 10.855469 2.785156 10.832031 2.78125 10.804688 2.773438 L 9.5625 2.25 Z M 10.214844 0.707031 "/>
<path style=" stroke:none;fill-rule:nonzero;fill:rgb(36.470589%,39.215687%,49.803922%);fill-opacity:1;" d="M 5.710938 3.234375 C 5.652344 3.238281 5.59375 3.210938 5.558594 3.160156 L 5.171875 2.554688 C 5.125 2.476562 5.144531 2.375 5.222656 2.328125 C 5.296875 2.28125 5.398438 2.300781 5.445312 2.378906 L 5.832031 2.984375 C 5.882812 3.058594 5.859375 3.160156 5.785156 3.210938 C 5.761719 3.222656 5.734375 3.230469 5.710938 3.234375 Z M 5.710938 3.234375 "/>
<path style=" stroke:none;fill-rule:nonzero;fill:rgb(36.470589%,39.215687%,49.803922%);fill-opacity:1;" d="M 5.625 11.386719 C 5.597656 11.390625 5.570312 11.382812 5.542969 11.371094 C 5.460938 11.332031 5.425781 11.234375 5.464844 11.152344 L 5.878906 10.300781 C 5.917969 10.21875 6.015625 10.1875 6.09375 10.226562 C 6.175781 10.265625 6.210938 10.363281 6.171875 10.441406 L 5.757812 11.296875 C 5.734375 11.347656 5.679688 11.382812 5.625 11.386719 Z M 5.625 11.386719 "/>
<path style=" stroke:none;fill-rule:nonzero;fill:rgb(36.470589%,39.215687%,49.803922%);fill-opacity:1;" d="M 10.820312 10.945312 C 10.765625 10.953125 10.710938 10.925781 10.675781 10.878906 L 10.117188 10.097656 C 10.066406 10.023438 10.082031 9.921875 10.15625 9.871094 C 10.230469 9.820312 10.332031 9.835938 10.382812 9.910156 L 10.941406 10.691406 C 10.992188 10.761719 10.976562 10.863281 10.902344 10.917969 C 10.878906 10.933594 10.847656 10.945312 10.820312 10.945312 Z M 10.820312 10.945312 "/>
<path style=" stroke:none;fill-rule:nonzero;fill:rgb(37.64706%,86.274511%,30.19608%);fill-opacity:1;" d="M 7.480469 2.402344 C 5.152344 2.597656 3.421875 4.652344 3.617188 6.980469 C 3.816406 9.304688 5.867188 11.039062 8.195312 10.84375 C 10.523438 10.644531 12.257812 8.589844 12.058594 6.265625 C 11.863281 3.9375 9.808594 2.203125 7.480469 2.402344 Z M 11.085938 6.347656 C 11.238281 8.136719 9.902344 9.714844 8.113281 9.867188 C 6.324219 10.019531 4.742188 8.6875 4.589844 6.898438 C 4.441406 5.105469 5.773438 3.527344 7.5625 3.375 C 9.351562 3.222656 10.933594 4.554688 11.085938 6.347656 Z M 11.085938 6.347656 "/>
<path style=" stroke:none;fill-rule:nonzero;fill:rgb(0%,76.47059%,47.843137%);fill-opacity:1;" d="M 8.109375 9.867188 C 6.320312 10.015625 4.742188 8.683594 4.589844 6.898438 C 4.441406 5.109375 5.769531 3.53125 7.558594 3.375 L 7.476562 2.402344 C 5.152344 2.601562 3.421875 4.652344 3.617188 6.980469 C 3.816406 9.304688 5.867188 11.039062 8.191406 10.84375 Z M 8.109375 9.867188 "/>
<path style=" stroke:none;fill-rule:nonzero;fill:rgb(52.549022%,51.764709%,56.862748%);fill-opacity:1;" d="M 5.742188 6.960938 L 5.09375 7.019531 C 5.003906 7.027344 4.925781 6.957031 4.917969 6.871094 C 4.910156 6.78125 4.976562 6.699219 5.066406 6.691406 L 5.714844 6.636719 C 5.804688 6.628906 5.882812 6.695312 5.890625 6.785156 C 5.898438 6.875 5.832031 6.957031 5.742188 6.960938 Z M 5.742188 6.960938 "/>
<path style=" stroke:none;fill-rule:nonzero;fill:rgb(52.549022%,51.764709%,56.862748%);fill-opacity:1;" d="M 10.613281 6.550781 L 9.960938 6.605469 C 9.871094 6.613281 9.792969 6.546875 9.785156 6.457031 C 9.777344 6.367188 9.84375 6.289062 9.933594 6.28125 L 10.585938 6.226562 C 10.675781 6.21875 10.753906 6.285156 10.761719 6.375 C 10.769531 6.464844 10.703125 6.542969 10.613281 6.550781 Z M 10.613281 6.550781 "/>
<path style=" stroke:none;fill-rule:nonzero;fill:rgb(52.549022%,51.764709%,56.862748%);fill-opacity:1;" d="M 8.085938 9.542969 C 7.996094 9.550781 7.917969 9.484375 7.910156 9.394531 L 7.855469 8.746094 C 7.847656 8.65625 7.914062 8.578125 8.003906 8.570312 C 8.09375 8.5625 8.171875 8.628906 8.179688 8.71875 L 8.234375 9.367188 C 8.242188 9.457031 8.175781 9.535156 8.085938 9.542969 Z M 8.085938 9.542969 "/>
<path style=" stroke:none;fill-rule:nonzero;fill:rgb(52.549022%,51.764709%,56.862748%);fill-opacity:1;" d="M 7.671875 4.671875 C 7.582031 4.679688 7.503906 4.613281 7.496094 4.523438 L 7.441406 3.875 C 7.433594 3.785156 7.5 3.707031 7.589844 3.699219 C 7.679688 3.691406 7.757812 3.757812 7.765625 3.847656 L 7.820312 4.496094 C 7.828125 4.585938 7.761719 4.664062 7.671875 4.671875 Z M 7.671875 4.671875 "/>
<path style=" stroke:none;fill-rule:nonzero;fill:rgb(70.588237%,71.372551%,73.725492%);fill-opacity:1;" d="M 6.582031 1.652344 C 6.132812 0.953125 5.199219 0.746094 4.496094 1.195312 C 4.15625 1.410156 3.921875 1.746094 3.835938 2.140625 C 3.75 2.535156 3.820312 2.9375 4.035156 3.277344 C 4.070312 3.332031 4.128906 3.355469 4.1875 3.351562 C 4.214844 3.351562 4.238281 3.339844 4.261719 3.328125 L 6.53125 1.878906 C 6.566406 1.855469 6.59375 1.820312 6.601562 1.777344 C 6.613281 1.734375 6.605469 1.691406 6.582031 1.652344 Z M 6.582031 1.652344 "/>
<path style=" stroke:none;fill-rule:nonzero;fill:rgb(36.470589%,39.215687%,49.803922%);fill-opacity:1;" d="M 7.363281 6.824219 L 6.554688 6.894531 C 6.464844 6.902344 6.386719 6.835938 6.378906 6.746094 C 6.371094 6.65625 6.4375 6.578125 6.527344 6.570312 L 7.335938 6.5 C 7.425781 6.492188 7.507812 6.558594 7.511719 6.648438 C 7.519531 6.738281 7.453125 6.816406 7.363281 6.824219 Z M 7.363281 6.824219 "/>
<path style=" stroke:none;fill-rule:nonzero;fill:rgb(36.470589%,39.215687%,49.803922%);fill-opacity:1;" d="M 7.824219 6.460938 C 7.734375 6.46875 7.65625 6.398438 7.648438 6.3125 L 7.550781 5.175781 C 7.542969 5.085938 7.609375 5.007812 7.699219 5 C 7.789062 4.992188 7.871094 5.058594 7.875 5.148438 L 7.972656 6.28125 C 7.980469 6.371094 7.914062 6.453125 7.824219 6.460938 Z M 7.824219 6.460938 "/>
<path style=" stroke:none;fill-rule:nonzero;fill:rgb(100%,30.980393%,9.803922%);fill-opacity:1;" d="M 9.613281 8.269531 C 9.570312 8.273438 9.527344 8.261719 9.496094 8.230469 L 7.734375 6.746094 C 7.664062 6.6875 7.65625 6.585938 7.714844 6.515625 C 7.773438 6.449219 7.875 6.4375 7.945312 6.496094 L 9.703125 7.984375 C 9.773438 8.039062 9.78125 8.144531 9.722656 8.210938 C 9.695312 8.246094 9.65625 8.265625 9.613281 8.269531 Z M 9.613281 8.269531 "/>
<path style=" stroke:none;fill-rule:nonzero;fill:rgb(52.549022%,51.764709%,56.862748%);fill-opacity:1;" d="M 4.496094 1.191406 C 4.496094 1.191406 4.496094 1.191406 4.496094 1.195312 C 4.15625 1.410156 3.921875 1.746094 3.835938 2.140625 C 3.75 2.535156 3.820312 2.9375 4.035156 3.277344 C 4.070312 3.332031 4.128906 3.355469 4.1875 3.351562 C 4.214844 3.351562 4.238281 3.339844 4.261719 3.328125 L 5.398438 2.601562 Z M 4.496094 1.191406 "/>
<path style=" stroke:none;fill-rule:nonzero;fill:rgb(36.078432%,32.941177%,41.568628%);fill-opacity:1;" d="M 8.324219 6.582031 C 8.347656 6.847656 8.148438 7.085938 7.878906 7.109375 C 7.609375 7.132812 7.375 6.933594 7.351562 6.664062 C 7.328125 6.394531 7.527344 6.15625 7.796875 6.132812 C 8.066406 6.113281 8.300781 6.3125 8.324219 6.582031 Z M 8.324219 6.582031 "/>
<path style=" stroke:none;fill-rule:nonzero;fill:rgb(93.333334%,77.64706%,36.470589%);fill-opacity:1;" d="M 1.609375 6.15625 L 1.609375 20.734375 C 1.609375 21.441406 2.183594 21.832031 2.890625 21.832031 L 19.625 21.832031 C 20.332031 21.832031 20.90625 21.441406 20.90625 20.734375 L 20.90625 6.15625 C 20.90625 6.171875 1.625 6.15625 1.609375 6.15625 Z M 4.324219 3.757812 L 2.515625 2.539062 L 2.515625 5.550781 L 4.324219 5.550781 Z M 20 2.539062 L 18.191406 3.742188 L 18.191406 5.550781 L 20 5.550781 Z M 20 2.539062 "/>
<path style=" stroke:none;fill-rule:nonzero;fill:rgb(86.274511%,63.921571%,30.980393%);fill-opacity:1;" d="M 4.324219 6.15625 L 4.324219 3.742188 L 1.59375 6.15625 Z M 18.191406 3.742188 L 18.191406 6.15625 L 20.9375 6.15625 Z M 18.191406 3.742188 "/>
<path style=" stroke:none;fill-rule:nonzero;fill:rgb(81.568629%,48.627451%,24.705882%);fill-opacity:1;" d="M 5.890625 7.851562 C 5.4375 7.851562 5.0625 8.226562 5.0625 8.679688 C 5.0625 9.132812 5.421875 9.507812 5.890625 9.507812 C 6.34375 9.507812 6.71875 9.132812 6.71875 8.679688 C 6.734375 8.226562 6.359375 7.851562 5.890625 7.851562 Z M 15.992188 7.851562 C 15.539062 7.851562 15.160156 8.226562 15.160156 8.679688 C 15.160156 9.132812 15.523438 9.507812 15.992188 9.507812 C 16.445312 9.507812 16.820312 9.132812 16.820312 8.679688 C 16.835938 8.226562 16.457031 7.851562 15.992188 7.851562 Z M 15.992188 7.851562 "/>
<path style=" stroke:none;fill-rule:nonzero;fill:rgb(79.607844%,66.274512%,30.980393%);fill-opacity:1;" d="M 10.957031 14.785156 C 7.957031 14.785156 5.527344 12.132812 5.527344 8.859375 C 5.527344 8.632812 5.695312 8.453125 5.90625 8.453125 C 6.117188 8.453125 6.28125 8.632812 6.28125 8.859375 C 6.28125 11.679688 8.378906 13.957031 10.957031 13.957031 C 13.535156 13.957031 15.628906 11.664062 15.628906 8.859375 C 15.628906 8.632812 15.796875 8.453125 16.007812 8.453125 C 16.21875 8.453125 16.382812 8.632812 16.382812 8.859375 C 16.382812 12.132812 13.941406 14.785156 10.957031 14.785156 Z M 10.957031 14.785156 "/>
<path style=" stroke:none;fill-rule:nonzero;fill:rgb(40.784314%,34.901962%,34.901962%);fill-opacity:1;" d="M 10.957031 14.316406 C 7.957031 14.316406 5.527344 11.859375 5.527344 8.828125 C 5.527344 8.617188 5.695312 8.453125 5.90625 8.453125 C 6.117188 8.453125 6.28125 8.617188 6.28125 8.828125 C 6.28125 11.4375 8.378906 13.5625 10.957031 13.5625 C 13.535156 13.5625 15.628906 11.4375 15.628906 8.828125 C 15.628906 8.617188 15.796875 8.453125 16.007812 8.453125 C 16.21875 8.453125 16.382812 8.617188 16.382812 8.828125 C 16.382812 11.859375 13.941406 14.316406 10.957031 14.316406 Z M 10.957031 14.316406 "/>
</g>
</svg>
