<?xml version="1.0" encoding="UTF-8"?>
<svg xmlns="http://www.w3.org/2000/svg" xmlns:xlink="http://www.w3.org/1999/xlink" width="22px" height="22px" viewBox="0 0 22 22" version="1.1">
<g id="surface1">
<path style=" stroke:none;fill-rule:nonzero;fill:rgb(88.627452%,34.117648%,29.803923%);fill-opacity:1;" d="M 2.953125 0.332031 L 14.238281 0.332031 L 20.21875 6.289062 L 20.21875 20.253906 C 20.21875 20.988281 19.625 21.582031 18.890625 21.582031 L 2.953125 21.582031 C 2.21875 21.582031 1.625 20.988281 1.625 20.253906 L 1.625 1.660156 C 1.625 0.925781 2.21875 0.332031 2.953125 0.332031 Z M 2.953125 0.332031 "/>
<path style="fill-rule:nonzero;fill:rgb(70.980394%,21.176471%,16.078432%);fill-opacity:1;stroke-width:0.149924;stroke-linecap:butt;stroke-linejoin:miter;stroke:rgb(0%,0%,0%);stroke-opacity:1;stroke-miterlimit:4;" d="M 44.079545 13.764205 L 33.971591 13.764205 C 32.377841 13.764205 31.073864 12.460227 31.073864 10.866477 L 31.073864 0.75 Z M 44.079545 13.764205 " transform="matrix(0.458333,0,0,0.458333,0,0)"/>
<path style="fill:none;stroke-width:0.15;stroke-linecap:round;stroke-linejoin:round;stroke:rgb(0%,0%,0%);stroke-opacity:1;stroke-miterlimit:4;" d="M 6.443182 0.724432 L 31.065341 0.724432 L 44.113636 13.721591 L 44.113636 44.190341 C 44.113636 45.792614 42.818182 47.088068 41.215909 47.088068 L 6.443182 47.088068 C 4.840909 47.088068 3.545455 45.792614 3.545455 44.190341 L 3.545455 3.622159 C 3.545455 2.019886 4.840909 0.724432 6.443182 0.724432 Z M 6.443182 0.724432 " transform="matrix(0.458333,0,0,0.458333,0,0)"/>
<path style=" stroke:none;fill-rule:nonzero;fill:rgb(100%,100%,100%);fill-opacity:1;" d="M 8.96875 9.613281 L 7.773438 9.613281 C 7.433594 9.613281 7.246094 9.824219 7.246094 10.140625 L 7.246094 13.941406 C 7.246094 14.277344 7.460938 14.46875 7.753906 14.46875 C 8.042969 14.46875 8.257812 14.277344 8.257812 13.941406 L 8.257812 12.832031 L 9.007812 12.832031 C 9.933594 12.832031 10.699219 12.214844 10.699219 11.230469 C 10.699219 10.261719 9.964844 9.613281 8.96875 9.613281 Z M 8.949219 11.941406 L 8.257812 11.941406 L 8.257812 10.507812 L 8.949219 10.507812 C 9.375 10.507812 9.644531 10.816406 9.644531 11.222656 C 9.644531 11.628906 9.375 11.941406 8.949219 11.941406 Z M 13.019531 10.945312 C 13.019531 10.660156 13.285156 10.507812 13.574219 10.507812 C 13.980469 10.507812 14.195312 10.710938 14.472656 10.710938 C 14.75 10.710938 14.925781 10.472656 14.925781 10.210938 C 14.925781 9.675781 13.980469 9.535156 13.601562 9.535156 C 12.703125 9.535156 11.925781 10.121094 11.925781 11.070312 C 11.925781 12.636719 14.183594 12.15625 14.183594 12.953125 C 14.183594 13.285156 13.941406 13.535156 13.492188 13.535156 C 13.054688 13.535156 12.675781 13.273438 12.355469 13.273438 C 12.078125 13.273438 11.902344 13.488281 11.902344 13.753906 C 11.902344 14.386719 13.027344 14.507812 13.546875 14.507812 C 14.480469 14.507812 15.277344 13.90625 15.277344 12.941406 C 15.277344 11.195312 13.019531 11.640625 13.019531 10.945312 Z M 13.019531 10.945312 "/>
</g>
</svg>
