<?xml version="1.0" encoding="UTF-8"?>
<svg xmlns="http://www.w3.org/2000/svg" xmlns:xlink="http://www.w3.org/1999/xlink" width="22px" height="22px" viewBox="0 0 22 22" version="1.1">
<g id="surface1">
<path style=" stroke:none;fill-rule:nonzero;fill:rgb(14.901961%,65.098041%,81.960785%);fill-opacity:1;" d="M 3.316406 0.277344 L 14.761719 0.277344 L 20.828125 6.320312 L 20.828125 20.484375 C 20.828125 21.230469 20.222656 21.832031 19.480469 21.832031 L 3.316406 21.832031 C 2.570312 21.832031 1.96875 21.230469 1.96875 20.484375 L 1.96875 1.625 C 1.96875 0.882812 2.570312 0.277344 3.316406 0.277344 Z M 3.316406 0.277344 "/>
<path style="fill-rule:nonzero;fill:rgb(11.764706%,49.411765%,62.7451%);fill-opacity:1;stroke-width:1;stroke-linecap:butt;stroke-linejoin:miter;stroke:rgb(0%,0%,0%);stroke-opacity:1;stroke-miterlimit:4;" d="M 289.669005 86.972591 L 222.294477 86.972591 C 211.588542 86.972591 202.956531 78.34058 202.956531 67.634644 L 202.956531 0.204065 Z M 289.669005 86.972591 " transform="matrix(0.0696897,0,0,0.0696897,0.62164,0.278748)"/>
<path style="fill:none;stroke-width:0.999669;stroke-linecap:round;stroke-linejoin:round;stroke:rgb(0%,0%,0%);stroke-opacity:1;stroke-miterlimit:4;" d="M 38.668062 -0.0201432 L 202.900479 -0.0201432 L 289.949265 86.692331 L 289.949265 289.936953 C 289.949265 300.642889 281.261202 309.2749 270.611318 309.2749 L 38.668062 309.2749 C 27.962126 309.2749 19.330115 300.642889 19.330115 289.936953 L 19.330115 19.317804 C 19.330115 8.66792 27.962126 -0.0201432 38.668062 -0.0201432 Z M 38.668062 -0.0201432 " transform="matrix(0.0696897,0,0,0.0696897,0.62164,0.278748)"/>
<path style=" stroke:none;fill-rule:nonzero;fill:rgb(100%,100%,100%);fill-opacity:1;" d="M 11.796875 8.925781 L 16.453125 8.925781 L 16.453125 9.84375 L 11.796875 9.84375 Z M 11.796875 8.925781 "/>
<path style=" stroke:none;fill-rule:nonzero;fill:rgb(100%,100%,100%);fill-opacity:1;" d="M 6.417969 12.59375 L 16.410156 12.59375 L 16.410156 13.511719 L 6.417969 13.511719 Z M 6.417969 12.59375 "/>
<path style=" stroke:none;fill-rule:nonzero;fill:rgb(100%,100%,100%);fill-opacity:1;" d="M 6.417969 16.261719 L 11.742188 16.261719 L 11.742188 17.175781 L 6.417969 17.175781 Z M 6.417969 16.261719 "/>
<path style=" stroke:none;fill-rule:nonzero;fill:rgb(100%,100%,100%);fill-opacity:1;" d="M 11.8125 10.761719 L 16.453125 10.761719 L 16.453125 11.675781 L 11.8125 11.675781 Z M 11.8125 10.761719 "/>
<path style=" stroke:none;fill-rule:nonzero;fill:rgb(100%,100%,100%);fill-opacity:1;" d="M 11.765625 7.09375 L 16.453125 7.09375 L 16.453125 8.011719 L 11.765625 8.011719 Z M 11.765625 7.09375 "/>
<path style=" stroke:none;fill-rule:nonzero;fill:rgb(100%,100%,100%);fill-opacity:1;" d="M 8.808594 7.210938 C 9.058594 7.210938 9.265625 7.425781 9.425781 7.855469 C 10.425781 9.816406 10.957031 10.871094 11.019531 11.019531 L 11.019531 11.179688 C 11.019531 11.300781 10.902344 11.449219 10.664062 11.625 L 10.523438 11.664062 L 10.445312 11.664062 C 10.222656 11.664062 10.042969 11.496094 9.90625 11.15625 L 9.761719 10.878906 L 7.808594 10.878906 C 7.609375 11.359375 7.460938 11.597656 7.367188 11.597656 C 7.324219 11.640625 7.257812 11.664062 7.160156 11.664062 L 7.050781 11.664062 C 6.890625 11.664062 6.742188 11.546875 6.609375 11.308594 L 6.582031 11.195312 L 6.582031 11.074219 C 6.582031 11.007812 6.792969 10.554688 7.210938 9.710938 C 7.757812 8.554688 8.144531 7.78125 8.371094 7.390625 C 8.480469 7.28125 8.589844 7.21875 8.699219 7.210938 Z M 8.34375 9.820312 L 9.210938 9.820312 L 8.78125 8.941406 C 8.710938 9.046875 8.5625 9.339844 8.34375 9.820312 Z M 8.34375 9.820312 "/>
<path style=" stroke:none;fill-rule:nonzero;fill:rgb(100%,100%,100%);fill-opacity:1;" d="M 6.417969 14.425781 L 16.410156 14.425781 L 16.410156 15.34375 L 6.417969 15.34375 Z M 6.417969 14.425781 "/>
</g>
</svg>
