<?xml version="1.0" encoding="UTF-8"?>
<svg xmlns="http://www.w3.org/2000/svg" xmlns:xlink="http://www.w3.org/1999/xlink" width="22px" height="22px" viewBox="0 0 22 22" version="1.1">
<g id="surface1">
<path style=" stroke:none;fill-rule:nonzero;fill:rgb(88.627452%,34.117648%,29.803923%);fill-opacity:1;" d="M 2.953125 0.332031 L 14.238281 0.332031 L 20.21875 6.289062 L 20.21875 20.253906 C 20.21875 20.988281 19.625 21.582031 18.890625 21.582031 L 2.953125 21.582031 C 2.21875 21.582031 1.625 20.988281 1.625 20.253906 L 1.625 1.660156 C 1.625 0.925781 2.21875 0.332031 2.953125 0.332031 Z M 2.953125 0.332031 "/>
<path style="fill-rule:nonzero;fill:rgb(70.980394%,21.176471%,16.078432%);fill-opacity:1;stroke-width:1;stroke-linecap:butt;stroke-linejoin:miter;stroke:rgb(0%,0%,0%);stroke-opacity:1;stroke-miterlimit:4;" d="M 289.686187 86.99282 L 222.265823 86.99282 C 211.635462 86.99282 202.937893 78.295251 202.937893 67.66489 L 202.937893 0.187679 Z M 289.686187 86.99282 " transform="matrix(0.0687153,0,0,0.0687153,0.297244,0.330854)"/>
<path style=" stroke:none;fill-rule:nonzero;fill:rgb(100%,100%,100%);fill-opacity:1;" d="M 15.238281 10.402344 C 15.460938 10.402344 15.570312 10.207031 15.570312 10.019531 C 15.570312 9.824219 15.457031 9.636719 15.238281 9.636719 L 13.972656 9.636719 C 13.722656 9.636719 13.585938 9.839844 13.585938 10.066406 L 13.585938 13.183594 C 13.585938 13.460938 13.742188 13.613281 13.957031 13.613281 C 14.167969 13.613281 14.328125 13.460938 14.328125 13.183594 L 14.328125 12.328125 L 15.09375 12.328125 C 15.332031 12.328125 15.453125 12.132812 15.453125 11.9375 C 15.453125 11.75 15.332031 11.5625 15.09375 11.5625 L 14.328125 11.5625 L 14.328125 10.402344 C 14.328125 10.402344 15.238281 10.402344 15.238281 10.402344 Z M 10.957031 9.636719 L 10.027344 9.636719 C 9.777344 9.636719 9.597656 9.808594 9.597656 10.066406 L 9.597656 13.183594 C 9.597656 13.503906 9.855469 13.601562 10.039062 13.601562 L 11.011719 13.601562 C 12.164062 13.601562 12.921875 12.84375 12.921875 11.675781 C 12.921875 10.4375 12.207031 9.636719 10.957031 9.636719 Z M 11 12.832031 L 10.433594 12.832031 L 10.433594 10.40625 L 10.945312 10.40625 C 11.714844 10.40625 12.050781 10.921875 12.050781 11.636719 C 12.050781 12.304688 11.722656 12.832031 11 12.832031 Z M 7.605469 9.636719 L 6.683594 9.636719 C 6.425781 9.636719 6.28125 9.808594 6.28125 10.066406 L 6.28125 13.183594 C 6.28125 13.460938 6.445312 13.613281 6.671875 13.613281 C 6.894531 13.613281 7.058594 13.460938 7.058594 13.183594 L 7.058594 12.273438 L 7.636719 12.273438 C 8.34375 12.273438 8.933594 11.769531 8.933594 10.960938 C 8.933594 10.167969 8.367188 9.636719 7.605469 9.636719 Z M 7.589844 11.542969 L 7.058594 11.542969 L 7.058594 10.367188 L 7.589844 10.367188 C 7.914062 10.367188 8.125 10.621094 8.125 10.957031 C 8.121094 11.289062 7.914062 11.542969 7.589844 11.542969 Z M 7.589844 11.542969 "/>
<path style="fill:none;stroke-width:1.000504;stroke-linecap:round;stroke-linejoin:round;stroke:rgb(0%,0%,0%);stroke-opacity:1;stroke-miterlimit:4;" d="M 38.650495 0.0171383 L 202.881047 0.0171383 L 289.913575 86.708585 L 289.913575 289.936076 C 289.913575 300.623284 281.272853 309.264005 270.585646 309.264005 L 38.650495 309.264005 C 27.963287 309.264005 19.322566 300.623284 19.322566 289.936076 L 19.322566 19.345067 C 19.322566 8.65786 27.963287 0.0171383 38.650495 0.0171383 Z M 38.650495 0.0171383 " transform="matrix(0.0687153,0,0,0.0687153,0.297244,0.330854)"/>
</g>
</svg>
