<?xml version="1.0" encoding="UTF-8"?>
<svg xmlns="http://www.w3.org/2000/svg" xmlns:xlink="http://www.w3.org/1999/xlink" width="22px" height="22px" viewBox="0 0 22 22" version="1.1">
<g id="surface1">
<path style="fill:none;stroke-width:1.001992;stroke-linecap:round;stroke-linejoin:round;stroke:rgb(0%,0%,0%);stroke-opacity:1;stroke-miterlimit:4;" d="M 38.646166 -0.0122572 L 202.909922 -0.0122572 L 289.925618 86.724364 L 289.925618 289.94704 C 289.925618 300.607718 281.274282 309.259054 270.613603 309.259054 L 38.646166 309.259054 C 27.985487 309.259054 19.334151 300.607718 19.334151 289.94704 L 19.334151 19.355573 C 19.334151 8.639079 27.985487 -0.0122572 38.646166 -0.0122572 Z M 38.646166 -0.0122572 " transform="matrix(0.0699856,0,0,0.0699856,0.498451,0.211795)"/>
<path style=" stroke:none;fill-rule:nonzero;fill:rgb(21.568628%,44.313726%,78.431374%);fill-opacity:1;" d="M 3.203125 0.210938 L 14.699219 0.210938 L 20.789062 6.28125 L 20.789062 20.503906 C 20.789062 21.25 20.183594 21.855469 19.4375 21.855469 L 3.203125 21.855469 C 2.457031 21.855469 1.851562 21.25 1.851562 20.503906 L 1.851562 1.566406 C 1.851562 0.816406 2.457031 0.210938 3.203125 0.210938 Z M 3.203125 0.210938 "/>
<path style=" stroke:none;fill-rule:nonzero;fill:rgb(100%,100%,100%);fill-opacity:1;" d="M 6.546875 9.613281 L 5.347656 9.613281 C 5.011719 9.613281 4.820312 9.824219 4.820312 10.140625 L 4.820312 13.941406 C 4.820312 14.277344 5.039062 14.46875 5.328125 14.46875 C 5.617188 14.46875 5.835938 14.277344 5.835938 13.941406 L 5.835938 12.832031 L 6.585938 12.832031 C 7.511719 12.832031 8.277344 12.214844 8.277344 11.230469 C 8.277344 10.261719 7.539062 9.613281 6.546875 9.613281 Z M 6.527344 11.941406 L 5.835938 11.941406 L 5.835938 10.507812 L 6.527344 10.507812 C 6.953125 10.507812 7.222656 10.816406 7.222656 11.222656 C 7.222656 11.628906 6.953125 11.941406 6.527344 11.941406 Z M 10.597656 10.945312 C 10.597656 10.660156 10.859375 10.507812 11.152344 10.507812 C 11.554688 10.507812 11.773438 10.710938 12.050781 10.710938 C 12.324219 10.710938 12.503906 10.472656 12.503906 10.210938 C 12.503906 9.675781 11.554688 9.535156 11.175781 9.535156 C 10.277344 9.535156 9.5 10.121094 9.5 11.070312 C 9.5 12.636719 11.757812 12.15625 11.757812 12.953125 C 11.757812 13.285156 11.515625 13.535156 11.070312 13.535156 C 10.628906 13.535156 10.25 13.273438 9.933594 13.273438 C 9.65625 13.273438 9.480469 13.488281 9.480469 13.753906 C 9.480469 14.386719 10.601562 14.507812 11.121094 14.507812 C 12.054688 14.507812 12.855469 13.90625 12.855469 12.941406 C 12.855469 11.195312 10.597656 11.640625 10.597656 10.945312 Z M 10.597656 10.945312 "/>
<path style=" stroke:none;fill-rule:nonzero;fill:rgb(12.941177%,26.666668%,47.058824%);fill-opacity:1;" d="M 20.769531 6.300781 L 16.054688 6.300781 C 15.308594 6.300781 14.703125 5.691406 14.703125 4.945312 L 14.703125 0.226562 Z M 20.769531 6.300781 "/>
<path style=" stroke:none;fill-rule:nonzero;fill:rgb(100%,100%,100%);fill-opacity:1;" d="M 15.78125 9.625 C 16.410156 9.625 17 9.917969 17.546875 10.5 C 17.917969 10.988281 18.105469 11.46875 18.105469 11.945312 L 18.105469 12.179688 C 18.105469 12.808594 17.8125 13.394531 17.234375 13.9375 C 16.738281 14.308594 16.253906 14.496094 15.78125 14.496094 L 14.59375 14.496094 C 14.378906 14.496094 14.210938 14.34375 14.09375 14.042969 L 14.09375 10.125 C 14.09375 9.910156 14.246094 9.742188 14.546875 9.625 Z M 15.253906 10.769531 L 15.253906 12.132812 L 15.238281 13.351562 C 15.828125 13.351562 16.1875 13.289062 16.316406 13.160156 C 16.730469 12.890625 16.9375 12.546875 16.9375 12.121094 L 16.9375 12.003906 C 16.9375 11.507812 16.667969 11.128906 16.125 10.859375 C 15.972656 10.800781 15.730469 10.769531 15.398438 10.769531 Z M 15.253906 10.769531 "/>
</g>
</svg>
