<?xml version="1.0" encoding="UTF-8"?>
<svg xmlns="http://www.w3.org/2000/svg" xmlns:xlink="http://www.w3.org/1999/xlink" width="22px" height="22px" viewBox="0 0 22 22" version="1.1">
<g id="surface1">
<path style="fill-rule:nonzero;fill:rgb(50.196081%,50.196081%,50.196081%);fill-opacity:1;stroke-width:0.999669;stroke-linecap:round;stroke-linejoin:round;stroke:rgb(0%,0%,0%);stroke-opacity:1;stroke-miterlimit:4;" d="M 38.668062 -0.0201436 L 202.900479 -0.0201436 L 289.949265 86.69233 L 289.949265 289.936953 C 289.949265 300.642888 281.261202 309.274899 270.611318 309.274899 L 38.668062 309.274899 C 27.962126 309.274899 19.330115 300.642888 19.330115 289.936953 L 19.330115 19.317803 C 19.330115 8.667919 27.962126 -0.0201436 38.668062 -0.0201436 Z M 38.668062 -0.0201436 " transform="matrix(0.0696897,0,0,0.0696897,0.62164,0.278748)"/>
<path style=" stroke:none;fill-rule:nonzero;fill:rgb(50.196081%,50.196081%,50.196081%);fill-opacity:1;" d="M 3.316406 0.277344 L 14.761719 0.277344 L 20.828125 6.320312 L 20.828125 20.484375 C 20.828125 21.230469 20.222656 21.832031 19.480469 21.832031 L 3.316406 21.832031 C 2.570312 21.832031 1.96875 21.230469 1.96875 20.484375 L 1.96875 1.625 C 1.96875 0.882812 2.570312 0.277344 3.316406 0.277344 Z M 3.316406 0.277344 "/>
<path style="fill-rule:nonzero;fill:rgb(30.19608%,30.19608%,30.19608%);fill-opacity:1;stroke-width:1;stroke-linecap:butt;stroke-linejoin:miter;stroke:rgb(0%,0%,0%);stroke-opacity:1;stroke-miterlimit:4;" d="M 289.669005 86.97259 L 222.294477 86.97259 C 211.588542 86.97259 202.956531 78.340579 202.956531 67.634644 L 202.956531 0.204065 Z M 289.669005 86.97259 " transform="matrix(0.0696897,0,0,0.0696897,0.62164,0.278748)"/>
<path style=" stroke:none;fill-rule:nonzero;fill:rgb(94.901961%,94.901961%,94.901961%);fill-opacity:1;" d="M 7.792969 6.394531 L 14.667969 6.394531 L 14.667969 8.230469 L 13.75 7.3125 L 9.167969 7.3125 L 11.917969 10.0625 L 9.167969 12.8125 L 13.75 12.8125 L 14.667969 11.894531 L 14.667969 13.730469 L 7.792969 13.730469 L 7.792969 12.8125 L 10.542969 10.0625 L 7.792969 7.3125 Z M 7.792969 6.394531 "/>
<path style=" stroke:none;fill-rule:nonzero;fill:rgb(94.901961%,94.901961%,94.901961%);fill-opacity:1;" d="M 7.792969 14.636719 L 8.25 15.292969 L 7.792969 16.011719 L 8.25 16.011719 L 8.464844 15.550781 L 8.707031 16.011719 L 9.167969 16.011719 L 8.707031 15.292969 L 9.167969 14.636719 L 8.707031 14.636719 L 8.480469 15.09375 L 8.25 14.636719 Z M 9.625 14.636719 L 9.625 15.09375 L 9.167969 15.09375 L 9.167969 15.550781 L 9.625 15.550781 L 9.625 16.011719 L 10.082031 16.011719 L 10.082031 15.550781 L 10.542969 15.550781 L 10.542969 15.09375 L 10.082031 15.09375 L 10.082031 14.636719 Z M 10.542969 14.636719 L 11 15.550781 L 11 16.011719 L 10.542969 16.011719 L 10.542969 16.46875 L 11 16.46875 L 11.457031 16.011719 L 11.457031 15.550781 L 11.917969 14.636719 L 11.457031 14.636719 L 11.230469 15.09375 L 11 14.636719 Z M 12.144531 14.636719 L 12.144531 15.09375 L 12.832031 15.09375 L 12.832031 14.636719 Z M 13.292969 14.636719 L 13.292969 15.09375 L 13.980469 15.09375 L 13.292969 15.550781 L 13.292969 16.011719 L 14.667969 16.011719 L 14.667969 15.550781 L 13.980469 15.550781 L 14.667969 15.09375 L 14.667969 14.636719 Z M 12.144531 15.550781 L 12.160156 16.011719 L 12.832031 16.011719 L 12.832031 15.550781 Z M 12.144531 15.550781 "/>
</g>
</svg>
