<?xml version="1.0" encoding="UTF-8"?>
<svg xmlns="http://www.w3.org/2000/svg" xmlns:xlink="http://www.w3.org/1999/xlink" width="22px" height="22px" viewBox="0 0 22 22" version="1.1">
<g id="surface1">
<path style=" stroke:none;fill-rule:nonzero;fill:rgb(90.196079%,90.196079%,90.196079%);fill-opacity:1;" d="M 2.953125 0.332031 L 14.238281 0.332031 L 20.21875 6.289062 L 20.21875 20.253906 C 20.21875 20.988281 19.625 21.582031 18.890625 21.582031 L 2.953125 21.582031 C 2.21875 21.582031 1.625 20.988281 1.625 20.253906 L 1.625 1.660156 C 1.625 0.925781 2.21875 0.332031 2.953125 0.332031 Z M 2.953125 0.332031 "/>
<path style=" stroke:none;fill-rule:nonzero;fill:rgb(40.000001%,40.000001%,40.000001%);fill-opacity:1;" d="M 13.425781 11.402344 L 13.875 11.402344 L 13.761719 11.726562 L 13.3125 11.726562 Z M 12.394531 12.375 L 12.148438 13.082031 C 12.121094 13.167969 12.125 13.25 12.164062 13.332031 C 12.203125 13.414062 12.265625 13.46875 12.351562 13.496094 C 12.382812 13.507812 12.417969 13.515625 12.457031 13.515625 C 12.609375 13.515625 12.710938 13.441406 12.761719 13.296875 L 13.085938 12.375 L 13.535156 12.375 L 13.289062 13.082031 C 13.257812 13.167969 13.261719 13.25 13.300781 13.332031 C 13.339844 13.414062 13.402344 13.46875 13.484375 13.496094 C 13.523438 13.507812 13.558594 13.515625 13.59375 13.515625 C 13.75 13.515625 13.851562 13.441406 13.902344 13.296875 L 14.222656 12.375 L 14.8125 12.375 C 14.902344 12.375 14.980469 12.34375 15.042969 12.28125 C 15.105469 12.21875 15.136719 12.140625 15.136719 12.054688 C 15.136719 11.964844 15.105469 11.886719 15.042969 11.824219 C 14.980469 11.757812 14.902344 11.726562 14.8125 11.726562 L 14.449219 11.726562 L 14.5625 11.402344 L 14.976562 11.402344 C 15.066406 11.402344 15.140625 11.371094 15.207031 11.304688 C 15.269531 11.242188 15.300781 11.167969 15.300781 11.078125 C 15.300781 10.988281 15.269531 10.910156 15.207031 10.847656 C 15.140625 10.785156 15.066406 10.75 14.976562 10.75 L 14.792969 10.75 L 15.039062 10.046875 C 15.070312 9.964844 15.0625 9.878906 15.023438 9.796875 C 14.984375 9.71875 14.925781 9.664062 14.839844 9.632812 C 14.753906 9.601562 14.671875 9.609375 14.589844 9.644531 C 14.511719 9.6875 14.453125 9.75 14.425781 9.832031 L 14.101562 10.75 L 13.652344 10.75 L 13.902344 10.046875 C 13.929688 9.964844 13.925781 9.878906 13.886719 9.796875 C 13.847656 9.71875 13.785156 9.664062 13.699219 9.632812 C 13.617188 9.601562 13.535156 9.609375 13.453125 9.644531 C 13.371094 9.6875 13.316406 9.75 13.289062 9.832031 L 12.964844 10.75 L 12.375 10.75 C 12.285156 10.75 12.210938 10.785156 12.144531 10.847656 C 12.082031 10.910156 12.050781 10.988281 12.050781 11.078125 C 12.050781 11.167969 12.082031 11.242188 12.144531 11.304688 C 12.210938 11.371094 12.285156 11.402344 12.375 11.402344 L 12.738281 11.402344 L 12.625 11.726562 L 12.214844 11.726562 C 12.125 11.726562 12.046875 11.757812 11.984375 11.824219 C 11.917969 11.886719 11.886719 11.964844 11.886719 12.054688 C 11.886719 12.140625 11.917969 12.21875 11.984375 12.28125 C 12.046875 12.34375 12.125 12.375 12.214844 12.375 Z M 12.394531 12.375 "/>
<path style="fill-rule:nonzero;fill:rgb(60.000002%,60.000002%,60.000002%);fill-opacity:1;stroke-width:0.149924;stroke-linecap:butt;stroke-linejoin:miter;stroke:rgb(0%,0%,0%);stroke-opacity:1;stroke-miterlimit:4;" d="M 44.079545 13.764205 L 33.971591 13.764205 C 32.377841 13.764205 31.073864 12.460227 31.073864 10.866477 L 31.073864 0.75 Z M 44.079545 13.764205 " transform="matrix(0.458333,0,0,0.458333,0,0)"/>
<path style="fill:none;stroke-width:0.15;stroke-linecap:round;stroke-linejoin:round;stroke:rgb(0%,0%,0%);stroke-opacity:1;stroke-miterlimit:4;" d="M 6.443182 0.724432 L 31.065341 0.724432 L 44.113636 13.721591 L 44.113636 44.190341 C 44.113636 45.792614 42.818182 47.088068 41.215909 47.088068 L 6.443182 47.088068 C 4.840909 47.088068 3.545455 45.792614 3.545455 44.190341 L 3.545455 3.622159 C 3.545455 2.019886 4.840909 0.724432 6.443182 0.724432 Z M 6.443182 0.724432 " transform="matrix(0.458333,0,0,0.458333,0,0)"/>
<path style=" stroke:none;fill-rule:nonzero;fill:rgb(40.000001%,40.000001%,40.000001%);fill-opacity:1;" d="M 8.808594 14.464844 C 9.628906 14.464844 10.328125 14.175781 10.90625 13.597656 C 11.003906 13.5 11.050781 13.382812 11.050781 13.246094 C 11.050781 13.109375 11.003906 12.992188 10.90625 12.898438 C 10.808594 12.800781 10.695312 12.753906 10.558594 12.753906 C 10.421875 12.753906 10.304688 12.800781 10.207031 12.898438 C 9.820312 13.285156 9.355469 13.476562 8.808594 13.476562 C 8.257812 13.476562 7.789062 13.285156 7.40625 12.898438 C 7.019531 12.511719 6.824219 12.042969 6.824219 11.492188 C 6.824219 10.949219 7.019531 10.480469 7.40625 10.09375 C 7.789062 9.707031 8.257812 9.515625 8.808594 9.515625 C 9.355469 9.515625 9.820312 9.707031 10.207031 10.09375 C 10.304688 10.191406 10.421875 10.238281 10.558594 10.238281 C 10.695312 10.238281 10.808594 10.191406 10.90625 10.09375 C 11.003906 10 11.050781 9.878906 11.050781 9.742188 C 11.050781 9.609375 11.003906 9.492188 10.90625 9.394531 C 10.328125 8.816406 9.628906 8.527344 8.808594 8.527344 C 7.984375 8.527344 7.285156 8.816406 6.703125 9.394531 C 6.125 9.972656 5.835938 10.675781 5.835938 11.492188 C 5.835938 12.316406 6.125 13.015625 6.703125 13.597656 C 7.285156 14.175781 7.984375 14.464844 8.808594 14.464844 Z M 8.808594 14.464844 "/>
</g>
</svg>
