<?xml version="1.0" encoding="UTF-8"?>
<svg xmlns="http://www.w3.org/2000/svg" xmlns:xlink="http://www.w3.org/1999/xlink" width="22px" height="22px" viewBox="0 0 22 22" version="1.1">
<g id="surface1">
<path style=" stroke:none;fill-rule:nonzero;fill:rgb(90.196079%,90.196079%,90.196079%);fill-opacity:1;" d="M 2.953125 0.332031 L 14.238281 0.332031 L 20.21875 6.289062 L 20.21875 20.253906 C 20.21875 20.988281 19.625 21.582031 18.890625 21.582031 L 2.953125 21.582031 C 2.21875 21.582031 1.625 20.988281 1.625 20.253906 L 1.625 1.660156 C 1.625 0.925781 2.21875 0.332031 2.953125 0.332031 Z M 2.953125 0.332031 "/>
<path style="fill-rule:nonzero;fill:rgb(60.000002%,60.000002%,60.000002%);fill-opacity:1;stroke-width:0.149924;stroke-linecap:butt;stroke-linejoin:miter;stroke:rgb(0%,0%,0%);stroke-opacity:1;stroke-miterlimit:4;" d="M 44.079545 13.764205 L 33.971591 13.764205 C 32.377841 13.764205 31.073864 12.460227 31.073864 10.866477 L 31.073864 0.75 Z M 44.079545 13.764205 " transform="matrix(0.458333,0,0,0.458333,0,0)"/>
<path style="fill:none;stroke-width:0.15;stroke-linecap:round;stroke-linejoin:round;stroke:rgb(0%,0%,0%);stroke-opacity:1;stroke-miterlimit:4;" d="M 6.443182 0.724432 L 31.065341 0.724432 L 44.113636 13.721591 L 44.113636 44.190341 C 44.113636 45.792614 42.818182 47.088068 41.215909 47.088068 L 6.443182 47.088068 C 4.840909 47.088068 3.545455 45.792614 3.545455 44.190341 L 3.545455 3.622159 C 3.545455 2.019886 4.840909 0.724432 6.443182 0.724432 Z M 6.443182 0.724432 " transform="matrix(0.458333,0,0,0.458333,0,0)"/>
<path style=" stroke:none;fill-rule:nonzero;fill:rgb(40.000001%,40.000001%,40.000001%);fill-opacity:1;" d="M 8.691406 7.078125 C 8.140625 7.078125 7.980469 7.269531 7.980469 7.792969 L 7.980469 9.574219 L 10.652344 9.574219 L 7.265625 9.574219 C 6.667969 9.574219 6.199219 9.929688 6.199219 10.820312 L 6.199219 12.960938 C 6.199219 13.617188 6.550781 14.03125 7.265625 14.03125 L 8.335938 14.03125 L 8.335938 12.605469 C 8.335938 12.089844 8.703125 11.714844 9.226562 11.714844 L 12.078125 11.714844 C 12.414062 11.714844 12.613281 11.535156 12.613281 11.179688 L 12.613281 7.792969 C 12.613281 7.238281 12.351562 7.078125 11.902344 7.078125 Z M 8.691406 7.078125 "/>
<path style=" stroke:none;fill-rule:nonzero;fill:rgb(100%,100%,100%);fill-opacity:1;" d="M 10.117188 8.328125 C 10.117188 8.621094 9.878906 8.859375 9.585938 8.859375 C 9.289062 8.859375 9.050781 8.621094 9.050781 8.328125 C 9.050781 8.03125 9.289062 7.792969 9.585938 7.792969 C 9.878906 7.792969 10.117188 8.03125 10.117188 8.328125 Z M 10.117188 8.328125 "/>
<path style=" stroke:none;fill-rule:nonzero;fill:rgb(40.000001%,40.000001%,40.000001%);fill-opacity:1;" d="M 12.578125 16.703125 C 13.132812 16.703125 13.292969 16.515625 13.292969 15.992188 L 13.292969 14.207031 L 10.617188 14.207031 L 14.003906 14.207031 C 14.605469 14.207031 15.074219 13.855469 15.074219 12.960938 L 15.074219 10.820312 C 15.074219 10.164062 14.722656 9.753906 14.003906 9.753906 L 12.972656 9.753906 L 12.972656 11.179688 C 12.972656 11.707031 12.652344 12.070312 12.078125 12.070312 L 9.226562 12.070312 C 8.902344 12.070312 8.691406 12.261719 8.691406 12.605469 L 8.691406 15.992188 C 8.691406 16.542969 8.921875 16.703125 9.371094 16.703125 Z M 12.578125 16.703125 "/>
<path style=" stroke:none;fill-rule:nonzero;fill:rgb(100%,100%,100%);fill-opacity:1;" d="M 11.152344 15.457031 C 11.152344 15.160156 11.390625 14.921875 11.6875 14.921875 C 11.984375 14.921875 12.222656 15.160156 12.222656 15.457031 C 12.222656 15.75 11.984375 15.992188 11.6875 15.992188 C 11.390625 15.992188 11.152344 15.75 11.152344 15.457031 Z M 11.152344 15.457031 "/>
</g>
</svg>
