<?xml version="1.0" encoding="UTF-8"?>
<svg xmlns="http://www.w3.org/2000/svg" xmlns:xlink="http://www.w3.org/1999/xlink" width="22px" height="22px" viewBox="0 0 22 22" version="1.1">
<g id="surface1">
<path style=" stroke:none;fill-rule:nonzero;fill:rgb(90.196079%,90.196079%,90.196079%);fill-opacity:1;" d="M 2.953125 0.332031 L 14.238281 0.332031 L 20.21875 6.289062 L 20.21875 20.253906 C 20.21875 20.988281 19.625 21.582031 18.890625 21.582031 L 2.953125 21.582031 C 2.21875 21.582031 1.625 20.988281 1.625 20.253906 L 1.625 1.660156 C 1.625 0.925781 2.21875 0.332031 2.953125 0.332031 Z M 2.953125 0.332031 "/>
<path style="fill-rule:nonzero;fill:rgb(60.000002%,60.000002%,60.000002%);fill-opacity:1;stroke-width:0.149924;stroke-linecap:butt;stroke-linejoin:miter;stroke:rgb(0%,0%,0%);stroke-opacity:1;stroke-miterlimit:4;" d="M 44.079545 13.764205 L 33.971591 13.764205 C 32.377841 13.764205 31.073864 12.460227 31.073864 10.866477 L 31.073864 0.75 Z M 44.079545 13.764205 " transform="matrix(0.458333,0,0,0.458333,0,0)"/>
<path style="fill:none;stroke-width:0.15;stroke-linecap:round;stroke-linejoin:round;stroke:rgb(0%,0%,0%);stroke-opacity:1;stroke-miterlimit:4;" d="M 6.443182 0.724432 L 31.065341 0.724432 L 44.113636 13.721591 L 44.113636 44.190341 C 44.113636 45.792614 42.818182 47.088068 41.215909 47.088068 L 6.443182 47.088068 C 4.840909 47.088068 3.545455 45.792614 3.545455 44.190341 L 3.545455 3.622159 C 3.545455 2.019886 4.840909 0.724432 6.443182 0.724432 Z M 6.443182 0.724432 " transform="matrix(0.458333,0,0,0.458333,0,0)"/>
<path style=" stroke:none;fill-rule:nonzero;fill:rgb(40.000001%,40.000001%,40.000001%);fill-opacity:1;" d="M 10.640625 14.464844 C 11.460938 14.464844 12.160156 14.175781 12.738281 13.597656 C 12.835938 13.5 12.882812 13.382812 12.882812 13.246094 C 12.882812 13.109375 12.835938 12.992188 12.738281 12.898438 C 12.644531 12.800781 12.527344 12.753906 12.390625 12.753906 C 12.253906 12.753906 12.136719 12.800781 12.039062 12.898438 C 11.652344 13.285156 11.1875 13.476562 10.640625 13.476562 C 10.089844 13.476562 9.625 13.285156 9.238281 12.898438 C 8.851562 12.511719 8.65625 12.042969 8.65625 11.492188 C 8.65625 10.949219 8.851562 10.480469 9.238281 10.09375 C 9.625 9.707031 10.089844 9.515625 10.640625 9.515625 C 11.1875 9.515625 11.652344 9.707031 12.039062 10.09375 C 12.136719 10.191406 12.253906 10.238281 12.390625 10.238281 C 12.527344 10.238281 12.644531 10.191406 12.738281 10.09375 C 12.835938 10 12.882812 9.878906 12.882812 9.742188 C 12.882812 9.609375 12.835938 9.492188 12.738281 9.394531 C 12.160156 8.816406 11.460938 8.527344 10.640625 8.527344 C 9.820312 8.527344 9.117188 8.816406 8.539062 9.394531 C 7.957031 9.972656 7.667969 10.675781 7.667969 11.492188 C 7.667969 12.316406 7.957031 13.015625 8.539062 13.597656 C 9.117188 14.175781 9.820312 14.464844 10.640625 14.464844 Z M 10.640625 14.464844 "/>
</g>
</svg>
