<?xml version="1.0" encoding="UTF-8"?>
<svg xmlns="http://www.w3.org/2000/svg" xmlns:xlink="http://www.w3.org/1999/xlink" width="22px" height="22px" viewBox="0 0 22 22" version="1.1">
<g id="surface1">
<path style=" stroke:none;fill-rule:nonzero;fill:rgb(90.196079%,90.196079%,90.196079%);fill-opacity:1;" d="M 2.953125 0.332031 L 14.238281 0.332031 L 20.21875 6.289062 L 20.21875 20.253906 C 20.21875 20.988281 19.625 21.582031 18.890625 21.582031 L 2.953125 21.582031 C 2.21875 21.582031 1.625 20.988281 1.625 20.253906 L 1.625 1.660156 C 1.625 0.925781 2.21875 0.332031 2.953125 0.332031 Z M 2.953125 0.332031 "/>
<path style="fill-rule:nonzero;fill:rgb(60.000002%,60.000002%,60.000002%);fill-opacity:1;stroke-width:0.149924;stroke-linecap:butt;stroke-linejoin:miter;stroke:rgb(0%,0%,0%);stroke-opacity:1;stroke-miterlimit:4;" d="M 44.079545 13.764205 L 33.971591 13.764205 C 32.377841 13.764205 31.073864 12.460227 31.073864 10.866477 L 31.073864 0.75 Z M 44.079545 13.764205 " transform="matrix(0.458333,0,0,0.458333,0,0)"/>
<path style="fill:none;stroke-width:0.15;stroke-linecap:round;stroke-linejoin:round;stroke:rgb(0%,0%,0%);stroke-opacity:1;stroke-miterlimit:4;" d="M 6.443182 0.724432 L 31.065341 0.724432 L 44.113636 13.721591 L 44.113636 44.190341 C 44.113636 45.792614 42.818182 47.088068 41.215909 47.088068 L 6.443182 47.088068 C 4.840909 47.088068 3.545455 45.792614 3.545455 44.190341 L 3.545455 3.622159 C 3.545455 2.019886 4.840909 0.724432 6.443182 0.724432 Z M 6.443182 0.724432 " transform="matrix(0.458333,0,0,0.458333,0,0)"/>
<path style=" stroke:none;fill-rule:nonzero;fill:rgb(40.000001%,40.000001%,40.000001%);fill-opacity:1;" d="M 4.710938 10.203125 L 4.785156 10.203125 C 4.949219 10.203125 5.074219 10.328125 5.160156 10.582031 L 5.921875 12.113281 C 6.140625 11.65625 6.441406 11.066406 6.820312 10.351562 C 6.894531 10.253906 6.984375 10.203125 7.089844 10.203125 L 7.144531 10.203125 C 7.265625 10.203125 7.378906 10.304688 7.484375 10.503906 L 7.492188 10.542969 L 7.492188 10.65625 L 6.234375 13.160156 C 6.148438 13.269531 6.050781 13.324219 5.941406 13.324219 L 5.875 13.324219 C 5.730469 13.324219 5.605469 13.199219 5.5 12.949219 C 5.222656 12.417969 4.855469 11.660156 4.390625 10.675781 L 4.382812 10.617188 L 4.382812 10.535156 C 4.382812 10.414062 4.46875 10.3125 4.640625 10.222656 Z M 4.710938 10.203125 "/>
<path style=" stroke:none;fill-rule:nonzero;fill:rgb(40.000001%,40.000001%,40.000001%);fill-opacity:1;" d="M 9.511719 10.203125 C 9.6875 10.203125 9.832031 10.355469 9.945312 10.65625 C 10.648438 12.03125 11.019531 12.769531 11.0625 12.875 L 11.0625 12.988281 C 11.0625 13.070312 10.980469 13.175781 10.816406 13.296875 L 10.714844 13.324219 L 10.660156 13.324219 C 10.503906 13.324219 10.378906 13.207031 10.285156 12.96875 L 10.179688 12.777344 L 8.8125 12.777344 C 8.671875 13.109375 8.570312 13.277344 8.503906 13.277344 C 8.472656 13.308594 8.425781 13.324219 8.355469 13.324219 L 8.28125 13.324219 C 8.167969 13.324219 8.066406 13.242188 7.972656 13.078125 L 7.953125 12.996094 L 7.953125 12.910156 C 7.953125 12.863281 8.101562 12.546875 8.394531 11.957031 C 8.777344 11.144531 9.046875 10.605469 9.207031 10.332031 C 9.28125 10.253906 9.359375 10.210938 9.4375 10.203125 Z M 9.1875 12.03125 L 9.796875 12.03125 L 9.496094 11.417969 C 9.445312 11.492188 9.34375 11.699219 9.1875 12.03125 Z M 9.1875 12.03125 "/>
<path style=" stroke:none;fill-rule:nonzero;fill:rgb(40.000001%,40.000001%,40.000001%);fill-opacity:1;" d="M 11.9375 10.203125 C 12.054688 10.203125 12.152344 10.285156 12.238281 10.445312 L 12.265625 10.609375 L 12.257812 12.582031 L 12.257812 12.59375 L 13.402344 12.59375 C 13.542969 12.59375 13.648438 12.6875 13.730469 12.882812 L 13.730469 13.007812 C 13.730469 13.144531 13.628906 13.25 13.433594 13.324219 L 11.84375 13.324219 C 11.707031 13.324219 11.597656 13.226562 11.523438 13.035156 L 11.523438 10.523438 C 11.523438 10.386719 11.621094 10.28125 11.816406 10.203125 Z M 11.9375 10.203125 "/>
<path style=" stroke:none;fill-rule:nonzero;fill:rgb(40.000001%,40.000001%,40.000001%);fill-opacity:1;" d="M 15.746094 10.203125 C 15.921875 10.203125 16.066406 10.355469 16.179688 10.65625 C 16.882812 12.03125 17.253906 12.769531 17.296875 12.875 L 17.296875 12.988281 C 17.296875 13.070312 17.214844 13.175781 17.050781 13.296875 L 16.949219 13.324219 L 16.894531 13.324219 C 16.738281 13.324219 16.613281 13.207031 16.519531 12.96875 L 16.414062 12.777344 L 15.046875 12.777344 C 14.90625 13.109375 14.800781 13.277344 14.738281 13.277344 C 14.707031 13.308594 14.660156 13.324219 14.589844 13.324219 L 14.515625 13.324219 C 14.402344 13.324219 14.300781 13.242188 14.207031 13.078125 L 14.1875 12.996094 L 14.1875 12.910156 C 14.1875 12.863281 14.332031 12.546875 14.628906 11.957031 C 15.011719 11.144531 15.28125 10.605469 15.441406 10.332031 C 15.515625 10.253906 15.59375 10.210938 15.671875 10.203125 Z M 15.421875 12.03125 L 16.027344 12.03125 L 15.726562 11.417969 C 15.679688 11.492188 15.578125 11.699219 15.421875 12.03125 Z M 15.421875 12.03125 "/>
</g>
</svg>
