<?xml version="1.0" encoding="UTF-8"?>
<svg xmlns="http://www.w3.org/2000/svg" xmlns:xlink="http://www.w3.org/1999/xlink" width="24px" height="24px" viewBox="0 0 24 24" version="1.1">
<g id="surface1">
<path style=" stroke:none;fill-rule:nonzero;fill:rgb(36.078432%,38.039216%,42.352942%);fill-opacity:1;" d="M 12 0 C 8.707031 0 6.050781 2.683594 6 6 L 6 7.5 L 9 7.5 L 9 6 C 9 4.339844 10.339844 3 12 3 C 13.660156 3 15 4.339844 15 6 L 15 12 L 4.5 12 C 3.667969 12 3 12.667969 3 13.5 L 3 22.5 C 3 23.332031 3.667969 24 4.5 24 L 19.5 24 C 20.332031 24 21 23.332031 21 22.5 L 21 13.5 C 21 12.667969 20.332031 12 19.5 12 L 18 12 L 18 6.09375 C 18 2.734375 15.324219 0 12 0 Z M 12 0 "/>
</g>
</svg>
