<?xml version="1.0" encoding="UTF-8"?>
<svg xmlns="http://www.w3.org/2000/svg" xmlns:xlink="http://www.w3.org/1999/xlink" width="24px" height="24px" viewBox="0 0 24 24" version="1.1">
<g id="surface1">
<path style=" stroke:none;fill-rule:nonzero;fill:rgb(36.078432%,38.039216%,42.352942%);fill-opacity:1;" d="M 12.179688 1.519531 C 11.636719 1.496094 11.058594 1.503906 10.441406 1.550781 C 0.644531 2.339844 3.242188 12.691406 3.097656 16.15625 C 2.964844 17.988281 2.359375 20.230469 1.5 22.507812 L 4.144531 22.507812 C 4.417969 21.542969 4.621094 20.585938 4.703125 19.675781 C 4.867188 19.785156 5.035156 19.890625 5.214844 19.996094 C 5.515625 20.167969 5.769531 20.402344 6.039062 20.652344 C 6.667969 21.222656 7.386719 21.878906 8.777344 21.957031 C 8.871094 21.964844 8.96875 21.964844 9.058594 21.964844 C 10.472656 21.964844 11.441406 21.34375 12.21875 20.847656 C 12.589844 20.609375 12.910156 20.402344 13.214844 20.304688 C 14.070312 20.035156 14.820312 19.601562 15.382812 19.046875 C 15.472656 18.964844 15.554688 18.875 15.628906 18.785156 C 15.941406 19.929688 16.371094 21.21875 16.84375 22.503906 L 22.5 22.503906 C 21.144531 20.40625 19.742188 18.359375 19.773438 15.738281 L 19.769531 15.738281 C 19.824219 10.878906 20.292969 1.964844 12.179688 1.519531 Z M 12.683594 9.195312 C 14.199219 9.152344 15.46875 10.707031 15.507812 12.664062 C 15.523438 13.550781 15.285156 14.363281 14.878906 14.996094 C 14.792969 14.953125 14.699219 14.910156 14.597656 14.867188 C 14.148438 14.675781 13.785156 14.542969 13.484375 14.4375 C 13.648438 14.113281 13.753906 13.707031 13.765625 13.265625 L 13.765625 13.261719 C 13.785156 12.1875 13.246094 11.316406 12.554688 11.3125 C 11.863281 11.3125 11.28125 12.183594 11.257812 13.257812 C 11.257812 13.292969 11.257812 13.328125 11.257812 13.363281 C 10.832031 13.167969 10.414062 13.027344 10.003906 12.9375 C 10 12.898438 9.996094 12.855469 9.996094 12.8125 C 9.957031 10.859375 11.160156 9.238281 12.683594 9.195312 Z M 5.851562 9.738281 C 6.945312 9.671875 7.914062 10.996094 8.011719 12.6875 C 8.015625 12.777344 8.019531 12.871094 8.019531 12.957031 C 7.671875 13.042969 7.359375 13.171875 7.078125 13.316406 C 7.078125 13.308594 7.078125 13.292969 7.074219 13.277344 C 6.980469 12.320312 6.46875 11.59375 5.933594 11.660156 C 5.390625 11.726562 5.027344 12.558594 5.121094 13.515625 C 5.121094 13.515625 5.121094 13.519531 5.121094 13.519531 C 5.164062 13.9375 5.285156 14.3125 5.449219 14.59375 C 5.410156 14.628906 5.292969 14.714844 5.15625 14.8125 C 5.054688 14.886719 4.929688 14.980469 4.78125 15.089844 C 4.371094 14.550781 4.089844 13.785156 4.042969 12.917969 C 3.945312 11.222656 4.753906 9.800781 5.851562 9.738281 Z M 9.039062 14.023438 C 9.828125 14.023438 10.695312 14.332031 11.625 14.925781 C 12.0625 15.214844 12.441406 15.339844 12.925781 15.507812 C 13.257812 15.621094 13.632812 15.75 14.136719 15.96875 L 14.144531 15.972656 C 14.613281 16.164062 15.167969 16.515625 15.140625 17.097656 C 15.101562 17.992188 13.933594 18.832031 12.851562 19.167969 L 12.847656 19.171875 C 12.394531 19.316406 12 19.574219 11.574219 19.839844 C 10.863281 20.296875 10.125 20.769531 9.058594 20.769531 C 8.992188 20.769531 8.917969 20.769531 8.851562 20.765625 C 7.875 20.710938 7.417969 20.292969 6.839844 19.769531 C 6.535156 19.488281 6.226562 19.203125 5.816406 18.964844 L 5.808594 18.957031 C 4.933594 18.464844 4.390625 17.851562 4.355469 17.3125 C 4.339844 17.050781 4.453125 16.820312 4.703125 16.632812 C 5.25 16.222656 5.617188 15.953125 5.859375 15.777344 C 6.128906 15.578125 6.207031 15.519531 6.269531 15.464844 C 6.3125 15.421875 6.363281 15.375 6.410156 15.328125 C 6.910156 14.84375 7.75 14.023438 9.039062 14.023438 Z M 5.699219 16.496094 C 5.546875 16.519531 5.40625 16.605469 5.316406 16.742188 C 5.128906 17.015625 5.203125 17.386719 5.476562 17.574219 C 6.1875 18.054688 7.445312 18.414062 8.761719 18.507812 C 8.984375 18.523438 9.230469 18.53125 9.488281 18.53125 C 10.636719 18.53125 12.089844 18.425781 13.644531 17.703125 C 13.941406 17.5625 14.070312 17.207031 13.933594 16.910156 C 13.792969 16.609375 13.441406 16.484375 13.136719 16.621094 C 11.457031 17.402344 9.898438 17.394531 8.847656 17.316406 C 7.59375 17.230469 6.589844 16.882812 6.144531 16.585938 C 6.007812 16.492188 5.847656 16.464844 5.699219 16.496094 Z M 5.699219 16.496094 "/>
</g>
</svg>
