<?xml version="1.0" encoding="UTF-8"?>
<svg xmlns="http://www.w3.org/2000/svg" xmlns:xlink="http://www.w3.org/1999/xlink" width="24px" height="24px" viewBox="0 0 24 24" version="1.1">
<g id="surface1">
<path style=" stroke:none;fill-rule:nonzero;fill:rgb(36.078432%,38.039216%,42.352942%);fill-opacity:1;" d="M 9.378906 1.5 L 9.144531 4.265625 C 8.269531 4.589844 7.453125 5.0625 6.738281 5.660156 L 4.222656 4.472656 L 1.597656 9.019531 L 3.878906 10.605469 C 3.796875 11.066406 3.753906 11.53125 3.753906 12 C 3.753906 12.46875 3.792969 12.933594 3.875 13.398438 L 1.597656 14.972656 L 4.222656 19.519531 L 6.730469 18.339844 C 7.453125 18.9375 8.265625 19.40625 9.144531 19.726562 L 9.371094 22.5 L 14.621094 22.5 L 14.855469 19.734375 C 15.730469 19.410156 16.546875 18.9375 17.261719 18.339844 L 19.777344 19.527344 L 22.402344 14.980469 L 20.121094 13.394531 C 20.203125 12.933594 20.246094 12.46875 20.246094 12 C 20.246094 11.53125 20.207031 11.066406 20.125 10.601562 L 22.402344 9.027344 L 19.777344 4.480469 L 17.269531 5.660156 C 16.546875 5.0625 15.734375 4.59375 14.855469 4.273438 L 14.628906 1.5 Z M 12.003906 9 C 13.660156 9 15.003906 10.34375 15.003906 12 C 15.003906 13.652344 13.660156 15 12.003906 15 C 10.347656 15 9.003906 13.652344 9.003906 12 C 9.003906 10.34375 10.347656 9 12.003906 9 Z M 12.003906 9 "/>
</g>
</svg>
