<?xml version="1.0" encoding="UTF-8"?>
<svg xmlns="http://www.w3.org/2000/svg" xmlns:xlink="http://www.w3.org/1999/xlink" width="24px" height="24px" viewBox="0 0 24 24" version="1.1">
<g id="surface1">
<path style=" stroke:none;fill-rule:nonzero;fill:rgb(35.686275%,38.039216%,41.960785%);fill-opacity:1;" d="M 12.097656 1.808594 C 6.28125 1.808594 1.546875 6.542969 1.546875 12.359375 C 1.546875 14.746094 2.324219 16.996094 3.792969 18.871094 C 5.808594 21.4375 8.832031 22.914062 12.097656 22.914062 C 15.363281 22.914062 18.386719 21.4375 20.402344 18.871094 C 21.875 16.996094 22.648438 14.746094 22.648438 12.359375 C 22.648438 6.542969 17.914062 1.808594 12.097656 1.808594 Z M 16.144531 11.738281 C 16.097656 10.71875 15.945312 9.75 15.71875 8.855469 C 17.023438 8.539062 18.144531 8.089844 19.0625 7.621094 C 19.875 8.808594 20.382812 10.21875 20.492188 11.738281 Z M 12.027344 20.785156 C 11.996094 20.78125 11.964844 20.78125 11.9375 20.78125 C 11.390625 20.078125 10.535156 18.78125 9.902344 16.980469 C 10.589844 16.875 11.316406 16.808594 12.097656 16.808594 C 12.785156 16.808594 13.4375 16.863281 14.050781 16.949219 C 13.410156 18.699219 12.558594 20.046875 12.027344 20.785156 Z M 12.097656 15.53125 C 11.1875 15.53125 10.332031 15.621094 9.535156 15.753906 C 9.332031 14.921875 9.183594 14.007812 9.140625 13.015625 L 14.875 13.015625 C 14.824219 13.972656 14.664062 14.875 14.4375 15.714844 C 13.703125 15.601562 12.925781 15.53125 12.097656 15.53125 Z M 3.703125 11.738281 C 3.8125 10.21875 4.320312 8.808594 5.136719 7.621094 C 6 8.0625 7.046875 8.488281 8.261719 8.804688 C 8.054688 9.699219 7.910156 10.679688 7.867188 11.738281 Z M 9.136719 11.738281 C 9.179688 10.777344 9.320312 9.886719 9.515625 9.074219 C 10.316406 9.207031 11.183594 9.289062 12.097656 9.289062 C 12.933594 9.289062 13.726562 9.21875 14.46875 9.101562 C 14.679688 9.925781 14.828125 10.808594 14.875 11.738281 Z M 12.03125 3.9375 C 12.570312 4.6875 13.445312 6.066406 14.089844 7.871094 C 13.460938 7.960938 12.796875 8.011719 12.097656 8.011719 C 11.308594 8.011719 10.566406 7.949219 9.875 7.835938 C 10.503906 5.992188 11.382812 4.660156 11.9375 3.941406 C 11.964844 3.941406 11.996094 3.9375 12.03125 3.9375 Z M 18.234375 6.605469 C 17.429688 6.996094 16.46875 7.367188 15.363281 7.632812 C 14.867188 6.175781 14.222656 4.96875 13.671875 4.082031 C 15.457031 4.421875 17.042969 5.328125 18.234375 6.605469 Z M 10.226562 4.152344 C 9.683594 5 9.074219 6.148438 8.609375 7.578125 C 7.59375 7.316406 6.707031 6.96875 5.957031 6.605469 C 7.085938 5.398438 8.5625 4.53125 10.226562 4.152344 Z M 3.699219 13.015625 L 7.871094 13.015625 C 7.914062 14.105469 8.066406 15.109375 8.289062 16.023438 C 7.050781 16.339844 6.011719 16.765625 5.191406 17.175781 C 4.324219 15.941406 3.8125 14.523438 3.699219 13.015625 Z M 6.015625 18.191406 C 6.734375 17.847656 7.621094 17.511719 8.636719 17.25 C 9.101562 18.628906 9.699219 19.746094 10.230469 20.578125 C 8.628906 20.21875 7.167969 19.394531 6.015625 18.191406 Z M 13.667969 20.636719 C 14.207031 19.777344 14.839844 18.601562 15.332031 17.1875 C 16.433594 17.441406 17.386719 17.8125 18.179688 18.191406 C 16.957031 19.46875 15.386719 20.316406 13.667969 20.636719 Z M 19.003906 17.175781 C 18.101562 16.722656 16.996094 16.273438 15.695312 15.957031 C 15.933594 15.050781 16.09375 14.0625 16.144531 13.015625 L 20.496094 13.015625 C 20.382812 14.519531 19.871094 15.9375 19.003906 17.175781 Z M 19.003906 17.175781 "/>
</g>
</svg>
