<?xml version="1.0" encoding="UTF-8"?>
<svg xmlns="http://www.w3.org/2000/svg" xmlns:xlink="http://www.w3.org/1999/xlink" width="24px" height="24px" viewBox="0 0 24 24" version="1.1">
<g id="surface1">
<path style=" stroke:none;fill-rule:nonzero;fill:rgb(36.078432%,38.039216%,42.352942%);fill-opacity:1;" d="M 9.738281 1.496094 C 5.191406 1.496094 1.488281 5.207031 1.488281 9.746094 C 1.488281 14.285156 5.191406 17.996094 9.738281 17.996094 C 11.464844 17.996094 13.089844 17.457031 14.425781 16.542969 L 19.957031 22.074219 C 20.339844 22.453125 20.898438 22.597656 21.417969 22.453125 C 21.941406 22.308594 22.347656 21.894531 22.480469 21.371094 C 22.609375 20.847656 22.453125 20.292969 22.066406 19.917969 L 16.535156 14.386719 C 17.449219 13.058594 18.035156 11.46875 18.035156 9.746094 C 18.035156 5.207031 14.28125 1.496094 9.738281 1.496094 Z M 9.738281 4.496094 C 12.65625 4.496094 14.988281 6.828125 14.988281 9.746094 C 14.988281 12.660156 12.65625 14.996094 9.738281 14.996094 C 6.8125 14.996094 4.488281 12.660156 4.488281 9.746094 C 4.488281 6.828125 6.8125 4.496094 9.738281 4.496094 Z M 9.738281 4.496094 "/>
</g>
</svg>
