<?xml version="1.0" encoding="UTF-8"?>
<svg xmlns="http://www.w3.org/2000/svg" xmlns:xlink="http://www.w3.org/1999/xlink" width="24px" height="24px" viewBox="0 0 24 24" version="1.1">
<g id="surface1">
<path style=" stroke:none;fill-rule:nonzero;fill:rgb(36.078432%,38.039216%,42.352942%);fill-opacity:1;" d="M 5.675781 3.046875 C 5.3125 3.046875 4.894531 3.144531 4.464844 3.375 C 2.910156 4.191406 1.480469 6.878906 0.703125 10.359375 C 0.0390625 13.316406 -0.203125 17.355469 0.191406 18.984375 C 0.535156 20.382812 1.128906 21 2.191406 21 C 3.757812 20.972656 5.726562 19.226562 6.980469 16.875 C 7.882812 15.570312 9.980469 14.984375 12 15.046875 C 14.019531 14.972656 16.117188 15.570312 17.019531 16.875 C 18.273438 19.226562 20.242188 20.972656 21.808594 21 C 22.871094 21 23.464844 20.382812 23.808594 18.984375 C 24.203125 17.355469 23.960938 13.316406 23.296875 10.359375 C 22.519531 6.878906 21.089844 4.191406 19.535156 3.375 C 18.675781 2.917969 17.96875 2.933594 17.347656 3.375 C 16.554688 3.9375 14.90625 4.542969 12 4.546875 C 9.09375 4.546875 7.445312 3.9375 6.652344 3.375 C 6.339844 3.152344 6.042969 3.046875 5.675781 3.046875 Z M 6.046875 7.546875 L 7.539062 7.546875 L 7.539062 9.046875 L 9.027344 9.046875 L 9.027344 10.546875 L 7.539062 10.546875 L 7.539062 12.046875 L 6.046875 12.046875 L 6.046875 10.546875 L 4.558594 10.546875 L 4.558594 9.046875 L 6.046875 9.046875 Z M 17.207031 7.546875 C 17.617188 7.546875 17.953125 7.882812 17.953125 8.296875 C 17.953125 8.710938 17.617188 9.046875 17.207031 9.046875 C 16.796875 9.046875 16.460938 8.710938 16.460938 8.296875 C 16.460938 7.882812 16.796875 7.546875 17.207031 7.546875 Z M 15.71875 9.046875 C 16.128906 9.046875 16.460938 9.382812 16.460938 9.796875 C 16.460938 10.210938 16.128906 10.546875 15.71875 10.546875 C 15.308594 10.546875 14.972656 10.210938 14.972656 9.796875 C 14.972656 9.382812 15.308594 9.046875 15.71875 9.046875 Z M 18.695312 9.046875 C 19.105469 9.046875 19.441406 9.382812 19.441406 9.796875 C 19.441406 10.210938 19.105469 10.546875 18.695312 10.546875 C 18.285156 10.546875 17.953125 10.210938 17.953125 9.796875 C 17.953125 9.382812 18.285156 9.046875 18.695312 9.046875 Z M 17.207031 10.546875 C 17.617188 10.546875 17.953125 10.882812 17.953125 11.296875 C 17.953125 11.710938 17.617188 12.046875 17.207031 12.046875 C 16.796875 12.046875 16.460938 11.710938 16.460938 11.296875 C 16.460938 10.882812 16.796875 10.546875 17.207031 10.546875 Z M 17.207031 10.546875 "/>
</g>
</svg>
