<?xml version="1.0" encoding="UTF-8"?>
<svg xmlns="http://www.w3.org/2000/svg" xmlns:xlink="http://www.w3.org/1999/xlink" width="24px" height="24px" viewBox="0 0 24 24" version="1.1">
<g id="surface1">
<path style=" stroke:none;fill-rule:nonzero;fill:rgb(36.078432%,38.039216%,42.352942%);fill-opacity:1;" d="M 9 3 C 6.515625 3 4.5 5.015625 4.5 7.5 C 4.5 9.984375 6.515625 12 9 12 C 11.484375 12 13.5 9.984375 13.5 7.5 C 13.5 5.015625 11.484375 3 9 3 Z M 16.496094 5.917969 L 16.5 5.921875 C 15.917969 5.921875 15.371094 6.058594 14.871094 6.28125 C 14.957031 6.671875 15 7.082031 15 7.496094 C 15 9.148438 14.316406 10.652344 13.222656 11.738281 C 13.914062 12.792969 15.113281 13.496094 16.496094 13.496094 C 18.644531 13.496094 20.386719 11.800781 20.386719 9.707031 C 20.386719 7.613281 18.644531 5.917969 16.496094 5.917969 Z M 9 14.996094 C 0 15 0 21 0 21 L 0 22.5 L 18 22.5 L 18 21 C 18 21 18 14.984375 9 15 Z M 16.5 14.996094 L 16.5 15 C 16.207031 15 15.941406 15.015625 15.667969 15.035156 C 16.71875 15.628906 17.515625 16.347656 18.078125 17.097656 C 19.488281 18.988281 19.5 20.996094 19.5 20.996094 L 24 20.996094 L 24 19.496094 C 24 19.496094 24 14.996094 16.5 14.996094 Z M 16.5 14.996094 "/>
</g>
</svg>
