<?xml version="1.0" encoding="UTF-8"?>
<svg xmlns="http://www.w3.org/2000/svg" xmlns:xlink="http://www.w3.org/1999/xlink" width="24px" height="24px" viewBox="0 0 24 24" version="1.1">
<g id="surface1">
<path style=" stroke:none;fill-rule:nonzero;fill:rgb(36.078432%,38.039216%,42.352942%);fill-opacity:1;" d="M 12 1.503906 C 6.199219 1.503906 1.5 6.207031 1.5 12.003906 C 1.5 17.804688 6.199219 22.503906 12 22.503906 C 17.800781 22.503906 22.5 17.804688 22.5 12.003906 C 22.5 6.207031 17.800781 1.503906 12 1.503906 Z M 10.5 4.5 L 13.5 4.5 L 13.5 13.5 L 10.5 13.5 Z M 12 15 C 12.828125 15 13.5 15.671875 13.5 16.5 C 13.5 17.328125 12.828125 18 12 18 C 11.171875 18 10.5 17.328125 10.5 16.5 C 10.5 15.671875 11.171875 15 12 15 Z M 12 15 "/>
</g>
</svg>
