<?xml version="1.0" encoding="UTF-8"?>
<svg xmlns="http://www.w3.org/2000/svg" xmlns:xlink="http://www.w3.org/1999/xlink" width="24px" height="24px" viewBox="0 0 24 24" version="1.1">
<g id="surface1">
<path style=" stroke:none;fill-rule:nonzero;fill:rgb(36.078432%,38.039216%,42.352942%);fill-opacity:1;" d="M 9.253906 1.5 C 9.253906 1.5 10.492188 2.199219 9.617188 4.03125 C 8.296875 6.796875 10.835938 7.425781 10.835938 7.425781 C 10.835938 7.425781 10.03125 6.78125 11.105469 4.496094 C 12.292969 1.96875 9.253906 1.5 9.253906 1.5 Z M 14.054688 4.261719 C 14.054688 4.261719 11.589844 5.203125 13.175781 7.785156 C 14.230469 9.5 13.066406 10.347656 13.066406 10.347656 C 13.066406 10.347656 16.039062 9.503906 14.605469 7.136719 C 13.3125 5.003906 14.054688 4.261719 14.054688 4.261719 Z M 6.964844 4.328125 C 6.964844 4.328125 4.808594 5.972656 6.941406 7.988281 C 8.351562 9.335938 7.425781 10.5 7.425781 10.5 C 7.425781 10.5 10.097656 8.800781 8.167969 6.941406 C 6.421875 5.265625 6.964844 4.328125 6.964844 4.328125 Z M 7.425781 10.5 L 1.496094 10.5 L 4.496094 22.5 L 16.496094 22.5 L 16.910156 20.855469 C 17.257812 20.941406 17.621094 21 17.996094 21 C 20.484375 21 22.496094 18.984375 22.496094 16.5 C 22.496094 14.390625 21.042969 12.636719 19.082031 12.144531 L 19.496094 10.5 Z M 18.722656 13.59375 C 19.160156 13.703125 19.445312 14.109375 19.574219 14.726562 C 19.699219 15.339844 19.652344 16.121094 19.449219 16.886719 C 19.027344 18.453125 18.0625 19.5625 17.269531 19.40625 Z M 18.722656 13.59375 "/>
</g>
</svg>
