<?xml version="1.0" encoding="UTF-8"?>
<svg xmlns="http://www.w3.org/2000/svg" xmlns:xlink="http://www.w3.org/1999/xlink" width="24px" height="24px" viewBox="0 0 24 24" version="1.1">
<g id="surface1">
<path style=" stroke:none;fill-rule:nonzero;fill:rgb(35.686275%,38.039216%,41.960785%);fill-opacity:1;" d="M 4.265625 1.511719 C 3.84375 1.578125 3 1.863281 3 2.910156 L 3 21.101562 C 3 22.5 4.5 22.503906 4.5 22.503906 L 19.488281 22.503906 C 20.984375 22.503906 20.988281 21.101562 20.988281 21.101562 C 21.011719 21.039062 20.992188 10.675781 20.988281 7.113281 L 14.992188 1.511719 L 4.5 1.511719 C 4.5 1.511719 4.40625 1.492188 4.265625 1.511719 Z M 6.972656 8.558594 L 15.972656 8.558594 L 15.972656 11.066406 L 6.972656 11.066406 Z M 6.972656 12.511719 L 15.972656 12.511719 L 15.972656 15.019531 L 6.972656 15.019531 Z M 6.972656 16.394531 L 15.972656 16.394531 L 15.972656 18.902344 L 6.972656 18.902344 Z M 6.972656 16.394531 "/>
</g>
</svg>
