<?xml version="1.0" encoding="UTF-8"?>
<svg xmlns="http://www.w3.org/2000/svg" xmlns:xlink="http://www.w3.org/1999/xlink" width="24px" height="24px" viewBox="0 0 24 24" version="1.1">
<g id="surface1">
<path style=" stroke:none;fill-rule:nonzero;fill:rgb(36.078432%,38.039216%,42.352942%);fill-opacity:1;" d="M 6.75 5.996094 L 6.75 6 C 3.019531 6 0 9.019531 0 12.75 C 0 16.480469 3.019531 19.5 6.75 19.5 C 9.605469 19.5 12.152344 17.691406 13.105469 15 L 18 15 L 18 18 L 22.5 18 L 22.5 14.996094 L 24 14.996094 L 24 10.496094 L 13.105469 10.496094 C 12.152344 7.800781 9.605469 6 6.75 5.996094 Z M 6.75 10.5 C 7.996094 10.5 9 11.503906 9 12.75 C 9 13.996094 7.996094 15 6.75 15 C 5.503906 15 4.5 13.996094 4.5 12.75 C 4.5 11.503906 5.503906 10.5 6.75 10.5 Z M 6.75 10.5 "/>
</g>
</svg>
