<?xml version="1.0" encoding="UTF-8"?>
<svg xmlns="http://www.w3.org/2000/svg" xmlns:xlink="http://www.w3.org/1999/xlink" width="24px" height="24px" viewBox="0 0 24 24" version="1.1">
<g id="surface1">
<path style=" stroke:none;fill-rule:nonzero;fill:rgb(36.078432%,38.039216%,42.352942%);fill-opacity:1;" d="M 13.5 4.5 C 11.246094 4.5 9.183594 5.769531 8.160156 7.777344 C 7.714844 7.59375 7.230469 7.5 6.75 7.5 C 4.875 7.5 3.289062 8.890625 3.039062 10.746094 C 1.222656 11.375 0 13.078125 0 15 C 0 17.484375 2.015625 19.5 4.5 19.5 L 18 19.5 C 20.484375 19.5 22.5 17.484375 22.5 15 C 22.5 13.089844 21.289062 11.390625 19.488281 10.753906 C 19.496094 10.671875 19.5 10.585938 19.5 10.5 C 19.5 7.183594 16.816406 4.5 13.5 4.5 Z M 13.5 4.5 "/>
</g>
</svg>
