<?xml version="1.0" encoding="UTF-8"?>
<svg xmlns="http://www.w3.org/2000/svg" xmlns:xlink="http://www.w3.org/1999/xlink" width="24px" height="24px" viewBox="0 0 24 24" version="1.1">
<g id="surface1">
<path style=" stroke:none;fill-rule:nonzero;fill:rgb(36.078432%,38.039216%,42.352942%);fill-opacity:1;" d="M 10.933594 4.511719 C 10.507812 4.539062 10.050781 4.621094 9.558594 4.753906 C 5.597656 5.84375 5.585938 8.898438 4.675781 10.535156 C 3.925781 11.871094 1.601562 13.832031 0.421875 15.144531 C 1.542969 13.925781 4.394531 11.660156 10.890625 9.875 C 16.765625 8.257812 20.28125 8.53125 22.042969 8.949219 C 20.398438 8.496094 17.960938 8.0625 16.597656 7.253906 C 15.292969 6.472656 13.910156 4.3125 10.933594 4.511719 Z M 22.042969 8.949219 C 22.292969 9.011719 22.566406 9.082031 22.769531 9.148438 C 22.578125 9.082031 22.324219 9.011719 22.042969 8.949219 Z M 13.261719 5.867188 C 13.605469 5.875 14.023438 6.003906 14.371094 6.25 C 15.027344 6.71875 15.222656 7.4375 14.503906 7.632812 C 13.792969 7.828125 12.882812 7.3125 12.597656 6.742188 C 12.394531 6.335938 12.574219 6.003906 12.949219 5.902344 C 13.042969 5.875 13.144531 5.867188 13.261719 5.867188 Z M 10.484375 6.371094 C 10.917969 6.410156 11.285156 6.667969 11.386719 7.066406 C 11.523438 7.589844 11.144531 8.152344 10.535156 8.316406 C 9.921875 8.488281 9.316406 8.195312 9.179688 7.671875 C 9.042969 7.144531 9.421875 6.582031 10.035156 6.417969 C 10.183594 6.375 10.339844 6.363281 10.484375 6.371094 Z M 7.527344 7.449219 C 7.769531 7.480469 7.957031 7.675781 7.972656 8.011719 C 8.003906 8.65625 7.460938 9.566406 6.75 9.761719 C 6.039062 9.957031 5.859375 9.242188 6.199219 8.496094 C 6.4375 7.976562 6.886719 7.574219 7.261719 7.464844 C 7.351562 7.441406 7.441406 7.4375 7.527344 7.449219 Z M 23.222656 9.332031 C 23.292969 9.363281 23.355469 9.390625 23.40625 9.421875 C 23.371094 9.394531 23.304688 9.367188 23.222656 9.332031 Z M 19.925781 9.882812 C 17.65625 9.902344 14.628906 10.378906 11.382812 11.277344 C 4.890625 13.070312 -0.0273438 15.875 0.457031 17.722656 C 0.785156 18.976562 3.554688 19.6875 7.320312 19.457031 C 8.894531 19.59375 11.003906 19.359375 13.253906 18.742188 C 15.46875 18.132812 17.386719 17.265625 18.6875 16.359375 C 22.167969 14.589844 24.292969 12.5 23.964844 11.222656 C 23.722656 10.300781 22.203125 9.859375 19.925781 9.882812 Z M 16.097656 14.816406 C 17.089844 14.792969 17.746094 14.957031 17.839844 15.320312 C 18.03125 16.046875 15.847656 17.09375 13.027344 17.867188 C 10.203125 18.644531 7.800781 18.855469 7.613281 18.128906 C 7.421875 17.402344 9.566406 16.214844 12.386719 15.4375 C 13.800781 15.050781 15.113281 14.839844 16.097656 14.816406 Z M 16.097656 14.816406 "/>
</g>
</svg>
