<?xml version="1.0" encoding="UTF-8"?>
<svg xmlns="http://www.w3.org/2000/svg" xmlns:xlink="http://www.w3.org/1999/xlink" width="24px" height="24px" viewBox="0 0 24 24" version="1.1">
<g id="surface1">
<path style=" stroke:none;fill-rule:nonzero;fill:rgb(36.078432%,38.039216%,42.352942%);fill-opacity:1;" d="M 17.820312 12.75 C 17.792969 9.710938 20.300781 8.253906 20.410156 8.183594 C 19 6.121094 16.808594 5.832031 16.023438 5.804688 C 14.15625 5.613281 12.375 6.902344 11.429688 6.902344 C 10.484375 6.902344 9.015625 5.828125 7.46875 5.859375 C 5.433594 5.890625 3.554688 7.042969 2.503906 8.867188 C 0.386719 12.542969 1.964844 17.980469 4.027344 20.957031 C 5.03125 22.417969 6.234375 24.054688 7.816406 23.996094 C 9.332031 23.9375 9.90625 23.011719 11.746094 23.011719 C 13.582031 23.011719 14.101562 23.996094 15.707031 23.964844 C 17.34375 23.9375 18.378906 22.480469 19.378906 21.015625 C 20.535156 19.324219 21.011719 17.6875 21.042969 17.605469 C 21.003906 17.585938 17.855469 16.378906 17.820312 12.75 Z M 14.800781 3.832031 C 15.640625 2.8125 16.203125 1.40625 16.046875 -0.00390625 C 14.84375 0.046875 13.378906 0.800781 12.515625 1.816406 C 11.734375 2.714844 11.058594 4.152344 11.238281 5.527344 C 12.589844 5.632812 13.960938 4.84375 14.800781 3.832031 Z M 14.800781 3.832031 "/>
</g>
</svg>
