<?xml version="1.0" encoding="UTF-8"?>
<svg xmlns="http://www.w3.org/2000/svg" xmlns:xlink="http://www.w3.org/1999/xlink" width="24px" height="24px" viewBox="0 0 24 24" version="1.1">
<g id="surface1">
<path style=" stroke:none;fill-rule:nonzero;fill:rgb(35.686275%,37.64706%,41.960785%);fill-opacity:1;" d="M 4.5 4.5 L 7.5 4.5 L 7.5 7.5 L 4.5 7.5 Z M 16.5 4.5 L 19.5 4.5 L 19.5 7.5 L 16.5 7.5 Z M 4.5 9 L 7.5 9 L 7.5 12 L 4.5 12 Z M 16.5 9 L 19.5 9 L 19.5 12 L 16.5 12 Z M 4.5 13.5 L 7.5 13.5 L 7.5 16.5 L 4.5 16.5 Z M 16.5 13.5 L 19.5 13.5 L 19.5 16.5 L 16.5 16.5 Z M 4.5 18 L 7.5 18 L 7.5 21 L 4.5 21 Z M 16.5 18 L 19.5 18 L 19.5 21 L 16.5 21 Z M 3 3 L 3 22.5 L 21 22.5 L 21 3 Z M 3 3 "/>
</g>
</svg>
