<?xml version="1.0" encoding="UTF-8"?>
<svg xmlns="http://www.w3.org/2000/svg" xmlns:xlink="http://www.w3.org/1999/xlink" width="24px" height="24px" viewBox="0 0 24 24" version="1.1">
<g id="surface1">
<path style=" stroke:none;fill-rule:nonzero;fill:rgb(36.078432%,38.039216%,42.352942%);fill-opacity:1;" d="M 12 4.5 C 8.785156 4.503906 5.933594 6.554688 4.902344 9.597656 C 2.824219 10.59375 1.503906 12.695312 1.5 15 C 1.5 18.316406 4.183594 21 7.5 21 C 8.96875 20.996094 10.390625 20.453125 11.488281 19.472656 C 11.660156 19.488281 11.828125 19.496094 12 19.5 C 13.09375 19.496094 14.175781 19.253906 15.171875 18.789062 C 16.039062 19.253906 17.011719 19.5 18 19.5 C 21.316406 19.5 24 16.816406 24 13.5 C 24 10.183594 21.316406 7.5 18 7.5 C 16.574219 5.617188 14.355469 4.503906 12 4.5 Z M 12 4.5 "/>
</g>
</svg>
