<?xml version="1.0" encoding="UTF-8"?>
<svg xmlns="http://www.w3.org/2000/svg" xmlns:xlink="http://www.w3.org/1999/xlink" width="24px" height="24px" viewBox="0 0 24 24" version="1.1">
<g id="surface1">
<path style=" stroke:none;fill-rule:nonzero;fill:rgb(36.078432%,38.039216%,42.352942%);fill-opacity:1;" d="M 4.21875 1.5 C 4.183594 1.507812 4.160156 1.539062 4.125 1.546875 C 4.003906 1.578125 3.886719 1.613281 3.75 1.6875 C 3.601562 1.765625 3.453125 1.867188 3.328125 2.015625 C 3.316406 2.03125 3.292969 2.046875 3.28125 2.0625 C 3.195312 2.175781 3.144531 2.324219 3.09375 2.484375 C 3.082031 2.53125 3.054688 2.574219 3.046875 2.625 C 3.015625 2.746094 2.996094 2.871094 3 3 L 3 16.5 L 4.5 16.5 L 4.5 15 L 6 15 L 6 4.5 L 13.5 4.5 L 13.5 9 L 18 9 L 18 22.5 L 19.5 22.5 L 19.5 21 L 21 21 C 21 20.78125 21 19.890625 21 19.5 L 21 12 C 20.996094 8.375 21 8.480469 21 8.34375 L 21 7.5 L 15 1.5 L 4.5 1.5 C 4.5 1.5 4.414062 1.5 4.359375 1.5 C 4.3125 1.5 4.265625 1.5 4.21875 1.5 Z M 19.5 22.5 L 19.5 24 L 21 24 L 21 22.5 Z M 18 22.5 L 16.5 22.5 L 16.5 24 L 18 24 Z M 16.5 22.5 L 16.5 21 L 15 21 L 15 22.5 Z M 15 22.5 L 13.5 22.5 L 13.5 24 L 15 24 Z M 13.5 22.5 L 13.5 21 L 12 21 L 12 22.5 Z M 12 22.5 L 10.5 22.5 L 10.5 24 L 12 24 Z M 10.5 22.5 L 10.5 21 L 9 21 L 9 22.5 Z M 9 22.5 L 7.5 22.5 L 7.5 24 L 9 24 Z M 7.5 22.5 L 7.5 21 L 6 21 L 6 22.5 Z M 6 22.5 L 4.5 22.5 L 4.5 24 L 6 24 Z M 4.5 22.5 L 4.5 21 L 3 21 L 3 22.5 Z M 4.5 21 L 6 21 L 6 19.5 L 4.5 19.5 Z M 4.5 19.5 L 4.5 18 L 3 18 L 3 19.5 Z M 4.5 18 L 6 18 L 6 16.5 L 4.5 16.5 Z M 4.5 18 "/>
</g>
</svg>
