<?xml version="1.0" encoding="UTF-8"?>
<svg xmlns="http://www.w3.org/2000/svg" xmlns:xlink="http://www.w3.org/1999/xlink" width="24px" height="24px" viewBox="0 0 24 24" version="1.1">
<g id="surface1">
<path style=" stroke:none;fill-rule:nonzero;fill:rgb(36.078432%,38.039216%,42.352942%);fill-opacity:1;" d="M 17.457031 1.5 C 13.359375 1.5 12.589844 7.730469 14.898438 7.730469 C 17.203125 7.730469 21.5625 1.5 17.457031 1.5 Z M 11.144531 2.457031 C 11.078125 2.457031 11.011719 2.457031 10.933594 2.472656 C 8.613281 2.765625 9.429688 6.699219 10.667969 6.777344 C 11.863281 6.84375 13.175781 2.46875 11.144531 2.464844 Z M 7.113281 3.910156 C 6.972656 3.894531 6.8125 3.929688 6.640625 4 C 4.769531 4.769531 6.355469 7.933594 7.402344 7.722656 C 8.347656 7.53125 8.484375 4 7.113281 3.910156 Z M 4.066406 6.503906 C 3.898438 6.503906 3.722656 6.550781 3.535156 6.691406 C 2.046875 7.808594 4.039062 10.503906 4.921875 10.085938 C 5.691406 9.71875 5.199219 6.542969 4.066406 6.503906 Z M 12.894531 9.074219 C 9.65625 9.015625 5.382812 10.660156 4.652344 13.964844 C 3.863281 17.539062 7.902344 22.5 12.113281 22.5 C 14.191406 22.5 16.582031 20.605469 17.027344 18.203125 C 17.375 16.375 13.003906 17.109375 13.164062 18.320312 C 13.351562 19.769531 12.113281 20.488281 10.902344 19.550781 C 7.03125 16.574219 17.300781 15.085938 16.625 11.019531 C 16.410156 9.75 14.84375 9.105469 12.894531 9.074219 Z M 12.894531 9.074219 "/>
</g>
</svg>
