<?xml version="1.0" encoding="UTF-8"?>
<svg xmlns="http://www.w3.org/2000/svg" xmlns:xlink="http://www.w3.org/1999/xlink" width="24px" height="24px" viewBox="0 0 24 24" version="1.1">
<g id="surface1">
<path style=" stroke:none;fill-rule:nonzero;fill:rgb(36.078432%,38.039216%,42.352942%);fill-opacity:1;" d="M 4.5 3 L 10.5 3 C 11.332031 3 12 3.667969 12 4.5 L 12 10.5 C 12 11.332031 11.332031 12 10.5 12 L 4.5 12 C 3.667969 12 3 11.332031 3 10.5 L 3 4.5 C 3 3.667969 3.667969 3 4.5 3 Z M 4.5 3 "/>
<path style=" stroke:none;fill-rule:nonzero;fill:rgb(36.078432%,38.039216%,42.352942%);fill-opacity:1;" d="M 15 3 L 21 3 C 21.832031 3 22.5 3.667969 22.5 4.5 L 22.5 10.5 C 22.5 11.332031 21.832031 12 21 12 L 15 12 C 14.167969 12 13.5 11.332031 13.5 10.5 L 13.5 4.5 C 13.5 3.667969 14.167969 3 15 3 Z M 15 3 "/>
<path style=" stroke:none;fill-rule:nonzero;fill:rgb(36.078432%,38.039216%,42.352942%);fill-opacity:1;" d="M 4.5 13.5 L 10.5 13.5 C 11.332031 13.5 12 14.167969 12 15 L 12 21 C 12 21.832031 11.332031 22.5 10.5 22.5 L 4.5 22.5 C 3.667969 22.5 3 21.832031 3 21 L 3 15 C 3 14.167969 3.667969 13.5 4.5 13.5 Z M 4.5 13.5 "/>
<path style=" stroke:none;fill-rule:nonzero;fill:rgb(36.078432%,38.039216%,42.352942%);fill-opacity:1;" d="M 15 13.5 L 21 13.5 C 21.832031 13.5 22.5 14.167969 22.5 15 L 22.5 21 C 22.5 21.832031 21.832031 22.5 21 22.5 L 15 22.5 C 14.167969 22.5 13.5 21.832031 13.5 21 L 13.5 15 C 13.5 14.167969 14.167969 13.5 15 13.5 Z M 15 13.5 "/>
</g>
</svg>
