<?xml version="1.0" encoding="UTF-8"?>
<svg xmlns="http://www.w3.org/2000/svg" xmlns:xlink="http://www.w3.org/1999/xlink" width="24px" height="24px" viewBox="0 0 24 24" version="1.1">
<g id="surface1">
<path style=" stroke:none;fill-rule:nonzero;fill:rgb(36.078432%,38.039216%,42.352942%);fill-opacity:1;" d="M 3 1.5 C 3 1.5 1.5 1.5 1.5 3 L 1.5 19.5 C 1.5 19.5 1.5 21 3 21 L 21 21 C 21 21 22.5 21 22.5 19.5 L 22.5 6 C 22.5 4.5 21 4.5 21 4.5 L 13.5 4.5 L 10.5 1.5 Z M 15.128906 7.5 L 21.128906 12 L 15.128906 16.5 L 15.128906 13.5 C 11.519531 13.6875 11.566406 16.472656 12.128906 19.5 C 9.542969 14.210938 9.691406 10.375 15.128906 10.5 Z M 15.128906 7.5 "/>
</g>
</svg>
