<?xml version="1.0" encoding="UTF-8"?>
<svg xmlns="http://www.w3.org/2000/svg" xmlns:xlink="http://www.w3.org/1999/xlink" width="24px" height="24px" viewBox="0 0 24 24" version="1.1">
<g id="surface1">
<path style=" stroke:none;fill-rule:nonzero;fill:rgb(36.078432%,38.039216%,42.352942%);fill-opacity:1;" d="M 9 1.492188 C 7.5 1.492188 7.5 2.992188 7.5 2.992188 L 3 2.992188 C 3 2.992188 1.5 2.992188 1.5 4.496094 L 1.5 6 L 21 5.996094 L 21 4.496094 C 21 2.996094 19.5 2.992188 19.5 2.992188 L 15 2.992188 C 15 2.992188 15 1.492188 13.5 1.492188 Z M 3 7.5 L 3 21 C 3 21.785156 3.714844 22.5 4.5 22.5 L 18 22.5 C 18.785156 22.5 19.5 21.785156 19.5 21 L 19.5 7.5 Z M 3 7.5 "/>
</g>
</svg>
