<?xml version="1.0" encoding="UTF-8"?>
<svg xmlns="http://www.w3.org/2000/svg" xmlns:xlink="http://www.w3.org/1999/xlink" width="24px" height="24px" viewBox="0 0 24 24" version="1.1">
<g id="surface1">
<path style=" stroke:none;fill-rule:nonzero;fill:rgb(88.627452%,34.117648%,29.803923%);fill-opacity:1;" d="M 3.222656 0.359375 L 15.53125 0.359375 L 22.058594 6.859375 L 22.058594 22.09375 C 22.058594 22.894531 21.410156 23.542969 20.609375 23.542969 L 3.222656 23.542969 C 2.421875 23.542969 1.773438 22.894531 1.773438 22.09375 L 1.773438 1.808594 C 1.773438 1.007812 2.421875 0.359375 3.222656 0.359375 Z M 3.222656 0.359375 "/>
<path style="fill-rule:nonzero;fill:rgb(70.980394%,21.176471%,16.078432%);fill-opacity:1;stroke-width:1;stroke-linecap:butt;stroke-linejoin:miter;stroke:rgb(0%,0%,0%);stroke-opacity:1;stroke-miterlimit:4;" d="M 289.676713 87.002294 L 222.298983 87.002294 C 211.616513 87.002294 202.966317 78.299989 202.966317 67.669628 L 202.966317 0.187679 Z M 289.676713 87.002294 " transform="matrix(0.0749622,0,0,0.0749622,0.324266,0.360931)"/>
<path style=" stroke:none;fill-rule:nonzero;fill:rgb(100%,100%,100%);fill-opacity:1;" d="M 16.625 11.347656 C 16.867188 11.347656 16.984375 11.132812 16.984375 10.929688 C 16.984375 10.71875 16.859375 10.511719 16.625 10.511719 L 15.242188 10.511719 C 14.972656 10.511719 14.820312 10.734375 14.820312 10.984375 L 14.820312 14.378906 C 14.820312 14.683594 14.992188 14.851562 15.226562 14.851562 C 15.457031 14.851562 15.632812 14.683594 15.632812 14.378906 L 15.632812 13.449219 L 16.46875 13.449219 C 16.726562 13.449219 16.855469 13.234375 16.855469 13.023438 C 16.855469 12.820312 16.726562 12.613281 16.46875 12.613281 L 15.632812 12.613281 L 15.632812 11.347656 C 15.632812 11.347656 16.625 11.347656 16.625 11.347656 Z M 11.953125 10.511719 L 10.941406 10.511719 C 10.664062 10.511719 10.46875 10.699219 10.46875 10.980469 L 10.46875 14.382812 C 10.46875 14.730469 10.75 14.839844 10.953125 14.839844 L 12.011719 14.839844 C 13.269531 14.839844 14.097656 14.011719 14.097656 12.738281 C 14.097656 11.386719 13.316406 10.511719 11.953125 10.511719 Z M 12 14 L 11.382812 14 L 11.382812 11.351562 L 11.9375 11.351562 C 12.78125 11.351562 13.144531 11.914062 13.144531 12.695312 C 13.144531 13.421875 12.785156 14 12 14 Z M 8.296875 10.511719 L 7.292969 10.511719 C 7.011719 10.511719 6.851562 10.699219 6.851562 10.984375 L 6.851562 14.378906 C 6.851562 14.683594 7.03125 14.851562 7.277344 14.851562 C 7.519531 14.851562 7.699219 14.683594 7.699219 14.378906 L 7.699219 13.386719 L 8.328125 13.386719 C 9.105469 13.386719 9.742188 12.839844 9.742188 11.957031 C 9.742188 11.09375 9.125 10.511719 8.296875 10.511719 Z M 8.277344 12.589844 L 7.699219 12.589844 L 7.699219 11.308594 L 8.277344 11.308594 C 8.636719 11.308594 8.863281 11.589844 8.863281 11.949219 C 8.859375 12.3125 8.636719 12.589844 8.277344 12.589844 Z M 8.277344 12.589844 "/>
<path style="fill:none;stroke-width:1.000504;stroke-linecap:round;stroke-linejoin:round;stroke:rgb(0%,0%,0%);stroke-opacity:1;stroke-miterlimit:4;" d="M 38.664707 -0.0207596 L 202.862098 -0.0207596 L 289.937261 86.689636 L 289.937261 289.917127 C 289.937261 300.599598 281.287065 309.249793 270.604594 309.249793 L 38.664707 309.249793 C 27.982236 309.249793 19.332041 300.599598 19.332041 289.917127 L 19.332041 19.311907 C 19.332041 8.629436 27.982236 -0.0207596 38.664707 -0.0207596 Z M 38.664707 -0.0207596 " transform="matrix(0.0749622,0,0,0.0749622,0.324266,0.360931)"/>
</g>
</svg>
