<?xml version="1.0" encoding="UTF-8"?>
<svg xmlns="http://www.w3.org/2000/svg" xmlns:xlink="http://www.w3.org/1999/xlink" width="24px" height="24px" viewBox="0 0 24 24" version="1.1">
<g id="surface1">
<path style="fill:none;stroke-width:1.001992;stroke-linecap:round;stroke-linejoin:round;stroke:rgb(0%,0%,0%);stroke-opacity:1;stroke-miterlimit:4;" d="M 38.669422 -0.00760595 L 202.90527 -0.00760595 L 289.934921 86.715061 L 289.934921 289.937737 C 289.934921 300.630974 281.288236 309.277659 270.594998 309.277659 L 38.669422 309.277659 C 27.976185 309.277659 19.3295 300.630974 19.3295 289.937737 L 19.3295 19.332316 C 19.3295 8.639079 27.976185 -0.00760595 38.669422 -0.00760595 Z M 38.669422 -0.00760595 " transform="matrix(0.0763479,0,0,0.0763479,0.543764,0.231049)"/>
<path style=" stroke:none;fill-rule:nonzero;fill:rgb(21.568628%,44.313726%,78.431374%);fill-opacity:1;" d="M 3.496094 0.230469 L 16.035156 0.230469 L 22.679688 6.851562 L 22.679688 22.367188 C 22.679688 23.183594 22.019531 23.84375 21.203125 23.84375 L 3.496094 23.84375 C 2.679688 23.84375 2.019531 23.183594 2.019531 22.367188 L 2.019531 1.707031 C 2.019531 0.890625 2.679688 0.230469 3.496094 0.230469 Z M 3.496094 0.230469 "/>
<path style=" stroke:none;fill-rule:nonzero;fill:rgb(100%,100%,100%);fill-opacity:1;" d="M 7.140625 10.488281 L 5.835938 10.488281 C 5.464844 10.488281 5.261719 10.71875 5.261719 11.0625 L 5.261719 15.207031 C 5.261719 15.578125 5.496094 15.78125 5.8125 15.78125 C 6.128906 15.78125 6.367188 15.574219 6.367188 15.207031 L 6.367188 13.996094 L 7.183594 13.996094 C 8.195312 13.996094 9.027344 13.328125 9.027344 12.25 C 9.027344 11.195312 8.226562 10.488281 7.140625 10.488281 Z M 7.117188 13.023438 L 6.367188 13.023438 L 6.367188 11.460938 L 7.117188 11.460938 C 7.582031 11.460938 7.878906 11.800781 7.878906 12.242188 C 7.878906 12.6875 7.582031 13.023438 7.117188 13.023438 Z M 11.558594 11.941406 C 11.558594 11.632812 11.847656 11.460938 12.164062 11.460938 C 12.605469 11.460938 12.84375 11.683594 13.144531 11.683594 C 13.445312 11.683594 13.636719 11.425781 13.636719 11.136719 C 13.636719 10.554688 12.605469 10.398438 12.195312 10.398438 C 11.210938 10.398438 10.363281 11.042969 10.363281 12.074219 C 10.363281 13.785156 12.828125 13.261719 12.828125 14.132812 C 12.828125 14.492188 12.5625 14.765625 12.074219 14.765625 C 11.597656 14.765625 11.183594 14.480469 10.835938 14.480469 C 10.535156 14.480469 10.339844 14.714844 10.339844 15.003906 C 10.339844 15.695312 11.566406 15.828125 12.132812 15.828125 C 13.152344 15.828125 14.023438 15.171875 14.023438 14.117188 C 14.023438 12.214844 11.558594 12.699219 11.558594 11.941406 Z M 11.558594 11.941406 "/>
<path style=" stroke:none;fill-rule:nonzero;fill:rgb(12.941177%,26.666668%,47.058824%);fill-opacity:1;" d="M 22.660156 6.871094 L 17.515625 6.871094 C 16.699219 6.871094 16.039062 6.210938 16.039062 5.394531 L 16.039062 0.246094 Z M 22.660156 6.871094 "/>
<path style=" stroke:none;fill-rule:nonzero;fill:rgb(100%,100%,100%);fill-opacity:1;" d="M 17.214844 10.5 C 17.902344 10.5 18.546875 10.820312 19.144531 11.453125 C 19.546875 11.988281 19.75 12.511719 19.75 13.03125 L 19.75 13.285156 C 19.75 13.972656 19.433594 14.613281 18.800781 15.207031 C 18.261719 15.609375 17.730469 15.8125 17.214844 15.8125 L 15.917969 15.8125 C 15.683594 15.8125 15.503906 15.648438 15.375 15.316406 L 15.375 11.046875 C 15.375 10.8125 15.539062 10.628906 15.871094 10.5 Z M 16.640625 11.75 L 16.640625 13.238281 L 16.621094 14.566406 C 17.269531 14.566406 17.660156 14.496094 17.800781 14.359375 C 18.253906 14.0625 18.480469 13.6875 18.480469 13.222656 L 18.480469 13.09375 C 18.480469 12.554688 18.183594 12.140625 17.589844 11.84375 C 17.425781 11.78125 17.160156 11.75 16.800781 11.75 Z M 16.640625 11.75 "/>
</g>
</svg>
