<?xml version="1.0" encoding="UTF-8"?>
<svg xmlns="http://www.w3.org/2000/svg" xmlns:xlink="http://www.w3.org/1999/xlink" width="24px" height="24px" viewBox="0 0 24 24" version="1.1">
<g id="surface1">
<path style=" stroke:none;fill-rule:nonzero;fill:rgb(66.666669%,0%,26.666668%);fill-opacity:1;" d="M 3.617188 0.304688 L 16.101562 0.304688 L 22.71875 6.894531 L 22.71875 22.347656 C 22.71875 23.160156 22.0625 23.816406 21.25 23.816406 L 3.617188 23.816406 C 2.804688 23.816406 2.148438 23.160156 2.148438 22.347656 L 2.148438 1.773438 C 2.148438 0.960938 2.804688 0.304688 3.617188 0.304688 Z M 3.617188 0.304688 "/>
<path style="fill-rule:nonzero;fill:rgb(61.960787%,23.921569%,39.215687%);fill-opacity:1;stroke-width:0.999669;stroke-linecap:round;stroke-linejoin:round;stroke:rgb(0%,0%,0%);stroke-opacity:1;stroke-miterlimit:4;" d="M 38.65872 0.00788246 L 202.872453 0.00788246 L 289.911897 86.687659 L 289.911897 289.950966 C 289.911897 300.638217 281.279886 309.270228 270.592634 309.270228 L 38.65872 309.270228 C 27.971468 309.270228 19.339457 300.638217 19.339457 289.950966 L 19.339457 19.327145 C 19.339457 8.639893 27.971468 0.00788246 38.65872 0.00788246 Z M 38.65872 0.00788246 " transform="matrix(0.0760252,0,0,0.0760252,0.678152,0.304088)"/>
<path style="fill-rule:nonzero;fill:rgb(41.960785%,8.235294%,21.568628%);fill-opacity:1;stroke-width:1;stroke-linecap:butt;stroke-linejoin:miter;stroke:rgb(0%,0%,0%);stroke-opacity:1;stroke-miterlimit:4;" d="M 289.654992 86.995945 L 222.294477 86.995945 C 211.607226 86.995945 202.975215 78.312553 202.975215 67.676683 L 202.975215 0.213407 Z M 289.654992 86.995945 " transform="matrix(0.0760252,0,0,0.0760252,0.678152,0.304088)"/>
<path style=" stroke:none;fill-rule:nonzero;fill:rgb(100%,100%,100%);fill-opacity:1;" d="M 8.5 11.507812 L 8.5 11.644531 C 8.5 11.597656 8.507812 11.554688 8.511719 11.507812 Z M 8.5 11.644531 L 8.5 13.5 L 8.523438 13.5 C 8.707031 14.621094 10.414062 15.5 12.5 15.5 C 14.585938 15.5 16.292969 14.621094 16.476562 13.5 L 16.5 13.5 L 16.5 11.644531 C 16.5 12.863281 14.710938 13.851562 12.5 13.851562 C 10.289062 13.851562 8.5 12.863281 8.5 11.644531 Z M 16.5 11.644531 L 16.5 11.507812 L 16.488281 11.507812 C 16.492188 11.554688 16.5 11.597656 16.5 11.644531 Z M 16.5 11.644531 "/>
<path style=" stroke:none;fill-rule:nonzero;fill:rgb(90.196079%,90.196079%,90.196079%);fill-opacity:1;" d="M 16.5 11.203125 C 16.5 12.421875 14.710938 13.410156 12.5 13.410156 C 10.289062 13.410156 8.5 12.421875 8.5 11.203125 C 8.5 9.984375 10.289062 9 12.5 9 C 14.710938 9 16.5 9.984375 16.5 11.203125 Z M 16.5 11.203125 "/>
<path style=" stroke:none;fill-rule:nonzero;fill:rgb(100%,100%,100%);fill-opacity:1;" d="M 8.5 13.65625 L 8.5 13.792969 C 8.5 13.746094 8.507812 13.703125 8.511719 13.65625 Z M 8.5 13.792969 L 8.5 15.648438 L 8.523438 15.648438 C 8.707031 16.769531 10.414062 17.644531 12.5 17.644531 C 14.585938 17.644531 16.292969 16.769531 16.476562 15.648438 L 16.5 15.648438 L 16.5 13.792969 C 16.5 15.011719 14.710938 16 12.5 16 C 10.289062 16 8.5 15.011719 8.5 13.792969 Z M 16.5 13.792969 L 16.5 13.65625 L 16.488281 13.65625 C 16.492188 13.703125 16.5 13.746094 16.5 13.792969 Z M 16.5 13.792969 "/>
</g>
</svg>
