<?xml version="1.0" encoding="UTF-8"?>
<svg xmlns="http://www.w3.org/2000/svg" xmlns:xlink="http://www.w3.org/1999/xlink" width="24px" height="24px" viewBox="0 0 24 24" version="1.1">
<g id="surface1">
<path style=" stroke:none;fill-rule:nonzero;fill:rgb(14.901961%,65.098041%,81.960785%);fill-opacity:1;" d="M 3.617188 0.304688 L 16.101562 0.304688 L 22.71875 6.894531 L 22.71875 22.347656 C 22.71875 23.160156 22.0625 23.816406 21.25 23.816406 L 3.617188 23.816406 C 2.804688 23.816406 2.148438 23.160156 2.148438 22.347656 L 2.148438 1.773438 C 2.148438 0.960938 2.804688 0.304688 3.617188 0.304688 Z M 3.617188 0.304688 "/>
<path style="fill-rule:nonzero;fill:rgb(11.764706%,49.411765%,62.7451%);fill-opacity:1;stroke-width:1;stroke-linecap:butt;stroke-linejoin:miter;stroke:rgb(0%,0%,0%);stroke-opacity:1;stroke-miterlimit:4;" d="M 289.654992 86.995946 L 222.294477 86.995946 C 211.607226 86.995946 202.975215 78.312554 202.975215 67.676683 L 202.975215 0.213407 Z M 289.654992 86.995946 " transform="matrix(0.0760252,0,0,0.0760252,0.678152,0.304088)"/>
<path style="fill:none;stroke-width:0.999669;stroke-linecap:round;stroke-linejoin:round;stroke:rgb(0%,0%,0%);stroke-opacity:1;stroke-miterlimit:4;" d="M 38.65872 0.00788285 L 202.872453 0.00788285 L 289.911897 86.68766 L 289.911897 289.950966 C 289.911897 300.638218 281.279886 309.270229 270.592634 309.270229 L 38.65872 309.270229 C 27.971468 309.270229 19.339457 300.638218 19.339457 289.950966 L 19.339457 19.327146 C 19.339457 8.639894 27.971468 0.00788285 38.65872 0.00788285 Z M 38.65872 0.00788285 " transform="matrix(0.0760252,0,0,0.0760252,0.678152,0.304088)"/>
<path style=" stroke:none;fill-rule:nonzero;fill:rgb(100%,100%,100%);fill-opacity:1;" d="M 12.871094 9.738281 L 17.949219 9.738281 L 17.949219 10.738281 L 12.871094 10.738281 Z M 12.871094 9.738281 "/>
<path style=" stroke:none;fill-rule:nonzero;fill:rgb(100%,100%,100%);fill-opacity:1;" d="M 7 13.738281 L 17.898438 13.738281 L 17.898438 14.738281 L 7 14.738281 Z M 7 13.738281 "/>
<path style=" stroke:none;fill-rule:nonzero;fill:rgb(100%,100%,100%);fill-opacity:1;" d="M 7 17.738281 L 12.808594 17.738281 L 12.808594 18.738281 L 7 18.738281 Z M 7 17.738281 "/>
<path style=" stroke:none;fill-rule:nonzero;fill:rgb(100%,100%,100%);fill-opacity:1;" d="M 12.886719 11.738281 L 17.949219 11.738281 L 17.949219 12.738281 L 12.886719 12.738281 Z M 12.886719 11.738281 "/>
<path style=" stroke:none;fill-rule:nonzero;fill:rgb(100%,100%,100%);fill-opacity:1;" d="M 12.835938 7.738281 L 17.949219 7.738281 L 17.949219 8.738281 L 12.835938 8.738281 Z M 12.835938 7.738281 "/>
<path style=" stroke:none;fill-rule:nonzero;fill:rgb(100%,100%,100%);fill-opacity:1;" d="M 9.609375 7.867188 C 9.882812 7.867188 10.105469 8.101562 10.28125 8.570312 C 11.375 10.710938 11.953125 11.863281 12.023438 12.023438 L 12.023438 12.199219 C 12.023438 12.328125 11.894531 12.492188 11.636719 12.679688 L 11.480469 12.726562 L 11.394531 12.726562 C 11.148438 12.726562 10.953125 12.539062 10.808594 12.167969 L 10.648438 11.867188 L 8.519531 11.867188 C 8.300781 12.390625 8.136719 12.652344 8.035156 12.652344 C 7.992188 12.699219 7.917969 12.726562 7.808594 12.726562 L 7.691406 12.726562 C 7.515625 12.726562 7.355469 12.59375 7.210938 12.335938 L 7.179688 12.210938 L 7.179688 12.082031 C 7.179688 12.007812 7.410156 11.511719 7.867188 10.597656 C 8.460938 9.332031 8.882812 8.488281 9.132812 8.0625 C 9.25 7.941406 9.371094 7.875 9.492188 7.867188 Z M 9.105469 10.710938 L 10.046875 10.710938 L 9.578125 9.753906 C 9.5 9.871094 9.34375 10.191406 9.105469 10.710938 Z M 9.105469 10.710938 "/>
<path style=" stroke:none;fill-rule:nonzero;fill:rgb(100%,100%,100%);fill-opacity:1;" d="M 7 15.738281 L 17.898438 15.738281 L 17.898438 16.738281 L 7 16.738281 Z M 7 15.738281 "/>
</g>
</svg>
