<?xml version="1.0" encoding="UTF-8"?>
<svg xmlns="http://www.w3.org/2000/svg" xmlns:xlink="http://www.w3.org/1999/xlink" width="24px" height="24px" viewBox="0 0 24 24" version="1.1">
<g id="surface1">
<path style=" stroke:none;fill-rule:nonzero;fill:rgb(90.196079%,90.196079%,90.196079%);fill-opacity:1;" d="M 3.222656 0.359375 L 15.53125 0.359375 L 22.058594 6.859375 L 22.058594 22.09375 C 22.058594 22.894531 21.410156 23.542969 20.609375 23.542969 L 3.222656 23.542969 C 2.421875 23.542969 1.773438 22.894531 1.773438 22.09375 L 1.773438 1.808594 C 1.773438 1.007812 2.421875 0.359375 3.222656 0.359375 Z M 3.222656 0.359375 "/>
<path style=" stroke:none;fill-rule:nonzero;fill:rgb(40.000001%,40.000001%,40.000001%);fill-opacity:1;" d="M 12.804688 12.960938 L 12.804688 13.570312 C 12.804688 13.667969 12.839844 13.75 12.90625 13.820312 C 12.976562 13.886719 13.058594 13.921875 13.15625 13.921875 C 13.25 13.921875 13.332031 13.886719 13.402344 13.820312 C 13.46875 13.75 13.503906 13.667969 13.503906 13.570312 L 13.503906 12.960938 L 14.113281 12.960938 C 14.210938 12.960938 14.292969 12.925781 14.363281 12.859375 C 14.429688 12.789062 14.464844 12.707031 14.464844 12.609375 C 14.464844 12.515625 14.429688 12.433594 14.363281 12.363281 C 14.292969 12.296875 14.210938 12.261719 14.113281 12.261719 L 13.503906 12.261719 L 13.503906 11.652344 C 13.503906 11.554688 13.46875 11.472656 13.402344 11.402344 C 13.332031 11.335938 13.25 11.300781 13.15625 11.300781 C 13.058594 11.300781 12.976562 11.335938 12.90625 11.402344 C 12.839844 11.472656 12.804688 11.554688 12.804688 11.652344 L 12.804688 12.261719 L 12.195312 12.261719 C 12.097656 12.261719 12.015625 12.296875 11.945312 12.363281 C 11.878906 12.433594 11.84375 12.515625 11.84375 12.609375 C 11.84375 12.707031 11.878906 12.789062 11.945312 12.859375 C 12.015625 12.925781 12.097656 12.960938 12.195312 12.960938 Z M 12.804688 12.960938 "/>
<path style="fill-rule:nonzero;fill:rgb(60.000002%,60.000002%,60.000002%);fill-opacity:1;stroke-width:0.149924;stroke-linecap:butt;stroke-linejoin:miter;stroke:rgb(0%,0%,0%);stroke-opacity:1;stroke-miterlimit:4;" d="M 44.078125 13.765625 L 33.976562 13.765625 C 32.375 13.765625 31.078125 12.460938 31.078125 10.867188 L 31.078125 0.75 Z M 44.078125 13.765625 " transform="matrix(0.5,0,0,0.5,0,0)"/>
<path style="fill:none;stroke-width:0.15;stroke-linecap:round;stroke-linejoin:round;stroke:rgb(0%,0%,0%);stroke-opacity:1;stroke-miterlimit:4;" d="M 6.445312 0.71875 L 31.0625 0.71875 L 44.117188 13.71875 L 44.117188 44.1875 C 44.117188 45.789062 42.820312 47.085938 41.21875 47.085938 L 6.445312 47.085938 C 4.84375 47.085938 3.546875 45.789062 3.546875 44.1875 L 3.546875 3.617188 C 3.546875 2.015625 4.84375 0.71875 6.445312 0.71875 Z M 6.445312 0.71875 " transform="matrix(0.5,0,0,0.5,0,0)"/>
<path style=" stroke:none;fill-rule:nonzero;fill:rgb(40.000001%,40.000001%,40.000001%);fill-opacity:1;" d="M 15.710938 12.960938 L 15.710938 13.570312 C 15.710938 13.667969 15.746094 13.75 15.8125 13.820312 C 15.882812 13.886719 15.964844 13.921875 16.0625 13.921875 C 16.15625 13.921875 16.238281 13.886719 16.308594 13.820312 C 16.375 13.75 16.410156 13.667969 16.410156 13.570312 L 16.410156 12.960938 L 17.019531 12.960938 C 17.117188 12.960938 17.199219 12.925781 17.269531 12.859375 C 17.335938 12.789062 17.371094 12.707031 17.371094 12.609375 C 17.371094 12.515625 17.335938 12.433594 17.269531 12.363281 C 17.199219 12.296875 17.117188 12.261719 17.019531 12.261719 L 16.410156 12.261719 L 16.410156 11.652344 C 16.410156 11.554688 16.375 11.472656 16.308594 11.402344 C 16.238281 11.335938 16.15625 11.300781 16.0625 11.300781 C 15.964844 11.300781 15.882812 11.335938 15.8125 11.402344 C 15.746094 11.472656 15.710938 11.554688 15.710938 11.652344 L 15.710938 12.261719 L 15.101562 12.261719 C 15.003906 12.261719 14.921875 12.296875 14.851562 12.363281 C 14.785156 12.433594 14.75 12.515625 14.75 12.609375 C 14.75 12.707031 14.785156 12.789062 14.851562 12.859375 C 14.921875 12.925781 15.003906 12.960938 15.101562 12.960938 Z M 15.710938 12.960938 "/>
<path style=" stroke:none;fill-rule:nonzero;fill:rgb(40.000001%,40.000001%,40.000001%);fill-opacity:1;" d="M 9.609375 15.78125 C 10.503906 15.78125 11.265625 15.464844 11.898438 14.832031 C 12.003906 14.726562 12.054688 14.597656 12.054688 14.449219 C 12.054688 14.300781 12.003906 14.175781 11.898438 14.070312 C 11.792969 13.964844 11.667969 13.910156 11.519531 13.910156 C 11.367188 13.910156 11.238281 13.964844 11.132812 14.070312 C 10.714844 14.492188 10.203125 14.703125 9.609375 14.703125 C 9.007812 14.703125 8.5 14.492188 8.078125 14.070312 C 7.65625 13.648438 7.445312 13.136719 7.445312 12.539062 C 7.445312 11.941406 7.65625 11.433594 8.078125 11.011719 C 8.5 10.589844 9.007812 10.378906 9.609375 10.378906 C 10.203125 10.378906 10.714844 10.589844 11.132812 11.011719 C 11.238281 11.117188 11.367188 11.171875 11.519531 11.171875 C 11.667969 11.171875 11.792969 11.117188 11.898438 11.011719 C 12.003906 10.90625 12.054688 10.777344 12.054688 10.628906 C 12.054688 10.480469 12.003906 10.355469 11.898438 10.25 C 11.265625 9.617188 10.503906 9.300781 9.609375 9.300781 C 8.710938 9.300781 7.945312 9.617188 7.3125 10.25 C 6.683594 10.882812 6.367188 11.644531 6.367188 12.539062 C 6.367188 13.4375 6.683594 14.199219 7.3125 14.832031 C 7.945312 15.464844 8.710938 15.78125 9.609375 15.78125 Z M 9.609375 15.78125 "/>
</g>
</svg>
