<?xml version="1.0" encoding="UTF-8"?>
<svg xmlns="http://www.w3.org/2000/svg" xmlns:xlink="http://www.w3.org/1999/xlink" width="24px" height="24px" viewBox="0 0 24 24" version="1.1">
<g id="surface1">
<path style=" stroke:none;fill-rule:nonzero;fill:rgb(21.568628%,44.313726%,78.431374%);fill-opacity:1;" d="M 3.617188 0.304688 L 16.101562 0.304688 L 22.71875 6.894531 L 22.71875 22.347656 C 22.71875 23.160156 22.0625 23.816406 21.25 23.816406 L 3.617188 23.816406 C 2.804688 23.816406 2.148438 23.160156 2.148438 22.347656 L 2.148438 1.773438 C 2.148438 0.960938 2.804688 0.304688 3.617188 0.304688 Z M 3.617188 0.304688 "/>
<path style="fill-rule:nonzero;fill:rgb(21.568628%,44.313726%,78.431374%);fill-opacity:1;stroke-width:0.999669;stroke-linecap:round;stroke-linejoin:round;stroke:rgb(0%,0%,0%);stroke-opacity:1;stroke-miterlimit:4;" d="M 38.65872 0.00788559 L 202.872453 0.00788559 L 289.911897 86.687663 L 289.911897 289.950969 C 289.911897 300.63822 281.279886 309.270231 270.592634 309.270231 L 38.65872 309.270231 C 27.971468 309.270231 19.339457 300.63822 19.339457 289.950969 L 19.339457 19.327148 C 19.339457 8.639897 27.971468 0.00788559 38.65872 0.00788559 Z M 38.65872 0.00788559 " transform="matrix(0.0760252,0,0,0.0760252,0.678152,0.304088)"/>
<path style=" stroke:none;fill-rule:nonzero;fill:rgb(15.294118%,31.37255%,56.078434%);fill-opacity:1;" d="M 22.699219 6.917969 L 17.578125 6.917969 C 16.765625 6.917969 16.109375 6.257812 16.109375 5.449219 L 16.109375 0.320312 Z M 22.699219 6.917969 "/>
<path style="fill:none;stroke-width:1.4;stroke-linecap:round;stroke-linejoin:miter;stroke:rgb(100%,100%,100%);stroke-opacity:1;stroke-miterlimit:4;" d="M 33.90625 26.046875 C 33.90625 31.28125 29.65625 35.515625 24.40625 35.515625 C 19.164062 35.515625 14.90625 31.28125 14.90625 26.046875 C 14.90625 20.820312 19.164062 16.578125 24.40625 16.578125 C 29.65625 16.578125 33.90625 20.820312 33.90625 26.046875 Z M 33.90625 26.046875 " transform="matrix(0.5,0,0,0.5,0,0)"/>
<path style="fill:none;stroke-width:1.4;stroke-linecap:round;stroke-linejoin:miter;stroke:rgb(100%,100%,100%);stroke-opacity:1;stroke-miterlimit:4;" d="M 16.835938 31.578125 C 21.164062 29.960938 27.65625 29.960938 31.976562 31.578125 " transform="matrix(0.5,0,0,0.5,0,0)"/>
<path style="fill:none;stroke-width:1.4;stroke-linecap:butt;stroke-linejoin:miter;stroke:rgb(100%,100%,100%);stroke-opacity:1;stroke-miterlimit:4;" d="M 15.265625 26.046875 L 33.554688 26.046875 " transform="matrix(0.5,0,0,0.5,0,0)"/>
<path style="fill:none;stroke-width:1.4;stroke-linecap:round;stroke-linejoin:miter;stroke:rgb(100%,100%,100%);stroke-opacity:1;stroke-miterlimit:4;" d="M 22.242188 17.179688 C 19.539062 22.8125 19.539062 29.820312 22.242188 35.21875 " transform="matrix(0.5,0,0,0.5,0,0)"/>
<path style="fill:none;stroke-width:1.4;stroke-linecap:round;stroke-linejoin:miter;stroke:rgb(100%,100%,100%);stroke-opacity:1;stroke-miterlimit:4;" d="M 16.835938 20.523438 C 21.164062 22.140625 27.65625 22.140625 31.976562 20.523438 " transform="matrix(0.5,0,0,0.5,0,0)"/>
<path style="fill:none;stroke-width:1.4;stroke-linecap:round;stroke-linejoin:miter;stroke:rgb(100%,100%,100%);stroke-opacity:1;stroke-miterlimit:4;" d="M 26.570312 17.179688 C 29.273438 22.8125 29.273438 29.820312 26.570312 35.21875 " transform="matrix(0.5,0,0,0.5,0,0)"/>
</g>
</svg>
