<?xml version="1.0" encoding="UTF-8"?>
<svg xmlns="http://www.w3.org/2000/svg" xmlns:xlink="http://www.w3.org/1999/xlink" width="24px" height="24px" viewBox="0 0 24 24" version="1.1">
<g id="surface1">
<path style=" stroke:none;fill-rule:nonzero;fill:rgb(90.196079%,90.196079%,90.196079%);fill-opacity:1;" d="M 3.222656 0.359375 L 15.53125 0.359375 L 22.058594 6.859375 L 22.058594 22.09375 C 22.058594 22.894531 21.410156 23.542969 20.609375 23.542969 L 3.222656 23.542969 C 2.421875 23.542969 1.773438 22.894531 1.773438 22.09375 L 1.773438 1.808594 C 1.773438 1.007812 2.421875 0.359375 3.222656 0.359375 Z M 3.222656 0.359375 "/>
<path style=" stroke:none;fill-rule:nonzero;fill:rgb(40.000001%,40.000001%,40.000001%);fill-opacity:1;" d="M 14.644531 12.4375 L 15.136719 12.4375 L 15.015625 12.792969 L 14.523438 12.792969 Z M 13.523438 13.503906 L 13.253906 14.273438 C 13.222656 14.367188 13.226562 14.457031 13.269531 14.542969 C 13.3125 14.632812 13.378906 14.691406 13.472656 14.722656 C 13.511719 14.738281 13.546875 14.742188 13.589844 14.742188 C 13.757812 14.742188 13.867188 14.664062 13.921875 14.507812 L 14.277344 13.503906 L 14.765625 13.503906 L 14.496094 14.273438 C 14.464844 14.367188 14.46875 14.457031 14.511719 14.542969 C 14.554688 14.632812 14.621094 14.691406 14.710938 14.722656 C 14.75 14.738281 14.789062 14.742188 14.832031 14.742188 C 15 14.742188 15.109375 14.664062 15.164062 14.507812 L 15.515625 13.503906 L 16.160156 13.503906 C 16.257812 13.503906 16.339844 13.46875 16.410156 13.398438 C 16.480469 13.328125 16.515625 13.246094 16.515625 13.148438 C 16.515625 13.050781 16.480469 12.964844 16.410156 12.898438 C 16.339844 12.828125 16.257812 12.792969 16.160156 12.792969 L 15.765625 12.792969 L 15.886719 12.4375 L 16.335938 12.4375 C 16.433594 12.4375 16.519531 12.402344 16.589844 12.335938 C 16.65625 12.265625 16.691406 12.183594 16.691406 12.085938 C 16.691406 11.984375 16.65625 11.902344 16.589844 11.832031 C 16.519531 11.765625 16.433594 11.730469 16.335938 11.730469 L 16.136719 11.730469 L 16.40625 10.960938 C 16.4375 10.867188 16.433594 10.777344 16.390625 10.6875 C 16.347656 10.601562 16.28125 10.542969 16.1875 10.507812 C 16.09375 10.476562 16.003906 10.480469 15.917969 10.523438 C 15.828125 10.566406 15.769531 10.632812 15.738281 10.726562 L 15.382812 11.730469 L 14.894531 11.730469 L 15.164062 10.960938 C 15.195312 10.867188 15.191406 10.777344 15.148438 10.6875 C 15.105469 10.601562 15.039062 10.542969 14.945312 10.507812 C 14.855469 10.476562 14.765625 10.480469 14.675781 10.523438 C 14.585938 10.566406 14.527344 10.632812 14.496094 10.726562 L 14.144531 11.730469 L 13.5 11.730469 C 13.402344 11.730469 13.320312 11.765625 13.25 11.832031 C 13.179688 11.902344 13.144531 11.984375 13.144531 12.085938 C 13.144531 12.183594 13.179688 12.265625 13.25 12.335938 C 13.320312 12.402344 13.402344 12.4375 13.5 12.4375 L 13.894531 12.4375 L 13.773438 12.792969 L 13.324219 12.792969 C 13.226562 12.792969 13.140625 12.828125 13.070312 12.898438 C 13.003906 12.964844 12.96875 13.050781 12.96875 13.148438 C 12.96875 13.246094 13.003906 13.328125 13.070312 13.398438 C 13.140625 13.46875 13.226562 13.503906 13.324219 13.503906 Z M 13.523438 13.503906 "/>
<path style="fill-rule:nonzero;fill:rgb(60.000002%,60.000002%,60.000002%);fill-opacity:1;stroke-width:0.149924;stroke-linecap:butt;stroke-linejoin:miter;stroke:rgb(0%,0%,0%);stroke-opacity:1;stroke-miterlimit:4;" d="M 44.078125 13.765625 L 33.976562 13.765625 C 32.375 13.765625 31.078125 12.460938 31.078125 10.867188 L 31.078125 0.75 Z M 44.078125 13.765625 " transform="matrix(0.5,0,0,0.5,0,0)"/>
<path style="fill:none;stroke-width:0.15;stroke-linecap:round;stroke-linejoin:round;stroke:rgb(0%,0%,0%);stroke-opacity:1;stroke-miterlimit:4;" d="M 6.445312 0.71875 L 31.0625 0.71875 L 44.117188 13.71875 L 44.117188 44.1875 C 44.117188 45.789062 42.820312 47.085938 41.21875 47.085938 L 6.445312 47.085938 C 4.84375 47.085938 3.546875 45.789062 3.546875 44.1875 L 3.546875 3.617188 C 3.546875 2.015625 4.84375 0.71875 6.445312 0.71875 Z M 6.445312 0.71875 " transform="matrix(0.5,0,0,0.5,0,0)"/>
<path style=" stroke:none;fill-rule:nonzero;fill:rgb(40.000001%,40.000001%,40.000001%);fill-opacity:1;" d="M 9.609375 15.78125 C 10.503906 15.78125 11.265625 15.464844 11.898438 14.832031 C 12.003906 14.726562 12.054688 14.597656 12.054688 14.449219 C 12.054688 14.300781 12.003906 14.175781 11.898438 14.070312 C 11.792969 13.964844 11.667969 13.910156 11.519531 13.910156 C 11.367188 13.910156 11.238281 13.964844 11.132812 14.070312 C 10.714844 14.492188 10.203125 14.703125 9.609375 14.703125 C 9.007812 14.703125 8.5 14.492188 8.078125 14.070312 C 7.65625 13.648438 7.445312 13.136719 7.445312 12.539062 C 7.445312 11.941406 7.65625 11.433594 8.078125 11.011719 C 8.5 10.589844 9.007812 10.378906 9.609375 10.378906 C 10.203125 10.378906 10.714844 10.589844 11.132812 11.011719 C 11.238281 11.117188 11.367188 11.171875 11.519531 11.171875 C 11.667969 11.171875 11.792969 11.117188 11.898438 11.011719 C 12.003906 10.90625 12.054688 10.777344 12.054688 10.628906 C 12.054688 10.480469 12.003906 10.355469 11.898438 10.25 C 11.265625 9.617188 10.503906 9.300781 9.609375 9.300781 C 8.710938 9.300781 7.945312 9.617188 7.3125 10.25 C 6.683594 10.882812 6.367188 11.644531 6.367188 12.539062 C 6.367188 13.4375 6.683594 14.199219 7.3125 14.832031 C 7.945312 15.464844 8.710938 15.78125 9.609375 15.78125 Z M 9.609375 15.78125 "/>
</g>
</svg>
