<?xml version="1.0" encoding="UTF-8" standalone="no"?>
<svg
   xmlns:dc="http://purl.org/dc/elements/1.1/"
   xmlns:cc="http://creativecommons.org/ns#"
   xmlns:rdf="http://www.w3.org/1999/02/22-rdf-syntax-ns#"
   xmlns:svg="http://www.w3.org/2000/svg"
   xmlns="http://www.w3.org/2000/svg"
   xmlns:sodipodi="http://sodipodi.sourceforge.net/DTD/sodipodi-0.dtd"
   xmlns:inkscape="http://www.inkscape.org/namespaces/inkscape"
   height="48"
   width="48"
   version="1"
   id="svg12"
   sodipodi:docname="avatar-default.svg"
   inkscape:version="0.92.2 2405546, 2018-03-11">
  <metadata
     id="metadata18">
    <rdf:RDF>
      <cc:Work
         rdf:about="">
        <dc:format>image/svg+xml</dc:format>
        <dc:type
           rdf:resource="http://purl.org/dc/dcmitype/StillImage" />
      </cc:Work>
    </rdf:RDF>
  </metadata>
  <defs
     id="defs16">
    <mask
       id="mask0">
      <g
         style="filter:url(#alpha)"
         id="g7">
        <rect
           x="0"
           y="0"
           width="24"
           height="24"
           style="fill:#000000;fill-opacity:0.1;stroke:none"
           id="rect5" />
      </g>
    </mask>
    <filter
       id="alpha"
       filterUnits="objectBoundingBox"
       x="0"
       y="0"
       width="1"
       height="1">
      <feColorMatrix
         type="matrix"
         in="SourceGraphic"
         values="0 0 0 0 1 0 0 0 0 1 0 0 0 0 1 0 0 0 1 0"
         id="feColorMatrix2" />
    </filter>
  </defs>
  <sodipodi:namedview
     pagecolor="#ffffff"
     bordercolor="#666666"
     borderopacity="1"
     objecttolerance="10"
     gridtolerance="10"
     guidetolerance="10"
     inkscape:pageopacity="0"
     inkscape:pageshadow="2"
     inkscape:window-width="1920"
     inkscape:window-height="1019"
     id="namedview14"
     showgrid="false"
     inkscape:zoom="4.9166667"
     inkscape:cx="24"
     inkscape:cy="24.20339"
     inkscape:window-x="0"
     inkscape:window-y="5"
     inkscape:window-maximized="1"
     inkscape:current-layer="svg12" />
  <g
     transform="matrix(1.9491525,0,0,1.9491525,64.067796,-3.0508474)"
     id="surface1"
     style="fill:#009587;fill-opacity:1">
    <path
       inkscape:connector-curvature="0"
       style="fill:#009587;fill-opacity:1;fill-rule:nonzero;stroke:none"
       d="m -29.202175,2.0579489 h 17.261719 c 1.019531,0 1.847656,0.828124 1.847656,1.847656 V 24.007167 c 0,1.019532 -0.828125,1.847656 -1.847656,1.847656 h -17.261719 c -1.019531,0 -1.847656,-0.828124 -1.847656,-1.847656 V 3.9056049 c 0,-1.019532 0.828125,-1.847656 1.847656,-1.847656 z m 0,0"
       id="path13" />
  </g>
  <path
     style="color:#000000;opacity:0.2;stroke-width:1.21222913"
     d="m 24,11.771551 c -3.347571,0 -6.061146,2.713818 -6.061146,6.061146 0,3.347329 2.713575,6.061146 6.061146,6.061146 3.347571,0 6.061146,-2.713817 6.061146,-6.061146 0,-3.347328 -2.713575,-6.061146 -6.061146,-6.061146 z m 0,16.971209 c -12.120958,0.0076 -12.122292,7.758751 -12.122292,7.758751 v 1.939567 h 24.244584 v -1.939082 c 0,0 -1.52e-4,-7.763358 -12.119868,-7.758751 H 24 Z"
     id="path8"
     inkscape:connector-curvature="0" />
  <path
     d="m 24,10.559322 c -3.348177,0 -6.061146,2.714181 -6.061146,6.061146 0,3.346965 2.712969,6.061146 6.061146,6.061146 3.348177,0 6.061146,-2.714181 6.061146,-6.061146 0,-3.346965 -2.712969,-6.061146 -6.061146,-6.061146 z m 0,16.971208 c -12.12108,0.0073 -12.122292,7.758267 -12.122292,7.758267 v 1.939567 h 24.244584 v -1.939567 c 0,0 0,-7.763115 -12.119868,-7.758267 z"
     id="path10"
     inkscape:connector-curvature="0"
     style="fill:#ffffff;stroke-width:1.21222913" />
</svg>
