<?xml version="1.0" encoding="UTF-8"?>
<svg xmlns="http://www.w3.org/2000/svg" xmlns:xlink="http://www.w3.org/1999/xlink" width="16px" height="16px" viewBox="0 0 16 16" version="1.1">
<g id="surface1">
<path style=" stroke:none;fill-rule:nonzero;fill:rgb(21.568628%,44.313726%,78.431374%);fill-opacity:1;" d="M 2.410156 0.203125 L 10.734375 0.203125 L 15.148438 4.597656 L 15.148438 14.898438 C 15.148438 15.4375 14.707031 15.878906 14.167969 15.878906 L 2.410156 15.878906 C 1.871094 15.878906 1.433594 15.4375 1.433594 14.898438 L 1.433594 1.183594 C 1.433594 0.640625 1.871094 0.203125 2.410156 0.203125 Z M 2.410156 0.203125 "/>
<path style="fill-rule:nonzero;fill:rgb(21.568628%,44.313726%,78.431374%);fill-opacity:1;stroke-width:0.999669;stroke-linecap:round;stroke-linejoin:round;stroke:rgb(0%,0%,0%);stroke-opacity:1;stroke-miterlimit:4;" d="M 38.633029 0.00788559 L 202.872453 0.00788559 L 289.963278 86.713353 L 289.963278 289.950969 C 289.963278 300.586839 281.254195 309.295922 270.618324 309.295922 L 38.633029 309.295922 C 27.997159 309.295922 19.365148 300.586839 19.365148 289.950969 L 19.365148 19.352839 C 19.365148 8.639897 27.997159 0.00788559 38.633029 0.00788559 Z M 38.633029 0.00788559 " transform="matrix(0.0506834,0,0,0.0506834,0.452101,0.202725)"/>
<path style=" stroke:none;fill-rule:nonzero;fill:rgb(15.294118%,31.37255%,56.078434%);fill-opacity:1;" d="M 15.132812 4.609375 L 11.71875 4.609375 C 11.175781 4.609375 10.738281 4.171875 10.738281 3.632812 L 10.738281 0.210938 Z M 15.132812 4.609375 "/>
<path style="fill:none;stroke-width:1.4;stroke-linecap:round;stroke-linejoin:miter;stroke:rgb(100%,100%,100%);stroke-opacity:1;stroke-miterlimit:4;" d="M 33.902344 26.050781 C 33.902344 31.277344 29.648438 35.519531 24.410156 35.519531 C 19.160156 35.519531 14.90625 31.277344 14.90625 26.050781 C 14.90625 20.824219 19.160156 16.582031 24.410156 16.582031 C 29.648438 16.582031 33.902344 20.824219 33.902344 26.050781 Z M 33.902344 26.050781 " transform="matrix(0.333333,0,0,0.333333,0,0)"/>
<path style="fill:none;stroke-width:1.4;stroke-linecap:round;stroke-linejoin:miter;stroke:rgb(100%,100%,100%);stroke-opacity:1;stroke-miterlimit:4;" d="M 16.828125 31.570312 C 21.164062 29.953125 27.65625 29.953125 31.980469 31.570312 " transform="matrix(0.333333,0,0,0.333333,0,0)"/>
<path style="fill:none;stroke-width:1.4;stroke-linecap:butt;stroke-linejoin:miter;stroke:rgb(100%,100%,100%);stroke-opacity:1;stroke-miterlimit:4;" d="M 15.257812 26.050781 L 33.550781 26.050781 " transform="matrix(0.333333,0,0,0.333333,0,0)"/>
<path style="fill:none;stroke-width:1.4;stroke-linecap:round;stroke-linejoin:miter;stroke:rgb(100%,100%,100%);stroke-opacity:1;stroke-miterlimit:4;" d="M 22.242188 17.179688 C 19.535156 22.816406 19.535156 29.824219 22.242188 35.214844 " transform="matrix(0.333333,0,0,0.333333,0,0)"/>
<path style="fill:none;stroke-width:1.4;stroke-linecap:round;stroke-linejoin:miter;stroke:rgb(100%,100%,100%);stroke-opacity:1;stroke-miterlimit:4;" d="M 16.828125 20.519531 C 21.164062 22.136719 27.65625 22.136719 31.980469 20.519531 " transform="matrix(0.333333,0,0,0.333333,0,0)"/>
<path style="fill:none;stroke-width:1.4;stroke-linecap:round;stroke-linejoin:miter;stroke:rgb(100%,100%,100%);stroke-opacity:1;stroke-miterlimit:4;" d="M 26.566406 17.179688 C 29.273438 22.816406 29.273438 29.824219 26.566406 35.214844 " transform="matrix(0.333333,0,0,0.333333,0,0)"/>
</g>
</svg>
