<?xml version="1.0" encoding="UTF-8"?>
<svg xmlns="http://www.w3.org/2000/svg" xmlns:xlink="http://www.w3.org/1999/xlink" width="16px" height="16px" viewBox="0 0 16 16" version="1.1">
<g id="surface1">
<path style=" stroke:none;fill-rule:nonzero;fill:rgb(88.627452%,34.117648%,29.803923%);fill-opacity:1;" d="M 2.148438 0.242188 L 10.355469 0.242188 L 14.707031 4.574219 L 14.707031 14.730469 C 14.707031 15.265625 14.273438 15.695312 13.738281 15.695312 L 2.148438 15.695312 C 1.613281 15.695312 1.183594 15.265625 1.183594 14.730469 L 1.183594 1.207031 C 1.183594 0.671875 1.613281 0.242188 2.148438 0.242188 Z M 2.148438 0.242188 "/>
<path style="fill-rule:nonzero;fill:rgb(70.980394%,21.176471%,16.078432%);fill-opacity:1;stroke-width:1;stroke-linecap:butt;stroke-linejoin:miter;stroke:rgb(0%,0%,0%);stroke-opacity:1;stroke-miterlimit:4;" d="M 289.650658 86.950184 L 222.272928 86.950184 C 211.642567 86.950184 202.966317 78.352098 202.966317 67.643573 L 202.966317 0.187679 Z M 289.650658 86.950184 " transform="matrix(0.0499748,0,0,0.0499748,0.216177,0.240621)"/>
<path style=" stroke:none;fill-rule:nonzero;fill:rgb(100%,100%,100%);fill-opacity:1;" d="M 11.082031 7.5625 C 11.246094 7.5625 11.324219 7.421875 11.324219 7.285156 C 11.324219 7.144531 11.242188 7.007812 11.082031 7.007812 L 10.160156 7.007812 C 9.980469 7.007812 9.878906 7.15625 9.878906 7.320312 L 9.878906 9.585938 C 9.878906 9.789062 9.996094 9.902344 10.152344 9.902344 C 10.304688 9.902344 10.421875 9.789062 10.421875 9.585938 L 10.421875 8.964844 L 10.976562 8.964844 C 11.152344 8.964844 11.238281 8.824219 11.238281 8.683594 C 11.238281 8.546875 11.152344 8.410156 10.976562 8.410156 L 10.421875 8.410156 L 10.421875 7.5625 C 10.421875 7.5625 11.082031 7.5625 11.082031 7.5625 Z M 7.96875 7.007812 L 7.292969 7.007812 C 7.109375 7.007812 6.980469 7.132812 6.980469 7.320312 L 6.980469 9.589844 C 6.980469 9.820312 7.167969 9.894531 7.300781 9.894531 L 8.007812 9.894531 C 8.847656 9.894531 9.398438 9.339844 9.398438 8.492188 C 9.398438 7.589844 8.878906 7.007812 7.96875 7.007812 Z M 8 9.332031 L 7.589844 9.332031 L 7.589844 7.566406 L 7.960938 7.566406 C 8.519531 7.566406 8.765625 7.945312 8.765625 8.464844 C 8.765625 8.949219 8.523438 9.332031 8 9.332031 Z M 5.53125 7.007812 L 4.863281 7.007812 C 4.671875 7.007812 4.566406 7.132812 4.566406 7.320312 L 4.566406 9.585938 C 4.566406 9.789062 4.6875 9.902344 4.851562 9.902344 C 5.011719 9.902344 5.132812 9.789062 5.132812 9.585938 L 5.132812 8.925781 L 5.550781 8.925781 C 6.070312 8.925781 6.496094 8.558594 6.496094 7.972656 C 6.496094 7.394531 6.085938 7.007812 5.53125 7.007812 Z M 5.519531 8.394531 L 5.132812 8.394531 L 5.132812 7.539062 L 5.519531 7.539062 C 5.757812 7.539062 5.90625 7.726562 5.90625 7.96875 C 5.90625 8.207031 5.757812 8.394531 5.519531 8.394531 Z M 5.519531 8.394531 "/>
<path style="fill:none;stroke-width:1.000504;stroke-linecap:round;stroke-linejoin:round;stroke:rgb(0%,0%,0%);stroke-opacity:1;stroke-miterlimit:4;" d="M 38.664707 0.03135 L 202.888152 0.03135 L 289.963316 86.715691 L 289.963316 289.943182 C 289.963316 300.651707 281.287065 309.249793 270.57854 309.249793 L 38.664707 309.249793 C 27.956182 309.249793 19.358095 300.651707 19.358095 289.943182 L 19.358095 19.337962 C 19.358095 8.629436 27.956182 0.03135 38.664707 0.03135 Z M 38.664707 0.03135 " transform="matrix(0.0499748,0,0,0.0499748,0.216177,0.240621)"/>
</g>
</svg>
