<?xml version="1.0" encoding="UTF-8"?>
<svg xmlns="http://www.w3.org/2000/svg" xmlns:xlink="http://www.w3.org/1999/xlink" width="16px" height="16px" viewBox="0 0 16 16" version="1.1">
<g id="surface1">
<path style=" stroke:none;fill-rule:nonzero;fill:rgb(82.745099%,37.254903%,37.254903%);fill-opacity:1;" d="M 2.097656 0.136719 L 10.386719 0.136719 L 14.78125 4.515625 L 14.78125 14.773438 C 14.78125 15.3125 14.34375 15.746094 13.804688 15.746094 L 2.097656 15.746094 C 1.558594 15.746094 1.121094 15.3125 1.121094 14.773438 L 1.121094 1.113281 C 1.121094 0.574219 1.558594 0.136719 2.097656 0.136719 Z M 2.097656 0.136719 "/>
<path style=" stroke:none;fill-rule:nonzero;fill:rgb(62.7451%,17.254902%,17.254902%);fill-opacity:1;" d="M 14.765625 4.527344 L 11.367188 4.527344 C 10.828125 4.527344 10.390625 4.089844 10.390625 3.554688 L 10.390625 0.148438 Z M 14.765625 4.527344 "/>
<path style="fill:none;stroke-width:0.997283;stroke-linecap:round;stroke-linejoin:round;stroke:rgb(0%,0%,0%);stroke-opacity:1;stroke-miterlimit:4;" d="M 38.655634 -0.0334966 L 202.891566 -0.0334966 L 289.962926 86.728276 L 289.962926 289.972177 C 289.962926 300.652931 281.294488 309.243972 270.613735 309.243972 L 38.655634 309.243972 C 27.97488 309.243972 19.306443 300.652931 19.306443 289.972177 L 19.306443 19.315694 C 19.306443 8.634941 27.97488 -0.0334966 38.655634 -0.0334966 Z M 38.655634 -0.0334966 " transform="matrix(0.0504705,0,0,0.0504705,0.146689,0.138409)"/>
<path style="fill:none;stroke-width:0.997283;stroke-linecap:round;stroke-linejoin:round;stroke:rgb(0%,0%,0%);stroke-opacity:1;stroke-miterlimit:4;" d="M 289.653339 86.960466 L 222.318154 86.960466 C 211.637401 86.960466 202.968963 78.292028 202.968963 67.688672 L 202.968963 0.198694 Z M 289.653339 86.960466 " transform="matrix(0.0504705,0,0,0.0504705,0.146689,0.138409)"/>
<path style=" stroke:none;fill-rule:nonzero;fill:rgb(94.901961%,94.901961%,94.901961%);fill-opacity:1;" d="M 5.007812 5.699219 L 10.816406 5.699219 C 11.164062 5.699219 11.445312 5.980469 11.445312 6.328125 L 11.445312 10.371094 C 11.445312 10.71875 11.164062 11 10.816406 11 L 5.007812 11 C 4.65625 11 4.375 10.71875 4.375 10.371094 L 4.375 6.328125 C 4.375 5.980469 4.65625 5.699219 5.007812 5.699219 Z M 5.007812 5.699219 "/>
<path style=" stroke:none;fill-rule:nonzero;fill:rgb(82.745099%,37.254903%,37.254903%);fill-opacity:1;" d="M 5.257812 6.582031 L 10.5625 6.582031 L 10.5625 7.171875 L 5.257812 7.171875 Z M 5.257812 6.582031 "/>
<path style=" stroke:none;fill-rule:nonzero;fill:rgb(82.745099%,37.254903%,37.254903%);fill-opacity:1;" d="M 6.4375 7.761719 L 7.910156 7.761719 L 7.910156 8.347656 L 6.4375 8.347656 Z M 6.4375 7.761719 "/>
<path style=" stroke:none;fill-rule:nonzero;fill:rgb(82.745099%,37.254903%,37.254903%);fill-opacity:1;" d="M 5.847656 8.054688 C 5.847656 8.160156 5.792969 8.257812 5.703125 8.308594 C 5.609375 8.363281 5.496094 8.363281 5.40625 8.308594 C 5.316406 8.257812 5.257812 8.160156 5.257812 8.054688 C 5.257812 7.949219 5.316406 7.851562 5.40625 7.800781 C 5.496094 7.746094 5.609375 7.746094 5.703125 7.800781 C 5.792969 7.851562 5.847656 7.949219 5.847656 8.054688 Z M 5.847656 8.054688 "/>
<path style=" stroke:none;fill-rule:nonzero;fill:rgb(82.745099%,37.254903%,37.254903%);fill-opacity:1;" d="M 6.4375 8.644531 L 7.910156 8.644531 L 7.910156 9.234375 L 6.4375 9.234375 Z M 6.4375 8.644531 "/>
<path style=" stroke:none;fill-rule:nonzero;fill:rgb(82.745099%,37.254903%,37.254903%);fill-opacity:1;" d="M 5.847656 8.9375 C 5.847656 9.042969 5.792969 9.140625 5.703125 9.195312 C 5.609375 9.246094 5.496094 9.246094 5.40625 9.195312 C 5.316406 9.140625 5.257812 9.042969 5.257812 8.9375 C 5.257812 8.832031 5.316406 8.734375 5.40625 8.683594 C 5.496094 8.628906 5.609375 8.628906 5.703125 8.683594 C 5.792969 8.734375 5.847656 8.832031 5.847656 8.9375 Z M 5.847656 8.9375 "/>
<path style=" stroke:none;fill-rule:nonzero;fill:rgb(82.745099%,37.254903%,37.254903%);fill-opacity:1;" d="M 6.4375 9.527344 L 7.910156 9.527344 L 7.910156 10.117188 L 6.4375 10.117188 Z M 6.4375 9.527344 "/>
<path style=" stroke:none;fill-rule:nonzero;fill:rgb(82.745099%,37.254903%,37.254903%);fill-opacity:1;" d="M 5.847656 9.820312 C 5.847656 9.925781 5.792969 10.023438 5.703125 10.078125 C 5.609375 10.128906 5.496094 10.128906 5.40625 10.078125 C 5.316406 10.023438 5.257812 9.925781 5.257812 9.820312 C 5.257812 9.714844 5.316406 9.617188 5.40625 9.566406 C 5.496094 9.511719 5.609375 9.511719 5.703125 9.566406 C 5.792969 9.617188 5.847656 9.714844 5.847656 9.820312 Z M 5.847656 9.820312 "/>
<path style=" stroke:none;fill-rule:evenodd;fill:rgb(82.745099%,37.254903%,37.254903%);fill-opacity:1;" d="M 9.527344 7.746094 C 8.871094 7.746094 8.339844 8.277344 8.339844 8.933594 C 8.339844 9.589844 8.871094 10.121094 9.527344 10.121094 C 10.179688 10.121094 10.710938 9.589844 10.710938 8.933594 L 9.527344 8.933594 Z M 9.527344 7.746094 "/>
</g>
</svg>
