<?xml version="1.0" encoding="UTF-8"?>
<svg xmlns="http://www.w3.org/2000/svg" xmlns:xlink="http://www.w3.org/1999/xlink" width="16px" height="16px" viewBox="0 0 16 16" version="1.1">
<g id="surface1">
<path style=" stroke:none;fill-rule:nonzero;fill:rgb(21.568628%,44.313726%,78.431374%);fill-opacity:1;" d="M 2.148438 0.242188 L 10.355469 0.242188 L 14.707031 4.574219 L 14.707031 14.730469 C 14.707031 15.265625 14.273438 15.695312 13.738281 15.695312 L 2.148438 15.695312 C 1.613281 15.695312 1.183594 15.265625 1.183594 14.730469 L 1.183594 1.207031 C 1.183594 0.671875 1.613281 0.242188 2.148438 0.242188 Z M 2.148438 0.242188 "/>
<path style=" stroke:none;fill-rule:nonzero;fill:rgb(12.941177%,26.666668%,47.058824%);fill-opacity:1;" d="M 14.691406 4.585938 L 11.324219 4.585938 C 10.792969 4.585938 10.359375 4.15625 10.359375 3.621094 L 10.359375 0.25 Z M 14.691406 4.585938 "/>
<path style="fill:none;stroke-width:0.15;stroke-linecap:round;stroke-linejoin:round;stroke:rgb(0%,0%,0%);stroke-opacity:1;stroke-miterlimit:4;" d="M 6.445312 0.726562 L 31.066406 0.726562 L 44.121094 13.722656 L 44.121094 44.191406 C 44.121094 45.796875 42.820312 47.085938 41.214844 47.085938 L 6.445312 47.085938 C 4.839844 47.085938 3.550781 45.796875 3.550781 44.191406 L 3.550781 3.621094 C 3.550781 2.015625 4.839844 0.726562 6.445312 0.726562 Z M 6.445312 0.726562 " transform="matrix(0.333333,0,0,0.333333,0,0)"/>
<path style="fill:none;stroke-width:0.925756;stroke-linecap:butt;stroke-linejoin:miter;stroke:rgb(100%,100%,100%);stroke-opacity:1;stroke-miterlimit:4;" d="M 16.007812 35.296875 C 20.050781 37.910156 28.875 34.417969 21.539062 25.042969 C 14.273438 15.761719 28.769531 9.667969 33.070312 20.402344 " transform="matrix(0.333333,0,0,0.333333,0,0)"/>
<path style=" stroke:none;fill-rule:nonzero;fill:rgb(100%,100%,100%);fill-opacity:1;" d="M 4.570312 11.277344 L 5.492188 11.277344 L 5.492188 12.207031 L 4.570312 12.207031 Z M 4.570312 11.277344 "/>
<path style=" stroke:none;fill-rule:nonzero;fill:rgb(100%,100%,100%);fill-opacity:1;" d="M 10.40625 6.316406 L 11.328125 6.316406 L 11.328125 7.246094 L 10.40625 7.246094 Z M 10.40625 6.316406 "/>
<path style="fill:none;stroke-width:0.925756;stroke-linecap:butt;stroke-linejoin:miter;stroke:rgb(99.215686%,99.215686%,99.215686%);stroke-opacity:1;stroke-miterlimit:4;" d="M 15.035156 16.605469 L 28.980469 34.207031 " transform="matrix(0.333333,0,0,0.333333,0,0)"/>
<path style="fill-rule:nonzero;fill:rgb(37.64706%,37.64706%,37.64706%);fill-opacity:1;stroke-width:0.925756;stroke-linecap:butt;stroke-linejoin:miter;stroke:rgb(99.215686%,99.215686%,99.215686%);stroke-opacity:1;stroke-miterlimit:4;" d="M 16.019531 16.628906 C 16.019531 17.144531 15.609375 17.554688 15.09375 17.554688 C 14.589844 17.554688 14.179688 17.144531 14.179688 16.628906 C 14.179688 16.113281 14.589844 15.691406 15.09375 15.691406 C 15.609375 15.691406 16.019531 16.113281 16.019531 16.628906 Z M 16.019531 16.628906 " transform="matrix(0.333333,0,0,0.333333,0,0)"/>
<path style="fill-rule:nonzero;fill:rgb(37.64706%,37.64706%,37.64706%);fill-opacity:1;stroke-width:0.925756;stroke-linecap:butt;stroke-linejoin:miter;stroke:rgb(99.215686%,99.215686%,99.215686%);stroke-opacity:1;stroke-miterlimit:4;" d="M 29.835938 34.300781 C 29.835938 34.804688 29.425781 35.226562 28.921875 35.226562 C 28.40625 35.226562 27.996094 34.804688 27.996094 34.300781 C 27.996094 33.785156 28.40625 33.363281 28.921875 33.363281 C 29.425781 33.363281 29.835938 33.785156 29.835938 34.300781 Z M 29.835938 34.300781 " transform="matrix(0.333333,0,0,0.333333,0,0)"/>
<path style=" stroke:none;fill-rule:nonzero;fill:rgb(100%,100%,100%);fill-opacity:1;" d="M 6.722656 7.867188 L 7.644531 7.867188 L 7.644531 8.796875 L 6.722656 8.796875 Z M 6.722656 7.867188 "/>
</g>
</svg>
