<?xml version="1.0" encoding="UTF-8"?>
<svg xmlns="http://www.w3.org/2000/svg" xmlns:xlink="http://www.w3.org/1999/xlink" width="16px" height="16px" viewBox="0 0 16 16" version="1.1">
<g id="surface1">
<path style=" stroke:none;fill-rule:nonzero;fill:rgb(66.666669%,0%,26.666668%);fill-opacity:1;" d="M 2.410156 0.203125 L 10.734375 0.203125 L 15.148438 4.597656 L 15.148438 14.898438 C 15.148438 15.4375 14.707031 15.878906 14.167969 15.878906 L 2.410156 15.878906 C 1.871094 15.878906 1.433594 15.4375 1.433594 14.898438 L 1.433594 1.183594 C 1.433594 0.640625 1.871094 0.203125 2.410156 0.203125 Z M 2.410156 0.203125 "/>
<path style="fill-rule:nonzero;fill:rgb(61.960787%,23.921569%,39.215687%);fill-opacity:1;stroke-width:0.999669;stroke-linecap:round;stroke-linejoin:round;stroke:rgb(0%,0%,0%);stroke-opacity:1;stroke-miterlimit:4;" d="M 38.633029 0.00788246 L 202.872453 0.00788246 L 289.963278 86.71335 L 289.963278 289.950966 C 289.963278 300.586836 281.254195 309.295919 270.618324 309.295919 L 38.633029 309.295919 C 27.997159 309.295919 19.365148 300.586836 19.365148 289.950966 L 19.365148 19.352836 C 19.365148 8.639893 27.997159 0.00788246 38.633029 0.00788246 Z M 38.633029 0.00788246 " transform="matrix(0.0506834,0,0,0.0506834,0.452101,0.202725)"/>
<path style="fill-rule:nonzero;fill:rgb(41.960785%,8.235294%,21.568628%);fill-opacity:1;stroke-width:1;stroke-linecap:butt;stroke-linejoin:miter;stroke:rgb(0%,0%,0%);stroke-opacity:1;stroke-miterlimit:4;" d="M 289.654992 86.944564 L 222.294477 86.944564 C 211.581535 86.944564 202.949524 78.312553 202.949524 67.676683 L 202.949524 0.162026 Z M 289.654992 86.944564 " transform="matrix(0.0506834,0,0,0.0506834,0.452101,0.202725)"/>
<path style=" stroke:none;fill-rule:nonzero;fill:rgb(100%,100%,100%);fill-opacity:1;" d="M 5.667969 7.671875 L 5.667969 7.765625 C 5.667969 7.730469 5.671875 7.703125 5.675781 7.671875 Z M 5.667969 7.765625 L 5.667969 9 L 5.683594 9 C 5.804688 9.75 6.941406 10.332031 8.332031 10.332031 C 9.726562 10.332031 10.863281 9.75 10.984375 9 L 11 9 L 11 7.765625 C 11 8.574219 9.804688 9.234375 8.332031 9.234375 C 6.859375 9.234375 5.667969 8.574219 5.667969 7.765625 Z M 11 7.765625 L 11 7.671875 L 10.992188 7.671875 C 10.996094 7.703125 11 7.730469 11 7.765625 Z M 11 7.765625 "/>
<path style=" stroke:none;fill-rule:nonzero;fill:rgb(90.196079%,90.196079%,90.196079%);fill-opacity:1;" d="M 11 7.46875 C 11 8.28125 9.804688 8.941406 8.332031 8.941406 C 6.859375 8.941406 5.667969 8.28125 5.667969 7.46875 C 5.667969 6.65625 6.859375 6 8.332031 6 C 9.804688 6 11 6.65625 11 7.46875 Z M 11 7.46875 "/>
<path style=" stroke:none;fill-rule:nonzero;fill:rgb(100%,100%,100%);fill-opacity:1;" d="M 5.667969 9.101562 L 5.667969 9.195312 C 5.667969 9.164062 5.671875 9.132812 5.675781 9.101562 Z M 5.667969 9.195312 L 5.667969 10.429688 L 5.683594 10.429688 C 5.804688 11.179688 6.941406 11.765625 8.332031 11.765625 C 9.726562 11.765625 10.863281 11.179688 10.984375 10.429688 L 11 10.429688 L 11 9.195312 C 11 10.007812 9.804688 10.664062 8.332031 10.664062 C 6.859375 10.664062 5.667969 10.007812 5.667969 9.195312 Z M 11 9.195312 L 11 9.101562 L 10.992188 9.101562 C 10.996094 9.132812 11 9.164062 11 9.195312 Z M 11 9.195312 "/>
</g>
</svg>
