<?xml version="1.0" encoding="UTF-8"?>
<svg xmlns="http://www.w3.org/2000/svg" xmlns:xlink="http://www.w3.org/1999/xlink" width="16px" height="16px" viewBox="0 0 16 16" version="1.1">
<g id="surface1">
<path style=" stroke:none;fill-rule:nonzero;fill:rgb(14.901961%,65.098041%,81.960785%);fill-opacity:1;" d="M 2.410156 0.203125 L 10.734375 0.203125 L 15.148438 4.597656 L 15.148438 14.898438 C 15.148438 15.4375 14.707031 15.878906 14.167969 15.878906 L 2.410156 15.878906 C 1.871094 15.878906 1.433594 15.4375 1.433594 14.898438 L 1.433594 1.183594 C 1.433594 0.640625 1.871094 0.203125 2.410156 0.203125 Z M 2.410156 0.203125 "/>
<path style="fill-rule:nonzero;fill:rgb(11.764706%,49.411765%,62.7451%);fill-opacity:1;stroke-width:1;stroke-linecap:butt;stroke-linejoin:miter;stroke:rgb(0%,0%,0%);stroke-opacity:1;stroke-miterlimit:4;" d="M 289.654992 86.944565 L 222.294477 86.944565 C 211.581535 86.944565 202.949524 78.312554 202.949524 67.676683 L 202.949524 0.162026 Z M 289.654992 86.944565 " transform="matrix(0.0506834,0,0,0.0506834,0.452101,0.202725)"/>
<path style="fill:none;stroke-width:0.999669;stroke-linecap:round;stroke-linejoin:round;stroke:rgb(0%,0%,0%);stroke-opacity:1;stroke-miterlimit:4;" d="M 38.633029 0.00788285 L 202.872453 0.00788285 L 289.963278 86.71335 L 289.963278 289.950966 C 289.963278 300.586837 281.254195 309.295919 270.618324 309.295919 L 38.633029 309.295919 C 27.997159 309.295919 19.365148 300.586837 19.365148 289.950966 L 19.365148 19.352836 C 19.365148 8.639894 27.997159 0.00788285 38.633029 0.00788285 Z M 38.633029 0.00788285 " transform="matrix(0.0506834,0,0,0.0506834,0.452101,0.202725)"/>
<path style=" stroke:none;fill-rule:nonzero;fill:rgb(100%,100%,100%);fill-opacity:1;" d="M 8.578125 6.492188 L 11.964844 6.492188 L 11.964844 7.160156 L 8.578125 7.160156 Z M 8.578125 6.492188 "/>
<path style=" stroke:none;fill-rule:nonzero;fill:rgb(100%,100%,100%);fill-opacity:1;" d="M 4.667969 9.160156 L 11.933594 9.160156 L 11.933594 9.824219 L 4.667969 9.824219 Z M 4.667969 9.160156 "/>
<path style=" stroke:none;fill-rule:nonzero;fill:rgb(100%,100%,100%);fill-opacity:1;" d="M 4.667969 11.824219 L 8.539062 11.824219 L 8.539062 12.492188 L 4.667969 12.492188 Z M 4.667969 11.824219 "/>
<path style=" stroke:none;fill-rule:nonzero;fill:rgb(100%,100%,100%);fill-opacity:1;" d="M 8.589844 7.824219 L 11.964844 7.824219 L 11.964844 8.492188 L 8.589844 8.492188 Z M 8.589844 7.824219 "/>
<path style=" stroke:none;fill-rule:nonzero;fill:rgb(100%,100%,100%);fill-opacity:1;" d="M 8.558594 5.160156 L 11.964844 5.160156 L 11.964844 5.824219 L 8.558594 5.824219 Z M 8.558594 5.160156 "/>
<path style=" stroke:none;fill-rule:nonzero;fill:rgb(100%,100%,100%);fill-opacity:1;" d="M 6.40625 5.246094 C 6.589844 5.246094 6.738281 5.402344 6.855469 5.710938 C 7.582031 7.140625 7.96875 7.90625 8.015625 8.015625 L 8.015625 8.132812 C 8.015625 8.21875 7.929688 8.328125 7.757812 8.453125 L 7.65625 8.484375 L 7.597656 8.484375 C 7.433594 8.484375 7.304688 8.359375 7.207031 8.113281 L 7.097656 7.914062 L 5.679688 7.914062 C 5.53125 8.261719 5.425781 8.433594 5.355469 8.433594 C 5.328125 8.46875 5.277344 8.484375 5.207031 8.484375 L 5.128906 8.484375 C 5.011719 8.484375 4.902344 8.398438 4.804688 8.226562 L 4.785156 8.140625 L 4.785156 8.054688 C 4.785156 8.003906 4.9375 7.675781 5.246094 7.0625 C 5.640625 6.222656 5.921875 5.660156 6.089844 5.375 C 6.167969 5.296875 6.246094 5.25 6.328125 5.246094 Z M 6.070312 7.140625 L 6.699219 7.140625 L 6.386719 6.503906 C 6.335938 6.582031 6.230469 6.792969 6.070312 7.140625 Z M 6.070312 7.140625 "/>
<path style=" stroke:none;fill-rule:nonzero;fill:rgb(100%,100%,100%);fill-opacity:1;" d="M 4.667969 10.492188 L 11.933594 10.492188 L 11.933594 11.160156 L 4.667969 11.160156 Z M 4.667969 10.492188 "/>
</g>
</svg>
