<?xml version="1.0" encoding="UTF-8"?>
<svg xmlns="http://www.w3.org/2000/svg" xmlns:xlink="http://www.w3.org/1999/xlink" width="16px" height="16px" viewBox="0 0 16 16" version="1.1">
<g id="surface1">
<path style=" stroke:none;fill-rule:nonzero;fill:rgb(90.196079%,90.196079%,90.196079%);fill-opacity:1;" d="M 2.148438 0.242188 L 10.355469 0.242188 L 14.707031 4.574219 L 14.707031 14.730469 C 14.707031 15.265625 14.273438 15.695312 13.738281 15.695312 L 2.148438 15.695312 C 1.613281 15.695312 1.183594 15.265625 1.183594 14.730469 L 1.183594 1.207031 C 1.183594 0.671875 1.613281 0.242188 2.148438 0.242188 Z M 2.148438 0.242188 "/>
<path style="fill-rule:nonzero;fill:rgb(60.000002%,60.000002%,60.000002%);fill-opacity:1;stroke-width:0.149924;stroke-linecap:butt;stroke-linejoin:miter;stroke:rgb(0%,0%,0%);stroke-opacity:1;stroke-miterlimit:4;" d="M 44.074219 13.757812 L 33.972656 13.757812 C 32.378906 13.757812 31.078125 12.46875 31.078125 10.863281 L 31.078125 0.75 Z M 44.074219 13.757812 " transform="matrix(0.333333,0,0,0.333333,0,0)"/>
<path style="fill:none;stroke-width:0.15;stroke-linecap:round;stroke-linejoin:round;stroke:rgb(0%,0%,0%);stroke-opacity:1;stroke-miterlimit:4;" d="M 6.445312 0.726562 L 31.066406 0.726562 L 44.121094 13.722656 L 44.121094 44.191406 C 44.121094 45.796875 42.820312 47.085938 41.214844 47.085938 L 6.445312 47.085938 C 4.839844 47.085938 3.550781 45.796875 3.550781 44.191406 L 3.550781 3.621094 C 3.550781 2.015625 4.839844 0.726562 6.445312 0.726562 Z M 6.445312 0.726562 " transform="matrix(0.333333,0,0,0.333333,0,0)"/>
<path style=" stroke:none;fill-rule:nonzero;fill:rgb(40.000001%,40.000001%,40.000001%);fill-opacity:1;" d="M 3.425781 7.421875 L 3.480469 7.421875 C 3.597656 7.421875 3.691406 7.511719 3.753906 7.695312 L 4.308594 8.808594 C 4.46875 8.476562 4.683594 8.050781 4.960938 7.527344 C 5.015625 7.457031 5.082031 7.421875 5.15625 7.421875 L 5.195312 7.421875 C 5.28125 7.421875 5.363281 7.496094 5.441406 7.640625 L 5.449219 7.667969 L 5.449219 7.75 L 4.535156 9.570312 C 4.472656 9.652344 4.402344 9.691406 4.320312 9.691406 L 4.273438 9.691406 C 4.167969 9.691406 4.078125 9.601562 4 9.417969 C 3.800781 9.03125 3.53125 8.480469 3.191406 7.761719 L 3.1875 7.722656 L 3.1875 7.660156 C 3.1875 7.574219 3.25 7.5 3.375 7.433594 Z M 3.425781 7.421875 "/>
<path style=" stroke:none;fill-rule:nonzero;fill:rgb(40.000001%,40.000001%,40.000001%);fill-opacity:1;" d="M 6.917969 7.421875 C 7.046875 7.421875 7.152344 7.53125 7.234375 7.75 C 7.742188 8.75 8.015625 9.289062 8.046875 9.363281 L 8.046875 9.445312 C 8.046875 9.507812 7.988281 9.582031 7.867188 9.671875 L 7.792969 9.691406 L 7.753906 9.691406 C 7.640625 9.691406 7.546875 9.605469 7.480469 9.429688 L 7.402344 9.292969 L 6.410156 9.292969 C 6.308594 9.535156 6.230469 9.65625 6.183594 9.65625 C 6.164062 9.679688 6.128906 9.691406 6.078125 9.691406 L 6.023438 9.691406 C 5.941406 9.691406 5.867188 9.632812 5.796875 9.511719 L 5.785156 9.453125 L 5.785156 9.390625 C 5.785156 9.355469 5.890625 9.125 6.105469 8.695312 C 6.382812 8.105469 6.582031 7.710938 6.695312 7.511719 C 6.75 7.457031 6.808594 7.425781 6.863281 7.421875 Z M 6.683594 8.75 L 7.125 8.75 L 6.90625 8.304688 C 6.867188 8.359375 6.792969 8.507812 6.683594 8.75 Z M 6.683594 8.75 "/>
<path style=" stroke:none;fill-rule:nonzero;fill:rgb(40.000001%,40.000001%,40.000001%);fill-opacity:1;" d="M 8.683594 7.421875 C 8.765625 7.421875 8.839844 7.480469 8.902344 7.59375 L 8.921875 7.714844 L 8.914062 9.152344 L 8.914062 9.15625 L 9.75 9.15625 C 9.847656 9.15625 9.925781 9.230469 9.984375 9.371094 L 9.984375 9.457031 C 9.984375 9.558594 9.914062 9.636719 9.769531 9.691406 L 8.613281 9.691406 C 8.511719 9.691406 8.4375 9.621094 8.382812 9.480469 L 8.382812 7.652344 C 8.382812 7.554688 8.453125 7.476562 8.59375 7.421875 Z M 8.683594 7.421875 "/>
<path style=" stroke:none;fill-rule:nonzero;fill:rgb(40.000001%,40.000001%,40.000001%);fill-opacity:1;" d="M 11.453125 7.421875 C 11.578125 7.421875 11.683594 7.53125 11.765625 7.75 C 12.277344 8.75 12.546875 9.289062 12.582031 9.363281 L 12.582031 9.445312 C 12.582031 9.507812 12.519531 9.582031 12.398438 9.671875 L 12.328125 9.691406 L 12.285156 9.691406 C 12.171875 9.691406 12.082031 9.605469 12.011719 9.429688 L 11.9375 9.292969 L 10.941406 9.292969 C 10.839844 9.535156 10.765625 9.65625 10.71875 9.65625 C 10.695312 9.679688 10.660156 9.691406 10.613281 9.691406 L 10.558594 9.691406 C 10.476562 9.691406 10.398438 9.632812 10.332031 9.511719 L 10.316406 9.453125 L 10.316406 9.390625 C 10.316406 9.355469 10.425781 9.125 10.640625 8.695312 C 10.917969 8.105469 11.113281 7.710938 11.230469 7.511719 C 11.285156 7.457031 11.339844 7.425781 11.398438 7.421875 Z M 11.214844 8.75 L 11.65625 8.75 L 11.4375 8.304688 C 11.402344 8.359375 11.328125 8.507812 11.214844 8.75 Z M 11.214844 8.75 "/>
</g>
</svg>
