<?xml version="1.0" encoding="UTF-8"?>
<svg xmlns="http://www.w3.org/2000/svg" xmlns:xlink="http://www.w3.org/1999/xlink" width="16px" height="16px" viewBox="0 0 16 16" version="1.1">
<g id="surface1">
<path style=" stroke:none;fill-rule:nonzero;fill:rgb(90.196079%,90.196079%,90.196079%);fill-opacity:1;" d="M 2.148438 0.242188 L 10.355469 0.242188 L 14.707031 4.574219 L 14.707031 14.730469 C 14.707031 15.265625 14.273438 15.695312 13.738281 15.695312 L 2.148438 15.695312 C 1.613281 15.695312 1.183594 15.265625 1.183594 14.730469 L 1.183594 1.207031 C 1.183594 0.671875 1.613281 0.242188 2.148438 0.242188 Z M 2.148438 0.242188 "/>
<path style="fill-rule:nonzero;fill:rgb(60.000002%,60.000002%,60.000002%);fill-opacity:1;stroke-width:0.149924;stroke-linecap:butt;stroke-linejoin:miter;stroke:rgb(0%,0%,0%);stroke-opacity:1;stroke-miterlimit:4;" d="M 44.074219 13.757812 L 33.972656 13.757812 C 32.378906 13.757812 31.078125 12.46875 31.078125 10.863281 L 31.078125 0.75 Z M 44.074219 13.757812 " transform="matrix(0.333333,0,0,0.333333,0,0)"/>
<path style="fill:none;stroke-width:0.15;stroke-linecap:round;stroke-linejoin:round;stroke:rgb(0%,0%,0%);stroke-opacity:1;stroke-miterlimit:4;" d="M 6.445312 0.726562 L 31.066406 0.726562 L 44.121094 13.722656 L 44.121094 44.191406 C 44.121094 45.796875 42.820312 47.085938 41.214844 47.085938 L 6.445312 47.085938 C 4.839844 47.085938 3.550781 45.796875 3.550781 44.191406 L 3.550781 3.621094 C 3.550781 2.015625 4.839844 0.726562 6.445312 0.726562 Z M 6.445312 0.726562 " transform="matrix(0.333333,0,0,0.333333,0,0)"/>
<path style=" stroke:none;fill-rule:nonzero;fill:rgb(40.000001%,40.000001%,40.000001%);fill-opacity:1;" d="M 6.320312 5.148438 C 5.917969 5.148438 5.804688 5.285156 5.804688 5.667969 L 5.804688 6.964844 L 7.75 6.964844 L 5.285156 6.964844 C 4.847656 6.964844 4.507812 7.222656 4.507812 7.871094 L 4.507812 9.425781 C 4.507812 9.902344 4.765625 10.203125 5.285156 10.203125 L 6.0625 10.203125 L 6.0625 9.167969 C 6.0625 8.792969 6.328125 8.519531 6.710938 8.519531 L 8.785156 8.519531 C 9.027344 8.519531 9.175781 8.390625 9.175781 8.128906 L 9.175781 5.667969 C 9.175781 5.265625 8.980469 5.148438 8.65625 5.148438 Z M 6.320312 5.148438 "/>
<path style=" stroke:none;fill-rule:nonzero;fill:rgb(100%,100%,100%);fill-opacity:1;" d="M 7.359375 6.054688 C 7.359375 6.269531 7.183594 6.445312 6.96875 6.445312 C 6.753906 6.445312 6.582031 6.269531 6.582031 6.054688 C 6.582031 5.839844 6.753906 5.667969 6.96875 5.667969 C 7.183594 5.667969 7.359375 5.839844 7.359375 6.054688 Z M 7.359375 6.054688 "/>
<path style=" stroke:none;fill-rule:nonzero;fill:rgb(40.000001%,40.000001%,40.000001%);fill-opacity:1;" d="M 9.148438 12.148438 C 9.550781 12.148438 9.667969 12.011719 9.667969 11.628906 L 9.667969 10.332031 L 7.722656 10.332031 L 10.183594 10.332031 C 10.621094 10.332031 10.964844 10.074219 10.964844 9.425781 L 10.964844 7.871094 C 10.964844 7.394531 10.707031 7.09375 10.183594 7.09375 L 9.433594 7.09375 L 9.433594 8.128906 C 9.433594 8.515625 9.203125 8.777344 8.785156 8.777344 L 6.710938 8.777344 C 6.472656 8.777344 6.320312 8.917969 6.320312 9.167969 L 6.320312 11.628906 C 6.320312 12.03125 6.488281 12.148438 6.816406 12.148438 Z M 9.148438 12.148438 "/>
<path style=" stroke:none;fill-rule:nonzero;fill:rgb(100%,100%,100%);fill-opacity:1;" d="M 8.109375 11.242188 C 8.109375 11.027344 8.285156 10.851562 8.5 10.851562 C 8.714844 10.851562 8.890625 11.027344 8.890625 11.242188 C 8.890625 11.457031 8.714844 11.628906 8.5 11.628906 C 8.285156 11.628906 8.109375 11.457031 8.109375 11.242188 Z M 8.109375 11.242188 "/>
</g>
</svg>
