<?xml version="1.0" encoding="UTF-8"?>
<svg xmlns="http://www.w3.org/2000/svg" xmlns:xlink="http://www.w3.org/1999/xlink" width="16px" height="16px" viewBox="0 0 16 16" version="1.1">
<g id="surface1">
<path style=" stroke:none;fill-rule:nonzero;fill:rgb(90.196079%,90.196079%,90.196079%);fill-opacity:1;" d="M 2.148438 0.242188 L 10.355469 0.242188 L 14.707031 4.574219 L 14.707031 14.730469 C 14.707031 15.265625 14.273438 15.695312 13.738281 15.695312 L 2.148438 15.695312 C 1.613281 15.695312 1.183594 15.265625 1.183594 14.730469 L 1.183594 1.207031 C 1.183594 0.671875 1.613281 0.242188 2.148438 0.242188 Z M 2.148438 0.242188 "/>
<path style=" stroke:none;fill-rule:nonzero;fill:rgb(40.000001%,40.000001%,40.000001%);fill-opacity:1;" d="M 8.535156 8.640625 L 8.535156 9.046875 C 8.535156 9.113281 8.558594 9.167969 8.605469 9.214844 C 8.652344 9.257812 8.707031 9.28125 8.769531 9.28125 C 8.835938 9.28125 8.890625 9.257812 8.933594 9.214844 C 8.980469 9.167969 9.003906 9.113281 9.003906 9.046875 L 9.003906 8.640625 L 9.410156 8.640625 C 9.476562 8.640625 9.53125 8.617188 9.574219 8.570312 C 9.621094 8.527344 9.644531 8.472656 9.644531 8.40625 C 9.644531 8.34375 9.621094 8.289062 9.574219 8.242188 C 9.53125 8.199219 9.476562 8.175781 9.410156 8.175781 L 9.003906 8.175781 L 9.003906 7.765625 C 9.003906 7.703125 8.980469 7.648438 8.933594 7.601562 C 8.890625 7.554688 8.835938 7.535156 8.769531 7.535156 C 8.707031 7.535156 8.652344 7.554688 8.605469 7.601562 C 8.558594 7.648438 8.535156 7.703125 8.535156 7.765625 L 8.535156 8.175781 L 8.128906 8.175781 C 8.066406 8.175781 8.007812 8.199219 7.964844 8.242188 C 7.917969 8.289062 7.894531 8.34375 7.894531 8.40625 C 7.894531 8.472656 7.917969 8.527344 7.964844 8.570312 C 8.007812 8.617188 8.066406 8.640625 8.128906 8.640625 Z M 8.535156 8.640625 "/>
<path style="fill-rule:nonzero;fill:rgb(60.000002%,60.000002%,60.000002%);fill-opacity:1;stroke-width:0.149924;stroke-linecap:butt;stroke-linejoin:miter;stroke:rgb(0%,0%,0%);stroke-opacity:1;stroke-miterlimit:4;" d="M 44.074219 13.757812 L 33.972656 13.757812 C 32.378906 13.757812 31.078125 12.46875 31.078125 10.863281 L 31.078125 0.75 Z M 44.074219 13.757812 " transform="matrix(0.333333,0,0,0.333333,0,0)"/>
<path style="fill:none;stroke-width:0.15;stroke-linecap:round;stroke-linejoin:round;stroke:rgb(0%,0%,0%);stroke-opacity:1;stroke-miterlimit:4;" d="M 6.445312 0.726562 L 31.066406 0.726562 L 44.121094 13.722656 L 44.121094 44.191406 C 44.121094 45.796875 42.820312 47.085938 41.214844 47.085938 L 6.445312 47.085938 C 4.839844 47.085938 3.550781 45.796875 3.550781 44.191406 L 3.550781 3.621094 C 3.550781 2.015625 4.839844 0.726562 6.445312 0.726562 Z M 6.445312 0.726562 " transform="matrix(0.333333,0,0,0.333333,0,0)"/>
<path style=" stroke:none;fill-rule:nonzero;fill:rgb(40.000001%,40.000001%,40.000001%);fill-opacity:1;" d="M 10.472656 8.640625 L 10.472656 9.046875 C 10.472656 9.113281 10.496094 9.167969 10.542969 9.214844 C 10.589844 9.257812 10.644531 9.28125 10.707031 9.28125 C 10.773438 9.28125 10.828125 9.257812 10.871094 9.214844 C 10.917969 9.167969 10.941406 9.113281 10.941406 9.046875 L 10.941406 8.640625 L 11.347656 8.640625 C 11.414062 8.640625 11.46875 8.617188 11.511719 8.570312 C 11.558594 8.527344 11.582031 8.472656 11.582031 8.40625 C 11.582031 8.34375 11.558594 8.289062 11.511719 8.242188 C 11.46875 8.199219 11.414062 8.175781 11.347656 8.175781 L 10.941406 8.175781 L 10.941406 7.765625 C 10.941406 7.703125 10.917969 7.648438 10.871094 7.601562 C 10.828125 7.554688 10.773438 7.535156 10.707031 7.535156 C 10.644531 7.535156 10.589844 7.554688 10.542969 7.601562 C 10.496094 7.648438 10.472656 7.703125 10.472656 7.765625 L 10.472656 8.175781 L 10.066406 8.175781 C 10.003906 8.175781 9.945312 8.199219 9.902344 8.242188 C 9.855469 8.289062 9.832031 8.34375 9.832031 8.40625 C 9.832031 8.472656 9.855469 8.527344 9.902344 8.570312 C 9.945312 8.617188 10.003906 8.640625 10.066406 8.640625 Z M 10.472656 8.640625 "/>
<path style=" stroke:none;fill-rule:nonzero;fill:rgb(40.000001%,40.000001%,40.000001%);fill-opacity:1;" d="M 6.40625 10.519531 C 7 10.519531 7.511719 10.308594 7.933594 9.886719 C 8.003906 9.816406 8.039062 9.734375 8.039062 9.632812 C 8.039062 9.535156 8.003906 9.449219 7.933594 9.378906 C 7.863281 9.308594 7.777344 9.273438 7.679688 9.273438 C 7.578125 9.273438 7.492188 9.308594 7.421875 9.378906 C 7.140625 9.660156 6.804688 9.800781 6.40625 9.800781 C 6.007812 9.800781 5.664062 9.660156 5.386719 9.378906 C 5.105469 9.097656 4.964844 8.757812 4.964844 8.359375 C 4.964844 7.960938 5.105469 7.621094 5.386719 7.339844 C 5.664062 7.0625 6.007812 6.921875 6.40625 6.921875 C 6.804688 6.921875 7.140625 7.0625 7.421875 7.339844 C 7.492188 7.410156 7.578125 7.445312 7.679688 7.445312 C 7.777344 7.445312 7.863281 7.410156 7.933594 7.339844 C 8.003906 7.269531 8.039062 7.1875 8.039062 7.085938 C 8.039062 6.988281 8.003906 6.902344 7.933594 6.832031 C 7.511719 6.410156 7 6.199219 6.40625 6.199219 C 5.808594 6.199219 5.296875 6.410156 4.875 6.832031 C 4.453125 7.253906 4.242188 7.761719 4.242188 8.359375 C 4.242188 8.957031 4.453125 9.46875 4.875 9.886719 C 5.296875 10.308594 5.808594 10.519531 6.40625 10.519531 Z M 6.40625 10.519531 "/>
</g>
</svg>
