<?xml version="1.0" encoding="UTF-8" standalone="no"?>
<svg
   xmlns:dc="http://purl.org/dc/elements/1.1/"
   xmlns:cc="http://creativecommons.org/ns#"
   xmlns:rdf="http://www.w3.org/1999/02/22-rdf-syntax-ns#"
   xmlns:svg="http://www.w3.org/2000/svg"
   xmlns="http://www.w3.org/2000/svg"
   xmlns:xlink="http://www.w3.org/1999/xlink"
   xmlns:sodipodi="http://sodipodi.sourceforge.net/DTD/sodipodi-0.dtd"
   xmlns:inkscape="http://www.inkscape.org/namespaces/inkscape"
   viewBox="0 0 48 48"
   id="svg2"
   version="1.1"
   inkscape:version="0.92.2 2405546, 2018-03-11"
   width="100%"
   height="100%"
   sodipodi:docname="binary.svg">
  <metadata
     id="metadata61">
    <rdf:RDF>
      <cc:Work
         rdf:about="">
        <dc:format>image/svg+xml</dc:format>
        <dc:type
           rdf:resource="http://purl.org/dc/dcmitype/StillImage" />
      </cc:Work>
    </rdf:RDF>
  </metadata>
  <sodipodi:namedview
     pagecolor="#ffffff"
     bordercolor="#666666"
     borderopacity="1"
     objecttolerance="10"
     gridtolerance="10"
     guidetolerance="10"
     inkscape:pageopacity="0"
     inkscape:pageshadow="2"
     inkscape:window-width="1920"
     inkscape:window-height="1013"
     id="namedview59"
     showgrid="false"
     inkscape:zoom="4.9166667"
     inkscape:cx="-84.131423"
     inkscape:cy="24.610169"
     inkscape:window-x="0"
     inkscape:window-y="0"
     inkscape:window-maximized="1"
     inkscape:current-layer="svg2" />
  <defs
     id="defs4">
    <linearGradient
       id="linearGradient5060">
      <stop
         offset="0"
         id="stop7" />
      <stop
         offset="1"
         stop-opacity="0"
         id="stop9" />
    </linearGradient>
    <linearGradient
       gradientUnits="userSpaceOnUse"
       id="linearGradient3127"
       x2="0"
       y1="38.7186"
       y2="45.76167">
      <stop
         offset="0"
         stop-opacity="0"
         id="stop12" />
      <stop
         offset=".5"
         id="stop14" />
      <stop
         offset="1"
         stop-opacity="0"
         id="stop16" />
    </linearGradient>
    <linearGradient
       gradientUnits="userSpaceOnUse"
       id="linearGradient3157-5"
       x1="-42.69615"
       x2="-5.84311"
       gradientTransform="matrix(0,-1,-1,0,63.050847,-1.6271186)">
      <stop
         offset="0"
         stop-color="#fff"
         id="stop19" />
      <stop
         offset="1"
         stop-color="#cdcdcd"
         id="stop21" />
    </linearGradient>
    <linearGradient
       gradientUnits="userSpaceOnUse"
       id="linearGradient998"
       x1="6.40561"
       x2="41.36901"
       gradientTransform="rotate(90,32.338983,30.711864)">
      <stop
         offset="0"
         stop-color="#fff"
         id="stop24" />
      <stop
         offset="1"
         stop-color="#fff"
         stop-opacity="0"
         id="stop26" />
    </linearGradient>
    <linearGradient
       gradientUnits="userSpaceOnUse"
       id="linearGradient3124"
       x2="0"
       y1="46.18785"
       y2="6.23558">
      <stop
         offset="0"
         stop-color="#a0a0a0"
         id="stop29" />
      <stop
         offset="1"
         stop-color="#bebebe"
         id="stop31" />
    </linearGradient>
    <radialGradient
       cx="605.71429"
       cy="486.64789"
       gradientTransform="matrix(0.062142,0,0,0.029001,1.636502,28.085503)"
       gradientUnits="userSpaceOnUse"
       id="radialGradient3129"
       r="117.14286"
       xlink:href="#linearGradient5060" />
    <radialGradient
       cx="605.71429"
       cy="486.64789"
       gradientTransform="matrix(-0.062142,0,0,0.029001,46.53201,28.085503)"
       gradientUnits="userSpaceOnUse"
       id="radialGradient3131"
       r="117.14286"
       xlink:href="#linearGradient5060" />
  </defs>
  <path
     inkscape:connector-curvature="0"
     style="fill:#e6e6e6;stroke-width:0.14992435"
     d="M 6.4443073,0.721862 H 31.066385 L 44.11715,13.721953 v 30.468678 c 0,1.601042 -1.298195,2.897888 -2.897888,2.897888 H 6.4443073 c -1.599693,0 -2.897888,-1.296846 -2.897888,-2.897888 V 3.61975 c 0,-1.6010423 1.298345,-2.897888 2.897888,-2.897888 z"
     id="path2" />
  <path
     inkscape:connector-curvature="0"
     style="fill:#999999;stroke-width:0.14992435;stroke:#000000;stroke-opacity:1"
     d="M 44.075321,13.762433 H 33.974617 c -1.599693,0 -2.897888,-1.298195 -2.897888,-2.897888 V 0.7507974 Z"
     id="path4" />
  <path
     id="path892"
     d="M 6.4443073,0.721862 H 31.066385 L 44.11715,13.721953 v 30.468678 c 0,1.601042 -1.298195,2.897888 -2.897888,2.897888 H 6.4443073 c -1.599693,0 -2.897888,-1.296846 -2.897888,-2.897888 V 3.61975 c 0,-1.6010423 1.298345,-2.897888 2.897888,-2.897888 z"
     style="fill:none;stroke:#000000;stroke-width:0.15000001;stroke-linecap:round;stroke-linejoin:round;stroke-miterlimit:4;stroke-dasharray:none;stroke-opacity:1;paint-order:stroke fill markers"
     inkscape:connector-curvature="0" />
  <path
     inkscape:connector-curvature="0"
     style="fill:#999999;enable-background:new;fill-opacity:1"
     d="m 21.987189,18.194883 c -0.1743,0.018 -0.329428,0.158372 -0.361328,0.326172 L 21.41297,19.577696 A 7,7 0 0 0 18.983283,21.00543 L 17.85047,20.632383 c -0.1775,-0.059 -0.392981,0.01798 -0.488281,0.175781 l -1.642578,2.775391 c -0.0926,0.1595 -0.05296,0.3804 0.08984,0.5 l 0.980469,0.837891 a 7,7 0 0 0 -0.121094,1.273437 7,7 0 0 0 0.121094,1.275391 l -0.980469,0.83789 c -0.14279,0.1195 -0.182453,0.3404 -0.08984,0.5 l 1.642578,2.773437 c 0.09535,0.1573 0.310821,0.235382 0.488281,0.175782 l 1.132813,-0.373047 a 7,7 0 0 0 2.429687,1.429687 l 0.212891,1.056641 c 0.0351,0.179 0.210937,0.322219 0.398437,0.324219 h 3.289063 c 0.1874,0 0.363437,-0.145219 0.398437,-0.324219 l 0.212891,-1.058594 a 7,7 0 0 0 2.429687,-1.427734 l 1.132813,0.373047 c 0.17746,0.06 0.392941,-0.01808 0.488281,-0.175782 l 1.642578,-2.773437 c 0.0926,-0.1596 0.05296,-0.3805 -0.08984,-0.5 l -0.980472,-0.83789 a 7,7 0 0 0 0.121093,-1.275391 7,7 0 0 0 -0.121093,-1.275391 l 0.980469,-0.835937 c 0.142779,-0.1195 0.182443,-0.3404 0.08984,-0.5 L 29.97547,20.808164 c -0.095,-0.1576 -0.310281,-0.235281 -0.488281,-0.175781 l -1.13086,0.373047 a 7,7 0 0 0 -2.43164,-1.429688 l -0.212891,-1.05664 c -0.035,-0.1792 -0.211137,-0.321719 -0.398437,-0.324219 h -3.289063 c -0.01286,-3e-4 -0.02431,-3e-4 -0.03711,0 z m 1.68164,4 c 2.209,0 4.000001,1.7909 4,4 0,2.209 -1.791,4 -4,4 -2.2091,0 -4,-1.791 -4,-4 0,-2.2091 1.7909,-4 4,-4 z"
     id="path2-3" />
</svg>
