<?xml version="1.0" encoding="UTF-8" standalone="no"?>
<svg
   xmlns:dc="http://purl.org/dc/elements/1.1/"
   xmlns:cc="http://creativecommons.org/ns#"
   xmlns:rdf="http://www.w3.org/1999/02/22-rdf-syntax-ns#"
   xmlns:svg="http://www.w3.org/2000/svg"
   xmlns="http://www.w3.org/2000/svg"
   xmlns:xlink="http://www.w3.org/1999/xlink"
   xmlns:sodipodi="http://sodipodi.sourceforge.net/DTD/sodipodi-0.dtd"
   xmlns:inkscape="http://www.inkscape.org/namespaces/inkscape"
   viewBox="0 0 48 48"
   id="svg2"
   version="1.1"
   inkscape:version="0.92.2 2405546, 2018-03-11"
   width="100%"
   height="100%"
   sodipodi:docname="deb.svg">
  <metadata
     id="metadata56">
    <rdf:RDF>
      <cc:Work
         rdf:about="">
        <dc:format>image/svg+xml</dc:format>
        <dc:type
           rdf:resource="http://purl.org/dc/dcmitype/StillImage" />
      </cc:Work>
    </rdf:RDF>
  </metadata>
  <sodipodi:namedview
     pagecolor="#ffffff"
     bordercolor="#666666"
     borderopacity="1"
     objecttolerance="10"
     gridtolerance="10"
     guidetolerance="10"
     inkscape:pageopacity="0"
     inkscape:pageshadow="2"
     inkscape:window-width="1920"
     inkscape:window-height="1013"
     id="namedview54"
     showgrid="false"
     inkscape:zoom="4.9166667"
     inkscape:cx="-63.733833"
     inkscape:cy="25.118644"
     inkscape:window-x="0"
     inkscape:window-y="0"
     inkscape:window-maximized="1"
     inkscape:current-layer="text889"
     inkscape:snap-global="false" />
  <defs
     id="defs4">
    <linearGradient
       id="linearGradient5060">
      <stop
         offset="0"
         id="stop7" />
      <stop
         offset="1"
         stop-opacity="0"
         id="stop9" />
    </linearGradient>
    <linearGradient
       gradientUnits="userSpaceOnUse"
       id="linearGradient3127"
       x2="0"
       y1="38.7186"
       y2="45.76167">
      <stop
         offset="0"
         stop-opacity="0"
         id="stop12" />
      <stop
         offset=".5"
         id="stop14" />
      <stop
         offset="1"
         stop-opacity="0"
         id="stop16" />
    </linearGradient>
    <linearGradient
       gradientUnits="userSpaceOnUse"
       id="linearGradient3157-5"
       x1="-42.69615"
       x2="-5.84311">
      <stop
         offset="0"
         stop-color="#ae802b"
         id="stop19" />
      <stop
         offset="1"
         stop-color="#e1c18b"
         id="stop21" />
    </linearGradient>
    <linearGradient
       gradientUnits="userSpaceOnUse"
       id="linearGradient998"
       x1="6.40561"
       x2="41.36901">
      <stop
         offset="0"
         stop-color="#fff"
         stop-opacity=".5"
         id="stop24" />
      <stop
         offset="1"
         stop-color="#fff"
         stop-opacity="0"
         id="stop26" />
    </linearGradient>
    <radialGradient
       cx="605.71429"
       cy="486.64789"
       gradientTransform="matrix(.062142,0,0,.029001,1.636502,28.085503)"
       gradientUnits="userSpaceOnUse"
       id="radialGradient3129"
       r="117.14286"
       xlink:href="#linearGradient5060" />
    <radialGradient
       cx="605.71429"
       cy="486.64789"
       gradientTransform="matrix(-.062142,0,0,.029001,46.53201,28.085503)"
       gradientUnits="userSpaceOnUse"
       id="radialGradient3131"
       r="117.14286"
       xlink:href="#linearGradient5060" />
    <linearGradient
       gradientUnits="userSpaceOnUse"
       id="linearGradient998-3"
       x1="6.4056101"
       x2="41.369011"
       gradientTransform="matrix(0,1.1097741,-1.1097741,0,-78.447176,-6.853955)">
      <stop
         offset="0"
         stop-color="#fff"
         stop-opacity=".5"
         id="stop19-6" />
      <stop
         offset="1"
         stop-color="#fff"
         stop-opacity="0"
         id="stop21-7" />
    </linearGradient>
    <linearGradient
       gradientTransform="matrix(1.1097741,0,0,1.1097741,-78.447176,-6.8539553)"
       y2="24.20339"
       y1="6.1016898"
       x2="0"
       id="linearGradient909"
       gradientUnits="userSpaceOnUse">
      <stop
         id="stop905"
         stop-color="#bf914e"
         offset="0"
         style="stop-color:#d7a358;stop-opacity:1" />
      <stop
         id="stop907"
         stop-color="#8b5810"
         offset="1"
         style="stop-color:#8f5b10;stop-opacity:1" />
    </linearGradient>
  </defs>
  <g
     aria-label="RPM"
     transform="translate(6.3065222,65.645171)"
     style="font-style:normal;font-weight:normal;font-size:11.78168392px;line-height:1.25;font-family:sans-serif;letter-spacing:0px;word-spacing:0px;fill:#764f43;fill-opacity:1;stroke:#764f43;stroke-width:0.2945421;stroke-opacity:1"
     id="text889">
    <path
       inkscape:connector-curvature="0"
       style="fill:#3771c8;fill-opacity:1;stroke-width:0.14992435"
       d="M 0.13778497,-64.92331 H 24.759863 l 13.050765,13.000091 v 30.468678 c 0,1.601042 -1.298195,2.897888 -2.897888,2.897888 H 0.13778497 c -1.59969297,0 -2.89788797,-1.296846 -2.89788797,-2.897888 v -40.570881 c 0,-1.601042 1.298345,-2.897888 2.89788797,-2.897888 z"
       id="path2" />
    <path
       inkscape:connector-curvature="0"
       style="fill:#214478;stroke-width:0.14992435"
       d="M 37.768799,-51.882739 H 27.668095 c -1.599693,0 -2.897888,-1.298195 -2.897888,-2.897888 v -10.113748 z"
       id="path4" />
    <path
       id="path892"
       d="M 0.13778497,-64.92331 H 24.759863 l 13.050765,13.000091 v 30.468678 c 0,1.601042 -1.298195,2.897888 -2.897888,2.897888 H 0.13778497 c -1.59969297,0 -2.89788797,-1.296846 -2.89788797,-2.897888 v -40.570881 c 0,-1.601042 1.298345,-2.897888 2.89788797,-2.897888 z"
       style="fill:none;stroke:#000000;stroke-width:0.15000001;stroke-linecap:round;stroke-linejoin:round;stroke-miterlimit:4;stroke-dasharray:none;stroke-opacity:1;paint-order:stroke fill markers"
       inkscape:connector-curvature="0" />
    <path
       inkscape:connector-curvature="0"
       style="fill:none;fill-opacity:1;fill-rule:evenodd;stroke:#ffffff;stroke-width:0.9257555px;stroke-linecap:butt;stroke-linejoin:miter;stroke-opacity:1"
       id="path948"
       d="m 9.7059377,-30.346663 c 4.0418153,2.616963 12.8662903,-0.884158 5.5298813,-10.253539 -7.2699953,-9.284565 7.223128,-15.374132 11.523911,-4.636812" />
    <rect
       style="fill:#ffffff;fill-opacity:1;stroke:none;stroke-width:0.92575562"
       id="rect950"
       y="-31.814304"
       x="7.408587"
       height="2.7901444"
       width="2.7644489" />
    <rect
       style="fill:#ffffff;fill-opacity:1;stroke:none;stroke-width:0.92575562"
       id="rect952"
       y="-46.695068"
       x="24.916767"
       height="2.7901444"
       width="2.7644489" />
    <path
       inkscape:connector-curvature="0"
       style="fill:none;stroke:#fdfdfd;stroke-width:0.92575562px;stroke-linecap:butt;stroke-linejoin:miter;stroke-opacity:1"
       id="path954"
       d="M 8.7339707,-49.037874 22.675818,-31.440376" />
    <path
       inkscape:connector-curvature="0"
       style="fill:#606060;fill-opacity:1;stroke:#fdfdfd;stroke-width:0.92575562;stroke-linecap:butt;stroke-miterlimit:4;stroke-dasharray:none;stroke-opacity:1"
       id="path956"
       d="m 9.7122947,-49.02019 c 3.42e-4,0.513896 -0.412321,0.930674 -0.921484,0.930674 -0.509162,0 -0.921825,-0.416778 -0.921482,-0.930674 -3.43e-4,-0.513897 0.41232,-0.930674 0.921482,-0.930674 0.509163,0 0.921826,0.416777 0.921484,0.930674 z" />
    <path
       inkscape:connector-curvature="0"
       style="fill:#606060;fill-opacity:1;stroke:#fdfdfd;stroke-width:0.92575562;stroke-linecap:butt;stroke-miterlimit:4;stroke-dasharray:none;stroke-opacity:1"
       id="path958"
       d="m 23.534539,-31.349274 c 3.43e-4,0.513895 -0.41232,0.930674 -0.921483,0.930674 -0.509163,0 -0.921826,-0.416779 -0.921483,-0.930674 -3.43e-4,-0.513897 0.41232,-0.930676 0.921483,-0.930676 0.509163,0 0.921826,0.416779 0.921483,0.930676 z" />
    <rect
       style="fill:#ffffff;fill-opacity:1;stroke:none;stroke-width:0.92575562"
       id="rect960"
       y="-42.04483"
       x="13.858967"
       height="2.7901444"
       width="2.7644489" />
    <path
       inkscape:connector-curvature="0"
       style="fill:#214478;stroke-width:0.15290539"
       d="M 38.172688,-51.673278 H 27.871145 c -1.631501,0 -2.955509,-1.324007 -2.955509,-2.955508 v -10.314846 z"
       id="path4-3" />
    <path
       inkscape:connector-curvature="0"
       style="fill:none;fill-opacity:1;fill-rule:evenodd;stroke:#ffffff;stroke-width:0.94416291px;stroke-linecap:butt;stroke-linejoin:miter;stroke-opacity:1"
       id="path948-6"
       d="m 9.5518347,-29.708986 c 4.1221813,2.668997 13.1221183,-0.901738 5.6398353,-10.457417 -7.4145493,-9.469175 7.36675,-15.679825 11.753049,-4.729008" />
    <rect
       style="fill:#ffffff;fill-opacity:1;stroke:none;stroke-width:0.94416302"
       id="rect950-7"
       y="-31.205805"
       x="7.2088046"
       height="2.8456225"
       width="2.819416" />
    <rect
       style="fill:#ffffff;fill-opacity:1;stroke:none;stroke-width:0.94416302"
       id="rect952-5"
       y="-46.382462"
       x="25.065111"
       height="2.8456225"
       width="2.819416" />
    <path
       inkscape:connector-curvature="0"
       style="fill:none;stroke:#fdfdfd;stroke-width:0.94416302px;stroke-linecap:butt;stroke-linejoin:miter;stroke-opacity:1"
       id="path954-3"
       d="M 8.5605417,-48.771846 22.779603,-30.824447" />
    <path
       inkscape:connector-curvature="0"
       style="fill:#606060;fill-opacity:1;stroke:#fdfdfd;stroke-width:0.94416302;stroke-linecap:butt;stroke-miterlimit:4;stroke-dasharray:none;stroke-opacity:1"
       id="path956-5"
       d="m 9.5583177,-48.753811 c 3.5e-4,0.524114 -0.420519,0.94918 -0.939806,0.94918 -0.519286,0 -0.940154,-0.425066 -0.939804,-0.94918 -3.5e-4,-0.524115 0.420518,-0.949179 0.939804,-0.949179 0.519287,0 0.940156,0.425064 0.939806,0.949179 z" />
    <path
       inkscape:connector-curvature="0"
       style="fill:#606060;fill-opacity:1;stroke:#fdfdfd;stroke-width:0.94416302;stroke-linecap:butt;stroke-miterlimit:4;stroke-dasharray:none;stroke-opacity:1"
       id="path958-6"
       d="m 23.655399,-30.731533 c 3.5e-4,0.524113 -0.420519,0.949179 -0.939806,0.949179 -0.519287,0 -0.940155,-0.425066 -0.939805,-0.949179 -3.5e-4,-0.524115 0.420518,-0.949181 0.939805,-0.949181 0.519287,0 0.940156,0.425066 0.939806,0.949181 z" />
    <rect
       style="fill:#ffffff;fill-opacity:1;stroke:none;stroke-width:0.94416302"
       id="rect960-2"
       y="-41.639759"
       x="13.787441"
       height="2.8456225"
       width="2.819416" />
    <rect
       ry="3.6579025"
       rx="3.6579025"
       y="-65.100388"
       x="-3.2811487"
       height="47.09621"
       width="41.474648"
       id="rect859"
       style="opacity:1;fill:#cfb48b;fill-opacity:1;stroke:#000000;stroke-width:0.25497091;stroke-linecap:round;stroke-linejoin:round;stroke-miterlimit:4;stroke-dasharray:none;stroke-opacity:1;paint-order:stroke fill markers" />
    <g
       transform="matrix(0.07133516,0,0,0.07133516,-1.5772147,-55.45417)"
       id="g20">
      <path
         inkscape:connector-curvature="0"
         style="fill:#764f43"
         d="m 46.265,386.756 12.988,-12.988 v 62.022 c 0,4.328 3.508,7.837 7.837,7.837 4.329,0 7.837,-3.509 7.837,-7.837 v -62.022 l 12.987,12.987 c 1.531,1.531 3.536,2.296 5.542,2.296 2.005,0 4.011,-0.765 5.542,-2.296 3.061,-3.06 3.061,-8.023 0,-11.082 L 72.633,349.307 c -1.47,-1.47 -3.463,-2.296 -5.542,-2.296 -2.078,0 -4.071,0.825 -5.542,2.296 l -26.366,26.366 c -3.061,3.06 -3.061,8.023 0,11.082 3.059,3.061 8.021,3.062 11.082,10e-4 z"
         id="path14" />
      <path
         inkscape:connector-curvature="0"
         style="fill:#764f43"
         d="m 124.629,386.756 12.987,-12.987 v 62.022 c 0,4.328 3.508,7.837 7.837,7.837 4.329,0 7.837,-3.509 7.837,-7.837 v -62.022 l 12.987,12.987 c 1.531,1.531 3.536,2.296 5.542,2.296 2.005,0 4.011,-0.765 5.542,-2.296 3.061,-3.06 3.061,-8.023 0,-11.082 l -26.365,-26.366 c -1.47,-1.47 -3.463,-2.296 -5.542,-2.296 -2.079,0 -4.071,0.825 -5.542,2.296 l -26.365,26.366 c -3.061,3.06 -3.061,8.023 0,11.082 3.06,3.06 8.021,3.06 11.082,0 z"
         id="path16" />
      <path
         inkscape:connector-curvature="0"
         style="fill:#764f43"
         d="M 171.312,455.12 H 41.229 c -4.329,0 -7.837,3.509 -7.837,7.837 0,4.328 3.508,7.837 7.837,7.837 h 130.082 c 4.329,0 7.837,-3.509 7.837,-7.837 0,-4.328 -3.507,-7.837 -7.836,-7.837 z"
         id="path18-3" />
    </g>
    <rect
       x="24.435295"
       y="-30.759203"
       style="opacity:0.72000002;fill:#f5ffff;stroke-width:0.07684816"
       width="10.719014"
       height="8.3108997"
       id="rect22"
       ry="1.7111731" />
    <g
       transform="matrix(0.07684817,0,0,0.07684817,-1.185115,-44.414748)"
       id="g28">
      <path
         inkscape:connector-curvature="0"
         style="fill:#764f43"
         d="m 443.624,220.83 h -79.93 c -4.329,0 -7.837,-3.509 -7.837,-7.837 0,-4.328 3.508,-7.837 7.837,-7.837 h 79.93 c 4.329,0 7.837,3.509 7.837,7.837 0,4.328 -3.508,7.837 -7.837,7.837 z"
         id="path24-6" />
      <path
         inkscape:connector-curvature="0"
         style="fill:#764f43"
         d="m 443.624,258.383 h -79.93 c -4.329,0 -7.837,-3.509 -7.837,-7.837 0,-4.328 3.508,-7.837 7.837,-7.837 h 79.93 c 4.329,0 7.837,3.509 7.837,7.837 0,4.328 -3.508,7.837 -7.837,7.837 z"
         id="path26-7" />
    </g>
    <rect
       x="10.765097"
       y="-64.637939"
       style="fill:#ba966c;stroke-width:0.10466779"
       width="12.895073"
       height="15.658304"
       id="rect904" />
    <rect
       y="-65.05661"
       x="10.765097"
       style="fill:#e5d3ae;stroke-width:0.10466779"
       width="12.895073"
       height="15.658304"
       id="rect906" />
    <polyline
       style="fill:#e0cca0"
       points="174.4,149.6 297.6,149.6 297.6,0 "
       id="polyline908"
       transform="matrix(0.10466781,0,0,0.10466781,-7.4889681,-65.056614)" />
    <text
       xml:space="preserve"
       style="font-style:normal;font-weight:normal;font-size:12.72071266px;line-height:1.25;font-family:sans-serif;letter-spacing:0px;word-spacing:0px;fill:#764f43;fill-opacity:1;stroke:none;stroke-width:0.28100893"
       x="2.4542007"
       y="-36.357033"
       id="text952"><tspan
         sodipodi:role="line"
         id="tspan950"
         x="2.4542007"
         y="-36.357033"
         style="font-style:normal;font-variant:normal;font-weight:normal;font-stretch:normal;font-family:Maagkramp;-inkscape-font-specification:Maagkramp;fill:#764f43;fill-opacity:1;stroke-width:0.28100893">.DEB</tspan></text>
  </g>
</svg>
