<?xml version="1.0" encoding="UTF-8" standalone="no"?>
<svg
   xmlns:dc="http://purl.org/dc/elements/1.1/"
   xmlns:cc="http://creativecommons.org/ns#"
   xmlns:rdf="http://www.w3.org/1999/02/22-rdf-syntax-ns#"
   xmlns:svg="http://www.w3.org/2000/svg"
   xmlns="http://www.w3.org/2000/svg"
   xmlns:xlink="http://www.w3.org/1999/xlink"
   xmlns:sodipodi="http://sodipodi.sourceforge.net/DTD/sodipodi-0.dtd"
   xmlns:inkscape="http://www.inkscape.org/namespaces/inkscape"
   viewBox="0 0 48 48"
   id="svg2"
   version="1.1"
   inkscape:version="0.92.2 2405546, 2018-03-11"
   width="100%"
   height="100%"
   sodipodi:docname="package-x-generic.svg">
  <metadata
     id="metadata61">
    <rdf:RDF>
      <cc:Work
         rdf:about="">
        <dc:format>image/svg+xml</dc:format>
        <dc:type
           rdf:resource="http://purl.org/dc/dcmitype/StillImage" />
      </cc:Work>
    </rdf:RDF>
  </metadata>
  <sodipodi:namedview
     pagecolor="#ffffff"
     bordercolor="#666666"
     borderopacity="1"
     objecttolerance="10"
     gridtolerance="10"
     guidetolerance="10"
     inkscape:pageopacity="0"
     inkscape:pageshadow="2"
     inkscape:window-width="1920"
     inkscape:window-height="1013"
     id="namedview59"
     showgrid="false"
     inkscape:zoom="8.6350197"
     inkscape:cx="45.084014"
     inkscape:cy="7.6889755"
     inkscape:window-x="0"
     inkscape:window-y="0"
     inkscape:window-maximized="1"
     inkscape:current-layer="svg2"
     inkscape:snap-global="false" />
  <defs
     id="defs4">
    <linearGradient
       gradientTransform="matrix(1.1097741,0,0,1.1097741,-78.447176,-6.8539553)"
       y2="24.20339"
       y1="6.1016898"
       x2="0"
       id="linearGradient909"
       gradientUnits="userSpaceOnUse">
      <stop
         id="stop905"
         stop-color="#bf914e"
         offset="0"
         style="stop-color:#d7a358;stop-opacity:1" />
      <stop
         id="stop907"
         stop-color="#8b5810"
         offset="1"
         style="stop-color:#8f5b10;stop-opacity:1" />
    </linearGradient>
    <linearGradient
       id="linearGradient5060">
      <stop
         offset="0"
         id="stop7" />
      <stop
         offset="1"
         stop-opacity="0"
         id="stop9" />
    </linearGradient>
    <linearGradient
       gradientUnits="userSpaceOnUse"
       id="linearGradient3127"
       x2="0"
       y1="38.7186"
       y2="45.76167">
      <stop
         offset="0"
         stop-opacity="0"
         id="stop12" />
      <stop
         offset=".5"
         id="stop14" />
      <stop
         offset="1"
         stop-opacity="0"
         id="stop16" />
    </linearGradient>
    <linearGradient
       gradientUnits="userSpaceOnUse"
       id="linearGradient998"
       x1="6.40561"
       x2="41.36901"
       gradientTransform="matrix(0,1.1097741,-1.1097741,0,-78.447176,-6.853955)">
      <stop
         offset="0"
         stop-color="#fff"
         stop-opacity=".5"
         id="stop19" />
      <stop
         offset="1"
         stop-color="#fff"
         stop-opacity="0"
         id="stop21" />
    </linearGradient>
    <linearGradient
       gradientUnits="userSpaceOnUse"
       id="linearGradient3157-5-2"
       x1="-42.69615"
       x2="-5.84311"
       gradientTransform="matrix(0,-1.1097741,-1.1097741,0,-78.447176,-6.8539553)">
      <stop
         offset="0"
         stop-color="#ae802b"
         id="stop29" />
      <stop
         offset="1"
         stop-color="#e1c18b"
         id="stop31" />
    </linearGradient>
    <radialGradient
       cx="605.71429"
       cy="486.64789"
       gradientTransform="matrix(0.062142,0,0,0.029001,1.636502,28.085503)"
       gradientUnits="userSpaceOnUse"
       id="radialGradient3129"
       r="117.14286"
       xlink:href="#linearGradient5060" />
    <radialGradient
       cx="605.71429"
       cy="486.64789"
       gradientTransform="matrix(-0.062142,0,0,0.029001,46.53201,28.085503)"
       gradientUnits="userSpaceOnUse"
       id="radialGradient3131"
       r="117.14286"
       xlink:href="#linearGradient5060" />
    <linearGradient
       gradientUnits="userSpaceOnUse"
       id="linearGradient4071-6"
       x2="0"
       y1="6.1016898"
       y2="24.20339"
       gradientTransform="matrix(1.1097741,0,0,1.1097741,-78.447176,-6.8539553)">
      <stop
         offset="0"
         stop-color="#bf914e"
         id="stop24-5" />
      <stop
         offset="1"
         stop-color="#8b5810"
         id="stop26-0" />
    </linearGradient>
  </defs>
  <rect
     ry="3.5865881"
     rx="3.5865881"
     y="0.597094"
     x="3.4296677"
     height="46.178024"
     width="40.666058"
     id="rect859"
     style="opacity:1;fill:#cfb48b;fill-opacity:1;stroke:#000000;stroke-width:0.25;stroke-linecap:round;stroke-linejoin:round;stroke-miterlimit:4;stroke-dasharray:none;stroke-opacity:1;paint-order:stroke fill markers" />
  <g
     transform="matrix(0.06994441,0,0,0.06994441,5.1003819,10.055253)"
     id="g20">
    <path
       inkscape:connector-curvature="0"
       style="fill:#764f43"
       d="m 46.265,386.756 12.988,-12.988 v 62.022 c 0,4.328 3.508,7.837 7.837,7.837 4.329,0 7.837,-3.509 7.837,-7.837 v -62.022 l 12.987,12.987 c 1.531,1.531 3.536,2.296 5.542,2.296 2.005,0 4.011,-0.765 5.542,-2.296 3.061,-3.06 3.061,-8.023 0,-11.082 L 72.633,349.307 c -1.47,-1.47 -3.463,-2.296 -5.542,-2.296 -2.078,0 -4.071,0.825 -5.542,2.296 l -26.366,26.366 c -3.061,3.06 -3.061,8.023 0,11.082 3.059,3.061 8.021,3.062 11.082,10e-4 z"
       id="path14" />
    <path
       inkscape:connector-curvature="0"
       style="fill:#764f43"
       d="m 124.629,386.756 12.987,-12.987 v 62.022 c 0,4.328 3.508,7.837 7.837,7.837 4.329,0 7.837,-3.509 7.837,-7.837 v -62.022 l 12.987,12.987 c 1.531,1.531 3.536,2.296 5.542,2.296 2.005,0 4.011,-0.765 5.542,-2.296 3.061,-3.06 3.061,-8.023 0,-11.082 l -26.365,-26.366 c -1.47,-1.47 -3.463,-2.296 -5.542,-2.296 -2.079,0 -4.071,0.825 -5.542,2.296 l -26.365,26.366 c -3.061,3.06 -3.061,8.023 0,11.082 3.06,3.06 8.021,3.06 11.082,0 z"
       id="path16" />
    <path
       inkscape:connector-curvature="0"
       style="fill:#764f43"
       d="M 171.312,455.12 H 41.229 c -4.329,0 -7.837,3.509 -7.837,7.837 0,4.328 3.508,7.837 7.837,7.837 h 130.082 c 4.329,0 7.837,-3.509 7.837,-7.837 0,-4.328 -3.507,-7.837 -7.836,-7.837 z"
       id="path18-3" />
  </g>
  <rect
     x="30.605753"
     y="34.268761"
     style="opacity:0.72000002;fill:#f5ffff;stroke-width:0.07534993"
     width="10.510036"
     height="8.1488705"
     id="rect22"
     ry="1.6778121" />
  <g
     transform="matrix(0.07534994,0,0,0.07534994,5.4848373,20.879451)"
     id="g28">
    <path
       inkscape:connector-curvature="0"
       style="fill:#764f43"
       d="m 443.624,220.83 h -79.93 c -4.329,0 -7.837,-3.509 -7.837,-7.837 0,-4.328 3.508,-7.837 7.837,-7.837 h 79.93 c 4.329,0 7.837,3.509 7.837,7.837 0,4.328 -3.508,7.837 -7.837,7.837 z"
       id="path24-6" />
    <path
       inkscape:connector-curvature="0"
       style="fill:#764f43"
       d="m 443.624,258.383 h -79.93 c -4.329,0 -7.837,-3.509 -7.837,-7.837 0,-4.328 3.508,-7.837 7.837,-7.837 h 79.93 c 4.329,0 7.837,3.509 7.837,7.837 0,4.328 -3.508,7.837 -7.837,7.837 z"
       id="path26-7" />
  </g>
  <rect
     x="17.202068"
     y="1.0505277"
     style="fill:#ba966c;stroke-width:0.10262719"
     width="12.643671"
     height="15.35303"
     id="rect904" />
  <rect
     y="0.64001954"
     x="17.202068"
     style="fill:#e5d3ae;stroke-width:0.10262719"
     width="12.643671"
     height="15.35303"
     id="rect906" />
  <polyline
     style="fill:#e0cca0"
     points="174.4,149.6 297.6,149.6 297.6,0 "
     id="polyline908"
     transform="matrix(0.10262721,0,0,0.10262721,-0.69611653,0.64001827)" />
</svg>
