<?xml version="1.0" encoding="UTF-8" standalone="no"?>
<svg
   xmlns:dc="http://purl.org/dc/elements/1.1/"
   xmlns:cc="http://creativecommons.org/ns#"
   xmlns:rdf="http://www.w3.org/1999/02/22-rdf-syntax-ns#"
   xmlns:svg="http://www.w3.org/2000/svg"
   xmlns="http://www.w3.org/2000/svg"
   xmlns:xlink="http://www.w3.org/1999/xlink"
   xmlns:sodipodi="http://sodipodi.sourceforge.net/DTD/sodipodi-0.dtd"
   xmlns:inkscape="http://www.inkscape.org/namespaces/inkscape"
   viewBox="0 0 48 48"
   id="svg2"
   version="1.1"
   inkscape:version="0.92.2 2405546, 2018-03-11"
   width="100%"
   height="100%"
   sodipodi:docname="text-x-generic.svg">
  <metadata
     id="metadata58">
    <rdf:RDF>
      <cc:Work
         rdf:about="">
        <dc:format>image/svg+xml</dc:format>
        <dc:type
           rdf:resource="http://purl.org/dc/dcmitype/StillImage" />
        <dc:title />
      </cc:Work>
    </rdf:RDF>
  </metadata>
  <sodipodi:namedview
     pagecolor="#ffffff"
     bordercolor="#666666"
     borderopacity="1"
     objecttolerance="10"
     gridtolerance="10"
     guidetolerance="10"
     inkscape:pageopacity="0"
     inkscape:pageshadow="2"
     inkscape:window-width="1920"
     inkscape:window-height="1013"
     id="namedview56"
     showgrid="true"
     inkscape:zoom="6.9532167"
     inkscape:cx="-57.560087"
     inkscape:cy="18.038899"
     inkscape:window-x="0"
     inkscape:window-y="0"
     inkscape:window-maximized="1"
     inkscape:current-layer="svg2"
     inkscape:snap-global="false">
    <inkscape:grid
       type="xygrid"
       id="grid3009" />
  </sodipodi:namedview>
  <defs
     id="defs4">
    <linearGradient
       id="linearGradient5060">
      <stop
         offset="0"
         id="stop7" />
      <stop
         offset="1"
         stop-opacity="0"
         id="stop9" />
    </linearGradient>
    <linearGradient
       gradientUnits="userSpaceOnUse"
       id="linearGradient3127"
       x2="0"
       y1="38.7186"
       y2="45.76167">
      <stop
         offset="0"
         stop-opacity="0"
         id="stop12" />
      <stop
         offset=".5"
         id="stop14" />
      <stop
         offset="1"
         stop-opacity="0"
         id="stop16" />
    </linearGradient>
    <linearGradient
       gradientUnits="userSpaceOnUse"
       id="linearGradient3157-5"
       x1="-42.69615"
       x2="-5.84311"
       gradientTransform="matrix(0,-1,-1,0,68.186441,1.2542373)">
      <stop
         offset="0"
         stop-color="#fff"
         id="stop19" />
      <stop
         offset="1"
         stop-color="#cdcdcd"
         id="stop21" />
    </linearGradient>
    <linearGradient
       gradientUnits="userSpaceOnUse"
       id="linearGradient998"
       x1="6.40561"
       x2="41.36901"
       gradientTransform="rotate(90,33.466102,34.720339)">
      <stop
         offset="0"
         stop-color="#fff"
         id="stop24" />
      <stop
         offset="1"
         stop-color="#fff"
         stop-opacity="0"
         id="stop26" />
    </linearGradient>
    <radialGradient
       cx="605.71429"
       cy="486.64789"
       gradientTransform="matrix(0.062142,0,0,0.029001,1.636502,28.085503)"
       gradientUnits="userSpaceOnUse"
       id="radialGradient3129"
       r="117.14286"
       xlink:href="#linearGradient5060" />
    <radialGradient
       cx="605.71429"
       cy="486.64789"
       gradientTransform="matrix(-0.062142,0,0,0.029001,46.53201,28.085503)"
       gradientUnits="userSpaceOnUse"
       id="radialGradient3131"
       r="117.14286"
       xlink:href="#linearGradient5060" />
  </defs>
  <path
     inkscape:connector-curvature="0"
     style="fill:#e6e6e6;stroke-width:0.14992435"
     d="M 6.4443073,0.72186173 H 31.066385 L 44.11715,13.721953 v 30.468678 c 0,1.601042 -1.298195,2.897888 -2.897888,2.897888 H 6.4443073 c -1.599693,0 -2.897888,-1.296846 -2.897888,-2.897888 V 3.6197497 c 0,-1.6010423 1.298345,-2.89788797 2.897888,-2.89788797 z"
     id="path2" />
  <rect
     y="29.950989"
     x="13.401421"
     height="2"
     width="20.809143"
     id="rect882"
     style="opacity:1;fill:#808080;fill-opacity:1;fill-rule:nonzero;stroke:none;stroke-width:0.89780056;stroke-miterlimit:4;stroke-dasharray:none;stroke-opacity:1" />
  <path
     inkscape:connector-curvature="0"
     style="fill:#999999;stroke:#000000;stroke-width:0.14992435;stroke-opacity:1"
     d="M 44.075321,13.762433 H 33.974617 c -1.599693,0 -2.897888,-1.298195 -2.897888,-2.897888 V 0.75079713 Z"
     id="path4" />
  <path
     id="path892"
     d="M 6.4443073,0.72186173 H 31.066385 L 44.11715,13.721953 v 30.468678 c 0,1.601042 -1.298195,2.897888 -2.897888,2.897888 H 6.4443073 c -1.599693,0 -2.897888,-1.296846 -2.897888,-2.897888 V 3.6197497 c 0,-1.6010423 1.298345,-2.89788797 2.897888,-2.89788797 z"
     style="fill:none;stroke:#000000;stroke-width:0.15000001;stroke-linecap:round;stroke-linejoin:round;stroke-miterlimit:4;stroke-dasharray:none;stroke-opacity:1;paint-order:stroke fill markers"
     inkscape:connector-curvature="0" />
  <rect
     y="33.950989"
     x="13.401421"
     height="2"
     width="11.616755"
     id="rect884"
     style="opacity:1;fill:#808080;fill-opacity:1;fill-rule:nonzero;stroke:none;stroke-width:0.67080331;stroke-miterlimit:4;stroke-dasharray:none;stroke-opacity:1" />
  <rect
     y="25.950989"
     x="13.401421"
     height="2"
     width="20.809143"
     id="rect886"
     style="opacity:1;fill:#808080;fill-opacity:1;fill-rule:nonzero;stroke:none;stroke-width:0.89780056;stroke-miterlimit:4;stroke-dasharray:none;stroke-opacity:1" />
  <g
     aria-label="Abc"
     style="font-style:normal;font-weight:normal;font-size:9.6415472px;line-height:1.25;font-family:sans-serif;letter-spacing:0px;word-spacing:0px;fill:#666666;fill-opacity:1;stroke:none;stroke-width:0.6025967"
     id="text842">
    <path
       d="m 16.874277,18.581585 1.031005,2.287984 h -2.057303 z m -2.763471,4.773696 q 0.21185,0.09415 0.428409,0.01412 0.221265,-0.08474 0.315421,-0.296591 l 0.484902,-1.073375 h 3.074185 l 0.480194,1.073375 q 0.150649,0.334253 0.517857,0.334253 0.117694,0 0.230681,-0.05178 0.211851,-0.09416 0.291883,-0.315422 0.08474,-0.216558 -0.0094,-0.428409 l -2.537498,-5.630513 q -0.145941,-0.334252 -0.513148,-0.334252 -0.3625,0 -0.513149,0.334252 l -2.532789,5.630513 q -0.09416,0.211851 -0.01412,0.428409 0.08474,0.221266 0.296591,0.315422 z"
       style="font-style:normal;font-variant:normal;font-weight:normal;font-stretch:normal;font-family:Aoki;-inkscape-font-specification:Aoki;fill:#666666;stroke-width:0.6025967"
       id="path844" />
    <path
       d="m 22.278816,20.59181 h 2.532789 q 0.353084,0 0.597889,0.249513 0.249513,0.244804 0.249513,0.593181 0,0.353084 -0.249513,0.597889 -0.244805,0.249512 -0.597889,0.249512 h -2.532789 z m 0,-2.815257 h 1.972562 q 0.348377,0 0.597889,0.244805 0.244805,0.249513 0.244805,0.597889 0,0.348376 -0.244805,0.597889 -0.249512,0.249513 -0.597889,0.249513 h -1.972562 z m 2.532789,5.630513 q 0.819155,0 1.393505,-0.579057 0.579058,-0.579058 0.579058,-1.393505 0,-1.092207 -0.927434,-1.671265 0.367207,-0.513148 0.367207,-1.143992 0,-0.814447 -0.579058,-1.393505 -0.579058,-0.57435 -1.393505,-0.57435 h -2.532789 q -0.235389,0 -0.400162,0.164773 -0.164772,0.164772 -0.164772,0.395454 v 5.630513 q 0,0.235389 0.164772,0.400162 0.164773,0.164772 0.400162,0.164772 z"
       style="font-style:normal;font-variant:normal;font-weight:normal;font-stretch:normal;font-family:Aoki;-inkscape-font-specification:Aoki;fill:#666666;stroke-width:0.6025967"
       id="path846" />
    <path
       d="m 31.294227,23.407066 q 1.398213,0 2.386848,-0.988635 0.164773,-0.164772 0.164773,-0.400162 0,-0.230681 -0.164773,-0.395454 -0.164772,-0.164772 -0.395454,-0.164772 -0.235389,0 -0.400162,0.164772 -0.65909,0.65909 -1.591232,0.65909 -0.936849,0 -1.595939,-0.65909 -0.659091,-0.65909 -0.659091,-1.59594 0,-0.932141 0.659091,-1.591231 0.65909,-0.659091 1.595939,-0.659091 0.932142,0 1.591232,0.659091 0.164773,0.164772 0.400162,0.164772 0.230682,0 0.395454,-0.164772 0.164773,-0.164773 0.164773,-0.400162 0,-0.230682 -0.164773,-0.395454 -0.988635,-0.988636 -2.386848,-0.988636 -1.40292,0 -2.391555,0.988636 -0.988636,0.988635 -0.988636,2.386847 0,1.402921 0.988636,2.391556 0.988635,0.988635 2.391555,0.988635 z"
       style="font-style:normal;font-variant:normal;font-weight:normal;font-stretch:normal;font-family:Aoki;-inkscape-font-specification:Aoki;fill:#666666;stroke-width:0.6025967"
       id="path848" />
  </g>
</svg>
