<?xml version="1.0" encoding="UTF-8" standalone="no"?>
<svg
   xmlns:dc="http://purl.org/dc/elements/1.1/"
   xmlns:cc="http://creativecommons.org/ns#"
   xmlns:rdf="http://www.w3.org/1999/02/22-rdf-syntax-ns#"
   xmlns:svg="http://www.w3.org/2000/svg"
   xmlns="http://www.w3.org/2000/svg"
   xmlns:xlink="http://www.w3.org/1999/xlink"
   xmlns:sodipodi="http://sodipodi.sourceforge.net/DTD/sodipodi-0.dtd"
   xmlns:inkscape="http://www.inkscape.org/namespaces/inkscape"
   viewBox="0 0 48 48"
   id="svg2"
   version="1.1"
   inkscape:version="0.92.2 2405546, 2018-03-11"
   width="100%"
   height="100%"
   sodipodi:docname="text-x-python.svg">
  <metadata
     id="metadata58">
    <rdf:RDF>
      <cc:Work
         rdf:about="">
        <dc:format>image/svg+xml</dc:format>
        <dc:type
           rdf:resource="http://purl.org/dc/dcmitype/StillImage" />
      </cc:Work>
    </rdf:RDF>
  </metadata>
  <sodipodi:namedview
     pagecolor="#ffffff"
     bordercolor="#666666"
     borderopacity="1"
     objecttolerance="10"
     gridtolerance="10"
     guidetolerance="10"
     inkscape:pageopacity="0"
     inkscape:pageshadow="2"
     inkscape:window-width="1920"
     inkscape:window-height="1013"
     id="namedview56"
     showgrid="true"
     inkscape:zoom="11.313709"
     inkscape:cx="3.1835112"
     inkscape:cy="23.439275"
     inkscape:window-x="0"
     inkscape:window-y="0"
     inkscape:window-maximized="1"
     inkscape:current-layer="svg2">
    <inkscape:grid
       type="xygrid"
       id="grid3811"
       empspacing="5"
       visible="true"
       enabled="true"
       snapvisiblegridlinesonly="true" />
  </sodipodi:namedview>
  <defs
     id="defs4">
    <linearGradient
       id="linearGradient5060">
      <stop
         offset="0"
         id="stop7" />
      <stop
         offset="1"
         stop-opacity="0"
         id="stop9" />
    </linearGradient>
    <linearGradient
       gradientUnits="userSpaceOnUse"
       id="linearGradient3127"
       x2="0"
       y1="38.7186"
       y2="45.76167">
      <stop
         offset="0"
         stop-opacity="0"
         id="stop12" />
      <stop
         offset=".5"
         id="stop14" />
      <stop
         offset="1"
         stop-opacity="0"
         id="stop16" />
    </linearGradient>
    <linearGradient
       gradientUnits="userSpaceOnUse"
       id="linearGradient3157-5"
       x1="-42.69615"
       x2="-5.84311"
       gradientTransform="matrix(0,-1,-1,0,-50.4,-1)">
      <stop
         offset="0"
         stop-color="#fff"
         id="stop19" />
      <stop
         offset="1"
         stop-color="#cdcdcd"
         id="stop21" />
    </linearGradient>
    <linearGradient
       gradientUnits="userSpaceOnUse"
       id="linearGradient998"
       x1="6.40561"
       x2="41.36901"
       gradientTransform="rotate(90,-24.7,-25.7)">
      <stop
         offset="0"
         stop-color="#fff"
         id="stop24" />
      <stop
         offset="1"
         stop-color="#fff"
         stop-opacity="0"
         id="stop26" />
    </linearGradient>
    <radialGradient
       cx="605.71429"
       cy="486.64789"
       gradientTransform="matrix(0.062142,0,0,0.029001,1.636502,28.085503)"
       gradientUnits="userSpaceOnUse"
       id="radialGradient3129"
       r="117.14286"
       xlink:href="#linearGradient5060" />
    <radialGradient
       cx="605.71429"
       cy="486.64789"
       gradientTransform="matrix(-0.062142,0,0,0.029001,46.53201,28.085503)"
       gradientUnits="userSpaceOnUse"
       id="radialGradient3131"
       r="117.14286"
       xlink:href="#linearGradient5060" />
    <linearGradient
       id="linearGradient4689-1">
      <stop
         id="stop4691-1"
         offset="0"
         style="stop-color:#5eb9ff;stop-opacity:1;" />
      <stop
         id="stop4693-6"
         offset="1"
         style="stop-color:#306998;stop-opacity:1" />
    </linearGradient>
    <linearGradient
       id="linearGradient4671-5-0-8">
      <stop
         id="stop4673-4-4-6"
         offset="0"
         style="stop-color:#e2b100;stop-opacity:1;" />
      <stop
         id="stop4675-2-8-9"
         offset="1"
         style="stop-color:#ffec3b;stop-opacity:1;" />
    </linearGradient>
  </defs>
  <path
     inkscape:connector-curvature="0"
     style="fill:#e6e6e6;stroke-width:0.14992435"
     d="M 6.4443073,0.721862 H 31.066385 L 44.11715,13.721953 v 30.468678 c 0,1.601042 -1.298195,2.897888 -2.897888,2.897888 H 6.4443073 c -1.599693,0 -2.897888,-1.296846 -2.897888,-2.897888 V 3.61975 c 0,-1.6010423 1.298345,-2.897888 2.897888,-2.897888 z"
     id="path2" />
  <path
     inkscape:connector-curvature="0"
     style="fill:#999999;stroke-width:0.14992435;stroke:#000000;stroke-opacity:1"
     d="M 44.075321,13.762433 H 33.974617 c -1.599693,0 -2.897888,-1.298195 -2.897888,-2.897888 V 0.7507974 Z"
     id="path4" />
  <path
     id="path892"
     d="M 6.4443073,0.721862 H 31.066385 L 44.11715,13.721953 v 30.468678 c 0,1.601042 -1.298195,2.897888 -2.897888,2.897888 H 6.4443073 c -1.599693,0 -2.897888,-1.296846 -2.897888,-2.897888 V 3.61975 c 0,-1.6010423 1.298345,-2.897888 2.897888,-2.897888 z"
     style="fill:none;stroke:#000000;stroke-width:0.15000001;stroke-linecap:round;stroke-linejoin:round;stroke-miterlimit:4;stroke-dasharray:none;stroke-opacity:1;paint-order:stroke fill markers"
     inkscape:connector-curvature="0" />
  <path
     style="color:#000000;display:inline;overflow:visible;visibility:visible;fill:#666666;fill-opacity:1;fill-rule:nonzero;stroke:none;stroke-width:0.078;stroke-linecap:butt;stroke-linejoin:miter;stroke-miterlimit:4;stroke-dasharray:none;stroke-dashoffset:0;stroke-opacity:1;marker:none;enable-background:accumulate"
     d="m 18.966667,15.444444 c -1.207912,0 -1.555555,0.414202 -1.555555,1.555556 v 3.888888 h 5.833305 -8.9e-5 -7.388772 c -1.308537,0 -2.333333,0.773243 -2.333333,2.722223 v 4.666666 c 0,1.432314 0.770878,2.333334 2.333333,2.333334 l 2.333333,-3.93e-4 V 27.5 c 0,-1.122062 0.795645,-1.944445 1.944445,-1.944445 h 6.222222 c 0.728274,0 1.166667,-0.388811 1.166667,-1.166667 V 17 c 0,-1.206452 -0.575583,-1.555556 -1.555556,-1.555556 z"
     id="path1447"
     inkscape:connector-curvature="0" />
  <path
     style="color:#000000;display:inline;overflow:visible;visibility:visible;fill:#ffffff;fill-opacity:1;fill-rule:nonzero;stroke:none;stroke-width:0.278;stroke-linecap:butt;stroke-linejoin:miter;stroke-miterlimit:4;stroke-dasharray:none;stroke-dashoffset:0;stroke-opacity:1;marker:none;enable-background:accumulate"
     d="m 22.077778,18.166666 c 0,0.644332 -0.522334,1.166667 -1.166666,1.166667 -0.644333,0 -1.166667,-0.522335 -1.166667,-1.166667 0,-0.644332 0.522334,-1.166666 1.166667,-1.166666 0.644332,0 1.166666,0.522334 1.166666,1.166666 z"
     id="path1449"
     inkscape:connector-curvature="0" />
  <path
     style="color:#000000;display:inline;overflow:visible;visibility:visible;fill:#666666;fill-opacity:1;fill-rule:nonzero;stroke:none;stroke-width:0.178;stroke-linecap:butt;stroke-linejoin:miter;stroke-miterlimit:4;stroke-dasharray:none;stroke-dashoffset:0;stroke-opacity:1;marker:none;enable-background:accumulate"
     d="M 27.444445,36.444444 C 28.652357,36.444444 29,36.030242 29,34.888888 V 31 h -5.833305 8.9e-5 7.388772 c 1.308537,0 2.333333,-0.773243 2.333333,-2.722223 v -4.666666 c 0,-1.432314 -0.770878,-2.333334 -2.333333,-2.333334 L 28.3,21.27817 v 3.110718 c 0,1.152266 -0.691223,1.944445 -1.944444,1.944445 h -6.222222 c -0.710475,0 -1.166667,0.423184 -1.166667,1.166667 v 7.388888 c 0,1.206452 0.497805,1.555556 1.477778,1.555556 z"
     id="path1451"
     inkscape:connector-curvature="0" />
  <path
     style="color:#000000;display:inline;overflow:visible;visibility:visible;fill:#ffffff;fill-opacity:1;fill-rule:nonzero;stroke:none;stroke-width:0.278;stroke-linecap:butt;stroke-linejoin:miter;stroke-miterlimit:4;stroke-dasharray:none;stroke-dashoffset:0;stroke-opacity:1;marker:none;enable-background:accumulate"
     d="m 24.333334,33.722222 c 0,-0.644332 0.522334,-1.166667 1.166666,-1.166667 0.644333,0 1.166667,0.522335 1.166667,1.166667 0,0.644332 -0.522334,1.166666 -1.166667,1.166666 -0.644332,0 -1.166666,-0.522334 -1.166666,-1.166666 z"
     id="path1453"
     inkscape:connector-curvature="0" />
</svg>
