<?xml version="1.0" encoding="UTF-8" standalone="no"?>
<svg
   xmlns:a="http://ns.adobe.com/AdobeSVGViewerExtensions/3.0/"
   xmlns:dc="http://purl.org/dc/elements/1.1/"
   xmlns:cc="http://creativecommons.org/ns#"
   xmlns:rdf="http://www.w3.org/1999/02/22-rdf-syntax-ns#"
   xmlns:svg="http://www.w3.org/2000/svg"
   xmlns="http://www.w3.org/2000/svg"
   xmlns:xlink="http://www.w3.org/1999/xlink"
   xmlns:sodipodi="http://sodipodi.sourceforge.net/DTD/sodipodi-0.dtd"
   xmlns:inkscape="http://www.inkscape.org/namespaces/inkscape"
   viewBox="0 0 48 48"
   id="svg2"
   version="1.1"
   inkscape:version="0.92.2 2405546, 2018-03-11"
   width="100%"
   height="100%"
   sodipodi:docname="text-x-java.svg">
  <metadata
     id="metadata58">
    <rdf:RDF>
      <cc:Work
         rdf:about="">
        <dc:format>image/svg+xml</dc:format>
        <dc:type
           rdf:resource="http://purl.org/dc/dcmitype/StillImage" />
      </cc:Work>
    </rdf:RDF>
  </metadata>
  <sodipodi:namedview
     pagecolor="#ffffff"
     bordercolor="#666666"
     borderopacity="1"
     objecttolerance="10"
     gridtolerance="10"
     guidetolerance="10"
     inkscape:pageopacity="0"
     inkscape:pageshadow="2"
     inkscape:window-width="1920"
     inkscape:window-height="1013"
     id="namedview56"
     showgrid="true"
     inkscape:zoom="11.313709"
     inkscape:cx="-5.4401104"
     inkscape:cy="18.753629"
     inkscape:window-x="0"
     inkscape:window-y="0"
     inkscape:window-maximized="1"
     inkscape:current-layer="svg2"
     showguides="true"
     inkscape:guide-bbox="true"
     inkscape:snap-global="false">
    <inkscape:grid
       type="xygrid"
       id="grid3811"
       empspacing="5"
       visible="true"
       enabled="true"
       snapvisiblegridlinesonly="true" />
  </sodipodi:namedview>
  <defs
     id="defs4">
    <linearGradient
       id="linearGradient4395">
      <stop
         id="stop4397"
         offset="0"
         style="stop-color:#ffffff;stop-opacity:1;" />
      <stop
         id="stop4402"
         offset="1"
         style="stop-color:#ffffff;stop-opacity:0;" />
    </linearGradient>
    <linearGradient
       id="linearGradient4342">
      <stop
         style="stop-color:#b4b4b4;stop-opacity:1;"
         offset="0"
         id="stop4344" />
      <stop
         id="stop4350"
         offset="0.5"
         style="stop-color:#dcdcdc;stop-opacity:1;" />
      <stop
         style="stop-color:#b4b4b4;stop-opacity:1;"
         offset="1"
         id="stop4346" />
    </linearGradient>
    <linearGradient
       id="linearGradient5060">
      <stop
         offset="0"
         id="stop7" />
      <stop
         offset="1"
         stop-opacity="0"
         id="stop9" />
    </linearGradient>
    <linearGradient
       gradientUnits="userSpaceOnUse"
       id="linearGradient3127"
       x2="0"
       y1="38.7186"
       y2="45.76167">
      <stop
         offset="0"
         stop-opacity="0"
         id="stop12" />
      <stop
         offset=".5"
         id="stop14" />
      <stop
         offset="1"
         stop-opacity="0"
         id="stop16" />
    </linearGradient>
    <linearGradient
       gradientUnits="userSpaceOnUse"
       id="linearGradient3157-5"
       x1="-42.69615"
       x2="-5.84311">
      <stop
         offset="0"
         stop-color="#fff"
         id="stop19" />
      <stop
         offset="1"
         stop-color="#cdcdcd"
         id="stop21" />
    </linearGradient>
    <linearGradient
       gradientUnits="userSpaceOnUse"
       id="linearGradient998"
       x1="6.40561"
       x2="41.36901">
      <stop
         offset="0"
         stop-color="#fff"
         id="stop24" />
      <stop
         offset="1"
         stop-color="#fff"
         stop-opacity="0"
         id="stop26" />
    </linearGradient>
    <radialGradient
       cx="605.71429"
       cy="486.64789"
       gradientTransform="matrix(.062142,0,0,.029001,1.636502,28.085503)"
       gradientUnits="userSpaceOnUse"
       id="radialGradient3129"
       r="117.14286"
       xlink:href="#linearGradient5060" />
    <radialGradient
       cx="605.71429"
       cy="486.64789"
       gradientTransform="matrix(-.062142,0,0,.029001,46.53201,28.085503)"
       gradientUnits="userSpaceOnUse"
       id="radialGradient3131"
       r="117.14286"
       xlink:href="#linearGradient5060" />
    <linearGradient
       id="linearGradient4342-9">
      <stop
         style="stop-color:#000000;stop-opacity:1;"
         offset="0"
         id="stop4344-6" />
      <stop
         id="stop4350-1"
         offset="0.5"
         style="stop-color:#6d3824;stop-opacity:1;" />
      <stop
         style="stop-color:#000000;stop-opacity:1;"
         offset="1"
         id="stop4346-6" />
    </linearGradient>
    <linearGradient
       y2="33.5732"
       x2="119.7749"
       y1="115.6748"
       x1="119.7749"
       gradientUnits="userSpaceOnUse"
       id="XMLID_26_">
      <stop
         id="stop4519"
         style="stop-color:#666666"
         offset="0" />
      <stop
         id="stop4520"
         style="stop-color:#CCCCCC"
         offset="1" />
      <a:midPointStop
         id="midPointStop4521"
         style="stop-color:#666666"
         offset="0" />
      <a:midPointStop
         id="midPointStop4522"
         style="stop-color:#666666"
         offset="0.5" />
      <a:midPointStop
         id="midPointStop4523"
         style="stop-color:#CCCCCC"
         offset="1" />
    </linearGradient>
  </defs>
  <path
     inkscape:connector-curvature="0"
     style="fill:#e6e6e6;stroke-width:0.14992435"
     d="M 6.4443073,0.721862 H 31.066385 L 44.11715,13.721953 v 30.468678 c 0,1.601042 -1.298195,2.897888 -2.897888,2.897888 H 6.4443073 c -1.599693,0 -2.897888,-1.296846 -2.897888,-2.897888 V 3.61975 c 0,-1.6010423 1.298345,-2.897888 2.897888,-2.897888 z"
     id="path2" />
  <path
     inkscape:connector-curvature="0"
     style="fill:#999999;stroke-width:0.14992435;stroke:#000000;stroke-opacity:1"
     d="M 44.075321,13.762433 H 33.974617 c -1.599693,0 -2.897888,-1.298195 -2.897888,-2.897888 V 0.7507974 Z"
     id="path4" />
  <path
     id="path892"
     d="M 6.4443073,0.721862 H 31.066385 L 44.11715,13.721953 v 30.468678 c 0,1.601042 -1.298195,2.897888 -2.897888,2.897888 H 6.4443073 c -1.599693,0 -2.897888,-1.296846 -2.897888,-2.897888 V 3.61975 c 0,-1.6010423 1.298345,-2.897888 2.897888,-2.897888 z"
     style="fill:none;stroke:#000000;stroke-width:0.15000001;stroke-linecap:round;stroke-linejoin:round;stroke-miterlimit:4;stroke-dasharray:none;stroke-opacity:1;paint-order:stroke fill markers"
     inkscape:connector-curvature="0" />
  <path
     style="fill:#502d16;stroke-width:0.05620307"
     d="M 17.721618,35.487852 C 16.998886,35.150888 15.801793,33.698316 15.215166,32.446487 14.920422,31.817522 14.64007,30.944401 14.510721,30.252576 14.416531,29.748844 14.405637,29.384035 14.405637,26.73558 v -2.954966 l 0.151386,-0.198548 c 0.313647,-0.411358 -0.229036,-0.38308 7.332115,-0.382051 l 6.792079,8.78e-4 0.224812,0.125765 c 0.261564,0.146323 0.477745,0.519998 0.477689,0.825697 l -3.7e-5,0.198851 0.781309,-0.01931 c 0.991382,-0.02451 1.477313,0.06754 2.179405,0.412825 1.127146,0.554329 1.726783,1.521198 1.725329,2.781961 -0.0027,2.292869 -2.047004,4.270887 -5.313661,5.14123 l -0.374776,0.09985 -0.237892,0.400375 c -0.572769,0.963977 -1.535589,2.031642 -2.074162,2.300024 l -0.304545,0.151764 -3.881028,-5.27e-4 -3.881027,-5.27e-4 z m 12.44164,-5.064071 c 0.75845,-0.465198 1.391437,-1.138497 1.746096,-1.857297 0.554457,-1.123742 0.410375,-1.942276 -0.415009,-2.357684 -0.269641,-0.135707 -0.418007,-0.170002 -0.818255,-0.189137 -0.268891,-0.01286 -0.66669,0.0066 -0.883997,0.04327 l -0.395104,0.06664 -0.03029,1.808587 c -0.02822,1.685353 -0.0845,2.352228 -0.241652,2.863466 -0.02732,0.08889 0.0093,0.08442 0.345596,-0.04216 0.206887,-0.07787 0.518563,-0.22893 0.692615,-0.335685 z m -10.181854,-8.74107 c -0.402006,-0.447129 -0.518087,-0.732809 -0.514279,-1.265672 0.003,-0.414567 0.0289,-0.513165 0.332647,-1.264569 0.657064,-1.673279 0.498156,-3.33526 -0.571036,-4.383839 l -0.19634,-0.36532 0.262748,0.252914 c 1.002157,0.903307 1.978126,2.427624 1.902699,3.223169 -0.07526,1.816435 -1.681887,2.354504 -0.944519,4.071293 -0.009,0.009 -0.131338,-0.111615 -0.27192,-0.267976 z"
     id="path817-3"
     inkscape:connector-curvature="0"
     sodipodi:nodetypes="cccsccccccccccccscccccccccccccccccccccccc" />
  <path
     sodipodi:nodetypes="cccsccccccccccccscccccccccccccccccccccccc"
     inkscape:connector-curvature="0"
     id="path902"
     d="M 17.721618,35.487852 C 16.998886,35.150888 15.801793,33.698316 15.215166,32.446487 14.920422,31.817522 14.64007,30.944401 14.510721,30.252576 14.416531,29.748844 14.405637,29.384035 14.405637,26.73558 v -2.954966 l 0.151386,-0.198548 c 0.313647,-0.411358 -0.229036,-0.38308 7.332115,-0.382051 l 6.792079,8.78e-4 0.224812,0.125765 c 0.261564,0.146323 0.477745,0.519998 0.477689,0.825697 l -3.7e-5,0.198851 0.781309,-0.01931 c 0.991382,-0.02451 1.477313,0.06754 2.179405,0.412825 1.127146,0.554329 1.726783,1.521198 1.725329,2.781961 -0.0027,2.292869 -2.047004,4.270887 -5.313661,5.14123 l -0.374776,0.09985 -0.237892,0.400375 c -0.572769,0.963977 -1.535589,2.031642 -2.074162,2.300024 l -0.304545,0.151764 -3.881028,-5.27e-4 -3.881027,-5.27e-4 z m 12.44164,-5.064071 c 0.75845,-0.465198 1.391437,-1.138497 1.746096,-1.857297 0.554457,-1.123742 0.410375,-1.942276 -0.415009,-2.357684 -0.269641,-0.135707 -0.418007,-0.170002 -0.818255,-0.189137 -0.268891,-0.01286 -0.66669,0.0066 -0.883997,0.04327 l -0.395104,0.06664 -0.03029,1.808587 c -0.02822,1.685353 -0.0845,2.352228 -0.241652,2.863466 -0.02732,0.08889 0.0093,0.08442 0.345596,-0.04216 0.206887,-0.07787 0.518563,-0.22893 0.692615,-0.335685 z m -10.181854,-8.74107 c -0.402006,-0.447129 -0.518087,-0.732809 -0.514279,-1.265672 0.003,-0.414567 0.0289,-0.513165 0.332647,-1.264569 0.657064,-1.673279 0.498156,-3.33526 -0.571036,-4.383839 l -0.19634,-0.36532 0.262748,0.252914 c 1.002157,0.903307 1.978126,2.427624 1.902699,3.223169 -0.07526,1.816435 -1.681887,2.354504 -0.944519,4.071293 -0.009,0.009 -0.131338,-0.111615 -0.27192,-0.267976 z"
     style="fill:#666666;stroke-width:0.05620307" />
  <path
     sodipodi:nodetypes="ccccccccc"
     inkscape:connector-curvature="0"
     id="path902-7"
     d="m 22.695872,21.052853 c -0.402006,-0.447129 -0.518087,-0.732809 -0.514279,-1.265672 0.003,-0.414567 0.0289,-0.513165 0.332647,-1.264569 0.657064,-1.673279 0.498156,-3.33526 -0.571036,-4.383839 l -0.19634,-0.36532 0.262748,0.252914 c 1.002157,0.903307 1.978126,2.427624 1.902699,3.223169 -0.07526,1.816435 -1.681887,2.354504 -0.944519,4.071293 -0.009,0.009 -0.131338,-0.111615 -0.27192,-0.267976 z"
     style="fill:#808080;stroke-width:0.05620307" />
  <path
     style="opacity:0.58499995;fill:none;stroke:#fdffff;stroke-width:0.86879307px;stroke-linecap:round;stroke-linejoin:round;stroke-opacity:1"
     d="m 15.905328,24.946153 -0.02715,4.642612 c 0,0 0.135748,2.470631 2.850727,4.343966"
     id="path919"
     inkscape:connector-curvature="0"
     sodipodi:nodetypes="ccc" />
</svg>
