<?xml version="1.0" encoding="UTF-8" standalone="no"?>
<svg
   xmlns:dc="http://purl.org/dc/elements/1.1/"
   xmlns:cc="http://creativecommons.org/ns#"
   xmlns:rdf="http://www.w3.org/1999/02/22-rdf-syntax-ns#"
   xmlns:svg="http://www.w3.org/2000/svg"
   xmlns="http://www.w3.org/2000/svg"
   xmlns:sodipodi="http://sodipodi.sourceforge.net/DTD/sodipodi-0.dtd"
   xmlns:inkscape="http://www.inkscape.org/namespaces/inkscape"
   height="48"
   width="48"
   version="1"
   id="svg14"
   sodipodi:docname="amarok.svg"
   inkscape:version="0.92.2 2405546, 2018-03-11">
  <metadata
     id="metadata20">
    <rdf:RDF>
      <cc:Work
         rdf:about="">
        <dc:format>image/svg+xml</dc:format>
        <dc:type
           rdf:resource="http://purl.org/dc/dcmitype/StillImage" />
      </cc:Work>
    </rdf:RDF>
  </metadata>
  <defs
     id="defs18" />
  <sodipodi:namedview
     pagecolor="#ffffff"
     bordercolor="#666666"
     borderopacity="1"
     objecttolerance="10"
     gridtolerance="10"
     guidetolerance="10"
     inkscape:pageopacity="0"
     inkscape:pageshadow="2"
     inkscape:window-width="1920"
     inkscape:window-height="1013"
     id="namedview16"
     showgrid="false"
     inkscape:zoom="6.9532167"
     inkscape:cx="-23.214861"
     inkscape:cy="47.832225"
     inkscape:window-x="0"
     inkscape:window-y="0"
     inkscape:window-maximized="1"
     inkscape:current-layer="g848"
     inkscape:snap-global="false" />
  <g
     id="g848"
     transform="translate(351.45763,13.016949)">
    <rect
       ry="3.6578989"
       rx="3.6578989"
       y="-12.503926"
       x="-347.93225"
       height="47.096165"
       width="41.474606"
       id="rect859"
       style="opacity:1;fill:#2a5c9d;fill-opacity:1;stroke:none;stroke-width:0.35695893;stroke-linecap:round;stroke-linejoin:round;stroke-miterlimit:4;stroke-dasharray:none;stroke-opacity:1;paint-order:stroke fill markers" />
    <path
       style="fill:#ffffff;fill-opacity:1;stroke-width:0.81280392"
       d="m -319.07395,0.30711338 -0.002,0.003907 c -0.78404,0 -2.30644,1.79795502 -2.87695,2.08203102 -0.57052,0.284099 -5.08777,3.504033 -5.51563,4.072265 -0.42788,0.568101 -0.99719,0.80319 -1.61523,0.75586 -0.61801,-0.04728 -2.57277,-0.066267 -3.23829,0.3125 -0.66569,0.378823 -3.70219,3.4766206 -4.46289,3.8554686 -0.76065,0.37866 -1.75498,0.571754 -2.23046,0.61914 -0.47537,0.04728 -2.05066,1.795491 -2.47852,2.126953 -0.42788,0.331486 -3.80779,1.788355 -4.2832,2.072266 -0.47546,0.284109 3.46855,4.262812 4.03906,4.357422 0.47347,0.0787 -0.84494,0.954668 -1.31836,1.765625 -6.9e-4,-4.9e-5 -0.0605,-0.0039 -0.0605,-0.0039 l -3.80859,4.201171 v 3.25586 c 0,2.026476 1.63173,3.658203 3.6582,3.658203 h 19.23438 l 0.17187,-3.847656 a 20.499757,20.499757 0 0 0 0.0684,-0.01563 c 0.17436,-0.909444 0.0764,-2.359786 0.17578,-3.275391 0.0951,-0.852225 0.42786,-8.002976 1.66407,-9.896484 1.23604,-1.89367 4.76973,-4.165656 6.00585,-4.402344 1.23619,-0.236721 0.99805,-0.710704 0.99805,-1.136719 0,-0.426048 -0.1886,-1.3735456 -0.52148,-1.5156246 -0.33277,-0.141997 -1.63262,0.7100196 -2.06055,0.8046876 -0.42789,0.09467 -2.47251,0.239058 -2.75781,-0.2343746 -0.28523,-0.47354 2.30582,-5.302944 2.63867,-5.871094 0.33325,-0.569776 0.47597,-1.328056 -0.14258,-2.132812 -0.61773,-0.805083 -1.04309,-1.61132902 -1.28125,-1.61132902 z"
       id="path837"
       inkscape:connector-curvature="0" />
    <path
       id="path839"
       d="m -329.78434,10.434376 c 0,0 -1.8519,-0.274939 -2.92041,0.756021 -1.06859,1.03088 -1.99478,3.298846 -1.92333,3.986153 0.0711,0.68729 2.20822,-2.33673 3.13416,-2.542776 0.92612,-0.206256 1.92334,-1.718349 1.70958,-2.199366 z"
       style="fill:#2a5c9d;fill-opacity:1;stroke-width:0.81280392"
       inkscape:connector-curvature="0" />
  </g>
</svg>
