<?xml version="1.0" encoding="UTF-8" standalone="no"?>
<svg
   xmlns:dc="http://purl.org/dc/elements/1.1/"
   xmlns:cc="http://creativecommons.org/ns#"
   xmlns:rdf="http://www.w3.org/1999/02/22-rdf-syntax-ns#"
   xmlns:svg="http://www.w3.org/2000/svg"
   xmlns="http://www.w3.org/2000/svg"
   xmlns:sodipodi="http://sodipodi.sourceforge.net/DTD/sodipodi-0.dtd"
   xmlns:inkscape="http://www.inkscape.org/namespaces/inkscape"
   height="48"
   width="48"
   version="1"
   id="svg12"
   sodipodi:docname="audacious.svg"
   inkscape:version="0.92.2 2405546, 2018-03-11">
  <metadata
     id="metadata18">
    <rdf:RDF>
      <cc:Work
         rdf:about="">
        <dc:format>image/svg+xml</dc:format>
        <dc:type
           rdf:resource="http://purl.org/dc/dcmitype/StillImage" />
      </cc:Work>
    </rdf:RDF>
  </metadata>
  <defs
     id="defs16" />
  <sodipodi:namedview
     pagecolor="#ffffff"
     bordercolor="#666666"
     borderopacity="1"
     objecttolerance="10"
     gridtolerance="10"
     guidetolerance="10"
     inkscape:pageopacity="0"
     inkscape:pageshadow="2"
     inkscape:window-width="1920"
     inkscape:window-height="1012"
     id="namedview14"
     showgrid="false"
     inkscape:zoom="4.9166667"
     inkscape:cx="-11.898305"
     inkscape:cy="24"
     inkscape:window-x="0"
     inkscape:window-y="38"
     inkscape:window-maximized="1"
     inkscape:current-layer="svg12" />
  <path
     d="M 46.579578,23.325341 A 22.579578,22.579578 0 0 1 24,45.904919 22.579578,22.579578 0 0 1 1.4204217,23.325341 22.579578,22.579578 0 0 1 24,0.74576274 22.579578,22.579578 0 0 1 46.579578,23.325341 Z"
     id="path2"
     inkscape:connector-curvature="0"
     style="fill:#5d5d5d;stroke-width:1.12897897" />
  <path
     d="m 24.995759,14.296896 c -0.321239,-0.01207 -0.649016,0.0064 -0.987563,0.02182 -2.010372,0.09158 -5.56722,0.01631 -6.95451,1.735015 -0.847739,1.05021 -0.452901,3.4934 0.846181,3.747081 1.618392,0.31608 4.354472,-0.467589 6.108341,-0.274974 1.22291,0.134292 1.580119,1.166574 0.584224,1.883363 -1.0545,0.758922 -3.448466,0.528859 -4.657151,0.910047 -4.178577,1.317857 -5.680232,4.110048 -4.657151,7.893595 0.667147,2.467157 3.02905,4.29791 5.605154,4.401776 4.95554,-0.01144 4.031132,-2.63594 6.430551,-1.270102 0.789665,0.956686 2.381243,1.263666 3.205962,0.591416 1.325873,-1.080794 3.325181,-1.659599 1.914861,-3.871495 -0.675389,-1.059253 0.89904,-2.432385 0.544721,-7.7037 -0.31433,-4.676118 -3.16498,-7.884337 -7.983687,-8.063845 z m -0.644511,11.302208 c 1.116108,-1e-6 1.995922,0.818984 1.995922,1.839671 0,1.020733 -0.879814,1.863719 -1.995922,1.863719 -1.116109,0 -2.037468,-0.842998 -2.037468,-1.863719 0,-1.020732 0.921393,-1.839671 2.037468,-1.839671 z"
     id="path4"
     inkscape:connector-curvature="0"
     style="opacity:0.2;stroke-width:1.12897897" />
  <path
     d="m 24.995759,13.167917 c -0.321239,-0.01207 -0.649016,0.0064 -0.987563,0.02182 -2.010372,0.09158 -5.56722,0.01631 -6.95451,1.735015 -0.847739,1.05021 -0.452901,3.4934 0.846181,3.747081 1.618392,0.31608 4.354472,-0.467589 6.108341,-0.274974 1.22291,0.134292 1.580119,1.166574 0.584224,1.883363 -1.0545,0.758922 -3.448466,0.528859 -4.657151,0.910047 -4.178577,1.317857 -5.680232,4.110048 -4.657151,7.893595 0.667147,2.467157 3.02905,4.29791 5.605154,4.401776 4.95554,-0.01144 4.031132,-2.63594 6.430551,-1.270102 0.789665,0.956686 2.381243,1.263667 3.205962,0.591416 1.325873,-1.080794 3.325181,-1.659599 1.914861,-3.871494 -0.675389,-1.059254 0.89904,-2.432386 0.544721,-7.703701 -0.31433,-4.676118 -3.16498,-7.884337 -7.983687,-8.063845 z m -0.644511,11.302208 c 1.116108,-1e-6 1.995922,0.818984 1.995922,1.839671 0,1.020733 -0.879814,1.863719 -1.995922,1.863719 -1.116109,0 -2.037468,-0.842998 -2.037468,-1.863719 0,-1.020732 0.921393,-1.839671 2.037468,-1.839671 z"
     id="path6"
     inkscape:connector-curvature="0"
     style="fill:#ffffff;stroke-width:1.12897897" />
  <path
     d="M 24,0.74576274 A 22.579578,22.579578 0 0 0 1.4204217,23.325341 22.579578,22.579578 0 0 0 1.4446947,23.982406 22.579578,22.579578 0 0 1 23.999436,1.8747417 22.579578,22.579578 0 0 1 46.554176,23.797254 22.579578,22.579578 0 0 0 46.579014,23.325341 22.579578,22.579578 0 0 0 23.999436,0.74576274 Z"
     id="path8"
     inkscape:connector-curvature="0"
     style="opacity:0.399;fill:#ffffff;stroke-width:1.12897897" />
  <path
     d="M 46.55587,22.373524 A 22.579578,22.579578 0 0 1 24,44.481189 22.579578,22.579578 0 0 1 1.4452592,22.558676 22.579578,22.579578 0 0 0 1.4204217,23.030589 22.579578,22.579578 0 0 0 24,45.610168 22.579578,22.579578 0 0 0 46.579578,23.030589 22.579578,22.579578 0 0 0 46.55587,22.373524 Z"
     id="path10"
     inkscape:connector-curvature="0"
     style="opacity:0.2;stroke-width:1.12897897" />
</svg>
