<?xml version="1.0" encoding="UTF-8" standalone="no"?>
<!-- Created with Inkscape (http://www.inkscape.org/) -->

<svg
   xmlns:dc="http://purl.org/dc/elements/1.1/"
   xmlns:cc="http://creativecommons.org/ns#"
   xmlns:rdf="http://www.w3.org/1999/02/22-rdf-syntax-ns#"
   xmlns:svg="http://www.w3.org/2000/svg"
   xmlns="http://www.w3.org/2000/svg"
   xmlns:xlink="http://www.w3.org/1999/xlink"
   xmlns:sodipodi="http://sodipodi.sourceforge.net/DTD/sodipodi-0.dtd"
   xmlns:inkscape="http://www.inkscape.org/namespaces/inkscape"
   width="48px"
   height="48px"
   id="svg4700"
   version="1.1"
   inkscape:version="0.92.2 2405546, 2018-03-11"
   sodipodi:docname="brasero.svg">
  <defs
     id="defs4702">
    <linearGradient
       id="linearGradient3899">
      <stop
         id="stop3901"
         offset="0"
         style="stop-color:white;stop-opacity:1;" />
      <stop
         id="stop3903"
         offset="1"
         style="stop-color:white;stop-opacity:0;" />
    </linearGradient>
    <linearGradient
       id="linearGradient4009">
      <stop
         id="stop4012"
         offset="0"
         style="stop-color:#ffffff;stop-opacity:0;" />
      <stop
         style="stop-color:#ffffff;stop-opacity:0.54901963;"
         offset="0.5"
         id="stop4017" />
      <stop
         id="stop4014"
         offset="1"
         style="stop-color:#ffffff;stop-opacity:0;" />
    </linearGradient>
    <linearGradient
       id="linearGradient4390">
      <stop
         style="stop-color:#ffffff;stop-opacity:0.75384617;"
         offset="0"
         id="stop4392" />
      <stop
         style="stop-color:#ffffff;stop-opacity:0;"
         offset="1"
         id="stop4394" />
    </linearGradient>
    <linearGradient
       id="linearGradient4517">
      <stop
         style="stop-color:#ffffff;stop-opacity:1;"
         offset="0"
         id="stop4519" />
      <stop
         style="stop-color:#ffffff;stop-opacity:0;"
         offset="1"
         id="stop4521" />
    </linearGradient>
    <linearGradient
       gradientUnits="userSpaceOnUse"
       xlink:href="#linearGradient3322"
       id="linearGradient3279"
       y2="77.09375"
       x2="32"
       y1="77.09375"
       x1="6"
       gradientTransform="matrix(0.46153843,0,0,0.46489104,2.2307693,0.1598061)" />
    <linearGradient
       gradientUnits="userSpaceOnUse"
       xlink:href="#linearGradient3173"
       id="linearGradient3179"
       y2="33.8722"
       x2="46.430859"
       y1="77.039726"
       x1="46.430859"
       gradientTransform="matrix(0.4643436,0,0,0.47228973,1.7115069,-39.336172)" />
    <filter
       id="filter3174"
       color-interpolation-filters="sRGB">
      <feGaussianBlur
         stdDeviation="1.71"
         id="feGaussianBlur3176" />
    </filter>
    <linearGradient
       gradientTransform="scale(1.0058652,0.994169)"
       gradientUnits="userSpaceOnUse"
       id="ButtonShadow"
       y2="7.0165396"
       x2="45.447727"
       y1="92.539597"
       x1="45.447727">
      <stop
         offset="0"
         style="stop-color:#000000;stop-opacity:1"
         id="stop3750" />
      <stop
         offset="1"
         style="stop-color:#000000;stop-opacity:0.58823532"
         id="stop3752" />
    </linearGradient>
    <linearGradient
       id="linearGradient3173">
      <stop
         offset="0"
         style="stop-color:#d2d2d2;stop-opacity:1;"
         id="stop3187" />
      <stop
         offset="1"
         style="stop-color:#3b3b3b;stop-opacity:1;"
         id="stop3177" />
    </linearGradient>
    <linearGradient
       id="linearGradient3322">
      <stop
         offset="0"
         style="stop-color:#000000;stop-opacity:1;"
         id="stop3326" />
      <stop
         offset="1"
         style="stop-color:#000000;stop-opacity:0;"
         id="stop3330" />
    </linearGradient>
    <linearGradient
       id="linearGradient5048-0">
      <stop
         id="stop5050-0"
         style="stop-color:#000000;stop-opacity:0"
         offset="0" />
      <stop
         id="stop5056-5"
         style="stop-color:#000000;stop-opacity:1"
         offset="0.5" />
      <stop
         id="stop5052-9"
         style="stop-color:#000000;stop-opacity:0"
         offset="1" />
    </linearGradient>
    <linearGradient
       id="linearGradient5060-9">
      <stop
         id="stop5062-2"
         style="stop-color:#000000;stop-opacity:1"
         offset="0" />
      <stop
         id="stop5064-0"
         style="stop-color:#000000;stop-opacity:0"
         offset="1" />
    </linearGradient>
    <linearGradient
       id="linearGradient986-3">
      <stop
         style="stop-color:#ffffff;stop-opacity:1;"
         offset="0"
         id="stop988-9" />
      <stop
         style="stop-color:#ffffff;stop-opacity:0;"
         offset="1"
         id="stop990-4" />
    </linearGradient>
    <linearGradient
       x1="45.447727"
       y1="92.539597"
       x2="45.447727"
       y2="7.0165396"
       id="ButtonShadow-7"
       gradientUnits="userSpaceOnUse"
       gradientTransform="scale(1.0058652,0.994169)">
      <stop
         id="stop3750-5"
         style="stop-color:#000000;stop-opacity:1"
         offset="0" />
      <stop
         id="stop3752-1"
         style="stop-color:#000000;stop-opacity:0.58823532"
         offset="1" />
    </linearGradient>
    <filter
       color-interpolation-filters="sRGB"
       id="filter3174-8">
      <feGaussianBlur
         id="feGaussianBlur3176-3"
         stdDeviation="1.71" />
    </filter>
    <linearGradient
       id="linearGradient3772">
      <stop
         id="stop3774"
         style="stop-color:#898989;stop-opacity:1;"
         offset="0" />
      <stop
         id="stop3776"
         style="stop-color:#000000;stop-opacity:1;"
         offset="1" />
    </linearGradient>
    <linearGradient
       x1="12.2744"
       y1="32.4165"
       x2="35.391201"
       y2="14.2033"
       id="linearGradient3263"
       gradientUnits="userSpaceOnUse">
      <stop
         id="stop3265"
         style="stop-color:#c7c7c7;stop-opacity:1;"
         offset="0" />
      <stop
         id="stop3267"
         style="stop-color:#eaeaea;stop-opacity:1;"
         offset="0.5" />
      <stop
         id="stop3269"
         style="stop-color:#c7c7c7;stop-opacity:1;"
         offset="1" />
    </linearGradient>
    <linearGradient
       id="linearGradient6036">
      <stop
         id="stop6038"
         style="stop-color:#ffffff;stop-opacity:1"
         offset="0" />
      <stop
         id="stop6040"
         style="stop-color:#ffffff;stop-opacity:0"
         offset="1" />
    </linearGradient>
  </defs>
  <sodipodi:namedview
     id="base"
     pagecolor="#ffffff"
     bordercolor="#666666"
     borderopacity="1.0"
     inkscape:pageopacity="0.0"
     inkscape:pageshadow="2"
     inkscape:zoom="11.313708"
     inkscape:cx="20.949987"
     inkscape:cy="28.733019"
     inkscape:current-layer="layer1"
     showgrid="true"
     inkscape:grid-bbox="true"
     inkscape:document-units="px"
     inkscape:window-width="1920"
     inkscape:window-height="1012"
     inkscape:window-x="0"
     inkscape:window-y="38"
     inkscape:window-maximized="1"
     inkscape:snap-to-guides="true"
     inkscape:snap-grids="true"
     showguides="true"
     inkscape:guide-bbox="true">
    <inkscape:grid
       type="xygrid"
       id="grid1021" />
  </sodipodi:namedview>
  <metadata
     id="metadata4705">
    <rdf:RDF>
      <cc:Work
         rdf:about="">
        <dc:format>image/svg+xml</dc:format>
        <dc:type
           rdf:resource="http://purl.org/dc/dcmitype/StillImage" />
        <dc:title />
      </cc:Work>
    </rdf:RDF>
  </metadata>
  <g
     id="layer1"
     inkscape:label="Layer 1"
     inkscape:groupmode="layer">
    <g
       id="layer2"
       style="display:none"
       transform="translate(5.204491,-179.6879)">
      <rect
         width="86"
         height="85"
         rx="6"
         ry="6"
         x="5"
         y="7"
         id="rect3745"
         style="opacity:0.9;fill:url(#ButtonShadow);fill-opacity:1;fill-rule:nonzero;stroke:none;filter:url(#filter3174)" />
    </g>
    <g
       id="layer4"
       transform="translate(5.204491,-179.6879)" />
    <g
       id="layer2-6"
       style="display:none"
       transform="translate(-52.967913,-177.17602)">
      <rect
         width="86"
         height="85"
         rx="6"
         ry="6"
         x="5"
         y="7"
         id="rect3745-4"
         style="opacity:0.9;fill:url(#ButtonShadow-7);fill-opacity:1;fill-rule:nonzero;stroke:none;filter:url(#filter3174-8)" />
    </g>
    <g
       id="layer4-8"
       transform="translate(-52.967913,-177.17602)" />
    <path
       inkscape:connector-curvature="0"
       style="fill:#cccccc;fill-opacity:1;stroke-width:0.243;stroke:#000000;stroke-opacity:1;stroke-miterlimit:4;stroke-dasharray:none;opacity:0.623"
       d="M 46.6665,24.186925 A 22.302176,22.302176 0 0 1 24.364326,46.489094 22.302176,22.302176 0 0 1 2.0621543,24.186925 22.302176,22.302176 0 0 1 24.364326,1.8847508 22.302176,22.302176 0 0 1 46.6665,24.186925 Z"
       id="path11" />
    <path
       inkscape:connector-curvature="0"
       style="opacity:1;fill:#ececec;stroke-width:0.7434057"
       d="M 12.003122,5.6490608 C 6.0179586,9.6404086 2.0869847,16.449558 2.0869847,24.21339 H 19.928722 c 0,-1.807515 1.080912,-3.354692 2.626601,-4.055275 L 12,5.6503975 Z"
       id="path15" />
    <path
       inkscape:connector-curvature="0"
       style="opacity:0.1;fill:#ffffff;stroke-width:0.7434057"
       d="M 24.362875,1.8847508 A 22.302176,22.302176 0 0 0 2.0621543,24.186925 22.302176,22.302176 0 0 0 2.0753639,24.567341 22.302176,22.302176 0 0 1 24.363008,2.6281602 h 0.0015 A 22.302176,22.302176 0 0 1 46.647679,24.567341 22.302176,22.302176 0 0 0 46.665169,24.186925 22.302176,22.302176 0 0 0 24.364403,1.8847508 Z"
       id="path13" />
    <path
       inkscape:connector-curvature="0"
       style="opacity:1;fill:#ececec;stroke-width:0.7434057"
       d="m 36.725681,42.72449 c 5.985308,-3.991344 9.916141,-10.800493 9.916141,-18.564327 H 28.800079 c 0,1.807517 -1.08091,3.35469 -2.626599,4.055277 l 10.552201,14.509497 z"
       id="path17" />
    <rect
       style="fill:#848484;fill-opacity:1;stroke:none;stroke-width:0.7434057"
       ry="8.9208708"
       height="17.841742"
       width="17.841742"
       y="15.266048"
       x="15.443454"
       id="rect19" />
    <rect
       style="fill:#ffffff;fill-opacity:0;stroke-width:1.34821057"
       transform="scale(1,-1)"
       ry="5.3928423"
       height="10.785685"
       width="10.785685"
       y="-29.579773"
       x="18.971481"
       id="rect21" />
    <rect
       style="fill:#ffffff;fill-opacity:1;stroke-width:0.44940329"
       ry="5.3928399"
       height="10.78568"
       width="10.78568"
       y="18.794085"
       x="18.971485"
       id="rect19-7" />
    <path
       style="fill:#000000;fill-opacity:1;stroke-width:0.243;stroke:none;stroke-opacity:1;stroke-miterlimit:4;stroke-dasharray:none;opacity:0.201"
       d="M 46.638672 23.404297 A 22.302176 22.302176 0 0 1 24.365234 45.164062 A 22.302176 22.302176 0 0 1 2.0898438 23.644531 A 22.302176 22.302176 0 0 0 2.0625 24.1875 A 22.302176 22.302176 0 0 0 24.365234 46.488281 A 22.302176 22.302176 0 0 0 46.666016 24.1875 A 22.302176 22.302176 0 0 0 46.638672 23.404297 z "
       id="path969" />
    <g
       id="g967"
       transform="translate(-24.138851,8.3029434)">
      <g
         id="g953">
        <path
           style="opacity:1;fill:#ff5722;fill-opacity:1;stroke-width:0.16542062"
           d="m 55.807991,38.809775 c -2.200749,-0.140625 -3.590715,-0.475707 -5.128041,-1.23623 -2.116091,-1.046839 -3.792909,-2.750744 -4.886452,-4.965377 -0.939432,-1.902537 -1.201671,-3.107029 -1.11429,-5.11805 0.09783,-2.25154 0.765051,-4.006421 2.203893,-5.796534 l 0.396322,-0.493084 -0.252114,0.823925 c -0.352843,1.153094 -0.187384,2.106032 0.49495,2.850587 0.464918,0.507317 0.664469,0.598722 1.449173,0.663795 1.234953,0.102409 1.879824,-0.241544 2.320459,-1.237676 0.544722,-1.231431 0.373114,-2.224001 -0.656655,-3.798011 -0.465617,-0.711713 -0.925191,-1.503577 -1.021261,-1.759699 -0.260636,-0.694819 -0.210967,-2.594595 0.09099,-3.480825 0.284144,-0.833903 1.635683,-2.450235 2.363805,-2.826919 l 0.430796,-0.222866 v 1.513095 c 0,1.907032 0.328345,2.653417 1.415663,3.218022 1.240665,0.644238 2.684471,0.161477 3.610491,-1.207224 0.533001,-0.787804 0.644562,-2.388968 0.286934,-4.118273 C 57.30062,9.1424973 57.58107,7.3509407 58.772157,5.4889724 59.392361,4.5194369 60.493721,3.5114807 61.203103,3.2641895 l 0.478537,-0.166819 -0.124678,0.6946451 c -0.370347,2.0633832 0.139521,3.5262723 2.154684,6.1821327 1.560086,2.0561017 2.185182,3.1712917 2.52828,4.5105377 0.482674,1.884062 0.191157,2.893933 -1.712626,5.932834 -1.297133,2.070541 -1.640278,3.119815 -1.360307,4.159553 0.224386,0.833301 0.800132,1.65653 1.478038,2.113372 1.73143,1.166811 3.995417,-0.623864 4.018371,-3.178291 l 0.0084,-0.93197 0.489838,0.464926 c 1.128959,1.071535 1.883802,3.386413 1.723702,5.286091 -0.35323,4.191314 -3.894339,8.376345 -8.37784,9.901282 -0.970652,0.33014 -4.391569,0.842749 -4.797158,0.718834 -0.0455,-0.0139 -0.901543,-0.0776 -1.902337,-0.141542 z"
           id="path817"
           inkscape:connector-curvature="0"
           sodipodi:nodetypes="csssscccscscsccsssscsccssssscccssccc" />
        <path
           style="opacity:0.2;fill:#ffffff;fill-opacity:1;stroke-width:0.16542062"
           d="M 61.681906,3.039609 61.202672,3.2067563 C 60.493291,3.4540482 59.39282,4.4615597 58.772616,5.431095 57.859474,6.8585628 57.485666,8.2475685 57.589731,9.9323711 57.670401,8.6918193 58.052736,7.5897199 58.772616,6.4643665 59.39282,5.4948308 60.493291,4.4873197 61.202672,4.2400276 l 0.302735,-0.1051969 c 0.01668,-0.1328146 0.02673,-0.2621252 0.05144,-0.399751 z m -0.203381,2.3435626 c -0.164059,1.7576125 0.425602,3.1831597 2.233688,5.5661064 1.560085,2.056102 2.185143,3.171381 2.528242,4.510625 0.0827,0.32282 0.131779,0.616266 0.16481,0.902361 0.08751,-0.625098 0.01922,-1.216116 -0.16481,-1.934463 C 65.897356,13.088556 65.272298,11.973276 63.712213,9.9171761 62.267721,8.0134234 61.606341,6.7215344 61.478525,5.3831716 Z m -8.979178,6.7723684 -0.430139,0.223253 c -0.728124,0.376684 -2.080457,1.992396 -2.364603,2.8263 -0.211079,0.619491 -0.290232,1.721594 -0.23494,2.573827 0.03165,-0.581864 0.104581,-1.157979 0.23494,-1.540555 0.284146,-0.833906 1.636479,-2.450784 2.364603,-2.82747 l 0.430139,-0.222083 z m 0,1.512503 v 1.033272 c 0,1.907033 0.328172,2.653263 1.41549,3.217868 1.240663,0.644237 2.684585,0.161271 3.610605,-1.20743 C 57.909031,16.144788 58.070767,15.154088 58,14 c -0.05205,0.702483 -0.211553,1.290917 -0.474558,1.679649 -0.92602,1.368703 -2.369942,1.851669 -3.610605,1.207432 -1.087318,-0.564606 -1.41549,-1.312006 -1.41549,-3.219038 z m -5.220123,7.474853 -0.396243,0.49326 c -1.438843,1.790111 -2.105468,3.544831 -2.203297,5.796371 -0.01804,0.415109 -0.01696,0.790542 -0.0024,1.150156 0.0014,-0.04022 5.61e-4,-0.07602 0.0024,-0.116891 0.09769,-2.248164 0.763077,-4.000863 2.197452,-5.788188 0.02806,-0.228213 0.07416,-0.464067 0.149615,-0.710667 z m 21.392457,1.380421 -0.0082,0.931583 c -0.02295,2.554424 -2.287108,4.344939 -4.018537,3.178127 -0.677906,-0.456842 -1.253053,-1.279997 -1.477438,-2.113297 -0.01657,-0.06152 -0.0241,-0.124053 -0.03623,-0.185848 -0.08582,0.442404 -0.06809,0.831701 0.03623,1.219119 0.224385,0.8333 0.799532,1.656456 1.477438,2.113296 1.731429,1.166813 3.995581,-0.623702 4.018537,-3.178127 l 0.0082,-0.93275 0.489751,0.465207 c 0.936901,0.889245 1.606903,2.633469 1.719392,4.287375 0.0011,-0.01133 0.0037,-0.02257 0.0047,-0.0339 0.160099,-1.899679 -0.595108,-4.215214 -1.724066,-5.286749 z M 51.540884,23.45373 c -0.04887,0.257767 -0.128536,0.517895 -0.248968,0.790149 -0.440634,0.99613 -1.08523,1.340234 -2.320185,1.237821 -0.784704,-0.06507 -0.984466,-0.156594 -1.449384,-0.663911 -0.332217,-0.362512 -0.539512,-0.775126 -0.626509,-1.235485 -0.142221,0.894333 0.06308,1.652786 0.626509,2.267586 0.464918,0.507318 0.66468,0.59884 1.449384,0.663913 1.234955,0.102409 1.879551,-0.240522 2.320185,-1.236653 0.28015,-0.633321 0.367052,-1.20487 0.248968,-1.82342 z"
           id="path817-1"
           inkscape:connector-curvature="0" />
      </g>
      <g
         style="fill:#ffcc00"
         transform="matrix(0.50123951,0,0,0.50123951,28.165673,19.244064)"
         id="g959">
        <path
           sodipodi:nodetypes="csssscccscscsccsssscsccssssscccssccc"
           inkscape:connector-curvature="0"
           id="path955"
           d="m 55.807991,38.809775 c -2.200749,-0.140625 -3.590715,-0.475707 -5.128041,-1.23623 -2.116091,-1.046839 -3.792909,-2.750744 -4.886452,-4.965377 -0.939432,-1.902537 -1.201671,-3.107029 -1.11429,-5.11805 0.09783,-2.25154 0.765051,-4.006421 2.203893,-5.796534 l 0.396322,-0.493084 -0.252114,0.823925 c -0.352843,1.153094 -0.187384,2.106032 0.49495,2.850587 0.464918,0.507317 0.664469,0.598722 1.449173,0.663795 1.234953,0.102409 1.879824,-0.241544 2.320459,-1.237676 0.544722,-1.231431 0.373114,-2.224001 -0.656655,-3.798011 -0.465617,-0.711713 -0.925191,-1.503577 -1.021261,-1.759699 -0.260636,-0.694819 -0.210967,-2.594595 0.09099,-3.480825 0.284144,-0.833903 1.635683,-2.450235 2.363805,-2.826919 l 0.430796,-0.222866 v 1.513095 c 0,1.907032 0.328345,2.653417 1.415663,3.218022 1.240665,0.644238 2.684471,0.161477 3.610491,-1.207224 0.533001,-0.787804 0.644562,-2.388968 0.286934,-4.118273 C 57.30062,9.1424973 57.58107,7.3509407 58.772157,5.4889724 59.392361,4.5194369 60.493721,3.5114807 61.203103,3.2641895 l 0.478537,-0.166819 -0.124678,0.6946451 c -0.370347,2.0633832 0.139521,3.5262723 2.154684,6.1821327 1.560086,2.0561017 2.185182,3.1712917 2.52828,4.5105377 0.482674,1.884062 0.191157,2.893933 -1.712626,5.932834 -1.297133,2.070541 -1.640278,3.119815 -1.360307,4.159553 0.224386,0.833301 0.800132,1.65653 1.478038,2.113372 1.73143,1.166811 3.995417,-0.623864 4.018371,-3.178291 l 0.0084,-0.93197 0.489838,0.464926 c 1.128959,1.071535 1.883802,3.386413 1.723702,5.286091 -0.35323,4.191314 -3.894339,8.376345 -8.37784,9.901282 -0.970652,0.33014 -4.391569,0.842749 -4.797158,0.718834 -0.0455,-0.0139 -0.901543,-0.0776 -1.902337,-0.141542 z"
           style="opacity:1;fill:#ffcc00;fill-opacity:1;stroke-width:0.16542062" />
        <path
           inkscape:connector-curvature="0"
           id="path957"
           d="M 61.681906,3.039609 61.202672,3.2067563 C 60.493291,3.4540482 59.39282,4.4615597 58.772616,5.431095 57.859474,6.8585628 57.485666,8.2475685 57.589731,9.9323711 57.670401,8.6918193 58.052736,7.5897199 58.772616,6.4643665 59.39282,5.4948308 60.493291,4.4873197 61.202672,4.2400276 l 0.302735,-0.1051969 c 0.01668,-0.1328146 0.02673,-0.2621252 0.05144,-0.399751 z m -0.203381,2.3435626 c -0.164059,1.7576125 0.425602,3.1831597 2.233688,5.5661064 1.560085,2.056102 2.185143,3.171381 2.528242,4.510625 0.0827,0.32282 0.131779,0.616266 0.16481,0.902361 0.08751,-0.625098 0.01922,-1.216116 -0.16481,-1.934463 C 65.897356,13.088556 65.272298,11.973276 63.712213,9.9171761 62.267721,8.0134234 61.606341,6.7215344 61.478525,5.3831716 Z m -8.979178,6.7723684 -0.430139,0.223253 c -0.728124,0.376684 -2.080457,1.992396 -2.364603,2.8263 -0.211079,0.619491 -0.290232,1.721594 -0.23494,2.573827 0.03165,-0.581864 0.104581,-1.157979 0.23494,-1.540555 0.284146,-0.833906 1.636479,-2.450784 2.364603,-2.82747 l 0.430139,-0.222083 z m 0,1.512503 v 1.033272 c 0,1.907033 0.328172,2.653263 1.41549,3.217868 1.240663,0.644237 2.684585,0.161271 3.610605,-1.20743 C 57.909031,16.144788 58.070767,15.154088 58,14 c -0.05205,0.702483 -0.211553,1.290917 -0.474558,1.679649 -0.92602,1.368703 -2.369942,1.851669 -3.610605,1.207432 -1.087318,-0.564606 -1.41549,-1.312006 -1.41549,-3.219038 z m -5.220123,7.474853 -0.396243,0.49326 c -1.438843,1.790111 -2.105468,3.544831 -2.203297,5.796371 -0.01804,0.415109 -0.01696,0.790542 -0.0024,1.150156 0.0014,-0.04022 5.61e-4,-0.07602 0.0024,-0.116891 0.09769,-2.248164 0.763077,-4.000863 2.197452,-5.788188 0.02806,-0.228213 0.07416,-0.464067 0.149615,-0.710667 z m 21.392457,1.380421 -0.0082,0.931583 c -0.02295,2.554424 -2.287108,4.344939 -4.018537,3.178127 -0.677906,-0.456842 -1.253053,-1.279997 -1.477438,-2.113297 -0.01657,-0.06152 -0.0241,-0.124053 -0.03623,-0.185848 -0.08582,0.442404 -0.06809,0.831701 0.03623,1.219119 0.224385,0.8333 0.799532,1.656456 1.477438,2.113296 1.731429,1.166813 3.995581,-0.623702 4.018537,-3.178127 l 0.0082,-0.93275 0.489751,0.465207 c 0.936901,0.889245 1.606903,2.633469 1.719392,4.287375 0.0011,-0.01133 0.0037,-0.02257 0.0047,-0.0339 0.160099,-1.899679 -0.595108,-4.215214 -1.724066,-5.286749 z M 51.540884,23.45373 c -0.04887,0.257767 -0.128536,0.517895 -0.248968,0.790149 -0.440634,0.99613 -1.08523,1.340234 -2.320185,1.237821 -0.784704,-0.06507 -0.984466,-0.156594 -1.449384,-0.663911 -0.332217,-0.362512 -0.539512,-0.775126 -0.626509,-1.235485 -0.142221,0.894333 0.06308,1.652786 0.626509,2.267586 0.464918,0.507318 0.66468,0.59884 1.449384,0.663913 1.234955,0.102409 1.879551,-0.240522 2.320185,-1.236653 0.28015,-0.633321 0.367052,-1.20487 0.248968,-1.82342 z"
           style="opacity:0.2;fill:#ffcc00;fill-opacity:1;stroke-width:0.16542062" />
      </g>
    </g>
    <path
       id="path974"
       d="M 2.089844,24.841833 A 22.302176,22.302176 0 0 1 24.363282,3.0820696 22.302176,22.302176 0 0 1 46.638672,24.601599 22.302176,22.302176 0 0 0 46.666016,24.05863 22.302176,22.302176 0 0 0 24.363282,1.7578506 22.302176,22.302176 0 0 0 2.0625,24.05863 22.302176,22.302176 0 0 0 2.08984,24.841833 Z"
       style="opacity:0.20100002;fill:#ffffff;fill-opacity:1;stroke:none;stroke-width:0.243;stroke-miterlimit:4;stroke-dasharray:none;stroke-opacity:1"
       inkscape:connector-curvature="0" />
  </g>
</svg>
