<?xml version="1.0" encoding="UTF-8" standalone="no"?>
<svg
   xmlns:dc="http://purl.org/dc/elements/1.1/"
   xmlns:cc="http://creativecommons.org/ns#"
   xmlns:rdf="http://www.w3.org/1999/02/22-rdf-syntax-ns#"
   xmlns:svg="http://www.w3.org/2000/svg"
   xmlns="http://www.w3.org/2000/svg"
   xmlns:sodipodi="http://sodipodi.sourceforge.net/DTD/sodipodi-0.dtd"
   xmlns:inkscape="http://www.inkscape.org/namespaces/inkscape"
   height="48"
   width="48"
   version="1"
   id="svg14"
   sodipodi:docname="cheese.svg"
   inkscape:version="0.92.2 2405546, 2018-03-11">
  <metadata
     id="metadata20">
    <rdf:RDF>
      <cc:Work
         rdf:about="">
        <dc:format>image/svg+xml</dc:format>
        <dc:type
           rdf:resource="http://purl.org/dc/dcmitype/StillImage" />
      </cc:Work>
    </rdf:RDF>
  </metadata>
  <defs
     id="defs18" />
  <sodipodi:namedview
     pagecolor="#ffffff"
     bordercolor="#666666"
     borderopacity="1"
     objecttolerance="10"
     gridtolerance="10"
     guidetolerance="10"
     inkscape:pageopacity="0"
     inkscape:pageshadow="2"
     inkscape:window-width="1920"
     inkscape:window-height="1013"
     id="namedview16"
     showgrid="false"
     inkscape:snap-global="false"
     inkscape:zoom="5.6568542"
     inkscape:cx="-72.098638"
     inkscape:cy="20.968634"
     inkscape:window-x="0"
     inkscape:window-y="0"
     inkscape:window-maximized="1"
     inkscape:current-layer="svg14" />
  <rect
     ry="3.6578989"
     rx="3.6578989"
     y="0.51302344"
     x="3.5253937"
     height="47.096165"
     width="41.474606"
     id="rect859"
     style="opacity:1;fill:#b54fab;fill-opacity:1;stroke:none;stroke-width:0.35695893;stroke-linecap:round;stroke-linejoin:round;stroke-miterlimit:4;stroke-dasharray:none;stroke-opacity:1;paint-order:stroke fill markers" />
  <path
     inkscape:connector-curvature="0"
     style="fill:#999999;fill-opacity:1;stroke-width:1.12072551"
     d="m 41.776309,20.451127 c -0.581876,0.161276 -18.946626,8.524002 -35.8613813,4.910366 l -0.00164,3.216419 v 3.218021 c 0.00978,0.0084 15.9246233,13.646391 35.8629843,-2.254859 z"
     id="rect2-88" />
  <path
     style="fill:#24282a;stroke-width:0.07924986"
     d="m 6.5891483,11.349497 c 0,-0.164608 1.7675699,-1.3739023 2.6548752,-1.8163536 1.3483165,-0.6723333 2.2222305,-0.8892374 3.6058695,-0.89498 1.233645,-0.00516 2.036384,0.1556284 3.167666,0.6343161 1.006945,0.4260819 2.93787,1.6134695 2.616544,1.6090035 -0.06482,-8.21e-4 -0.545794,-0.08985 -1.068845,-0.197664 -0.523051,-0.107814 -1.485935,-0.253714 -2.139744,-0.324225 -2.522131,-0.271983 -5.6728032,0.07042 -8.3410528,0.906459 -0.2724213,0.08537 -0.4953129,0.122908 -0.4953129,0.08345 z M 29.401177,10.503636 c 0.08654,-0.121542 0.436683,-0.487097 0.778084,-0.8123447 3.04392,-2.8999103 6.257194,-3.3699191 10.292674,-1.5055193 0.861435,0.3979847 0.929751,0.5142005 0.265212,0.4511508 -2.358388,-0.2237607 -5.031633,-0.047003 -7.076731,0.4678648 -1.151215,0.2898375 -3.051482,0.9787594 -3.947481,1.4311154 -0.475046,0.23983 -0.50342,0.236895 -0.311758,-0.03228 z"
     id="path819-5"
     inkscape:connector-curvature="0" />
  <path
     inkscape:connector-curvature="0"
     style="opacity:0.2;fill:#000000;fill-opacity:1;stroke-width:1.12072551"
     d="m 41.776309,19.516811 c -0.581891,0.161288 -18.94823,8.524003 -35.8629838,4.910366 v 0.935919 C 22.828079,28.976732 41.194418,20.614012 41.776309,20.452729 Z"
     id="rect2-8" />
  <path
     style="fill:#ffffff;fill-opacity:1;stroke-width:0.07854213"
     d="m 23.63949,36.659753 c 4.120297,-0.34051 7.075146,-1.124597 10.525268,-2.79294 2.293413,-1.109002 4.4196,-2.431979 6.549879,-4.075532 l 0.852797,-0.657953 -0.05683,-3.825934 c -0.03129,-2.104263 -0.08009,-3.848182 -0.108453,-3.875373 -0.07066,-0.06765 -1.032051,0.264924 -2.12974,0.736684 l -0.9113,0.391659 0.01781,0.4194 c 0.0099,0.23067 0.11297,0.772806 0.229284,1.204746 0.116316,0.431943 0.971939,3.175648 0.972217,3.207493 2.8e-4,0.03185 -0.919601,-2.597495 -1.114993,-2.953353 -0.467342,-0.851133 -0.983735,-1.49154 -1.159999,-1.438575 -0.07332,0.02202 -0.603267,0.219791 -1.177761,0.439501 -0.574498,0.219702 -1.59157,0.567252 -2.260173,0.772326 -0.668593,0.205074 -1.277985,0.405228 -1.354198,0.444785 -0.295038,1.854157 0.486852,3.782343 0.918496,5.772177 -0.537094,-1.872763 -0.900078,-3.943126 -2.027673,-5.463619 -0.05564,0.0012 -0.726175,0.159604 -1.490073,0.351875 -0.763908,0.192281 -1.98715,0.470058 -2.718318,0.617281 -1.147653,0.231086 -1.336412,0.289587 -1.380655,0.427896 -0.0282,0.08811 -0.06842,0.631538 -0.08942,1.207604 l 0.4405,4.301696 -0.676285,-3.911957 c -0.251203,-0.836003 -0.534567,-1.458439 -0.689714,-1.515037 -0.0665,-0.02426 -0.542231,0.01431 -1.057115,0.08593 -1.064534,0.147896 -2.57053,0.282891 -4.195189,0.376069 l -1.11302,0.06383 -0.1453,0.296427 c -0.542364,1.52848 -0.511913,3.314093 -0.627301,4.891499 -0.0085,-0.293212 -0.164154,-4.783778 -0.2595,-5.004945 -0.03406,-0.07894 -0.145839,-0.136147 -0.268557,-0.137388 -0.684176,-0.0068 -3.998901,-0.119981 -4.684999,-0.159783 l -0.814892,-0.04726 -0.171469,0.381487 c -0.605691,1.408158 -0.590448,2.990712 -0.756921,4.534595 0.111983,-1.679911 0.226816,-3.373512 -0.05752,-5.016572 -0.02388,-0.02292 -0.463904,-0.104676 -0.977806,-0.18174 C 8.6733378,26.377227 7.7348731,26.169168 6.9945398,25.933472 6.2974361,25.711534 6.1658,25.733727 6.1097889,26.082631 c -0.025756,0.160181 -0.03653,1.502243 -0.024116,2.982355 l 0.022794,2.691114 0.261934,0.191421 c 0.5544428,0.405183 2.548207,1.533624 3.6553621,2.06888 4.648674,2.24742 8.75573,3.044847 13.614179,2.643336 z"
     id="path831-9"
     inkscape:connector-curvature="0"
     sodipodi:nodetypes="cscccccccsscccccccsccccccccccccccccccccccccccc" />
  <path
     style="opacity:0.2;fill:#000000;fill-opacity:1;stroke-width:0.07924986"
     d="m 6.5891483,11.894426 c 0,-0.164607 1.7675699,-1.373902 2.6548752,-1.816353 1.3483165,-0.6723336 2.2222305,-0.8892377 3.6058695,-0.8949792 1.233645,-0.00516 2.036384,0.1556295 3.167666,0.6343161 1.006945,0.4260811 2.937867,1.6134691 2.616543,1.6090031 -0.06482,-8.2e-4 -0.545793,-0.08986 -1.068844,-0.197664 -0.523051,-0.107814 -1.485935,-0.253716 -2.139744,-0.324224 -2.522131,-0.271982 -5.6728032,0.0704 -8.3410528,0.906458 -0.2724213,0.08537 -0.4953129,0.122908 -0.4953129,0.08344 z M 29.401177,11.048564 c 0.08654,-0.121539 0.436683,-0.487095 0.778083,-0.812343 3.043919,-2.8999096 6.257195,-3.369915 10.292674,-1.5055182 0.861436,0.3979831 0.929752,0.5142012 0.265213,0.4511503 -2.358389,-0.2237607 -5.031634,-0.047003 -7.076733,0.467866 -1.151214,0.2898342 -3.051482,0.9787569 -3.94748,1.4311129 -0.475046,0.239833 -0.50342,0.236898 -0.311759,-0.03227 z"
     id="path819-5-3"
     inkscape:connector-curvature="0" />
</svg>
