<?xml version="1.0" encoding="UTF-8" standalone="no"?>
<svg
   xmlns:dc="http://purl.org/dc/elements/1.1/"
   xmlns:cc="http://creativecommons.org/ns#"
   xmlns:rdf="http://www.w3.org/1999/02/22-rdf-syntax-ns#"
   xmlns:svg="http://www.w3.org/2000/svg"
   xmlns="http://www.w3.org/2000/svg"
   xmlns:sodipodi="http://sodipodi.sourceforge.net/DTD/sodipodi-0.dtd"
   xmlns:inkscape="http://www.inkscape.org/namespaces/inkscape"
   height="48"
   width="48"
   version="1"
   id="svg18"
   sodipodi:docname="chrome-store.svg"
   inkscape:version="0.92.2 2405546, 2018-03-11">
  <metadata
     id="metadata24">
    <rdf:RDF>
      <cc:Work
         rdf:about="">
        <dc:format>image/svg+xml</dc:format>
        <dc:type
           rdf:resource="http://purl.org/dc/dcmitype/StillImage" />
      </cc:Work>
    </rdf:RDF>
  </metadata>
  <defs
     id="defs22" />
  <sodipodi:namedview
     pagecolor="#ffffff"
     bordercolor="#666666"
     borderopacity="1"
     objecttolerance="10"
     gridtolerance="10"
     guidetolerance="10"
     inkscape:pageopacity="0"
     inkscape:pageshadow="2"
     inkscape:window-width="1920"
     inkscape:window-height="1012"
     id="namedview20"
     showgrid="false"
     inkscape:zoom="4.9166667"
     inkscape:cx="24"
     inkscape:cy="24"
     inkscape:window-x="0"
     inkscape:window-y="38"
     inkscape:window-maximized="1"
     inkscape:current-layer="svg18" />
  <path
     d="M 17.641461,2.779661 15.516298,4.904824 V 9.1551499 H 2.7653193 V 41.032595 c 0,1.17734 0.9478227,2.125162 2.1251629,2.125162 H 43.143417 c 1.17734,0 2.125163,-0.947822 2.125163,-2.125162 V 9.1551499 H 32.517602 V 4.904824 L 30.392439,2.779661 Z m 0,2.125163 H 30.392439 V 9.1551499 H 17.641461 Z"
     id="path2"
     inkscape:connector-curvature="0"
     style="fill:#cccccc;stroke-width:1.06258154" />
  <path
     d="M 17.641461,4.904824 V 5.9674055 H 30.392439 V 4.904824 Z M 2.7653193,41.032595 v 1.062581 c 0,1.17734 0.9478227,2.125163 2.1251629,2.125163 H 43.143417 c 1.17734,0 2.125163,-0.947823 2.125163,-2.125163 v -1.062581 c 0,1.17734 -0.947823,2.125162 -2.125163,2.125162 H 4.8904822 c -1.1773402,0 -2.1251629,-0.947822 -2.1251629,-2.125162 z"
     id="path4"
     inkscape:connector-curvature="0"
     style="opacity:0.2;stroke-width:1.06258154" />
  <path
     d="m 17.641461,2.779661 -2.125163,2.125163 v 1.0625815 l 2.125163,-2.125163 h 12.750978 l 2.125163,2.125163 V 4.904824 L 30.392439,2.779661 Z M 2.7653193,9.1551499 V 10.217731 H 15.516298 V 9.1551499 Z m 14.8761417,0 V 10.217731 H 30.392439 V 9.1551499 Z m 14.876141,0 V 10.217731 H 45.26858 V 9.1551499 Z"
     id="path6"
     inkscape:connector-curvature="0"
     style="opacity:0.2;fill:#ffffff;stroke-width:1.06258154" />
  <path
     style="fill:#dd4d3e;stroke-width:1.06258154"
     d="m 24.014875,21.883299 c -7.455497,0 -13.973745,3.818971 -17.7650356,9.596439 -0.086941,5.618317 2.2078925,8.855257 4.9165156,11.678019 h 3.287362 c -2e-5,-0.0077 -0.0021,-0.01507 -0.0021,-0.02283 0,-5.298031 4.298036,-6.848975 9.563234,-7.43807 L 43.008519,33.571696 C 39.522189,26.62305 32.347639,21.883299 24.014875,21.883299 Z"
     id="path8"
     inkscape:connector-curvature="0" />
  <path
     style="fill:#109f5b;stroke-width:1.06258154"
     d="m 6.2581409,31.527472 c -1.9814495,3.010719 -3.14368,6.472305 -3.4181089,10.036413 0.2358414,0.917001 1.0578236,1.593872 2.0504502,1.593872 h 8.0814318 z"
     id="path10"
     inkscape:connector-curvature="0" />
  <path
     style="fill:#ffce41;stroke-width:1.06258154"
     d="m 43.050025,33.582072 -18.713471,0.0062 c 1.540956,0.04165 3.086275,0.440238 4.520123,1.268042 2.452013,1.415677 2.22203,4.213129 2.764372,6.769806 0.111373,0.524995 0.280517,1.033041 0.456578,1.531611 h 11.06579 c 1.088448,0 1.96965,-0.813122 2.098183,-1.865743 -0.238259,-2.682389 -0.978544,-5.301392 -2.191575,-7.709942 z"
     id="path12"
     inkscape:connector-curvature="0" />
  <path
     style="fill:#ffffff;stroke-width:1.06258154"
     d="m 24.014875,33.573771 c -5.298032,0 -9.563234,4.265202 -9.563234,9.563233 0,0.007 0.0021,0.01373 0.0021,0.02075 h 19.124391 c 1.5e-5,-0.007 0,-0.01375 0,-0.02075 0,-5.298031 -4.265202,-9.563233 -9.563233,-9.563233 z"
     id="path14"
     inkscape:connector-curvature="0" />
  <path
     style="fill:#4587f3;stroke-width:1.06258154"
     d="m 24.014875,35.167643 c -4.415026,0 -7.969361,3.554335 -7.969361,7.969361 0,0.007 0.0021,0.01372 0.0021,0.02075 h 15.936647 c 1.8e-5,-0.007 0,-0.01375 0,-0.02075 0,-4.415026 -3.554335,-7.969361 -7.969361,-7.969361 z"
     id="path16"
     inkscape:connector-curvature="0" />
</svg>
