<?xml version="1.0" encoding="UTF-8" standalone="no"?>
<!-- Created with Inkscape (http://www.inkscape.org/) -->

<svg
   xmlns:dc="http://purl.org/dc/elements/1.1/"
   xmlns:cc="http://creativecommons.org/ns#"
   xmlns:rdf="http://www.w3.org/1999/02/22-rdf-syntax-ns#"
   xmlns:svg="http://www.w3.org/2000/svg"
   xmlns="http://www.w3.org/2000/svg"
   xmlns:xlink="http://www.w3.org/1999/xlink"
   xmlns:sodipodi="http://sodipodi.sourceforge.net/DTD/sodipodi-0.dtd"
   xmlns:inkscape="http://www.inkscape.org/namespaces/inkscape"
   width="48px"
   height="48px"
   id="svg4700"
   version="1.1"
   inkscape:version="0.92.2 2405546, 2018-03-11"
   sodipodi:docname="claws-mail.svg">
  <defs
     id="defs4702">
    <linearGradient
       id="linearGradient982">
      <stop
         offset="0"
         style="stop-color:#454545;stop-opacity:1;"
         id="stop978" />
      <stop
         offset="1"
         style="stop-color:#ececec;stop-opacity:1"
         id="stop980" />
    </linearGradient>
    <linearGradient
       id="linearGradient976">
      <stop
         id="stop970"
         style="stop-color:#f9f9f9;stop-opacity:1"
         offset="0" />
      <stop
         id="stop972"
         style="stop-color:#000000;stop-opacity:0.49803922"
         offset="0.5" />
      <stop
         id="stop974"
         style="stop-color:#000000;stop-opacity:0"
         offset="1" />
    </linearGradient>
    <linearGradient
       id="linearGradient7611">
      <stop
         style="stop-color:#ffffff;stop-opacity:1;"
         offset="0"
         id="stop7613" />
      <stop
         style="stop-color:#ffffff;stop-opacity:0;"
         offset="1"
         id="stop7615" />
    </linearGradient>
    <linearGradient
       id="linearGradient4050">
      <stop
         id="stop4052"
         offset="0"
         style="stop-color:#ffffff;stop-opacity:0.66929132;" />
      <stop
         id="stop4054"
         offset="1"
         style="stop-color:#ffffff;stop-opacity:0;" />
    </linearGradient>
    <filter
       id="filter3174"
       color-interpolation-filters="sRGB">
      <feGaussianBlur
         stdDeviation="1.71"
         id="feGaussianBlur3176" />
    </filter>
    <linearGradient
       gradientTransform="scale(1.0058652,0.994169)"
       gradientUnits="userSpaceOnUse"
       id="ButtonShadow"
       y2="7.0165396"
       x2="45.447727"
       y1="92.539597"
       x1="45.447727">
      <stop
         offset="0"
         style="stop-color:#000000;stop-opacity:1"
         id="stop3750" />
      <stop
         offset="1"
         style="stop-color:#000000;stop-opacity:0.58823532"
         id="stop3752" />
    </linearGradient>
    <linearGradient
       gradientTransform="scale(1.0058652,0.994169)"
       gradientUnits="userSpaceOnUse"
       xlink:href="#ButtonShadow-4"
       id="linearGradient2875"
       y2="7.0165396"
       x2="45.447727"
       y1="92.539597"
       x1="45.447727" />
    <filter
       id="filter3174-2"
       color-interpolation-filters="sRGB">
      <feGaussianBlur
         stdDeviation="1.71"
         id="feGaussianBlur3176-2" />
    </filter>
    <linearGradient
       gradientTransform="scale(1.0058652,0.994169)"
       gradientUnits="userSpaceOnUse"
       id="ButtonShadow-4"
       y2="7.0165396"
       x2="45.447727"
       y1="92.539597"
       x1="45.447727">
      <stop
         offset="0"
         style="stop-color:#000000;stop-opacity:1"
         id="stop3750-6" />
      <stop
         offset="1"
         style="stop-color:#000000;stop-opacity:0.58823532"
         id="stop3752-9" />
    </linearGradient>
    <linearGradient
       x1="45.447727"
       y1="92.539597"
       x2="45.447727"
       y2="7.0165396"
       id="ButtonShadow-0"
       gradientUnits="userSpaceOnUse"
       gradientTransform="scale(1.0058652,0.994169)">
      <stop
         id="stop3750-74"
         style="stop-color:#000000;stop-opacity:1"
         offset="0" />
      <stop
         id="stop3752-4"
         style="stop-color:#000000;stop-opacity:0.58823532"
         offset="1" />
    </linearGradient>
    <filter
       color-interpolation-filters="sRGB"
       id="filter3174-3">
      <feGaussianBlur
         id="feGaussianBlur3176-21"
         stdDeviation="1.71" />
    </filter>
    <linearGradient
       id="linearGradient3242-967-12-570-862-307-5-2-3">
      <stop
         id="stop4498-9-9-5"
         style="stop-color:#ffffff;stop-opacity:1"
         offset="0" />
      <stop
         id="stop4504-8-9-0"
         style="stop-color:#999999;stop-opacity:1"
         offset="1" />
    </linearGradient>
    <linearGradient
       id="linearGradient2490-495-150-777-3-6-38">
      <stop
         id="stop4108-9-0-26"
         style="stop-color:#454545;stop-opacity:1;"
         offset="0" />
      <stop
         id="stop4110-50-0-8"
         style="stop-color:#a5a5a5;stop-opacity:1;"
         offset="1" />
    </linearGradient>
    <linearGradient
       id="linearGradient3866-21">
      <stop
         offset="0"
         style="stop-color:#828282;stop-opacity:1"
         id="stop3868-2" />
      <stop
         offset="0.5"
         style="stop-color:#8f8f8f;stop-opacity:0.63478261"
         id="stop3872-10" />
      <stop
         offset="1"
         style="stop-color:#9d9d9d;stop-opacity:0"
         id="stop3870-8" />
    </linearGradient>
    <linearGradient
       id="linearGradient3333-4-0">
      <stop
         offset="0"
         style="stop-color:#ffffff;stop-opacity:1"
         id="stop3335-4-28" />
      <stop
         offset="1"
         style="stop-color:#ffffff;stop-opacity:0"
         id="stop3337-7-5" />
    </linearGradient>
    <linearGradient
       id="linearGradient3495-6">
      <stop
         offset="0"
         style="stop-color:#000000;stop-opacity:1"
         id="stop3497-2" />
      <stop
         offset="0.5"
         style="stop-color:#000000;stop-opacity:0.49803922"
         id="stop3874-3" />
      <stop
         offset="1"
         style="stop-color:#000000;stop-opacity:0"
         id="stop3499-16" />
    </linearGradient>
    <linearGradient
       id="linearGradient5060">
      <stop
         id="stop5062"
         style="stop-color:#000000;stop-opacity:1"
         offset="0" />
      <stop
         id="stop5064"
         style="stop-color:#000000;stop-opacity:0"
         offset="1" />
    </linearGradient>
    <linearGradient
       id="linearGradient5048">
      <stop
         id="stop5050"
         style="stop-color:#000000;stop-opacity:0"
         offset="0" />
      <stop
         id="stop5056"
         style="stop-color:#000000;stop-opacity:1"
         offset="0.5" />
      <stop
         id="stop5052"
         style="stop-color:#000000;stop-opacity:0"
         offset="1" />
    </linearGradient>
  </defs>
  <sodipodi:namedview
     id="base"
     pagecolor="#ffffff"
     bordercolor="#666666"
     borderopacity="1.0"
     inkscape:pageopacity="0.0"
     inkscape:pageshadow="2"
     inkscape:zoom="8.8021073"
     inkscape:cx="-11.677743"
     inkscape:cy="13.553866"
     inkscape:current-layer="layer1"
     showgrid="true"
     inkscape:grid-bbox="true"
     inkscape:document-units="px"
     inkscape:window-width="1920"
     inkscape:window-height="1013"
     inkscape:window-x="0"
     inkscape:window-y="0"
     inkscape:window-maximized="1"
     inkscape:snap-to-guides="false"
     inkscape:snap-grids="false"
     inkscape:snap-global="false">
    <inkscape:grid
       type="xygrid"
       id="grid1021"
       empspacing="5"
       visible="true"
       enabled="true"
       snapvisiblegridlinesonly="true" />
  </sodipodi:namedview>
  <metadata
     id="metadata4705">
    <rdf:RDF>
      <cc:Work
         rdf:about="">
        <dc:format>image/svg+xml</dc:format>
        <dc:type
           rdf:resource="http://purl.org/dc/dcmitype/StillImage" />
        <dc:title />
      </cc:Work>
    </rdf:RDF>
  </metadata>
  <g
     id="layer1"
     inkscape:label="Layer 1"
     inkscape:groupmode="layer">
    <g
       id="layer2"
       style="display:none"
       transform="translate(5.204491,-179.6879)">
      <rect
         width="86"
         height="85"
         rx="6"
         ry="6"
         x="5"
         y="7"
         id="rect3745"
         style="opacity:0.9;fill:url(#ButtonShadow);fill-opacity:1;fill-rule:nonzero;stroke:none;filter:url(#filter3174)" />
    </g>
    <g
       id="layer4"
       transform="translate(5.204491,-179.6879)" />
    <g
       id="layer2-9"
       style="display:none"
       transform="translate(-65.348932,-154.8626)">
      <rect
         width="86"
         height="85"
         rx="6"
         ry="6"
         x="5"
         y="7"
         id="rect3745-1"
         style="opacity:0.9;fill:url(#ButtonShadow-0);fill-opacity:1;fill-rule:nonzero;stroke:none;filter:url(#filter3174-3)" />
    </g>
    <g
       id="layer4-0"
       transform="translate(-65.348932,-154.8626)" />
    <g
       id="layer2-7"
       style="display:none"
       transform="translate(63.017297,-9.203493)">
      <path
         d="m 11,7.0000001 c -2.8840938,0 -5.2600098,2.0142918 -5.84375,4.7187499 2.508553,0.0336 4.5312502,2.077266 4.53125,4.59375 0,2.53742 -2.0563306,4.59375 -4.59375,4.59375 -0.031404,0 -0.062496,6.28e-4 -0.09375,0 l 0,7.15625 c 0.031254,-6.28e-4 0.062346,0 0.09375,0 2.5374193,0 4.5937502,2.056331 4.59375,4.59375 0,2.53742 -2.0563306,4.593749 -4.59375,4.59375 -0.031404,0 -0.062496,6.28e-4 -0.09375,0 l 0,7.15625 c 0.031254,-6.28e-4 0.062346,0 0.09375,0 2.5374193,0 4.5937502,2.056331 4.59375,4.59375 0,2.53742 -2.0563306,4.593749 -4.59375,4.59375 -0.031404,0 -0.062496,6.28e-4 -0.09375,0 L 5,60.75 c 0.031254,-6.28e-4 0.062346,0 0.09375,0 2.5374193,0 4.5937502,2.056331 4.59375,4.59375 0,2.53742 -2.0563306,4.593753 -4.59375,4.59375 -0.031404,0 -0.062496,6.28e-4 -0.09375,0 l 0,7.15625 c 0.031254,-6.28e-4 0.062346,0 0.09375,0 2.5374193,-4e-6 4.5937502,2.056332 4.59375,4.59375 0,2.537416 -2.0563306,4.593753 -4.59375,4.59375 -0.031404,0 -0.062496,6.28e-4 -0.09375,0 C 5.1443858,89.475105 7.7692544,92 11,92 l 0.21875,0 c -6.28e-4,-0.03125 0,-0.06235 0,-0.09375 0,-2.53742 2.05633,-4.593748 4.59375,-4.59375 2.53742,0 4.59375,2.056327 4.59375,4.59375 0,0.0314 6.28e-4,0.0625 0,0.09375 l 7.15625,0 c -6.28e-4,-0.03125 0,-0.06235 0,-0.09375 0,-2.53742 2.056329,-4.593748 4.59375,-4.59375 2.53742,0 4.593752,2.056327 4.59375,4.59375 0,0.0314 6.28e-4,0.0625 0,0.09375 l 7.15625,0 c -6.28e-4,-0.03125 0,-0.06235 0,-0.09375 0,-2.53742 2.056329,-4.593748 4.59375,-4.59375 2.53742,0 4.593748,2.056327 4.59375,4.59375 0,0.0314 6.28e-4,0.0625 0,0.09375 L 60.25,92 c -6.28e-4,-0.03125 0,-0.06235 0,-0.09375 0,-2.53742 2.056333,-4.593748 4.59375,-4.59375 2.53742,0 4.593749,2.056327 4.59375,4.59375 0,0.0314 6.28e-4,0.0625 0,0.09375 l 7.15625,0 c -6.28e-4,-0.03125 0,-0.06235 0,-0.09375 -5e-6,-2.53742 2.056334,-4.593748 4.59375,-4.59375 2.537416,0 4.593749,2.056327 4.59375,4.59375 0,0.01047 7e-5,0.0208 0,0.03125 2.865173,-0.366463 5.086108,-2.72217 5.21875,-5.65625 -0.03125,6.28e-4 -0.06235,0 -0.09375,0 -2.53742,-3e-6 -4.593748,-2.05633 -4.59375,-4.59375 0,-2.537423 2.056327,-4.593752 4.59375,-4.59375 0.0314,0 0.0625,-6.28e-4 0.09375,0 l 0,-7.15625 c -0.03125,6.28e-4 -0.06235,0 -0.09375,0 -2.53742,10e-7 -4.593748,-2.056331 -4.59375,-4.59375 0,-2.537419 2.056327,-4.593749 4.59375,-4.59375 0.0314,0 0.0625,-6.28e-4 0.09375,0 l 0,-7.15625 c -0.03125,6.28e-4 -0.06235,0 -0.09375,0 -2.53742,10e-7 -4.593748,-2.056331 -4.59375,-4.59375 0,-2.537419 2.056327,-4.593749 4.59375,-4.59375 0.0314,0 0.0625,-6.28e-4 0.09375,0 L 91,37.25 c -0.03125,6.28e-4 -0.06235,0 -0.09375,0 -2.53742,10e-7 -4.593748,-2.056331 -4.59375,-4.59375 0,-2.537419 2.056327,-4.593749 4.59375,-4.59375 0.0314,0 0.0625,-6.28e-4 0.09375,0 l 0,-7.15625 c -0.03125,6.28e-4 -0.06235,0 -0.09375,0 -2.53742,1e-6 -4.593748,-2.056332 -4.59375,-4.59375 0,-2.516483 2.022694,-4.560154 4.53125,-4.59375 -0.537373,-2.4896402 -2.580279,-4.4005759 -5.15625,-4.6874999 -0.428865,2.094046 -2.279755,3.6562499 -4.5,3.6562499 -2.230714,0 -4.082641,-1.5787032 -4.5,-3.6874999 l -7.34375,0 c -0.417358,2.1087966 -2.269287,3.6874999 -4.5,3.6874999 -2.23071,0 -4.082641,-1.5787032 -4.5,-3.6874999 l -7.34375,0 C 52.582641,9.1087967 50.730709,10.6875 48.5,10.6875 c -2.23071,0 -4.082641,-1.5787032 -4.5,-3.6874999 l -7.34375,0 c -0.417359,2.1087966 -2.269291,3.6874999 -4.5,3.6874999 -2.23071,0 -4.082641,-1.5787032 -4.5,-3.6874999 l -7.34375,0 c -0.417359,2.1087966 -2.269291,3.6874999 -4.5,3.6874999 -2.23071,0 -4.082641,-1.5787032 -4.5,-3.6874999 l -0.3125,0 z"
         inkscape:connector-curvature="0"
         id="rect3745-6"
         style="opacity:0.9;fill:url(#linearGradient2875);fill-opacity:1;fill-rule:nonzero;stroke:none;display:inline;filter:url(#filter3174-2)" />
    </g>
    <path
       style="fill:#4f4f4f"
       d="m 1406.5752,191.02393 c 3.4937,-11.37841 7.5975,-31.78933 7.5975,-37.78753 0,-18.11087 -10.3241,-41.04568 -26.0387,-57.8446 -5.2986,-5.66421 -6.472,-6.42795 -10.7474,-6.9951 -13.4814,-1.78837 -28.3847,-13.23099 -35.1723,-27.00498 -12.0581,-24.46927 -41.2396,-51.67108 -71.9555,-67.07403 -18.4785,-9.26631 -38.1017,-14.49411 -48.4093,-12.89669 -18.6128,2.88451 -35.5264,20.56056 -46.6612,48.7647 -7.0699,17.90798 -16.9405,27.66073 -33.0156,32.62163 -5.3271,1.64397 -5.5591,1.86663 -7.3782,7.08197 -2.5246,7.23786 -2.6311,21.26922 -0.2227,29.34192 4.0529,13.58495 9.6827,21.53296 26.2371,37.0409 7.7707,7.27947 11.1974,11.10274 10.1347,11.30741 -2.4049,0.46314 -29.9454,-4.50544 -40.5557,-7.31664 -32.3328,-8.56663 -53.3143,-26.60133 -59.9023,-51.48896 -2.398,-9.05923 -2.1438,-25.98449 0.5433,-36.17543 2.4958,-9.46535 7.1576,-20.80446 11.5566,-28.10988 1.9811,-3.28978 3.8287,-8.19496 4.5733,-12.14118 1.8029,-9.55507 7.0004,-19.65931 13.7569,-26.74406 7.6227,-7.99309 10.9422,-9.79425 29.7957,-16.16695 21.1885,-7.16199 33.2625,-11.75466 47.3162,-17.99807 13.9937,-6.21675 15.6085,-8.21132 14.7646,-18.23719 -1.5804,-18.77541 -18.7418,-47.5883 -47.6799,-80.05156 -21.2903,-23.88384 -51.701,-49.08486 -71.1896,-58.99416 l -4.75,-2.41521 v -34.49249 -34.49249 l 49.7484,0.25934 49.7485,0.25933 5.0829,14.5 c 6.5819,18.77622 11.0547,29.40865 19.3511,46 16.6221,33.24142 31.3523,52.81944 47.5691,63.22436 18.2677,11.72086 34.6388,12.52748 53.6384,2.64281 12.4632,-6.48408 17.0783,-11.68727 25.6042,-28.86717 3.9578,-7.975 8.996,-19.16401 11.1959,-24.86447 4.8471,-12.55976 8.398,-18.27222 15.5813,-25.06588 7.6463,-7.23149 16.7393,-11.30673 26.4036,-11.83328 4.1671,-0.22704 9.4903,0.0293 11.8293,0.56973 3.4857,0.80532 5.9205,0.54554 13.5,-1.44041 27.4802,-7.20028 52.9451,-2.4667 69.3659,12.89422 15.9516,14.92188 23.9105,33.10013 29.8774,68.24009 1.4008,8.25 2.7709,16.0125 3.0445,17.25 0.9783,4.42412 -2.1146,2.16172 -11.9453,-8.73793 -5.4476,-6.03994 -12.1976,-12.55415 -15,-14.47603 -13.0925,-8.97887 -32.2454,-11.27936 -54.2765,-6.51926 -4.5679,0.98694 -5.6574,1.75 -9.2024,6.44539 -7.4207,9.82865 -15.069,14.78491 -28.4564,18.44037 -15.5629,4.2495 -38.8249,17.74633 -55.6599,32.29447 -9.2004,7.95056 -11.9961,12.17488 -11.9985,18.12991 -10e-4,2.89768 0.7082,4.5367 2.9215,6.75 3.5832,3.58319 4.921,3.61354 20.4513,0.46399 25.465,-5.16432 48.9983,-12.31512 67.8381,-20.61312 16.761,-7.3824 19.6756,-8.23045 28.2876,-8.23045 8.9823,0 16.6041,2.24925 24.3484,7.18534 3.8255,2.43836 6.161,3.08925 13.1516,3.66529 33.8698,2.79094 57.8593,19.30949 66.7351,45.95203 2.4445,7.33763 2.669,9.36614 2.7125,24.5 0.042,14.79053 -0.2338,17.58784 -2.6658,27 -3.738,14.46657 -9.0768,30.17257 -10.2818,30.2479 -0.55,0.0344 -3.3916,-4.39483 -6.3146,-9.84269 -8.6453,-16.11308 -13.1061,-22.36865 -23.1626,-32.48138 -7.7211,-7.76431 -11.1057,-10.36587 -17.8886,-13.75 -10.8514,-5.41393 -13.8865,-5.4421 -19.8596,-0.18434 -14.5402,12.79879 -34.5635,14.02704 -51.7746,3.17593 -6.7104,-4.23069 -21.4669,-10.758 -31.7412,-14.0402 -13.3704,-4.2713 -24.9664,-6.12522 -38.3121,-6.12522 -11.2278,0 -11.3155,0.0185 -15.6076,3.29217 -6.4394,4.91146 -8.8391,9.02732 -8.8391,15.15993 0,6.29468 3.2099,11.86173 10.7411,18.62835 3.982,3.57776 6.8015,5.08616 12.8798,6.8906 12.3402,3.66341 27.8395,5.96326 40.419,5.99752 19.0909,0.052 30.3561,4.35498 40.8944,15.62039 5.4309,5.80562 10.0657,14.5189 10.0657,18.92317 0,0.79041 3.4058,5.16103 7.5686,9.71249 14.1029,15.41986 23.5627,32.0822 27.0322,47.61399 2.5802,11.55062 1.609,28.17754 -2.3005,39.3837 -6.4686,18.54136 -17.7969,33.84794 -39.6154,53.52769 -13.2186,11.92273 -16.3878,14.10023 -15.2824,10.5 z m 32.0278,-56.13535 c 9.3251,-15.35073 11.421,-33.12626 5.8215,-49.37152 -3.5807,-10.38853 -9.8719,-20.75318 -19.0177,-31.33173 -9.4845,-10.97028 -14.2246,-14.4114 -19.8517,-14.4114 -2.4542,0 -6.1548,0.86353 -8.2236,1.91896 -7.5639,3.85881 -16.1588,14.93779 -16.1588,20.82888 0,1.43135 2.8861,4.56504 8.9163,9.68119 18.3972,15.60848 33.8091,39.34115 39.1045,60.21679 2.7796,10.9574 2.7133,10.8197 4.495,9.34105 0.8207,-0.68111 3.0322,-3.77361 4.9145,-6.87222 z m -316.9497,-18.86465 c -4.9806,-11.88591 -5.91,-16.78328 -5.9302,-31.25 -0.019,-13.34009 0.2037,-15.13995 2.7805,-22.5 1.5405,-4.4 4.7963,-11.21121 7.235,-15.13602 2.4387,-3.92481 4.4341,-7.65966 4.4341,-8.29966 0,-5.10269 -8.9185,-12.47968 -16.4536,-13.60962 -8.3861,-1.25758 -13.7428,3.08549 -19.5196,15.82584 -11.7508,25.91591 -9.7218,48.77044 5.6773,63.94922 8.5459,8.4236 23.9563,16.22221 21.7765,11.02024 z M 1523.5154,-38.6814 c 0.035,-26.20357 -13.0146,-42.75349 -39.1992,-49.71229 -10.7299,-2.85154 -30.4557,-3.13846 -34.3444,-0.49955 -5.8297,3.95603 -8.5713,15.49195 -5.454,22.94929 2.2707,5.4323 3.8569,6.12213 13.4854,5.86468 19.874,-0.53138 36.6274,7.38448 54.6024,25.7993 10.6074,10.86699 10.8893,10.75325 10.9098,-4.40143 z m -126.9307,-145.57746 c 13.0257,-5.90614 23.5171,-8.14166 40.588,-8.64852 14.0001,-0.41569 16.4044,-0.22786 24.8464,1.94107 7.2987,1.87521 9.4546,2.11923 9.8404,1.1138 0.9369,-2.44128 -6.6585,-16.22899 -12.2926,-22.31439 -6.5682,-7.09447 -13.6409,-11.39363 -22.4775,-13.66307 -12.0269,-3.08879 -35.4254,-0.20625 -47.9167,5.90303 -8.1142,3.96848 -11.2121,15.03276 -7.5843,27.08703 1.391,4.62211 5.9043,11.61384 7.4968,11.61384 0.446,0 3.8207,-1.36475 7.4995,-3.03279 z"
       id="path823"
       inkscape:connector-curvature="0" />
    <path
       style="opacity:1;fill:#808080;fill-opacity:1;stroke:none;stroke-width:0.35695893;stroke-linecap:round;stroke-linejoin:round;stroke-miterlimit:4;stroke-dasharray:none;stroke-opacity:1;paint-order:stroke fill markers"
       d="m 23.898438,0.467823 c -0.935544,0 -1.871029,0.32694756 -2.587891,0.9804688 L 3.5253906,17.661182 v 7.59375 L 21.310547,41.467823 c 1.433723,1.307042 3.742058,1.307042 5.175781,0 L 45,24.590869 V 18.325244 L 26.486328,1.4482918 C 25.769466,0.79477056 24.833981,0.467823 23.898438,0.467823 Z"
       id="rect843"
       inkscape:connector-curvature="0" />
    <rect
       ry="3.0300622"
       rx="3.0300622"
       y="6.283597"
       x="7.0847158"
       height="39.012642"
       width="34.355961"
       id="rect859"
       style="opacity:0.9;fill:#ffffff;fill-opacity:1;stroke:#000000;stroke-width:0.29569098;stroke-linecap:round;stroke-linejoin:round;stroke-miterlimit:4;stroke-dasharray:none;stroke-opacity:1;paint-order:stroke fill markers" />
    <path
       inkscape:connector-curvature="0"
       style="fill:#999999;fill-opacity:1;stroke-width:1.22714341"
       d="m 3.5253906,17.947266 v 26.003906 c 0,2.026476 1.6317272,3.658203 3.6582032,3.658203 H 41.341797 c 1.296892,0 2.426948,-0.671308 3.076172,-1.683594 z"
       id="path829" />
    <path
       inkscape:connector-curvature="0"
       style="fill:#cccccc;stroke-width:1.24278879;fill-opacity:1"
       d="M 45,18.214844 4.2363281,46.105469 c 0.6642598,0.908883 1.7303476,1.503906 2.9472657,1.503906 H 41.341797 C 43.368273,47.609375 45,45.977648 45,43.951172 Z"
       id="path836" />
    <path
       inkscape:connector-curvature="0"
       id="path901"
       d="m 29.24002,27.622811 c 0.147479,-0.480316 0.32071,-1.341919 0.32071,-1.595121 0,-0.764512 -0.435808,-1.732656 -1.099164,-2.441786 -0.22367,-0.239103 -0.273203,-0.271343 -0.453679,-0.295284 -0.569088,-0.0755 -1.198202,-0.558519 -1.484727,-1.139958 -0.509008,-1.032918 -1.740843,-2.181185 -3.037449,-2.831388 -0.780029,-0.391157 -1.608381,-0.611838 -2.043496,-0.544407 -0.7857,0.121764 -1.499669,0.867921 -1.969701,2.058499 -0.298443,0.755948 -0.715108,1.167639 -1.393687,1.377053 -0.224871,0.0694 -0.234663,0.0788 -0.311454,0.29895 -0.106571,0.305531 -0.111067,0.897835 -0.0094,1.238607 0.171085,0.57346 0.408736,0.908968 1.107545,1.563603 0.328023,0.307287 0.472676,0.468679 0.427816,0.477319 -0.101519,0.01955 -1.264084,-0.190188 -1.711973,-0.308857 -1.36486,-0.361622 -2.250552,-1.122919 -2.528648,-2.173497 -0.101228,-0.382416 -0.0905,-1.09688 0.02293,-1.527069 0.105354,-0.39956 0.302141,-0.878217 0.487839,-1.1866 0.08362,-0.13887 0.16162,-0.345932 0.193051,-0.512513 0.07611,-0.403348 0.295509,-0.829877 0.580718,-1.128945 0.321775,-0.33741 0.461903,-0.413442 1.257761,-0.682453 0.894428,-0.302328 1.404106,-0.496198 1.997356,-0.75975 0.590715,-0.262427 0.658879,-0.346623 0.623255,-0.769844 -0.06672,-0.792565 -0.791146,-2.00884 -2.012707,-3.379207 C 17.304191,12.351957 16.02047,11.28815 15.197797,10.86985 l -0.20051,-0.101953 V 9.3118699 7.8558429 l 2.100027,0.01095 2.100026,0.01095 0.214564,0.612086 c 0.27784,0.792598 0.466651,1.241424 0.816865,1.9417931 0.701667,1.403215 1.323472,2.22966 2.008027,2.668881 0.771134,0.494772 1.462206,0.528821 2.264232,0.111561 0.526109,-0.273712 0.720925,-0.493354 1.08083,-1.218567 0.16707,-0.336647 0.379745,-0.808968 0.47261,-1.0496 0.204609,-0.530183 0.354505,-0.771323 0.657732,-1.0581021 0.32277,-0.305263 0.706615,-0.47729 1.114571,-0.499517 0.175905,-0.0096 0.400612,0.0012 0.499347,0.02405 0.147143,0.03399 0.249921,0.02303 0.569874,-0.0608 1.160021,-0.303945 2.234966,-0.104127 2.928138,0.544302 0.673361,0.6298951 1.009329,1.3972511 1.261208,2.8806101 0.05913,0.348255 0.116969,0.675933 0.12852,0.728172 0.0413,0.186755 -0.08926,0.09125 -0.504247,-0.368854 -0.229961,-0.254963 -0.514898,-0.529946 -0.633194,-0.611074 -0.552671,-0.379024 -1.361169,-0.476135 -2.291168,-0.275198 -0.192824,0.04166 -0.238813,0.07387 -0.38846,0.272079 -0.31325,0.414896 -0.636105,0.624114 -1.201225,0.778422 -0.656957,0.179383 -1.638911,0.749123 -2.349566,1.363242 -0.388375,0.335616 -0.506388,0.513937 -0.50649,0.765316 -4.2e-5,0.122319 0.02989,0.191507 0.123326,0.284936 0.151256,0.151258 0.207731,0.152538 0.863308,0.01959 1.074948,-0.218001 2.06836,-0.519857 2.86364,-0.870139 0.707529,-0.311633 0.830566,-0.347431 1.1941,-0.347431 0.37917,0 0.70091,0.09495 1.027816,0.303314 0.161488,0.10293 0.260076,0.130406 0.555167,0.154722 1.429743,0.117814 2.44241,0.81511 2.817082,1.939767 0.103189,0.309743 0.112669,0.395372 0.114501,1.034216 0.0018,0.624351 -0.0099,0.742434 -0.112529,1.139748 -0.157793,0.610675 -0.383158,1.273671 -0.434026,1.276851 -0.02322,0.0015 -0.143167,-0.185518 -0.266555,-0.415488 -0.364943,-0.68018 -0.553249,-0.944245 -0.97776,-1.371133 -0.325929,-0.327754 -0.468804,-0.437573 -0.755132,-0.580427 -0.458068,-0.228538 -0.586188,-0.229727 -0.838331,-0.0078 -0.613784,0.540274 -1.459022,0.592121 -2.185555,0.134066 -0.283264,-0.178591 -0.90618,-0.454126 -1.339887,-0.592678 -0.564404,-0.180304 -1.053901,-0.258563 -1.617262,-0.258563 -0.473959,0 -0.477662,8.02e-4 -0.658842,0.138972 -0.271824,0.207327 -0.373126,0.381069 -0.373126,0.639944 0,0.265717 0.135502,0.500718 0.453415,0.786357 0.168092,0.151027 0.28711,0.214701 0.543692,0.290871 0.520916,0.154644 1.175187,0.251727 1.706202,0.253173 0.805883,0.0022 1.281422,0.183837 1.726271,0.659381 0.229253,0.245073 0.424901,0.612885 0.424901,0.798802 0,0.03337 0.143772,0.217862 0.319493,0.409993 0.595324,0.650916 0.994651,1.354282 1.14111,2.009923 0.108918,0.487585 0.06792,1.189455 -0.09711,1.6625 -0.273057,0.782684 -0.751256,1.428818 -1.672282,2.259557 -0.557991,0.503293 -0.691775,0.595211 -0.645111,0.443236 z m 1.351986,-2.369635 c 0.393639,-0.647999 0.482115,-1.398355 0.245744,-2.084114 -0.151155,-0.43853 -0.416722,-0.876052 -0.802793,-1.322603 -0.400369,-0.463087 -0.600464,-0.608347 -0.838,-0.608347 -0.103596,0 -0.25981,0.03645 -0.34714,0.08101 -0.319293,0.162892 -0.682111,0.630567 -0.682111,0.879247 0,0.06042 0.121831,0.192703 0.376384,0.408671 0.776598,0.658878 1.427178,1.660703 1.650715,2.541924 0.117333,0.462544 0.114536,0.45673 0.189745,0.394312 0.03465,-0.02876 0.127999,-0.159295 0.207456,-0.290095 z M 17.212647,24.456845 c -0.210246,-0.501739 -0.249477,-0.708471 -0.250334,-1.319153 -8.02e-4,-0.563124 0.0086,-0.639101 0.117376,-0.949789 0.06503,-0.185737 0.202463,-0.473259 0.305409,-0.638935 0.102946,-0.165678 0.187175,-0.323337 0.187175,-0.350353 0,-0.215399 -0.376476,-0.526803 -0.694551,-0.574502 -0.354002,-0.05309 -0.580126,0.130248 -0.82398,0.668055 -0.496037,1.093985 -0.410387,2.05874 0.239655,2.699481 0.360747,0.355584 1.011266,0.684786 0.91925,0.465196 z m 16.963757,-6.530557 c 0.0015,-1.106129 -0.549383,-1.804748 -1.654713,-2.0985 -0.452938,-0.120371 -1.285622,-0.132483 -1.449777,-0.02109 -0.246086,0.166995 -0.361816,0.65396 -0.23023,0.968755 0.09585,0.229314 0.162813,0.258433 0.56926,0.247566 0.83894,-0.02243 1.546148,0.311719 2.304925,1.089062 0.44777,0.458727 0.45967,0.453926 0.460535,-0.185797 z m -5.358112,-6.145245 c 0.549853,-0.249315 0.992724,-0.343682 1.713335,-0.365078 0.590986,-0.01755 0.692477,-0.0096 1.048838,0.08194 0.308103,0.07915 0.399109,0.08946 0.415395,0.04702 0.03955,-0.103054 -0.281078,-0.685073 -0.518906,-0.941954 -0.277264,-0.299479 -0.575821,-0.480958 -0.94884,-0.576757 -0.507692,-0.1303871 -1.495411,-0.0087 -2.022706,0.249183 -0.342521,0.167521 -0.473295,0.634576 -0.320155,1.143421 0.05872,0.195112 0.249237,0.490254 0.316465,0.490254 0.01882,0 0.161282,-0.05761 0.316574,-0.128023 z"
       style="fill:#808080;fill-opacity:1;stroke-width:0.04221288" />
  </g>
</svg>
