<?xml version="1.0" encoding="UTF-8" standalone="no"?>
<svg
   xmlns:dc="http://purl.org/dc/elements/1.1/"
   xmlns:cc="http://creativecommons.org/ns#"
   xmlns:rdf="http://www.w3.org/1999/02/22-rdf-syntax-ns#"
   xmlns:svg="http://www.w3.org/2000/svg"
   xmlns="http://www.w3.org/2000/svg"
   xmlns:sodipodi="http://sodipodi.sourceforge.net/DTD/sodipodi-0.dtd"
   xmlns:inkscape="http://www.inkscape.org/namespaces/inkscape"
   height="48"
   width="48"
   version="1"
   id="svg18"
   sodipodi:docname="gnome-tweak-tool.svg"
   inkscape:version="0.92.2 2405546, 2018-03-11">
  <metadata
     id="metadata24">
    <rdf:RDF>
      <cc:Work
         rdf:about="">
        <dc:format>image/svg+xml</dc:format>
        <dc:type
           rdf:resource="http://purl.org/dc/dcmitype/StillImage" />
      </cc:Work>
    </rdf:RDF>
  </metadata>
  <defs
     id="defs22" />
  <sodipodi:namedview
     pagecolor="#ffffff"
     bordercolor="#666666"
     borderopacity="1"
     objecttolerance="10"
     gridtolerance="10"
     guidetolerance="10"
     inkscape:pageopacity="0"
     inkscape:pageshadow="2"
     inkscape:window-width="1920"
     inkscape:window-height="1013"
     id="namedview20"
     showgrid="false"
     inkscape:snap-global="true"
     inkscape:zoom="8.0000004"
     inkscape:cx="32.952262"
     inkscape:cy="22.576063"
     inkscape:window-x="0"
     inkscape:window-y="0"
     inkscape:window-maximized="1"
     inkscape:current-layer="svg18" />
  <rect
     ry="3.6578989"
     rx="3.6578989"
     y="0.51302302"
     x="3.5253937"
     height="47.096165"
     width="41.474606"
     id="rect859"
     style="opacity:1;fill:#6f8a91;fill-opacity:1;stroke:none;stroke-width:0.35695893;stroke-linecap:round;stroke-linejoin:round;stroke-miterlimit:4;stroke-dasharray:none;stroke-opacity:1;paint-order:stroke fill markers" />
  <rect
     style="opacity:1;fill:#414141;fill-opacity:1;stroke:none;stroke-width:0.22785863;stroke-linecap:round;stroke-linejoin:round;stroke-miterlimit:4;stroke-dasharray:none;stroke-opacity:1;paint-order:stroke fill markers"
     id="rect837"
     width="26.474606"
     height="30.063032"
     x="11.025393"
     y="9.0295887"
     rx="2.3349574"
     ry="2.3349574" />
  <circle
     r="3.2967112"
     cy="34.038567"
     cx="33.897701"
     id="circle839"
     style="opacity:1;fill:#333333;fill-opacity:1;stroke:none;stroke-width:0.34530437;stroke-linejoin:round;stroke-miterlimit:4;stroke-dasharray:none;stroke-opacity:1;paint-order:stroke fill markers" />
  <path
     style="opacity:1;fill:#e6e6e6;fill-opacity:1;stroke:none;stroke-width:0.33260083;stroke-linejoin:round;stroke-miterlimit:4;stroke-dasharray:none;stroke-opacity:1;paint-order:stroke fill markers"
     d="M 13.136719 9.8339844 C 12.270598 9.8339844 11.514405 10.26478 11.070312 10.917969 C 11.042471 11.062632 11.025391 11.212206 11.025391 11.365234 L 11.025391 15.361328 C 11.739367 15.023966 12.532482 14.824219 13.378906 14.824219 C 16.388359 14.824219 18.828125 17.208779 18.828125 20.150391 C 18.828125 23.092 16.388359 25.476563 13.378906 25.476562 C 12.532482 25.476562 11.739367 25.275144 11.025391 24.9375 L 11.025391 31.488281 L 11.744141 33.464844 L 15.013672 33.464844 L 16.103516 30.466797 C 17.101795 30.214517 18.043605 29.823404 18.910156 29.322266 L 18.914062 29.328125 L 21.855469 30.695312 L 24.167969 28.435547 L 22.767578 25.5625 L 22.763672 25.556641 C 23.276365 24.709629 23.673476 23.790183 23.931641 22.814453 L 27.001953 21.748047 L 27.001953 18.552734 L 23.931641 17.488281 C 23.673539 16.512375 23.276371 15.591154 22.763672 14.744141 L 22.767578 14.738281 L 24.167969 11.863281 L 22.089844 9.8339844 L 21.361328 9.8339844 L 18.914062 10.972656 L 18.910156 10.978516 C 18.043644 10.47738 17.10173 10.08614 16.103516 9.8339844 L 13.136719 9.8339844 z "
     id="path843" />
  <path
     style="opacity:1;fill:#b3b3b3;fill-opacity:1;stroke:none;stroke-width:0.32856601;stroke-linejoin:round;stroke-miterlimit:4;stroke-dasharray:none;stroke-opacity:1;paint-order:stroke fill markers"
     d="M 31.992188 20.369141 L 30.927734 23.365234 C 29.952746 23.617112 29.031879 24.006875 28.185547 24.507812 L 28.181641 24.501953 L 25.310547 23.136719 L 23.050781 25.392578 L 24.417969 28.265625 L 24.423828 28.271484 C 23.922969 29.117816 23.533198 30.0368 23.28125 31.011719 L 20.285156 32.076172 L 20.285156 35.269531 L 23.28125 36.333984 C 23.533139 37.308955 23.923034 38.229837 24.423828 39.076172 L 24.417969 39.080078 L 24.412109 39.091797 L 35.166016 39.091797 C 36.24688 39.091797 37.141826 38.360928 37.410156 37.367188 C 36.442582 38.36744 35.091449 38.994141 33.589844 38.994141 C 30.650605 38.994141 28.267578 36.611048 28.267578 33.671875 C 28.267578 30.732627 30.650605 28.351562 33.589844 28.351562 C 35.142443 28.351562 36.527158 29.027388 37.5 30.087891 L 37.5 23.779297 C 37.094109 23.617547 36.678639 23.47601 36.25 23.365234 L 35.185547 20.369141 L 31.992188 20.369141 z "
     id="path848" />
  <circle
     r="3.2967112"
     cy="33.582645"
     cx="33.546989"
     id="circle850"
     style="opacity:1;fill:#e6e6e6;fill-opacity:1;stroke:none;stroke-width:0.34530437;stroke-linejoin:round;stroke-miterlimit:4;stroke-dasharray:none;stroke-opacity:1;paint-order:stroke fill markers" />
  <path
     style="opacity:1;fill:#e6e6e6;fill-opacity:1;stroke:none;stroke-width:0.22785863;stroke-linecap:round;stroke-linejoin:round;stroke-miterlimit:4;stroke-dasharray:none;stroke-opacity:1;paint-order:stroke fill markers"
     d="m 13.113281,16.742188 a 3.3095065,3.3095065 0 0 0 -2.08789,0.746093 v 5.123047 a 3.3095065,3.3095065 0 0 0 2.08789,0.748047 3.3095065,3.3095065 0 0 0 3.308594,-3.308594 3.3095065,3.3095065 0 0 0 -3.308594,-3.308593 z"
     id="rect858"
     inkscape:connector-curvature="0" />
  <path
     style="opacity:0.287;fill:#000000;fill-opacity:1;stroke:none;stroke-width:0.22785863;stroke-linecap:round;stroke-linejoin:round;stroke-miterlimit:4;stroke-dasharray:none;stroke-opacity:1;paint-order:stroke fill markers"
     d="M 11.025391 34.757812 L 11.025391 36.757812 C 11.025391 38.051379 12.065809 39.091797 13.359375 39.091797 L 35.166016 39.091797 C 36.459582 39.091797 37.5 38.051379 37.5 36.757812 L 37.5 34.757812 C 37.5 36.051379 36.459582 37.091797 35.166016 37.091797 L 13.359375 37.091797 C 12.065809 37.091797 11.025391 36.051379 11.025391 34.757812 z "
     id="rect870" />
  <path
     id="path875"
     d="m 11.025391,13.341797 v -2 c 0,-1.293567 1.040418,-2.333985 2.333984,-2.333985 h 21.806641 c 1.293566,0 2.333984,1.040418 2.333984,2.333985 v 2 c 0,-1.293567 -1.040418,-2.333985 -2.333984,-2.333985 H 13.359375 c -1.293566,0 -2.333984,1.040418 -2.333984,2.333985 z"
     style="opacity:0.28699999;fill:#000000;fill-opacity:1;stroke:none;stroke-width:0.22785863;stroke-linecap:round;stroke-linejoin:round;stroke-miterlimit:4;stroke-dasharray:none;stroke-opacity:1;paint-order:stroke fill markers"
     inkscape:connector-curvature="0" />
</svg>
