<?xml version="1.0" encoding="UTF-8" standalone="no"?>
<svg
   xmlns:dc="http://purl.org/dc/elements/1.1/"
   xmlns:cc="http://creativecommons.org/ns#"
   xmlns:rdf="http://www.w3.org/1999/02/22-rdf-syntax-ns#"
   xmlns:svg="http://www.w3.org/2000/svg"
   xmlns="http://www.w3.org/2000/svg"
   xmlns:sodipodi="http://sodipodi.sourceforge.net/DTD/sodipodi-0.dtd"
   xmlns:inkscape="http://www.inkscape.org/namespaces/inkscape"
   height="48"
   width="48"
   version="1"
   id="svg19"
   sodipodi:docname="inkscape.svg"
   inkscape:version="0.92.2 2405546, 2018-03-11">
  <metadata
     id="metadata23">
    <rdf:RDF>
      <cc:Work
         rdf:about="">
        <dc:format>image/svg+xml</dc:format>
        <dc:type
           rdf:resource="http://purl.org/dc/dcmitype/StillImage" />
      </cc:Work>
    </rdf:RDF>
  </metadata>
  <sodipodi:namedview
     pagecolor="#ffffff"
     bordercolor="#666666"
     borderopacity="1"
     objecttolerance="10"
     gridtolerance="10"
     guidetolerance="10"
     inkscape:pageopacity="0"
     inkscape:pageshadow="2"
     inkscape:window-width="1920"
     inkscape:window-height="1013"
     id="namedview21"
     showgrid="false"
     inkscape:zoom="14.505042"
     inkscape:cx="2.4387153"
     inkscape:cy="19.987822"
     inkscape:window-x="0"
     inkscape:window-y="0"
     inkscape:window-maximized="1"
     inkscape:current-layer="svg19" />
  <defs
     id="defs5">
    <filter
       id="filter4423"
       y="-.15"
       x="-.1"
       height="1.3"
       width="1.2">
      <feGaussianBlur
         stdDeviation=".715"
         id="feGaussianBlur2" />
    </filter>
  </defs>
  <rect
     ry="3.6578989"
     rx="3.6578989"
     y="0.51302302"
     x="3.5253937"
     height="47.096165"
     width="41.474606"
     id="rect859"
     style="opacity:1;fill:#cccccc;fill-opacity:1;stroke:#000000;stroke-width:0.257;stroke-linecap:round;stroke-linejoin:round;stroke-miterlimit:4;stroke-dasharray:none;stroke-opacity:1;paint-order:stroke fill markers" />
  <path
     style="opacity:0.2;fill-rule:evenodd;filter:url(#filter4423);enable-background:new"
     d="m 24.312,6.3948 c 1.1747,0.01 4.3936,3.9825 7.2655,6.9575 0.80782,1.081 -0.31247,2.1889 -0.31247,2.1889 l -6.0156,-3.2833 -2.6562,3.596 -2.3436,-3.5179 -1.4063,5.4722 -4.1406,-2.5016 1.0937,-1.4071 6.4842,-6.6448 c 0.497,-0.5054 0.878,-0.8687 2.031,-0.8597 z"
     id="path7"
     inkscape:connector-curvature="0"
     transform="matrix(0.85018957,0,0,0.85018957,3.5954512,4.2363321)" />
  <path
     d="m 24.000001,5.9370513 c -1.018187,0 -2.009338,0.3819901 -2.789643,1.1902653 L 7.3318643,21.481067 c -0.7647455,0.792233 -1.170371,1.836835 -1.1855894,2.870751 -2.287e-4,0.01573 0,0.05271 0,0.06988 -1.44e-4,3.076071 8.1870711,0.09002 8.9269901,3.850934 0.400372,2.035439 -4.46341,1.102865 -4.46341,3.150802 0,2.402296 6.884495,0.750284 8.857275,2.730639 0.810315,1.980347 -2.635588,1.66076 -2.022431,3.500825 1.155493,1.197068 3.754862,0.518259 4.254178,2.450587 0.570334,2.207262 4.305956,1.826462 6.485927,0.209622 1.155492,-1.197066 -1.783188,-1.743653 -0.627619,-2.940635 1.155493,-1.197067 6.86307,-0.954933 6.904305,-3.570881 -0.545431,-1.643332 -2.687025,-1.908676 -2.719927,-3.850934 -0.114894,-1.644861 1.753771,-1.16374 7.671516,-2.800694 2.366248,-1.113238 2.449991,-1.705396 2.440979,-2.730639 -1.87e-4,-0.02032 0,-0.04812 0,-0.0698 -0.01348,-1.033831 -0.490636,-2.078458 -1.255305,-2.870665 L 26.788274,7.1271126 C 26.0078,6.3187523 25.016479,5.9368473 23.998802,5.9368473 Z M 40.179958,30.512631 c -0.282025,-0.0089 -0.566481,0.01352 -0.767151,0.0698 -0.37825,0.109393 -2.170109,0.173379 -2.022431,1.540373 1.623437,0.683178 4.098679,1.226993 4.393694,-0.139839 0.221492,-1.024989 -0.75785,-1.438946 -1.604053,-1.470319 z m -27.687273,4.551065 c -0.157532,0.01802 -0.264469,0.08102 -0.418429,0.139831 -1.23116,0.469984 -2.056864,1.4585 -0.906642,1.890481 1.150391,0.431879 1.920663,-0.02457 2.929073,-0.560147 1.008579,-0.535832 0.979588,-0.633476 0.906642,-0.840175 -0.139806,0.02806 -1.056871,-0.544996 -2.022431,-0.630194 -0.160899,-0.01351 -0.330724,-0.01802 -0.488213,0 z"
     style="fill:#5d5d5d;fill-rule:evenodd;stroke-width:0.85018957;enable-background:new;fill-opacity:1"
     id="path9"
     inkscape:connector-curvature="0" />
  <path
     d="m 24.063765,10.187829 c 1.047178,0.0089 3.916568,3.559829 6.476659,6.219137 0.72011,0.966241 -0.278539,1.956542 -0.278539,1.956542 l -5.362146,-2.934855 -2.367777,3.214567 -2.088916,-3.144001 -1.25403,4.891141 -3.690673,-2.235999 0.975168,-1.258281 5.779588,-5.93917 c 0.443332,-0.451926 0.782821,-0.776656 1.810649,-0.768656 z"
     style="fill:#f2f2f2;fill-rule:evenodd;stroke-width:0.85018957;enable-background:new;fill-opacity:1"
     id="path13"
     inkscape:connector-curvature="0" />
  <path
     d="m 6.1925253,24.003884 c -0.017003,0.142832 -0.04438,0.285663 -0.046505,0.428495 -2.55e-4,0.01615 0,0.05272 0,0.06972 -1.7e-4,3.00627 7.8132417,0.22615 8.8606757,3.606504 0.08332,-0.167487 0.113925,-0.364731 0.06631,-0.606186 -0.709054,-3.603107 -8.24913,-1.01683 -8.8802257,-3.498533 z M 41.82567,24.207078 c -0.08927,0.717561 -0.508413,1.278686 -2.412837,2.174786 -5.91817,1.637465 -7.786887,1.156258 -7.672112,2.801374 0.0026,0.137731 0.01785,0.265259 0.03996,0.386837 0.303519,-1.099295 2.357577,-0.879096 7.632153,-2.338022 2.366077,-1.112898 2.450246,-1.70463 2.440894,-2.729958 v -0.07141 c -8.77e-4,-0.07482 -0.0221,-0.148783 -0.02806,-0.2236 z m -31.123739,6.872933 c -0.05475,0.125828 -0.09301,0.262709 -0.09301,0.423395 0,2.401785 6.884835,0.750717 8.857275,2.730809 0.0153,0.03826 0.01955,0.06886 0.03146,0.104573 0.116476,-0.249106 0.132629,-0.552623 -0.03146,-0.954763 -1.84066,-1.847462 -7.955989,-0.53562 -8.764604,-2.304014 z m 31.025967,0.296716 c -0.440398,1.107797 -2.601579,0.666549 -4.148074,0.05016 -0.142832,0.196394 -0.225301,0.4472 -0.189593,0.777073 1.623863,0.682702 4.098764,1.226824 4.39378,-0.139431 0.05866,-0.272061 0.02891,-0.497361 -0.05611,-0.687803 z m -7.386446,2.217295 c -0.799179,2.021751 -5.720076,1.906975 -6.784513,3.010521 -0.368133,0.380885 -0.304368,0.692905 -0.106274,0.98452 0.03231,-0.04506 0.06122,-0.08842 0.106274,-0.134331 1.155407,-1.197066 6.86273,-0.954763 6.90439,-3.570796 -0.03401,-0.101172 -0.07482,-0.198944 -0.119877,-0.289914 z m -19.892736,1.970739 c -0.109675,0.06291 -0.198945,0.117326 -0.351978,0.198944 -1.009175,0.53562 -1.779447,0.993022 -2.929584,0.561126 -0.149123,-0.05526 -0.262538,-0.121577 -0.348662,-0.193844 -0.306239,0.397039 -0.286939,0.80598 0.348662,1.044033 1.150137,0.431897 1.920409,-0.02551 2.929584,-0.561125 1.008324,-0.53562 0.979418,-0.633391 0.906302,-0.839987 -0.05866,0.0119 -0.275462,-0.08927 -0.554324,-0.209147 z m 3.019873,1.3416 c -0.112225,0.221049 -0.13858,0.488008 -0.02466,0.828934 1.155408,1.197067 3.755287,0.518616 4.254349,2.450246 0.570476,2.207943 4.306209,1.826207 6.486096,0.209998 0.368132,-0.381736 0.302667,-0.693756 0.104573,-0.98537 -0.03315,0.04421 -0.06036,0.08842 -0.104573,0.13518 -2.179887,1.61621 -5.91562,1.997945 -6.486096,-0.209997 -0.495661,-1.918878 -3.062384,-1.264232 -4.229694,-2.428991 z"
     style="opacity:0.2;fill-rule:evenodd;stroke-width:0.85018957;enable-background:new"
     id="path17"
     inkscape:connector-curvature="0" />
</svg>
