<?xml version="1.0" encoding="UTF-8" standalone="no"?>
<svg
   xmlns:dc="http://purl.org/dc/elements/1.1/"
   xmlns:cc="http://creativecommons.org/ns#"
   xmlns:rdf="http://www.w3.org/1999/02/22-rdf-syntax-ns#"
   xmlns:svg="http://www.w3.org/2000/svg"
   xmlns="http://www.w3.org/2000/svg"
   xmlns:sodipodi="http://sodipodi.sourceforge.net/DTD/sodipodi-0.dtd"
   xmlns:inkscape="http://www.inkscape.org/namespaces/inkscape"
   height="48"
   width="48"
   version="1"
   id="svg14"
   sodipodi:docname="libreoffice-impress.svg"
   inkscape:version="0.92.2 2405546, 2018-03-11">
  <metadata
     id="metadata20">
    <rdf:RDF>
      <cc:Work
         rdf:about="">
        <dc:format>image/svg+xml</dc:format>
        <dc:type
           rdf:resource="http://purl.org/dc/dcmitype/StillImage" />
      </cc:Work>
    </rdf:RDF>
  </metadata>
  <defs
     id="defs18" />
  <sodipodi:namedview
     pagecolor="#ffffff"
     bordercolor="#666666"
     borderopacity="1"
     objecttolerance="10"
     gridtolerance="10"
     guidetolerance="10"
     inkscape:pageopacity="0"
     inkscape:pageshadow="2"
     inkscape:window-width="1920"
     inkscape:window-height="1013"
     id="namedview16"
     showgrid="false"
     inkscape:zoom="6.8849945"
     inkscape:cx="-5.67761"
     inkscape:cy="22.797214"
     inkscape:window-x="0"
     inkscape:window-y="0"
     inkscape:window-maximized="1"
     inkscape:current-layer="svg14" />
  <rect
     ry="3.6578989"
     rx="3.6578989"
     y="0.51302302"
     x="3.5253937"
     height="47.096165"
     width="41.474606"
     id="rect859"
     style="opacity:1;fill:#d46060;fill-opacity:1;stroke:none;stroke-width:0.35695893;stroke-linecap:round;stroke-linejoin:round;stroke-miterlimit:4;stroke-dasharray:none;stroke-opacity:1;paint-order:stroke fill markers" />
  <path
     style="opacity:1;fill:#f2f2f2;fill-opacity:1;stroke:none;stroke-width:0.28388485;stroke-linecap:round;stroke-linejoin:round;stroke-miterlimit:4;stroke-dasharray:none;stroke-opacity:1;paint-order:stroke fill markers"
     d="m 10.678991,5.3330568 c -1.6116301,0 -2.9078708,1.2980593 -2.9078708,2.9096896 V 39.880165 c 0,1.611631 1.2962407,2.907871 2.9078708,2.907871 h 27.167408 c 1.611631,0 2.907871,-1.29624 2.907871,-2.907871 V 23.087619 L 23.001527,5.3330568 Z m 19.151214,0 L 40.75427,16.257124 V 8.2427464 c 0,-1.6116303 -1.29624,-2.9096896 -2.907871,-2.9096896 z"
     id="rect832"
     inkscape:connector-curvature="0" />
  <rect
     width="20.445349"
     height="2.2717052"
     x="12.94826"
     y="21.136793"
     id="rect871"
     style="color:#000000;display:inline;overflow:visible;visibility:visible;fill:#7a7a7a;fill-opacity:1;fill-rule:nonzero;stroke:none;stroke-width:5.69200802;marker:none" />
  <rect
     width="5.6792631"
     height="2.2717052"
     x="17.491674"
     y="25.680202"
     id="rect873"
     style="color:#000000;display:inline;overflow:visible;visibility:visible;fill:#7a7a7a;fill-opacity:1;fill-rule:nonzero;stroke:none;stroke-width:5.69200802;marker:none" />
  <path
     d="m 15.22023,26.815544 a 1.1358515,1.1358521 0 1 1 -2.271694,0 1.1358515,1.1358521 0 1 1 2.271694,0 z"
     id="path875"
     style="color:#000000;display:inline;overflow:visible;visibility:visible;fill:#7a7a7a;fill-opacity:1;fill-rule:nonzero;stroke:none;stroke-width:0.21137837;marker:none"
     inkscape:connector-curvature="0" />
  <rect
     width="5.6792631"
     height="2.2717052"
     x="17.491674"
     y="29.087763"
     id="rect877"
     style="color:#000000;display:inline;overflow:visible;visibility:visible;fill:#7a7a7a;fill-opacity:1;fill-rule:nonzero;stroke:none;stroke-width:5.69200802;marker:none" />
  <path
     d="m 15.22023,30.223103 a 1.1358515,1.1358521 0 1 1 -2.271694,0 1.1358515,1.1358521 0 1 1 2.271694,0 z"
     id="path879"
     style="color:#000000;display:inline;overflow:visible;visibility:visible;fill:#7a7a7a;fill-opacity:1;fill-rule:nonzero;stroke:none;stroke-width:0.21137837;marker:none"
     inkscape:connector-curvature="0" />
  <rect
     width="5.6792631"
     height="2.2717052"
     x="17.491674"
     y="32.495323"
     id="rect881"
     style="color:#000000;display:inline;overflow:visible;visibility:visible;fill:#7a7a7a;fill-opacity:1;fill-rule:nonzero;stroke:none;stroke-width:5.69200802;marker:none" />
  <path
     d="m 15.22023,33.630661 a 1.1358515,1.1358521 0 1 1 -2.271694,0 1.1358515,1.1358521 0 1 1 2.271694,0 z"
     id="path883"
     style="color:#000000;display:inline;overflow:visible;visibility:visible;fill:#7a7a7a;fill-opacity:1;fill-rule:nonzero;stroke:none;stroke-width:0.21137837;marker:none"
     inkscape:connector-curvature="0" />
  <path
     sodipodi:nodetypes="cssccc"
     inkscape:connector-curvature="0"
     d="m 29.401334,25.629492 c -2.527999,0 -4.577349,2.049348 -4.577349,4.577347 0,2.527999 2.04935,4.577347 4.577349,4.577347 2.527997,0 4.577348,-2.049348 4.577348,-4.577347 h -4.577348 z"
     style="color:#000000;display:inline;overflow:visible;visibility:visible;fill:#7a7a7a;fill-opacity:1;fill-rule:evenodd;stroke:none;stroke-width:0.91546947;marker:none;enable-background:accumulate"
     id="path885" />
</svg>
