<?xml version="1.0" encoding="UTF-8" standalone="no"?>
<svg
   xmlns:dc="http://purl.org/dc/elements/1.1/"
   xmlns:cc="http://creativecommons.org/ns#"
   xmlns:rdf="http://www.w3.org/1999/02/22-rdf-syntax-ns#"
   xmlns:svg="http://www.w3.org/2000/svg"
   xmlns="http://www.w3.org/2000/svg"
   xmlns:sodipodi="http://sodipodi.sourceforge.net/DTD/sodipodi-0.dtd"
   xmlns:inkscape="http://www.inkscape.org/namespaces/inkscape"
   height="48"
   width="48"
   version="1"
   id="svg22"
   sodipodi:docname="pidgin.svg"
   inkscape:version="0.92.2 2405546, 2018-03-11">
  <metadata
     id="metadata28">
    <rdf:RDF>
      <cc:Work
         rdf:about="">
        <dc:format>image/svg+xml</dc:format>
        <dc:type
           rdf:resource="http://purl.org/dc/dcmitype/StillImage" />
      </cc:Work>
    </rdf:RDF>
  </metadata>
  <defs
     id="defs26" />
  <sodipodi:namedview
     pagecolor="#ffffff"
     bordercolor="#666666"
     borderopacity="1"
     objecttolerance="10"
     gridtolerance="10"
     guidetolerance="10"
     inkscape:pageopacity="0"
     inkscape:pageshadow="2"
     inkscape:window-width="1920"
     inkscape:window-height="1013"
     id="namedview24"
     showgrid="false"
     inkscape:zoom="7.919937"
     inkscape:cx="-12.499305"
     inkscape:cy="41.211864"
     inkscape:window-x="0"
     inkscape:window-y="0"
     inkscape:window-maximized="1"
     inkscape:current-layer="svg22" />
  <path
     style="fill:#707070;stroke-width:1.33333337"
     d="m 1289.7017,621.51089 c 6.7846,-5.0661 9.019,-9.3786 9.6018,-18.5323 0.4373,-6.8673 -0.035,-9.7879 -2.3606,-14.5916 -3.9938,-8.25 -15.594,-18.4934 -32.6078,-28.7938 -24.2924,-14.7069 -38.5519,-24.5012 -41.396,-28.4333 -2.44,-3.3735 -2.7232,-5.7399 -2.7125,-22.6667 0.013,-20.8364 3.5269,-41.7602 9.3315,-55.5666 l 3.0831,-7.3334 30.7868,-0.3579 30.7867,-0.3579 v 11.2489 c 0,13.0134 0.6609,15.4669 4.1662,15.4669 1.4011,0 10.487,-5.9375 20.1907,-13.1946 l 17.6431,-13.1945 16.6667,-0.5553 c 13.0402,-0.4345 17.9722,-1.145 22.6666,-3.2656 10.9447,-4.944 18.2391,-15.0483 22.3885,-31.0129 2.5397,-9.7712 3.9723,-126.61379 1.7757,-144.82464 -3.4028,-28.21056 -21.066,-48.73338 -45.3694,-52.71468 -9.9938,-1.63715 -185.2475,-1.58488 -195.2807,0.0583 -11.0874,1.81576 -19.0657,6.06854 -27.5141,14.66618 -8.8576,9.01405 -14.2911,19.69288 -16.9898,33.39112 l -2.0141,10.2234 -11.3621,-1.81944 c -12.3769,-1.98193 -23.3785,-0.87513 -29.1971,2.93737 -4.4419,2.91044 -4.0233,4.49174 2.5165,9.50659 l 3.6201,2.77593 -7.3854,0.86802 c -11.3094,1.32918 -21.5237,7.32486 -19.8609,11.65806 0.3886,1.01267 3.7536,3.55406 7.4778,5.64754 3.7242,2.09346 6.2666,4.23705 5.6498,4.7635 -0.6168,0.52647 -5.0498,3.70466 -9.8512,7.06266 -23.8622,16.68889 -41.6852,44.9274 -47.2963,74.93549 -2.3598,12.6205 -2.3158,15.9232 0.7613,57.0584 1.397,18.675 1.4408,27.0726 0.2089,40 -1.9874,20.8552 -4.8692,30.9806 -14.77691,51.9189 -10.1266,21.4009 -13.48302,32.2218 -14.4058,46.4436 -0.60882,9.3831 -0.25584,12.6856 2.05115,19.1911 3.25206,9.1704 5.57073,12.0477 12.85407,15.9508 4.83867,2.5931 8.05399,2.9276 34.66669,3.6068 16.1333,0.4118 80.7395,0.7118 143.5694,0.6667 113.2338,-0.081 114.2683,-0.1062 117.9176,-2.8311 z m -172.1537,-12.5549 c -78.3529,-0.4928 -111.64,-1.1381 -114,-2.2097 -6.44026,-2.9245 -8.55529,-6.7249 -9.09913,-16.3497 -0.68371,-12.0998 2.14719,-22.4943 11.65733,-42.8034 8.0778,-17.2503 12.0154,-28.2604 15.0206,-42 2.2043,-10.0781 2.2369,-69.9082 0.047,-85.5631 -1.2254,-8.7584 -1.1478,-13.4065 0.3958,-23.6892 6.1788,-41.16032 35.9665,-74.85524 75.0008,-84.83852 12.3177,-3.15035 34.5472,-3.42391 46.6347,-0.57392 25.7164,6.06343 49.3293,24.08072 63.9965,48.83095 6.0478,10.20556 6.6914,10.82619 13.6602,13.1732 4.4086,1.48472 8.5074,3.95869 10.3193,6.22851 9.611,12.03978 10.8691,40.75188 2.2353,51.01258 -1.799,2.138 -5.8052,4.7256 -8.9027,5.7502 -6.4908,2.1472 -8.765,5.7848 -12.5221,20.0294 -1.7431,6.6086 -2.8813,8.8346 -4.2488,8.3099 -1.0274,-0.3943 -5.7971,0.8551 -10.5994,2.7763 -6.1142,2.4461 -10.1093,3.2695 -13.3284,2.7471 -5.9358,-0.9632 -6.5036,-1.6515 -3.8139,-4.6235 1.2177,-1.3456 2.2141,-4.5959 2.2141,-7.223 0,-6.6433 -5.9739,-11.6802 -13.8529,-11.6802 -4.5353,0 -6.4033,-0.7881 -9.4805,-4 -2.1077,-2.2 -4.6792,-4 -5.7145,-4 -1.0352,0 -3.5637,1.8 -5.6188,4 -3.2209,3.4479 -4.689,4 -10.6375,4 -5.8496,0 -7.4948,0.5938 -10.7984,3.8975 -4.1182,4.1181 -4.977,8.9273 -2.4406,13.6666 0.9996,1.8677 1.0258,3.1533 0.084,4.0956 -2.5489,2.5489 -15.1951,1.6596 -24.5869,-1.729 -7.5787,-2.7344 -9.2353,-2.9591 -10.2099,-1.3849 -4.4309,7.1563 18.3996,24.6817 46.8053,35.929 15.1751,6.0087 24.2737,7.6917 30.213,5.5887 7.8872,-2.7928 20.3291,-12.3716 31.5648,-24.3011 l 10.4504,-11.0957 -0.8872,5.3333 c -4.7418,28.5046 -4.4727,48.18 0.8169,59.7341 3.9953,8.7269 10.4532,14.1971 32.0108,27.1149 37.3586,22.3862 47.4765,31.9044 43.1465,40.5895 -2.9086,5.834 -6.4921,6.543 -31.5307,6.2379 -12.8333,-0.1563 -73.1333,-0.5975 -134,-0.9803 z m -27.0935,-170.2886 c 12.1868,-6.6329 19.0265,-18.0494 19.0161,-31.7408 -0.01,-11.3451 -4.1391,-20.3547 -13.7,-29.88354 -23.3048,-23.22646 -52.3901,-10.80242 -54.5996,23.32264 -0.8281,12.7902 2.037,22.2844 9.1705,30.3885 11.5199,13.0873 25.5288,15.8509 40.113,7.9132 z m -22.8097,-23.9206 c -3.6658,-4.6604 -3.4903,-9.2146 0.5093,-13.2142 6.5952,-6.5952 17.2606,-2.5855 17.2606,6.4892 0,6.5425 -3.6012,10.2381 -9.9766,10.2381 -3.8458,0 -5.6804,-0.827 -7.7933,-3.5131 z m 159.7222,15.8537 c 6.8401,-5.0981 8.8525,-10.5132 8.7979,-23.6739 -0.06,-14.4023 -3.0446,-22.3147 -10.5888,-28.069 -5.7638,-4.3963 -17.2999,-5.9249 -25.1535,-3.33299 -13.7056,4.52329 -18.8947,23.71339 -10.9342,40.43699 2.8957,6.0833 12.3337,14.6702 18.3464,16.6919 6.0803,2.0445 15.3405,1.0712 19.5322,-2.053 z m -23.5866,-15.4265 c -3.8457,-4.0936 -3.6956,-9.5721 0.3737,-13.6414 6.5022,-6.5022 16.7273,-2.1337 16.7273,7.1466 0,8.8521 -10.9717,13.0191 -17.101,6.4948 z"
     id="path819"
     inkscape:connector-curvature="0"
     sodipodi:nodetypes="cscsccccccssscssssscssccssccccccsssssccsscccccsscscssscccccsccsscssscccscscsccsscsccscssssccssccssccccssss" />
  <rect
     ry="3.6578989"
     rx="3.6578989"
     y="0.38675946"
     x="3.5253932"
     height="47.096165"
     width="41.474606"
     id="rect848"
     style="opacity:1;fill:#892ca0;fill-opacity:1;stroke:none;stroke-width:0.35695893;stroke-linecap:round;stroke-linejoin:round;stroke-miterlimit:4;stroke-dasharray:none;stroke-opacity:1;paint-order:stroke fill markers" />
  <path
     style="opacity:0.27000002;fill:#000000;stroke-width:0.12156692"
     d="m 29.101253,13.640617 c -4.222943,0.0012 -8.446903,0.04036 -8.904297,0.115234 -1.010889,0.165552 -1.737523,0.553999 -2.507813,1.337891 -0.807592,0.821857 -1.304719,1.79403 -1.550781,3.042969 l -0.183594,0.933593 -1.035156,-0.166015 c -1.128474,-0.180703 -2.13159,-0.08004 -2.662109,0.267578 -0.404985,0.265361 -0.365798,0.409957 0.230469,0.867187 l 0.330078,0.251953 -0.673828,0.08008 c -1.031129,0.121191 -1.962152,0.667419 -1.810547,1.0625 0.03543,0.09233 0.342082,0.32475 0.68164,0.515625 0.339552,0.190871 0.56991,0.385594 0.513672,0.433593 -0.05624,0.04799 -0.458721,0.338366 -0.896484,0.644532 -2.1756383,1.521613 -3.8009073,4.096044 -4.3125003,6.832031 -0.215153,1.15068 -0.212226,1.450664 0.068359,5.201172 0.12737,1.702698 0.131836,2.469782 0.019531,3.648437 -0.181201,1.901476 -0.444323,2.823363 -1.347656,4.732422 -0.460373,0.972919 -0.756749,1.70169 -0.955078,2.351563 0.301356,0.471666 0.708097,0.862159 1.1875,1.152343 0.131418,-0.712149 0.414982,-1.510141 0.958984,-2.671875 0.736499,-1.572801 1.095147,-2.577367 1.369141,-3.830078 0.200985,-0.918873 0.203467,-6.373439 0.00391,-7.800781 -0.111731,-0.798543 -0.103597,-1.222628 0.03711,-2.160156 0.563357,-3.752799 3.2789383,-6.824148 6.8378903,-7.734375 1.123071,-0.287233 3.149871,-0.312584 4.251953,-0.05273 2.344688,0.552833 4.496709,2.194564 5.833985,4.451172 0.551419,0.930493 0.610703,0.987182 1.246094,1.201172 0.401949,0.135369 0.776207,0.36141 0.941406,0.568359 0.87629,1.097736 0.990325,3.71487 0.203125,4.650391 -0.16402,0.194928 -0.530081,0.431977 -0.8125,0.525391 -0.591795,0.195773 -0.798076,0.527416 -1.140625,1.826172 -0.15893,0.602538 -0.262034,0.805655 -0.386719,0.757812 -0.09367,-0.03593 -0.528953,0.07679 -0.966797,0.251953 -0.557469,0.22302 -0.921346,0.299581 -1.214844,0.251953 -0.541205,-0.08782 -0.594837,-0.150902 -0.349609,-0.421875 0.111033,-0.122682 0.203125,-0.418683 0.203125,-0.658203 0,-0.605706 -0.545299,-1.066406 -1.263672,-1.066406 -0.413505,0 -0.582724,-0.07043 -0.863281,-0.363281 -0.192177,-0.200582 -0.4271,-0.365235 -0.521485,-0.365235 -0.09439,0 -0.324343,0.164653 -0.511718,0.365235 -0.293661,0.31437 -0.428348,0.363281 -0.970703,0.363281 -0.533335,0 -0.683168,0.05423 -0.984375,0.355469 -0.375476,0.375468 -0.453913,0.81399 -0.222657,1.246093 0.09113,0.17029 0.09365,0.287134 0.0078,0.373047 -0.232399,0.232393 -1.385888,0.152708 -2.242188,-0.15625 -0.690989,-0.249309 -0.840824,-0.270475 -0.929687,-0.126953 -0.403988,0.652476 1.675734,2.249918 4.265625,3.275391 1.383601,0.547848 2.214347,0.70151 2.755859,0.509765 0.719119,-0.254634 1.852536,-1.12717 2.876953,-2.214843 l 0.953125,-1.011719 -0.08008,0.486328 c -0.432328,2.598913 -0.408064,4.391863 0.07422,5.445313 0.364271,0.795676 0.952451,1.294873 2.917969,2.472656 1.232569,0.738587 2.108356,1.312507 2.742187,1.794922 h 2.113282 c -0.512137,-0.646074 -1.411232,-1.376856 -2.63086,-2.115235 -2.214865,-1.340906 -3.514125,-2.23329 -3.773437,-2.591796 -0.222464,-0.307587 -0.249014,-0.525053 -0.248047,-2.06836 0.0015,-1.899761 0.322326,-3.807607 0.851562,-5.066406 l 0.28125,-0.667969 2.806641,-0.0332 2.806641,-0.03125 v 1.025391 c 0,1.186501 0.06128,1.410156 0.380859,1.410156 0.127747,0 0.955107,-0.541452 1.839844,-1.203125 l 1.609375,-1.203125 1.519531,-0.05078 c 1.188942,-0.03959 1.638388,-0.103525 2.066406,-0.296875 0.997879,-0.450773 1.662696,-1.372545 2.041016,-2.828125 0.231559,-0.890895 0.362383,-11.544701 0.162109,-13.205078 -0.310249,-2.572106 -1.920844,-4.443645 -4.136719,-4.806641 -0.455594,-0.07463 -4.677448,-0.110626 -8.90039,-0.109375 z m -17.13086,14.003906 c -1.31337,0.08831 -2.3955753,1.260479 -2.5214843,3.205078 -0.0755,1.166151 0.185545,2.030642 0.8359373,2.769532 1.050332,1.193238 2.326535,1.446381 3.65625,0.722656 1.111132,-0.604752 1.73533,-1.646214 1.734376,-2.894532 -7.27e-4,-1.03439 -0.37828,-1.85582 -1.25,-2.724609 -0.796806,-0.79413 -1.667056,-1.131112 -2.455079,-1.078125 z m 12.583985,0.832031 c -0.207512,0.0139 -0.406926,0.04834 -0.585938,0.107422 -1.249616,0.412413 -1.72384,2.162725 -0.998047,3.6875 0.264013,0.554646 1.125621,1.337161 1.673829,1.521485 0.554372,0.186408 1.39907,0.09734 1.78125,-0.1875 0.623643,-0.464816 0.805761,-0.958269 0.800781,-2.158204 -0.0051,-1.313128 -0.277,-2.033942 -0.964844,-2.558593 -0.394139,-0.300625 -1.084495,-0.45382 -1.707031,-0.41211 z m -11.884766,2.183594 c 0.431695,0.03302 0.8125,0.369603 0.8125,0.886719 0,0.596516 -0.328883,0.933594 -0.910156,0.933594 -0.350646,0 -0.518298,-0.0754 -0.710938,-0.320313 -0.334236,-0.424916 -0.317767,-0.840417 0.04687,-1.205078 0.225495,-0.225494 0.502702,-0.314733 0.761719,-0.294922 z m 12.38086,0.01758 c 0.417861,0.04632 0.783203,0.400858 0.783203,0.929688 0,0.807094 -0.999761,1.18665 -1.558594,0.591797 h -0.002 c -0.350631,-0.373241 -0.335903,-0.873124 0.03516,-1.244141 0.222316,-0.222316 0.49147,-0.305137 0.742188,-0.277344 z"
     id="path952"
     inkscape:connector-curvature="0" />
  <path
     style="opacity:0.95999995;fill:#ffffff;stroke-width:0.12156692"
     d="m 29.101253,12.630851 c -4.222943,0.0013 -8.446903,0.04036 -8.904297,0.115235 -1.010889,0.165551 -1.737523,0.553998 -2.507813,1.33789 -0.807592,0.821858 -1.304719,1.794032 -1.550781,3.042969 l -0.183594,0.933594 -1.035156,-0.166016 c -1.128474,-0.180703 -2.13159,-0.08004 -2.662109,0.267578 -0.404985,0.265361 -0.365798,0.409958 0.230469,0.867188 l 0.330078,0.251953 -0.673828,0.08008 c -1.031129,0.121191 -1.962152,0.667419 -1.810547,1.0625 0.03543,0.09233 0.342082,0.32475 0.68164,0.515625 0.339552,0.190871 0.56991,0.385595 0.513672,0.433594 -0.05624,0.04799 -0.458721,0.338365 -0.896484,0.644531 -2.1756383,1.521613 -3.8009073,4.096044 -4.3125003,6.832031 -0.215153,1.15068 -0.212225,1.450664 0.068359,5.201172 0.12737,1.702698 0.131835,2.469783 0.019531,3.648438 -0.181201,1.901476 -0.444323,2.823363 -1.347656,4.732422 -0.625115,1.321072 -0.952849,2.195018 -1.134765,3.027343 0.292474,0.583966 0.724814,1.080912 1.269531,1.433594 -0.00596,-0.993536 0.262331,-1.932636 1.05664,-3.628906 0.736499,-1.572801 1.095147,-2.577367 1.369141,-3.830078 0.200985,-0.918873 0.203461,-6.37344 0.00391,-7.800782 -0.111731,-0.798543 -0.103597,-1.222628 0.03711,-2.160156 0.563357,-3.752799 3.2789383,-6.824148 6.8378903,-7.734375 1.123071,-0.287233 3.149871,-0.312579 4.251953,-0.05273 2.344688,0.552833 4.496709,2.194564 5.833985,4.451172 0.551419,0.930493 0.610703,0.987182 1.246094,1.201172 0.401949,0.135369 0.776207,0.36141 0.941406,0.568359 0.87629,1.097735 0.990325,3.71487 0.203125,4.650391 -0.16402,0.194928 -0.530081,0.431976 -0.8125,0.52539 -0.591795,0.195773 -0.798076,0.527416 -1.140625,1.826172 -0.15893,0.602538 -0.262034,0.805655 -0.386719,0.757812 -0.09367,-0.03593 -0.528953,0.07679 -0.966797,0.251954 -0.557469,0.22302 -0.921346,0.299581 -1.214844,0.251953 -0.541205,-0.08782 -0.594837,-0.150902 -0.349609,-0.421875 0.111033,-0.122682 0.203125,-0.418683 0.203125,-0.658203 0,-0.605706 -0.545299,-1.066407 -1.263672,-1.066407 -0.413505,0 -0.582724,-0.07043 -0.863281,-0.363281 -0.192177,-0.200582 -0.427101,-0.365234 -0.521485,-0.365234 -0.09439,0 -0.324343,0.164652 -0.511718,0.365234 -0.293661,0.31437 -0.428348,0.363281 -0.970703,0.363281 -0.533335,0 -0.683168,0.05423 -0.984375,0.355469 -0.375476,0.375468 -0.453913,0.813991 -0.222657,1.246094 0.09113,0.170289 0.09364,0.287134 0.0078,0.373047 -0.232399,0.232393 -1.385888,0.152708 -2.242188,-0.15625 -0.690989,-0.249309 -0.840824,-0.270475 -0.929687,-0.126953 -0.403988,0.652476 1.675734,2.249917 4.265625,3.27539 1.383601,0.547848 2.214347,0.701511 2.755859,0.509766 0.719119,-0.254634 1.852536,-1.127171 2.876953,-2.214844 l 0.953125,-1.011719 -0.08008,0.486328 c -0.432328,2.598913 -0.408063,4.391863 0.07422,5.445313 0.364271,0.795676 0.952451,1.294873 2.917969,2.472656 2.229889,1.336207 3.382309,2.16627 3.810547,2.804688 h 1.566406 c -0.03583,-0.16235 -0.09075,-0.316466 -0.179688,-0.5 -0.364139,-0.752199 -1.421415,-1.685858 -2.972656,-2.625 -2.214865,-1.340906 -3.514125,-2.23329 -3.773437,-2.591797 -0.222464,-0.307587 -0.249014,-0.525053 -0.248047,-2.06836 0.0015,-1.899761 0.322326,-3.807607 0.851562,-5.066406 l 0.28125,-0.667968 2.806641,-0.0332 2.806641,-0.03125 v 1.025391 c 0,1.186501 0.06128,1.410156 0.380859,1.410156 0.127747,0 0.955107,-0.541452 1.839844,-1.203125 l 1.609375,-1.203125 1.519531,-0.05078 c 1.188942,-0.03959 1.638388,-0.103525 2.066406,-0.296875 0.997879,-0.450773 1.662696,-1.372545 2.041016,-2.828125 0.231559,-0.890895 0.362383,-11.544701 0.162109,-13.205078 -0.310249,-2.572102 -1.920844,-4.443645 -4.136719,-4.806641 -0.455594,-0.07463 -4.677448,-0.110625 -8.90039,-0.109375 z m -17.13086,14.003906 c -1.31337,0.08831 -2.3955753,1.26048 -2.5214843,3.205079 -0.0755,1.166151 0.185545,2.030642 0.8359373,2.769531 1.050332,1.193239 2.326535,1.446381 3.65625,0.722656 1.111132,-0.604752 1.73533,-1.646213 1.734376,-2.894531 -7.27e-4,-1.034391 -0.37828,-1.85582 -1.25,-2.724609 -0.796806,-0.79413 -1.667056,-1.131113 -2.455079,-1.078126 z m 12.583985,0.832032 c -0.207512,0.0139 -0.406926,0.04834 -0.585938,0.107422 -1.249616,0.412413 -1.72384,2.162725 -0.998047,3.6875 0.264013,0.554646 1.125621,1.33716 1.673829,1.521484 0.554372,0.186408 1.399071,0.09734 1.78125,-0.1875 0.623643,-0.464816 0.805761,-0.958268 0.800781,-2.158203 -0.0051,-1.313129 -0.277,-2.033943 -0.964844,-2.558594 -0.394139,-0.300625 -1.084495,-0.453819 -1.707031,-0.412109 z m -11.884766,2.183594 c 0.431695,0.03302 0.8125,0.369602 0.8125,0.886718 0,0.596516 -0.328883,0.933594 -0.910156,0.933594 -0.350646,0 -0.518298,-0.0754 -0.710938,-0.320312 -0.334236,-0.424916 -0.317772,-0.840418 0.04687,-1.205079 0.225495,-0.225494 0.502702,-0.314732 0.761719,-0.294921 z m 12.38086,0.01758 c 0.417862,0.04632 0.783203,0.400857 0.783203,0.929687 0,0.807094 -0.999761,1.18665 -1.558594,0.591797 h -0.002 c -0.350631,-0.373241 -0.335899,-0.873124 0.03516,-1.244141 0.222316,-0.222316 0.49147,-0.305136 0.742188,-0.277343 z"
     id="path839-3"
     inkscape:connector-curvature="0" />
</svg>
