<?xml version="1.0" encoding="UTF-8"?>
<svg xmlns="http://www.w3.org/2000/svg" xmlns:xlink="http://www.w3.org/1999/xlink" width="48px" height="48px" viewBox="0 0 48 48" version="1.1">
<g id="surface1">
<path style=" stroke:none;fill-rule:nonzero;fill:rgb(43.529412%,54.11765%,56.862748%);fill-opacity:1;" d="M 6.601562 0.160156 L 41.1875 0.160156 C 43.230469 0.160156 44.890625 1.820312 44.890625 3.863281 L 44.890625 44.140625 C 44.890625 46.1875 43.230469 47.84375 41.1875 47.84375 L 6.601562 47.84375 C 4.554688 47.84375 2.898438 46.1875 2.898438 44.140625 L 2.898438 3.863281 C 2.898438 1.820312 4.554688 0.160156 6.601562 0.160156 Z M 6.601562 0.160156 "/>
<path style=" stroke:none;fill-rule:nonzero;fill:rgb(100%,100%,100%);fill-opacity:1;" d="M 17.125 7.984375 C 18.351562 7.652344 19.636719 7.820312 20.734375 8.457031 C 21.835938 9.09375 22.625 10.121094 22.953125 11.347656 L 25.796875 21.933594 L 20.484375 20.507812 Z M 17.125 7.984375 "/>
<path style=" stroke:none;fill-rule:nonzero;fill:rgb(100%,100%,100%);fill-opacity:1;" d="M 18.714844 31.082031 C 19.859375 29.9375 21.339844 29.339844 22.839844 29.285156 L 21.910156 25.820312 L 27.222656 27.246094 L 28.964844 33.742188 C 28.980469 33.800781 28.996094 33.859375 29.011719 33.914062 L 29.015625 33.933594 C 29.519531 35.957031 28.984375 38.1875 27.402344 39.769531 C 25 42.167969 21.113281 42.167969 18.714844 39.769531 C 16.316406 37.371094 16.316406 33.480469 18.714844 31.082031 Z M 25.570312 37.941406 C 26.957031 36.554688 26.957031 34.296875 25.570312 32.910156 C 24.183594 31.523438 21.929688 31.523438 20.542969 32.910156 C 19.15625 34.296875 19.15625 36.554688 20.542969 37.941406 C 21.929688 39.328125 24.183594 39.328125 25.570312 37.941406 Z M 25.570312 37.941406 "/>
<path style=" stroke:none;fill-rule:nonzero;fill:rgb(100%,100%,100%);fill-opacity:1;" d="M 11.324219 22.976562 C 10.097656 22.648438 9.070312 21.859375 8.433594 20.757812 C 7.800781 19.65625 7.628906 18.375 7.960938 17.144531 L 20.484375 20.507812 L 25.796875 21.933594 L 29.261719 22.863281 C 29.316406 21.363281 29.914062 19.882812 31.058594 18.738281 C 33.457031 16.339844 37.347656 16.339844 39.746094 18.738281 C 42.144531 21.136719 42.144531 25.023438 39.746094 27.425781 C 38.164062 29.007812 35.933594 29.542969 33.910156 29.039062 C 33.910156 29.039062 33.890625 29.035156 33.890625 29.035156 C 33.835938 29.019531 33.777344 29.003906 33.71875 28.988281 L 27.222656 27.246094 L 21.910156 25.820312 Z M 37.917969 25.59375 C 39.304688 24.207031 39.304688 21.953125 37.917969 20.566406 C 36.53125 19.179688 34.273438 19.179688 32.886719 20.566406 C 31.5 21.953125 31.5 24.207031 32.886719 25.59375 C 34.273438 26.980469 36.53125 26.980469 37.917969 25.59375 Z M 37.917969 25.59375 "/>
</g>
</svg>
