<?xml version="1.0" encoding="UTF-8"?>
<svg xmlns="http://www.w3.org/2000/svg" xmlns:xlink="http://www.w3.org/1999/xlink" width="48px" height="48px" viewBox="0 0 48 48" version="1.1">
<g id="surface1">
<path style=" stroke:none;fill-rule:nonzero;fill:rgb(40.000001%,40.000001%,40.000001%);fill-opacity:1;" d="M 6.953125 0.472656 L 41.046875 0.472656 C 43.0625 0.472656 44.699219 2.105469 44.699219 4.121094 L 44.699219 43.824219 C 44.699219 45.839844 43.0625 47.476562 41.046875 47.476562 L 6.953125 47.476562 C 4.9375 47.476562 3.304688 45.839844 3.304688 43.824219 L 3.304688 4.121094 C 3.304688 2.105469 4.9375 0.472656 6.953125 0.472656 Z M 6.953125 0.472656 "/>
<path style=" stroke:none;fill-rule:nonzero;fill:rgb(100%,83.137256%,16.470589%);fill-opacity:1;" d="M 33.3125 31.269531 C 32.359375 29.839844 31.855469 28.179688 31.855469 26.460938 L 31.855469 21.585938 C 31.855469 19.582031 31.078125 17.703125 29.660156 16.289062 C 28.457031 15.089844 26.917969 14.351562 25.257812 14.160156 L 25.257812 12.316406 L 23.464844 12.316406 L 23.464844 14.167969 C 19.777344 14.628906 16.910156 17.816406 16.910156 21.65625 L 16.910156 26.460938 C 16.910156 28.179688 16.40625 29.839844 15.453125 31.269531 L 13.738281 33.839844 L 21.847656 33.839844 C 22.21875 34.886719 23.214844 35.636719 24.382812 35.636719 C 25.554688 35.636719 26.550781 34.886719 26.917969 33.839844 L 35.027344 33.839844 Z M 33.3125 31.269531 "/>
<path style=" stroke:none;fill-rule:nonzero;fill:rgb(100%,83.137256%,16.470589%);fill-opacity:1;" d="M 37.152344 17.84375 L 35.882812 19.113281 C 37.179688 20.414062 37.894531 22.140625 37.894531 23.976562 C 37.894531 25.773438 37.207031 27.472656 35.957031 28.761719 L 37.246094 30.007812 C 38.820312 28.382812 39.691406 26.242188 39.691406 23.976562 C 39.691406 21.660156 38.789062 19.484375 37.152344 17.84375 Z M 37.152344 17.84375 "/>
<path style=" stroke:none;fill-rule:nonzero;fill:rgb(100%,83.137256%,16.470589%);fill-opacity:1;" d="M 34.613281 20.382812 L 33.34375 21.652344 C 33.964844 22.273438 34.308594 23.097656 34.308594 23.976562 C 34.308594 24.839844 33.976562 25.65625 33.371094 26.273438 L 34.652344 27.53125 C 35.589844 26.574219 36.101562 25.3125 36.101562 23.976562 C 36.101562 22.617188 35.574219 21.34375 34.613281 20.382812 Z M 34.613281 20.382812 "/>
<path style=" stroke:none;fill-rule:nonzero;fill:rgb(100%,83.137256%,16.470589%);fill-opacity:1;" d="M 12.886719 19.113281 L 11.617188 17.84375 C 9.980469 19.484375 9.078125 21.660156 9.078125 23.976562 C 9.078125 26.242188 9.945312 28.382812 11.519531 30.007812 L 12.808594 28.761719 C 11.558594 27.472656 10.871094 25.773438 10.871094 23.976562 C 10.871094 22.140625 11.585938 20.414062 12.886719 19.113281 Z M 12.886719 19.113281 "/>
<path style=" stroke:none;fill-rule:nonzero;fill:rgb(100%,83.137256%,16.470589%);fill-opacity:1;" d="M 15.421875 21.652344 L 14.152344 20.382812 C 13.191406 21.34375 12.664062 22.617188 12.664062 23.976562 C 12.664062 25.3125 13.179688 26.574219 14.113281 27.53125 L 15.394531 26.273438 C 14.792969 25.65625 14.457031 24.839844 14.457031 23.976562 C 14.457031 23.097656 14.800781 22.273438 15.421875 21.652344 Z M 15.421875 21.652344 "/>
</g>
</svg>
