<?xml version="1.0" encoding="UTF-8" standalone="no"?>
<svg
   xmlns:dc="http://purl.org/dc/elements/1.1/"
   xmlns:cc="http://creativecommons.org/ns#"
   xmlns:rdf="http://www.w3.org/1999/02/22-rdf-syntax-ns#"
   xmlns:svg="http://www.w3.org/2000/svg"
   xmlns="http://www.w3.org/2000/svg"
   xmlns:sodipodi="http://sodipodi.sourceforge.net/DTD/sodipodi-0.dtd"
   xmlns:inkscape="http://www.inkscape.org/namespaces/inkscape"
   height="48"
   viewBox="0 0 48 48"
   width="48"
   version="1.1"
   id="svg18"
   sodipodi:docname="smplayer.svg"
   inkscape:version="0.92.2 2405546, 2018-03-11">
  <metadata
     id="metadata24">
    <rdf:RDF>
      <cc:Work
         rdf:about="">
        <dc:format>image/svg+xml</dc:format>
        <dc:type
           rdf:resource="http://purl.org/dc/dcmitype/StillImage" />
      </cc:Work>
    </rdf:RDF>
  </metadata>
  <defs
     id="defs22" />
  <sodipodi:namedview
     pagecolor="#ffffff"
     bordercolor="#666666"
     borderopacity="1"
     objecttolerance="10"
     gridtolerance="10"
     guidetolerance="10"
     inkscape:pageopacity="0"
     inkscape:pageshadow="2"
     inkscape:window-width="1920"
     inkscape:window-height="1013"
     id="namedview20"
     showgrid="false"
     inkscape:zoom="8.5427083"
     inkscape:cx="-31.267267"
     inkscape:cy="17.582115"
     inkscape:window-x="0"
     inkscape:window-y="0"
     inkscape:window-maximized="1"
     inkscape:current-layer="svg18"
     inkscape:snap-global="false" />
  <rect
     ry="3.5865881"
     rx="3.5865881"
     y="0.800484"
     x="3.429657"
     height="46.178024"
     width="40.666058"
     id="rect859-3"
     style="display:inline;opacity:1;fill:#93a7ac;fill-opacity:1;stroke:none;stroke-width:0.44999999;stroke-linecap:round;stroke-linejoin:round;stroke-miterlimit:4;stroke-dasharray:none;stroke-opacity:1;paint-order:stroke fill markers" />
  <g
     style="fill:#000000;opacity:0.233"
     id="g854"
     transform="matrix(0.09300709,0,0,0.09300709,4.8184074,4.5248536)">
    <path
       style="fill:#000000"
       d="M 285.877,367.5 C 336.483,334.452 370,277.32 370,212.5 370,110.491 287.01,27.5 185,27.5 82.99,27.5 0,110.491 0,212.5 c 0,102.009 82.99,185 185,185 h 240 v -30 z M 185,167.5 c -24.814,0 -45,-20.187 -45,-45 0,-24.813 20.186,-45 45,-45 24.814,0 45,20.187 45,45 0,24.813 -20.186,45 -45,45 z m 90,0 c 24.814,0 45,20.187 45,45 0,24.813 -20.186,45 -45,45 -24.814,0 -45,-20.187 -45,-45 0,-24.813 20.186,-45 45,-45 z m -135,45 c 0,24.813 -20.187,45 -45,45 -24.813,0 -45,-20.187 -45,-45 0,-24.813 20.187,-45 45,-45 24.813,0 45,20.187 45,45 z m 45,45 c 24.814,0 45,20.187 45,45 0,24.813 -20.186,45 -45,45 -24.814,0 -45,-20.187 -45,-45 0,-24.813 20.186,-45 45,-45 z"
       id="path852"
       inkscape:connector-curvature="0" />
  </g>
  <path
     style="fill:#5d5d5d;stroke-width:0.8108753"
     inkscape:connector-curvature="0"
     id="path846"
     d="M 33.48623,23.741315 A 11.352254,11.352254 0 0 1 22.133975,35.09357 11.352254,11.352254 0 0 1 10.781721,23.741315 11.352254,11.352254 0 0 1 22.133975,12.389061 11.352254,11.352254 0 0 1 33.48623,23.741315 Z" />
  <g
     transform="matrix(0.09300709,0,0,0.09300709,4.8184074,3.8225002)"
     id="XMLID_41_"
     style="fill:#cccccc">
    <path
       inkscape:connector-curvature="0"
       id="XMLID_42_"
       d="M 285.877,367.5 C 336.483,334.452 370,277.32 370,212.5 370,110.491 287.01,27.5 185,27.5 82.99,27.5 0,110.491 0,212.5 c 0,102.009 82.99,185 185,185 40.74767,1.87 81.01774,-15.93502 100.877,-30 z M 185,167.5 c -24.814,0 -45,-20.187 -45,-45 0,-24.813 20.186,-45 45,-45 24.814,0 45,20.187 45,45 0,24.813 -20.186,45 -45,45 z m 90,0 c 24.814,0 45,20.187 45,45 0,24.813 -20.186,45 -45,45 -24.814,0 -45,-20.187 -45,-45 0,-24.813 20.186,-45 45,-45 z m -135,45 c 0,24.813 -20.187,45 -45,45 -24.813,0 -45,-20.187 -45,-45 0,-24.813 20.187,-45 45,-45 24.813,0 45,20.187 45,45 z m 45,45 c 24.814,0 45,20.187 45,45 0,24.813 -20.186,45 -45,45 -24.814,0 -45,-20.187 -45,-45 0,-24.813 20.186,-45 45,-45 z"
       style="fill:#cccccc"
       sodipodi:nodetypes="csssccssssssssssssssssssss" />
    <path
       style="fill:#ffffff;stroke-width:0.09300709;opacity:0.523"
       d="M 22.025391 6.3808594 C 12.537737 6.3808594 4.8183594 14.098377 4.8183594 23.585938 C 4.8183594 23.783584 4.8410106 23.975818 4.8476562 24.171875 C 5.1600211 14.95665 12.735386 7.5507812 22.025391 7.5507812 C 31.360831 7.5507813 38.964847 15.028643 39.207031 24.306641 C 39.216963 24.067227 39.230469 23.827751 39.230469 23.585938 C 39.230469 14.098377 31.513044 6.3808594 22.025391 6.3808594 z M 17.898438 15.800781 C 17.870964 15.994111 17.839844 16.185921 17.839844 16.386719 C 17.839844 18.694504 19.717513 20.572266 22.025391 20.572266 C 24.333269 20.572266 26.210938 18.694504 26.210938 16.386719 C 26.210938 16.1859 26.17787 15.99413 26.150391 15.800781 C 25.862912 17.830308 24.133104 19.400391 22.025391 19.400391 C 19.917656 19.400391 18.18589 17.830338 17.898438 15.800781 z M 9.5292969 24.171875 C 9.5019403 24.3648 9.46875 24.557454 9.46875 24.757812 C 9.46875 27.065597 11.346512 28.943359 13.654297 28.943359 C 15.962082 28.943359 17.839844 27.065597 17.839844 24.757812 C 17.839844 24.557454 17.806653 24.3648 17.779297 24.171875 C 17.491553 26.201118 15.761723 27.771484 13.654297 27.771484 C 11.54687 27.771484 9.8170409 26.201118 9.5292969 24.171875 z M 26.269531 24.171875 C 26.242181 24.364781 26.210938 24.557475 26.210938 24.757812 C 26.210938 27.065597 28.086653 28.943359 30.394531 28.943359 C 32.702409 28.943359 34.580078 27.065597 34.580078 24.757812 C 34.580078 24.557475 34.548834 24.364781 34.521484 24.171875 C 34.233779 26.201147 32.502063 27.771484 30.394531 27.771484 C 28.286999 27.771484 26.557237 26.201147 26.269531 24.171875 z M 17.898438 32.542969 C 17.871142 32.735689 17.839844 32.926818 17.839844 33.126953 C 17.839844 35.434738 19.717513 37.3125 22.025391 37.3125 C 24.333269 37.3125 26.210938 35.434738 26.210938 33.126953 C 26.210938 32.926797 26.177692 32.735708 26.150391 32.542969 C 25.862084 34.571566 24.132442 36.142578 22.025391 36.142578 C 19.918319 36.142578 18.186718 34.571595 17.898438 32.542969 z "
       transform="matrix(10.751868,0,0,10.751868,-51.806883,-41.099019)"
       id="path860" />
  </g>
  <path
     style="fill:#5d5d5d;stroke-width:0.91930807"
     inkscape:connector-curvature="0"
     id="path838"
     d="m 21.407315,20.747642 a 0.91930814,0.91930814 0 0 1 -0.336467,1.255775 0.91930814,0.91930814 0 0 1 -1.255775,-0.336467 0.91930814,0.91930814 0 0 1 0.336467,-1.255775 0.91930814,0.91930814 0 0 1 1.255775,0.336467 z" />
  <path
     style="fill:#5d5d5d;stroke-width:0.91930807"
     inkscape:connector-curvature="0"
     id="path840"
     d="m 24.165239,25.528044 a 0.91930814,0.91930814 0 0 1 -0.336467,1.255775 0.91930814,0.91930814 0 0 1 -1.255774,-0.336467 0.91930814,0.91930814 0 0 1 0.336467,-1.255774 0.91930814,0.91930814 0 0 1 1.255774,0.336466 z" />
  <path
     style="fill:#5d5d5d;stroke-width:0.91930807"
     inkscape:connector-curvature="0"
     id="path842"
     d="m 24.838173,22.953981 a 0.91930814,0.91930814 0 0 1 -1.255775,-0.336466 0.91930814,0.91930814 0 0 1 0.336467,-1.255775 0.91930814,0.91930814 0 0 1 1.255774,0.336467 0.91930814,0.91930814 0 0 1 -0.336466,1.255774 z" />
  <path
     style="fill:#5d5d5d;stroke-width:0.91930807"
     inkscape:connector-curvature="0"
     id="path844"
     d="m 20.061448,25.711905 a 0.91930814,0.91930814 0 0 1 -1.255775,-0.336466 0.91930814,0.91930814 0 0 1 0.336466,-1.255775 0.91930814,0.91930814 0 0 1 1.255776,0.336467 0.91930814,0.91930814 0 0 1 -0.336467,1.255774 z" />
  <g
     style="fill:#cccccc"
     id="g850"
     transform="matrix(0.0920316,0,0,0.09300709,4.9988732,3.8225002)">
    <path
       style="fill:#5d5d5d;fill-opacity:1"
       d="m 285.877,367.5 c -66.27361,35.18556 -83.06742,29.40395 -100.877,30 h 239.99996 v -30 z"
       id="path848"
       inkscape:connector-curvature="0"
       sodipodi:nodetypes="ccccc" />
  </g>
</svg>
