<?xml version="1.0" encoding="UTF-8" standalone="no"?>
<!-- Created with Inkscape (http://www.inkscape.org/) -->

<svg
   xmlns:dc="http://purl.org/dc/elements/1.1/"
   xmlns:cc="http://creativecommons.org/ns#"
   xmlns:rdf="http://www.w3.org/1999/02/22-rdf-syntax-ns#"
   xmlns:svg="http://www.w3.org/2000/svg"
   xmlns="http://www.w3.org/2000/svg"
   xmlns:sodipodi="http://sodipodi.sourceforge.net/DTD/sodipodi-0.dtd"
   xmlns:inkscape="http://www.inkscape.org/namespaces/inkscape"
   version="1.0"
   width="48"
   height="48"
   id="svg3437"
   inkscape:version="0.92.2 2405546, 2018-03-11"
   sodipodi:docname="terminal.svg">
  <metadata
     id="metadata101">
    <rdf:RDF>
      <cc:Work
         rdf:about="">
        <dc:format>image/svg+xml</dc:format>
        <dc:type
           rdf:resource="http://purl.org/dc/dcmitype/StillImage" />
        <dc:title />
      </cc:Work>
    </rdf:RDF>
  </metadata>
  <sodipodi:namedview
     pagecolor="#ffffff"
     bordercolor="#666666"
     borderopacity="1"
     objecttolerance="10"
     gridtolerance="10"
     guidetolerance="10"
     inkscape:pageopacity="0"
     inkscape:pageshadow="2"
     inkscape:window-width="1920"
     inkscape:window-height="1013"
     id="namedview99"
     showgrid="true"
     inkscape:zoom="8.2363005"
     inkscape:cx="12.178822"
     inkscape:cy="39.421722"
     inkscape:window-x="0"
     inkscape:window-y="0"
     inkscape:window-maximized="1"
     inkscape:current-layer="svg3437"
     inkscape:snap-to-guides="false"
     inkscape:snap-grids="false"
     showguides="true"
     inkscape:guide-bbox="true">
    <inkscape:grid
       type="xygrid"
       id="grid911" />
  </sodipodi:namedview>
  <defs
     id="defs3439">
    <linearGradient
       id="linearGradient990">
      <stop
         style="stop-color:#71a332;stop-opacity:1;"
         offset="0"
         id="stop992" />
      <stop
         style="stop-color:#1e2617;stop-opacity:1"
         offset="1"
         id="stop994" />
    </linearGradient>
    <linearGradient
       id="linearGradient957">
      <stop
         style="stop-color:#274e28;stop-opacity:1;"
         offset="0"
         id="stop959" />
      <stop
         style="stop-color:#000000;stop-opacity:1;"
         offset="1"
         id="stop961" />
    </linearGradient>
    <linearGradient
       id="linearGradient965">
      <stop
         id="stop967"
         offset="0"
         style="stop-color:#ffffff;stop-opacity:0.38524589;" />
      <stop
         id="stop969"
         offset="1"
         style="stop-color:#ffffff;stop-opacity:0;" />
    </linearGradient>
    <linearGradient
       id="linearGradient5060">
      <stop
         id="stop5062"
         style="stop-color:#000000;stop-opacity:1"
         offset="0" />
      <stop
         id="stop5064"
         style="stop-color:#000000;stop-opacity:0"
         offset="1" />
    </linearGradient>
    <linearGradient
       id="linearGradient5048">
      <stop
         id="stop5050"
         style="stop-color:#000000;stop-opacity:0"
         offset="0" />
      <stop
         id="stop5056"
         style="stop-color:#000000;stop-opacity:1"
         offset="0.5" />
      <stop
         id="stop5052"
         style="stop-color:#000000;stop-opacity:0"
         offset="1" />
    </linearGradient>
  </defs>
  <rect
     ry="3.6578989"
     rx="3.6578989"
     y="0.51302302"
     x="3.5253937"
     height="47.096165"
     width="41.474606"
     id="rect859"
     style="opacity:1;fill:#216778;fill-opacity:1;stroke:#000000;stroke-width:0.257;stroke-linecap:round;stroke-linejoin:round;stroke-miterlimit:4;stroke-dasharray:none;stroke-opacity:1;paint-order:stroke fill markers" />
  <g
     id="g888"
     style="font-style:normal;font-variant:normal;font-weight:normal;font-stretch:normal;font-size:18.33990288px;line-height:1.25;font-family:FZChaoCuHei-M10;-inkscape-font-specification:'FZChaoCuHei-M10, Normal';font-variant-ligatures:normal;font-variant-caps:normal;font-variant-numeric:normal;font-feature-settings:normal;text-align:start;letter-spacing:0px;word-spacing:0px;writing-mode:lr-tb;text-anchor:start;fill:#000000;fill-opacity:1;stroke:#ffffff;stroke-width:0.68792599;stroke-miterlimit:4;stroke-dasharray:none;stroke-opacity:1;opacity:0.233"
     transform="matrix(1.0659367,0,0,1.2864825,-1.3602696,-4.7084634)"
     aria-label="$">
    <g
       id="g886"
       style="font-style:normal;font-weight:normal;font-size:13.33333302px;line-height:1.25;font-family:sans-serif;letter-spacing:0px;word-spacing:0px;fill:#000000;fill-opacity:1;stroke:none"
       transform="scale(1.021236,0.97920559)"
       aria-label="$">
      <path
         inkscape:connector-curvature="0"
         id="path884"
         style="font-style:normal;font-variant:normal;font-weight:bold;font-stretch:normal;font-family:sans-serif;-inkscape-font-specification:'sans-serif Bold';fill:#000000"
         d="m 14.008631,21.336348 h -1.054688 l -0.0065,-1.959635 q -0.813802,-0.03255 -1.575521,-0.182292 -0.761719,-0.149739 -1.484375,-0.416667 v -1.705729 q 0.748698,0.384115 1.510417,0.592448 0.768229,0.201823 1.555989,0.227865 v -2.02474 l -0.214844,-0.03906 q -1.555999,-0.27344 -2.213551,-0.859377 -0.6510419,-0.585938 -0.6510419,-1.686198 0,-1.165365 0.7942709,-1.816406 0.800781,-0.657552 2.278646,-0.716146 l 0.0065,-1.5039063 h 1.054688 v 1.4778643 q 0.651041,0.05208 1.302083,0.162761 0.651042,0.110677 1.308594,0.286458 v 1.653646 q -0.651042,-0.273438 -1.302084,-0.423177 -0.651041,-0.15625 -1.308593,-0.188802 v 1.868489 l 0.208333,0.03906 q 1.653646,0.260416 2.317708,0.872395 0.670573,0.605469 0.670573,1.796875 0,1.197917 -0.794271,1.842448 -0.79427,0.638021 -2.402343,0.729167 z m -1.054688,-7.402343 v -1.699219 q -0.462239,0.02604 -0.742187,0.253906 -0.273438,0.221354 -0.273438,0.566406 0,0.384115 0.253906,0.605469 0.253907,0.214844 0.761719,0.273438 z m 1.054688,2.122395 v 1.809896 q 0.566406,-0.0065 0.846354,-0.221354 0.286458,-0.214844 0.286458,-0.644531 0,-0.442709 -0.260417,-0.657552 Q 14.62061,16.121505 14.008631,16.0564 Z" />
    </g>
  </g>
  <g
     aria-label="$"
     transform="matrix(1.0659367,0,0,1.2864825,-1.3602696,-5.4369456)"
     style="font-style:normal;font-variant:normal;font-weight:normal;font-stretch:normal;font-size:18.33990288px;line-height:1.25;font-family:FZChaoCuHei-M10;-inkscape-font-specification:'FZChaoCuHei-M10, Normal';font-variant-ligatures:normal;font-variant-caps:normal;font-variant-numeric:normal;font-feature-settings:normal;text-align:start;letter-spacing:0px;word-spacing:0px;writing-mode:lr-tb;text-anchor:start;fill:#ffffff;fill-opacity:1;stroke:#ffffff;stroke-width:0.68792599;stroke-miterlimit:4;stroke-dasharray:none;stroke-opacity:1"
     id="text843">
    <g
       aria-label="$"
       transform="scale(1.021236,0.97920559)"
       style="font-style:normal;font-weight:normal;font-size:13.33333302px;line-height:1.25;font-family:sans-serif;letter-spacing:0px;word-spacing:0px;fill:#ffffff;fill-opacity:1;stroke:none"
       id="text879">
      <path
         d="m 14.008631,21.336348 h -1.054688 l -0.0065,-1.959635 q -0.813802,-0.03255 -1.575521,-0.182292 -0.761719,-0.149739 -1.484375,-0.416667 v -1.705729 q 0.748698,0.384115 1.510417,0.592448 0.768229,0.201823 1.555989,0.227865 v -2.02474 l -0.214844,-0.03906 q -1.555999,-0.27344 -2.213551,-0.859377 -0.6510419,-0.585938 -0.6510419,-1.686198 0,-1.165365 0.7942709,-1.816406 0.800781,-0.657552 2.278646,-0.716146 l 0.0065,-1.5039063 h 1.054688 v 1.4778643 q 0.651041,0.05208 1.302083,0.162761 0.651042,0.110677 1.308594,0.286458 v 1.653646 q -0.651042,-0.273438 -1.302084,-0.423177 -0.651041,-0.15625 -1.308593,-0.188802 v 1.868489 l 0.208333,0.03906 q 1.653646,0.260416 2.317708,0.872395 0.670573,0.605469 0.670573,1.796875 0,1.197917 -0.794271,1.842448 -0.79427,0.638021 -2.402343,0.729167 z m -1.054688,-7.402343 v -1.699219 q -0.462239,0.02604 -0.742187,0.253906 -0.273438,0.221354 -0.273438,0.566406 0,0.384115 0.253906,0.605469 0.253907,0.214844 0.761719,0.273438 z m 1.054688,2.122395 v 1.809896 q 0.566406,-0.0065 0.846354,-0.221354 0.286458,-0.214844 0.286458,-0.644531 0,-0.442709 -0.260417,-0.657552 Q 14.62061,16.121505 14.008631,16.0564 Z"
         style="font-style:normal;font-variant:normal;font-weight:bold;font-stretch:normal;font-family:sans-serif;-inkscape-font-specification:'sans-serif Bold';fill:#ffffff"
         id="path881"
         inkscape:connector-curvature="0" />
    </g>
  </g>
  <g
     aria-label="_"
     style="font-style:normal;font-weight:normal;font-size:40px;line-height:1.25;font-family:sans-serif;letter-spacing:0px;word-spacing:0px;fill:#000000;fill-opacity:1;stroke:none;opacity:0.233"
     id="g892"
     transform="matrix(1.538109,0,0,3.3622767,7.636195,-13.924686)">
    <path
       d="m 12.781251,10.364583 v 0.744792 H 7.2395843 v -0.744792 z"
       style="font-size:10.66666698px;fill:#000000"
       id="path890"
       inkscape:connector-curvature="0" />
  </g>
  <g
     transform="matrix(1.538109,0,0,3.3622767,7.636195,-14.65317)"
     id="g847"
     style="font-style:normal;font-weight:normal;font-size:40px;line-height:1.25;font-family:sans-serif;letter-spacing:0px;word-spacing:0px;fill:#ffffff;fill-opacity:1;stroke:none"
     aria-label="_">
    <path
       inkscape:connector-curvature="0"
       id="path845"
       style="font-size:10.66666698px;fill:#ffffff"
       d="m 12.781251,10.364583 v 0.744792 H 7.2395843 v -0.744792 z" />
  </g>
  <path
     style="opacity:0.163;fill:#000000;fill-opacity:1;stroke:none;stroke-width:0.257;stroke-linecap:round;stroke-linejoin:round;stroke-miterlimit:4;stroke-dasharray:none;stroke-opacity:1;paint-order:stroke fill markers"
     d="M 3.5253906 42.625 L 3.5253906 43.951172 C 3.5253906 45.977648 5.1571178 47.609375 7.1835938 47.609375 L 41.341797 47.609375 C 43.368273 47.609375 45 45.977648 45 43.951172 L 45 42.625 C 45 44.651476 43.368273 46.283203 41.341797 46.283203 L 7.1835938 46.283203 C 5.1571178 46.283203 3.5253906 44.651476 3.5253906 42.625 z "
     id="rect849" />
</svg>
