<?xml version="1.0" encoding="UTF-8" standalone="no"?>
<svg
   xmlns:dc="http://purl.org/dc/elements/1.1/"
   xmlns:cc="http://creativecommons.org/ns#"
   xmlns:rdf="http://www.w3.org/1999/02/22-rdf-syntax-ns#"
   xmlns:svg="http://www.w3.org/2000/svg"
   xmlns="http://www.w3.org/2000/svg"
   xmlns:xlink="http://www.w3.org/1999/xlink"
   xmlns:sodipodi="http://sodipodi.sourceforge.net/DTD/sodipodi-0.dtd"
   xmlns:inkscape="http://www.inkscape.org/namespaces/inkscape"
   height="48"
   width="48"
   version="1"
   id="svg28"
   sodipodi:docname="thunderbird.svg"
   inkscape:version="0.92.2 2405546, 2018-03-11">
  <metadata
     id="metadata32">
    <rdf:RDF>
      <cc:Work
         rdf:about="">
        <dc:format>image/svg+xml</dc:format>
        <dc:type
           rdf:resource="http://purl.org/dc/dcmitype/StillImage" />
      </cc:Work>
    </rdf:RDF>
  </metadata>
  <sodipodi:namedview
     pagecolor="#ffffff"
     bordercolor="#666666"
     borderopacity="1"
     objecttolerance="10"
     gridtolerance="10"
     guidetolerance="10"
     inkscape:pageopacity="0"
     inkscape:pageshadow="2"
     inkscape:window-width="1920"
     inkscape:window-height="1013"
     id="namedview30"
     showgrid="false"
     inkscape:zoom="7.1996622"
     inkscape:cx="25.600418"
     inkscape:cy="44.730946"
     inkscape:window-x="0"
     inkscape:window-y="0"
     inkscape:window-maximized="1"
     inkscape:current-layer="svg28"
     inkscape:snap-global="false"
     inkscape:measure-start="0,0"
     inkscape:measure-end="0,0" />
  <defs
     id="defs8">
    <clipPath
       id="clipPath4334-6"
       clipPathUnits="userSpaceOnUse">
      <path
         fill="#fe9700"
         d="m160 238-19.09 14.324c-0.0411 0.0267-0.0783 0.0583-0.11719 0.0879l-0.0234 0.0176v0.002c-0.47 0.37-0.77 0.93-0.77 1.57v24c0 1.108 0.892 2 2 2h36c1.108 0 2-0.892 2-2v-24c0-0.65501-0.31697-1.2294-0.80078-1.5938l0.008-0.0117-19.21-14.4z"
         id="path2" />
    </clipPath>
    <filter
       id="filter4338"
       style="color-interpolation-filters:sRGB"
       height="1.134"
       width="1.109"
       y="-.07"
       x="-.05">
      <feGaussianBlur
         stdDeviation=".725"
         id="feGaussianBlur5" />
    </filter>
    <linearGradient
       xlink:href="#0"
       id="1"
       x1="317.89999"
       y1="569.02002"
       x2="317.98001"
       y2="473.20001"
       gradientUnits="userSpaceOnUse"
       gradientTransform="matrix(1.6324827,0,0,1.6324827,-610.0569,-135.39182)" />
    <linearGradient
       id="0">
      <stop
         stop-color="#124da4"
         id="stop2" />
      <stop
         offset="1"
         stop-color="#2896ff"
         id="stop4" />
    </linearGradient>
    <linearGradient
       xlink:href="#0"
       id="2"
       x1="205.03"
       y1="573.23999"
       x2="204.7"
       y2="473.57999"
       gradientUnits="userSpaceOnUse"
       gradientTransform="translate(-310.19882,39.161312)" />
    <clipPath
       clipPathUnits="userSpaceOnUse"
       id="clipPath903">
      <g
         transform="matrix(0.1740193,0,0,0.1740193,-3.0428558,9.2942223)"
         id="g907"
         style="fill:#4d4d4d">
        <path
           inkscape:connector-curvature="0"
           d="m 183.00752,283.11593 c 0,-0.23225 1.90244,-1.39281 4.22764,-2.57905 5.1761,-2.64064 11.93236,-7.0572 11.48308,-7.50647 -0.18146,-0.18146 -2.60346,0.53394 -5.38222,1.58979 -11.65519,4.42862 -32.01478,8.38893 -37.6191,7.3176 -2.64221,-0.85662 -4.50912,-2.5157 -0.8476,-2.93963 0.35101,-0.50109 3.89414,-2.82494 7.87362,-5.16411 8.78088,-5.16147 20.73583,-14.71919 24.61226,-19.67696 1.56622,-2.00313 2.69122,-3.76132 2.5,-3.9071 -0.19122,-0.14577 -20.49768,-7.03609 -45.12546,-15.31182 -50.095075,-16.83357 -45.707417,-16.25933 -37.16356,-4.86385 0.85507,1.49209 1.31015,2.98419 -1.03478,3.27628 -5.89028,-0.95586 -15.664193,-6.11913 -21.477849,-11.34611 -2.818181,-2.53379 -5.332597,-4.39825 -5.58759,-4.14326 -0.522549,0.52255 2.307636,8.9527 5.335983,15.89407 2.086924,4.7835 8.424307,11.41381 15.434296,16.14771 4.93005,3.32929 3.02879,3.54898 -3.40787,0.39378 -4.356534,-2.13554 -4.711184,-2.17117 -5.143842,-0.51668 -0.255449,2.29652 0.93212,1.91686 -1.177013,2.32093 -4.159589,-0.78149 -13.775176,-5.8279 -21.408035,-11.23527 -22.190299,-15.72004 -38.527458,-41.42954 -45.736213,-71.97396 -1.96234,-8.31468 -2.653931,-14.46342 -3.063737,-27.2388 -0.619322,-19.30686 0.383702,-27.39576 5.116546,-41.26248 8.532611,-24.999614 26.579347,-44.415293 54.528228,-58.664486 8.104535,-4.131939 12.09158,-6.757523 13.087565,-8.618539 0.787786,-1.471991 4.93866,-5.974844 9.224161,-10.00634 8.43875,-7.938567 19.80328,-14.46208 25.13585,-14.428582 l 3.11564,0.01957 -4.19068,3.514092 c -4.0397,3.387479 -14.30933,15.520672 -14.30933,16.905946 0,1.480455 4.60103,-0.92571 9.67894,-5.061718 5.95431,-4.849849 11.1932,-7.858662 12.10163,-6.950233 0.32709,0.327086 -1.38342,2.610267 -3.80114,5.073736 -2.41771,2.463469 -4.09287,4.479035 -3.72258,4.479035 0.3703,0 2.82649,-0.761279 5.45821,-1.691732 3.87709,-1.370755 8.67447,-1.701054 25.28495,-1.740867 22.18123,-0.05317 30.6664,1.05367 46.81267,6.106413 8.53488,2.670865 28.39119,12.344447 35.91744,17.498225 15.80848,10.825237 30.99225,31.245077 37.87893,50.94135 4.06946,11.63888 5.40766,20.12016 6.05997,38.4072 0.64401,18.05464 -0.30993,30.14082 -3.62909,45.97941 -6.14554,29.32575 -14.10934,46.3275 -30.18823,64.44829 -10.07377,11.35305 -13.86575,14.647 -14.91226,12.95371 -0.46679,-0.75529 -2.94639,0.91814 -7.13676,4.81643 -3.5318,3.28562 -8.48099,7.18083 -10.99822,8.65602 -6.0259,3.53141 -19.06685,8.24816 -25.31833,9.15733 -2.74237,0.39883 -5.77362,0.86649 -6.73612,1.03926 -0.9625,0.17277 -1.75,0.12411 -1.75,-0.10813 z m 19.76761,-52.26224 c 6.29474,-12.27316 10.99079,-24.28536 13.76134,-35.20067 3.48259,-9.42887 5.76948,-18.87769 6.39162,-29 -0.01,-4.49367 -0.012,-4.49669 -1.71511,-2.14975 -4.93084,6.79504 -9.61457,10.96865 -15.71829,14.00637 -3.73092,1.85681 -7.07777,2.95278 -7.5562,2.47435 -0.47842,-0.47842 0.23367,-3.06729 1.60769,-5.84489 3.47489,-7.02456 5.5907,-18.25149 5.24983,-27.85671 -0.26582,-7.49059 -0.46007,-8.1538 -2.47204,-8.44021 -1.20096,-0.17097 -22.46688,7.63836 -47.25762,17.35406 -24.79073,9.7157 -44.48898,18.60198 -46.32045,17.18663 -2.48294,-1.9188 -7.97378,-10.4332 -16.196137,-22.60031 -9.928955,-14.69246 -15.284339,-21.78745 -15.946001,-21.12579 -1.978452,1.97846 -3.186718,0.58088 -4.230375,-4.89319 -0.250557,-1.3142 -1.05985,-3.7892 -1.798429,-5.5 -1.864761,-4.31944 -14.978014,-23.11056 -16.127541,-23.11056 -0.516946,0 -2.243348,3.825 -3.836449,8.5 -5.216425,15.30774 -4.602934,36.24005 1.407425,48.02132 l 2.02977,3.97868 h -2.069984 c -3.255635,0 -7.292766,-2.50725 -11.454477,-7.11376 l -3.833512,-4.24324 0.696896,8.4285 c 0.914254,11.05732 4.013056,26.10412 7.241445,35.16217 1.424391,3.99648 2.879868,7.58076 3.234393,7.96505 0.354525,0.3843 33.269591,11.48757 73.144596,24.67393 64.66861,21.38542 72.67642,23.81606 74.13325,22.50195 0.89828,-0.81029 4.33375,-6.73856 7.63436,-13.17393 z m -45.03531,-81.47288 c 37.77646,-14.71334 44.23383,-17.5197 44.24274,-19.22779 0.0117,-2.24501 -5.72497,-19.5738 -6.87642,-20.77155 -0.67072,-0.6977 -13.5526,-3.31682 -43.09862,-8.76272 -5.775,-1.06445 -14.1,-1.94184 -18.5,-1.94976 -6.78703,-0.0122 -8.90972,0.42362 -14.00001,2.87448 -9.71954,2.83273 -18.58114,7.25565 -26.869931,14.10955 -1.162392,1.25 -2.847137,2.10925 -5.160545,3.46499 -2.773863,1.54936 -4.622621,1.179 -5.491441,4.06142 -1.478236,1.78117 25.045287,41.25815 28.460747,44.73591 0.63875,0.6504 22.96572,-9.05924 47.29348,-18.53453 z M 75.007515,101.58689 c 0,-12.752624 -1.476602,-15.027007 -10.715123,-16.504306 -3.412057,-0.54561 -4.132239,-0.311464 -5.510126,1.791457 -1.530396,2.335681 -1.377197,2.744287 4.442571,11.849039 3.315194,5.18647 6.744245,10.24726 7.620111,11.24621 1.515934,1.72896 1.654259,1.73179 2.877526,0.0589 0.74326,-1.0165 1.285041,-4.57539 1.285041,-8.4413 z m 27.171265,-5.58886 c 1.14873,-1.03959 1.82873,-3.041362 1.82873,-5.383365 0,-3.000377 -0.42958,-3.840719 -2.20004,-4.303704 -1.21002,-0.316427 -2.264185,-0.361193 -3.666662,0.307939 -2.121714,1.012277 -3.68448,2.346324 -3.938084,6.292024 -0.304602,4.739156 -0.30279,4.742096 2.921259,4.742096 1.774328,0 4.048977,-0.74474 5.054797,-1.65499 z"
           id="path905"
           style="fill:#4d4d4d;stroke:none" />
      </g>
    </clipPath>
  </defs>
  <path
     style="opacity:1;fill:#2755a8;fill-opacity:1;stroke:none;stroke-width:0.35695893;stroke-linecap:round;stroke-linejoin:round;stroke-miterlimit:4;stroke-dasharray:none;stroke-opacity:1;paint-order:stroke fill markers"
     d="m 23.898437,0.60671846 c -0.935544,0 -1.871029,0.326948 -2.587891,0.98046904 L 3.5253909,17.800077 v 7.59375 L 21.310546,41.606718 c 1.433723,1.307042 3.742058,1.307042 5.175781,0 L 44.999999,24.729764 V 18.464139 L 26.486327,1.5871875 C 25.769465,0.93366646 24.83398,0.60671846 23.898437,0.60671846 Z"
     id="rect843"
     inkscape:connector-curvature="0" />
  <rect
     ry="3.0300622"
     rx="3.0300622"
     y="6.4224911"
     x="7.0847125"
     height="39.012642"
     width="34.355961"
     id="rect859"
     style="opacity:0.91300001;fill:#ffffff;fill-opacity:1;stroke:#000000;stroke-width:0.29569098;stroke-linecap:round;stroke-linejoin:round;stroke-miterlimit:4;stroke-dasharray:none;stroke-opacity:1;paint-order:stroke fill markers" />
  <g
     transform="matrix(0.10671522,0,0,0.10671522,8.1344101,6.6200319)"
     id="layer3"
     style="fill:#2755a8;fill-opacity:1">
    <path
       inkscape:connector-curvature="0"
       d="m 183.00752,283.11593 c 0,-0.23225 1.90244,-1.39281 4.22764,-2.57905 5.1761,-2.64064 11.93236,-7.0572 11.48308,-7.50647 -0.18146,-0.18146 -2.60346,0.53394 -5.38222,1.58979 -11.65519,4.42862 -32.01478,8.38893 -37.6191,7.3176 -2.64221,-0.85662 -4.50912,-2.5157 -0.8476,-2.93963 0.35101,-0.50109 3.89414,-2.82494 7.87362,-5.16411 8.78088,-5.16147 20.73583,-14.71919 24.61226,-19.67696 1.56622,-2.00313 2.69122,-3.76132 2.5,-3.9071 -0.19122,-0.14577 -20.49768,-7.03609 -45.12546,-15.31182 -50.095075,-16.83357 -45.707417,-16.25933 -37.16356,-4.86385 0.85507,1.49209 1.31015,2.98419 -1.03478,3.27628 -5.89028,-0.95586 -15.664193,-6.11913 -21.477849,-11.34611 -2.818181,-2.53379 -5.332597,-4.39825 -5.58759,-4.14326 -0.522549,0.52255 2.307636,8.9527 5.335983,15.89407 2.086924,4.7835 8.424307,11.41381 15.434296,16.14771 4.93005,3.32929 3.02879,3.54898 -3.40787,0.39378 -4.356534,-2.13554 -4.711184,-2.17117 -5.143842,-0.51668 -0.255449,2.29652 0.93212,1.91686 -1.177013,2.32093 -4.159589,-0.78149 -13.775176,-5.8279 -21.408035,-11.23527 -22.190299,-15.72004 -38.527458,-41.42954 -45.736213,-71.97396 -1.96234,-8.31468 -2.653931,-14.46342 -3.063737,-27.2388 -0.619322,-19.30686 0.383702,-27.39576 5.116546,-41.26248 8.532611,-24.999614 26.579347,-44.415293 54.528228,-58.664486 8.104535,-4.131939 12.09158,-6.757523 13.087565,-8.618539 0.787786,-1.471991 4.93866,-5.974844 9.224161,-10.00634 8.43875,-7.938567 19.80328,-14.46208 25.13585,-14.428582 l 3.11564,0.01957 -4.19068,3.514092 c -4.0397,3.387479 -14.30933,15.520672 -14.30933,16.905946 0,1.480455 4.60103,-0.92571 9.67894,-5.061718 5.95431,-4.849849 11.1932,-7.858662 12.10163,-6.950233 0.32709,0.327086 -1.38342,2.610267 -3.80114,5.073736 -2.41771,2.463469 -4.09287,4.479035 -3.72258,4.479035 0.3703,0 2.82649,-0.761279 5.45821,-1.691732 3.87709,-1.370755 8.67447,-1.701054 25.28495,-1.740867 22.18123,-0.05317 30.6664,1.05367 46.81267,6.106413 8.53488,2.670865 28.39119,12.344447 35.91744,17.498225 15.80848,10.825237 30.99225,31.245077 37.87893,50.94135 4.06946,11.63888 5.40766,20.12016 6.05997,38.4072 0.64401,18.05464 -0.30993,30.14082 -3.62909,45.97941 -6.14554,29.32575 -14.10934,46.3275 -30.18823,64.44829 -10.07377,11.35305 -13.86575,14.647 -14.91226,12.95371 -0.46679,-0.75529 -2.94639,0.91814 -7.13676,4.81643 -3.5318,3.28562 -8.48099,7.18083 -10.99822,8.65602 -6.0259,3.53141 -19.06685,8.24816 -25.31833,9.15733 -2.74237,0.39883 -5.77362,0.86649 -6.73612,1.03926 -0.9625,0.17277 -1.75,0.12411 -1.75,-0.10813 z m 19.76761,-52.26224 c 6.29474,-12.27316 10.99079,-24.28536 13.76134,-35.20067 3.48259,-9.42887 5.76948,-18.87769 6.39162,-29 -0.01,-4.49367 -0.012,-4.49669 -1.71511,-2.14975 -4.93084,6.79504 -9.61457,10.96865 -15.71829,14.00637 -3.73092,1.85681 -7.07777,2.95278 -7.5562,2.47435 -0.47842,-0.47842 0.23367,-3.06729 1.60769,-5.84489 3.47489,-7.02456 5.5907,-18.25149 5.24983,-27.85671 -0.26582,-7.49059 -0.46007,-8.1538 -2.47204,-8.44021 -1.20096,-0.17097 -22.46688,7.63836 -47.25762,17.35406 -24.79073,9.7157 -44.48898,18.60198 -46.32045,17.18663 -2.48294,-1.9188 -7.97378,-10.4332 -16.196137,-22.60031 -9.928955,-14.69246 -15.284339,-21.78745 -15.946001,-21.12579 -1.978452,1.97846 -3.186718,0.58088 -4.230375,-4.89319 -0.250557,-1.3142 -1.05985,-3.7892 -1.798429,-5.5 -1.864761,-4.31944 -14.978014,-23.11056 -16.127541,-23.11056 -0.516946,0 -2.243348,3.825 -3.836449,8.5 -5.216425,15.30774 -4.602934,36.24005 1.407425,48.02132 l 2.02977,3.97868 h -2.069984 c -3.255635,0 -7.292766,-2.50725 -11.454477,-7.11376 l -3.833512,-4.24324 0.696896,8.4285 c 0.914254,11.05732 4.013056,26.10412 7.241445,35.16217 1.424391,3.99648 2.879868,7.58076 3.234393,7.96505 0.354525,0.3843 33.269591,11.48757 73.144596,24.67393 64.66861,21.38542 72.67642,23.81606 74.13325,22.50195 0.89828,-0.81029 4.33375,-6.73856 7.63436,-13.17393 z m -45.03531,-81.47288 c 37.77646,-14.71334 44.23383,-17.5197 44.24274,-19.22779 0.0117,-2.24501 -5.72497,-19.5738 -6.87642,-20.77155 -0.67072,-0.6977 -13.5526,-3.31682 -43.09862,-8.76272 -5.775,-1.06445 -14.1,-1.94184 -18.5,-1.94976 -6.78703,-0.0122 -8.90972,0.42362 -14.00001,2.87448 -9.71954,2.83273 -18.58114,7.25565 -26.869931,14.10955 -1.162392,1.25 -2.847137,2.10925 -5.160545,3.46499 -2.773863,1.54936 -4.622621,1.179 -5.491441,4.06142 -1.478236,1.78117 25.045287,41.25815 28.460747,44.73591 0.63875,0.6504 22.96572,-9.05924 47.29348,-18.53453 z M 75.007515,101.58689 c 0,-12.752624 -1.476602,-15.027007 -10.715123,-16.504306 -3.412057,-0.54561 -4.132239,-0.311464 -5.510126,1.791457 -1.530396,2.335681 -1.377197,2.744287 4.442571,11.849039 3.315194,5.18647 6.744245,10.24726 7.620111,11.24621 1.515934,1.72896 1.654259,1.73179 2.877526,0.0589 0.74326,-1.0165 1.285041,-4.57539 1.285041,-8.4413 z m 27.171265,-5.58886 c 1.14873,-1.03959 1.82873,-3.041362 1.82873,-5.383365 0,-3.000377 -0.42958,-3.840719 -2.20004,-4.303704 -1.21002,-0.316427 -2.264185,-0.361193 -3.666662,0.307939 -2.121714,1.012277 -3.68448,2.346324 -3.938084,6.292024 -0.304602,4.739156 -0.30279,4.742096 2.921259,4.742096 1.774328,0 4.048977,-0.74474 5.054797,-1.65499 z"
       id="path3143-6"
       style="fill:#2755a8;fill-opacity:1;stroke:none" />
  </g>
  <path
     inkscape:connector-curvature="0"
     style="fill:#346db4;fill-opacity:1;stroke-width:1.22714341"
     d="m 3.5253909,18.086161 v 26.003906 c 0,2.026476 1.631727,3.658203 3.658203,3.658203 H 41.341796 c 1.296892,0 2.426948,-0.671308 3.076172,-1.683594 z"
     id="path829" />
  <path
     inkscape:connector-curvature="0"
     style="fill:#3f99d8;fill-opacity:1;stroke-width:1.24278879"
     d="M 44.999999,18.353739 4.2363279,46.244364 c 0.66426,0.908883 1.730348,1.503906 2.947266,1.503906 H 41.341796 c 2.026476,0 3.658203,-1.631727 3.658203,-3.658203 z"
     id="path836" />
</svg>
