<?xml version="1.0" encoding="UTF-8"?>
<svg xmlns="http://www.w3.org/2000/svg" xmlns:xlink="http://www.w3.org/1999/xlink" width="48px" height="48px" viewBox="0 0 48 48" version="1.1">
<g id="surface1">
<path style=" stroke:none;fill-rule:nonzero;fill:rgb(80.000001%,80.000001%,80.000001%);fill-opacity:1;" d="M 6.933594 0.386719 L 41.25 0.386719 C 43.285156 0.386719 44.929688 2.035156 44.929688 4.058594 L 44.929688 44.035156 C 44.929688 46.058594 43.285156 47.707031 41.25 47.707031 L 6.933594 47.707031 C 4.898438 47.707031 3.253906 46.058594 3.253906 44.035156 L 3.253906 4.058594 C 3.253906 2.035156 4.898438 0.386719 6.933594 0.386719 Z M 6.933594 0.386719 "/>
<path style=" stroke:none;fill-rule:nonzero;fill:rgb(40.000001%,40.000001%,40.000001%);fill-opacity:1;" d="M 12.75 13.878906 L 10.582031 13.878906 C 9.910156 13.878906 9.355469 14.433594 9.355469 15.105469 L 9.355469 16.050781 C 9.355469 16.722656 9.910156 17.273438 10.582031 17.273438 L 12.75 17.273438 Z M 12.75 13.878906 "/>
<path style=" stroke:none;fill-rule:nonzero;fill:rgb(40.000001%,40.000001%,40.000001%);fill-opacity:1;" d="M 12.75 19.222656 L 10.582031 19.222656 C 9.910156 19.222656 9.355469 19.777344 9.355469 20.449219 L 9.355469 21.394531 C 9.355469 22.066406 9.910156 22.617188 10.582031 22.617188 L 12.75 22.617188 Z M 12.75 19.222656 "/>
<path style=" stroke:none;fill-rule:nonzero;fill:rgb(40.000001%,40.000001%,40.000001%);fill-opacity:1;" d="M 12.75 24.566406 L 10.582031 24.566406 C 9.910156 24.566406 9.355469 25.121094 9.355469 25.792969 L 9.355469 26.738281 C 9.355469 27.410156 9.910156 27.960938 10.582031 27.960938 L 12.75 27.960938 Z M 12.75 24.566406 "/>
<path style=" stroke:none;fill-rule:nonzero;fill:rgb(40.000001%,40.000001%,40.000001%);fill-opacity:1;" d="M 12.75 29.910156 L 10.582031 29.910156 C 9.910156 29.910156 9.355469 30.464844 9.355469 31.136719 L 9.355469 32.082031 C 9.355469 32.753906 9.910156 33.304688 10.582031 33.304688 L 12.75 33.304688 Z M 12.75 29.910156 "/>
<path style=" stroke:none;fill-rule:nonzero;fill:rgb(40.000001%,40.000001%,40.000001%);fill-opacity:1;" d="M 14.488281 35.050781 L 14.488281 37.214844 C 14.488281 37.894531 15.042969 38.441406 15.714844 38.441406 L 16.660156 38.441406 C 17.339844 38.441406 17.882812 37.894531 17.882812 37.214844 L 17.882812 35.050781 Z M 14.488281 35.050781 "/>
<path style=" stroke:none;fill-rule:nonzero;fill:rgb(40.000001%,40.000001%,40.000001%);fill-opacity:1;" d="M 19.832031 35.050781 L 19.832031 37.214844 C 19.832031 37.894531 20.386719 38.441406 21.058594 38.441406 L 22.003906 38.441406 C 22.683594 38.441406 23.226562 37.894531 23.226562 37.214844 L 23.226562 35.050781 Z M 19.832031 35.050781 "/>
<path style=" stroke:none;fill-rule:nonzero;fill:rgb(40.000001%,40.000001%,40.000001%);fill-opacity:1;" d="M 25.175781 35.050781 L 25.175781 37.214844 C 25.175781 37.894531 25.730469 38.441406 26.402344 38.441406 L 27.347656 38.441406 C 28.019531 38.441406 28.570312 37.894531 28.570312 37.214844 L 28.570312 35.050781 Z M 25.175781 35.050781 "/>
<path style=" stroke:none;fill-rule:nonzero;fill:rgb(40.000001%,40.000001%,40.000001%);fill-opacity:1;" d="M 30.519531 35.050781 L 30.519531 37.214844 C 30.519531 37.894531 31.074219 38.441406 31.746094 38.441406 L 32.691406 38.441406 C 33.363281 38.441406 33.914062 37.894531 33.914062 37.214844 L 33.914062 35.050781 Z M 30.519531 35.050781 "/>
<path style=" stroke:none;fill-rule:nonzero;fill:rgb(40.000001%,40.000001%,40.000001%);fill-opacity:1;" d="M 37.828125 13.878906 L 35.660156 13.878906 L 35.660156 17.273438 L 37.828125 17.273438 C 38.503906 17.273438 39.050781 16.722656 39.050781 16.050781 L 39.050781 15.105469 C 39.050781 14.433594 38.503906 13.878906 37.828125 13.878906 Z M 37.828125 13.878906 "/>
<path style=" stroke:none;fill-rule:nonzero;fill:rgb(40.000001%,40.000001%,40.000001%);fill-opacity:1;" d="M 37.828125 19.222656 L 35.660156 19.222656 L 35.660156 22.617188 L 37.828125 22.617188 C 38.503906 22.617188 39.050781 22.066406 39.050781 21.394531 L 39.050781 20.449219 C 39.050781 19.777344 38.503906 19.222656 37.828125 19.222656 Z M 37.828125 19.222656 "/>
<path style=" stroke:none;fill-rule:nonzero;fill:rgb(40.000001%,40.000001%,40.000001%);fill-opacity:1;" d="M 37.828125 24.566406 L 35.660156 24.566406 L 35.660156 27.960938 L 37.828125 27.960938 C 38.503906 27.960938 39.050781 27.410156 39.050781 26.738281 L 39.050781 25.792969 C 39.050781 25.121094 38.503906 24.566406 37.828125 24.566406 Z M 37.828125 24.566406 "/>
<path style=" stroke:none;fill-rule:nonzero;fill:rgb(40.000001%,40.000001%,40.000001%);fill-opacity:1;" d="M 37.828125 29.910156 L 35.660156 29.910156 L 35.660156 33.304688 L 37.828125 33.304688 C 38.503906 33.304688 39.050781 32.753906 39.050781 32.082031 L 39.050781 31.136719 C 39.050781 30.464844 38.503906 29.910156 37.828125 29.910156 Z M 37.828125 29.910156 "/>
<path style=" stroke:none;fill-rule:nonzero;fill:rgb(40.000001%,40.000001%,40.000001%);fill-opacity:1;" d="M 17.882812 12.136719 L 17.882812 9.972656 C 17.882812 9.292969 17.339844 8.746094 16.660156 8.746094 L 15.714844 8.746094 C 15.042969 8.746094 14.488281 9.292969 14.488281 9.972656 L 14.488281 12.136719 Z M 17.882812 12.136719 "/>
<path style=" stroke:none;fill-rule:nonzero;fill:rgb(40.000001%,40.000001%,40.000001%);fill-opacity:1;" d="M 23.226562 12.136719 L 23.226562 9.972656 C 23.226562 9.292969 22.683594 8.746094 22.003906 8.746094 L 21.058594 8.746094 C 20.386719 8.746094 19.832031 9.292969 19.832031 9.972656 L 19.832031 12.136719 Z M 23.226562 12.136719 "/>
<path style=" stroke:none;fill-rule:nonzero;fill:rgb(40.000001%,40.000001%,40.000001%);fill-opacity:1;" d="M 28.570312 12.136719 L 28.570312 9.972656 C 28.570312 9.292969 28.019531 8.746094 27.347656 8.746094 L 26.402344 8.746094 C 25.730469 8.746094 25.175781 9.292969 25.175781 9.972656 L 25.175781 12.136719 Z M 28.570312 12.136719 "/>
<path style=" stroke:none;fill-rule:nonzero;fill:rgb(40.000001%,40.000001%,40.000001%);fill-opacity:1;" d="M 33.914062 12.136719 L 33.914062 9.972656 C 33.914062 9.292969 33.363281 8.746094 32.691406 8.746094 L 31.746094 8.746094 C 31.074219 8.746094 30.519531 9.292969 30.519531 9.972656 L 30.519531 12.136719 Z M 33.914062 12.136719 "/>
<path style=" stroke:none;fill-rule:nonzero;fill:rgb(20%,20%,20%);fill-opacity:1;" d="M 34.480469 35.222656 L 13.925781 35.222656 C 13.175781 35.222656 12.574219 34.617188 12.574219 33.871094 L 12.574219 13.3125 C 12.574219 12.566406 13.175781 11.964844 13.925781 11.964844 L 34.480469 11.964844 C 35.226562 11.964844 35.832031 12.566406 35.832031 13.3125 L 35.832031 33.871094 C 35.832031 34.617188 35.226562 35.222656 34.480469 35.222656 Z M 34.480469 35.222656 "/>
<path style=" stroke:none;fill-rule:nonzero;fill:rgb(30.19608%,30.19608%,30.19608%);fill-opacity:1;" d="M 33.183594 26.714844 L 33.183594 15.722656 C 33.183594 15.113281 32.683594 14.613281 32.074219 14.613281 L 16.335938 14.613281 C 15.722656 14.613281 15.230469 15.113281 15.230469 15.722656 L 15.230469 31.464844 C 15.230469 32.074219 15.722656 32.574219 16.335938 32.574219 L 27.324219 32.574219 C 27.613281 32.574219 27.902344 32.457031 28.105469 32.246094 L 32.855469 27.496094 C 33.066406 27.285156 33.183594 27.003906 33.183594 26.714844 Z M 33.183594 26.714844 "/>
<path style=" stroke:none;fill-rule:nonzero;fill:rgb(94.901961%,94.509804%,93.725491%);fill-opacity:1;" d="M 21.707031 24.597656 L 21.707031 17.738281 C 21.707031 16.738281 22.464844 15.941406 23.457031 15.941406 C 24.445312 15.941406 25.207031 16.738281 25.207031 17.738281 L 25.207031 24.597656 C 25.207031 24.980469 25.394531 25.339844 25.667969 25.621094 C 26.199219 26.160156 26.519531 26.902344 26.519531 27.722656 C 26.53125 29.347656 25.207031 30.75 23.574219 30.808594 C 21.824219 30.886719 20.394531 29.484375 20.394531 27.75 C 20.394531 26.917969 20.714844 26.175781 21.257812 25.621094 C 21.503906 25.339844 21.707031 24.980469 21.707031 24.597656 Z M 21.707031 24.597656 "/>
<path style=" stroke:none;fill-rule:nonzero;fill:rgb(88.627452%,34.117648%,29.803923%);fill-opacity:1;" d="M 25.933594 27.75 C 25.933594 29.121094 24.824219 30.230469 23.457031 30.230469 C 22.082031 30.230469 20.976562 29.121094 20.976562 27.75 C 20.976562 26.800781 21.503906 25.988281 22.289062 25.566406 L 22.289062 19.148438 L 24.621094 19.148438 L 24.621094 25.566406 C 25.410156 25.988281 25.933594 26.800781 25.933594 27.75 Z M 25.933594 27.75 "/>
</g>
</svg>
