<?xml version="1.0" encoding="UTF-8" standalone="no"?>
<!-- Created with Inkscape (http://www.inkscape.org/) -->

<svg
   xmlns:dc="http://purl.org/dc/elements/1.1/"
   xmlns:cc="http://creativecommons.org/ns#"
   xmlns:rdf="http://www.w3.org/1999/02/22-rdf-syntax-ns#"
   xmlns:svg="http://www.w3.org/2000/svg"
   xmlns="http://www.w3.org/2000/svg"
   xmlns:xlink="http://www.w3.org/1999/xlink"
   xmlns:sodipodi="http://sodipodi.sourceforge.net/DTD/sodipodi-0.dtd"
   xmlns:inkscape="http://www.inkscape.org/namespaces/inkscape"
   version="1.0"
   width="48"
   height="48"
   id="svg3437"
   inkscape:version="0.92.2 2405546, 2018-03-11"
   sodipodi:docname="folder-remote.svg">
  <metadata
     id="metadata101">
    <rdf:RDF>
      <cc:Work
         rdf:about="">
        <dc:format>image/svg+xml</dc:format>
        <dc:type
           rdf:resource="http://purl.org/dc/dcmitype/StillImage" />
        <dc:title />
      </cc:Work>
    </rdf:RDF>
  </metadata>
  <sodipodi:namedview
     pagecolor="#ffffff"
     bordercolor="#666666"
     borderopacity="1"
     objecttolerance="10"
     gridtolerance="10"
     guidetolerance="10"
     inkscape:pageopacity="0"
     inkscape:pageshadow="2"
     inkscape:window-width="1920"
     inkscape:window-height="1012"
     id="namedview99"
     showgrid="true"
     inkscape:zoom="9.8333331"
     inkscape:cx="38.861522"
     inkscape:cy="24.093244"
     inkscape:window-x="0"
     inkscape:window-y="38"
     inkscape:window-maximized="1"
     inkscape:current-layer="svg3437"
     inkscape:snap-to-guides="false"
     inkscape:snap-grids="false"
     showguides="true"
     inkscape:guide-bbox="true">
    <inkscape:grid
       type="xygrid"
       id="grid911" />
  </sodipodi:namedview>
  <defs
     id="defs3439">
    <linearGradient
       id="linearGradient921">
      <stop
         offset="0"
         style="stop-color:#ffffff;stop-opacity:1"
         id="stop923" />
      <stop
         offset="0.69999999"
         style="stop-color:#ffffff;stop-opacity:1"
         id="stop925" />
      <stop
         offset="1"
         style="stop-color:#ffffff;stop-opacity:0"
         id="stop927" />
    </linearGradient>
    <linearGradient
       id="linearGradient8265-821-176-38-919-66-249">
      <stop
         id="stop2687"
         style="stop-color:#ffffff;stop-opacity:1"
         offset="0" />
      <stop
         id="stop2689"
         style="stop-color:#ffffff;stop-opacity:0"
         offset="1" />
    </linearGradient>
    <linearGradient
       id="linearGradient3390">
      <stop
         id="stop3392"
         style="stop-color:#344960;stop-opacity:1;"
         offset="0" />
      <stop
         id="stop3394"
         style="stop-color:#5e778e;stop-opacity:1;"
         offset="1" />
    </linearGradient>
    <linearGradient
       id="linearGradient7012-661-145-733-759-865-745">
      <stop
         id="stop2699"
         style="stop-color:#9cbbd9;stop-opacity:1"
         offset="0" />
      <stop
         id="stop2701"
         style="stop-color:#5c82ab;stop-opacity:1"
         offset="1" />
    </linearGradient>
    <linearGradient
       id="linearGradient5157">
      <stop
         id="stop5159"
         style="stop-color:#b5b5b5;stop-opacity:1;"
         offset="0" />
      <stop
         id="stop5161"
         style="stop-color:#5d5d5d;stop-opacity:1;"
         offset="1" />
    </linearGradient>
    <linearGradient
       id="linearGradient11111">
      <stop
         id="stop11113"
         style="stop-color:#ffffff;stop-opacity:1"
         offset="0" />
      <stop
         id="stop11115"
         style="stop-color:#cdcdcd;stop-opacity:1"
         offset="0.91013825" />
      <stop
         id="stop11117"
         style="stop-color:#a1a1a1;stop-opacity:1"
         offset="1" />
    </linearGradient>
    <linearGradient
       id="linearGradient5060">
      <stop
         id="stop5062"
         style="stop-color:#000000;stop-opacity:1"
         offset="0" />
      <stop
         id="stop5064"
         style="stop-color:#000000;stop-opacity:0"
         offset="1" />
    </linearGradient>
    <linearGradient
       id="linearGradient5048">
      <stop
         id="stop5050"
         style="stop-color:#000000;stop-opacity:0"
         offset="0" />
      <stop
         id="stop5056"
         style="stop-color:#000000;stop-opacity:1"
         offset="0.5" />
      <stop
         id="stop5052"
         style="stop-color:#000000;stop-opacity:0"
         offset="1" />
    </linearGradient>
    <filter
       id="filter3174-4-4"
       color-interpolation-filters="sRGB">
      <feGaussianBlur
         stdDeviation="1.71"
         id="feGaussianBlur3176-2-3" />
    </filter>
    <linearGradient
       gradientTransform="scale(1.0058652,0.994169)"
       gradientUnits="userSpaceOnUse"
       id="ButtonShadow-91-7"
       y2="7.0165396"
       x2="45.447727"
       y1="92.539597"
       x1="45.447727">
      <stop
         offset="0"
         style="stop-color:#000000;stop-opacity:1"
         id="stop3750-4-4" />
      <stop
         offset="1"
         style="stop-color:#000000;stop-opacity:0.58823532"
         id="stop3752-2-7" />
    </linearGradient>
    <linearGradient
       x1="45.447727"
       y1="92.539597"
       x2="45.447727"
       y2="7.0165396"
       id="ButtonShadow-9-1"
       gradientUnits="userSpaceOnUse"
       gradientTransform="scale(1.0058652,0.994169)">
      <stop
         id="stop3750-3-65"
         style="stop-color:#000000;stop-opacity:1"
         offset="0" />
      <stop
         id="stop3752-0-0"
         style="stop-color:#000000;stop-opacity:0.58823532"
         offset="1" />
    </linearGradient>
    <filter
       color-interpolation-filters="sRGB"
       id="filter3174-2-2">
      <feGaussianBlur
         id="feGaussianBlur3176-1-3"
         stdDeviation="1.71" />
    </filter>
    <linearGradient
       x1="45.447727"
       y1="92.539597"
       x2="45.447727"
       y2="7.0165396"
       id="ButtonShadow-0"
       gradientUnits="userSpaceOnUse"
       gradientTransform="scale(1.0058652,0.994169)">
      <stop
         id="stop3750-2"
         style="stop-color:#000000;stop-opacity:1"
         offset="0" />
      <stop
         id="stop3752-6"
         style="stop-color:#000000;stop-opacity:0.58823532"
         offset="1" />
    </linearGradient>
    <filter
       color-interpolation-filters="sRGB"
       id="filter3174-44">
      <feGaussianBlur
         id="feGaussianBlur3176-3"
         stdDeviation="1.71" />
    </filter>
    <filter
       id="filter3174-4-7"
       color-interpolation-filters="sRGB">
      <feGaussianBlur
         stdDeviation="1.71"
         id="feGaussianBlur3176-2-4" />
    </filter>
    <linearGradient
       gradientTransform="scale(1.0058652,0.994169)"
       gradientUnits="userSpaceOnUse"
       id="ButtonShadow-91-6"
       y2="7.0165396"
       x2="45.447727"
       y1="92.539597"
       x1="45.447727">
      <stop
         offset="0"
         style="stop-color:#000000;stop-opacity:1"
         id="stop3750-4-7" />
      <stop
         offset="1"
         style="stop-color:#000000;stop-opacity:0.58823532"
         id="stop3752-2-68" />
    </linearGradient>
    <linearGradient
       x1="45.447727"
       y1="92.539597"
       x2="45.447727"
       y2="7.0165396"
       id="ButtonShadow-9-2"
       gradientUnits="userSpaceOnUse"
       gradientTransform="scale(1.0058652,0.994169)">
      <stop
         id="stop3750-3-4"
         style="stop-color:#000000;stop-opacity:1"
         offset="0" />
      <stop
         id="stop3752-0-7"
         style="stop-color:#000000;stop-opacity:0.58823532"
         offset="1" />
    </linearGradient>
    <filter
       color-interpolation-filters="sRGB"
       id="filter3174-2-0">
      <feGaussianBlur
         id="feGaussianBlur3176-1-0"
         stdDeviation="1.71" />
    </filter>
    <linearGradient
       x1="45.447727"
       y1="92.539597"
       x2="45.447727"
       y2="7.0165396"
       id="ButtonShadow-3"
       gradientUnits="userSpaceOnUse"
       gradientTransform="scale(1.0058652,0.994169)">
      <stop
         id="stop3750-41"
         style="stop-color:#000000;stop-opacity:1"
         offset="0" />
      <stop
         id="stop3752-4"
         style="stop-color:#000000;stop-opacity:0.58823532"
         offset="1" />
    </linearGradient>
    <filter
       color-interpolation-filters="sRGB"
       id="filter3174-34">
      <feGaussianBlur
         id="feGaussianBlur3176-32"
         stdDeviation="1.71" />
    </filter>
    <linearGradient
       inkscape:collect="always"
       xlink:href="#ButtonShadow-3"
       id="linearGradient4045"
       gradientUnits="userSpaceOnUse"
       gradientTransform="scale(1.0058652,0.994169)"
       x1="45.447727"
       y1="92.539597"
       x2="45.447727"
       y2="7.0165396" />
    <linearGradient
       inkscape:collect="always"
       xlink:href="#ButtonShadow-91-6"
       id="linearGradient4047"
       gradientUnits="userSpaceOnUse"
       gradientTransform="scale(1.0058652,0.994169)"
       x1="45.447727"
       y1="92.539597"
       x2="45.447727"
       y2="7.0165396" />
    <linearGradient
       inkscape:collect="always"
       xlink:href="#ButtonShadow-9-2"
       id="linearGradient4049"
       gradientUnits="userSpaceOnUse"
       gradientTransform="scale(1.0058652,0.994169)"
       x1="45.447727"
       y1="92.539597"
       x2="45.447727"
       y2="7.0165396" />
  </defs>
  <g
     id="g314">
    <rect
       ry="4.3892417"
       y="5.2223401"
       x="3.5633779"
       height="38.803375"
       width="38.803375"
       id="rect4650"
       style="opacity:1;fill:#00aad4;fill-opacity:1;stroke-width:0.92794275" />
    <path
       id="rect4706"
       d="m 7.953125,5.222656 c -2.4316399,0 -4.390625,1.957032 -4.390625,4.3886719 v 1.1347661 c 0,-2.4316403 1.9589851,-4.3886723 4.390625,-4.3886723 h 30.023437 c 2.43164,0 4.390626,1.957032 4.390626,4.3886723 V 9.6113279 c 0,-2.4316399 -1.958986,-4.3886719 -4.390626,-4.3886719 z"
       style="opacity:0.4;fill:#ffffff;fill-opacity:1;stroke-width:0.92794275"
       inkscape:connector-curvature="0" />
    <path
       sodipodi:nodetypes="cccccssssssc"
       inkscape:connector-curvature="0"
       id="rect4652"
       d="m 28.16923,2.6923243 c -0.409641,0.05903 -4.448108,0.7369118 -5.109202,5.1611402 -0.775932,5.1927945 -5.43125,5.3730705 -5.43125,5.3730705 L 7.1236538,13.166283 c -4.6226479,-0.02627 -5.3267625,4.123923 -5.4353987,5.102962 v 22.1634 c 0,2.666575 2.147577,4.812078 4.814155,4.812078 H 41.555573 c 2.666578,0 4.81208,-2.145503 4.81208,-4.812078 V 7.5064789 c 0,-2.6665745 -2.145502,-4.8141546 -4.81208,-4.8141546 z"
       style="opacity:1;fill:#55ddff;fill-opacity:1;stroke-width:1.01759684" />
    <path
       id="path4696"
       d="m 1.6875,39.298828 v 1.134766 c 0,2.666575 2.1478751,4.810547 4.8144531,4.810547 H 41.554688 c 2.666578,0 4.8125,-2.143972 4.8125,-4.810547 v -1.134766 c 0,2.666575 -2.145922,4.810547 -4.8125,4.810547 H 6.5019531 c -2.666578,0 -4.8144531,-2.143972 -4.8144531,-4.810547 z"
       style="opacity:0.2;fill:#000000;fill-opacity:1;stroke-width:1.01759684"
       inkscape:connector-curvature="0" />
    <path
       id="path4701"
       d="M 28.169922,2.691406 C 27.760281,2.750436 23.721641,3.429287 23.060547,7.8535154 22.284615,13.04631 17.628906,13.226562 17.628906,13.226562 L 7.1230469,13.166016 C 2.500399,13.139746 1.7961362,17.290492 1.6875,18.269531 v 0.992188 C 1.7961362,18.28268 2.500399,14.131933 7.1230469,14.158203 l 10.5058591,0.06055 c 0,0 4.655709,-0.180252 5.431641,-5.3730471 0.661094,-4.4242284 4.699734,-5.1011262 5.109375,-5.1601562 h 13.384766 c 2.666578,0 4.8125,2.1478786 4.8125,4.8144531 V 7.5058592 c 0,-2.6665745 -2.145922,-4.8144532 -4.8125,-4.8144532 z"
       style="opacity:0.40100002;fill:#ffffff;fill-opacity:1;stroke-width:1.01759684"
       inkscape:connector-curvature="0" />
  </g>
  <path
     d="m 32.999902,26.116988 c -3.397859,0 -6.516771,1.229471 -8.999901,3.287204 l 1.33974,1.5852 c 2.122102,-1.717934 4.782406,-2.736555 7.660161,-2.736555 2.877754,0 5.538059,1.018621 7.660161,2.736555 l 1.339741,-1.5852 c -2.483131,-2.057733 -5.602043,-3.287204 -8.999902,-3.287204 z m 0,3.737734 c -2.489607,0 -4.784336,0.870343 -6.635655,2.336085 l 1.355502,1.601885 c 1.489069,-1.131318 3.307459,-1.802122 5.280153,-1.802122 1.972694,0 3.791084,0.670804 5.280151,1.802122 l 1.355503,-1.601885 c -1.85132,-1.465742 -4.146048,-2.336085 -6.635654,-2.336085 z m 0,3.737734 c -1.582654,0 -3.041078,0.522057 -4.255645,1.401651 l 1.355501,1.601885 c 0.844073,-0.54921 1.83674,-0.867689 2.900144,-0.867689 1.063404,0 2.056069,0.318479 2.900142,0.867689 l 1.355502,-1.601885 c -1.214569,-0.879594 -2.67299,-1.401651 -4.255644,-1.401651 z m 0,3.737734 c -0.671071,0 -1.30314,0.177069 -1.859875,0.483903 L 32.999902,40 34.859776,37.814093 C 34.303041,37.507259 33.670972,37.33019 32.999902,37.33019 z"
     id="path3897-7-4"
     style="opacity:1;color:black;fill:white;fill-opacity:0.50196078000000000;fill-rule:evenodd;stroke:none;stroke-width:3pt;marker:none;visibility:visible;display:inline;overflow:visible;enable-background:accumulate"
     inkscape:connector-curvature="0" />
  <path
     d="m 33.000001,24.999999 c -3.397897,0 -6.516842,1.229471 -9,3.287204 l 1.339755,1.5852 c 2.122125,-1.717934 4.782459,-2.736555 7.660245,-2.736555 2.877786,0 5.538121,1.018621 7.660246,2.736555 l 1.339755,-1.5852 C 39.516844,26.22947 36.397898,24.999999 33.000001,24.999999 z m 0,3.737734 c -2.489634,0 -4.784388,0.870343 -6.635727,2.336085 l 1.355517,1.601885 c 1.489083,-1.131318 3.307495,-1.802122 5.28021,-1.802122 1.972715,0 3.791127,0.670804 5.28021,1.802122 l 1.355517,-1.601885 c -1.85134,-1.465742 -4.146093,-2.336085 -6.635727,-2.336085 z m 0,3.737734 c -1.582672,0 -3.041111,0.522057 -4.255692,1.401651 l 1.355517,1.601885 c 0.844082,-0.54921 1.836758,-0.867689 2.900175,-0.867689 1.063417,0 2.056093,0.318479 2.900175,0.867689 l 1.355517,-1.601885 C 36.04111,32.997524 34.582672,32.475467 33.000001,32.475467 z m 0,3.737734 c -0.671077,0 -1.303154,0.177069 -1.859895,0.483903 l 1.859895,2.185907 1.859896,-2.185907 C 34.303155,36.39027 33.671079,36.213201 33.000001,36.213201 z"
     id="path3897-7"
     style="color:black;fill:#00aad4;fill-opacity:1;fill-rule:evenodd;stroke:none;stroke-width:3pt;marker:none;visibility:visible;display:inline;overflow:visible;enable-background:accumulate;opacity:1"
     inkscape:connector-curvature="0" />
  <g
     id="layer2-8"
     style="display:none"
     transform="matrix(0.99945236,0,0,1,152.99208,-179.82361)">
    <rect
       width="86"
       height="85"
       rx="6.0032878"
       ry="6"
       x="5"
       y="7"
       id="rect3745-0"
       style="opacity:0.9;fill:url(#ButtonShadow-0);fill-opacity:1;fill-rule:nonzero;stroke:none;filter:url(#filter3174-44)" />
  </g>
  <g
     id="layer4-39"
     transform="matrix(0.99945236,0,0,1,152.99208,-179.82361)" />
  <g
     id="layer2-0-0"
     style="display:none"
     transform="matrix(0.99945236,0,0,1,179.54191,-169.36975)">
    <rect
       width="86"
       height="85"
       rx="6.0032878"
       ry="6"
       x="5"
       y="7"
       id="rect3745-7-1"
       style="opacity:0.9;fill:url(#ButtonShadow-91-7);fill-opacity:1;fill-rule:nonzero;stroke:none;filter:url(#filter3174-4-4)" />
  </g>
  <g
     id="layer4-3-6"
     transform="matrix(0.99945236,0,0,1,179.54191,-169.36975)" />
  <g
     id="layer2-1-5"
     style="display:none"
     transform="matrix(0.99945236,0,0,1,235.63617,-166.43452)">
    <rect
       width="86"
       height="85"
       rx="6.0032878"
       ry="6"
       x="5"
       y="7"
       id="rect3745-1-3"
       style="opacity:0.9;fill:url(#ButtonShadow-9-1);fill-opacity:1;fill-rule:nonzero;stroke:none;filter:url(#filter3174-2-2)" />
  </g>
  <g
     id="layer4-8-2"
     transform="matrix(0.99945236,0,0,1,235.63617,-166.43452)" />
  <g
     id="layer2"
     style="display:none"
     transform="translate(129.06138,-186.10501)">
    <rect
       width="86"
       height="85"
       rx="6"
       ry="6"
       x="5"
       y="7"
       id="rect3745"
       style="opacity:0.9;fill:url(#linearGradient4045);fill-opacity:1;fill-rule:nonzero;stroke:none;filter:url(#filter3174-34)" />
  </g>
  <g
     id="layer4"
     transform="translate(129.06138,-186.10501)" />
  <g
     id="layer2-0"
     style="display:none"
     transform="translate(155.62577,-175.65115)">
    <rect
       width="86"
       height="85"
       rx="6"
       ry="6"
       x="5"
       y="7"
       id="rect3745-7"
       style="opacity:0.9;fill:url(#linearGradient4047);fill-opacity:1;fill-rule:nonzero;stroke:none;filter:url(#filter3174-4-7)" />
  </g>
  <g
     id="layer4-3"
     transform="translate(155.62577,-175.65115)" />
  <g
     id="layer2-1"
     style="display:none"
     transform="translate(211.75076,-172.71592)">
    <rect
       width="86"
       height="85"
       rx="6"
       ry="6"
       x="5"
       y="7"
       id="rect3745-1"
       style="opacity:0.9;fill:url(#linearGradient4049);fill-opacity:1;fill-rule:nonzero;stroke:none;filter:url(#filter3174-2-0)" />
  </g>
  <g
     id="layer4-8"
     transform="translate(211.75076,-172.71592)" />
</svg>
