<?xml version="1.0" encoding="UTF-8" standalone="no"?>
<!-- Created with Inkscape (http://www.inkscape.org/) -->

<svg
   xmlns:dc="http://purl.org/dc/elements/1.1/"
   xmlns:cc="http://creativecommons.org/ns#"
   xmlns:rdf="http://www.w3.org/1999/02/22-rdf-syntax-ns#"
   xmlns:svg="http://www.w3.org/2000/svg"
   xmlns="http://www.w3.org/2000/svg"
   xmlns:xlink="http://www.w3.org/1999/xlink"
   xmlns:sodipodi="http://sodipodi.sourceforge.net/DTD/sodipodi-0.dtd"
   xmlns:inkscape="http://www.inkscape.org/namespaces/inkscape"
   version="1.0"
   width="48"
   height="48"
   id="svg3437"
   inkscape:version="0.92.2 2405546, 2018-03-11"
   sodipodi:docname="user-trash.svg">
  <metadata
     id="metadata101">
    <rdf:RDF>
      <cc:Work
         rdf:about="">
        <dc:format>image/svg+xml</dc:format>
        <dc:type
           rdf:resource="http://purl.org/dc/dcmitype/StillImage" />
        <dc:title />
      </cc:Work>
    </rdf:RDF>
  </metadata>
  <sodipodi:namedview
     pagecolor="#ffffff"
     bordercolor="#666666"
     borderopacity="1"
     objecttolerance="10"
     gridtolerance="10"
     guidetolerance="10"
     inkscape:pageopacity="0"
     inkscape:pageshadow="2"
     inkscape:window-width="1920"
     inkscape:window-height="1012"
     id="namedview99"
     showgrid="true"
     inkscape:zoom="5.5886992"
     inkscape:cx="7.5838972"
     inkscape:cy="0.56216552"
     inkscape:window-x="0"
     inkscape:window-y="38"
     inkscape:window-maximized="1"
     inkscape:current-layer="svg3437"
     inkscape:snap-to-guides="false"
     inkscape:snap-grids="false"
     showguides="false"
     inkscape:guide-bbox="true"
     inkscape:snap-global="false">
    <inkscape:grid
       type="xygrid"
       id="grid911" />
  </sodipodi:namedview>
  <defs
     id="defs3439">
    <linearGradient
       id="linearGradient878">
      <stop
         id="stop880"
         offset="0"
         style="stop-color:#ffffff;stop-opacity:1;" />
      <stop
         id="stop882"
         offset="1"
         style="stop-color:#ffffff;stop-opacity:0;" />
    </linearGradient>
    <linearGradient
       id="linearGradient872">
      <stop
         id="stop874"
         offset="0"
         style="stop-color:#ffffff;stop-opacity:1;" />
      <stop
         id="stop876"
         offset="1"
         style="stop-color:#ffffff;stop-opacity:0;" />
    </linearGradient>
    <linearGradient
       id="linearGradient1153">
      <stop
         style="stop-color:#000000;stop-opacity:1;"
         offset="0"
         id="stop1155" />
      <stop
         style="stop-color:#000000;stop-opacity:0;"
         offset="1"
         id="stop1157" />
    </linearGradient>
    <linearGradient
       id="linearGradient1123">
      <stop
         style="stop-color:#757575;stop-opacity:1;"
         offset="0"
         id="stop1125" />
      <stop
         style="stop-color:#a9a9a9;stop-opacity:1;"
         offset="1"
         id="stop1127" />
    </linearGradient>
    <linearGradient
       id="linearGradient6288-0">
      <stop
         id="stop6290-8"
         offset="0"
         style="stop-color:#ababab;stop-opacity:1;" />
      <stop
         id="stop6292-0"
         offset="1"
         style="stop-color:#f1f1f1;stop-opacity:1;" />
    </linearGradient>
    <linearGradient
       id="linearGradient5048-4">
      <stop
         offset="0"
         style="stop-color:#000000;stop-opacity:0"
         id="stop5050-6" />
      <stop
         offset="0.5"
         style="stop-color:#000000;stop-opacity:1"
         id="stop5056-6" />
      <stop
         offset="1"
         style="stop-color:#000000;stop-opacity:0"
         id="stop5052-8" />
    </linearGradient>
    <linearGradient
       id="linearGradient5060-4">
      <stop
         offset="0"
         style="stop-color:#000000;stop-opacity:1"
         id="stop5062-5" />
      <stop
         offset="1"
         style="stop-color:#000000;stop-opacity:0"
         id="stop5064-0" />
    </linearGradient>
    <linearGradient
       gradientTransform="translate(62.611312,0.00704056)"
       inkscape:collect="always"
       xlink:href="#linearGradient6288-0"
       id="linearGradient1060-6"
       x1="4"
       y1="24"
       x2="24.124998"
       y2="24"
       gradientUnits="userSpaceOnUse"
       spreadMethod="reflect" />
  </defs>
  <g
     id="g8378"
     transform="translate(51.334604,0.37304017)" />
  <g
     id="g7666"
     transform="matrix(1.0512963,0,0,0.4615385,52.470841,21.769238)"
     style="opacity:0.5" />
  <g
     id="g3425"
     transform="matrix(-0.64501498,0,0,-0.28355502,89.693215,13.061964)"
     style="opacity:0.4" />
  <g
     id="g2894"
     transform="matrix(-0.61921377,0,0,-0.6192054,90.196325,28.79698)" />
  <g
     id="g2814"
     transform="matrix(-0.61921377,0,0,-0.6192054,90.351129,28.79698)" />
  <g
     id="g2637"
     inkscape:label="base"
     style="display:inline"
     transform="matrix(-0.61921377,0,0,-0.6192054,51.474801,-2.4323839)" />
  <g
     id="g2953"
     style="opacity:0.6"
     transform="matrix(-0.61921377,0,0,-0.6192054,89.112701,28.79698)" />
  <ellipse
     style="opacity:0.17000002;fill:#000000;fill-opacity:1;stroke:none;stroke-width:0.96813178;stroke-linecap:round;stroke-linejoin:round;stroke-miterlimit:4;stroke-dasharray:none;stroke-opacity:1"
     id="path1078"
     cx="23.734179"
     cy="46.199394"
     rx="16.141607"
     ry="1.7848893" />
  <polygon
     transform="matrix(0.09102951,0,0,0.09102951,1.1769307,0.45904621)"
     style="fill:#24ae5f"
     points="89.825,197.615 413.193,197.615 377.263,503.018 125.755,503.018 "
     id="polygon2" />
  <path
     inkscape:connector-curvature="0"
     style="fill:#1b7f43;stroke-width:0.09102951"
     d="M 38.789683,18.447843 H 9.353657 c -0.9035604,0 -1.6353467,-0.731787 -1.6353467,-1.635347 0,-0.903559 0.7317863,-1.635347 1.6353467,-1.635347 h 29.436026 c 0.903561,0 1.635347,0.731788 1.635347,1.635347 0,0.90356 -0.731786,1.635347 -1.635347,1.635347"
     id="path4-3" />
  <path
     inkscape:connector-curvature="0"
     style="fill:#24ae5f;stroke-width:0.09102951"
     d="m 24.07167,0.45913727 c -8.128479,0 -14.718013,6.58962543 -14.718013,14.71801173 h 29.436026 c 0,-8.1284771 -6.589533,-14.71801173 -14.718013,-14.71801173"
     id="path6-6" />
  <path
     inkscape:connector-curvature="0"
     style="fill:#1b7f43;stroke-width:0.09102951"
     d="m 20.352387,10.271117 h 7.438294 c 1.62879,0 3.018811,-1.1774673 3.286164,-2.7833185 l 0.795599,-4.7752261 c -2.263266,-1.419514 -4.932161,-2.25352619 -7.800591,-2.25352619 -2.869159,0 -5.538052,0.83401219 -7.80141,2.25352619 l 0.795597,4.7752261 c 0.268356,1.6058512 1.657556,2.7833185 3.286347,2.7833185"
     id="path8-7" />
  <g
     id="g1053"
     transform="matrix(0.09102951,0,0,0.09102951,1.1769307,0.9246684)"
     style="opacity:0.36500005;fill:#000000">
    <path
       id="path1035"
       d="m 163.074,335.998 c -0.406,0 -0.812,-0.026 -1.227,-0.079 -4.829,-0.671 -8.201,-5.129 -7.53,-9.958 3.319,-24.011 22.343,-69.411 70.541,-69.411 4.873,0 8.828,3.955 8.828,8.828 0,4.873 -3.955,8.828 -8.828,8.828 -45.038,0 -52.745,51.968 -53.054,54.175 -0.609,4.422 -4.396,7.617 -8.73,7.617"
       style="fill:#000000"
       inkscape:connector-curvature="0" />
    <path
       id="path1037"
       d="m 242.509,274.205 c -2.26,0 -4.52,-0.865 -6.241,-2.586 l -26.483,-26.483 c -3.452,-3.452 -3.452,-9.031 0,-12.482 3.452,-3.452 9.031,-3.452 12.482,0 l 26.483,26.483 c 3.452,3.452 3.452,9.031 0,12.482 -1.721,1.721 -3.981,2.586 -6.241,2.586"
       style="fill:#000000"
       inkscape:connector-curvature="0" />
    <path
       id="path1039"
       d="m 216.026,300.688 c -2.26,0 -4.52,-0.865 -6.241,-2.586 -3.452,-3.452 -3.452,-9.031 0,-12.482 l 26.483,-26.483 c 3.452,-3.452 9.031,-3.452 12.482,0 3.452,3.452 3.452,9.031 0,12.482 l -26.483,26.483 c -1.721,1.721 -3.981,2.586 -6.241,2.586"
       style="fill:#000000"
       inkscape:connector-curvature="0" />
    <path
       id="path1041"
       d="m 321.646,353.062 c -2.07,0.906 -4.488,1.019 -6.755,0.131 -4.545,-1.779 -6.781,-6.891 -5.002,-11.436 16.427,-41.967 -23.887,-67.808 -25.614,-68.893 -4.125,-2.58 -5.395,-8.017 -2.819,-12.15 2.575,-4.113 7.982,-5.409 12.124,-2.856 18.965,11.727 50.22,45.692 32.746,90.333 -0.886,2.267 -2.61,3.966 -4.68,4.871"
       style="fill:#000000"
       inkscape:connector-curvature="0" />
    <path
       id="path1043"
       d="m 347.562,355.352 -32.351,14.15 c -4.464,1.953 -9.673,-0.086 -11.625,-4.55 -1.952,-4.464 0.086,-9.673 4.55,-11.625 l 32.351,-14.15 c 4.464,-1.953 9.673,0.086 11.625,4.55 1.953,4.464 -0.085,9.672 -4.55,11.625"
       style="fill:#000000"
       inkscape:connector-curvature="0" />
    <path
       id="path1045"
       d="m 315.211,369.501 c -4.464,1.953 -9.673,-0.086 -11.625,-4.55 L 289.436,332.6 c -1.953,-4.464 0.086,-9.673 4.55,-11.625 4.464,-1.953 9.673,0.086 11.625,4.55 l 14.15,32.351 c 1.953,4.465 -0.086,9.673 -4.55,11.625"
       style="fill:#000000"
       inkscape:connector-curvature="0" />
    <path
       id="path1047"
       d="m 244.789,419.576 c -16.154,0 -33.589,-5.297 -49.002,-20.718 -3.452,-3.443 -3.452,-9.031 0,-12.482 3.443,-3.443 9.031,-3.443 12.482,0 31.868,31.868 71.698,5.288 73.375,4.14 4.017,-2.737 9.507,-1.721 12.262,2.286 2.763,4.008 1.766,9.49 -2.233,12.253 -10.002,6.912 -27.525,14.521 -46.884,14.521"
       style="fill:#000000"
       inkscape:connector-curvature="0" />
    <path
       id="path1049"
       d="m 189.543,424.274 c -4.873,0 -8.828,-3.955 -8.828,-8.828 v -35.31 c 0,-4.873 3.955,-8.828 8.828,-8.828 4.873,0 8.828,3.955 8.828,8.828 v 35.31 c 0,4.873 -3.955,8.828 -8.828,8.828"
       style="fill:#000000"
       inkscape:connector-curvature="0" />
    <path
       id="path1051"
       d="m 224.854,388.964 h -35.31 c -4.873,0 -8.828,-3.955 -8.828,-8.828 0,-4.873 3.955,-8.828 8.828,-8.828 h 35.31 c 4.873,0 8.828,3.955 8.828,8.828 0,4.873 -3.955,8.828 -8.828,8.828"
       style="fill:#000000"
       inkscape:connector-curvature="0" />
  </g>
  <g
     transform="matrix(0.09102951,0,0,0.09102951,1.1769307,0.45904621)"
     id="g28">
    <path
       inkscape:connector-curvature="0"
       style="fill:#ffffff"
       d="m 163.074,335.998 c -0.406,0 -0.812,-0.026 -1.227,-0.079 -4.829,-0.671 -8.201,-5.129 -7.53,-9.958 3.319,-24.011 22.343,-69.411 70.541,-69.411 4.873,0 8.828,3.955 8.828,8.828 0,4.873 -3.955,8.828 -8.828,8.828 -45.038,0 -52.745,51.968 -53.054,54.175 -0.609,4.422 -4.396,7.617 -8.73,7.617"
       id="path10" />
    <path
       inkscape:connector-curvature="0"
       style="fill:#ffffff"
       d="m 242.509,274.205 c -2.26,0 -4.52,-0.865 -6.241,-2.586 l -26.483,-26.483 c -3.452,-3.452 -3.452,-9.031 0,-12.482 3.452,-3.452 9.031,-3.452 12.482,0 l 26.483,26.483 c 3.452,3.452 3.452,9.031 0,12.482 -1.721,1.721 -3.981,2.586 -6.241,2.586"
       id="path12-5" />
    <path
       inkscape:connector-curvature="0"
       style="fill:#ffffff"
       d="m 216.026,300.688 c -2.26,0 -4.52,-0.865 -6.241,-2.586 -3.452,-3.452 -3.452,-9.031 0,-12.482 l 26.483,-26.483 c 3.452,-3.452 9.031,-3.452 12.482,0 3.452,3.452 3.452,9.031 0,12.482 l -26.483,26.483 c -1.721,1.721 -3.981,2.586 -6.241,2.586"
       id="path14" />
    <path
       inkscape:connector-curvature="0"
       style="fill:#ffffff"
       d="m 321.646,353.062 c -2.07,0.906 -4.488,1.019 -6.755,0.131 -4.545,-1.779 -6.781,-6.891 -5.002,-11.436 16.427,-41.967 -23.887,-67.808 -25.614,-68.893 -4.125,-2.58 -5.395,-8.017 -2.819,-12.15 2.575,-4.113 7.982,-5.409 12.124,-2.856 18.965,11.727 50.22,45.692 32.746,90.333 -0.886,2.267 -2.61,3.966 -4.68,4.871"
       id="path16" />
    <path
       inkscape:connector-curvature="0"
       style="fill:#ffffff"
       d="m 347.562,355.352 -32.351,14.15 c -4.464,1.953 -9.673,-0.086 -11.625,-4.55 -1.952,-4.464 0.086,-9.673 4.55,-11.625 l 32.351,-14.15 c 4.464,-1.953 9.673,0.086 11.625,4.55 1.953,4.464 -0.085,9.672 -4.55,11.625"
       id="path18" />
    <path
       inkscape:connector-curvature="0"
       style="fill:#ffffff"
       d="m 315.211,369.501 c -4.464,1.953 -9.673,-0.086 -11.625,-4.55 L 289.436,332.6 c -1.953,-4.464 0.086,-9.673 4.55,-11.625 4.464,-1.953 9.673,0.086 11.625,4.55 l 14.15,32.351 c 1.953,4.465 -0.086,9.673 -4.55,11.625"
       id="path20" />
    <path
       inkscape:connector-curvature="0"
       style="fill:#ffffff"
       d="m 244.789,419.576 c -16.154,0 -33.589,-5.297 -49.002,-20.718 -3.452,-3.443 -3.452,-9.031 0,-12.482 3.443,-3.443 9.031,-3.443 12.482,0 31.868,31.868 71.698,5.288 73.375,4.14 4.017,-2.737 9.507,-1.721 12.262,2.286 2.763,4.008 1.766,9.49 -2.233,12.253 -10.002,6.912 -27.525,14.521 -46.884,14.521"
       id="path22" />
    <path
       inkscape:connector-curvature="0"
       style="fill:#ffffff"
       d="m 189.543,424.274 c -4.873,0 -8.828,-3.955 -8.828,-8.828 v -35.31 c 0,-4.873 3.955,-8.828 8.828,-8.828 4.873,0 8.828,3.955 8.828,8.828 v 35.31 c 0,4.873 -3.955,8.828 -8.828,8.828"
       id="path24" />
    <path
       inkscape:connector-curvature="0"
       style="fill:#ffffff"
       d="m 224.854,388.964 h -35.31 c -4.873,0 -8.828,-3.955 -8.828,-8.828 0,-4.873 3.955,-8.828 8.828,-8.828 h 35.31 c 4.873,0 8.828,3.955 8.828,8.828 0,4.873 -3.955,8.828 -8.828,8.828"
       id="path26" />
  </g>
  <path
     style="opacity:0.14800002;fill:#000000;fill-opacity:1;stroke:none;stroke-width:0.85462743;stroke-linecap:round;stroke-linejoin:round;stroke-miterlimit:4;stroke-dasharray:none;stroke-opacity:1"
     d="m 9.354128,18.447904 0.2214545,1.883112 H 38.568035 l 0.221455,-1.883112 z"
     id="rect1020"
     inkscape:connector-curvature="0" />
  <path
     style="opacity:0.24500002;fill:#000000;stroke-width:0.09102951"
     d="m 7.7647772,16.439746 c -0.028207,0.120374 -0.046703,0.243099 -0.046703,0.372102 0,0.90356 0.732493,1.636056 1.6360538,1.636056 h 29.435359 c 0.90356,0 1.636057,-0.732496 1.636057,-1.636056 0,-0.128981 -0.01852,-0.251746 -0.04675,-0.372102 -0.168874,0.723364 -0.814342,1.262441 -1.589353,1.262441 H 9.354128 c -0.7749866,0 -1.4204509,-0.539109 -1.5893508,-1.262441 z"
     id="path1025"
     inkscape:connector-curvature="0" />
  <path
     style="opacity:0.26700003;fill:#000000;stroke-width:0.09102951"
     d="m 16.482854,2.5890508 c -0.07001,0.042333 -0.14316,0.080098 -0.212416,0.1235321 l 0.795429,4.7755827 c 0.268354,1.6058524 1.658375,2.7824894 3.287166,2.7824894 h 7.437555 c 1.628791,0 3.018306,-1.176638 3.285661,-2.7824894 l 0.796935,-4.7755827 c -0.06924,-0.043429 -0.14241,-0.081203 -0.212416,-0.1235321 l -0.584519,3.502596 c -0.267355,1.6058524 -1.65687,2.7824929 -3.285661,2.7824929 h -7.437555 c -1.628791,0 -3.018812,-1.1766405 -3.287166,-2.7824929 z"
     id="path1030"
     inkscape:connector-curvature="0" />
  <path
     style="opacity:0.88700005;fill:#24ae5f;fill-opacity:1;stroke:none;stroke-width:1.61317873;stroke-linecap:round;stroke-linejoin:round;stroke-miterlimit:4;stroke-dasharray:none;stroke-opacity:1"
     d="m 73.856932,31.837906 2.027506,17.23523 h 38.804152 l 2.0275,-17.23523 z"
     id="rect926"
     inkscape:connector-curvature="0" />
  <path
     id="path874"
     d="M 116.71526,31.838653 H 73.858239 c -1.315527,0 -2.380963,-1.065436 -2.380963,-2.380963 0,-1.315525 1.065436,-2.380963 2.380963,-2.380963 h 42.857021 c 1.31553,0 2.38097,1.065438 2.38097,2.380963 0,1.315527 -1.06544,2.380963 -2.38097,2.380963"
     style="fill:#1b7f43;stroke-width:0.13253328"
     inkscape:connector-curvature="0" />
  <path
     id="path876"
     d="m 95.286746,5.6482219 c -11.834557,0 -21.428507,9.5940821 -21.428507,21.4285051 h 42.857021 c 0,-11.834556 -9.59396,-21.4285051 -21.428514,-21.4285051"
     style="fill:#24ae5f;stroke-width:0.13253328"
     inkscape:connector-curvature="0" />
  <path
     id="path878"
     d="m 89.871703,19.933851 h 10.829687 c 2.37142,0 4.3952,-1.714319 4.78445,-4.052338 l 1.15834,-6.9524311 c -3.29517,-2.066723 -7.180913,-3.280993 -11.357168,-3.280993 -4.177316,0 -8.063057,1.21427 -11.358365,3.280993 l 1.15834,6.9524311 c 0.390709,2.338019 2.413298,4.052338 4.784716,4.052338"
     style="fill:#1b7f43;stroke-width:0.13253328"
     inkscape:connector-curvature="0" />
  <path
     inkscape:connector-curvature="0"
     id="path920"
     d="m 73.858925,31.838742 0.322425,2.741693 h 42.2112 l 0.32243,-2.741693 z"
     style="opacity:0.14800002;fill:#000000;fill-opacity:1;stroke:none;stroke-width:1.24428415;stroke-linecap:round;stroke-linejoin:round;stroke-miterlimit:4;stroke-dasharray:none;stroke-opacity:1" />
  <path
     inkscape:connector-curvature="0"
     id="path922"
     d="m 71.544929,28.91499 c -0.04107,0.175257 -0.06799,0.353936 -0.06799,0.541757 0,1.315527 1.066464,2.381995 2.381992,2.381995 h 42.856039 c 1.31553,0 2.382,-1.066468 2.382,-2.381995 0,-0.187788 -0.0269,-0.366527 -0.068,-0.541757 -0.24586,1.053172 -1.18563,1.838035 -2.31399,1.838035 H 73.858925 c -1.128331,0 -2.068088,-0.784909 -2.313996,-1.838035 z"
     style="opacity:0.24500002;fill:#000000;stroke-width:0.13253328" />
  <path
     inkscape:connector-curvature="0"
     id="path924"
     d="m 84.237904,8.7492419 c -0.10193,0.06163 -0.208432,0.116621 -0.309264,0.179855 l 1.158095,6.9529501 c 0.390707,2.338022 2.41449,4.051132 4.785908,4.051132 h 10.828617 c 2.37142,0 4.39446,-1.713112 4.78371,-4.051132 l 1.16029,-6.9529501 c -0.10081,-0.06323 -0.20734,-0.118222 -0.30926,-0.179855 l -0.85103,5.0995611 c -0.38925,2.338021 -2.41229,4.051136 -4.78371,4.051136 H 89.872643 c -2.371418,0 -4.395201,-1.713115 -4.785908,-4.051136 z"
     style="opacity:0.26700003;fill:#000000;stroke-width:0.13253328" />
</svg>
