<?xml version="1.0" encoding="UTF-8" standalone="no"?>
<svg
   xmlns:dc="http://purl.org/dc/elements/1.1/"
   xmlns:cc="http://creativecommons.org/ns#"
   xmlns:rdf="http://www.w3.org/1999/02/22-rdf-syntax-ns#"
   xmlns:svg="http://www.w3.org/2000/svg"
   xmlns="http://www.w3.org/2000/svg"
   xmlns:xlink="http://www.w3.org/1999/xlink"
   xmlns:sodipodi="http://sodipodi.sourceforge.net/DTD/sodipodi-0.dtd"
   xmlns:inkscape="http://www.inkscape.org/namespaces/inkscape"
   viewBox="0 0 48 48"
   id="svg2"
   version="1.1"
   inkscape:version="0.92.2 2405546, 2018-03-11"
   width="100%"
   height="100%"
   sodipodi:docname="application-pdf.svg">
  <metadata
     id="metadata51">
    <rdf:RDF>
      <cc:Work
         rdf:about="">
        <dc:format>image/svg+xml</dc:format>
        <dc:type
           rdf:resource="http://purl.org/dc/dcmitype/StillImage" />
      </cc:Work>
    </rdf:RDF>
  </metadata>
  <sodipodi:namedview
     pagecolor="#ffffff"
     bordercolor="#666666"
     borderopacity="1"
     objecttolerance="10"
     gridtolerance="10"
     guidetolerance="10"
     inkscape:pageopacity="0"
     inkscape:pageshadow="2"
     inkscape:window-width="1920"
     inkscape:window-height="1013"
     id="namedview49"
     showgrid="true"
     inkscape:zoom="9.8333333"
     inkscape:cx="-33.932141"
     inkscape:cy="16.118643"
     inkscape:window-x="0"
     inkscape:window-y="0"
     inkscape:window-maximized="1"
     inkscape:current-layer="g8">
    <inkscape:grid
       type="xygrid"
       id="grid3259" />
  </sodipodi:namedview>
  <defs
     id="defs4">
    <linearGradient
       gradientTransform="matrix(0,-1,-1,0,-56.503258,-2.71886)"
       x2="-50.52078"
       x1="-5.3196"
       id="linearGradient886"
       gradientUnits="userSpaceOnUse">
      <stop
         id="stop882"
         stop-color="#f65454"
         offset="0"
         style="stop-color:#ff2a2a;stop-opacity:1" />
      <stop
         id="stop884"
         stop-color="#740000"
         offset="1"
         style="stop-color:#550000;stop-opacity:1" />
    </linearGradient>
    <linearGradient
       id="linearGradient5060">
      <stop
         offset="0"
         id="stop7" />
      <stop
         offset="1"
         stop-opacity="0"
         id="stop9" />
    </linearGradient>
    <linearGradient
       gradientUnits="userSpaceOnUse"
       id="linearGradient3127"
       x2="0"
       y1="38.7186"
       y2="45.76167">
      <stop
         offset="0"
         stop-opacity="0"
         id="stop12" />
      <stop
         offset=".5"
         id="stop14" />
      <stop
         offset="1"
         stop-opacity="0"
         id="stop16" />
    </linearGradient>
    <linearGradient
       gradientUnits="userSpaceOnUse"
       id="linearGradient998"
       x1="6.40561"
       x2="41.36901"
       gradientTransform="rotate(90,-26.892199,-29.611059)">
      <stop
         offset="0"
         stop-color="#fff"
         id="stop19" />
      <stop
         offset="1"
         stop-color="#fff"
         stop-opacity="0"
         id="stop21" />
    </linearGradient>
    <linearGradient
       gradientUnits="userSpaceOnUse"
       id="linearGradient3298-8"
       x1="-39.33323"
       x2="-1.64257"
       gradientTransform="matrix(0,-1,-1,0,-56.503258,-2.71886)">
      <stop
         offset="0"
         stop-color="#791235"
         id="stop24"
         style="stop-color:#5f0e0e;stop-opacity:1;" />
      <stop
         offset="1"
         stop-color="#dd3b27"
         id="stop26" />
    </linearGradient>
    <linearGradient
       gradientUnits="userSpaceOnUse"
       id="linearGradient4132"
       x1="-5.3196"
       x2="-50.52078"
       gradientTransform="matrix(0,-1,-1,0,-56.503258,-2.71886)">
      <stop
         offset="0"
         stop-color="#f65454"
         id="stop29" />
      <stop
         offset="1"
         stop-color="#740000"
         id="stop31" />
    </linearGradient>
    <radialGradient
       cx="605.71429"
       cy="486.64789"
       gradientTransform="matrix(0.062142,0,0,0.029001,1.636502,28.085503)"
       gradientUnits="userSpaceOnUse"
       id="radialGradient3129"
       r="117.14286"
       xlink:href="#linearGradient5060" />
    <radialGradient
       cx="605.71429"
       cy="486.64789"
       gradientTransform="matrix(-0.062142,0,0,0.029001,46.53201,28.085503)"
       gradientUnits="userSpaceOnUse"
       id="radialGradient3131"
       r="117.14286"
       xlink:href="#linearGradient5060" />
    <linearGradient
       y2="25.48744"
       y1="-5.71365"
       x2="31.74275"
       x1="8.21142"
       id="linearGradient4594"
       gradientUnits="userSpaceOnUse">
      <stop
         id="stop37"
         stop-color="#fff"
         offset="0" />
      <stop
         id="stop39"
         stop-opacity="0"
         stop-color="#fff"
         offset="1" />
    </linearGradient>
    <linearGradient
       gradientUnits="userSpaceOnUse"
       id="linearGradient3157-5"
       x1="-42.696152"
       x2="-5.8431101"
       gradientTransform="matrix(0,-1,-1.1278454,0,-3.0682832,0)">
      <stop
         offset="0"
         stop-color="#cf0000"
         id="stop22" />
      <stop
         offset="1"
         stop-color="#dc5600"
         id="stop24-3" />
    </linearGradient>
    <linearGradient
       id="linearGradient3799">
      <stop
         style="stop-color:#fff226;stop-opacity:1;"
         offset="0"
         id="stop3801" />
      <stop
         style="stop-color:#4d7e00;stop-opacity:1;"
         offset="1"
         id="stop3803" />
    </linearGradient>
    <linearGradient
       id="linearGradient1000">
      <stop
         offset="0"
         stop-color="#fff"
         id="stop7-3" />
      <stop
         offset="1"
         stop-color="#fff"
         stop-opacity="0"
         id="stop9-6" />
    </linearGradient>
  </defs>
  <g
     transform="matrix(0.14992436,0,0,0.14992436,0.64853131,0.7218624)"
     id="g8">
    <path
       inkscape:connector-curvature="0"
       style="fill:#e2574c"
       d="m 38.658,0 h 164.23 l 87.049,86.711 v 203.227 c 0,10.679 -8.659,19.329 -19.329,19.329 H 38.658 c -10.67,0 -19.329,-8.65 -19.329,-19.329 V 19.329 C 19.329,8.65 27.989,0 38.658,0 Z"
       id="path2" />
    <path
       inkscape:connector-curvature="0"
       style="fill:#b53629;stroke:#000000;stroke-opacity:1"
       d="m 289.658,86.981 h -67.372 c -10.67,0 -19.329,-8.659 -19.329,-19.329 V 0.193 Z"
       id="path4" />
    <path
       inkscape:connector-curvature="0"
       style="fill:#ffffff"
       d="m 217.434,146.544 c 3.238,0 4.823,-2.822 4.823,-5.557 0,-2.832 -1.653,-5.567 -4.823,-5.567 h -18.44 c -3.605,0 -5.615,2.986 -5.615,6.282 v 45.317 c 0,4.04 2.3,6.282 5.412,6.282 3.093,0 5.403,-2.242 5.403,-6.282 v -12.438 h 11.153 c 3.46,0 5.19,-2.832 5.19,-5.644 0,-2.754 -1.73,-5.49 -5.19,-5.49 h -11.153 v -16.903 c 0,0 13.24,0 13.24,0 z M 155.107,135.42 h -13.492 c -3.663,0 -6.263,2.513 -6.263,6.243 v 45.395 c 0,4.629 3.74,6.079 6.417,6.079 h 14.159 c 16.758,0 27.824,-11.027 27.824,-28.047 -0.009,-17.995 -10.427,-29.67 -28.645,-29.67 z m 0.648,46.526 h -8.225 v -35.334 h 7.413 c 11.221,0 16.101,7.529 16.101,17.918 0,9.723 -4.794,17.416 -15.289,17.416 z M 106.33,135.42 H 92.964 c -3.779,0 -5.886,2.493 -5.886,6.282 v 45.317 c 0,4.04 2.416,6.282 5.663,6.282 3.247,0 5.663,-2.242 5.663,-6.282 v -13.231 h 8.379 c 10.341,0 18.875,-7.326 18.875,-19.107 0.001,-11.529 -8.233,-19.261 -19.328,-19.261 z m -0.222,27.738 h -7.703 v -17.097 h 7.703 c 4.755,0 7.78,3.711 7.78,8.553 -0.01,4.833 -3.025,8.544 -7.78,8.544 z"
       id="path6" />
    <path
       id="path889"
       d="m 38.658,0 h 164.23 l 87.049,86.711 v 203.227 c 0,10.679 -8.659,19.329 -19.329,19.329 H 38.658 c -10.67,0 -19.329,-8.65 -19.329,-19.329 V 19.329 C 19.329,8.65 27.989,0 38.658,0 Z"
       style="fill:none;stroke:#000000;stroke-opacity:1;stroke-width:1.00050452;stroke-miterlimit:4;stroke-dasharray:none;stroke-linejoin:round;stroke-linecap:round;paint-order:stroke fill markers"
       inkscape:connector-curvature="0" />
  </g>
</svg>
