<?xml version="1.0" encoding="UTF-8" standalone="no"?>
<svg
   xmlns:dc="http://purl.org/dc/elements/1.1/"
   xmlns:cc="http://creativecommons.org/ns#"
   xmlns:rdf="http://www.w3.org/1999/02/22-rdf-syntax-ns#"
   xmlns:svg="http://www.w3.org/2000/svg"
   xmlns="http://www.w3.org/2000/svg"
   xmlns:xlink="http://www.w3.org/1999/xlink"
   xmlns:sodipodi="http://sodipodi.sourceforge.net/DTD/sodipodi-0.dtd"
   xmlns:inkscape="http://www.inkscape.org/namespaces/inkscape"
   viewBox="0 0 48 48"
   id="svg2"
   version="1.1"
   inkscape:version="0.92.2 2405546, 2018-03-11"
   width="100%"
   height="100%"
   sodipodi:docname="font-x-generic.svg">
  <metadata
     id="metadata53">
    <rdf:RDF>
      <cc:Work
         rdf:about="">
        <dc:format>image/svg+xml</dc:format>
        <dc:type
           rdf:resource="http://purl.org/dc/dcmitype/StillImage" />
      </cc:Work>
    </rdf:RDF>
  </metadata>
  <sodipodi:namedview
     pagecolor="#ffffff"
     bordercolor="#666666"
     borderopacity="1"
     objecttolerance="10"
     gridtolerance="10"
     guidetolerance="10"
     inkscape:pageopacity="0"
     inkscape:pageshadow="2"
     inkscape:window-width="1920"
     inkscape:window-height="1013"
     id="namedview51"
     showgrid="false"
     inkscape:zoom="26.992826"
     inkscape:cx="23.898305"
     inkscape:cy="20.644068"
     inkscape:window-x="0"
     inkscape:window-y="0"
     inkscape:window-maximized="1"
     inkscape:current-layer="svg2" />
  <defs
     id="defs4">
    <linearGradient
       id="linearGradient5060">
      <stop
         offset="0"
         id="stop7" />
      <stop
         offset="1"
         stop-opacity="0"
         id="stop9" />
    </linearGradient>
    <linearGradient
       gradientUnits="userSpaceOnUse"
       id="linearGradient3127"
       x2="0"
       y1="38.7186"
       y2="45.76167">
      <stop
         offset="0"
         stop-opacity="0"
         id="stop12" />
      <stop
         offset=".5"
         id="stop14" />
      <stop
         offset="1"
         stop-opacity="0"
         id="stop16" />
    </linearGradient>
    <linearGradient
       gradientUnits="userSpaceOnUse"
       id="linearGradient3157-5"
       x1="-42.69615"
       x2="-5.84311"
       gradientTransform="matrix(0,-1,-1,0,75.661017,2.8474576)">
      <stop
         offset="0"
         stop-color="#fff"
         id="stop19" />
      <stop
         offset="1"
         stop-color="#cdcdcd"
         id="stop21" />
    </linearGradient>
    <linearGradient
       gradientUnits="userSpaceOnUse"
       id="linearGradient998"
       x1="6.40561"
       x2="41.36901"
       gradientTransform="rotate(90,36.40678,39.254237)">
      <stop
         offset="0"
         stop-color="#fff"
         id="stop24" />
      <stop
         offset="1"
         stop-color="#fff"
         stop-opacity="0"
         id="stop26" />
    </linearGradient>
    <linearGradient
       gradientUnits="userSpaceOnUse"
       id="linearGradient3878"
       x1="18.00413"
       x2="29.36244"
       y1="17.71555"
       y2="33.87938"
       gradientTransform="matrix(0.999939,0,0,0.999939,73.168667,2.9444508)">
      <stop
         offset="0"
         id="stop29" />
      <stop
         offset="1"
         stop-color="#3988b2"
         id="stop31" />
    </linearGradient>
    <radialGradient
       cx="605.71429"
       cy="486.64789"
       gradientTransform="matrix(0.062142,0,0,0.029001,1.636502,28.085503)"
       gradientUnits="userSpaceOnUse"
       id="radialGradient3129"
       r="117.14286"
       xlink:href="#linearGradient5060" />
    <radialGradient
       cx="605.71429"
       cy="486.64789"
       gradientTransform="matrix(-0.062142,0,0,0.029001,46.53201,28.085503)"
       gradientUnits="userSpaceOnUse"
       id="radialGradient3131"
       r="117.14286"
       xlink:href="#linearGradient5060" />
    <linearGradient
       gradientUnits="userSpaceOnUse"
       id="linearGradient3124"
       x2="0"
       y1="46.187851"
       y2="6.23558">
      <stop
         offset="0"
         stop-color="#a0a0a0"
         id="stop29-7" />
      <stop
         offset="1"
         stop-color="#bebebe"
         id="stop31-5" />
    </linearGradient>
  </defs>
  <path
     inkscape:connector-curvature="0"
     style="fill:#e6e6e6;stroke-width:0.14992435"
     d="M 6.4443073,0.721862 H 31.066385 L 44.11715,13.721953 v 30.468678 c 0,1.601042 -1.298195,2.897888 -2.897888,2.897888 H 6.4443073 c -1.599693,0 -2.897888,-1.296846 -2.897888,-2.897888 V 3.61975 c 0,-1.6010423 1.298345,-2.897888 2.897888,-2.897888 z"
     id="path2" />
  <path
     inkscape:connector-curvature="0"
     style="fill:#999999;stroke-width:0.14992435;stroke:#000000;stroke-opacity:1"
     d="M 44.075321,13.762433 H 33.974617 c -1.599693,0 -2.897888,-1.298195 -2.897888,-2.897888 V 0.7507974 Z"
     id="path4" />
  <path
     id="path892"
     d="M 6.4443073,0.721862 H 31.066385 L 44.11715,13.721953 v 30.468678 c 0,1.601042 -1.298195,2.897888 -2.897888,2.897888 H 6.4443073 c -1.599693,0 -2.897888,-1.296846 -2.897888,-2.897888 V 3.61975 c 0,-1.6010423 1.298345,-2.897888 2.897888,-2.897888 z"
     style="fill:none;stroke:#000000;stroke-width:0.15000001;stroke-linecap:round;stroke-linejoin:round;stroke-miterlimit:4;stroke-dasharray:none;stroke-opacity:1;paint-order:stroke fill markers"
     inkscape:connector-curvature="0" />
  <path
     d="m 34.609141,34.414464 c -0.95455,0.05221 -2.029755,-0.338924 -2.076697,-1.443186 -0.58654,-3.158689 -1.064989,-6.337517 -1.606819,-9.504486 -0.448558,-2.700948 -0.897116,-5.401747 -1.345674,-8.102695 -0.378811,-0.06937 -0.661133,0.03058 -0.780294,0.418061 -3.125603,5.22326 -6.214984,10.468673 -9.365597,15.676717 -0.7667,1.091135 -1.458043,2.510602 -2.857683,2.86601 -0.520227,-0.180426 -0.533544,0.690676 -0.310807,0.800991 1.893958,0 3.787908,0 5.681858,0 0.104309,-0.573128 -0.05201,-0.911156 -0.72133,-0.776527 -1.299826,0.206159 -1.162715,-1.320117 -0.673785,-2.071806 0.592187,-1.186606 1.289006,-2.318167 1.927611,-3.480458 2.169461,0 4.338913,0 6.508364,0 0.211731,1.429686 0.54617,2.845349 0.650839,4.287565 0.269181,1.177955 -1.051325,1.286628 -1.877148,1.313629 -0.24306,-0.05221 -0.324657,0.867895 0.04383,0.727597 2.267781,0 4.535548,0 6.803329,0 0,-0.237113 0,-0.474225 0,-0.711412 z M 23.101182,27.375082 c 1.479176,-2.564006 2.958342,-5.127863 4.437519,-7.69172 0.433889,2.563857 0.867777,5.127714 1.301675,7.69172 -1.913065,0 -3.82613,0 -5.739194,0 z"
     id="text2044-9"
     style="font-style:italic;font-variant:normal;font-weight:normal;font-stretch:normal;font-size:46.60050201px;line-height:125%;font-family:'Nimbus Roman No9 L';text-align:start;writing-mode:lr-tb;text-anchor:start;display:inline;fill:#666666;fill-opacity:1;stroke:none;stroke-width:0.88906151"
     inkscape:connector-curvature="0" />
  <g
     aria-label="A"
     style="font-style:normal;font-weight:normal;font-size:24.223032px;line-height:1.25;font-family:sans-serif;letter-spacing:0px;word-spacing:0px;display:inline;opacity:0.206;fill:#000000;fill-opacity:1;stroke:none;stroke-width:0.6055758"
     id="text4575-1-6"
     transform="matrix(1.0631473,0,-0.06144207,1.0631473,-246.52661,-136.97605)">
    <path
       style="fill:#000000;stroke-width:0.6055758"
       d="m 19.378906,18.980469 -6.742187,17.658203 h 2.519531 l 1.609375,-4.53125 h 1.574219 l 1.193359,-1.986328 h -2.046875 l 3.242188,-8.78711 1.55664,4.207032 1.410156,-2.34375 -1.607421,-4.216797 z"
       transform="translate(239.39962,125.20797)"
       id="path4579-5-4"
       inkscape:connector-curvature="0" />
  </g>
  <path
     inkscape:connector-curvature="0"
     style="font-style:italic;font-variant:normal;font-weight:normal;font-stretch:normal;font-size:46.60050201px;line-height:125%;font-family:'Nimbus Roman No9 L';text-align:start;writing-mode:lr-tb;text-anchor:start;display:inline;opacity:0.206;fill:#000000;fill-opacity:1;stroke:none;stroke-width:0.88906151"
     d="m 27.538361,19.68366 c -1.479177,2.563932 -2.95751,5.127789 -4.436685,7.691646 h 0.333753 c 1.36784,-2.3709 2.735092,-4.741652 4.102932,-7.112552 0.401225,2.3709 0.802876,4.741726 1.204108,7.112552 h 0.09788 C 28.406452,24.811449 27.972244,22.247592 27.538356,19.68366 Z m -5.058198,9.114022 c -0.638604,1.162142 -1.336038,2.293628 -1.928224,3.480234 -0.255685,0.393149 -0.40799,0.993501 -0.316064,1.451764 0.0493,-0.315504 0.160369,-0.633394 0.316064,-0.872744 0.592186,-1.186606 1.28962,-2.319211 1.928224,-3.481353 h 6.50761 c 0.21063,1.422227 0.542146,2.831252 0.648639,4.265636 0.04756,-0.152157 0.05283,-0.335791 0.0023,-0.556643 -0.104674,-1.442291 -0.439268,-2.857208 -0.650997,-4.286894 z m -6.288252,6.250474 c -0.112338,0.220629 -0.06641,0.587672 0.07312,0.656963 h 5.68207 c 0.0441,-0.242333 0.03747,-0.438721 -0.03066,-0.579094 h -5.651408 c -0.02886,-0.01417 -0.05277,-0.04177 -0.07312,-0.07847 z m 11.431363,0.02983 c -0.116379,0.223314 -0.09961,0.734907 0.182798,0.627427 h 6.803624 v -0.579095 h -6.803624 c -0.08367,0.03207 -0.14216,0.01119 -0.182798,-0.04848 z"
     id="text2044-9-3" />
  <g
     aria-label="A"
     style="font-style:normal;font-weight:normal;font-size:24.223032px;line-height:1.25;font-family:sans-serif;letter-spacing:0px;word-spacing:0px;display:inline;fill:#2c5aa0;fill-opacity:1;stroke:none;stroke-width:0.6055758"
     id="text4575-1-7"
     transform="matrix(1.0631473,0,-0.06144207,1.0631473,-246.52661,-137.555)">
    <path
       style="fill:#2c5aa0;fill-opacity:1;stroke-width:0.6055758"
       d="m 19.378906,18.980469 -6.742187,17.658203 h 2.519531 l 1.609375,-4.53125 h 1.574219 l 1.193359,-1.986328 h -2.046875 l 3.242188,-8.78711 1.55664,4.207032 1.410156,-2.34375 -1.607421,-4.216797 z"
       transform="translate(239.39962,125.20797)"
       id="path4579-5-7"
       inkscape:connector-curvature="0" />
  </g>
</svg>
