<?xml version="1.0" encoding="UTF-8" standalone="no"?>
<svg
   xmlns:dc="http://purl.org/dc/elements/1.1/"
   xmlns:cc="http://creativecommons.org/ns#"
   xmlns:rdf="http://www.w3.org/1999/02/22-rdf-syntax-ns#"
   xmlns:svg="http://www.w3.org/2000/svg"
   xmlns="http://www.w3.org/2000/svg"
   xmlns:xlink="http://www.w3.org/1999/xlink"
   xmlns:sodipodi="http://sodipodi.sourceforge.net/DTD/sodipodi-0.dtd"
   xmlns:inkscape="http://www.inkscape.org/namespaces/inkscape"
   viewBox="0 0 48 48"
   id="svg2"
   version="1.1"
   inkscape:version="0.92.2 2405546, 2018-03-11"
   width="100%"
   height="100%"
   sodipodi:docname="text-x-perl.svg">
  <metadata
     id="metadata58">
    <rdf:RDF>
      <cc:Work
         rdf:about="">
        <dc:format>image/svg+xml</dc:format>
        <dc:type
           rdf:resource="http://purl.org/dc/dcmitype/StillImage" />
      </cc:Work>
    </rdf:RDF>
  </metadata>
  <sodipodi:namedview
     pagecolor="#ffffff"
     bordercolor="#666666"
     borderopacity="1"
     objecttolerance="10"
     gridtolerance="10"
     guidetolerance="10"
     inkscape:pageopacity="0"
     inkscape:pageshadow="2"
     inkscape:window-width="1920"
     inkscape:window-height="1013"
     id="namedview56"
     showgrid="true"
     inkscape:zoom="7.8946058"
     inkscape:cx="-53.025807"
     inkscape:cy="16.477393"
     inkscape:window-x="0"
     inkscape:window-y="0"
     inkscape:window-maximized="1"
     inkscape:current-layer="svg2"
     inkscape:snap-global="false">
    <inkscape:grid
       type="xygrid"
       id="grid3811"
       empspacing="5"
       visible="true"
       enabled="true"
       snapvisiblegridlinesonly="true" />
  </sodipodi:namedview>
  <defs
     id="defs4">
    <linearGradient
       id="linearGradient3797">
      <stop
         style="stop-color:#999999;stop-opacity:1;"
         offset="0"
         id="stop3799" />
      <stop
         id="stop3805"
         offset="1"
         style="stop-color:#acac60;stop-opacity:1;" />
    </linearGradient>
    <linearGradient
       id="linearGradient5060">
      <stop
         offset="0"
         id="stop7" />
      <stop
         offset="1"
         stop-opacity="0"
         id="stop9" />
    </linearGradient>
    <linearGradient
       gradientUnits="userSpaceOnUse"
       id="linearGradient3127"
       x2="0"
       y1="38.7186"
       y2="45.76167">
      <stop
         offset="0"
         stop-opacity="0"
         id="stop12" />
      <stop
         offset=".5"
         id="stop14" />
      <stop
         offset="1"
         stop-opacity="0"
         id="stop16" />
    </linearGradient>
    <linearGradient
       gradientUnits="userSpaceOnUse"
       id="linearGradient3157-5"
       x1="-42.69615"
       x2="-5.84311"
       gradientTransform="matrix(0,-1,-1,0,56.496742,0.2814)">
      <stop
         offset="0"
         stop-color="#fff"
         id="stop19" />
      <stop
         offset="1"
         stop-color="#cdcdcd"
         id="stop21" />
    </linearGradient>
    <linearGradient
       gradientUnits="userSpaceOnUse"
       id="linearGradient998"
       x1="6.40561"
       x2="41.36901"
       gradientTransform="rotate(90,28.107671,28.389071)">
      <stop
         offset="0"
         stop-color="#fff"
         id="stop24" />
      <stop
         offset="1"
         stop-color="#fff"
         stop-opacity="0"
         id="stop26" />
    </linearGradient>
    <radialGradient
       cx="605.71429"
       cy="486.64789"
       gradientTransform="matrix(0.062142,0,0,0.029001,1.636502,28.085503)"
       gradientUnits="userSpaceOnUse"
       id="radialGradient3129"
       r="117.14286"
       xlink:href="#linearGradient5060" />
    <radialGradient
       cx="605.71429"
       cy="486.64789"
       gradientTransform="matrix(-0.062142,0,0,0.029001,46.53201,28.085503)"
       gradientUnits="userSpaceOnUse"
       id="radialGradient3131"
       r="117.14286"
       xlink:href="#linearGradient5060" />
  </defs>
  <path
     inkscape:connector-curvature="0"
     style="fill:#e6e6e6;stroke-width:0.14992435"
     d="M 6.4443073,0.72186173 H 31.066385 L 44.11715,13.721953 v 30.468678 c 0,1.601042 -1.298195,2.897888 -2.897888,2.897888 H 6.4443073 c -1.599693,0 -2.897888,-1.296846 -2.897888,-2.897888 V 3.6197497 c 0,-1.6010423 1.298345,-2.89788797 2.897888,-2.89788797 z"
     id="path2-3" />
  <g
     aria-label="PERL"
     style="font-style:normal;font-weight:normal;font-size:9.57019901px;line-height:1.25;font-family:sans-serif;letter-spacing:0px;word-spacing:0px;fill:#666666;fill-opacity:1;stroke:none;stroke-width:0.59813744;stroke-opacity:1"
     id="text843"
     transform="matrix(1.2049638,0,0,1.2049638,-1.2207536,-5.1713698)">
    <path
       d="m 13.428409,22.461357 q 0.985731,0 1.770487,1.004871 0.363668,0.622063 0.363668,1.129284 v 0.220114 q 0,0.995301 -1.014441,1.780057 -0.622063,0.354098 -1.119714,0.354098 h -0.842177 v 0.784756 q 0,0.756046 -0.258395,0.880458 0,0.0957 -0.411519,0.200974 h -0.191404 q -0.421089,0 -0.650773,-0.593352 v -5.110486 q 0,-0.421089 0.593352,-0.650774 z m -0.842177,1.492951 v 1.473811 h 0.823037 q 0.411519,0 0.631633,-0.574212 v -0.239255 q 0,-0.411518 -0.574212,-0.641203 l -0.392378,-0.01914 z"
       style="font-style:normal;font-variant:normal;font-weight:normal;font-stretch:normal;font-family:Maagkramp;-inkscape-font-specification:Maagkramp;fill:#666666;fill-opacity:1;stroke:none;stroke-width:0.59813744;stroke-opacity:1"
       id="path835"
       inkscape:connector-curvature="0" />
    <path
       d="m 20.322841,22.461357 q 0.421088,0 0.660343,0.593353 v 0.248825 q 0,0.421089 -0.602922,0.650773 l -1.607794,0.01914 h -0.765616 v 0.918739 h 1.942751 q 0.421089,0 0.660344,0.593352 v 0.248825 q 0,0.421089 -0.602923,0.650774 l -0.392378,0.01914 h -1.607794 v 0.918739 l 1.866189,-0.01914 h 0.114843 q 0.765616,0 0.918739,0.449799 0.03828,0 0.07656,0.220115 v 0.191404 q 0,0.421089 -0.602922,0.650773 h -3.234728 q -0.421088,0 -0.650773,-0.593352 V 23.11213 q 0,-0.421089 0.593352,-0.650774 z"
       style="font-style:normal;font-variant:normal;font-weight:normal;font-stretch:normal;font-family:Maagkramp;-inkscape-font-specification:Maagkramp;fill:#666666;fill-opacity:1;stroke:none;stroke-width:0.59813744;stroke-opacity:1"
       id="path837"
       inkscape:connector-curvature="0" />
    <path
       d="m 24.26965,22.461357 q 0.985731,0 1.770487,1.004871 0.363668,0.622063 0.363668,1.129284 v 0.220114 q 0,1.043152 -1.110143,1.827908 1.071862,1.004871 1.071862,1.177135 0.03828,0.07656 0.03828,0.210544 v 0.07656 q 0,0.49765 -0.602923,0.708194 h -0.181834 q -0.392378,0 -0.937879,-0.650773 l -1.234556,-1.215415 h -0.01914 v 0.784756 q 0,0.756046 -0.258396,0.880458 0,0.0957 -0.411518,0.200974 h -0.191404 q -0.421089,0 -0.650774,-0.593352 v -5.110486 q 0,-0.421089 0.593353,-0.650774 z m -0.842177,1.492951 v 1.473811 h 0.823037 q 0.411519,0 0.631633,-0.574212 v -0.239255 q 0,-0.411518 -0.574212,-0.641203 l -0.392378,-0.01914 z"
       style="font-style:normal;font-variant:normal;font-weight:normal;font-stretch:normal;font-family:Maagkramp;-inkscape-font-specification:Maagkramp;fill:#666666;fill-opacity:1;stroke:none;stroke-width:0.59813744;stroke-opacity:1"
       id="path839"
       inkscape:connector-curvature="0" />
    <path
       d="m 28.17818,22.461357 q 0.354097,0 0.612493,0.48808 l 0.05742,0.334957 -0.01914,4.019484 v 0.01914 h 2.335129 q 0.421089,0 0.660344,0.593353 v 0.248825 q 0,0.421089 -0.602923,0.650773 h -3.234727 q -0.421089,0 -0.650774,-0.593352 v -5.110486 q 0,-0.421089 0.593353,-0.650774 z"
       style="font-style:normal;font-variant:normal;font-weight:normal;font-stretch:normal;font-family:Maagkramp;-inkscape-font-specification:Maagkramp;fill:#666666;fill-opacity:1;stroke:none;stroke-width:0.59813744;stroke-opacity:1"
       id="path841"
       inkscape:connector-curvature="0" />
  </g>
  <path
     inkscape:connector-curvature="0"
     style="fill:#999999;stroke:#000000;stroke-width:0.14992435;stroke-opacity:1"
     d="M 44.075321,13.762433 H 33.974617 c -1.599693,0 -2.897888,-1.298195 -2.897888,-2.897888 V 0.75079713 Z"
     id="path4-1" />
  <path
     id="path892-1"
     d="M 6.4443073,0.72186173 H 31.066385 L 44.11715,13.721953 v 30.468678 c 0,1.601042 -1.298195,2.897888 -2.897888,2.897888 H 6.4443073 c -1.599693,0 -2.897888,-1.296846 -2.897888,-2.897888 V 3.6197497 c 0,-1.6010423 1.298345,-2.89788797 2.897888,-2.89788797 z"
     style="fill:none;stroke:#000000;stroke-width:0.15000001;stroke-linecap:round;stroke-linejoin:round;stroke-miterlimit:4;stroke-dasharray:none;stroke-opacity:1;paint-order:stroke fill markers"
     inkscape:connector-curvature="0" />
</svg>
