<?xml version="1.0" encoding="UTF-8" standalone="no"?>
<svg
   xmlns:dc="http://purl.org/dc/elements/1.1/"
   xmlns:cc="http://creativecommons.org/ns#"
   xmlns:rdf="http://www.w3.org/1999/02/22-rdf-syntax-ns#"
   xmlns:svg="http://www.w3.org/2000/svg"
   xmlns="http://www.w3.org/2000/svg"
   xmlns:xlink="http://www.w3.org/1999/xlink"
   xmlns:sodipodi="http://sodipodi.sourceforge.net/DTD/sodipodi-0.dtd"
   xmlns:inkscape="http://www.inkscape.org/namespaces/inkscape"
   viewBox="0 0 48 48"
   id="svg2"
   version="1.1"
   inkscape:version="0.92.2 2405546, 2018-03-11"
   width="100%"
   height="100%"
   sodipodi:docname="text-x-vala.svg">
  <metadata
     id="metadata58">
    <rdf:RDF>
      <cc:Work
         rdf:about="">
        <dc:format>image/svg+xml</dc:format>
        <dc:type
           rdf:resource="http://purl.org/dc/dcmitype/StillImage" />
      </cc:Work>
    </rdf:RDF>
  </metadata>
  <sodipodi:namedview
     pagecolor="#ffffff"
     bordercolor="#666666"
     borderopacity="1"
     objecttolerance="10"
     gridtolerance="10"
     guidetolerance="10"
     inkscape:pageopacity="0"
     inkscape:pageshadow="2"
     inkscape:window-width="1920"
     inkscape:window-height="1013"
     id="namedview56"
     showgrid="true"
     inkscape:zoom="8"
     inkscape:cx="-55.08116"
     inkscape:cy="24.262008"
     inkscape:window-x="0"
     inkscape:window-y="0"
     inkscape:window-maximized="1"
     inkscape:current-layer="svg2">
    <inkscape:grid
       type="xygrid"
       id="grid3811"
       empspacing="5"
       visible="true"
       enabled="true"
       snapvisiblegridlinesonly="true" />
  </sodipodi:namedview>
  <defs
     id="defs4">
    <linearGradient
       id="linearGradient5060">
      <stop
         offset="0"
         id="stop7" />
      <stop
         offset="1"
         stop-opacity="0"
         id="stop9" />
    </linearGradient>
    <linearGradient
       gradientUnits="userSpaceOnUse"
       id="linearGradient3127"
       x2="0"
       y1="38.7186"
       y2="45.76167">
      <stop
         offset="0"
         stop-opacity="0"
         id="stop12" />
      <stop
         offset=".5"
         id="stop14" />
      <stop
         offset="1"
         stop-opacity="0"
         id="stop16" />
    </linearGradient>
    <linearGradient
       gradientUnits="userSpaceOnUse"
       id="linearGradient3157-5"
       x1="-42.69615"
       x2="-5.84311"
       gradientTransform="matrix(0,-1,-1,0,51,-1)">
      <stop
         offset="0"
         stop-color="#fff"
         id="stop19" />
      <stop
         offset="1"
         stop-color="#cdcdcd"
         id="stop21" />
    </linearGradient>
    <linearGradient
       gradientUnits="userSpaceOnUse"
       id="linearGradient998"
       x1="6.40561"
       x2="41.36901"
       gradientTransform="rotate(90,26,25)">
      <stop
         offset="0"
         stop-color="#fff"
         id="stop24" />
      <stop
         offset="1"
         stop-color="#fff"
         stop-opacity="0"
         id="stop26" />
    </linearGradient>
    <radialGradient
       cx="605.71429"
       cy="486.64789"
       gradientTransform="matrix(0.062142,0,0,0.029001,1.636502,28.085503)"
       gradientUnits="userSpaceOnUse"
       id="radialGradient3129"
       r="117.14286"
       xlink:href="#linearGradient5060" />
    <radialGradient
       cx="605.71429"
       cy="486.64789"
       gradientTransform="matrix(-0.062142,0,0,0.029001,46.53201,28.085503)"
       gradientUnits="userSpaceOnUse"
       id="radialGradient3131"
       r="117.14286"
       xlink:href="#linearGradient5060" />
  </defs>
  <path
     inkscape:connector-curvature="0"
     style="fill:#e6e6e6;stroke-width:0.14992435"
     d="M 6.4443073,0.721862 H 31.066385 L 44.11715,13.721953 v 30.468678 c 0,1.601042 -1.298195,2.897888 -2.897888,2.897888 H 6.4443073 c -1.599693,0 -2.897888,-1.296846 -2.897888,-2.897888 V 3.61975 c 0,-1.6010423 1.298345,-2.897888 2.897888,-2.897888 z"
     id="path2" />
  <path
     inkscape:connector-curvature="0"
     style="fill:#999999;stroke-width:0.14992435;stroke:#000000;stroke-opacity:1"
     d="M 44.075321,13.762433 H 33.974617 c -1.599693,0 -2.897888,-1.298195 -2.897888,-2.897888 V 0.7507974 Z"
     id="path4" />
  <path
     id="path892"
     d="M 6.4443073,0.721862 H 31.066385 L 44.11715,13.721953 v 30.468678 c 0,1.601042 -1.298195,2.897888 -2.897888,2.897888 H 6.4443073 c -1.599693,0 -2.897888,-1.296846 -2.897888,-2.897888 V 3.61975 c 0,-1.6010423 1.298345,-2.897888 2.897888,-2.897888 z"
     style="fill:none;stroke:#000000;stroke-width:0.15000001;stroke-linecap:round;stroke-linejoin:round;stroke-miterlimit:4;stroke-dasharray:none;stroke-opacity:1;paint-order:stroke fill markers"
     inkscape:connector-curvature="0" />
  <g
     aria-label="VALA"
     style="font-style:normal;font-weight:normal;font-size:16px;line-height:1.25;font-family:sans-serif;letter-spacing:0px;word-spacing:0px;fill:#666666;fill-opacity:1;stroke:none"
     id="text840"
     transform="matrix(0.64099117,0,0,0.64099117,60.335862,12.408142)">
    <path
       d="m -78.096,15.376 h 0.256 q 0.832,0 1.28,1.28 l 2.592,5.216 q 1.12,-2.336 3.056,-6 0.384,-0.496 0.912,-0.496 h 0.192 q 0.608,0 1.152,1.024 l 0.032,0.128 v 0.384 l -4.288,8.528 Q -73.344,26 -73.904,26 h -0.224 q -0.736,0 -1.28,-1.28 -1.408,-2.704 -3.776,-7.744 l -0.032,-0.192 v -0.288 q 0,-0.608 0.88,-1.056 z"
       style="font-style:normal;font-variant:normal;font-weight:normal;font-stretch:normal;font-family:Maagkramp;-inkscape-font-specification:Maagkramp;fill:#666666"
       id="path842"
       inkscape:connector-curvature="0" />
    <path
       d="m -61.74775,15.376 q 0.896,0 1.472,1.536 3.584,7.024 3.808,7.552 v 0.384 q 0,0.432 -0.848,1.056 l -0.336,0.096 h -0.192 q -0.8,0 -1.28,-1.216 l -0.352,-0.656 h -4.656 q -0.72,1.712 -1.056,1.712 -0.144,0.16 -0.496,0.16 h -0.256 q -0.576,0 -1.056,-0.848 l -0.064,-0.272 v -0.288 q 0,-0.24 1.504,-3.248 1.952,-4.144 2.768,-5.536 0.384,-0.4 0.784,-0.432 z m -1.104,6.224 h 2.064 l -1.024,-2.096 q -0.256,0.384 -1.04,2.096 z"
       style="font-style:normal;font-variant:normal;font-weight:normal;font-stretch:normal;font-family:Maagkramp;-inkscape-font-specification:Maagkramp;fill:#666666"
       id="path844"
       inkscape:connector-curvature="0" />
    <path
       d="m -53.4955,15.376 q 0.592,0 1.024,0.816 l 0.096,0.56 -0.032,6.72 v 0.032 h 3.904 q 0.704,0 1.104,0.992 v 0.416 q 0,0.704 -1.008,1.088 h -5.408 q -0.704,0 -1.088,-0.992 v -8.544 q 0,-0.704 0.992,-1.088 z"
       style="font-style:normal;font-variant:normal;font-weight:normal;font-stretch:normal;font-family:Maagkramp;-inkscape-font-specification:Maagkramp;fill:#666666"
       id="path846"
       inkscape:connector-curvature="0" />
    <path
       d="m -40.529,15.376 q 0.896,0 1.472,1.536 3.584,7.024 3.808,7.552 v 0.384 q 0,0.432 -0.848,1.056 L -36.433,26 h -0.192 q -0.8,0 -1.28,-1.216 l -0.352,-0.656 h -4.656 q -0.72,1.712 -1.056,1.712 -0.144,0.16 -0.496,0.16 h -0.256 q -0.576,0 -1.056,-0.848 l -0.064,-0.272 v -0.288 q 0,-0.24 1.504,-3.248 1.952,-4.144 2.768,-5.536 0.384,-0.4 0.784,-0.432 z m -1.104,6.224 h 2.064 l -1.024,-2.096 q -0.256,0.384 -1.04,2.096 z"
       style="font-style:normal;font-variant:normal;font-weight:normal;font-stretch:normal;font-family:Maagkramp;-inkscape-font-specification:Maagkramp;fill:#666666"
       id="path848"
       inkscape:connector-curvature="0" />
  </g>
</svg>
