<?xml version="1.0" encoding="UTF-8" standalone="no"?>
<svg
   xmlns:dc="http://purl.org/dc/elements/1.1/"
   xmlns:cc="http://creativecommons.org/ns#"
   xmlns:rdf="http://www.w3.org/1999/02/22-rdf-syntax-ns#"
   xmlns:svg="http://www.w3.org/2000/svg"
   xmlns="http://www.w3.org/2000/svg"
   xmlns:xlink="http://www.w3.org/1999/xlink"
   xmlns:sodipodi="http://sodipodi.sourceforge.net/DTD/sodipodi-0.dtd"
   xmlns:inkscape="http://www.inkscape.org/namespaces/inkscape"
   viewBox="0 0 48 48"
   id="svg2"
   version="1.1"
   inkscape:version="0.92.2 2405546, 2018-03-11"
   width="100%"
   height="100%"
   sodipodi:docname="text-x-c++.svg">
  <metadata
     id="metadata58">
    <rdf:RDF>
      <cc:Work
         rdf:about="">
        <dc:format>image/svg+xml</dc:format>
        <dc:type
           rdf:resource="http://purl.org/dc/dcmitype/StillImage" />
      </cc:Work>
    </rdf:RDF>
  </metadata>
  <sodipodi:namedview
     pagecolor="#ffffff"
     bordercolor="#666666"
     borderopacity="1"
     objecttolerance="10"
     gridtolerance="10"
     guidetolerance="10"
     inkscape:pageopacity="0"
     inkscape:pageshadow="2"
     inkscape:window-width="1920"
     inkscape:window-height="1013"
     id="namedview56"
     showgrid="true"
     inkscape:zoom="8.9837781"
     inkscape:cx="-31.449231"
     inkscape:cy="21.30589"
     inkscape:window-x="0"
     inkscape:window-y="0"
     inkscape:window-maximized="1"
     inkscape:current-layer="svg2"
     inkscape:measure-start="0,0"
     inkscape:measure-end="0,0">
    <inkscape:grid
       type="xygrid"
       id="grid3811"
       empspacing="5"
       visible="true"
       enabled="true"
       snapvisiblegridlinesonly="true" />
  </sodipodi:namedview>
  <defs
     id="defs4">
    <linearGradient
       id="linearGradient5060">
      <stop
         offset="0"
         id="stop7" />
      <stop
         offset="1"
         stop-opacity="0"
         id="stop9" />
    </linearGradient>
    <linearGradient
       gradientUnits="userSpaceOnUse"
       id="linearGradient3127"
       x2="0"
       y1="38.7186"
       y2="45.76167">
      <stop
         offset="0"
         stop-opacity="0"
         id="stop12" />
      <stop
         offset=".5"
         id="stop14" />
      <stop
         offset="1"
         stop-opacity="0"
         id="stop16" />
    </linearGradient>
    <linearGradient
       gradientUnits="userSpaceOnUse"
       id="linearGradient3157-5"
       x1="-42.69615"
       x2="-5.84311"
       gradientTransform="matrix(0,-1,-1,0,-50.503258,-0.7186)">
      <stop
         offset="0"
         stop-color="#fff"
         id="stop19" />
      <stop
         offset="1"
         stop-color="#cdcdcd"
         id="stop21" />
    </linearGradient>
    <linearGradient
       gradientUnits="userSpaceOnUse"
       id="linearGradient998"
       x1="6.40561"
       x2="41.36901"
       gradientTransform="rotate(90,-24.892329,-25.610929)">
      <stop
         offset="0"
         stop-color="#fff"
         id="stop24" />
      <stop
         offset="1"
         stop-color="#fff"
         stop-opacity="0"
         id="stop26" />
    </linearGradient>
    <radialGradient
       cx="605.71429"
       cy="486.64789"
       gradientTransform="matrix(0.062142,0,0,0.029001,1.636502,28.085503)"
       gradientUnits="userSpaceOnUse"
       id="radialGradient3129"
       r="117.14286"
       xlink:href="#linearGradient5060" />
    <radialGradient
       cx="605.71429"
       cy="486.64789"
       gradientTransform="matrix(-0.062142,0,0,0.029001,46.53201,28.085503)"
       gradientUnits="userSpaceOnUse"
       id="radialGradient3131"
       r="117.14286"
       xlink:href="#linearGradient5060" />
  </defs>
  <path
     inkscape:connector-curvature="0"
     style="fill:#e6e6e6;stroke-width:0.14992435"
     d="M 6.4443073,0.72186173 H 31.066385 L 44.11715,13.721953 v 30.468678 c 0,1.601042 -1.298195,2.897888 -2.897888,2.897888 H 6.4443073 c -1.599693,0 -2.897888,-1.296846 -2.897888,-2.897888 V 3.6197497 c 0,-1.6010423 1.298345,-2.89788797 2.897888,-2.89788797 z"
     id="path2" />
  <g
     aria-label="+"
     style="font-style:normal;font-weight:normal;font-size:11.97048664px;line-height:1.25;font-family:sans-serif;letter-spacing:0px;word-spacing:0px;fill:#666666;fill-opacity:1;stroke:none;stroke-width:0.74815542"
     id="text843">
    <path
       inkscape:connector-curvature="0"
       d="m 25.610494,25.921129 v 1.221598 q 0,0.292248 0.204574,0.496822 0.204573,0.204573 0.496822,0.204573 0.286403,0 0.490977,-0.204573 0.204573,-0.204574 0.204573,-0.496822 v -1.221598 h 1.221598 q 0.292248,0 0.496822,-0.204573 0.204574,-0.204574 0.204574,-0.496822 0,-0.286404 -0.204574,-0.490977 -0.204574,-0.204574 -0.496822,-0.204574 H 27.00744 v -1.221598 q 0,-0.292248 -0.204573,-0.496822 -0.204574,-0.204573 -0.490977,-0.204573 -0.292249,0 -0.496822,0.204573 -0.204574,0.204574 -0.204574,0.496822 v 1.221598 h -1.221598 q -0.292248,0 -0.496822,0.204574 -0.204573,0.204573 -0.204573,0.490977 0,0.292248 0.204573,0.496822 0.204574,0.204573 0.496822,0.204573 z"
       style="font-style:normal;font-variant:normal;font-weight:normal;font-stretch:normal;font-family:Aoki;-inkscape-font-specification:Aoki;fill:#666666;stroke-width:0.74815542"
       id="path855" />
  </g>
  <path
     inkscape:connector-curvature="0"
     style="fill:#999999;stroke:#000000;stroke-width:0.14992435;stroke-opacity:1"
     d="M 44.075321,13.762433 H 33.974617 c -1.599693,0 -2.897888,-1.298195 -2.897888,-2.897888 V 0.75079713 Z"
     id="path4" />
  <path
     id="path892"
     d="M 6.4443073,0.72186173 H 31.066385 L 44.11715,13.721953 v 30.468678 c 0,1.601042 -1.298195,2.897888 -2.897888,2.897888 H 6.4443073 c -1.599693,0 -2.897888,-1.296846 -2.897888,-2.897888 V 3.6197497 c 0,-1.6010423 1.298345,-2.89788797 2.897888,-2.89788797 z"
     style="fill:none;stroke:#000000;stroke-width:0.15000001;stroke-linecap:round;stroke-linejoin:round;stroke-miterlimit:4;stroke-dasharray:none;stroke-opacity:1;paint-order:stroke fill markers"
     inkscape:connector-curvature="0" />
  <g
     aria-label="+"
     style="font-style:normal;font-weight:normal;font-size:11.97048664px;line-height:1.25;font-family:sans-serif;letter-spacing:0px;word-spacing:0px;fill:#666666;fill-opacity:1;stroke:none;stroke-width:0.74815542"
     id="text847">
    <path
       inkscape:connector-curvature="0"
       d="m 31.422994,25.921129 v 1.221598 q 0,0.292248 0.204574,0.496822 0.204573,0.204573 0.496822,0.204573 0.286403,0 0.490977,-0.204573 0.204573,-0.204574 0.204573,-0.496822 v -1.221598 h 1.221598 q 0.292248,0 0.496822,-0.204573 0.204574,-0.204574 0.204574,-0.496822 0,-0.286404 -0.204574,-0.490977 -0.204574,-0.204574 -0.496822,-0.204574 H 32.81994 v -1.221598 q 0,-0.292248 -0.204573,-0.496822 -0.204574,-0.204573 -0.490977,-0.204573 -0.292249,0 -0.496822,0.204573 -0.204574,0.204574 -0.204574,0.496822 v 1.221598 h -1.221598 q -0.292248,0 -0.496822,0.204574 -0.204573,0.204573 -0.204573,0.490977 0,0.292248 0.204573,0.496822 0.204574,0.204573 0.496822,0.204573 z"
       style="font-style:normal;font-variant:normal;font-weight:normal;font-stretch:normal;font-family:Aoki;-inkscape-font-specification:Aoki;fill:#666666;stroke-width:0.74815542"
       id="path852" />
  </g>
  <g
     aria-label="c"
     style="font-style:normal;font-weight:normal;font-size:18.4975605px;line-height:1.25;font-family:sans-serif;letter-spacing:0px;word-spacing:0px;fill:#666666;fill-opacity:1;stroke:none;stroke-width:1.15609753"
     id="text839">
    <path
       inkscape:connector-curvature="0"
       d="m 19.216692,31.5625 q 2.682508,0 4.57923,-1.896723 0.316121,-0.31612 0.316121,-0.767721 0,-0.442568 -0.316121,-0.758689 -0.31612,-0.31612 -0.758689,-0.31612 -0.4516,0 -0.767721,0.31612 -1.264481,1.264482 -3.05282,1.264482 -1.79737,0 -3.061852,-1.264482 -1.264481,-1.264481 -1.264481,-3.061852 0,-1.788338 1.264481,-3.05282 1.264482,-1.264481 3.061852,-1.264481 1.788339,0 3.05282,1.264481 0.316121,0.316121 0.767721,0.316121 0.442569,0 0.758689,-0.316121 0.316121,-0.31612 0.316121,-0.767721 0,-0.442568 -0.316121,-0.758689 -1.896722,-1.896722 -4.57923,-1.896722 -2.691539,0 -4.588262,1.896722 -1.896722,1.896723 -1.896722,4.57923 0,2.69154 1.896722,4.588262 1.896723,1.896723 4.588262,1.896723 z"
       style="font-style:normal;font-variant:normal;font-weight:normal;font-stretch:normal;font-family:Aoki;-inkscape-font-specification:Aoki;fill:#666666;stroke-width:1.15609753"
       id="path849" />
  </g>
</svg>
