<?xml version="1.0" encoding="UTF-8" standalone="no"?>
<svg
   xmlns:dc="http://purl.org/dc/elements/1.1/"
   xmlns:cc="http://creativecommons.org/ns#"
   xmlns:rdf="http://www.w3.org/1999/02/22-rdf-syntax-ns#"
   xmlns:svg="http://www.w3.org/2000/svg"
   xmlns="http://www.w3.org/2000/svg"
   xmlns:xlink="http://www.w3.org/1999/xlink"
   xmlns:sodipodi="http://sodipodi.sourceforge.net/DTD/sodipodi-0.dtd"
   xmlns:inkscape="http://www.inkscape.org/namespaces/inkscape"
   viewBox="0 0 48 48"
   id="svg2"
   version="1.1"
   inkscape:version="0.92.2 2405546, 2018-03-11"
   width="100%"
   height="100%"
   sodipodi:docname="video-x-generic.svg">
  <metadata
     id="metadata63">
    <rdf:RDF>
      <cc:Work
         rdf:about="">
        <dc:format>image/svg+xml</dc:format>
        <dc:type
           rdf:resource="http://purl.org/dc/dcmitype/StillImage" />
      </cc:Work>
    </rdf:RDF>
  </metadata>
  <sodipodi:namedview
     pagecolor="#ffffff"
     bordercolor="#666666"
     borderopacity="1"
     objecttolerance="10"
     gridtolerance="10"
     guidetolerance="10"
     inkscape:pageopacity="0"
     inkscape:pageshadow="2"
     inkscape:window-width="1920"
     inkscape:window-height="1013"
     id="namedview61"
     showgrid="false"
     inkscape:zoom="15.798127"
     inkscape:cx="2.9278082"
     inkscape:cy="25.423729"
     inkscape:window-x="0"
     inkscape:window-y="0"
     inkscape:window-maximized="1"
     inkscape:current-layer="g885"
     inkscape:snap-global="false" />
  <defs
     id="defs4">
    <linearGradient
       id="linearGradient1000">
      <stop
         offset="0"
         stop-color="#fff"
         id="stop7" />
      <stop
         offset="1"
         stop-color="#fff"
         stop-opacity="0"
         id="stop9" />
    </linearGradient>
    <linearGradient
       id="linearGradient5060">
      <stop
         offset="0"
         id="stop12" />
      <stop
         offset="1"
         stop-opacity="0"
         id="stop14" />
    </linearGradient>
    <linearGradient
       gradientUnits="userSpaceOnUse"
       id="linearGradient3127"
       x2="0"
       y1="38.7186"
       y2="45.76167">
      <stop
         offset="0"
         stop-opacity="0"
         id="stop17" />
      <stop
         offset=".5"
         id="stop19" />
      <stop
         offset="1"
         stop-opacity="0"
         id="stop21" />
    </linearGradient>
    <linearGradient
       gradientTransform="matrix(1.102564,0,0,1,16.241853,53.593224)"
       gradientUnits="userSpaceOnUse"
       id="linearGradient3911-3"
       x2="0"
       y1="44"
       y2="3.899">
      <stop
         offset="0"
         stop-color="#202020"
         id="stop24" />
      <stop
         offset="1"
         stop-color="#383838"
         id="stop26" />
    </linearGradient>
    <linearGradient
       gradientUnits="userSpaceOnUse"
       id="linearGradient998"
       x1="6.40561"
       x2="41.36901"
       xlink:href="#linearGradient1000"
       gradientTransform="rotate(90,28.067797,29.898305)" />
    <radialGradient
       cx="7.49568"
       cy="8.44977"
       gradientTransform="matrix(2.142113e-8,2.33699,-2.725821,-4.3056275e-8,65.736069,41.158425)"
       gradientUnits="userSpaceOnUse"
       id="radialGradient3909-3"
       r="19.99999">
      <stop
         offset="0"
         stop-color="#4d4d4d"
         id="stop31" />
      <stop
         offset=".262"
         stop-color="#404040"
         id="stop33" />
      <stop
         offset=".705"
         stop-color="#303030"
         id="stop35" />
      <stop
         offset="1"
         stop-color="#232323"
         id="stop37" />
    </radialGradient>
    <radialGradient
       cx="605.71429"
       cy="486.64789"
       gradientTransform="matrix(0.062142,0,0,0.029001,1.636502,28.085503)"
       gradientUnits="userSpaceOnUse"
       id="radialGradient3129"
       r="117.14286"
       xlink:href="#linearGradient5060" />
    <radialGradient
       cx="605.71429"
       cy="486.64789"
       gradientTransform="matrix(-0.062142,0,0,0.029001,46.53201,28.085503)"
       gradientUnits="userSpaceOnUse"
       id="radialGradient3131"
       r="117.14286"
       xlink:href="#linearGradient5060" />
    <linearGradient
       gradientUnits="userSpaceOnUse"
       id="linearGradient4594"
       x1="8.2114201"
       x2="31.74275"
       y1="-5.7136502"
       y2="25.48744">
      <stop
         offset="0"
         stop-color="#fff"
         id="stop37-5" />
      <stop
         offset="1"
         stop-color="#fff"
         stop-opacity="0"
         id="stop39" />
    </linearGradient>
    <linearGradient
       gradientUnits="userSpaceOnUse"
       id="linearGradient3157-5"
       x1="-42.696152"
       x2="-5.8431101"
       gradientTransform="matrix(0,-1,-1.1278454,0,-3.0682832,0)">
      <stop
         offset="0"
         stop-color="#cf0000"
         id="stop22" />
      <stop
         offset="1"
         stop-color="#dc5600"
         id="stop24-3" />
    </linearGradient>
  </defs>
  <path
     inkscape:connector-curvature="0"
     style="fill:#985698;fill-opacity:1;stroke-width:0.14992435"
     d="M 6.4443073,0.721862 H 31.066385 L 44.11715,13.721953 v 30.468678 c 0,1.601042 -1.298195,2.897888 -2.897888,2.897888 H 6.4443073 c -1.599693,0 -2.897888,-1.296846 -2.897888,-2.897888 V 3.61975 c 0,-1.6010423 1.298345,-2.897888 2.897888,-2.897888 z"
     id="path2" />
  <path
     inkscape:connector-curvature="0"
     style="fill:#5d345d;fill-opacity:1;stroke-width:0.14992435;stroke:#000000;stroke-opacity:1"
     d="M 44.075321,13.762433 H 33.974617 c -1.599693,0 -2.897888,-1.298195 -2.897888,-2.897888 V 0.7507974 Z"
     id="path4" />
  <path
     id="path892"
     d="M 6.4443073,0.721862 H 31.066385 L 44.11715,13.721953 v 30.468678 c 0,1.601042 -1.298195,2.897888 -2.897888,2.897888 H 6.4443073 c -1.599693,0 -2.897888,-1.296846 -2.897888,-2.897888 V 3.61975 c 0,-1.6010423 1.298345,-2.897888 2.897888,-2.897888 z"
     style="fill:none;stroke:#000000;stroke-width:0.15000001;stroke-linecap:round;stroke-linejoin:round;stroke-miterlimit:4;stroke-dasharray:none;stroke-opacity:1;paint-order:stroke fill markers"
     inkscape:connector-curvature="0" />
  <g
     id="g885"
     transform="translate(-1.4237288,1.220339)"
     style="stroke:none">
    <g
       id="g876"
       transform="translate(-0.101695)"
       style="stroke:none;stroke-opacity:1">
      <path
         style="opacity:1;fill:#ffffff;fill-opacity:1;stroke:none;stroke-width:0.31275982;stroke-linecap:round;stroke-linejoin:round;stroke-miterlimit:4;stroke-dasharray:none;stroke-opacity:1;paint-order:stroke fill markers"
         d="m 9.2755338,6.6692438 h 4.2285942 c 0.486121,0 0.877476,0.6055656 0.877476,1.3577705 v 3.3425807 c 0,0.752204 -0.391355,1.35777 -0.877476,1.35777 H 9.2755338 c -0.4861216,0 -0.8774759,-0.605566 -0.8774759,-1.35777 V 8.0270143 c 0,-0.7522049 0.3913543,-1.3577705 0.8774759,-1.3577705 z"
         id="rect866" />
      <path
         style="opacity:1;fill:#ffffff;fill-opacity:1;stroke:none;stroke-width:0.31275982;stroke-linecap:round;stroke-linejoin:round;stroke-miterlimit:4;stroke-dasharray:none;stroke-opacity:1;paint-order:stroke fill markers"
         d="m 9.2755338,15.695232 h 4.2285942 c 0.486121,0 0.877476,0.605566 0.877476,1.357771 v 3.34258 c 0,0.752205 -0.391355,1.357771 -0.877476,1.357771 H 9.2755338 c -0.4861216,0 -0.8774759,-0.605566 -0.8774759,-1.357771 v -3.34258 c 0,-0.752205 0.3913543,-1.357771 0.8774759,-1.357771 z"
         id="rect868" />
      <path
         style="opacity:1;fill:#ffffff;fill-opacity:1;stroke:none;stroke-width:0.31275982;stroke-linecap:round;stroke-linejoin:round;stroke-miterlimit:4;stroke-dasharray:none;stroke-opacity:1;paint-order:stroke fill markers"
         d="m 9.2755338,24.72122 h 4.2285942 c 0.486121,0 0.877476,0.605566 0.877476,1.35777 v 3.342581 c 0,0.752205 -0.391355,1.35777 -0.877476,1.35777 H 9.2755338 c -0.4861216,0 -0.8774759,-0.605565 -0.8774759,-1.35777 V 26.07899 c 0,-0.752204 0.3913543,-1.35777 0.8774759,-1.35777 z"
         id="rect870" />
      <path
         style="opacity:1;fill:#ffffff;fill-opacity:1;stroke:none;stroke-width:0.31275982;stroke-linecap:round;stroke-linejoin:round;stroke-miterlimit:4;stroke-dasharray:none;stroke-opacity:1;paint-order:stroke fill markers"
         d="m 9.2755338,33.747204 h 4.2285942 c 0.486121,0 0.877476,0.605565 0.877476,1.35777 v 3.342581 c 0,0.752204 -0.391355,1.35777 -0.877476,1.35777 H 9.2755338 c -0.4861216,0 -0.8774759,-0.605566 -0.8774759,-1.35777 v -3.342581 c 0,-0.752205 0.3913543,-1.35777 0.8774759,-1.35777 z"
         id="rect872" />
      <path
         style="opacity:1;fill:#ffffff;fill-opacity:1;stroke:none;stroke-width:0.31275982;stroke-linecap:round;stroke-linejoin:round;stroke-miterlimit:4;stroke-dasharray:none;stroke-opacity:1;paint-order:stroke fill markers"
         d="m 37.275532,15.695232 h 4.228594 c 0.486122,0 0.877476,0.605566 0.877476,1.357771 v 3.34258 c 0,0.752205 -0.391354,1.357771 -0.877476,1.357771 h -4.228594 c -0.486122,0 -0.877476,-0.605566 -0.877476,-1.357771 v -3.34258 c 0,-0.752205 0.391354,-1.357771 0.877476,-1.357771 z"
         id="rect884" />
      <path
         style="opacity:1;fill:#ffffff;fill-opacity:1;stroke:none;stroke-width:0.31275982;stroke-linecap:round;stroke-linejoin:round;stroke-miterlimit:4;stroke-dasharray:none;stroke-opacity:1;paint-order:stroke fill markers"
         d="m 37.275532,24.72122 h 4.228594 c 0.486122,0 0.877476,0.605566 0.877476,1.35777 v 3.342581 c 0,0.752205 -0.391354,1.35777 -0.877476,1.35777 h -4.228594 c -0.486122,0 -0.877476,-0.605565 -0.877476,-1.35777 V 26.07899 c 0,-0.752204 0.391354,-1.35777 0.877476,-1.35777 z"
         id="rect886" />
      <path
         style="opacity:1;fill:#ffffff;fill-opacity:1;stroke:none;stroke-width:0.31275982;stroke-linecap:round;stroke-linejoin:round;stroke-miterlimit:4;stroke-dasharray:none;stroke-opacity:1;paint-order:stroke fill markers"
         d="m 37.275532,33.747204 h 4.228594 c 0.486122,0 0.877476,0.605565 0.877476,1.35777 v 3.342581 c 0,0.752204 -0.391354,1.35777 -0.877476,1.35777 h -4.228594 c -0.486122,0 -0.877476,-0.605566 -0.877476,-1.35777 v -3.342581 c 0,-0.752205 0.391354,-1.35777 0.877476,-1.35777 z"
         id="rect888" />
    </g>
    <path
       style="color:#000000;font-style:normal;font-variant:normal;font-weight:normal;font-stretch:normal;font-size:medium;line-height:normal;font-family:sans-serif;font-variant-ligatures:normal;font-variant-position:normal;font-variant-caps:normal;font-variant-numeric:normal;font-variant-alternates:normal;font-feature-settings:normal;text-indent:0;text-align:start;text-decoration:none;text-decoration-line:none;text-decoration-style:solid;text-decoration-color:#000000;letter-spacing:normal;word-spacing:normal;text-transform:none;writing-mode:lr-tb;direction:ltr;text-orientation:mixed;dominant-baseline:auto;baseline-shift:baseline;text-anchor:start;white-space:normal;shape-padding:0;clip-rule:nonzero;display:inline;overflow:visible;visibility:visible;opacity:1;isolation:auto;mix-blend-mode:normal;color-interpolation:sRGB;color-interpolation-filters:linearRGB;solid-color:#000000;solid-opacity:1;vector-effect:none;fill:#ffffff;fill-opacity:1;fill-rule:nonzero;stroke:none;stroke-width:0.24330901;stroke-linecap:round;stroke-linejoin:round;stroke-miterlimit:4;stroke-dasharray:none;stroke-dashoffset:0;stroke-opacity:1;paint-order:stroke fill markers;color-rendering:auto;image-rendering:auto;shape-rendering:auto;text-rendering:auto;enable-background:accumulate"
       d="m 20.724857,19.373646 c -0.557103,0.02079 -0.997992,0.478473 -0.997946,1.035964 v 8.794607 c -7.73e-4,0.770998 0.810451,1.272981 1.500088,0.928249 l 8.794607,-4.398888 c 0.762699,-0.382372 0.762699,-1.470958 0,-1.85333 l -8.794607,-4.397303 c -0.155553,-0.07801 -0.32824,-0.115591 -0.502142,-0.109299 z"
       id="path890"
       inkscape:connector-curvature="0"
       sodipodi:nodetypes="cccccccc" />
  </g>
</svg>
