<?xml version="1.0" encoding="UTF-8" standalone="no"?>
<svg
   xmlns:dc="http://purl.org/dc/elements/1.1/"
   xmlns:cc="http://creativecommons.org/ns#"
   xmlns:rdf="http://www.w3.org/1999/02/22-rdf-syntax-ns#"
   xmlns:svg="http://www.w3.org/2000/svg"
   xmlns="http://www.w3.org/2000/svg"
   xmlns:xlink="http://www.w3.org/1999/xlink"
   xmlns:sodipodi="http://sodipodi.sourceforge.net/DTD/sodipodi-0.dtd"
   xmlns:inkscape="http://www.inkscape.org/namespaces/inkscape"
   viewBox="0 0 48 48"
   id="svg2"
   version="1.1"
   inkscape:version="0.92.2 2405546, 2018-03-11"
   width="100%"
   height="100%"
   sodipodi:docname="libreoffice-oasis-spreadsheet.svg">
  <metadata
     id="metadata94">
    <rdf:RDF>
      <cc:Work
         rdf:about="">
        <dc:format>image/svg+xml</dc:format>
        <dc:type
           rdf:resource="http://purl.org/dc/dcmitype/StillImage" />
        <dc:title />
      </cc:Work>
    </rdf:RDF>
  </metadata>
  <sodipodi:namedview
     pagecolor="#ffffff"
     bordercolor="#666666"
     borderopacity="1"
     objecttolerance="10"
     gridtolerance="10"
     guidetolerance="10"
     inkscape:pageopacity="0"
     inkscape:pageshadow="2"
     inkscape:window-width="1920"
     inkscape:window-height="1013"
     id="namedview92"
     showgrid="true"
     inkscape:zoom="11.313708"
     inkscape:cx="13.81887"
     inkscape:cy="23.527543"
     inkscape:window-x="0"
     inkscape:window-y="0"
     inkscape:window-maximized="1"
     inkscape:current-layer="g8">
    <inkscape:grid
       type="xygrid"
       id="grid3193" />
  </sodipodi:namedview>
  <defs
     id="defs4">
    <linearGradient
       id="linearGradient5060">
      <stop
         offset="0"
         id="stop7" />
      <stop
         offset="1"
         stop-opacity="0"
         id="stop9" />
    </linearGradient>
    <linearGradient
       gradientUnits="userSpaceOnUse"
       id="linearGradient3127"
       x2="0"
       y1="38.7186"
       y2="45.76167">
      <stop
         offset="0"
         stop-opacity="0"
         id="stop12" />
      <stop
         offset=".5"
         id="stop14" />
      <stop
         offset="1"
         stop-opacity="0"
         id="stop16" />
    </linearGradient>
    <radialGradient
       cx="605.71429"
       cy="486.64789"
       gradientTransform="matrix(0.062142,0,0,0.029001,1.636502,28.085503)"
       gradientUnits="userSpaceOnUse"
       id="radialGradient3129"
       r="117.14286"
       xlink:href="#linearGradient5060" />
    <radialGradient
       cx="605.71429"
       cy="486.64789"
       gradientTransform="matrix(-0.062142,0,0,0.029001,46.53201,28.085503)"
       gradientUnits="userSpaceOnUse"
       id="radialGradient3131"
       r="117.14286"
       xlink:href="#linearGradient5060" />
    <linearGradient
       y1="-23"
       y2="-23"
       x2="42"
       x1="6"
       id="linearGradient998-9"
       gradientUnits="userSpaceOnUse">
      <stop
         id="stop24-5"
         stop-color="#fff"
         offset="0" />
      <stop
         style="stop-color:#ffffff;stop-opacity:0.5"
         id="stop26-5"
         stop-opacity="0"
         stop-color="#fff"
         offset="1" />
    </linearGradient>
    <linearGradient
       x2="-5.84311"
       x1="-42.69615"
       id="linearGradient3157-5-8"
       gradientUnits="userSpaceOnUse">
      <stop
         id="stop19-8"
         stop-color="#fff"
         offset="0" />
      <stop
         id="stop21-0"
         stop-color="#cdcdcd"
         offset="1" />
    </linearGradient>
    <linearGradient
       id="linearGradient3853">
      <stop
         style="stop-color:#ffffff;stop-opacity:1;"
         offset="0"
         id="stop3855" />
      <stop
         style="stop-color:#ffffff;stop-opacity:0;"
         offset="1"
         id="stop3857" />
    </linearGradient>
    <linearGradient
       id="linearGradient3866">
      <stop
         id="stop3868"
         offset="0"
         style="stop-color:#818181;stop-opacity:1;" />
      <stop
         id="stop3870"
         offset="1"
         style="stop-color:#667c03;stop-opacity:1;" />
    </linearGradient>
    <linearGradient
       id="linearGradient3934">
      <stop
         id="stop3936"
         offset="0"
         style="stop-color:#5a5a5a;stop-opacity:1;" />
      <stop
         id="stop3940"
         offset="1"
         style="stop-color:#c8c8c8;stop-opacity:1;" />
    </linearGradient>
  </defs>
  <g
     transform="matrix(0.15141137,0,0,0.15141137,0.44006636,0.41522772)"
     id="g8">
    <path
       inkscape:connector-curvature="0"
       style="fill:#3db39e"
       d="m 38.658,0 h 164.23 l 87.049,86.711 v 203.227 c 0,10.679 -8.659,19.329 -19.329,19.329 H 38.658 c -10.67,0 -19.329,-8.65 -19.329,-19.329 V 19.329 C 19.329,8.65 27.989,0 38.658,0 Z"
       id="path2" />
    <path
       inkscape:connector-curvature="0"
       style="fill:#2f8a78;stroke:none"
       d="m 289.658,86.981 h -67.372 c -10.67,0 -19.329,-8.659 -19.329,-19.329 V 0.193 Z"
       id="path4" />
    <path
       inkscape:connector-curvature="0"
       style="fill:#f9f9f9;opacity:0.897"
       d="M 77.317,125.64 V 251.28 H 231.95 V 125.64 Z m 115.975,9.664 v 19.329 h -19.329 v -19.329 z m -57.988,48.323 h -19.329 v -19.32 h 19.329 z m 9.665,-19.319 h 19.329 v 19.32 h -19.329 z m -9.665,28.994 v 19.32 h -19.329 v -19.32 z m 9.665,0 h 19.329 v 19.32 h -19.329 z m 28.994,0 h 19.329 v 19.32 h -19.329 z m 0,-9.675 v -19.32 h 19.329 v 19.32 z m -9.665,-48.323 v 19.329 h -19.329 v -19.329 z m -28.994,0 v 19.329 h -19.329 v -19.329 z m -48.323,0 h 19.329 v 19.329 H 86.981 Z m 0,29.004 h 19.329 v 19.32 H 86.981 Z m 0,28.994 h 19.329 v 19.32 H 86.981 Z m 0,48.323 v -19.339 h 19.329 v 19.339 z m 28.994,0 v -19.339 h 19.329 v 19.339 z m 28.994,0 v -19.339 h 19.329 v 19.339 z m 28.994,0 v -19.339 h 19.329 v 19.339 z m 48.323,0 h -19.329 v -19.339 h 19.329 z m 0,-29.004 h -19.329 v -19.32 h 19.329 z m 0,-28.994 h -19.329 v -19.32 h 19.329 z m 0,-28.993 h -19.329 v -19.329 h 19.329 z"
       id="path6" />
  </g>
  <g
     id="g853"
     transform="matrix(0.15141137,0,0,0.15141137,0.44006636,0.41522772)"
     style="fill:none;stroke:#000000;stroke-opacity:1;stroke-width:0.9972831;stroke-miterlimit:4;stroke-dasharray:none;stroke-linejoin:round;stroke-linecap:round;paint-order:stroke fill markers">
    <path
       id="path847"
       d="m 38.658,0 h 164.23 l 87.049,86.711 v 203.227 c 0,10.679 -8.659,19.329 -19.329,19.329 H 38.658 c -10.67,0 -19.329,-8.65 -19.329,-19.329 V 19.329 C 19.329,8.65 27.989,0 38.658,0 Z"
       style="fill:none;stroke:#000000;stroke-opacity:1;stroke-width:0.9972831;stroke-miterlimit:4;stroke-dasharray:none;stroke-linejoin:round;stroke-linecap:round;paint-order:stroke fill markers"
       inkscape:connector-curvature="0" />
    <path
       id="path849"
       d="m 289.658,86.981 h -67.372 c -10.67,0 -19.329,-8.659 -19.329,-19.329 V 0.193 Z"
       style="fill:none;stroke:#000000;stroke-opacity:1;stroke-width:0.9972831;stroke-miterlimit:4;stroke-dasharray:none;stroke-linejoin:round;stroke-linecap:round;paint-order:stroke fill markers"
       inkscape:connector-curvature="0" />
  </g>
</svg>
