<?xml version="1.0" encoding="UTF-8"?>
<svg xmlns="http://www.w3.org/2000/svg" xmlns:xlink="http://www.w3.org/1999/xlink" width="22px" height="22px" viewBox="0 0 22 22" version="1.1">
<g id="surface1">
<path style=" stroke:none;fill-rule:nonzero;fill:rgb(83.137256%,85.490197%,89.019608%);fill-opacity:1;" d="M 20.03125 11.832031 C 19.96875 11.683594 19.824219 11.589844 19.664062 11.589844 L 15.3125 11.589844 L 15.3125 1.667969 C 15.3125 1.445312 15.136719 1.269531 14.917969 1.269531 L 8.566406 1.269531 C 8.347656 1.269531 8.167969 1.445312 8.167969 1.667969 L 8.167969 11.589844 L 3.804688 11.589844 C 3.644531 11.589844 3.5 11.6875 3.4375 11.832031 C 3.375 11.980469 3.410156 12.152344 3.523438 12.265625 L 11.441406 20.210938 C 11.515625 20.285156 11.617188 20.328125 11.722656 20.328125 C 11.828125 20.328125 11.929688 20.285156 12.003906 20.210938 L 19.945312 12.265625 C 20.058594 12.152344 20.089844 11.980469 20.03125 11.832031 Z M 20.03125 11.832031 "/>
</g>
</svg>
