<?xml version="1.0" encoding="UTF-8"?>
<svg xmlns="http://www.w3.org/2000/svg" xmlns:xlink="http://www.w3.org/1999/xlink" width="22px" height="22px" viewBox="0 0 22 22" version="1.1">
<g id="surface1">
<path style=" stroke:none;fill-rule:nonzero;fill:rgb(82.352942%,85.882354%,89.019608%);fill-opacity:1;" d="M 8.597656 1.375 L 8.382812 3.910156 C 7.582031 4.207031 6.832031 4.640625 6.175781 5.1875 L 3.871094 4.101562 L 1.464844 8.269531 L 3.554688 9.722656 C 3.480469 10.144531 3.441406 10.570312 3.441406 11 C 3.441406 11.429688 3.476562 11.855469 3.550781 12.28125 L 1.464844 13.726562 L 3.871094 17.894531 L 6.167969 16.8125 C 6.832031 17.359375 7.578125 17.789062 8.382812 18.082031 L 8.589844 20.625 L 13.402344 20.625 L 13.617188 18.089844 C 14.417969 17.792969 15.167969 17.359375 15.824219 16.8125 L 18.128906 17.898438 L 20.535156 13.730469 L 18.445312 12.277344 C 18.519531 11.855469 18.558594 11.429688 18.558594 11 C 18.558594 10.570312 18.523438 10.144531 18.449219 9.71875 L 20.535156 8.273438 L 18.128906 4.105469 L 15.832031 5.1875 C 15.167969 4.640625 14.421875 4.210938 13.617188 3.917969 L 13.410156 1.375 Z M 11.003906 8.25 C 12.523438 8.25 13.753906 9.480469 13.753906 11 C 13.753906 12.515625 12.523438 13.75 11.003906 13.75 C 9.484375 13.75 8.253906 12.515625 8.253906 11 C 8.253906 9.480469 9.484375 8.25 11.003906 8.25 Z M 11.003906 8.25 "/>
</g>
</svg>
