<?xml version="1.0" encoding="UTF-8"?>
<svg xmlns="http://www.w3.org/2000/svg" xmlns:xlink="http://www.w3.org/1999/xlink" width="22px" height="22px" viewBox="0 0 22 22" version="1.1">
<g id="surface1">
<path style=" stroke:none;fill-rule:nonzero;fill:rgb(82.352942%,85.882354%,89.019608%);fill-opacity:1;" d="M 8.25 2.75 C 5.972656 2.75 4.125 4.597656 4.125 6.875 C 4.125 9.152344 5.972656 11 8.25 11 C 10.527344 11 12.375 9.152344 12.375 6.875 C 12.375 4.597656 10.527344 2.75 8.25 2.75 Z M 15.121094 5.425781 L 15.125 5.429688 C 14.589844 5.429688 14.089844 5.554688 13.632812 5.757812 C 13.710938 6.117188 13.75 6.492188 13.75 6.871094 C 13.75 8.386719 13.125 9.765625 12.121094 10.761719 C 12.753906 11.726562 13.855469 12.371094 15.121094 12.371094 C 17.089844 12.371094 18.6875 10.816406 18.6875 8.898438 C 18.6875 6.980469 17.089844 5.425781 15.121094 5.425781 Z M 8.25 13.746094 C 0 13.75 0 19.25 0 19.25 L 0 20.625 L 16.5 20.625 L 16.5 19.25 C 16.5 19.25 16.5 13.734375 8.25 13.75 Z M 15.125 13.746094 L 15.125 13.75 C 14.855469 13.75 14.613281 13.765625 14.363281 13.78125 C 15.324219 14.328125 16.054688 14.984375 16.570312 15.671875 C 17.863281 17.40625 17.875 19.246094 17.875 19.246094 L 22 19.246094 L 22 17.871094 C 22 17.871094 22 13.746094 15.125 13.746094 Z M 15.125 13.746094 "/>
</g>
</svg>
