<?xml version="1.0" encoding="UTF-8"?>
<svg xmlns="http://www.w3.org/2000/svg" xmlns:xlink="http://www.w3.org/1999/xlink" width="22px" height="22px" viewBox="0 0 22 22" version="1.1">
<g id="surface1">
<path style=" stroke:none;fill-rule:nonzero;fill:rgb(82.352942%,85.882354%,89.019608%);fill-opacity:1;" d="M 11 1.378906 C 5.683594 1.378906 1.375 5.691406 1.375 11.003906 C 1.375 16.320312 5.683594 20.628906 11 20.628906 C 16.316406 20.628906 20.625 16.320312 20.625 11.003906 C 20.625 5.691406 16.316406 1.378906 11 1.378906 Z M 9.625 4.125 L 12.375 4.125 L 12.375 12.375 L 9.625 12.375 Z M 11 13.75 C 11.757812 13.75 12.375 14.367188 12.375 15.125 C 12.375 15.882812 11.757812 16.5 11 16.5 C 10.242188 16.5 9.625 15.882812 9.625 15.125 C 9.625 14.367188 10.242188 13.75 11 13.75 Z M 11 13.75 "/>
</g>
</svg>
