<?xml version="1.0" encoding="UTF-8"?>
<svg xmlns="http://www.w3.org/2000/svg" xmlns:xlink="http://www.w3.org/1999/xlink" width="22px" height="22px" viewBox="0 0 22 22" version="1.1">
<g id="surface1">
<path style=" stroke:none;fill-rule:nonzero;fill:rgb(82.352942%,85.882354%,89.019608%);fill-opacity:1;" d="M 12.375 4.125 C 10.308594 4.125 8.417969 5.289062 7.480469 7.128906 C 7.070312 6.960938 6.628906 6.875 6.1875 6.875 C 4.46875 6.875 3.015625 8.148438 2.785156 9.851562 C 1.121094 10.425781 0 11.988281 0 13.75 C 0 16.027344 1.847656 17.875 4.125 17.875 L 16.5 17.875 C 18.777344 17.875 20.625 16.027344 20.625 13.75 C 20.625 12 19.515625 10.441406 17.863281 9.859375 C 17.871094 9.78125 17.875 9.703125 17.875 9.625 C 17.875 6.585938 15.414062 4.125 12.375 4.125 Z M 12.375 4.125 "/>
</g>
</svg>
