<?xml version="1.0" encoding="UTF-8"?>
<svg xmlns="http://www.w3.org/2000/svg" xmlns:xlink="http://www.w3.org/1999/xlink" width="22px" height="22px" viewBox="0 0 22 22" version="1.1">
<g id="surface1">
<path style=" stroke:none;fill-rule:nonzero;fill:rgb(82.352942%,85.882354%,89.019608%);fill-opacity:1;" d="M 11 4.125 C 8.054688 4.128906 5.4375 6.007812 4.492188 8.796875 C 2.589844 9.710938 1.378906 11.636719 1.375 13.75 C 1.375 16.789062 3.835938 19.25 6.875 19.25 C 8.222656 19.246094 9.523438 18.75 10.53125 17.851562 C 10.6875 17.863281 10.84375 17.871094 11 17.875 C 12.003906 17.871094 12.996094 17.648438 13.90625 17.222656 C 14.703125 17.648438 15.59375 17.875 16.5 17.875 C 19.539062 17.875 22 15.414062 22 12.375 C 22 9.335938 19.539062 6.875 16.5 6.875 C 15.191406 5.148438 13.160156 4.128906 11 4.125 Z M 11 4.125 "/>
</g>
</svg>
