<?xml version="1.0" encoding="UTF-8"?>
<svg xmlns="http://www.w3.org/2000/svg" xmlns:xlink="http://www.w3.org/1999/xlink" width="22px" height="22px" viewBox="0 0 22 22" version="1.1">
<g id="surface1">
<path style=" stroke:none;fill-rule:nonzero;fill:rgb(82.352942%,85.882354%,89.019608%);fill-opacity:1;" d="M 3.722656 0.0195312 L 2.753906 0.992188 L 4.6875 2.929688 C 4.320312 3.488281 4.125 4.144531 4.121094 4.8125 C 4.121094 6.445312 5.273438 7.851562 6.871094 8.179688 L 6.871094 13.824219 C 5.273438 14.152344 4.125 15.554688 4.121094 17.1875 C 4.121094 19.085938 5.660156 20.625 7.558594 20.625 C 9.457031 20.625 10.996094 19.085938 10.996094 17.1875 C 10.996094 15.554688 9.847656 14.148438 8.246094 13.820312 L 8.246094 8.175781 C 8.671875 8.089844 9.078125 7.925781 9.441406 7.6875 L 11.5625 9.808594 C 11.195312 10.367188 11 11.019531 11 11.691406 C 11 13.589844 12.539062 15.128906 14.4375 15.128906 C 16.335938 15.128906 17.875 13.589844 17.875 11.691406 C 17.875 9.792969 16.335938 8.253906 14.4375 8.253906 C 13.757812 8.253906 13.09375 8.457031 12.53125 8.832031 L 10.421875 6.722656 C 10.800781 6.15625 11 5.492188 11 4.816406 C 11 2.917969 9.460938 1.378906 7.5625 1.378906 C 6.882812 1.378906 6.222656 1.582031 5.660156 1.957031 Z M 3.722656 0.0195312 "/>
</g>
</svg>
