<?xml version="1.0" encoding="UTF-8"?>
<svg xmlns="http://www.w3.org/2000/svg" xmlns:xlink="http://www.w3.org/1999/xlink" width="22px" height="22px" viewBox="0 0 22 22" version="1.1">
<g id="surface1">
<path style=" stroke:none;fill-rule:nonzero;fill:rgb(83.137256%,85.490197%,89.019608%);fill-opacity:1;" d="M 3.910156 1.386719 C 3.523438 1.445312 2.75 1.707031 2.75 2.667969 L 2.75 19.34375 C 2.75 20.625 4.125 20.628906 4.125 20.628906 L 17.863281 20.628906 C 19.234375 20.628906 19.238281 19.34375 19.238281 19.34375 C 19.261719 19.285156 19.242188 9.785156 19.238281 6.519531 L 13.742188 1.386719 L 4.125 1.386719 C 4.125 1.386719 4.039062 1.367188 3.910156 1.386719 Z M 6.390625 7.84375 L 14.640625 7.84375 L 14.640625 10.144531 L 6.390625 10.144531 Z M 6.390625 11.46875 L 14.640625 11.46875 L 14.640625 13.769531 L 6.390625 13.769531 Z M 6.390625 15.027344 L 14.640625 15.027344 L 14.640625 17.328125 L 6.390625 17.328125 Z M 6.390625 15.027344 "/>
</g>
</svg>
