<?xml version="1.0" encoding="UTF-8"?>
<svg xmlns="http://www.w3.org/2000/svg" xmlns:xlink="http://www.w3.org/1999/xlink" width="22px" height="22px" viewBox="0 0 22 22" version="1.1">
<g id="surface1">
<path style=" stroke:none;fill-rule:nonzero;fill:rgb(82.352942%,85.882354%,89.019608%);fill-opacity:1;" d="M 6.875 2.75 L 5.5 4.125 L 4.125 4.125 C 1.375 4.125 1.375 6.875 1.375 6.875 L 1.375 16.5 C 1.375 19.25 4.125 19.25 4.125 19.25 L 17.875 19.25 C 20.625 19.25 20.625 16.5 20.625 16.5 L 20.625 6.875 C 20.625 4.125 17.875 4.125 17.875 4.125 L 16.5 4.125 L 15.125 2.75 Z M 11 6.875 C 13.277344 6.875 15.125 8.722656 15.125 11 C 15.125 13.277344 13.277344 15.125 11 15.125 C 8.722656 15.125 6.875 13.277344 6.875 11 C 6.875 8.722656 8.722656 6.875 11 6.875 Z M 11 6.875 "/>
</g>
</svg>
