<?xml version="1.0" encoding="UTF-8"?>
<svg xmlns="http://www.w3.org/2000/svg" xmlns:xlink="http://www.w3.org/1999/xlink" width="22px" height="22px" viewBox="0 0 22 22" version="1.1">
<g id="surface1">
<path style=" stroke:none;fill-rule:nonzero;fill:rgb(82.352942%,85.882354%,89.019608%);fill-opacity:1;" d="M 2.75 1.375 C 2.75 1.375 1.375 1.375 1.375 2.75 L 1.375 17.875 C 1.375 17.875 1.375 19.25 2.75 19.25 L 19.25 19.25 C 19.25 19.25 20.625 19.25 20.625 17.875 L 20.625 5.5 C 20.625 4.125 19.25 4.125 19.25 4.125 L 12.375 4.125 L 9.625 1.375 Z M 13.867188 6.875 L 19.367188 11 L 13.867188 15.125 L 13.867188 12.375 C 10.558594 12.546875 10.601562 15.101562 11.117188 17.875 C 8.746094 13.027344 8.882812 9.511719 13.867188 9.625 Z M 13.867188 6.875 "/>
</g>
</svg>
