<?xml version="1.0" encoding="UTF-8"?>
<svg xmlns="http://www.w3.org/2000/svg" xmlns:xlink="http://www.w3.org/1999/xlink" width="22px" height="22px" viewBox="0 0 22 22" version="1.1">
<g id="surface1">
<path style=" stroke:none;fill-rule:nonzero;fill:rgb(82.352942%,85.882354%,89.019608%);fill-opacity:1;" d="M 4.125 8.25 C 2.605469 8.25 1.375 9.480469 1.375 11 C 1.375 12.519531 2.605469 13.75 4.125 13.75 C 5.644531 13.75 6.875 12.519531 6.875 11 C 6.875 9.480469 5.644531 8.25 4.125 8.25 Z M 11 8.25 C 9.480469 8.25 8.25 9.480469 8.25 11 C 8.25 12.519531 9.480469 13.75 11 13.75 C 12.519531 13.75 13.75 12.519531 13.75 11 C 13.75 9.480469 12.519531 8.25 11 8.25 Z M 17.875 8.25 C 16.355469 8.25 15.125 9.480469 15.125 11 C 15.125 12.519531 16.355469 13.75 17.875 13.75 C 19.394531 13.75 20.625 12.519531 20.625 11 C 20.625 9.480469 19.394531 8.25 17.875 8.25 Z M 17.875 8.25 "/>
</g>
</svg>
