<?xml version="1.0" encoding="UTF-8"?>
<svg xmlns="http://www.w3.org/2000/svg" xmlns:xlink="http://www.w3.org/1999/xlink" width="22px" height="22px" viewBox="0 0 22 22" version="1.1">
<g id="surface1">
<path style=" stroke:none;fill-rule:nonzero;fill:rgb(82.352942%,85.882354%,89.019608%);fill-opacity:1;" d="M 3.867188 1.375 C 3.835938 1.382812 3.8125 1.410156 3.78125 1.417969 C 3.671875 1.445312 3.5625 1.480469 3.4375 1.546875 C 3.300781 1.617188 3.164062 1.710938 3.050781 1.847656 C 3.039062 1.863281 3.019531 1.875 3.007812 1.890625 C 2.929688 1.996094 2.882812 2.128906 2.835938 2.277344 C 2.824219 2.320312 2.800781 2.359375 2.792969 2.40625 C 2.765625 2.515625 2.746094 2.632812 2.75 2.75 L 2.75 15.125 L 4.125 15.125 L 4.125 13.75 L 5.5 13.75 L 5.5 4.125 L 12.375 4.125 L 12.375 8.25 L 16.5 8.25 L 16.5 20.625 L 17.875 20.625 L 17.875 19.25 L 19.25 19.25 C 19.25 19.050781 19.25 18.234375 19.25 17.875 L 19.25 11 C 19.246094 7.675781 19.25 7.773438 19.25 7.648438 L 19.25 6.875 L 13.75 1.375 L 4.125 1.375 C 4.125 1.375 4.046875 1.375 3.996094 1.375 C 3.953125 1.375 3.910156 1.375 3.867188 1.375 Z M 17.875 20.625 L 17.875 22 L 19.25 22 L 19.25 20.625 Z M 16.5 20.625 L 15.125 20.625 L 15.125 22 L 16.5 22 Z M 15.125 20.625 L 15.125 19.25 L 13.75 19.25 L 13.75 20.625 Z M 13.75 20.625 L 12.375 20.625 L 12.375 22 L 13.75 22 Z M 12.375 20.625 L 12.375 19.25 L 11 19.25 L 11 20.625 Z M 11 20.625 L 9.625 20.625 L 9.625 22 L 11 22 Z M 9.625 20.625 L 9.625 19.25 L 8.25 19.25 L 8.25 20.625 Z M 8.25 20.625 L 6.875 20.625 L 6.875 22 L 8.25 22 Z M 6.875 20.625 L 6.875 19.25 L 5.5 19.25 L 5.5 20.625 Z M 5.5 20.625 L 4.125 20.625 L 4.125 22 L 5.5 22 Z M 4.125 20.625 L 4.125 19.25 L 2.75 19.25 L 2.75 20.625 Z M 4.125 19.25 L 5.5 19.25 L 5.5 17.875 L 4.125 17.875 Z M 4.125 17.875 L 4.125 16.5 L 2.75 16.5 L 2.75 17.875 Z M 4.125 16.5 L 5.5 16.5 L 5.5 15.125 L 4.125 15.125 Z M 4.125 16.5 "/>
</g>
</svg>
