<?xml version="1.0" encoding="UTF-8"?>
<svg xmlns="http://www.w3.org/2000/svg" xmlns:xlink="http://www.w3.org/1999/xlink" width="22px" height="22px" viewBox="0 0 22 22" version="1.1">
<g id="surface1">
<path style=" stroke:none;fill-rule:nonzero;fill:rgb(82.352942%,85.882354%,89.019608%);fill-opacity:1;" d="M 8.925781 1.371094 C 4.757812 1.371094 1.363281 4.773438 1.363281 8.933594 C 1.363281 13.09375 4.757812 16.496094 8.925781 16.496094 C 10.507812 16.496094 12 16.003906 13.222656 15.164062 L 18.292969 20.234375 C 18.644531 20.582031 19.15625 20.714844 19.632812 20.582031 C 20.113281 20.449219 20.484375 20.070312 20.605469 19.589844 C 20.726562 19.109375 20.582031 18.601562 20.226562 18.257812 L 15.15625 13.1875 C 15.996094 11.96875 16.53125 10.511719 16.53125 8.933594 C 16.53125 4.773438 13.089844 1.371094 8.925781 1.371094 Z M 8.925781 4.121094 C 11.601562 4.121094 13.738281 6.257812 13.738281 8.933594 C 13.738281 11.605469 11.601562 13.746094 8.925781 13.746094 C 6.246094 13.746094 4.113281 11.605469 4.113281 8.933594 C 4.113281 6.257812 6.246094 4.121094 8.925781 4.121094 Z M 8.925781 4.121094 "/>
</g>
</svg>
