<?xml version="1.0" encoding="UTF-8"?>
<svg xmlns="http://www.w3.org/2000/svg" xmlns:xlink="http://www.w3.org/1999/xlink" width="22px" height="22px" viewBox="0 0 22 22" version="1.1">
<g id="surface1">
<path style=" stroke:none;fill-rule:nonzero;fill:rgb(82.352942%,85.882354%,89.019608%);fill-opacity:1;" d="M 8.25 1.367188 C 6.875 1.367188 6.875 2.742188 6.875 2.742188 L 2.75 2.742188 C 2.75 2.742188 1.375 2.742188 1.375 4.121094 L 1.375 5.5 L 19.25 5.496094 L 19.25 4.121094 C 19.25 2.746094 17.875 2.742188 17.875 2.742188 L 13.75 2.742188 C 13.75 2.742188 13.75 1.367188 12.375 1.367188 Z M 2.75 6.875 C 2.75 6.875 1.320312 11.417969 1.375 13.753906 C 1.417969 15.652344 2.75 19.253906 2.75 19.253906 C 2.75 19.976562 3.40625 20.628906 4.125 20.628906 L 16.5 20.628906 C 17.21875 20.628906 17.875 19.976562 17.875 19.253906 C 17.875 19.253906 19.203125 15.648438 19.25 13.761719 C 19.304688 11.421875 17.875 6.886719 17.875 6.886719 Z M 2.75 6.875 "/>
</g>
</svg>
