<?xml version="1.0" encoding="UTF-8" standalone="no"?>
<svg
   xmlns:dc="http://purl.org/dc/elements/1.1/"
   xmlns:cc="http://creativecommons.org/ns#"
   xmlns:rdf="http://www.w3.org/1999/02/22-rdf-syntax-ns#"
   xmlns:svg="http://www.w3.org/2000/svg"
   xmlns="http://www.w3.org/2000/svg"
   xmlns:sodipodi="http://sodipodi.sourceforge.net/DTD/sodipodi-0.dtd"
   xmlns:inkscape="http://www.inkscape.org/namespaces/inkscape"
   height="22"
   width="22"
   version="1.1"
   id="svg2"
   sodipodi:docname="account-logged-in.svg"
   inkscape:version="0.92.2 2405546, 2018-03-11">
  <metadata
     id="metadata9">
    <rdf:RDF>
      <cc:Work
         rdf:about="">
        <dc:format>image/svg+xml</dc:format>
        <dc:type
           rdf:resource="http://purl.org/dc/dcmitype/StillImage" />
      </cc:Work>
    </rdf:RDF>
  </metadata>
  <sodipodi:namedview
     pagecolor="#ffffff"
     bordercolor="#666666"
     borderopacity="1"
     objecttolerance="10"
     gridtolerance="10"
     guidetolerance="10"
     inkscape:pageopacity="0"
     inkscape:pageshadow="2"
     inkscape:window-width="901"
     inkscape:window-height="480"
     id="namedview7"
     showgrid="false"
     inkscape:zoom="10.727273"
     inkscape:cx="1.5847458"
     inkscape:cy="11"
     inkscape:window-x="0"
     inkscape:window-y="0"
     inkscape:window-maximized="0"
     inkscape:current-layer="svg2" />
  <defs
     id="defs10">
    <style
       type="text/css"
       id="current-color-scheme">
   .ColorScheme-Text { color:#5c616c; } .ColorScheme-Highlight { color:#5294e2; } .ColorScheme-ButtonBackground { color:#d3dae3; }
  </style>
  </defs>
  <g
     transform="translate(-81 -887.36)"
     id="g4"
     style="fill:#00ccff">
    <path
       style="fill:#00ccff"
       d="m91.877 891.36c-1.3453 0.0265-2.6952 0.44583-3.8828 1.2774-3.1668 2.2174-3.9323 6.5597-1.7148 9.7266 2.2174 3.1668 6.5578 3.9323 9.7246 1.7148 2.2774-1.5946 3.312-4.2822 2.8906-6.8535-0.0982-0.6008-0.285-1.16-0.52734-1.7012l-6.3516 7.2578-0.6875 0.8125-0.78124-0.75-3-3c-0.37639-0.37633-0.37636-1.0611 0-1.4375 0.37636-0.37635 1.0612-0.37638 1.4375 0l2.25 2.25 6.0234-6.8926c-1.0768-1.2413-2.5092-2.0303-4.043-2.3008-0.44106-0.0778-0.88946-0.11236-1.3379-0.10352z"
       id="path6"
       class="ColorScheme-ButtonBackground" />
  </g>
</svg>
