<?xml version="1.0" encoding="UTF-8" standalone="no"?>
<svg
   xmlns:dc="http://purl.org/dc/elements/1.1/"
   xmlns:cc="http://creativecommons.org/ns#"
   xmlns:rdf="http://www.w3.org/1999/02/22-rdf-syntax-ns#"
   xmlns:svg="http://www.w3.org/2000/svg"
   xmlns="http://www.w3.org/2000/svg"
   xmlns:sodipodi="http://sodipodi.sourceforge.net/DTD/sodipodi-0.dtd"
   xmlns:inkscape="http://www.inkscape.org/namespaces/inkscape"
   width="22"
   version="1.1"
   height="22"
   id="svg9"
   sodipodi:docname="airplane-mode.svg"
   inkscape:version="0.92.2 2405546, 2018-03-11">
  <metadata
     id="metadata13">
    <rdf:RDF>
      <cc:Work
         rdf:about="">
        <dc:format>image/svg+xml</dc:format>
        <dc:type
           rdf:resource="http://purl.org/dc/dcmitype/StillImage" />
      </cc:Work>
    </rdf:RDF>
  </metadata>
  <sodipodi:namedview
     pagecolor="#ffffff"
     bordercolor="#666666"
     borderopacity="1"
     objecttolerance="10"
     gridtolerance="10"
     guidetolerance="10"
     inkscape:pageopacity="0"
     inkscape:pageshadow="2"
     inkscape:window-width="901"
     inkscape:window-height="480"
     id="namedview11"
     showgrid="false"
     inkscape:zoom="10.727273"
     inkscape:cx="11"
     inkscape:cy="11"
     inkscape:window-x="0"
     inkscape:window-y="0"
     inkscape:window-maximized="0"
     inkscape:current-layer="svg9" />
  <defs
     id="defs3">
    <style
       type="text/css"
       id="current-color-scheme">
   .ColorScheme-Text { color:#5c616c; } .ColorScheme-Highlight { color:#5294e2; } .ColorScheme-ButtonBackground { color:#d3dae3; }
  </style>
  </defs>
  <g
     transform="translate(-200.99966,-549.3601)"
     id="g7"
     style="fill:#4d4d4d">
    <path
       style="fill:#4d4d4d"
       d="m 210.5,553.36 c -0.79399,9.7e-4 -0.78072,0.0333 -0.53125,1.0312 l 1.625,4.9688 -4.5,0 -1.2188,-1.7812 c -0.13926,-0.20883 -0.1227,-0.21873 -0.34375,-0.21875 l -0.21875,0 c -0.42773,0 -0.29245,0.4375 -0.29245,0.4375 l 0.29245,2.5625 -0.29245,2.5625 c 0,0 -0.12866,0.43749 0.2612,0.4375 l 0.25,0 c 0.21159,0 0.20422,-0.009 0.34375,-0.21875 l 1.2188,-1.7812 4.5,0 -1.625,4.9375 c -0.26171,1.0469 -0.2647,1.0625 0.53125,1.0625 0.43199,0 0.43388,-0.0117 0.71875,-0.5 l 3.6875,-5.5 3.0938,0 c 0.554,0 1,-0.446 1,-1 0,-0.554 -0.446,-1 -1,-1 l -3.0938,0 -3.6875,-5.5 c -0.2665,-0.45685 -0.2833,-0.49822 -0.65625,-0.5 l -0.0625,0 z"
       class="ColorScheme-ButtonBackground"
       id="path5" />
  </g>
</svg>
