<?xml version="1.0" encoding="UTF-8" standalone="no"?>
<svg
   xmlns:dc="http://purl.org/dc/elements/1.1/"
   xmlns:cc="http://creativecommons.org/ns#"
   xmlns:rdf="http://www.w3.org/1999/02/22-rdf-syntax-ns#"
   xmlns:svg="http://www.w3.org/2000/svg"
   xmlns="http://www.w3.org/2000/svg"
   xmlns:sodipodi="http://sodipodi.sourceforge.net/DTD/sodipodi-0.dtd"
   xmlns:inkscape="http://www.inkscape.org/namespaces/inkscape"
   xml:space="preserve"
   width="22"
   version="1.1"
   y="0"
   x="0"
   height="22"
   id="svg2"
   sodipodi:docname="copy-sync8.svg"
   inkscape:version="0.92.2 2405546, 2018-03-11"><metadata
   id="metadata9"><rdf:RDF><cc:Work
       rdf:about=""><dc:format>image/svg+xml</dc:format><dc:type
         rdf:resource="http://purl.org/dc/dcmitype/StillImage" /></cc:Work></rdf:RDF></metadata><sodipodi:namedview
   pagecolor="#ffffff"
   bordercolor="#666666"
   borderopacity="1"
   objecttolerance="10"
   gridtolerance="10"
   guidetolerance="10"
   inkscape:pageopacity="0"
   inkscape:pageshadow="2"
   inkscape:window-width="761"
   inkscape:window-height="480"
   id="namedview7"
   showgrid="false"
   inkscape:zoom="10.727273"
   inkscape:cx="0"
   inkscape:cy="11"
   inkscape:window-x="0"
   inkscape:window-y="0"
   inkscape:window-maximized="0"
   inkscape:current-layer="svg2" />
 <defs
   id="defs10">
  <style
   type="text/css"
   id="current-color-scheme">
   .ColorScheme-Text { color:#5c616c; } .ColorScheme-Highlight { color:#5294e2; } .ColorScheme-ButtonBackground { color:#d3dae3; }
  </style>
 </defs>
 <g
   transform="translate(-1 -1.0007)"
   id="g4"
   style="fill:#4d4d4d">
  <path
   style="fill:#4d4d4d"
   d="m19.635 2.0254l-5.617 6.8184 1.982 1.1562 4-7.6484-0.365-0.3262zm-14.635 4.4746l-4 3.5 4.375-0.625 0.9492 5.625h3.3867l-3.2109-8-1.5-0.5zm7 2.5293l-3 0.9707 1 3 4-3-2-0.9707zm3 1.5707l-5.1445 4.4h8.3435l-1.199-3-2-1.4zm-11.164 5.4c-0.4633 0-0.8359 0.373-0.8359 0.836v1.326c0 0.463 0.3726 0.838 0.8359 0.838h14.328c0.463 0 0.836-0.375 0.836-0.838v-1.326c0-0.463-0.373-0.836-0.836-0.836h-14.328zm16.1 3.334c-0.017 0.046-0.04 0.086-0.063 0.129l0.127 0.037-0.064-0.166z"
   transform="translate(1 1.0007)"
   id="path6"
   class="ColorScheme-ButtonBackground" />
 </g>
</svg>