<?xml version="1.0" encoding="UTF-8" standalone="no"?>
<svg
   xmlns:dc="http://purl.org/dc/elements/1.1/"
   xmlns:cc="http://creativecommons.org/ns#"
   xmlns:rdf="http://www.w3.org/1999/02/22-rdf-syntax-ns#"
   xmlns:svg="http://www.w3.org/2000/svg"
   xmlns="http://www.w3.org/2000/svg"
   xmlns:sodipodi="http://sodipodi.sourceforge.net/DTD/sodipodi-0.dtd"
   xmlns:inkscape="http://www.inkscape.org/namespaces/inkscape"
   xml:space="preserve"
   width="22"
   version="1.1"
   y="0"
   x="0"
   height="22"
   id="svg2"
   sodipodi:docname="copy-paused.svg"
   inkscape:version="0.92.2 2405546, 2018-03-11"><metadata
   id="metadata10"><rdf:RDF><cc:Work
       rdf:about=""><dc:format>image/svg+xml</dc:format><dc:type
         rdf:resource="http://purl.org/dc/dcmitype/StillImage" /></cc:Work></rdf:RDF></metadata><sodipodi:namedview
   pagecolor="#ffffff"
   bordercolor="#666666"
   borderopacity="1"
   objecttolerance="10"
   gridtolerance="10"
   guidetolerance="10"
   inkscape:pageopacity="0"
   inkscape:pageshadow="2"
   inkscape:window-width="761"
   inkscape:window-height="480"
   id="namedview8"
   showgrid="false"
   inkscape:zoom="10.727273"
   inkscape:cx="11"
   inkscape:cy="11"
   inkscape:window-x="0"
   inkscape:window-y="0"
   inkscape:window-maximized="0"
   inkscape:current-layer="g4" />
 <defs
   id="defs12">
  <style
   type="text/css"
   id="current-color-scheme">
   .ColorScheme-Text { color:#5c616c; } .ColorScheme-Highlight { color:#5294e2; } .ColorScheme-ButtonBackground { color:#d3dae3; }
  </style>
 </defs>
 <g
   transform="translate(-1 -1.0007)"
   id="g4">
  <path
   opacity=".3"
   style="fill:#4d4d4d"
   d="m19.635 2.0254l-5.617 6.8164 1.982 1.1562 4-7.6464-0.365-0.3262zm-14.635 4.4746l-4 3.5 4.375-0.625 1.625 9.625 3.393-2.301 0.607 0.178v-2.856l-1.252 1.071-3.248-8.092-1.5-0.5zm7 2.5293l-3 0.9707 1 3 1-0.75v-0.25h0.334l2.666-2-2-0.9707zm3 1.5707l-1.637 1.4h3.637l-2-1.4z"
   transform="translate(1 1.0007)"
   id="path6"
   class="ColorScheme-ButtonBackground" />
  <path
   style="fill:#4d4d4d"
   d="m13 14v6h3v-6h-3zm4 0v6h3v-6h-3z"
   fill-rule="evenodd"
   clip-rule="evenodd"
   id="path8"
   class="ColorScheme-ButtonBackground" />
 </g>
</svg>