<?xml version="1.0" encoding="UTF-8" standalone="no"?>
<svg
   xmlns:dc="http://purl.org/dc/elements/1.1/"
   xmlns:cc="http://creativecommons.org/ns#"
   xmlns:rdf="http://www.w3.org/1999/02/22-rdf-syntax-ns#"
   xmlns:svg="http://www.w3.org/2000/svg"
   xmlns="http://www.w3.org/2000/svg"
   xmlns:sodipodi="http://sodipodi.sourceforge.net/DTD/sodipodi-0.dtd"
   xmlns:inkscape="http://www.inkscape.org/namespaces/inkscape"
   height="22"
   width="22"
   version="1.1"
   id="svg2"
   sodipodi:docname="copyq-normal.svg"
   inkscape:version="0.92.2 2405546, 2018-03-11">
  <metadata
     id="metadata8">
    <rdf:RDF>
      <cc:Work
         rdf:about="">
        <dc:format>image/svg+xml</dc:format>
        <dc:type
           rdf:resource="http://purl.org/dc/dcmitype/StillImage" />
      </cc:Work>
    </rdf:RDF>
  </metadata>
  <sodipodi:namedview
     pagecolor="#ffffff"
     bordercolor="#666666"
     borderopacity="1"
     objecttolerance="10"
     gridtolerance="10"
     guidetolerance="10"
     inkscape:pageopacity="0"
     inkscape:pageshadow="2"
     inkscape:window-width="761"
     inkscape:window-height="480"
     id="namedview6"
     showgrid="false"
     inkscape:zoom="10.727273"
     inkscape:cx="11"
     inkscape:cy="11"
     inkscape:window-x="0"
     inkscape:window-y="0"
     inkscape:window-maximized="0"
     inkscape:current-layer="svg2" />
  <defs
     id="defs8">
    <style
       type="text/css"
       id="current-color-scheme">
   .ColorScheme-Text { color:#5c616c; } .ColorScheme-Highlight { color:#5294e2; } .ColorScheme-ButtonBackground { color:#d3dae3; }
  </style>
  </defs>
  <path
     style="fill:#4d4d4d"
     d="m6.5 4a3.5 3.5 0 0 0 -3.5 3.5 3.5 3.5 0 0 0 3.5 3.5 3.5 3.5 0 0 0 1.4766 -0.33l1.5234 1.83-5.5 6.5 7-5 7 5-5.5-6.5 1.5234-1.832a3.5 3.5 0 0 0 1.477 0.332 3.5 3.5 0 0 0 3.5 -3.5 3.5 3.5 0 0 0 -0.002 -0.0254c0.000077-0.01965-0.0017-0.038945-0.002-0.058594a3.5 3.5 0 0 0 -0.045 -0.4707c-0.018-0.1195-0.046-0.2361-0.076-0.3535a3.5 3.5 0 0 0 -0.059 -0.2051c-0.063-0.1946-0.146-0.3814-0.244-0.5644-0.154-0.2881-0.335-0.5652-0.576-0.8086-0.536-0.5408-1.205-0.8547-1.9-0.9629a3.5 3.5 0 0 0 -0.02734 -0.00391 3.5 3.5 0 0 0 -0.46094 -0.042969c-0.012-0.0001-0.024-0.0039-0.036-0.0039-0.0059 0-0.01169 0.00192-0.01758 0.00195a3.5 3.5 0 0 0 -0.054 -0.002 3.5 3.5 0 0 0 -3.5 3.5 3.5 3.5 0 0 0 0.383 1.584l-1.383 1.916-1.3809-1.9121a3.5 3.5 0 0 0 0.3809 -1.5879 3.5 3.5 0 0 0 -3.5 -3.5zm0 2a1.5 1.5 0 0 1 1.5 1.5 1.5 1.5 0 0 1 -1.5 1.5 1.5 1.5 0 0 1 -1.5 -1.5 1.5 1.5 0 0 1 1.5 -1.5zm9 0a1.5 1.5 0 0 1 1.5 1.5 1.5 1.5 0 0 1 -1.5 1.5 1.5 1.5 0 0 1 -1.5 -1.5 1.5 1.5 0 0 1 1.5 -1.5z"
     id="path4"
     class="ColorScheme-ButtonBackground" />
</svg>
