<?xml version="1.0" encoding="UTF-8" standalone="no"?>
<svg
   xmlns:dc="http://purl.org/dc/elements/1.1/"
   xmlns:cc="http://creativecommons.org/ns#"
   xmlns:rdf="http://www.w3.org/1999/02/22-rdf-syntax-ns#"
   xmlns:svg="http://www.w3.org/2000/svg"
   xmlns="http://www.w3.org/2000/svg"
   xmlns:sodipodi="http://sodipodi.sourceforge.net/DTD/sodipodi-0.dtd"
   xmlns:inkscape="http://www.inkscape.org/namespaces/inkscape"
   xml:space="preserve"
   width="22"
   version="1.1"
   y="0"
   x="0"
   height="22"
   id="svg2"
   sodipodi:docname="copy-sync3.svg"
   inkscape:version="0.92.2 2405546, 2018-03-11"><metadata
   id="metadata8"><rdf:RDF><cc:Work
       rdf:about=""><dc:format>image/svg+xml</dc:format><dc:type
         rdf:resource="http://purl.org/dc/dcmitype/StillImage" /></cc:Work></rdf:RDF></metadata><sodipodi:namedview
   pagecolor="#ffffff"
   bordercolor="#666666"
   borderopacity="1"
   objecttolerance="10"
   gridtolerance="10"
   guidetolerance="10"
   inkscape:pageopacity="0"
   inkscape:pageshadow="2"
   inkscape:window-width="761"
   inkscape:window-height="480"
   id="namedview6"
   showgrid="false"
   inkscape:zoom="10.727273"
   inkscape:cx="11"
   inkscape:cy="11"
   inkscape:window-x="0"
   inkscape:window-y="0"
   inkscape:window-maximized="0"
   inkscape:current-layer="svg2" />
 <defs
   id="defs8">
  <style
   type="text/css"
   id="current-color-scheme">
   .ColorScheme-Text { color:#5c616c; } .ColorScheme-Highlight { color:#5294e2; } .ColorScheme-ButtonBackground { color:#d3dae3; }
  </style>
 </defs>
 <path
   style="fill:#4d4d4d"
   d="m19.635 2.0254l-5.617 6.8184 1.982 1.1562 4-7.6484-0.365-0.3262zm-14.635 4.4746l-4 3.5 4.375-0.625 1.625 9.625 3.393-2.301 0.877 0.256c-0.364-1.05-0.335-2.22 0.14-3.285l-1.662 1.422-3.248-8.092-1.5-0.5zm7 2.5293l-3 0.9707 1 3 3.229-2.422a1.0001 1.0001 0 0 1 0.48 -0.7186l-1.709-0.8301zm3.219 0.6895l0.383 1.4242c-0.868 0.227-1.651 0.772-2.133 1.607-0.877 1.518-0.466 3.429 0.873 4.486l0.76-1.314c-0.641-0.624-0.804-1.608-0.334-2.422 0.278-0.483 0.723-0.796 1.216-0.926l0.332 1.242 0.715-1.238 0.76-1.316 0.025-0.043-2.597-1.5002zm3.439 2.0432l-0.76 1.316c0.64 0.624 0.804 1.608 0.334 2.422-0.278 0.483-0.723 0.796-1.216 0.926l-0.332-1.242-1.5 2.597 2.597 1.5-0.383-1.426c0.868-0.227 1.651-0.77 2.133-1.605 0.877-1.518 0.466-3.431-0.873-4.488zm0.676 6.076c-0.294 0.474-0.675 0.844-1.105 1.144l1.771 0.518-0.666-1.662z"
   id="path4"
   class="ColorScheme-ButtonBackground" />
</svg>