<?xml version="1.0" encoding="UTF-8" standalone="no"?>
<svg
   xmlns:dc="http://purl.org/dc/elements/1.1/"
   xmlns:cc="http://creativecommons.org/ns#"
   xmlns:rdf="http://www.w3.org/1999/02/22-rdf-syntax-ns#"
   xmlns:svg="http://www.w3.org/2000/svg"
   xmlns="http://www.w3.org/2000/svg"
   xmlns:sodipodi="http://sodipodi.sourceforge.net/DTD/sodipodi-0.dtd"
   xmlns:inkscape="http://www.inkscape.org/namespaces/inkscape"
   xml:space="preserve"
   width="22"
   version="1.1"
   y="0"
   x="0"
   height="22"
   id="svg2"
   sodipodi:docname="copy-sync2.svg"
   inkscape:version="0.92.2 2405546, 2018-03-11"><metadata
   id="metadata8"><rdf:RDF><cc:Work
       rdf:about=""><dc:format>image/svg+xml</dc:format><dc:type
         rdf:resource="http://purl.org/dc/dcmitype/StillImage" /></cc:Work></rdf:RDF></metadata><sodipodi:namedview
   pagecolor="#ffffff"
   bordercolor="#666666"
   borderopacity="1"
   objecttolerance="10"
   gridtolerance="10"
   guidetolerance="10"
   inkscape:pageopacity="0"
   inkscape:pageshadow="2"
   inkscape:window-width="761"
   inkscape:window-height="480"
   id="namedview6"
   showgrid="false"
   inkscape:zoom="10.727273"
   inkscape:cx="11"
   inkscape:cy="11"
   inkscape:window-x="0"
   inkscape:window-y="0"
   inkscape:window-maximized="0"
   inkscape:current-layer="svg2" />
 <defs
   id="defs8">
  <style
   type="text/css"
   id="current-color-scheme">
   .ColorScheme-Text { color:#5c616c; } .ColorScheme-Highlight { color:#5294e2; } .ColorScheme-ButtonBackground { color:#d3dae3; }
  </style>
 </defs>
 <path
   style="fill:#4d4d4d"
   d="m19.635 2.0254l-5.617 6.8184 1.982 1.1562 4-7.6484-0.365-0.3262zm-14.635 4.4746l-4 3.5 4.375-0.625 1.625 9.625 3.393-2.301 0.884 0.258c-0.153-0.525-0.201-1.065-0.177-1.602l-0.639-0.169a1.0001 1.0001 0 0 1 -0.4805 -0.293l-0.2325 0.199-3.248-8.092-1.5-0.5zm7 2.5293l-3 0.9707 1 3 4-3-2-0.9707zm3 1.5707l-0.699 0.597c0.365-0.102 0.735-0.174 1.107-0.181 0.067-0.002 0.133 0.008 0.199 0.009l-0.607-0.425zm0.43 1.416c-0.411 0.008-0.825 0.088-1.221 0.246l0.76 1.316c0.86-0.242 1.794 0.108 2.263 0.922 0.279 0.483 0.328 1.024 0.194 1.516l-1.242-0.334 1.5 2.599 2.597-1.5-1.426-0.383c0.237-0.865 0.158-1.813-0.324-2.648-0.657-1.139-1.868-1.761-3.101-1.734zm-2.114 0.703l-2.597 1.5 1.426 0.381c-0.237 0.865-0.158 1.815 0.324 2.65 0.876 1.518 2.737 2.117 4.322 1.486l-0.76-1.314c-0.86 0.242-1.793-0.109-2.263-0.922-0.279-0.483-0.328-1.024-0.194-1.516l1.242 0.334-0.714-1.238-0.76-1.316-0.026-0.045zm6.229 5.642l-1.158 0.668 1.613 0.471-0.455-1.139z"
   id="path4"
   class="ColorScheme-ButtonBackground" />
</svg>