<?xml version="1.0" encoding="UTF-8" standalone="no"?>
<svg
   xmlns:dc="http://purl.org/dc/elements/1.1/"
   xmlns:cc="http://creativecommons.org/ns#"
   xmlns:rdf="http://www.w3.org/1999/02/22-rdf-syntax-ns#"
   xmlns:svg="http://www.w3.org/2000/svg"
   xmlns="http://www.w3.org/2000/svg"
   xmlns:sodipodi="http://sodipodi.sourceforge.net/DTD/sodipodi-0.dtd"
   xmlns:inkscape="http://www.inkscape.org/namespaces/inkscape"
   width="22"
   version="1.1"
   height="22"
   id="svg9"
   sodipodi:docname="cryptkeeper.svg"
   inkscape:version="0.92.2 2405546, 2018-03-11">
  <metadata
     id="metadata13">
    <rdf:RDF>
      <cc:Work
         rdf:about="">
        <dc:format>image/svg+xml</dc:format>
        <dc:type
           rdf:resource="http://purl.org/dc/dcmitype/StillImage" />
      </cc:Work>
    </rdf:RDF>
  </metadata>
  <sodipodi:namedview
     pagecolor="#ffffff"
     bordercolor="#666666"
     borderopacity="1"
     objecttolerance="10"
     gridtolerance="10"
     guidetolerance="10"
     inkscape:pageopacity="0"
     inkscape:pageshadow="2"
     inkscape:window-width="761"
     inkscape:window-height="480"
     id="namedview11"
     showgrid="false"
     inkscape:zoom="10.727273"
     inkscape:cx="11"
     inkscape:cy="11"
     inkscape:window-x="0"
     inkscape:window-y="0"
     inkscape:window-maximized="0"
     inkscape:current-layer="svg9" />
  <defs
     id="defs3">
    <style
       type="text/css"
       id="current-color-scheme">
   .ColorScheme-Text { color:#5c616c; } .ColorScheme-Highlight { color:#5294e2; } .ColorScheme-ButtonBackground { color:#d3dae3; }
  </style>
  </defs>
  <g
     id="g7"
     style="fill:#4d4d4d">
    <path
       class="ColorScheme-ButtonBackground"
       d="M 13.5,3 A 5.5,5.5 0 0 0 8,8.5 5.5,5.5 0 0 0 13.5,14 5.5,5.5 0 0 0 19,8.5 5.5,5.5 0 0 0 13.5,3 Z m 0.322,2.4727 A 2.5,2 45 0 1 15.678,6.3223 2.5,2 45 0 1 16.031,9.5039 2.5,2 45 0 1 12.85,9.1504 2.5,2 45 0 1 12.496,5.9688 2.5,2 45 0 1 13.822,5.4727 Z M 7.2656,10.32 3.293,14.293 A 1.0001,1.0001 0 0 0 3,15 l 0,3 a 1.0001,1.0001 0 0 0 1,1 l 3,0 a 1.0001,1.0001 0 0 0 1,-1 l 0,-2 2,0 a 1.0001,1.0001 0 0 0 1,-1 l 0,-0.504 C 10.227,14.172 9.53,13.702 8.9414,13.121 l -3.4102,3.41 A 0.75063,0.75063 0 0 1 4.4688,15.471 L 7.998,11.941 C 7.6839,11.442 7.4353,10.898 7.2656,10.32 Z"
       style="fill:#4d4d4d"
       id="path5" />
  </g>
</svg>
