<?xml version="1.0" encoding="UTF-8" standalone="no"?>
<svg
   xmlns:dc="http://purl.org/dc/elements/1.1/"
   xmlns:cc="http://creativecommons.org/ns#"
   xmlns:rdf="http://www.w3.org/1999/02/22-rdf-syntax-ns#"
   xmlns:svg="http://www.w3.org/2000/svg"
   xmlns="http://www.w3.org/2000/svg"
   xmlns:sodipodi="http://sodipodi.sourceforge.net/DTD/sodipodi-0.dtd"
   xmlns:inkscape="http://www.inkscape.org/namespaces/inkscape"
   width="22"
   version="1.1"
   height="22"
   id="svg2"
   sodipodi:docname="google-hangouts-panel.svg"
   inkscape:version="0.92.2 2405546, 2018-03-11">
  <metadata
     id="metadata9">
    <rdf:RDF>
      <cc:Work
         rdf:about="">
        <dc:format>image/svg+xml</dc:format>
        <dc:type
           rdf:resource="http://purl.org/dc/dcmitype/StillImage" />
      </cc:Work>
    </rdf:RDF>
  </metadata>
  <sodipodi:namedview
     pagecolor="#ffffff"
     bordercolor="#666666"
     borderopacity="1"
     objecttolerance="10"
     gridtolerance="10"
     guidetolerance="10"
     inkscape:pageopacity="0"
     inkscape:pageshadow="2"
     inkscape:window-width="761"
     inkscape:window-height="480"
     id="namedview7"
     showgrid="false"
     inkscape:zoom="10.727273"
     inkscape:cx="-5.6398302"
     inkscape:cy="11"
     inkscape:window-x="0"
     inkscape:window-y="0"
     inkscape:window-maximized="0"
     inkscape:current-layer="svg2" />
  <defs
     id="defs10">
    <style
       type="text/css"
       id="current-color-scheme">
   .ColorScheme-Text { color:#5c616c; } .ColorScheme-Highlight { color:#5294e2; } .ColorScheme-ButtonBackground { color:#d3dae3; }
  </style>
  </defs>
  <g
     transform="translate(-521 -909.27)"
     id="g4"
     style="fill:#44aa00">
    <path
       style="fill:#44aa00"
       d="m532 912.27c-3.866 0-7 3.1042-7 6.9333 0 3.8292 3.134 6.9333 7 6.9333v2.1333c1.7361-1.2251 6.2718-2.971 6.9663-8.35 0.0301-0.233 0.0337-0.46942 0.0337-0.71667 0-0.22091-0.007-0.43484-0.0337-0.65-0.32795-3.5273-3.3196-6.2833-6.9663-6.2833zm-3.5336 4.8h2.1538c0.29828 0 0.53845 0.23789 0.53845 0.53333v1.55c0.00055 0.0166 0.00055 0.0333 0 0.05v0.53333 0.53334c0 1.4221-1.3798 2.0667-1.3798 2.0667-0.25434 0.16542-0.6447 0.0598-0.77885-0.21067-0.13415-0.2705 0.0201-0.64104 0.30769-0.73933 0 0 0.77404-0.40562 0.77404-1.1167h-1.6154c-0.29827-0.00001-0.53846-0.2379-0.53846-0.53334v-2.1333c0-0.29544 0.24019-0.53334 0.53846-0.53334zm4.863 0h2.1538c0.29828 0 0.53846 0.23789 0.53846 0.53333v1.55c0.00053 0.0166 0.00053 0.0333 0 0.05v0.53333 0.53334c0 1.4221-1.3798 2.0667-1.3798 2.0667-0.25436 0.16542-0.64469 0.0598-0.77885-0.21067-0.13414-0.2705 0.0201-0.64104 0.3077-0.73933 0 0 1.4919-1.1167 0.77403-1.1167h-1.6154c-0.29828 0-0.53845-0.2379-0.53845-0.53334v-2.1333c0-0.29544 0.24017-0.53333 0.53845-0.53333z"
       id="path6"
       class="ColorScheme-ButtonBackground" />
  </g>
</svg>
