<?xml version="1.0" encoding="UTF-8" standalone="no"?>
<svg
   xmlns:dc="http://purl.org/dc/elements/1.1/"
   xmlns:cc="http://creativecommons.org/ns#"
   xmlns:rdf="http://www.w3.org/1999/02/22-rdf-syntax-ns#"
   xmlns:svg="http://www.w3.org/2000/svg"
   xmlns="http://www.w3.org/2000/svg"
   xmlns:sodipodi="http://sodipodi.sourceforge.net/DTD/sodipodi-0.dtd"
   xmlns:inkscape="http://www.inkscape.org/namespaces/inkscape"
   height="22"
   width="22"
   version="1.1"
   id="svg11"
   sodipodi:docname="google-chrome-no-notification.svg"
   inkscape:version="0.92.2 2405546, 2018-03-11">
  <metadata
     id="metadata15">
    <rdf:RDF>
      <cc:Work
         rdf:about="">
        <dc:format>image/svg+xml</dc:format>
        <dc:type
           rdf:resource="http://purl.org/dc/dcmitype/StillImage" />
      </cc:Work>
    </rdf:RDF>
  </metadata>
  <sodipodi:namedview
     pagecolor="#ffffff"
     bordercolor="#666666"
     borderopacity="1"
     objecttolerance="10"
     gridtolerance="10"
     guidetolerance="10"
     inkscape:pageopacity="0"
     inkscape:pageshadow="2"
     inkscape:window-width="761"
     inkscape:window-height="480"
     id="namedview13"
     showgrid="false"
     inkscape:zoom="10.727273"
     inkscape:cx="0"
     inkscape:cy="11"
     inkscape:window-x="0"
     inkscape:window-y="0"
     inkscape:window-maximized="0"
     inkscape:current-layer="svg11" />
  <defs
     id="defs3">
    <style
       type="text/css"
       id="current-color-scheme">
   .ColorScheme-Text { color:#5c616c; } .ColorScheme-Highlight { color:#5294e2; } .ColorScheme-ButtonBackground { color:#d3dae3; }
  </style>
  </defs>
  <g
     id="g9"
     style="fill:#4d4d4d">
    <path
       class="ColorScheme-ButtonBackground"
       d="M 11,3 A 8,8 0 0 0 5.3965,5.293 l 2.7558,4.773 A 3,3 0 0 1 11,8 l 7.412,0 A 8,8 0 0 0 11,3 Z M 4.6992,6.0859 A 8,8 0 0 0 3,11 8,8 0 0 0 8.8652,18.701 L 11.617,13.934 A 3,3 0 0 1 11,14 3,3 0 0 1 8.4062,12.498 L 8.4023,12.5 4.6992,6.0859 Z M 13.23,9 A 3,3 0 0 1 14,11 3,3 0 0 1 13.596,12.498 L 13.598,12.5 9.8945,18.914 A 8,8 0 0 0 11,19 8,8 0 0 0 19,11 8,8 0 0 0 18.74,9 l -5.51,0 z"
       style="fill:#4d4d4d"
       id="path5" />
    <path
       class="ColorScheme-ButtonBackground"
       d="M 10.999823,9.0000004 A 1.9999646,1.9999646 0 0 0 9,10.999823 1.9999646,1.9999646 0 0 0 10.999823,13 1.9999646,1.9999646 0 0 0 13,10.999823 1.9999646,1.9999646 0 0 0 10.999823,9.0000004 Z"
       style="fill:#4d4d4d"
       id="path7" />
  </g>
</svg>
