<?xml version="1.0" encoding="UTF-8" standalone="no"?>
<svg
   xmlns:dc="http://purl.org/dc/elements/1.1/"
   xmlns:cc="http://creativecommons.org/ns#"
   xmlns:rdf="http://www.w3.org/1999/02/22-rdf-syntax-ns#"
   xmlns:svg="http://www.w3.org/2000/svg"
   xmlns="http://www.w3.org/2000/svg"
   xmlns:sodipodi="http://sodipodi.sourceforge.net/DTD/sodipodi-0.dtd"
   xmlns:inkscape="http://www.inkscape.org/namespaces/inkscape"
   width="22"
   version="1.1"
   height="22"
   id="svg2"
   sodipodi:docname="im-skype.svg"
   inkscape:version="0.92.2 2405546, 2018-03-11">
  <metadata
     id="metadata9">
    <rdf:RDF>
      <cc:Work
         rdf:about="">
        <dc:format>image/svg+xml</dc:format>
        <dc:type
           rdf:resource="http://purl.org/dc/dcmitype/StillImage" />
      </cc:Work>
    </rdf:RDF>
  </metadata>
  <sodipodi:namedview
     pagecolor="#ffffff"
     bordercolor="#666666"
     borderopacity="1"
     objecttolerance="10"
     gridtolerance="10"
     guidetolerance="10"
     inkscape:pageopacity="0"
     inkscape:pageshadow="2"
     inkscape:window-width="761"
     inkscape:window-height="480"
     id="namedview7"
     showgrid="false"
     inkscape:zoom="10.727273"
     inkscape:cx="11"
     inkscape:cy="11"
     inkscape:window-x="0"
     inkscape:window-y="0"
     inkscape:window-maximized="0"
     inkscape:current-layer="svg2" />
  <defs
     id="defs10">
    <style
       type="text/css"
       id="current-color-scheme">
   .ColorScheme-Text { color:#5c616c; } .ColorScheme-Highlight { color:#5294e2; } .ColorScheme-ButtonBackground { color:#d3dae3; }
  </style>
  </defs>
  <g
     transform="translate(-449 -933.27)"
     id="g4"
     style="fill:#4d4d4d">
    <path
       style="fill:#4d4d4d"
       d="m456.5 936.27a4.5 4.5 0 0 0 -4.5 4.5 4.5 4.5 0 0 0 0.61328 2.2559 7.5 7.5 0 0 0 -0.11328 1.2441 7.5 7.5 0 0 0 7.5 7.5 7.5 7.5 0 0 0 1.25 -0.10547 4.5 4.5 0 0 0 2.25 0.60547 4.5 4.5 0 0 0 4.5 -4.5 4.5 4.5 0 0 0 -0.61328 -2.2559 7.5 7.5 0 0 0 0.11328 -1.2441 7.5 7.5 0 0 0 -7.5 -7.5 7.5 7.5 0 0 0 -1.25 0.10546 4.5 4.5 0 0 0 -2.25 -0.60546zm3.3516 3.0176c2.4635 0 3.7324 1.2998 3.7324 2.0606s-0.36798 0.88477-0.97265 0.88477c-1.1737 0-0.69186-1.4102-2.8945-1.4102-0.72954 0-1.6309 0.32657-1.6309 1.1758 0 0.68136 0.79661 0.9319 2.2207 1.2774 2.141 0.57317 3.7559 1.1533 3.7559 3.1113 0 1.902-1.5678 2.8535-4.0312 2.8535-2.4635 0-4.0312-1.4736-4.0312-2.2344 0-0.76075 0.29767-0.95507 0.90234-0.95507 1.1737 0 1.0044 1.5976 3.207 1.5976 0.72954 0 1.8047-0.3266 1.8047-1.1758 0-0.68136-0.0463-0.92187-1.6074-1.3398-1.6679-0.22723-4.3691-0.76696-4.3691-2.8359 0-1.902 1.4506-3.0098 3.9141-3.0098z"
       id="path6"
       class="ColorScheme-ButtonBackground" />
  </g>
</svg>
