<?xml version="1.0" encoding="UTF-8" standalone="no"?>
<svg
   xmlns:dc="http://purl.org/dc/elements/1.1/"
   xmlns:cc="http://creativecommons.org/ns#"
   xmlns:rdf="http://www.w3.org/1999/02/22-rdf-syntax-ns#"
   xmlns:svg="http://www.w3.org/2000/svg"
   xmlns="http://www.w3.org/2000/svg"
   xmlns:sodipodi="http://sodipodi.sourceforge.net/DTD/sodipodi-0.dtd"
   xmlns:inkscape="http://www.inkscape.org/namespaces/inkscape"
   width="22"
   height="22"
   id="svg2"
   version="1.1"
   sodipodi:docname="indicator-workspaces-1.svg"
   inkscape:version="0.92.2 2405546, 2018-03-11">
  <metadata
     id="metadata12">
    <rdf:RDF>
      <cc:Work
         rdf:about="">
        <dc:format>image/svg+xml</dc:format>
        <dc:type
           rdf:resource="http://purl.org/dc/dcmitype/StillImage" />
      </cc:Work>
    </rdf:RDF>
  </metadata>
  <sodipodi:namedview
     pagecolor="#ffffff"
     bordercolor="#666666"
     borderopacity="1"
     objecttolerance="10"
     gridtolerance="10"
     guidetolerance="10"
     inkscape:pageopacity="0"
     inkscape:pageshadow="2"
     inkscape:window-width="761"
     inkscape:window-height="480"
     id="namedview10"
     showgrid="false"
     inkscape:zoom="10.727273"
     inkscape:cx="11"
     inkscape:cy="11"
     inkscape:window-x="0"
     inkscape:window-y="0"
     inkscape:window-maximized="0"
     inkscape:current-layer="svg2" />
  <defs
     id="defs16">
    <style
       type="text/css"
       id="current-color-scheme">
   .ColorScheme-Text { color:#5c616c; } .ColorScheme-Highlight { color:#5294e2; } .ColorScheme-ButtonBackground { color:#d3dae3; }
  </style>
  </defs>
  <g
     transform="translate(0 -1030.9)"
     id="g4"
     style="fill:#4d4d4d">
    <path
       style="fill:#4d4d4d"
       d="m9 1046.9-2 2c-1 1-1 1 0 1h8c1 0 1 0 0-1l-2-2v-1h-4z"
       id="path6"
       class="ColorScheme-ButtonBackground" />
    <path
       style="fill:#4d4d4d"
       d="m5 1033.9c-1.108 0-2 0.892-2 2v9c0 1.108 0.892 2 2 2h12c1.108 0 2-0.892 2-2v-9c0-1.108-0.892-2-2-2h-12zm0 2h12v9h-12v-9z"
       id="path8"
       class="ColorScheme-ButtonBackground" />
    <g
       transform="translate(-.19440 -.0004)"
       id="g10"
       style="fill:#4d4d4d">
      <path
         style="fill:#4d4d4d"
         d="m8.983 1042.4h1.453v-4.123l-1.491 0.308v-1.119l1.483-0.308h1.564v5.242h1.453v1.136h-4.46v-1.136z"
         id="path12"
         class="ColorScheme-ButtonBackground" />
    </g>
  </g>
</svg>
