<?xml version="1.0" encoding="UTF-8" standalone="no"?>
<svg
   xmlns:dc="http://purl.org/dc/elements/1.1/"
   xmlns:cc="http://creativecommons.org/ns#"
   xmlns:rdf="http://www.w3.org/1999/02/22-rdf-syntax-ns#"
   xmlns:svg="http://www.w3.org/2000/svg"
   xmlns="http://www.w3.org/2000/svg"
   xmlns:sodipodi="http://sodipodi.sourceforge.net/DTD/sodipodi-0.dtd"
   xmlns:inkscape="http://www.inkscape.org/namespaces/inkscape"
   height="22"
   version="1.1"
   width="22"
   id="svg7"
   sodipodi:docname="indicator-sensors-chip.svg"
   inkscape:version="0.92.2 2405546, 2018-03-11">
  <metadata
     id="metadata11">
    <rdf:RDF>
      <cc:Work
         rdf:about="">
        <dc:format>image/svg+xml</dc:format>
        <dc:type
           rdf:resource="http://purl.org/dc/dcmitype/StillImage" />
      </cc:Work>
    </rdf:RDF>
  </metadata>
  <sodipodi:namedview
     pagecolor="#ffffff"
     bordercolor="#666666"
     borderopacity="1"
     objecttolerance="10"
     gridtolerance="10"
     guidetolerance="10"
     inkscape:pageopacity="0"
     inkscape:pageshadow="2"
     inkscape:window-width="761"
     inkscape:window-height="480"
     id="namedview9"
     showgrid="false"
     inkscape:zoom="10.727273"
     inkscape:cx="11"
     inkscape:cy="11"
     inkscape:window-x="0"
     inkscape:window-y="0"
     inkscape:window-maximized="0"
     inkscape:current-layer="svg7" />
  <defs
     id="defs3">
    <style
       id="current-color-scheme"
       type="text/css">
   .ColorScheme-Text { color:#5c616c; } .ColorScheme-Highlight { color:#5294e2; } .ColorScheme-ButtonBackground { color:#d3dae3; }
  </style>
  </defs>
  <path
     d="m 17.75,4.999976 c 0.1385,0 0.25,0.1115 0.25,0.25 l 0,0.5 c 0,0.1385 -0.1115,0.25 -0.25,0.25 l -1.75,0 0,-1 1.75,0 z m 0,2 c 0.1385,0 0.25,0.1115 0.25,0.25 l 0,0.5 c 0,0.1385 -0.1115,0.25 -0.25,0.25 l -1.75,0 0,-1 1.75,0 z m 0,2 c 0.1385,0 0.25,0.1115 0.25,0.25 l 0,0.5 c 0,0.1385 -0.1115,0.25 -0.25,0.25 l -1.75,0 0,-1 1.75,0 z m 0,2 c 0.1385,0 0.25,0.1115 0.25,0.25 l 0,0.5 c 0,0.1385 -0.1115,0.25 -0.25,0.25 l -1.75,0 0,-1 1.75,0 z m 0,2 c 0.1385,0 0.25,0.1115 0.25,0.25 l 0,0.5 c 0,0.1385 -0.1115,0.25 -0.25,0.25 l -1.75,0 0,-1 1.75,0 z m 0,2 c 0.1385,0 0.25,0.1115 0.25,0.25 l 0,0.5 c 0,0.1385 -0.1115,0.25 -0.25,0.25 l -1.75,0 0,-1 1.75,0 z m 0,2 c 0.1385,0 0.25,0.1115 0.25,0.25 l 0,0.5 c 0,0.1385 -0.1115,0.25 -0.25,0.25 l -1.75,0 0,-1 1.75,0 z m -13.5,-12 c -0.1385,0 -0.25,0.1115 -0.25,0.25 l 0,0.5 c 0,0.1385 0.1115,0.25 0.25,0.25 l 1.75,0 0,-1 -1.75,0 z m 0,2 c -0.1385,0 -0.25,0.1115 -0.25,0.25 l 0,0.5 c 0,0.1385 0.1115,0.25 0.25,0.25 l 1.75,0 0,-1 -1.75,0 z m 0,2 c -0.1385,0 -0.25,0.1115 -0.25,0.25 l 0,0.5 c 0,0.1385 0.1115,0.25 0.25,0.25 l 1.75,0 0,-1 -1.75,0 z m 0,2 c -0.1385,0 -0.25,0.1115 -0.25,0.25 l 0,0.5 c 0,0.1385 0.1115,0.25 0.25,0.25 l 1.75,0 0,-1 -1.75,0 z m 0,2 c -0.1385,0 -0.25,0.1115 -0.25,0.25 l 0,0.5 c 0,0.1385 0.1115,0.25 0.25,0.25 l 1.75,0 0,-1 -1.75,0 z m 0,2 c -0.1385,0 -0.25,0.1115 -0.25,0.25 l 0,0.5 c 0,0.1385 0.1115,0.25 0.25,0.25 l 1.75,0 0,-1 -1.75,0 z m 0,2 c -0.1385,0 -0.25,0.1115 -0.25,0.25 l 0,0.5 c 0,0.1385 0.1115,0.25 0.25,0.25 l 1.75,0 0,-1 -1.75,0 z M 8,4.0000003 l 6,0 c 0.554,0 1,0.446 1,1 L 15,18 c 0,0.554 -0.446,1 -1,1 L 8,19 C 7.446,19 7,18.554 7,18 L 7,5.0000003 c 0,-0.554 0.446,-1 1,-1 z"
     style="fill:#4d4d4d"
     class="ColorScheme-ButtonBackground"
     id="path5" />
</svg>
