<?xml version="1.0" encoding="UTF-8" standalone="no"?>
<svg
   xmlns:dc="http://purl.org/dc/elements/1.1/"
   xmlns:cc="http://creativecommons.org/ns#"
   xmlns:rdf="http://www.w3.org/1999/02/22-rdf-syntax-ns#"
   xmlns:svg="http://www.w3.org/2000/svg"
   xmlns="http://www.w3.org/2000/svg"
   xmlns:sodipodi="http://sodipodi.sourceforge.net/DTD/sodipodi-0.dtd"
   xmlns:inkscape="http://www.inkscape.org/namespaces/inkscape"
   width="22"
   version="1.1"
   height="22"
   id="svg2"
   sodipodi:docname="indicator-sensors-case.svg"
   inkscape:version="0.92.2 2405546, 2018-03-11">
  <metadata
     id="metadata10">
    <rdf:RDF>
      <cc:Work
         rdf:about="">
        <dc:format>image/svg+xml</dc:format>
        <dc:type
           rdf:resource="http://purl.org/dc/dcmitype/StillImage" />
      </cc:Work>
    </rdf:RDF>
  </metadata>
  <sodipodi:namedview
     pagecolor="#ffffff"
     bordercolor="#666666"
     borderopacity="1"
     objecttolerance="10"
     gridtolerance="10"
     guidetolerance="10"
     inkscape:pageopacity="0"
     inkscape:pageshadow="2"
     inkscape:window-width="761"
     inkscape:window-height="480"
     id="namedview8"
     showgrid="false"
     inkscape:zoom="10.727273"
     inkscape:cx="11"
     inkscape:cy="11"
     inkscape:window-x="0"
     inkscape:window-y="0"
     inkscape:window-maximized="0"
     inkscape:current-layer="svg2" />
  <defs
     id="defs12">
    <style
       type="text/css"
       id="current-color-scheme">
   .ColorScheme-Text { color:#5c616c; } .ColorScheme-Highlight { color:#5294e2; } .ColorScheme-ButtonBackground { color:#d3dae3; }
  </style>
  </defs>
  <g
     transform="translate(2)"
     id="g4"
     style="fill:#4d4d4d">
    <path
       style="fill:#4d4d4d"
       d="m3 6v12c0 0.554 0.446 1 1 1h10c0.554 0 1-0.446 1-1v-12h-12zm2.5 2h7a0.50005 0.50005 0 0 1 0.5 0.5v2 2a0.50005 0.50005 0 0 1 -0.5 0.5h-7a0.50005 0.50005 0 0 1 -0.5 -0.5v-2-2a0.50005 0.50005 0 0 1 0.5 -0.5zm0.5 1v1h6v-1h-6zm0 2v1h6v-1h-6zm0 3h1v1h1v-1h1v1h1v-1h1v1h1v-1h1v1h-1v1h1v1h-1v-1h-1v1h-1v-1h-1v1h-1v-1h-1v1h-1v-1h-1v-1h1v-1zm0 1v1h1v-1h-1zm2 1h1v-1h-1v1zm2 0h1v-1h-1v1z"
       id="path6"
       class="ColorScheme-ButtonBackground" />
    <path
       style="fill:#4d4d4d"
       d="m3 5 2-2h8l2 2z"
       fill-rule="evenodd"
       id="path8"
       class="ColorScheme-ButtonBackground" />
  </g>
</svg>
