<?xml version="1.0" encoding="UTF-8" standalone="no"?>
<svg
   xmlns:dc="http://purl.org/dc/elements/1.1/"
   xmlns:cc="http://creativecommons.org/ns#"
   xmlns:rdf="http://www.w3.org/1999/02/22-rdf-syntax-ns#"
   xmlns:svg="http://www.w3.org/2000/svg"
   xmlns="http://www.w3.org/2000/svg"
   xmlns:sodipodi="http://sodipodi.sourceforge.net/DTD/sodipodi-0.dtd"
   xmlns:inkscape="http://www.inkscape.org/namespaces/inkscape"
   width="22"
   height="22"
   id="svg2"
   version="1.1"
   sodipodi:docname="indicator-workspaces-3.svg"
   inkscape:version="0.92.2 2405546, 2018-03-11">
  <metadata
     id="metadata12">
    <rdf:RDF>
      <cc:Work
         rdf:about="">
        <dc:format>image/svg+xml</dc:format>
        <dc:type
           rdf:resource="http://purl.org/dc/dcmitype/StillImage" />
      </cc:Work>
    </rdf:RDF>
  </metadata>
  <sodipodi:namedview
     pagecolor="#ffffff"
     bordercolor="#666666"
     borderopacity="1"
     objecttolerance="10"
     gridtolerance="10"
     guidetolerance="10"
     inkscape:pageopacity="0"
     inkscape:pageshadow="2"
     inkscape:window-width="761"
     inkscape:window-height="480"
     id="namedview10"
     showgrid="false"
     inkscape:zoom="10.727273"
     inkscape:cx="11"
     inkscape:cy="11"
     inkscape:window-x="0"
     inkscape:window-y="0"
     inkscape:window-maximized="0"
     inkscape:current-layer="svg2" />
  <defs
     id="defs16">
    <style
       type="text/css"
       id="current-color-scheme">
   .ColorScheme-Text { color:#5c616c; } .ColorScheme-Highlight { color:#5294e2; } .ColorScheme-ButtonBackground { color:#d3dae3; }
  </style>
  </defs>
  <g
     transform="translate(0 -1030.9)"
     id="g4"
     style="fill:#4d4d4d">
    <path
       style="fill:#4d4d4d"
       d="m9 1046.9-2 2c-1 1-1 1 0 1h8c1 0 1 0 0-1l-2-2v-1h-4z"
       id="path6"
       class="ColorScheme-ButtonBackground" />
    <path
       style="fill:#4d4d4d"
       d="m5 1033.9c-1.108 0-2 0.892-2 2v9c0 1.108 0.892 2 2 2h12c1.108 0 2-0.892 2-2v-9c0-1.108-0.892-2-2-2h-12zm0 2h12v9h-12v-9z"
       id="path8"
       class="ColorScheme-ButtonBackground" />
    <g
       transform="translate(.053406)"
       id="g10"
       style="fill:#4d4d4d">
      <path
         style="fill:#4d4d4d"
         d="m12.03 1040.1q0.645 0.167 0.978 0.581 0.338 0.41 0.338 1.047 0 0.948-0.726 1.444-0.726 0.491-2.119 0.491-0.491 0-0.987-0.081-0.491-0.077-0.974-0.235v-1.269q0.461 0.231 0.914 0.35 0.457 0.115 0.897 0.115 0.654 0 1-0.226 0.35-0.226 0.35-0.649 0-0.436-0.359-0.658-0.355-0.226-1.051-0.226h-0.658v-1.06h0.692q0.62 0 0.923-0.192 0.303-0.197 0.303-0.594 0-0.367-0.295-0.568t-0.833-0.201q-0.397 0-0.803 0.09t-0.807 0.265v-1.205q0.487-0.137 0.966-0.205t0.94-0.068q1.243 0 1.859 0.41 0.62 0.406 0.62 1.226 0 0.56-0.295 0.919-0.295 0.355-0.872 0.5z"
         id="path12"
         class="ColorScheme-ButtonBackground" />
    </g>
  </g>
</svg>
