<?xml version="1.0" encoding="UTF-8" standalone="no"?>
<svg
   xmlns:dc="http://purl.org/dc/elements/1.1/"
   xmlns:cc="http://creativecommons.org/ns#"
   xmlns:rdf="http://www.w3.org/1999/02/22-rdf-syntax-ns#"
   xmlns:svg="http://www.w3.org/2000/svg"
   xmlns="http://www.w3.org/2000/svg"
   xmlns:sodipodi="http://sodipodi.sourceforge.net/DTD/sodipodi-0.dtd"
   xmlns:inkscape="http://www.inkscape.org/namespaces/inkscape"
   width="22"
   version="1.1"
   height="22"
   id="svg2"
   sodipodi:docname="indicator-sensors-gpu.svg"
   inkscape:version="0.92.2 2405546, 2018-03-11">
  <metadata
     id="metadata13">
    <rdf:RDF>
      <cc:Work
         rdf:about="">
        <dc:format>image/svg+xml</dc:format>
        <dc:type
           rdf:resource="http://purl.org/dc/dcmitype/StillImage" />
      </cc:Work>
    </rdf:RDF>
  </metadata>
  <sodipodi:namedview
     pagecolor="#ffffff"
     bordercolor="#666666"
     borderopacity="1"
     objecttolerance="10"
     gridtolerance="10"
     guidetolerance="10"
     inkscape:pageopacity="0"
     inkscape:pageshadow="2"
     inkscape:window-width="761"
     inkscape:window-height="480"
     id="namedview11"
     showgrid="false"
     inkscape:zoom="10.727273"
     inkscape:cx="0"
     inkscape:cy="11"
     inkscape:window-x="0"
     inkscape:window-y="0"
     inkscape:window-maximized="0"
     inkscape:current-layer="svg2" />
  <defs
     id="defs18">
    <style
       type="text/css"
       id="current-color-scheme">
   .ColorScheme-Text { color:#5c616c; } .ColorScheme-Highlight { color:#5294e2; } .ColorScheme-ButtonBackground { color:#d3dae3; }
  </style>
  </defs>
  <g
     transform="matrix(-1 0 0 1 19.014 -1030.3)"
     id="g4"
     style="fill:#4d4d4d">
    <path
       style="fill:#4d4d4d"
       d="m12.906 1034.3a1.0001 1.0001 0 0 0 -0.90625 1v13a1.0001 1.0001 0 1 0 2 0v-12h1a1.0001 1.0001 0 1 0 0 -2h-2a1.0001 1.0001 0 0 0 -0.0937 0z"
       id="path6"
       class="ColorScheme-ButtonBackground" />
    <path
       style="fill:#4d4d4d"
       d="m13 1039.3v0.5 2 0.5h0.5 2 0.5v-0.5-2-0.5h-0.5-2-0.5zm1 1h1v1h-1v-1z"
       id="path8"
       class="ColorScheme-ButtonBackground" />
    <path
       style="fill:#4d4d4d"
       d="m13 1043.3v0.5 2 0.5h0.5 2 0.5v-0.5-2-0.5h-0.5-2-0.5zm1 1h1v1h-1v-1z"
       id="path10"
       class="ColorScheme-ButtonBackground" />
    <path
       style="fill:#4d4d4d"
       d="m0 1037.3v1 10 1h1 8 1v-1-1h1v-2h-1-1-1v1 1h-6v-8h2 1 5 0.5 0.5v-2h-0.5-0.5-5-1-3-1z"
       id="path12"
       class="ColorScheme-ButtonBackground" />
    <path
       style="fill:#4d4d4d"
       d="m3 1040.4v4h1v-4h-1zm2 0v4h1v-4h-1zm2 0v4h1v-4h-1zm2 0v4h1v-4h-1z"
       id="path14"
       class="ColorScheme-ButtonBackground" />
  </g>
</svg>
