<?xml version="1.0" encoding="UTF-8" standalone="no"?>
<svg
   xmlns:dc="http://purl.org/dc/elements/1.1/"
   xmlns:cc="http://creativecommons.org/ns#"
   xmlns:rdf="http://www.w3.org/1999/02/22-rdf-syntax-ns#"
   xmlns:svg="http://www.w3.org/2000/svg"
   xmlns="http://www.w3.org/2000/svg"
   xmlns:sodipodi="http://sodipodi.sourceforge.net/DTD/sodipodi-0.dtd"
   xmlns:inkscape="http://www.inkscape.org/namespaces/inkscape"
   width="22"
   height="22"
   id="svg2"
   version="1.1"
   sodipodi:docname="indicator-workspaces-2.svg"
   inkscape:version="0.92.2 2405546, 2018-03-11">
  <metadata
     id="metadata12">
    <rdf:RDF>
      <cc:Work
         rdf:about="">
        <dc:format>image/svg+xml</dc:format>
        <dc:type
           rdf:resource="http://purl.org/dc/dcmitype/StillImage" />
      </cc:Work>
    </rdf:RDF>
  </metadata>
  <sodipodi:namedview
     pagecolor="#ffffff"
     bordercolor="#666666"
     borderopacity="1"
     objecttolerance="10"
     gridtolerance="10"
     guidetolerance="10"
     inkscape:pageopacity="0"
     inkscape:pageshadow="2"
     inkscape:window-width="761"
     inkscape:window-height="480"
     id="namedview10"
     showgrid="false"
     inkscape:zoom="10.727273"
     inkscape:cx="0"
     inkscape:cy="11"
     inkscape:window-x="0"
     inkscape:window-y="0"
     inkscape:window-maximized="0"
     inkscape:current-layer="svg2" />
  <defs
     id="defs16">
    <style
       type="text/css"
       id="current-color-scheme">
   .ColorScheme-Text { color:#5c616c; } .ColorScheme-Highlight { color:#5294e2; } .ColorScheme-ButtonBackground { color:#d3dae3; }
  </style>
  </defs>
  <g
     transform="translate(0 -1030.9)"
     id="g4"
     style="fill:#4d4d4d">
    <path
       style="fill:#4d4d4d"
       d="m9 1046.9-2 2c-1 1-1 1 0 1h8c1 0 1 0 0-1l-2-2v-1h-4z"
       id="path6"
       class="ColorScheme-ButtonBackground" />
    <path
       style="fill:#4d4d4d"
       d="m5 1033.9c-1.108 0-2 0.892-2 2v9c0 1.108 0.892 2 2 2h12c1.108 0 2-0.892 2-2v-9c0-1.108-0.892-2-2-2h-12zm0 2h12v9h-12v-9z"
       id="path8"
       class="ColorScheme-ButtonBackground" />
    <g
       transform="translate(.032043)"
       id="g10"
       style="fill:#4d4d4d">
      <path
         style="fill:#4d4d4d"
         d="m10.479 1042.3h2.807v1.209h-4.636v-1.209l2.328-2.055q0.312-0.282 0.461-0.551 0.15-0.269 0.15-0.56 0-0.449-0.303-0.722-0.299-0.273-0.799-0.273-0.385 0-0.842 0.167-0.457 0.162-0.978 0.487v-1.401q0.555-0.184 1.098-0.278 0.543-0.098 1.064-0.098 1.145 0 1.777 0.504 0.637 0.504 0.637 1.406 0 0.521-0.269 0.974-0.269 0.449-1.132 1.205l-1.363 1.196z"
         id="path12"
         class="ColorScheme-ButtonBackground" />
    </g>
  </g>
</svg>
