<?xml version="1.0" encoding="UTF-8" standalone="no"?>
<svg
   xmlns:dc="http://purl.org/dc/elements/1.1/"
   xmlns:cc="http://creativecommons.org/ns#"
   xmlns:rdf="http://www.w3.org/1999/02/22-rdf-syntax-ns#"
   xmlns:svg="http://www.w3.org/2000/svg"
   xmlns="http://www.w3.org/2000/svg"
   xmlns:sodipodi="http://sodipodi.sourceforge.net/DTD/sodipodi-0.dtd"
   xmlns:inkscape="http://www.inkscape.org/namespaces/inkscape"
   width="22"
   height="22"
   id="svg2"
   version="1.1"
   sodipodi:docname="indicator-workspaces-6.svg"
   inkscape:version="0.92.2 2405546, 2018-03-11">
  <metadata
     id="metadata12">
    <rdf:RDF>
      <cc:Work
         rdf:about="">
        <dc:format>image/svg+xml</dc:format>
        <dc:type
           rdf:resource="http://purl.org/dc/dcmitype/StillImage" />
      </cc:Work>
    </rdf:RDF>
  </metadata>
  <sodipodi:namedview
     pagecolor="#ffffff"
     bordercolor="#666666"
     borderopacity="1"
     objecttolerance="10"
     gridtolerance="10"
     guidetolerance="10"
     inkscape:pageopacity="0"
     inkscape:pageshadow="2"
     inkscape:window-width="761"
     inkscape:window-height="480"
     id="namedview10"
     showgrid="false"
     inkscape:zoom="10.727273"
     inkscape:cx="11"
     inkscape:cy="11"
     inkscape:window-x="0"
     inkscape:window-y="0"
     inkscape:window-maximized="0"
     inkscape:current-layer="svg2" />
  <defs
     id="defs16">
    <style
       type="text/css"
       id="current-color-scheme">
   .ColorScheme-Text { color:#5c616c; } .ColorScheme-Highlight { color:#5294e2; } .ColorScheme-ButtonBackground { color:#d3dae3; }
  </style>
  </defs>
  <g
     transform="translate(0 -1030.9)"
     id="g4"
     style="fill:#4d4d4d">
    <path
       style="fill:#4d4d4d"
       d="m9 1046.9-2 2c-1 1-1 1 0 1h8c1 0 1 0 0-1l-2-2v-1h-4z"
       id="path6"
       class="ColorScheme-ButtonBackground" />
    <path
       style="fill:#4d4d4d"
       d="m5 1033.9c-1.108 0-2 0.892-2 2v9c0 1.108 0.892 2 2 2h12c1.108 0 2-0.892 2-2v-9c0-1.108-0.892-2-2-2h-12zm0 2h12v9h-12v-9z"
       id="path8"
       class="ColorScheme-ButtonBackground" />
    <g
       transform="translate(-.038452)"
       id="g10"
       style="fill:#4d4d4d">
      <path
         style="fill:#4d4d4d"
         d="m11.124 1040.4q-0.432 0-0.649 0.282-0.214 0.278-0.214 0.837 0 0.56 0.214 0.842 0.218 0.278 0.649 0.278 0.436 0 0.649-0.278 0.218-0.282 0.218-0.842t-0.218-0.837q-0.214-0.282-0.649-0.282zm2.034-3.063v1.179q-0.406-0.192-0.765-0.282-0.359-0.094-0.701-0.094-0.735 0-1.145 0.41-0.41 0.406-0.479 1.209 0.282-0.209 0.611-0.312 0.329-0.107 0.718-0.107 0.978 0 1.577 0.572 0.602 0.572 0.602 1.5 0 1.025-0.671 1.645-0.671 0.615-1.799 0.615-1.243 0-1.927-0.837-0.679-0.842-0.679-2.384 0-1.581 0.795-2.482 0.799-0.906 2.187-0.906 0.44 0 0.854 0.068t0.82 0.205z"
         id="path12"
         class="ColorScheme-ButtonBackground" />
    </g>
  </g>
</svg>
