<?xml version="1.0" encoding="UTF-8" standalone="no"?>
<svg
   xmlns:dc="http://purl.org/dc/elements/1.1/"
   xmlns:cc="http://creativecommons.org/ns#"
   xmlns:rdf="http://www.w3.org/1999/02/22-rdf-syntax-ns#"
   xmlns:svg="http://www.w3.org/2000/svg"
   xmlns="http://www.w3.org/2000/svg"
   xmlns:sodipodi="http://sodipodi.sourceforge.net/DTD/sodipodi-0.dtd"
   xmlns:inkscape="http://www.inkscape.org/namespaces/inkscape"
   width="22"
   version="1.1"
   height="22"
   id="svg2"
   sodipodi:docname="indicator-virtual-box.svg"
   inkscape:version="0.92.2 2405546, 2018-03-11">
  <metadata
     id="metadata9">
    <rdf:RDF>
      <cc:Work
         rdf:about="">
        <dc:format>image/svg+xml</dc:format>
        <dc:type
           rdf:resource="http://purl.org/dc/dcmitype/StillImage" />
      </cc:Work>
    </rdf:RDF>
  </metadata>
  <sodipodi:namedview
     pagecolor="#ffffff"
     bordercolor="#666666"
     borderopacity="1"
     objecttolerance="10"
     gridtolerance="10"
     guidetolerance="10"
     inkscape:pageopacity="0"
     inkscape:pageshadow="2"
     inkscape:window-width="761"
     inkscape:window-height="480"
     id="namedview7"
     showgrid="false"
     inkscape:zoom="10.727273"
     inkscape:cx="11"
     inkscape:cy="11"
     inkscape:window-x="0"
     inkscape:window-y="0"
     inkscape:window-maximized="0"
     inkscape:current-layer="svg2" />
  <defs
     id="defs10">
    <style
       type="text/css"
       id="current-color-scheme">
   .ColorScheme-Text { color:#5c616c; } .ColorScheme-Highlight { color:#5294e2; } .ColorScheme-ButtonBackground { color:#d3dae3; }
  </style>
  </defs>
  <g
     transform="translate(-473 -957.27)"
     id="g4"
     style="fill:#4d4d4d">
    <path
       style="fill:#4d4d4d"
       d="m478 960.27s-2 0-2 2v12c0 2 2 2 2 2h12c2 0 2-2 2-2v-12.031s0-1.9688-2-1.9688h-12zm0 1h12c1 0 1 1 1 1v1 6 1h-0.625l-1.9062-6.625-0.4375-1.5625-0.5 1.5312-1.5312 4.5938-1.5312-4.5938-0.46875-1.4375-0.46875 1.4375-2.5 7.5-1.5625-5.4688-0.0937-0.375h-0.375-2v-2-1s0-1 1-1zm6 4.0625 1.5312 4.5938 0.46875 1.4375 0.46875-1.4375 1.5-4.5 1.5625 5.4688 0.0937 0.375h0.375 1v2 1c0 1-1 1-1 1h-12s-1 0-1-1v-1-6-1h1.625l1.9062 6.625 0.4375 1.5625 0.5-1.5312 2.5313-7.5938z"
       id="path6"
       class="ColorScheme-ButtonBackground" />
  </g>
</svg>
