<?xml version="1.0" encoding="UTF-8" standalone="no"?>
<svg
   xmlns:dc="http://purl.org/dc/elements/1.1/"
   xmlns:cc="http://creativecommons.org/ns#"
   xmlns:rdf="http://www.w3.org/1999/02/22-rdf-syntax-ns#"
   xmlns:svg="http://www.w3.org/2000/svg"
   xmlns="http://www.w3.org/2000/svg"
   xmlns:sodipodi="http://sodipodi.sourceforge.net/DTD/sodipodi-0.dtd"
   xmlns:inkscape="http://www.inkscape.org/namespaces/inkscape"
   height="22"
   width="22"
   version="1.1"
   id="svg7"
   sodipodi:docname="indicator-keyboard.svg"
   inkscape:version="0.92.2 2405546, 2018-03-11">
  <metadata
     id="metadata11">
    <rdf:RDF>
      <cc:Work
         rdf:about="">
        <dc:format>image/svg+xml</dc:format>
        <dc:type
           rdf:resource="http://purl.org/dc/dcmitype/StillImage" />
      </cc:Work>
    </rdf:RDF>
  </metadata>
  <sodipodi:namedview
     pagecolor="#ffffff"
     bordercolor="#666666"
     borderopacity="1"
     objecttolerance="10"
     gridtolerance="10"
     guidetolerance="10"
     inkscape:pageopacity="0"
     inkscape:pageshadow="2"
     inkscape:window-width="761"
     inkscape:window-height="480"
     id="namedview9"
     showgrid="false"
     inkscape:zoom="10.727273"
     inkscape:cx="11"
     inkscape:cy="11"
     inkscape:window-x="0"
     inkscape:window-y="0"
     inkscape:window-maximized="0"
     inkscape:current-layer="svg7" />
  <defs
     id="defs3">
    <style
       type="text/css"
       id="current-color-scheme">
   .ColorScheme-Text { color:#5c616c; } .ColorScheme-Highlight { color:#5294e2; } .ColorScheme-ButtonBackground { color:#d3dae3; }
  </style>
  </defs>
  <path
     d="m5 5s-2 0-2 2v8c0 2 2 2 2 2h11s2 0 2-2v-8c0-2-2-2-2-2h-11zm.25 2h1.5c.1385 0 .25.1115.25.25v1.5c0 .1385-.1115.25-.25.25h-1.5c-.1385 0-.25-.1115-.25-.25v-1.5c0-.1385.1115-.25.25-.25zm3 0h1.5c.1385 0 .25.1115.25.25v1.5c0 .1385-.1115.25-.25.25h-1.5c-.1385 0-.25-.1115-.25-.25v-1.5c0-.1385.1115-.25.25-.25zm3 0h1.5c.138 0 .25.1115.25.25v1.5c0 .1385-.112.25-.25.25h-1.5c-.138 0-.25-.1115-.25-.25v-1.5c0-.1385.112-.25.25-.25zm3 0h1.5c.138 0 .25.1115.25.25v1.5c0 .1385-.112.25-.25.25h-1.5c-.138 0-.25-.1115-.25-.25v-1.5c0-.1385.112-.25.25-.25zm-9 3h1.5c.1385 0 .25.112.25.25v1.5c0 .138-.1115.25-.25.25h-1.5c-.1385 0-.25-.112-.25-.25v-1.5c0-.138.1115-.25.25-.25zm3 0h1.5c.1385 0 .25.112.25.25v1.5c0 .138-.1115.25-.25.25h-1.5c-.1385 0-.25-.112-.25-.25v-1.5c0-.138.1115-.25.25-.25zm3 0h1.5c.1385 0 .25.1115.25.25v1.5c0 .138-.112.25-.25.25h-1.5c-.138 0-.25-.112-.25-.25v-1.5c0-.138.112-.25.25-.25zm3 0h1.5c.1385 0 .25.1115.25.25v1.5c0 .138-.112.25-.25.25h-1.5c-.138 0-.25-.112-.25-.25v-1.5c0-.138.112-.25.25-.25zm-7 3h6.5c.1385 0 .25.1115.25.25v1.5c0 .138-.112.25-.25.25h-6.5c-.1385 0-.25-.112-.25-.25v-1.5c0-.138.1115-.25.25-.25z"
     class="ColorScheme-ButtonBackground"
     fill="currentColor"
     id="path5"
     style="fill:#4d4d4d" />
</svg>
