<?xml version="1.0" encoding="UTF-8" standalone="no"?>
<svg
   xmlns:dc="http://purl.org/dc/elements/1.1/"
   xmlns:cc="http://creativecommons.org/ns#"
   xmlns:rdf="http://www.w3.org/1999/02/22-rdf-syntax-ns#"
   xmlns:svg="http://www.w3.org/2000/svg"
   xmlns="http://www.w3.org/2000/svg"
   xmlns:sodipodi="http://sodipodi.sourceforge.net/DTD/sodipodi-0.dtd"
   xmlns:inkscape="http://www.inkscape.org/namespaces/inkscape"
   width="22"
   version="1.1"
   height="22"
   id="svg11"
   sodipodi:docname="insync-syncing-4.svg"
   inkscape:version="0.92.2 2405546, 2018-03-11">
  <metadata
     id="metadata15">
    <rdf:RDF>
      <cc:Work
         rdf:about="">
        <dc:format>image/svg+xml</dc:format>
        <dc:type
           rdf:resource="http://purl.org/dc/dcmitype/StillImage" />
      </cc:Work>
    </rdf:RDF>
  </metadata>
  <sodipodi:namedview
     pagecolor="#ffffff"
     bordercolor="#666666"
     borderopacity="1"
     objecttolerance="10"
     gridtolerance="10"
     guidetolerance="10"
     inkscape:pageopacity="0"
     inkscape:pageshadow="2"
     inkscape:window-width="761"
     inkscape:window-height="480"
     id="namedview13"
     showgrid="false"
     inkscape:zoom="10.727273"
     inkscape:cx="11"
     inkscape:cy="11"
     inkscape:window-x="0"
     inkscape:window-y="0"
     inkscape:window-maximized="0"
     inkscape:current-layer="svg11" />
  <defs
     id="defs3">
    <style
       type="text/css"
       id="current-color-scheme">
   .ColorScheme-Text { color:#5c616c; } .ColorScheme-Highlight { color:#5294e2; } .ColorScheme-ButtonBackground { color:#d3dae3; }
  </style>
  </defs>
  <g
     id="g9"
     style="fill:#4d4d4d">
    <path
       d="m 8,3 3.849609,7 6.351563,0 L 14,3 8,3 Z M 7.5,4 2,14 5,19 10.5,9.5 7.5,4 Z M 9,14.009766 6,19 l 4,0 0,-4.990234 -1,0 z"
       class="ColorScheme-ButtonBackground"
       style="fill:#4d4d4d"
       id="path5" />
    <path
       d="m 18.999912,12.000354 -1.045,1.04 c -0.832486,-0.856519 -2.125736,-1.240946 -3.287401,-0.937337 -1.324249,0.315645 -2.400101,1.5549 -2.613157,2.897337 l 1.518858,5.6e-5 c 0.196407,-0.833878 0.984318,-1.478634 1.842112,-1.498165 0.553098,-0.02825 1.108083,0.191809 1.494688,0.587985 l -0.9102,0.91015 3.0001,6.7e-5 z m -6.999558,6.999734 1.045,-1.04 c 0.832486,0.856519 2.125736,1.240946 3.287401,0.937337 1.324249,-0.315645 2.400101,-1.5549 2.613157,-2.897337 l -1.518858,-5.6e-5 c -0.196407,0.833878 -0.984318,1.478634 -1.842112,1.498165 -0.553098,0.02825 -1.108083,-0.191809 -1.494688,-0.587985 l 0.9102,-0.91015 -3.0001,-6.7e-5 z"
       class="ColorScheme-ButtonBackground"
       style="fill:#4d4d4d"
       id="path7" />
  </g>
</svg>
