<?xml version="1.0" encoding="UTF-8" standalone="no"?>
<svg
   xmlns:dc="http://purl.org/dc/elements/1.1/"
   xmlns:cc="http://creativecommons.org/ns#"
   xmlns:rdf="http://www.w3.org/1999/02/22-rdf-syntax-ns#"
   xmlns:svg="http://www.w3.org/2000/svg"
   xmlns="http://www.w3.org/2000/svg"
   xmlns:sodipodi="http://sodipodi.sourceforge.net/DTD/sodipodi-0.dtd"
   xmlns:inkscape="http://www.inkscape.org/namespaces/inkscape"
   width="22"
   version="1.1"
   height="22"
   id="svg11"
   sodipodi:docname="insync-paused.svg"
   inkscape:version="0.92.2 2405546, 2018-03-11">
  <metadata
     id="metadata15">
    <rdf:RDF>
      <cc:Work
         rdf:about="">
        <dc:format>image/svg+xml</dc:format>
        <dc:type
           rdf:resource="http://purl.org/dc/dcmitype/StillImage" />
      </cc:Work>
    </rdf:RDF>
  </metadata>
  <sodipodi:namedview
     pagecolor="#ffffff"
     bordercolor="#666666"
     borderopacity="1"
     objecttolerance="10"
     gridtolerance="10"
     guidetolerance="10"
     inkscape:pageopacity="0"
     inkscape:pageshadow="2"
     inkscape:window-width="761"
     inkscape:window-height="480"
     id="namedview13"
     showgrid="false"
     inkscape:zoom="10.727273"
     inkscape:cx="11"
     inkscape:cy="11"
     inkscape:window-x="0"
     inkscape:window-y="0"
     inkscape:window-maximized="0"
     inkscape:current-layer="svg11" />
  <defs
     id="defs3">
    <style
       type="text/css"
       id="current-color-scheme">
   .ColorScheme-Text { color:#5c616c; } .ColorScheme-Highlight { color:#5294e2; } .ColorScheme-ButtonBackground { color:#d3dae3; }
  </style>
  </defs>
  <g
     id="g9"
     style="fill:#4d4d4d">
    <path
       d="M 8 3 L 12.949219 12 L 15 12 L 16 12 L 19.400391 12 L 14 3 L 8 3 z M 7.5 4 L 2 14 L 5 19 L 10.5 9.5 L 7.5 4 z M 17 14.001953 L 17 18 L 17.599609 18 L 18 17.333984 L 18 14.001953 L 17 14.001953 z M 13 14.005859 L 13 18 L 14 18 L 14 14.005859 L 13 14.005859 z M 11 14.007812 L 9 14.009766 L 6 19 L 11 19 L 11 14.007812 z"
       class="ColorScheme-ButtonBackground"
       style="fill:#4d4d4d;opacity:0.3"
       id="path5" />
    <path
       class="ColorScheme-ButtonBackground"
       d="m 11.99998,13 0,6 3.00007,0 0,-6 -3.00007,0 z m 3.99996,0 0,6 3.00007,0 0,-6 -3.00007,0 z"
       style="fill:#4d4d4d"
       id="path7" />
  </g>
</svg>
