<?xml version="1.0" encoding="UTF-8" standalone="no"?>
<svg
   xmlns:dc="http://purl.org/dc/elements/1.1/"
   xmlns:cc="http://creativecommons.org/ns#"
   xmlns:rdf="http://www.w3.org/1999/02/22-rdf-syntax-ns#"
   xmlns:svg="http://www.w3.org/2000/svg"
   xmlns="http://www.w3.org/2000/svg"
   xmlns:sodipodi="http://sodipodi.sourceforge.net/DTD/sodipodi-0.dtd"
   xmlns:inkscape="http://www.inkscape.org/namespaces/inkscape"
   width="22"
   version="1.1"
   height="22"
   id="svg11"
   sodipodi:docname="insync-feed.svg"
   inkscape:version="0.92.2 2405546, 2018-03-11">
  <metadata
     id="metadata15">
    <rdf:RDF>
      <cc:Work
         rdf:about="">
        <dc:format>image/svg+xml</dc:format>
        <dc:type
           rdf:resource="http://purl.org/dc/dcmitype/StillImage" />
      </cc:Work>
    </rdf:RDF>
  </metadata>
  <sodipodi:namedview
     pagecolor="#ffffff"
     bordercolor="#666666"
     borderopacity="1"
     objecttolerance="10"
     gridtolerance="10"
     guidetolerance="10"
     inkscape:pageopacity="0"
     inkscape:pageshadow="2"
     inkscape:window-width="761"
     inkscape:window-height="480"
     id="namedview13"
     showgrid="false"
     inkscape:zoom="10.727273"
     inkscape:cx="11"
     inkscape:cy="11"
     inkscape:window-x="0"
     inkscape:window-y="0"
     inkscape:window-maximized="0"
     inkscape:current-layer="g9" />
  <defs
     id="defs3">
    <style
       type="text/css"
       id="current-color-scheme">
   .ColorScheme-Text { color:#5c616c; } .ColorScheme-Highlight { color:#5294e2; } .ColorScheme-ButtonBackground { color:#d3dae3; }
  </style>
  </defs>
  <g
     id="g9">
    <path
       class="ColorScheme-Highlight"
       d="m 19.999932,5.0164315 a 2,2 0 0 1 -3.999865,0 2,2 0 1 1 3.999865,0 z"
       style="fill:currentColor;fill-opacity:1"
       id="path5" />
    <path
       d="m 2.000028,14 5.5,-10 3,5.5 -5.5,9.5 z m 7,0.01 11,-0.01055 -3,5 -11,-3e-6 z M 8,3 13.5,13 20,13 16.875,7.7929688 C 16.550798,7.6705258 16.242345,7.4955492 15.96875,7.2539062 15.389037,6.7418953 15.0075,5.9358785 15,5.0253906 14.999127,4.9191322 15.02027,4.8200673 15.0293,4.7167969 L 14,3 8,3 Z"
       style="fill:#4d4d4d"
       class="ColorScheme-ButtonBackground"
       id="path7" />
  </g>
</svg>
