<?xml version="1.0" encoding="UTF-8" standalone="no"?>
<svg
   xmlns:dc="http://purl.org/dc/elements/1.1/"
   xmlns:cc="http://creativecommons.org/ns#"
   xmlns:rdf="http://www.w3.org/1999/02/22-rdf-syntax-ns#"
   xmlns:svg="http://www.w3.org/2000/svg"
   xmlns="http://www.w3.org/2000/svg"
   xmlns:sodipodi="http://sodipodi.sourceforge.net/DTD/sodipodi-0.dtd"
   xmlns:inkscape="http://www.inkscape.org/namespaces/inkscape"
   height="22"
   width="22"
   version="1"
   id="svg2"
   sodipodi:docname="keepassx-locked.svg"
   inkscape:version="0.92.2 2405546, 2018-03-11">
  <metadata
     id="metadata8">
    <rdf:RDF>
      <cc:Work
         rdf:about="">
        <dc:format>image/svg+xml</dc:format>
        <dc:type
           rdf:resource="http://purl.org/dc/dcmitype/StillImage" />
      </cc:Work>
    </rdf:RDF>
  </metadata>
  <sodipodi:namedview
     pagecolor="#ffffff"
     bordercolor="#666666"
     borderopacity="1"
     objecttolerance="10"
     gridtolerance="10"
     guidetolerance="10"
     inkscape:pageopacity="0"
     inkscape:pageshadow="2"
     inkscape:window-width="761"
     inkscape:window-height="480"
     id="namedview6"
     showgrid="false"
     inkscape:zoom="10.727273"
     inkscape:cx="0"
     inkscape:cy="11"
     inkscape:window-x="0"
     inkscape:window-y="0"
     inkscape:window-maximized="0"
     inkscape:current-layer="svg2" />
  <defs
     id="defs8">
    <style
       type="text/css"
       id="current-color-scheme">
   .ColorScheme-Text { color:#5c616c; } .ColorScheme-Highlight { color:#5294e2; } .ColorScheme-ButtonBackground { color:#d3dae3; }
  </style>
  </defs>
  <path
     style="fill:#4d4d4d"
     d="m15 3c-2.209 0-4 1.7909-4 4 0.002 0.7135 0.195 1.4135 0.559 2.0273l-2.6078 2.6077-4.2422-4.2424c-0.1959-0.1959-0.4534-0.293-0.709-0.293s-0.5112 0.0971-0.707 0.293c-0.3918 0.3917-0.3918 1.0223 0 1.414l4.2422 4.2424-4.2422 4.242c-0.3918 0.392-0.3918 1.024 0 1.416 0.3917 0.392 1.0242 0.392 1.416 0l0.707-0.707h1.584v-1.584l0.416-0.416h1.584v-1.486l4.193 4.193c0.392 0.392 1.023 0.392 1.414 0 0.392-0.392 0.392-1.024 0-1.416l-4.242-4.242 2.608-2.608c0.614 0.364 1.313 0.557 2.027 0.559 2.209 0 4-1.7909 4-4s-1.791-4-4-4zm1 2c0.552 0 1 0.4477 1 1s-0.448 1-1 1-1-0.4477-1-1 0.448-1 1-1z"
     id="path4"
     class="ColorScheme-ButtonBackground" />
</svg>
