<?xml version="1.0" encoding="UTF-8" standalone="no"?>
<svg
   xmlns:dc="http://purl.org/dc/elements/1.1/"
   xmlns:cc="http://creativecommons.org/ns#"
   xmlns:rdf="http://www.w3.org/1999/02/22-rdf-syntax-ns#"
   xmlns:svg="http://www.w3.org/2000/svg"
   xmlns="http://www.w3.org/2000/svg"
   xmlns:sodipodi="http://sodipodi.sourceforge.net/DTD/sodipodi-0.dtd"
   xmlns:inkscape="http://www.inkscape.org/namespaces/inkscape"
   height="22"
   width="22"
   version="1.1"
   id="svg2"
   sodipodi:docname="krudiotray-light-on22.svg"
   inkscape:version="0.92.2 2405546, 2018-03-11">
  <metadata
     id="metadata9">
    <rdf:RDF>
      <cc:Work
         rdf:about="">
        <dc:format>image/svg+xml</dc:format>
        <dc:type
           rdf:resource="http://purl.org/dc/dcmitype/StillImage" />
      </cc:Work>
    </rdf:RDF>
  </metadata>
  <sodipodi:namedview
     pagecolor="#ffffff"
     bordercolor="#666666"
     borderopacity="1"
     objecttolerance="10"
     gridtolerance="10"
     guidetolerance="10"
     inkscape:pageopacity="0"
     inkscape:pageshadow="2"
     inkscape:window-width="901"
     inkscape:window-height="480"
     id="namedview7"
     showgrid="false"
     inkscape:zoom="10.727273"
     inkscape:cx="11"
     inkscape:cy="11"
     inkscape:window-x="0"
     inkscape:window-y="0"
     inkscape:window-maximized="0"
     inkscape:current-layer="svg2" />
  <defs
     id="defs10">
    <style
       type="text/css"
       id="current-color-scheme">
   .ColorScheme-Text { color:#5c616c; } .ColorScheme-Highlight { color:#5294e2; } .ColorScheme-ButtonBackground { color:#d3dae3; }
  </style>
  </defs>
  <path
     style="fill:#4d4d4d"
     d="M 3.1426,4 C 2.5094,4 2,4.5344 2,5.1992 l 0,11.602 c 0,0.665 0.5094,1.199 1.1426,1.199 l 15.714,0 c 0.634,0 1.143,-0.534 1.143,-1.199 l 0,-11.602 c 0,-0.6646 -0.509,-1.199 -1.143,-1.199 l -15.714,0 z M 8,7 c 2.209,0 4,1.7909 4,4 0,2.209 -1.791,4 -4,4 C 5.7909,15 4,13.209 4,11 4,8.7909 5.7909,7 8,7 Z m 5,0 5,0 0,1 -5,0 0,-1 z m 0,3 5,0 0,1 -5,0 0,-1 z m 0,3 5,0 0,1 -5,0 0,-1 z"
     id="path4"
     class="ColorScheme-ButtonBackground" />
  <path
     style="fill:currentColor"
     d="m 8.1,8 c -1.6569,0 -3,1.3432 -3,3 0,1.6568 1.3431,3 3,3 1.6568,0 3,-1.3432 3,-3 0,-1.6568 -1.3432,-3 -3,-3 z"
     id="path6"
     class="ColorScheme-Highlight" />
</svg>
