<?xml version="1.0" encoding="UTF-8" standalone="no"?>
<svg
   xmlns:dc="http://purl.org/dc/elements/1.1/"
   xmlns:cc="http://creativecommons.org/ns#"
   xmlns:rdf="http://www.w3.org/1999/02/22-rdf-syntax-ns#"
   xmlns:svg="http://www.w3.org/2000/svg"
   xmlns="http://www.w3.org/2000/svg"
   xmlns:sodipodi="http://sodipodi.sourceforge.net/DTD/sodipodi-0.dtd"
   xmlns:inkscape="http://www.inkscape.org/namespaces/inkscape"
   width="22"
   version="1.1"
   height="22"
   id="svg2"
   sodipodi:docname="messenger-notification.svg"
   inkscape:version="0.92.2 2405546, 2018-03-11">
  <metadata
     id="metadata9">
    <rdf:RDF>
      <cc:Work
         rdf:about="">
        <dc:format>image/svg+xml</dc:format>
        <dc:type
           rdf:resource="http://purl.org/dc/dcmitype/StillImage" />
      </cc:Work>
    </rdf:RDF>
  </metadata>
  <sodipodi:namedview
     pagecolor="#ffffff"
     bordercolor="#666666"
     borderopacity="1"
     objecttolerance="10"
     gridtolerance="10"
     guidetolerance="10"
     inkscape:pageopacity="0"
     inkscape:pageshadow="2"
     inkscape:window-width="901"
     inkscape:window-height="480"
     id="namedview7"
     showgrid="false"
     inkscape:zoom="10.727273"
     inkscape:cx="11"
     inkscape:cy="11"
     inkscape:window-x="0"
     inkscape:window-y="0"
     inkscape:window-maximized="0"
     inkscape:current-layer="svg2" />
  <defs
     id="defs10">
    <style
       type="text/css"
       id="current-color-scheme">
   .ColorScheme-Text { color:#5c616c; } .ColorScheme-Highlight { color:#5294e2; } .ColorScheme-ButtonBackground { color:#d3dae3; }
  </style>
  </defs>
  <path
     opacity="1000000"
     style="fill:#4d4d4d"
     d="m11.018 3c-3.8932 0-7.1297 2.5954-7.8344 6.0273-0.1202 0.5179-0.182 1.0467-0.1836 1.5767 0.0025 1.8923 0.77364 3.6911 2.1172 5.0625a3 3 0 0 1 1.8828 -0.666 3 3 0 0 1 3 3 3 3 0 0 1 -0.00195 0.03711c0.32607 0.03968 0.65412 0.06614 0.98438 0.06641 3.8345-0.0024 7.124-2.5669 7.8359-6.1074 0.117-0.506 0.182-1.03 0.182-1.568 0-4.103-3.574-7.428-7.982-7.428zm-1.018 4 2 3.5 5-2.5-6 6-1.5-3.5-4.5 2.5 5-6z"
     id="path4"
     class="ColorScheme-ButtonBackground" />
  <circle
     cy="18"
     cx="7"
     r="2"
     style="fill:currentColor"
     id="circle6"
     class="ColorScheme-Highlight" />
</svg>
