<?xml version="1.0" encoding="UTF-8" standalone="no"?>
<svg
   xmlns:dc="http://purl.org/dc/elements/1.1/"
   xmlns:cc="http://creativecommons.org/ns#"
   xmlns:rdf="http://www.w3.org/1999/02/22-rdf-syntax-ns#"
   xmlns:svg="http://www.w3.org/2000/svg"
   xmlns="http://www.w3.org/2000/svg"
   xmlns:sodipodi="http://sodipodi.sourceforge.net/DTD/sodipodi-0.dtd"
   xmlns:inkscape="http://www.inkscape.org/namespaces/inkscape"
   height="22"
   width="22"
   version="1.1"
   id="svg2"
   sodipodi:docname="microphone-sensitivity-muted.svg"
   inkscape:version="0.92.2 2405546, 2018-03-11">
  <metadata
     id="metadata9">
    <rdf:RDF>
      <cc:Work
         rdf:about="">
        <dc:format>image/svg+xml</dc:format>
        <dc:type
           rdf:resource="http://purl.org/dc/dcmitype/StillImage" />
      </cc:Work>
    </rdf:RDF>
  </metadata>
  <sodipodi:namedview
     pagecolor="#ffffff"
     bordercolor="#666666"
     borderopacity="1"
     objecttolerance="10"
     gridtolerance="10"
     guidetolerance="10"
     inkscape:pageopacity="0"
     inkscape:pageshadow="2"
     inkscape:window-width="901"
     inkscape:window-height="480"
     id="namedview7"
     showgrid="false"
     inkscape:zoom="10.727273"
     inkscape:cx="11"
     inkscape:cy="11"
     inkscape:window-x="0"
     inkscape:window-y="0"
     inkscape:window-maximized="0"
     inkscape:current-layer="svg2" />
  <defs
     id="defs10">
    <style
       type="text/css"
       id="current-color-scheme">
   .ColorScheme-Text { color:#5c616c; } .ColorScheme-Highlight { color:#5294e2; } .ColorScheme-ButtonBackground { color:#d3dae3; }
  </style>
  </defs>
  <g
     transform="translate(-225 -647.36)"
     id="g4"
     style="fill:#4d4d4d">
    <path
       style="fill:#4d4d4d"
       d="m11 3c-1.246 0-2.3111 0.7515-2.7656 1.8281v0.002l5.7656 5.7639v-4.594c0-1.6621-1.338-3-3-3zm-5.6562 0.9375l-1.4063 1.4063 4.0625 4.0624v1.5938c0 1.662 1.3379 3 3 3 0.466 0 0.901-0.113 1.291-0.303l0.729 0.729c-0.592 0.352-1.271 0.574-2.02 0.574-2.2334 0-4-1.767-4-4v-1h-2v1c0 2.969 2.1624 5.432 5 5.906v2.094h2v-2.094c0.91-0.152 1.738-0.527 2.459-1.041l2.197 2.197 1.406-1.406-12.718-12.718zm9.6562 6.0625v1c0 0.186-0.029 0.362-0.053 0.541l1.637 1.637c0.264-0.676 0.416-1.409 0.416-2.178v-1h-2z"
       transform="translate(225 647.36)"
       id="path6"
       class="ColorScheme-ButtonBackground" />
  </g>
</svg>
