<?xml version="1.0" encoding="UTF-8" standalone="no"?>
<svg
   xmlns:dc="http://purl.org/dc/elements/1.1/"
   xmlns:cc="http://creativecommons.org/ns#"
   xmlns:rdf="http://www.w3.org/1999/02/22-rdf-syntax-ns#"
   xmlns:svg="http://www.w3.org/2000/svg"
   xmlns="http://www.w3.org/2000/svg"
   xmlns:sodipodi="http://sodipodi.sourceforge.net/DTD/sodipodi-0.dtd"
   xmlns:inkscape="http://www.inkscape.org/namespaces/inkscape"
   version="1.1"
   width="22"
   height="22"
   id="svg7"
   sodipodi:docname="mini-calendar.svg"
   inkscape:version="0.92.2 2405546, 2018-03-11">
  <metadata
     id="metadata11">
    <rdf:RDF>
      <cc:Work
         rdf:about="">
        <dc:format>image/svg+xml</dc:format>
        <dc:type
           rdf:resource="http://purl.org/dc/dcmitype/StillImage" />
      </cc:Work>
    </rdf:RDF>
  </metadata>
  <sodipodi:namedview
     pagecolor="#ffffff"
     bordercolor="#666666"
     borderopacity="1"
     objecttolerance="10"
     gridtolerance="10"
     guidetolerance="10"
     inkscape:pageopacity="0"
     inkscape:pageshadow="2"
     inkscape:window-width="901"
     inkscape:window-height="480"
     id="namedview9"
     showgrid="false"
     inkscape:zoom="10.727273"
     inkscape:cx="11"
     inkscape:cy="11"
     inkscape:window-x="0"
     inkscape:window-y="0"
     inkscape:window-maximized="0"
     inkscape:current-layer="svg7" />
  <defs
     id="defs3">
    <style
       id="current-color-scheme"
       type="text/css">
   .ColorScheme-Text { color:#5c616c; } .ColorScheme-Highlight { color:#5294e2; } .ColorScheme-ButtonBackground { color:#d3dae3; }
  </style>
  </defs>
  <path
     class="ColorScheme-ButtonBackground"
     d="m 6.0002645,4 c -2.0002645,0 -2,2 -2,2 l 0,12 L 18,18 18.000264,6 c 4.4e-5,-2 -2,-2 -2,-2 z m 0,2 9.9999995,0 0,10 -9.9999995,0 z m 1,1 0,2 2,0 0,-2 z m 3.0000995,0 0,2 2,0 0,-2 z m 3,0 0,2 2,0 0,-2 z m -6.0000995,3 0,2 2,0 0,-2 z m 3.0000995,0 0,2 2,0 0,-2 z m 3,0 0,2 2,0 0,-2 z m -6.0000995,3 0,2 2,0 0,-2 z m 3.0000995,0 0,2 2,0 0,-2 z m 3,0 0,2 2,0 0,-2 z"
     style="fill:#4d4d4d"
     id="path5" />
</svg>
