<?xml version="1.0" encoding="UTF-8" standalone="no"?>
<svg
   xmlns:dc="http://purl.org/dc/elements/1.1/"
   xmlns:cc="http://creativecommons.org/ns#"
   xmlns:rdf="http://www.w3.org/1999/02/22-rdf-syntax-ns#"
   xmlns:svg="http://www.w3.org/2000/svg"
   xmlns="http://www.w3.org/2000/svg"
   xmlns:sodipodi="http://sodipodi.sourceforge.net/DTD/sodipodi-0.dtd"
   xmlns:inkscape="http://www.inkscape.org/namespaces/inkscape"
   height="22"
   width="22"
   version="1.1"
   id="svg9"
   sodipodi:docname="yum-indicator-updates.svg"
   inkscape:version="0.92.2 2405546, 2018-03-11">
  <metadata
     id="metadata13">
    <rdf:RDF>
      <cc:Work
         rdf:about="">
        <dc:format>image/svg+xml</dc:format>
        <dc:type
           rdf:resource="http://purl.org/dc/dcmitype/StillImage" />
      </cc:Work>
    </rdf:RDF>
  </metadata>
  <sodipodi:namedview
     pagecolor="#ffffff"
     bordercolor="#666666"
     borderopacity="1"
     objecttolerance="10"
     gridtolerance="10"
     guidetolerance="10"
     inkscape:pageopacity="0"
     inkscape:pageshadow="2"
     inkscape:window-width="901"
     inkscape:window-height="480"
     id="namedview11"
     showgrid="false"
     inkscape:zoom="10.727273"
     inkscape:cx="1.5847458"
     inkscape:cy="11"
     inkscape:window-x="0"
     inkscape:window-y="0"
     inkscape:window-maximized="0"
     inkscape:current-layer="svg9" />
  <defs
     id="defs3">
    <style
       type="text/css"
       id="current-color-scheme">
   .ColorScheme-Text { color:#5c616c; } .ColorScheme-Highlight { color:#5294e2; } .ColorScheme-ButtonBackground { color:#d3dae3; }
  </style>
  </defs>
  <g
     id="g7"
     style="fill:#4d4d4d">
    <path
       d="M 11,3 C 8.8519,4.9698 5.2346,6.7049 4,7 4,12.333 6.625,18.111 11,19 15.375,18.111 18,12.333 18,7 16.765,6.7049 13.148,4.9698 11,3 Z m 0.145,3.998 0,0.002 0.001,0 c 1.309,0.048 2.501,0.7374 3.204,1.8184 L 15.738,8.3555 14.168,11.502 11.021,9.9277 12.299,9.502 C 11.961,9.208 11.536,9.015 11.07,8.998 10.328,8.971 9.6357,9.3531 9.2637,9.9961 l -1.7325,-1 C 8.2713,7.7141 9.6655,6.943 11.145,6.998 Z m -3.313,3.5 3.147,1.574 -1.2778,0.426 c 0.3378,0.294 0.7628,0.485 1.2288,0.502 0.742,0.027 1.434,-0.355 1.806,-0.998 l 1.733,1 C 13.729,14.284 12.334,15.055 10.855,15 9.5465,14.952 8.3553,14.263 7.6523,13.182 L 6.2637,13.645 7.832,10.498 Z"
       class="ColorScheme-ButtonBackground"
       style="fill:#4d4d4d;fill-rule:evenodd"
       id="path5" />
  </g>
</svg>
