<?xml version="1.0" encoding="UTF-8" standalone="no"?>
<svg
   xmlns:dc="http://purl.org/dc/elements/1.1/"
   xmlns:cc="http://creativecommons.org/ns#"
   xmlns:rdf="http://www.w3.org/1999/02/22-rdf-syntax-ns#"
   xmlns:svg="http://www.w3.org/2000/svg"
   xmlns="http://www.w3.org/2000/svg"
   xmlns:sodipodi="http://sodipodi.sourceforge.net/DTD/sodipodi-0.dtd"
   xmlns:inkscape="http://www.inkscape.org/namespaces/inkscape"
   height="22"
   width="22"
   version="1"
   id="svg2"
   sodipodi:docname="mumble-indicator.svg"
   inkscape:version="0.92.2 2405546, 2018-03-11">
  <metadata
     id="metadata8">
    <rdf:RDF>
      <cc:Work
         rdf:about="">
        <dc:format>image/svg+xml</dc:format>
        <dc:type
           rdf:resource="http://purl.org/dc/dcmitype/StillImage" />
      </cc:Work>
    </rdf:RDF>
  </metadata>
  <sodipodi:namedview
     pagecolor="#ffffff"
     bordercolor="#666666"
     borderopacity="1"
     objecttolerance="10"
     gridtolerance="10"
     guidetolerance="10"
     inkscape:pageopacity="0"
     inkscape:pageshadow="2"
     inkscape:window-width="761"
     inkscape:window-height="480"
     id="namedview6"
     showgrid="false"
     inkscape:zoom="10.727273"
     inkscape:cx="11"
     inkscape:cy="11"
     inkscape:window-x="0"
     inkscape:window-y="0"
     inkscape:window-maximized="0"
     inkscape:current-layer="svg2" />
  <defs
     id="defs8">
    <style
       type="text/css"
       id="current-color-scheme">
   .ColorScheme-Text { color:#5c616c; } .ColorScheme-Highlight { color:#5294e2; } .ColorScheme-ButtonBackground { color:#d3dae3; }
  </style>
  </defs>
  <path
     opacity="1000000"
     style="fill:#4d4d4d"
     d="m11 4c-3.866 0-7 3.134-7 7v1.3613c-0.6428 0.729-0.9983 1.667-1 2.639 0 2.2091 1.7909 4 4 4h1v-8h-1c-0.3376 0.002-0.6736 0.047-1 0.133v-0.133c0-2.77 2.23-5 5-5s5 2.23 5 5v0.13086c-0.326-0.086-0.662-0.13-1-0.131h-1v6.0107c-0.39159-0.02345-0.80678 0.07409-1-0.02148v-0.99h-2c-0.554 0-1 0.53442-1 1.1992v0.60156c0 0.665 0.446 1.199 1 1.199h3 0.75391 0.246c2.2091 0 4-1.7909 4-4-0.0017-0.97183-0.35719-1.9098-1-2.6387v-1.361c0-3.866-3.134-7-7-7z"
     id="path4"
     class="ColorScheme-ButtonBackground" />
</svg>
