<?xml version="1.0" encoding="UTF-8" standalone="no"?>
<svg
   xmlns:dc="http://purl.org/dc/elements/1.1/"
   xmlns:cc="http://creativecommons.org/ns#"
   xmlns:rdf="http://www.w3.org/1999/02/22-rdf-syntax-ns#"
   xmlns:svg="http://www.w3.org/2000/svg"
   xmlns="http://www.w3.org/2000/svg"
   xmlns:sodipodi="http://sodipodi.sourceforge.net/DTD/sodipodi-0.dtd"
   xmlns:inkscape="http://www.inkscape.org/namespaces/inkscape"
   width="22"
   height="22"
   version="1.1"
   id="svg2"
   sodipodi:docname="museeq-panel.svg"
   inkscape:version="0.92.2 2405546, 2018-03-11">
  <metadata
     id="metadata9">
    <rdf:RDF>
      <cc:Work
         rdf:about="">
        <dc:format>image/svg+xml</dc:format>
        <dc:type
           rdf:resource="http://purl.org/dc/dcmitype/StillImage" />
      </cc:Work>
    </rdf:RDF>
  </metadata>
  <sodipodi:namedview
     pagecolor="#ffffff"
     bordercolor="#666666"
     borderopacity="1"
     objecttolerance="10"
     gridtolerance="10"
     guidetolerance="10"
     inkscape:pageopacity="0"
     inkscape:pageshadow="2"
     inkscape:window-width="761"
     inkscape:window-height="480"
     id="namedview7"
     showgrid="false"
     inkscape:zoom="10.727273"
     inkscape:cx="11"
     inkscape:cy="11"
     inkscape:window-x="0"
     inkscape:window-y="0"
     inkscape:window-maximized="0"
     inkscape:current-layer="svg2" />
  <defs
     id="defs10">
    <style
       type="text/css"
       id="current-color-scheme">
   .ColorScheme-Text { color:#5c616c; } .ColorScheme-Highlight { color:#5294e2; } .ColorScheme-ButtonBackground { color:#d3dae3; }
  </style>
  </defs>
  <g
     transform="matrix(.99990 0 0 .99994 -.44836 -.99969)"
     id="g4"
     style="fill:#4d4d4d">
    <path
       style="fill:#4d4d4d"
       d="m16.447 16.472c-0.458 0.119-1.474 0.371-2.225 0.475-0.984 0.137-2.122 0.213-2.973 0.198-0.608-0.011-1.41-0.139-1.8-0.291-0.373-0.153-0.713-0.356-1-0.61v4.757h-2v-16h2v6.181c0 0.729 0.043 1.348 0.128 1.857 0.102 0.509 0.254 0.924 0.458 1.246 0.22 0.322 0.5 0.56 0.839 0.712 0.356 0.136 1.149 0.25 1.658 0.25 0.22 0 1.191-0.055 1.411-0.072 0.237-0.017 0.453-0.034 0.657-0.051 0.203-0.017 0.343-0.045 0.496-0.062 0.153-0.034 0.293-0.048 0.344-0.065v-9.997h2.01z"
       id="path6"
       class="ColorScheme-ButtonBackground" />
  </g>
</svg>
