<?xml version="1.0" encoding="UTF-8" standalone="no"?>
<svg
   xmlns:dc="http://purl.org/dc/elements/1.1/"
   xmlns:cc="http://creativecommons.org/ns#"
   xmlns:rdf="http://www.w3.org/1999/02/22-rdf-syntax-ns#"
   xmlns:svg="http://www.w3.org/2000/svg"
   xmlns="http://www.w3.org/2000/svg"
   xmlns:sodipodi="http://sodipodi.sourceforge.net/DTD/sodipodi-0.dtd"
   xmlns:inkscape="http://www.inkscape.org/namespaces/inkscape"
   height="22"
   width="22"
   version="1.1"
   id="svg2"
   sodipodi:docname="network-cellular-3g.svg"
   inkscape:version="0.92.2 2405546, 2018-03-11">
  <metadata
     id="metadata9">
    <rdf:RDF>
      <cc:Work
         rdf:about="">
        <dc:format>image/svg+xml</dc:format>
        <dc:type
           rdf:resource="http://purl.org/dc/dcmitype/StillImage" />
      </cc:Work>
    </rdf:RDF>
  </metadata>
  <sodipodi:namedview
     pagecolor="#ffffff"
     bordercolor="#666666"
     borderopacity="1"
     objecttolerance="10"
     gridtolerance="10"
     guidetolerance="10"
     inkscape:pageopacity="0"
     inkscape:pageshadow="2"
     inkscape:window-width="761"
     inkscape:window-height="480"
     id="namedview7"
     showgrid="false"
     inkscape:zoom="10.727273"
     inkscape:cx="11"
     inkscape:cy="11"
     inkscape:window-x="0"
     inkscape:window-y="0"
     inkscape:window-maximized="0"
     inkscape:current-layer="svg2" />
  <defs
     id="defs10">
    <style
       type="text/css"
       id="current-color-scheme">
   .ColorScheme-Text { color:#5c616c; } .ColorScheme-Highlight { color:#5294e2; } .ColorScheme-ButtonBackground { color:#d3dae3; }
  </style>
  </defs>
  <g
     transform="translate(-273 -527.36)"
     id="g4"
     style="fill:#4d4d4d">
    <path
       style="fill:#4d4d4d"
       d="m276 533.42-0.0005 9.9375c-0.0001 2 2 2 2 2h12c2 0 2-2 2-2v-10s0.00001-2-2-2h-12s-1.9994 0.00043-1.9995 2.0625zm1.9997-0.0625h4c0.66639 0.0162 1.1672 0.83815 0.8755 1.4375l-1.375 2.7812c0.35458 0.11552 0.74913 0.19557 0.96875 0.4375 0.33238 0.36614 0.53125 0.8102 0.53125 1.3438v2c0 1.1124-0.90732 2-2 2h-3l-0.0005-2h3v-2h-0.9995c-0.66639-0.0162-1.1667-0.83815-0.875-1.4375l1.25-2.5625h-2.375zm10 0c2 0 2 2 2 2v1h-2v-1h-2v6h2v-2h-1l0.0008-1.9688 1.9992-0.0312 1.0008 0.0312v3.9375c0 0.00005-0.0008 2.0313-2.0008 2.0313l-1.9992-0.00005s-2.0008 0.00005-2.0008-2v-6c0-2 2-2 2-2z"
       id="path6"
       class="ColorScheme-ButtonBackground" />
  </g>
</svg>
