<?xml version="1.0" encoding="UTF-8" standalone="no"?>
<svg
   xmlns:dc="http://purl.org/dc/elements/1.1/"
   xmlns:cc="http://creativecommons.org/ns#"
   xmlns:rdf="http://www.w3.org/1999/02/22-rdf-syntax-ns#"
   xmlns:svg="http://www.w3.org/2000/svg"
   xmlns="http://www.w3.org/2000/svg"
   xmlns:sodipodi="http://sodipodi.sourceforge.net/DTD/sodipodi-0.dtd"
   xmlns:inkscape="http://www.inkscape.org/namespaces/inkscape"
   height="22"
   width="22"
   version="1.1"
   id="svg2"
   sodipodi:docname="network-wireless-no-route.svg"
   inkscape:version="0.92.2 2405546, 2018-03-11">
  <metadata
     id="metadata8">
    <rdf:RDF>
      <cc:Work
         rdf:about="">
        <dc:format>image/svg+xml</dc:format>
        <dc:type
           rdf:resource="http://purl.org/dc/dcmitype/StillImage" />
      </cc:Work>
    </rdf:RDF>
  </metadata>
  <sodipodi:namedview
     pagecolor="#ffffff"
     bordercolor="#666666"
     borderopacity="1"
     objecttolerance="10"
     gridtolerance="10"
     guidetolerance="10"
     inkscape:pageopacity="0"
     inkscape:pageshadow="2"
     inkscape:window-width="901"
     inkscape:window-height="480"
     id="namedview6"
     showgrid="false"
     inkscape:zoom="10.727273"
     inkscape:cx="11"
     inkscape:cy="11"
     inkscape:window-x="0"
     inkscape:window-y="0"
     inkscape:window-maximized="0"
     inkscape:current-layer="svg2" />
  <defs
     id="defs10">
    <style
       type="text/css"
       id="current-color-scheme">
   .ColorScheme-Text { color:#5c616c; } .ColorScheme-Highlight { color:#5294e2; } .ColorScheme-ButtonBackground { color:#d3dae3; }
  </style>
  </defs>
  <path
     style="fill:#4d4d4d;fill-opacity:1"
     class="ColorScheme-ButtonBackground"
     d="M 11.03125,5 C 7.9970773,5 5.2651301,6.2555131 3,8 L 11.03125,17 19,8 C 16.743569,6.2748174 14.044077,5.0019531 11.033203,5.0019531 Z m -0.0293,2.0878906 c 1.104517,0 2,0.9333428 2,2.0859375 0,1.1525949 -0.895513,2.0878909 -2,2.0878909 l 0,1.042969 -1,0 0,-2.087891 1,0 c 0.552249,0 1,-0.466677 1,-1.0429689 0,-0.5762921 -0.447751,-1.0429687 -1,-1.0429687 -0.552239,0 -1,0.4666766 -1,1.0429687 l -0.9999999,0 c 0,-1.152626 0.8955128,-2.0859375 1.9999999,-2.0859375 z m -0.5,6.0000004 c 0.414182,-1e-6 0.75,0.349027 0.75,0.78125 0,0.432223 -0.335817,0.783203 -0.75,0.783203 -0.414182,-10e-7 -0.7500001,-0.350981 -0.7499999,-0.783203 4e-7,-0.432223 0.3358179,-0.78125 0.7499999,-0.78125 z"
     id="path4149" />
</svg>
