<?xml version="1.0" encoding="UTF-8" standalone="no"?>
<svg
   xmlns:dc="http://purl.org/dc/elements/1.1/"
   xmlns:cc="http://creativecommons.org/ns#"
   xmlns:rdf="http://www.w3.org/1999/02/22-rdf-syntax-ns#"
   xmlns:svg="http://www.w3.org/2000/svg"
   xmlns="http://www.w3.org/2000/svg"
   xmlns:sodipodi="http://sodipodi.sourceforge.net/DTD/sodipodi-0.dtd"
   xmlns:inkscape="http://www.inkscape.org/namespaces/inkscape"
   height="22"
   width="22"
   version="1.1"
   id="svg2"
   sodipodi:docname="network-wireless-secure-signal-low.svg"
   inkscape:version="0.92.2 2405546, 2018-03-11">
  <metadata
     id="metadata10">
    <rdf:RDF>
      <cc:Work
         rdf:about="">
        <dc:format>image/svg+xml</dc:format>
        <dc:type
           rdf:resource="http://purl.org/dc/dcmitype/StillImage" />
      </cc:Work>
    </rdf:RDF>
  </metadata>
  <sodipodi:namedview
     pagecolor="#ffffff"
     bordercolor="#666666"
     borderopacity="1"
     objecttolerance="10"
     gridtolerance="10"
     guidetolerance="10"
     inkscape:pageopacity="0"
     inkscape:pageshadow="2"
     inkscape:window-width="901"
     inkscape:window-height="480"
     id="namedview8"
     showgrid="false"
     inkscape:zoom="10.727273"
     inkscape:cx="11"
     inkscape:cy="11"
     inkscape:window-x="0"
     inkscape:window-y="0"
     inkscape:window-maximized="0"
     inkscape:current-layer="svg2" />
  <defs
     id="defs14">
    <style
       type="text/css"
       id="current-color-scheme">
   .ColorScheme-Text { color:#5c616c; } .ColorScheme-Highlight { color:#5294e2; } .ColorScheme-ButtonBackground { color:#d3dae3; }
  </style>
  </defs>
  <path
     style="opacity:0.3;fill:#4d4d4d"
     class="ColorScheme-ButtonBackground"
     d="M 11.03125 5 C 7.99685 5 5.2653 6.2711381 3 8.015625 L 11.03125 17 L 12 15.90625 L 12 14 L 13.013672 14 C 13.033322 12.365093 14.356187 11 16 11 C 16.107791 11 16.209703 11.021774 16.314453 11.033203 L 19 8 C 16.7434 6.2748174 14.04235 5 11.03125 5 z"
     id="path6" />
  <path
     style="fill:#4d4d4d"
     class="ColorScheme-ButtonBackground"
     d="M 11 12 C 9 12 7.4492187 13 7.4492188 13 L 11 17 C 11.255435 16.69861 11.653156 16.257417 12 15.863281 L 12 14 L 13.013672 14 C 13.020351 13.444253 13.185809 12.924982 13.455078 12.474609 C 12.822939 12.233315 11.966271 11.999966 11 12 z"
     id="path8" />
  <path
     class="ColorScheme-ButtonBackground"
     id="path10"
     d="m 16,12.00005 c -1.108,0 -2,0.91085 -2,2.0312 L 14,15 l -1,0 0,4 6,0 0,-4 -1,0 0,-0.96875 c 0,-1.1199 -0.892,-2.0312 -2,-2.0312 z m 0,1 c 0.554,0 1,0.4424 1,1 l 0,1 -2,0 0,-1 c 0,-0.5576 0.446,-1 1,-1 z"
     style="fill:#4d4d4d" />
</svg>
