<?xml version="1.0" encoding="UTF-8" standalone="no"?>
<svg
   xmlns:dc="http://purl.org/dc/elements/1.1/"
   xmlns:cc="http://creativecommons.org/ns#"
   xmlns:rdf="http://www.w3.org/1999/02/22-rdf-syntax-ns#"
   xmlns:svg="http://www.w3.org/2000/svg"
   xmlns="http://www.w3.org/2000/svg"
   xmlns:sodipodi="http://sodipodi.sourceforge.net/DTD/sodipodi-0.dtd"
   xmlns:inkscape="http://www.inkscape.org/namespaces/inkscape"
   height="22"
   width="22"
   version="1.1"
   id="svg2"
   sodipodi:docname="network-wireless-secure-signal-ok.svg"
   inkscape:version="0.92.2 2405546, 2018-03-11">
  <metadata
     id="metadata10">
    <rdf:RDF>
      <cc:Work
         rdf:about="">
        <dc:format>image/svg+xml</dc:format>
        <dc:type
           rdf:resource="http://purl.org/dc/dcmitype/StillImage" />
      </cc:Work>
    </rdf:RDF>
  </metadata>
  <sodipodi:namedview
     pagecolor="#ffffff"
     bordercolor="#666666"
     borderopacity="1"
     objecttolerance="10"
     gridtolerance="10"
     guidetolerance="10"
     inkscape:pageopacity="0"
     inkscape:pageshadow="2"
     inkscape:window-width="901"
     inkscape:window-height="480"
     id="namedview8"
     showgrid="false"
     inkscape:zoom="10.727273"
     inkscape:cx="76.160314"
     inkscape:cy="11"
     inkscape:window-x="0"
     inkscape:window-y="0"
     inkscape:window-maximized="0"
     inkscape:current-layer="svg2" />
  <defs
     id="defs14">
    <style
       type="text/css"
       id="current-color-scheme">
   .ColorScheme-Text { color:#5c616c; } .ColorScheme-Highlight { color:#5294e2; } .ColorScheme-ButtonBackground { color:#d3dae3; }
  </style>
  </defs>
  <path
     style="opacity:0.3;fill:#4d4d4d"
     class="ColorScheme-ButtonBackground"
     d="M 11.029297 5 L 11.03125 5.0019531 C 7.9968499 5.0019531 5.2653 6.27132 3 8.015625 L 11.03125 17 L 12 15.904297 L 12 14 L 13.013672 14 C 13.03332 12.365273 14.356097 11 16 11 C 16.105061 11 16.204459 11.020383 16.306641 11.03125 L 19 7.984375 C 16.742 6.2628155 14.040297 5 11.029297 5 z"
     id="path6" />
  <path
     style="fill:#4d4d4d"
     class="ColorScheme-ButtonBackground"
     d="M 11 10 C 8 10 6.0996094 11.5 6.0996094 11.5 L 11 17 L 12 15.876953 L 12 14 L 13.013672 14 C 13.030229 12.622427 13.976169 11.446536 15.255859 11.107422 C 14.477605 10.663115 13.020272 10 11 10 z"
     id="path8" />
  <path
     class="ColorScheme-ButtonBackground"
     id="path10"
     d="m 16,12 c -1.108,0 -2,0.911 -2,2.031 l 0,0.969 -1,0 0,4 6,0 0,-4 -1,0 0,-0.969 C 18,12.911 17.108,12 16,12 Z m 0,1 c 0.554,0 1,0.442 1,1 l 0,1 -2,0 0,-1 c 0,-0.558 0.446,-1 1,-1 z"
     style="fill:#4d4d4d" />
</svg>
