<?xml version="1.0" encoding="UTF-8" standalone="no"?>
<svg
   xmlns:dc="http://purl.org/dc/elements/1.1/"
   xmlns:cc="http://creativecommons.org/ns#"
   xmlns:rdf="http://www.w3.org/1999/02/22-rdf-syntax-ns#"
   xmlns:svg="http://www.w3.org/2000/svg"
   xmlns="http://www.w3.org/2000/svg"
   xmlns:sodipodi="http://sodipodi.sourceforge.net/DTD/sodipodi-0.dtd"
   xmlns:inkscape="http://www.inkscape.org/namespaces/inkscape"
   width="22"
   version="1.1"
   height="22"
   id="svg2"
   sodipodi:docname="notes.svg"
   inkscape:version="0.92.2 2405546, 2018-03-11">
  <metadata
     id="metadata9">
    <rdf:RDF>
      <cc:Work
         rdf:about="">
        <dc:format>image/svg+xml</dc:format>
        <dc:type
           rdf:resource="http://purl.org/dc/dcmitype/StillImage" />
      </cc:Work>
    </rdf:RDF>
  </metadata>
  <sodipodi:namedview
     pagecolor="#ffffff"
     bordercolor="#666666"
     borderopacity="1"
     objecttolerance="10"
     gridtolerance="10"
     guidetolerance="10"
     inkscape:pageopacity="0"
     inkscape:pageshadow="2"
     inkscape:window-width="761"
     inkscape:window-height="480"
     id="namedview7"
     showgrid="false"
     inkscape:zoom="10.727273"
     inkscape:cx="11"
     inkscape:cy="11"
     inkscape:window-x="0"
     inkscape:window-y="0"
     inkscape:window-maximized="0"
     inkscape:current-layer="svg2" />
  <defs
     id="defs10">
    <style
       type="text/css"
       id="current-color-scheme">
   .ColorScheme-Text { color:#5c616c; } .ColorScheme-Highlight { color:#5294e2; } .ColorScheme-ButtonBackground { color:#d3dae3; }
  </style>
  </defs>
  <g
     transform="translate(-473 -909.27)"
     id="g4"
     style="fill:#4d4d4d">
    <path
       style="fill:#4d4d4d"
       d="m492.22 912.4c-0.0741 0.0356-0.13911 0.0898-0.1875 0.15625l-0.5 0.5-0.15625-0.15625-6 6 0.15625 0.15625-0.5 0.5-0.0312 0.71875 0.71875-0.0312 0.5-0.5 0.15625 0.15625 6-6-0.15625-0.15625 0.5-0.5c0.29288-0.29845-0.0248-0.91114-0.4375-0.84375-0.0208-0.001-0.0417-0.001-0.0625 0zm-14.22 1.87c-0.554 0-1 0.446-1 1v9c0 0.554 0.446 1 1 1h12c0.554 0 1-0.446 1-1v-7.5625l-3.9062 3.9062-0.71875 0.6875-0.15625-0.15625-0.0625 0.0625-0.40625 0.0312-0.71875 0.0312-1.0625 0.0312 0.0312-1.0625 0.0312-0.71875 0.0312-0.40625 0.0625-0.0625-0.15625-0.15625 0.6875-0.71875 3.9062-3.9062h-10.562zm-1 11v1c0 0.554 0.446 1 1 1h12c0.554 0 1-0.446 1-1v-1c0 0.554-0.446 1-1 1h-12c-0.554 0-1-0.446-1-1z"
       id="path6"
       class="ColorScheme-ButtonBackground" />
  </g>
</svg>
