<?xml version="1.0" encoding="UTF-8" standalone="no"?>
<svg
   xmlns:dc="http://purl.org/dc/elements/1.1/"
   xmlns:cc="http://creativecommons.org/ns#"
   xmlns:rdf="http://www.w3.org/1999/02/22-rdf-syntax-ns#"
   xmlns:svg="http://www.w3.org/2000/svg"
   xmlns="http://www.w3.org/2000/svg"
   xmlns:sodipodi="http://sodipodi.sourceforge.net/DTD/sodipodi-0.dtd"
   xmlns:inkscape="http://www.inkscape.org/namespaces/inkscape"
   width="22"
   version="1.1"
   height="22"
   id="svg2"
   sodipodi:docname="process-syncing-idle.svg"
   inkscape:version="0.92.2 2405546, 2018-03-11">
  <metadata
     id="metadata8">
    <rdf:RDF>
      <cc:Work
         rdf:about="">
        <dc:format>image/svg+xml</dc:format>
        <dc:type
           rdf:resource="http://purl.org/dc/dcmitype/StillImage" />
      </cc:Work>
    </rdf:RDF>
  </metadata>
  <sodipodi:namedview
     pagecolor="#ffffff"
     bordercolor="#666666"
     borderopacity="1"
     objecttolerance="10"
     gridtolerance="10"
     guidetolerance="10"
     inkscape:pageopacity="0"
     inkscape:pageshadow="2"
     inkscape:window-width="761"
     inkscape:window-height="480"
     id="namedview6"
     showgrid="false"
     inkscape:zoom="10.727273"
     inkscape:cx="11"
     inkscape:cy="11"
     inkscape:window-x="0"
     inkscape:window-y="0"
     inkscape:window-maximized="0"
     inkscape:current-layer="svg2" />
  <defs
     id="defs8">
    <style
       type="text/css"
       id="current-color-scheme">
   .ColorScheme-Text { color:#5c616c; } .ColorScheme-Highlight { color:#5294e2; } .ColorScheme-ButtonBackground { color:#d3dae3; }
  </style>
  </defs>
  <path
     style="fill:#4d4d4d"
     d="m4 4c-0.554 0-1 0.446-1 1v2.2832c0.2965-0.1755 0.636-0.2832 1-0.2832h1 1 1.5859l1.7071-1.707a1.0001 1.0001 0 0 1 0.707 -0.293h1c0-0.554-0.446-1-1-1h-6zm6 2-2 2h-2-1-1c-0.554 0-1 0.446-1 1v1 1 2 1 3c0 1.108 0.892 2 2 2h12c1.108 0 2-0.892 2-2v-3-1-6c0-0.554-0.446-1-1-1h-8zm0.98 2.3203a0.44445 0.44445 0 0 1 0.045 0 0.44445 0.44445 0 0 1 0.401 0.3047l0.797 2.391 2.519 0.025a0.44445 0.44445 0 0 1 0.26 0.801l-2.025 1.498 0.753 2.404a0.44445 0.44445 0 0 1 -0.683 0.494l-2.049-1.465-2.0527 1.461a0.44445 0.44445 0 0 1 -0.6816 -0.498l0.7593-2.402-2.023-1.5a0.44445 0.44445 0 0 1 0.2617 -0.803l2.5193-0.019 0.801-2.387a0.44445 0.44445 0 0 1 0.398 -0.3047z"
     id="path4"
     class="ColorScheme-ButtonBackground" />
</svg>
