<?xml version="1.0" encoding="UTF-8" standalone="no"?>
<svg
   xmlns:dc="http://purl.org/dc/elements/1.1/"
   xmlns:cc="http://creativecommons.org/ns#"
   xmlns:rdf="http://www.w3.org/1999/02/22-rdf-syntax-ns#"
   xmlns:svg="http://www.w3.org/2000/svg"
   xmlns="http://www.w3.org/2000/svg"
   xmlns:sodipodi="http://sodipodi.sourceforge.net/DTD/sodipodi-0.dtd"
   xmlns:inkscape="http://www.inkscape.org/namespaces/inkscape"
   height="22"
   width="22"
   version="1.1"
   id="svg2"
   sodipodi:docname="radiotray_connecting.svg"
   inkscape:version="0.92.2 2405546, 2018-03-11">
  <metadata
     id="metadata9">
    <rdf:RDF>
      <cc:Work
         rdf:about="">
        <dc:format>image/svg+xml</dc:format>
        <dc:type
           rdf:resource="http://purl.org/dc/dcmitype/StillImage" />
      </cc:Work>
    </rdf:RDF>
  </metadata>
  <sodipodi:namedview
     pagecolor="#ffffff"
     bordercolor="#666666"
     borderopacity="1"
     objecttolerance="10"
     gridtolerance="10"
     guidetolerance="10"
     inkscape:pageopacity="0"
     inkscape:pageshadow="2"
     inkscape:window-width="901"
     inkscape:window-height="480"
     id="namedview7"
     showgrid="false"
     inkscape:zoom="10.727273"
     inkscape:cx="11"
     inkscape:cy="11"
     inkscape:window-x="0"
     inkscape:window-y="0"
     inkscape:window-maximized="0"
     inkscape:current-layer="svg2" />
  <defs
     id="defs10">
    <style
       type="text/css"
       id="current-color-scheme">
   .ColorScheme-Text { color:#5c616c; } .ColorScheme-Highlight { color:#5294e2; } .ColorScheme-ButtonBackground { color:#d3dae3; }
  </style>
  </defs>
  <g
     transform="translate(-421.71 -525.79)"
     id="g4"
     style="fill:#666666">
    <path
       opacity="1000000"
       style="fill:#666666"
       d="m3.1426 4c-0.6332 0-1.1426 0.5344-1.1426 1.1992v11.602c0 0.665 0.5094 1.199 1.1426 1.199h15.714c0.634 0 1.143-0.534 1.143-1.199v-11.602c0-0.6646-0.509-1.199-1.143-1.199h-15.714zm4.8574 3c2.209 0 4 1.7909 4 4 0 2.209-1.791 4-4 4-2.2091 0-4-1.791-4-4 0-2.2091 1.7909-4 4-4zm5 0h5v1h-5v-1zm-5 1c-1.6569 0-3 1.3432-3 3 0 1.657 1.3431 3 3 3 1.6568 0 3-1.343 3-3 0-1.6568-1.3432-3-3-3zm5 2h5v1h-5v-1zm0 3h5v1h-5v-1z"
       transform="translate(421.71 525.79)"
       id="path6"
       class="ColorScheme-ButtonBackground" />
  </g>
</svg>
