<?xml version="1.0" encoding="UTF-8" standalone="no"?>
<svg
   xmlns:dc="http://purl.org/dc/elements/1.1/"
   xmlns:cc="http://creativecommons.org/ns#"
   xmlns:rdf="http://www.w3.org/1999/02/22-rdf-syntax-ns#"
   xmlns:svg="http://www.w3.org/2000/svg"
   xmlns="http://www.w3.org/2000/svg"
   xmlns:sodipodi="http://sodipodi.sourceforge.net/DTD/sodipodi-0.dtd"
   xmlns:inkscape="http://www.inkscape.org/namespaces/inkscape"
   height="22"
   width="22"
   version="1.1"
   id="svg2"
   sodipodi:docname="radiotray_on.svg"
   inkscape:version="0.92.2 2405546, 2018-03-11">
  <metadata
     id="metadata10">
    <rdf:RDF>
      <cc:Work
         rdf:about="">
        <dc:format>image/svg+xml</dc:format>
        <dc:type
           rdf:resource="http://purl.org/dc/dcmitype/StillImage" />
      </cc:Work>
    </rdf:RDF>
  </metadata>
  <sodipodi:namedview
     pagecolor="#ffffff"
     bordercolor="#666666"
     borderopacity="1"
     objecttolerance="10"
     gridtolerance="10"
     guidetolerance="10"
     inkscape:pageopacity="0"
     inkscape:pageshadow="2"
     inkscape:window-width="901"
     inkscape:window-height="480"
     id="namedview8"
     showgrid="false"
     inkscape:zoom="10.727273"
     inkscape:cx="11"
     inkscape:cy="11"
     inkscape:window-x="0"
     inkscape:window-y="0"
     inkscape:window-maximized="0"
     inkscape:current-layer="g4" />
  <defs
     id="defs12">
    <style
       type="text/css"
       id="current-color-scheme">
   .ColorScheme-Text { color:#5c616c; } .ColorScheme-Highlight { color:#5294e2; } .ColorScheme-ButtonBackground { color:#d3dae3; }
  </style>
  </defs>
  <g
     transform="translate(-421.71 -525.79)"
     id="g4">
    <path
       opacity="1000000"
       style="fill:#4d4d4d"
       d="m424.86 529.79c-0.63315 0-1.1426 0.53442-1.1426 1.1992v11.602c0 0.6648 0.50943 1.1992 1.1426 1.1992h15.715c0.63315 0 1.1426-0.53442 1.1426-1.1992v-11.602c0-0.6648-0.50943-1.1992-1.1426-1.1992h-15.715zm4.8574 3c2.2091 0 4 1.7909 4 4s-1.7909 4-4 4-4-1.7909-4-4 1.7909-4 4-4zm5 0h5v1h-5v-1zm0 3h5v1h-5v-1zm0 3h5v1h-5v-1z"
       id="path6"
       class="ColorScheme-ButtonBackground" />
    <path
       style="fill:currentColor"
       d="m429.71 533.79c-1.6569 0-3 1.3432-3 3s1.3431 3 3 3c1.6568 0 3-1.3432 3-3s-1.3432-3-3-3z"
       id="path8"
       class="ColorScheme-Highlight" />
  </g>
</svg>
