<?xml version="1.0" encoding="UTF-8" standalone="no"?>
<svg
   xmlns:dc="http://purl.org/dc/elements/1.1/"
   xmlns:cc="http://creativecommons.org/ns#"
   xmlns:rdf="http://www.w3.org/1999/02/22-rdf-syntax-ns#"
   xmlns:svg="http://www.w3.org/2000/svg"
   xmlns="http://www.w3.org/2000/svg"
   xmlns:sodipodi="http://sodipodi.sourceforge.net/DTD/sodipodi-0.dtd"
   xmlns:inkscape="http://www.inkscape.org/namespaces/inkscape"
   width="22"
   version="1.1"
   height="22"
   id="svg2"
   sodipodi:docname="redshift-status-off.svg"
   inkscape:version="0.92.2 2405546, 2018-03-11">
  <metadata
     id="metadata9">
    <rdf:RDF>
      <cc:Work
         rdf:about="">
        <dc:format>image/svg+xml</dc:format>
        <dc:type
           rdf:resource="http://purl.org/dc/dcmitype/StillImage" />
      </cc:Work>
    </rdf:RDF>
  </metadata>
  <sodipodi:namedview
     pagecolor="#ffffff"
     bordercolor="#666666"
     borderopacity="1"
     objecttolerance="10"
     gridtolerance="10"
     guidetolerance="10"
     inkscape:pageopacity="0"
     inkscape:pageshadow="2"
     inkscape:window-width="792"
     inkscape:window-height="480"
     id="namedview7"
     showgrid="false"
     inkscape:zoom="10.727273"
     inkscape:cx="11"
     inkscape:cy="11"
     inkscape:window-x="0"
     inkscape:window-y="0"
     inkscape:window-maximized="0"
     inkscape:current-layer="svg2" />
  <defs
     id="defs10">
    <style
       type="text/css"
       id="current-color-scheme">
   .ColorScheme-Text { color:#5c616c; } .ColorScheme-Highlight { color:#5294e2; } .ColorScheme-ButtonBackground { color:#d3dae3; }
  </style>
  </defs>
  <g
     transform="translate(-569 -933.27)"
     id="g4"
     style="fill:#4d4d4d">
    <path
       opacity=".35"
       style="fill:#4d4d4d"
       d="m580 936.21c-2.8404 0-5.1429 2.3091-5.1429 5.1557 0 1.6879 0.79443 3.1613 2.0411 4.1014 0.57344 0.43406 1.0479 0.99321 1.0479 1.7646l0.0539 0.97822h4l0.0571-0.97822c0.045-0.77013 0.4722-1.3306 1.0446-1.7646 1.2477-0.94012 2.0411-2.4135 2.0411-4.1014 0-2.8466-2.3024-5.1557-5.1429-5.1557zm0 2.0604c1.7033 0 3.0857 1.3895 3.0857 3.0954 0 0.97457-0.4438 1.8715-1.2214 2.4557-1.1602 0.87789-1.5999 1.8586-1.7614 2.6743h-0.2057c-0.16047-0.81566-0.60069-1.7964-1.7614-2.6743-0.77554-0.58474-1.2214-1.4816-1.2214-2.4557 0-1.7059 1.3829-3.0954 3.0857-3.0954zm-2 10.94v1h4v-1zm1 2v1h2v-1z"
       id="path6"
       class="ColorScheme-ButtonBackground" />
  </g>
</svg>
