<?xml version="1.0" encoding="UTF-8" standalone="no"?>
<svg
   xmlns:dc="http://purl.org/dc/elements/1.1/"
   xmlns:cc="http://creativecommons.org/ns#"
   xmlns:rdf="http://www.w3.org/1999/02/22-rdf-syntax-ns#"
   xmlns:svg="http://www.w3.org/2000/svg"
   xmlns="http://www.w3.org/2000/svg"
   xmlns:sodipodi="http://sodipodi.sourceforge.net/DTD/sodipodi-0.dtd"
   xmlns:inkscape="http://www.inkscape.org/namespaces/inkscape"
   width="22"
   version="1.1"
   height="22"
   id="svg2"
   sodipodi:docname="scudcloud.svg"
   inkscape:version="0.92.2 2405546, 2018-03-11">
  <metadata
     id="metadata8">
    <rdf:RDF>
      <cc:Work
         rdf:about="">
        <dc:format>image/svg+xml</dc:format>
        <dc:type
           rdf:resource="http://purl.org/dc/dcmitype/StillImage" />
      </cc:Work>
    </rdf:RDF>
  </metadata>
  <sodipodi:namedview
     pagecolor="#ffffff"
     bordercolor="#666666"
     borderopacity="1"
     objecttolerance="10"
     gridtolerance="10"
     guidetolerance="10"
     inkscape:pageopacity="0"
     inkscape:pageshadow="2"
     inkscape:window-width="901"
     inkscape:window-height="480"
     id="namedview6"
     showgrid="false"
     inkscape:zoom="10.727273"
     inkscape:cx="11"
     inkscape:cy="11"
     inkscape:window-x="0"
     inkscape:window-y="0"
     inkscape:window-maximized="0"
     inkscape:current-layer="svg2" />
  <defs
     id="defs8">
    <style
       type="text/css"
       id="current-color-scheme">
   .ColorScheme-Text { color:#5c616c; } .ColorScheme-Highlight { color:#5294e2; } .ColorScheme-ButtonBackground { color:#d3dae3; }
  </style>
  </defs>
  <path
     style="fill:#4d4d4d"
     d="m10.5 2.9648c-2.9655 0-5.3691 2.3869-5.4648 5.3301-1.7745 0.6286-3.0504 2.2641-3.0352 4.2091 0.0018 2.102 1.4977 3.798 3.457 4.283-0.0775 0.61-0.1306 1.219-0.3828 1.834a1.0001 1.0001 0 0 0 1.1602 1.352c2.1096-0.51 3.7836-1.588 5.1386-2.973h3.627c2.75 0 5-2.25 5-5 0-2.4896-1.876-4.4804-4.266-4.8516-0.58-2.2214-2.445-3.8422-4.75-4.0566a1.0001 1.0001 0 0 0 -0.484 -0.127zm1.5 9.0352h3c0.554 0 1 0.446 1 1s-0.446 1-1 1h-3c-0.554 0-1-0.446-1-1s0.446-1 1-1z"
     id="path4"
     class="ColorScheme-ButtonBackground" />
</svg>
