<?xml version="1.0" encoding="UTF-8" standalone="no"?>
<svg
   xmlns:dc="http://purl.org/dc/elements/1.1/"
   xmlns:cc="http://creativecommons.org/ns#"
   xmlns:rdf="http://www.w3.org/1999/02/22-rdf-syntax-ns#"
   xmlns:svg="http://www.w3.org/2000/svg"
   xmlns="http://www.w3.org/2000/svg"
   xmlns:sodipodi="http://sodipodi.sourceforge.net/DTD/sodipodi-0.dtd"
   xmlns:inkscape="http://www.inkscape.org/namespaces/inkscape"
   width="22"
   version="1.1"
   height="22"
   id="svg2"
   sodipodi:docname="scudcloud-attention.svg"
   inkscape:version="0.92.2 2405546, 2018-03-11">
  <metadata
     id="metadata9">
    <rdf:RDF>
      <cc:Work
         rdf:about="">
        <dc:format>image/svg+xml</dc:format>
        <dc:type
           rdf:resource="http://purl.org/dc/dcmitype/StillImage" />
      </cc:Work>
    </rdf:RDF>
  </metadata>
  <sodipodi:namedview
     pagecolor="#ffffff"
     bordercolor="#666666"
     borderopacity="1"
     objecttolerance="10"
     gridtolerance="10"
     guidetolerance="10"
     inkscape:pageopacity="0"
     inkscape:pageshadow="2"
     inkscape:window-width="901"
     inkscape:window-height="480"
     id="namedview7"
     showgrid="false"
     inkscape:zoom="10.727273"
     inkscape:cx="11"
     inkscape:cy="11"
     inkscape:window-x="0"
     inkscape:window-y="0"
     inkscape:window-maximized="0"
     inkscape:current-layer="svg2" />
  <defs
     id="defs10">
    <style
       type="text/css"
       id="current-color-scheme">
   .ColorScheme-Text { color:#5c616c; } .ColorScheme-Highlight { color:#5294e2; } .ColorScheme-ButtonBackground { color:#d3dae3; }
  </style>
  </defs>
  <path
     style="fill:#4d4d4d"
     d="m10.5 3c-2.9648 0-5.368 2.3858-5.4648 5.3281-1.7615 0.6233-3.0326 2.2419-3.0352 4.1719 0 2.104 1.4964 3.804 3.457 4.289-0.0776 0.609-0.1309 1.217-0.3828 1.832a1.0001 1.0001 0 0 0 1.1602 1.352c2.1096-0.51 3.7836-1.588 5.1386-2.973h3.627c2.75 0 5-2.25 5-5 0-1.737-0.925-3.2173-2.289-4.0879a3 3 0 0 1 -0.711 0.0879 3 3 0 0 1 -3 -3 3 3 0 0 1 0.061 -0.5996c-0.95-0.8628-2.184-1.3988-3.559-1.4004a1.0001 1.0001 0 0 0 -0.002 0zm1.5 9h3c0.554 0 1 0.446 1 1s-0.446 1-1 1h-3c-0.554 0-1-0.446-1-1s0.446-1 1-1z"
     id="path4"
     class="ColorScheme-ButtonBackground" />
  <path
     style="fill:currentColor"
     d="m19 4.9995a2 2 0 0 1 -4 0 2 2 0 1 1 4 0z"
     id="path6"
     class="ColorScheme-Highlight" />
</svg>
