<?xml version="1.0" encoding="UTF-8" standalone="no"?>
<svg
   xmlns:dc="http://purl.org/dc/elements/1.1/"
   xmlns:cc="http://creativecommons.org/ns#"
   xmlns:rdf="http://www.w3.org/1999/02/22-rdf-syntax-ns#"
   xmlns:svg="http://www.w3.org/2000/svg"
   xmlns="http://www.w3.org/2000/svg"
   xmlns:sodipodi="http://sodipodi.sourceforge.net/DTD/sodipodi-0.dtd"
   xmlns:inkscape="http://www.inkscape.org/namespaces/inkscape"
   height="22"
   width="22"
   version="1"
   id="svg2"
   sodipodi:docname="skype-status-away-notification.svg"
   inkscape:version="0.92.2 2405546, 2018-03-11">
  <metadata
     id="metadata9">
    <rdf:RDF>
      <cc:Work
         rdf:about="">
        <dc:format>image/svg+xml</dc:format>
        <dc:type
           rdf:resource="http://purl.org/dc/dcmitype/StillImage" />
      </cc:Work>
    </rdf:RDF>
  </metadata>
  <sodipodi:namedview
     pagecolor="#ffffff"
     bordercolor="#666666"
     borderopacity="1"
     objecttolerance="10"
     gridtolerance="10"
     guidetolerance="10"
     inkscape:pageopacity="0"
     inkscape:pageshadow="2"
     inkscape:window-width="1299"
     inkscape:window-height="572"
     id="namedview7"
     showgrid="false"
     inkscape:zoom="10.727273"
     inkscape:cx="-5.1271186"
     inkscape:cy="11"
     inkscape:window-x="0"
     inkscape:window-y="0"
     inkscape:window-maximized="0"
     inkscape:current-layer="svg2" />
  <defs
     id="defs10">
    <style
       type="text/css"
       id="current-color-scheme">
   .ColorScheme-Text { color:#5c616c; } .ColorScheme-Highlight { color:#5294e2; } .ColorScheme-ButtonBackground { color:#d3dae3; }
  </style>
  </defs>
  <path
     style="fill:#00ccff"
     d="m7 3a4 4 0 0 0 -0.5371 0.041 3 3 0 0 1 2.5371 2.959 3 3 0 0 1 -3 3 3 3 0 0 1 -2.9609 -2.5215 4 4 0 0 0 -0.0391 0.5215 4 4 0 0 0 1.1152 2.7695 7 7 0 0 0 -0.1152 1.2305 7 7 0 0 0 7 7 7 7 0 0 0 1.238 -0.113 4 4 0 0 0 2.762 1.113 4 4 0 0 0 4 -4 4 4 0 0 0 -1.115 -2.77 7 7 0 0 0 0.115 -1.23 7 7 0 0 0 -7 -7 7 7 0 0 0 -1.2383 0.1133 4 4 0 0 0 -2.7617 -1.1133zm4 5.0898v2.0002h4v2h-4v2l-5-3 5-3.0002z"
     id="path4"
     class="ColorScheme-ButtonBackground" />
  <circle
     cy="6"
     cx="6"
     r="2"
     style="fill:#00d455"
     id="circle6"
     class="ColorScheme-Highlight" />
</svg>
