<?xml version="1.0" encoding="UTF-8" standalone="no"?>
<svg
   xmlns:dc="http://purl.org/dc/elements/1.1/"
   xmlns:cc="http://creativecommons.org/ns#"
   xmlns:rdf="http://www.w3.org/1999/02/22-rdf-syntax-ns#"
   xmlns:svg="http://www.w3.org/2000/svg"
   xmlns="http://www.w3.org/2000/svg"
   xmlns:sodipodi="http://sodipodi.sourceforge.net/DTD/sodipodi-0.dtd"
   xmlns:inkscape="http://www.inkscape.org/namespaces/inkscape"
   height="22"
   width="22"
   version="1"
   id="svg2"
   sodipodi:docname="skype-status-connected-notification.svg"
   inkscape:version="0.92.2 2405546, 2018-03-11">
  <metadata
     id="metadata10">
    <rdf:RDF>
      <cc:Work
         rdf:about="">
        <dc:format>image/svg+xml</dc:format>
        <dc:type
           rdf:resource="http://purl.org/dc/dcmitype/StillImage" />
      </cc:Work>
    </rdf:RDF>
  </metadata>
  <sodipodi:namedview
     pagecolor="#ffffff"
     bordercolor="#666666"
     borderopacity="1"
     objecttolerance="10"
     gridtolerance="10"
     guidetolerance="10"
     inkscape:pageopacity="0"
     inkscape:pageshadow="2"
     inkscape:window-width="901"
     inkscape:window-height="480"
     id="namedview8"
     showgrid="false"
     inkscape:zoom="10.727273"
     inkscape:cx="-5.1271186"
     inkscape:cy="11"
     inkscape:window-x="0"
     inkscape:window-y="0"
     inkscape:window-maximized="0"
     inkscape:current-layer="g4" />
  <defs
     id="defs12">
    <style
       type="text/css"
       id="current-color-scheme">
   .ColorScheme-Text { color:#5c616c; } .ColorScheme-Highlight { color:#5294e2; } .ColorScheme-ButtonBackground { color:#d3dae3; }
  </style>
  </defs>
  <g
     id="g4">
    <path
       style="fill:#00ccff"
       d="m7 3a4 4 0 0 0 -0.5371 0.041 3 3 0 0 1 2.5371 2.959 3 3 0 0 1 -3 3 3 3 0 0 1 -2.9609 -2.5215 4 4 0 0 0 -0.0391 0.5215 4 4 0 0 0 1.1152 2.7695 7 7 0 0 0 -0.1152 1.2305 7 7 0 0 0 7 7 7 7 0 0 0 1.238 -0.113 4 4 0 0 0 2.762 1.113 4 4 0 0 0 4 -4 4 4 0 0 0 -1.115 -2.77 7 7 0 0 0 0.115 -1.23 7 7 0 0 0 -7 -7 7 7 0 0 0 -1.2383 0.1133 4 4 0 0 0 -2.7617 -1.1133zm4.127 4c1.974 0 2.992 1.0424 2.992 1.6543 0 0.614-0.295 0.7051-0.779 0.7051-0.941 0-0.555-1.1328-2.319-1.1328-0.583 0-1.312 0.2654-1.312 0.9472 0 0.5481 0.646 0.7501 1.785 1.0312 1.718 0.46 3.006 0.919 3.006 2.496 0 1.531-1.247 2.299-3.221 2.299-1.9733 0-3.2341-1.181-3.2341-1.793s0.2324-0.766 0.7168-0.766c0.9428 0 0.817 1.289 2.5803 1.289 0.585 0 1.449-0.267 1.449-0.951 0-0.546-0.046-0.735-1.297-1.072-1.336-0.181-3.494-0.616-3.494-2.2832 0-1.5309 1.1554-2.4218 3.129-2.4218l-0.002-0.002z"
       id="path6"
       class="ColorScheme-ButtonBackground" />
    <circle
       cy="6"
       cx="6"
       r="2"
       style="fill:#00d455;fill-opacity:1"
       id="circle8"
       class="ColorScheme-Highlight" />
  </g>
</svg>
