<?xml version="1.0" encoding="UTF-8" standalone="no"?>
<svg
   xmlns:dc="http://purl.org/dc/elements/1.1/"
   xmlns:cc="http://creativecommons.org/ns#"
   xmlns:rdf="http://www.w3.org/1999/02/22-rdf-syntax-ns#"
   xmlns:svg="http://www.w3.org/2000/svg"
   xmlns="http://www.w3.org/2000/svg"
   xmlns:sodipodi="http://sodipodi.sourceforge.net/DTD/sodipodi-0.dtd"
   xmlns:inkscape="http://www.inkscape.org/namespaces/inkscape"
   height="22"
   width="22"
   version="1"
   id="svg2"
   sodipodi:docname="skype-indicator.svg"
   inkscape:version="0.92.2 2405546, 2018-03-11">
  <metadata
     id="metadata9">
    <rdf:RDF>
      <cc:Work
         rdf:about="">
        <dc:format>image/svg+xml</dc:format>
        <dc:type
           rdf:resource="http://purl.org/dc/dcmitype/StillImage" />
      </cc:Work>
    </rdf:RDF>
  </metadata>
  <sodipodi:namedview
     pagecolor="#ffffff"
     bordercolor="#666666"
     borderopacity="1"
     objecttolerance="10"
     gridtolerance="10"
     guidetolerance="10"
     inkscape:pageopacity="0"
     inkscape:pageshadow="2"
     inkscape:window-width="901"
     inkscape:window-height="480"
     id="namedview7"
     showgrid="false"
     inkscape:zoom="10.727273"
     inkscape:cx="11"
     inkscape:cy="11"
     inkscape:window-x="0"
     inkscape:window-y="0"
     inkscape:window-maximized="0"
     inkscape:current-layer="svg2" />
  <defs
     id="defs10">
    <style
       type="text/css"
       id="current-color-scheme">
   .ColorScheme-Text { color:#5c616c; } .ColorScheme-Highlight { color:#5294e2; } .ColorScheme-ButtonBackground { color:#d3dae3; }
  </style>
  </defs>
  <path
     opacity="1000000"
     style="fill:#00ccff"
     d="m7 3a4 4 0 0 0 -4 4 4 4 0 0 0 1.1152 2.7695 7 7 0 0 0 -0.1152 1.2305 7 7 0 0 0 7 7 7 7 0 0 0 1.238 -0.113 4 4 0 0 0 2.762 1.113 4 4 0 0 0 4 -4 4 4 0 0 0 -1.115 -2.77 7 7 0 0 0 0.115 -1.23 7 7 0 0 0 -7 -7 7 7 0 0 0 -1.2383 0.1133 4 4 0 0 0 -2.7617 -1.1133zm4.127 4c1.9736 0 2.9922 1.0424 2.9922 1.6543 0 0.61395-0.29491 0.70508-0.7793 0.70508-0.94131 0-0.5552-1.1328-2.3184-1.1328-0.58345 0-1.3125 0.26546-1.3125 0.94726 0 0.5481 0.6457 0.75005 1.7852 1.0312 1.718 0.46 3.006 0.919 3.006 2.496 0 1.531-1.247 2.299-3.221 2.299-1.9733 0-3.2341-1.181-3.2341-1.793 0-0.6119 0.23241-0.76562 0.7168-0.76562 0.94281 0 0.81697 1.2891 2.5801 1.2891 0.5855 0 1.4492-0.26732 1.4492-0.95117 0-0.54605-0.04607-0.73496-1.2969-1.0723-1.336-0.181-3.494-0.616-3.494-2.2832 0-1.5309 1.1554-2.4218 3.129-2.4218l-0.002-0.002z"
     id="path4"
     class="ColorScheme-ButtonBackground" />
  <path
     style="fill:currentColor"
     d="m-22.069-6.0812"
     id="path6"
     class="ColorScheme-ButtonBackground" />
</svg>
