<?xml version="1.0" encoding="UTF-8" standalone="no"?>
<svg
   xmlns:dc="http://purl.org/dc/elements/1.1/"
   xmlns:cc="http://creativecommons.org/ns#"
   xmlns:rdf="http://www.w3.org/1999/02/22-rdf-syntax-ns#"
   xmlns:svg="http://www.w3.org/2000/svg"
   xmlns="http://www.w3.org/2000/svg"
   xmlns:sodipodi="http://sodipodi.sourceforge.net/DTD/sodipodi-0.dtd"
   xmlns:inkscape="http://www.inkscape.org/namespaces/inkscape"
   height="22"
   width="22"
   version="1"
   id="svg2"
   sodipodi:docname="smplayer-panel.svg"
   inkscape:version="0.92.2 2405546, 2018-03-11">
  <metadata
     id="metadata8">
    <rdf:RDF>
      <cc:Work
         rdf:about="">
        <dc:format>image/svg+xml</dc:format>
        <dc:type
           rdf:resource="http://purl.org/dc/dcmitype/StillImage" />
      </cc:Work>
    </rdf:RDF>
  </metadata>
  <sodipodi:namedview
     pagecolor="#ffffff"
     bordercolor="#666666"
     borderopacity="1"
     objecttolerance="10"
     gridtolerance="10"
     guidetolerance="10"
     inkscape:pageopacity="0"
     inkscape:pageshadow="2"
     inkscape:window-width="901"
     inkscape:window-height="480"
     id="namedview6"
     showgrid="false"
     inkscape:zoom="10.727273"
     inkscape:cx="11"
     inkscape:cy="11"
     inkscape:window-x="0"
     inkscape:window-y="0"
     inkscape:window-maximized="0"
     inkscape:current-layer="svg2" />
  <defs
     id="defs8">
    <style
       type="text/css"
       id="current-color-scheme">
   .ColorScheme-Text { color:#5c616c; } .ColorScheme-Highlight { color:#5294e2; } .ColorScheme-ButtonBackground { color:#d3dae3; }
  </style>
  </defs>
  <path
     style="fill:#4d4d4d"
     d="m11 3c-4.432 0-8 3.568-8 8s3.568 8 8 8 8-3.568 8-8-3.568-8-8-8zm0 1a2 2 0 0 1 2 2 2 2 0 0 1 -2 2 2 2 0 0 1 -2 -2 2 2 0 0 1 2 -2zm-5 5a2 2 0 0 1 2 2 2 2 0 0 1 -2 2 2 2 0 0 1 -2 -2 2 2 0 0 1 2 -2zm10 0a2 2 0 0 1 2 2 2 2 0 0 1 -2 2 2 2 0 0 1 -2 -2 2 2 0 0 1 2 -2zm-5.5117 0.63477a0.5 0.5 0 0 1 0.44531 0.25 0.5 0.5 0 0 1 -0.183 0.6812 0.5 0.5 0 0 1 -0.684 -0.181 0.5 0.5 0 0 1 0.184 -0.6838 0.5 0.5 0 0 1 0.238 -0.0664zm1.366 0.3652a0.5 0.5 0 0 1 0.44531 0.25 0.5 0.5 0 0 1 -0.18359 0.68359 0.5 0.5 0 0 1 -0.682 -0.184 0.5 0.5 0 0 1 0.181 -0.684 0.5 0.5 0 0 1 0.239 -0.066zm-1.7305 1a0.5 0.5 0 0 1 0.44336 0.25 0.5 0.5 0 0 1 -0.18164 0.68359 0.5 0.5 0 0 1 -0.6848 -0.184 0.5 0.5 0 0 1 0.1836 -0.684 0.5 0.5 0 0 1 0.2382 -0.066zm1.3652 0.36523a0.5 0.5 0 0 1 0.44531 0.25 0.5 0.5 0 0 1 -0.184 0.684 0.5 0.5 0 0 1 -0.684 -0.184 0.5 0.5 0 0 1 0.184 -0.681 0.5 0.5 0 0 1 0.238 -0.069zm-0.489 2.635a2 2 0 0 1 2 2 2 2 0 0 1 -2 2 2 2 0 0 1 -2 -2 2 2 0 0 1 2 -2z"
     id="path4"
     class="ColorScheme-ButtonBackground" />
</svg>
