<?xml version="1.0" encoding="UTF-8" standalone="no"?>
<svg
   xmlns:dc="http://purl.org/dc/elements/1.1/"
   xmlns:cc="http://creativecommons.org/ns#"
   xmlns:rdf="http://www.w3.org/1999/02/22-rdf-syntax-ns#"
   xmlns:svg="http://www.w3.org/2000/svg"
   xmlns="http://www.w3.org/2000/svg"
   xmlns:sodipodi="http://sodipodi.sourceforge.net/DTD/sodipodi-0.dtd"
   xmlns:inkscape="http://www.inkscape.org/namespaces/inkscape"
   width="22"
   version="1.1"
   height="22"
   id="svg2"
   sodipodi:docname="solaar-attention.svg"
   inkscape:version="0.92.2 2405546, 2018-03-11">
  <metadata
     id="metadata10">
    <rdf:RDF>
      <cc:Work
         rdf:about="">
        <dc:format>image/svg+xml</dc:format>
        <dc:type
           rdf:resource="http://purl.org/dc/dcmitype/StillImage" />
      </cc:Work>
    </rdf:RDF>
  </metadata>
  <sodipodi:namedview
     pagecolor="#ffffff"
     bordercolor="#666666"
     borderopacity="1"
     objecttolerance="10"
     gridtolerance="10"
     guidetolerance="10"
     inkscape:pageopacity="0"
     inkscape:pageshadow="2"
     inkscape:window-width="901"
     inkscape:window-height="480"
     id="namedview8"
     showgrid="false"
     inkscape:zoom="10.727273"
     inkscape:cx="11"
     inkscape:cy="11"
     inkscape:window-x="0"
     inkscape:window-y="0"
     inkscape:window-maximized="0"
     inkscape:current-layer="g4" />
  <defs
     id="defs12">
    <style
       type="text/css"
       id="current-color-scheme">
   .ColorScheme-Text { color:#5c616c; } .ColorScheme-Highlight { color:#5294e2; } .ColorScheme-ButtonBackground { color:#d3dae3; }
  </style>
  </defs>
  <g
     transform="translate(0 -1030.4)"
     id="g4">
    <path
       style="fill:#4d4d4d"
       d="m5 3c-1.108 0-2 0.892-2 2v12c0 1.108 0.892 2 2 2h12c1.108 0 2-0.892 2-2v-12c0-1.108-0.892-2-2-2h-12zm3.8652 2.3047l1.5858 2.748a3 3 0 0 1 0.549 -0.0527 3 3 0 0 1 0.547 0.0527l1.588-2.748 1.73 1-1.586 2.75a3 3 0 0 1 0.547 0.9453h3.174v2h-3.176a3 3 0 0 1 -0.543 0.949l1.584 2.746-1.73 1-1.586-2.748a3 3 0 0 1 -0.549 0.053 3 3 0 0 1 -0.547 -0.053l-1.5878 2.748-1.7304-1 1.5859-2.75a3 3 0 0 1 -0.5469 -0.945h-3.1738v-2h3.1758a3 3 0 0 1 0.543 -0.9492l-1.584-2.7461 1.7304-1z"
       transform="translate(0 1030.4)"
       id="path6"
       class="ColorScheme-ButtonBackground" />
    <path
       style="fill:currentColor"
       d="m11 1039.4a2 2 0 0 0 -2 2 2 2 0 0 0 2 2 2 2 0 0 0 2 -2 2 2 0 0 0 -2 -2z"
       id="path8"
       class="ColorScheme-Highlight" />
  </g>
</svg>
