<?xml version="1.0" encoding="UTF-8" standalone="no"?>
<svg
   xmlns:dc="http://purl.org/dc/elements/1.1/"
   xmlns:cc="http://creativecommons.org/ns#"
   xmlns:rdf="http://www.w3.org/1999/02/22-rdf-syntax-ns#"
   xmlns:svg="http://www.w3.org/2000/svg"
   xmlns="http://www.w3.org/2000/svg"
   xmlns:sodipodi="http://sodipodi.sourceforge.net/DTD/sodipodi-0.dtd"
   xmlns:inkscape="http://www.inkscape.org/namespaces/inkscape"
   height="22"
   width="22"
   version="1.1"
   id="svg2"
   sodipodi:docname="state-sync.svg"
   inkscape:version="0.92.2 2405546, 2018-03-11">
  <metadata
     id="metadata9">
    <rdf:RDF>
      <cc:Work
         rdf:about="">
        <dc:format>image/svg+xml</dc:format>
        <dc:type
           rdf:resource="http://purl.org/dc/dcmitype/StillImage" />
      </cc:Work>
    </rdf:RDF>
  </metadata>
  <sodipodi:namedview
     pagecolor="#ffffff"
     bordercolor="#666666"
     borderopacity="1"
     objecttolerance="10"
     gridtolerance="10"
     guidetolerance="10"
     inkscape:pageopacity="0"
     inkscape:pageshadow="2"
     inkscape:window-width="761"
     inkscape:window-height="480"
     id="namedview7"
     showgrid="false"
     inkscape:zoom="10.727273"
     inkscape:cx="0"
     inkscape:cy="11"
     inkscape:window-x="0"
     inkscape:window-y="0"
     inkscape:window-maximized="0"
     inkscape:current-layer="svg2" />
  <defs
     id="defs10">
    <style
       type="text/css"
       id="current-color-scheme">
   .ColorScheme-Text { color:#5c616c; } .ColorScheme-Highlight { color:#5294e2; } .ColorScheme-ButtonBackground { color:#d3dae3; }
  </style>
  </defs>
  <g
     transform="translate(-624 -502)"
     id="g4"
     style="fill:#4d4d4d">
    <path
       style="fill:#4d4d4d"
       d="m11 3c-4.4183 0-8 3.5817-8 8 0 4.418 3.5817 8 8 8 4.418 0 8-3.582 8-8 0-4.4183-3.582-8-8-8zm0.145 3.998v0.002h0.001c1.309 0.048 2.501 0.7374 3.204 1.8184l1.388-0.4629-1.57 3.1465-3.147-1.5743 1.278-0.4257c-0.338-0.294-0.763-0.487-1.229-0.504-0.742-0.027-1.4343 0.3551-1.8063 0.9981l-1.7325-1c0.7401-1.282 2.1343-2.0531 3.6138-1.9981zm-3.313 3.5l3.147 1.574-1.2778 0.426c0.3378 0.294 0.7628 0.485 1.2288 0.502 0.742 0.027 1.434-0.355 1.806-0.998l1.733 1c-0.74 1.282-2.135 2.053-3.614 1.998-1.3085-0.048-2.4997-0.737-3.2027-1.818l-1.3886 0.463 1.5683-3.147z"
       transform="translate(624 502)"
       id="path6"
       class="ColorScheme-ButtonBackground" />
  </g>
</svg>
