<?xml version="1.0" encoding="UTF-8" standalone="no"?>
<svg
   xmlns:dc="http://purl.org/dc/elements/1.1/"
   xmlns:cc="http://creativecommons.org/ns#"
   xmlns:rdf="http://www.w3.org/1999/02/22-rdf-syntax-ns#"
   xmlns:svg="http://www.w3.org/2000/svg"
   xmlns="http://www.w3.org/2000/svg"
   xmlns:sodipodi="http://sodipodi.sourceforge.net/DTD/sodipodi-0.dtd"
   xmlns:inkscape="http://www.inkscape.org/namespaces/inkscape"
   height="22"
   width="22"
   version="1.1"
   id="svg8"
   sodipodi:docname="steam_tray_mono.svg"
   inkscape:version="0.92.2 2405546, 2018-03-11">
  <metadata
     id="metadata8">
    <rdf:RDF>
      <cc:Work
         rdf:about="">
        <dc:format>image/svg+xml</dc:format>
        <dc:type
           rdf:resource="http://purl.org/dc/dcmitype/StillImage" />
      </cc:Work>
    </rdf:RDF>
  </metadata>
  <sodipodi:namedview
     pagecolor="#ffffff"
     bordercolor="#666666"
     borderopacity="1"
     objecttolerance="10"
     gridtolerance="10"
     guidetolerance="10"
     inkscape:pageopacity="0"
     inkscape:pageshadow="2"
     inkscape:window-width="761"
     inkscape:window-height="480"
     id="namedview6"
     showgrid="false"
     inkscape:zoom="10.727273"
     inkscape:cx="11"
     inkscape:cy="11"
     inkscape:window-x="0"
     inkscape:window-y="0"
     inkscape:window-maximized="0"
     inkscape:current-layer="svg8" />
  <defs
     id="defs3">
    <style
       type="text/css"
       id="current-color-scheme">
   .ColorScheme-Text { color:#5c616c; } .ColorScheme-Highlight { color:#5294e2; } .ColorScheme-ButtonBackground { color:#d3dae3; }
  </style>
  </defs>
  <path
     style="fill:#666666;fill-opacity:1"
     class="ColorScheme-ButtonBackground"
     d="M 10.999998,3 A 8,8 0 0 0 3.0722631,9.9863281 L 7.1992163,12.369141 A 2.5,2.5 0 0 1 8.4999977,12 a 2.5,2.5 0 0 1 0.412109,0.03516 L 11.009763,8.765625 A 3,3 0 0 1 13.999998,6 a 3,3 0 0 1 3,3 3,3 0 0 1 -3,3 3,3 0 0 1 -0.423828,-0.0332 l -2.597657,2.21875 A 2.5,2.5 0 0 1 11.000003,14.5 2.5,2.5 0 0 1 8.5000027,17 2.5,2.5 0 0 1 6.0000025,14.5 2.5,2.5 0 0 1 6.0507835,14.015625 l -2.9375,-1.695312 A 8,8 0 0 0 11.000002,19 a 8,8 0 0 0 8,-8 8,8 0 0 0 -7.999999,-8 z M 3.0722631,9.9863281 A 8,8 0 0 0 3.0195291,10.601562 8,8 0 0 1 3.0722631,9.9863281 Z M 13.999998,7 a 2,2 0 0 0 -2,2 2,2 0 0 0 2,2 2,2 0 0 0 2,-2 2,2 0 0 0 -2,-2 z m 0,1 a 1,1 0 0 1 1,1 1,1 0 0 1 -1,1 1,1 0 0 1 -1,-1 1,1 0 0 1 1,-1 z M 2.9999975,11 A 8,8 0 0 0 3.0390605,11.724609 8,8 0 0 1 2.9999975,11 Z m 5.4609372,2 a 1.5,1.5 0 0 0 -0.1484372,0.01367 l 0.1875002,0.107422 c 0.495564,0.286114 0.671531,0.903034 0.394531,1.382812 -0.277,0.479778 -0.8989666,0.635724 -1.3945312,0.34961 L 7.0019506,14.566406 A 1.5,1.5 0 0 0 8.4999977,16 a 1.5,1.5 0 0 0 1.5,-1.5 1.5,1.5 0 0 0 -1.5,-1.5 1.5,1.5 0 0 0 -0.03906,0 z"
     id="circle2" />
</svg>
