<?xml version="1.0" encoding="UTF-8" standalone="no"?>
<svg
   xmlns:dc="http://purl.org/dc/elements/1.1/"
   xmlns:cc="http://creativecommons.org/ns#"
   xmlns:rdf="http://www.w3.org/1999/02/22-rdf-syntax-ns#"
   xmlns:svg="http://www.w3.org/2000/svg"
   xmlns="http://www.w3.org/2000/svg"
   xmlns:sodipodi="http://sodipodi.sourceforge.net/DTD/sodipodi-0.dtd"
   xmlns:inkscape="http://www.inkscape.org/namespaces/inkscape"
   width="22"
   version="1.1"
   height="22"
   id="svg2"
   sodipodi:docname="stremio-tray.svg"
   inkscape:version="0.92.2 2405546, 2018-03-11">
  <metadata
     id="metadata9">
    <rdf:RDF>
      <cc:Work
         rdf:about="">
        <dc:format>image/svg+xml</dc:format>
        <dc:type
           rdf:resource="http://purl.org/dc/dcmitype/StillImage" />
      </cc:Work>
    </rdf:RDF>
  </metadata>
  <sodipodi:namedview
     pagecolor="#ffffff"
     bordercolor="#666666"
     borderopacity="1"
     objecttolerance="10"
     gridtolerance="10"
     guidetolerance="10"
     inkscape:pageopacity="0"
     inkscape:pageshadow="2"
     inkscape:window-width="761"
     inkscape:window-height="480"
     id="namedview7"
     showgrid="false"
     inkscape:zoom="10.727273"
     inkscape:cx="11"
     inkscape:cy="11"
     inkscape:window-x="0"
     inkscape:window-y="0"
     inkscape:window-maximized="0"
     inkscape:current-layer="svg2" />
  <defs
     id="defs10">
    <style
       type="text/css"
       id="current-color-scheme">
   .ColorScheme-Text { color:#5c616c; } .ColorScheme-Highlight { color:#5294e2; } .ColorScheme-ButtonBackground { color:#d3dae3; }
  </style>
  </defs>
  <g
     transform="translate(0 -1030.4)"
     id="g4"
     style="fill:#4d4d4d">
    <path
       opacity="1000000"
       style="fill:#4d4d4d"
       d="m11 3c-0.259 0-0.518 0.1002-0.717 0.2988l-6.9842 6.9842c-0.3972 0.397-0.3972 1.037 0 1.434l6.9842 6.984c0.397 0.397 1.037 0.397 1.434 0l6.984-6.984c0.397-0.397 0.397-1.037 0-1.434l-6.984-6.9842c-0.199-0.1986-0.458-0.2988-0.717-0.2988zm-0.107 4c0.731 0 1.3 0.1761 1.709 0.5273 0.411 0.3514 0.617 0.8189 0.617 1.4043 0 0.4898-0.145 0.9005-0.436 1.2304-0.291 0.33-0.707 0.541-1.246 0.633v0.031c1.281 0.167 1.922 0.786 1.922 1.854 0 0.72-0.245 1.288-0.734 1.703-0.49 0.411-1.197 0.617-2.123 0.617-0.8592 0-1.5465-0.14-2.061-0.42v-0.906c0.6529 0.341 1.3329 0.512 2.039 0.512 1.256 0 1.883-0.512 1.883-1.538 0-0.915-0.675-1.375-2.027-1.375h-0.7075v-0.802h0.7075c0.567 0 1.008-0.135 1.32-0.405 0.312-0.2693 0.469-0.6264 0.469-1.0699 0-0.3619-0.122-0.648-0.364-0.8574-0.241-0.2129-0.564-0.3184-0.968-0.3184-0.632 0-1.2415 0.2133-1.8305 0.6426l-0.4902-0.6641c0.6635-0.5322 1.4367-0.7988 2.3207-0.7988z"
       transform="translate(0 1030.4)"
       id="path6"
       class="ColorScheme-ButtonBackground" />
  </g>
</svg>
