<?xml version="1.0" encoding="UTF-8" standalone="no"?>
<svg
   xmlns:dc="http://purl.org/dc/elements/1.1/"
   xmlns:cc="http://creativecommons.org/ns#"
   xmlns:rdf="http://www.w3.org/1999/02/22-rdf-syntax-ns#"
   xmlns:svg="http://www.w3.org/2000/svg"
   xmlns="http://www.w3.org/2000/svg"
   xmlns:sodipodi="http://sodipodi.sourceforge.net/DTD/sodipodi-0.dtd"
   xmlns:inkscape="http://www.inkscape.org/namespaces/inkscape"
   height="22"
   width="22"
   version="1.1"
   id="svg9"
   sodipodi:docname="teamviewer-indicator-busy.svg"
   inkscape:version="0.92.2 2405546, 2018-03-11">
  <metadata
     id="metadata13">
    <rdf:RDF>
      <cc:Work
         rdf:about="">
        <dc:format>image/svg+xml</dc:format>
        <dc:type
           rdf:resource="http://purl.org/dc/dcmitype/StillImage" />
      </cc:Work>
    </rdf:RDF>
  </metadata>
  <sodipodi:namedview
     pagecolor="#ffffff"
     bordercolor="#666666"
     borderopacity="1"
     objecttolerance="10"
     gridtolerance="10"
     guidetolerance="10"
     inkscape:pageopacity="0"
     inkscape:pageshadow="2"
     inkscape:window-width="761"
     inkscape:window-height="480"
     id="namedview11"
     showgrid="false"
     inkscape:zoom="10.727273"
     inkscape:cx="0"
     inkscape:cy="11"
     inkscape:window-x="0"
     inkscape:window-y="0"
     inkscape:window-maximized="0"
     inkscape:current-layer="svg9" />
  <defs
     id="defs3">
    <style
       type="text/css"
       id="current-color-scheme">
   .ColorScheme-Text { color:#5c616c; } .ColorScheme-Highlight { color:#5294e2; } .ColorScheme-ButtonBackground { color:#d3dae3; }
  </style>
  </defs>
  <g
     id="g7"
     style="fill:#4d4d4d">
    <path
       d="M 16.4,13.999999 15,15.4 17.10198,17.5 15,19.60198 16.4,21 18.5,18.9 20.60198,21 22,19.60198 19.9,17.5 22,15.4 20.60198,13.999999 18.5,16.101979 Z M 9,8 l 0,2 4,0 0,-2 3,3 -3,3 0,-2 -4,0 0,2 -3,-3 z m 2,-5 c -4.4175389,2e-7 -7.9999998,3.5824611 -8,8 2e-7,4.417539 3.5824611,8 8,8 1.691541,-0.0032 3.337169,-0.542328 4.702876,-1.540408 l -2.116646,-2.114646 2.823527,-2.831527 1.841692,1.841692 C 18.740021,13.304513 18.99719,12.158641 19,11 19,6.5824607 15.417539,2.9999997 11,3 Z"
       class="ColorScheme-ButtonBackground"
       style="fill:#4d4d4d"
       id="path5" />
  </g>
</svg>
