<?xml version="1.0" encoding="UTF-8" standalone="no"?>
<svg
   xmlns:dc="http://purl.org/dc/elements/1.1/"
   xmlns:cc="http://creativecommons.org/ns#"
   xmlns:rdf="http://www.w3.org/1999/02/22-rdf-syntax-ns#"
   xmlns:svg="http://www.w3.org/2000/svg"
   xmlns="http://www.w3.org/2000/svg"
   xmlns:sodipodi="http://sodipodi.sourceforge.net/DTD/sodipodi-0.dtd"
   xmlns:inkscape="http://www.inkscape.org/namespaces/inkscape"
   height="22"
   width="22"
   version="1.1"
   id="svg9"
   sodipodi:docname="teamviewer-indicator-connected.svg"
   inkscape:version="0.92.2 2405546, 2018-03-11">
  <metadata
     id="metadata13">
    <rdf:RDF>
      <cc:Work
         rdf:about="">
        <dc:format>image/svg+xml</dc:format>
        <dc:type
           rdf:resource="http://purl.org/dc/dcmitype/StillImage" />
      </cc:Work>
    </rdf:RDF>
  </metadata>
  <sodipodi:namedview
     pagecolor="#ffffff"
     bordercolor="#666666"
     borderopacity="1"
     objecttolerance="10"
     gridtolerance="10"
     guidetolerance="10"
     inkscape:pageopacity="0"
     inkscape:pageshadow="2"
     inkscape:window-width="761"
     inkscape:window-height="480"
     id="namedview11"
     showgrid="false"
     inkscape:zoom="10.727273"
     inkscape:cx="11"
     inkscape:cy="11"
     inkscape:window-x="0"
     inkscape:window-y="0"
     inkscape:window-maximized="0"
     inkscape:current-layer="svg9" />
  <defs
     id="defs3">
    <style
       type="text/css"
       id="current-color-scheme">
   .ColorScheme-Text { color:#5c616c; } .ColorScheme-Highlight { color:#5294e2; } .ColorScheme-ButtonBackground { color:#d3dae3; }
  </style>
  </defs>
  <g
     id="g7"
     style="fill:#4d4d4d">
    <path
       style="opacity:1;fill:#4d4d4d"
       class="ColorScheme-ButtonBackground"
       d="M 20.587042,13.915801 22,15.328644 l -4.252463,4.252517 0.0059,0.006 L 16.338575,21 12.1,16.761471 l 1.412758,-1.412844 2.82192,2.819691 z M 13,8.0000002 13,10 9,10 9,8.0000002 6.0000002,11 9,14 l 0,-2 4,0 0,2 3,-3 z M 19,11 c -0.0016,1.571558 -0.467437,3.108196 -1.336919,4.417323 l -1.335597,1.335584 -2.821662,-2.821631 -2.831359,2.821631 2.050336,2.050313 C 12.158703,18.930569 11.58024,18.997763 11,18.999999 c -4.4172782,0 -8.0000001,-3.582769 -8.0000001,-8 C 2.9999999,6.5827676 6.582572,2.9998486 11,2.9999986 15.417428,3.00015 19,6.5827694 19,11 Z"
       id="path5" />
  </g>
</svg>
