<?xml version="1.0" encoding="UTF-8" standalone="no"?>
<svg
   xmlns:dc="http://purl.org/dc/elements/1.1/"
   xmlns:cc="http://creativecommons.org/ns#"
   xmlns:rdf="http://www.w3.org/1999/02/22-rdf-syntax-ns#"
   xmlns:svg="http://www.w3.org/2000/svg"
   xmlns="http://www.w3.org/2000/svg"
   xmlns:sodipodi="http://sodipodi.sourceforge.net/DTD/sodipodi-0.dtd"
   xmlns:inkscape="http://www.inkscape.org/namespaces/inkscape"
   height="22"
   width="22"
   version="1.1"
   id="svg9"
   sodipodi:docname="teamviewer-indicator-away.svg"
   inkscape:version="0.92.2 2405546, 2018-03-11">
  <metadata
     id="metadata13">
    <rdf:RDF>
      <cc:Work
         rdf:about="">
        <dc:format>image/svg+xml</dc:format>
        <dc:type
           rdf:resource="http://purl.org/dc/dcmitype/StillImage" />
      </cc:Work>
    </rdf:RDF>
  </metadata>
  <sodipodi:namedview
     pagecolor="#ffffff"
     bordercolor="#666666"
     borderopacity="1"
     objecttolerance="10"
     gridtolerance="10"
     guidetolerance="10"
     inkscape:pageopacity="0"
     inkscape:pageshadow="2"
     inkscape:window-width="761"
     inkscape:window-height="480"
     id="namedview11"
     showgrid="false"
     inkscape:zoom="10.727273"
     inkscape:cx="11"
     inkscape:cy="11"
     inkscape:window-x="0"
     inkscape:window-y="0"
     inkscape:window-maximized="0"
     inkscape:current-layer="svg9" />
  <defs
     id="defs3">
    <style
       type="text/css"
       id="current-color-scheme">
   .ColorScheme-Text { color:#5c616c; } .ColorScheme-Highlight { color:#5294e2; } .ColorScheme-ButtonBackground { color:#d3dae3; }
  </style>
  </defs>
  <g
     id="g7"
     style="fill:#4d4d4d">
    <path
       style="opacity:1;fill:#4d4d4d"
       class="ColorScheme-ButtonBackground"
       d="m 19,11 c -0.0014,0.486109 -0.05073,0.971344 -0.140227,1.449146 L 17.789711,11.379384 15,14.206756 15.792824,14.999579 12,15 l 0,3.928705 c -0.331469,0.0442 -0.665605,0.06889 -1,0.07129 -4.4172959,0 -8.0000001,-3.582236 -8.0000001,-7.999532 C 2.9999999,6.5831714 6.5826942,3.0000991 11,2.9999993 15.417306,2.9999002 19,6.5827042 19,11 Z M 13,8.0000001 13,10 8.9999998,10 8.9986859,8.0009354 6,11 l 2.9999998,3 0,-2 L 13,12 l 0,2 3,-3 z M 17.793,12.792 22,17 17.793,21.207 16.3789,19.793 18.1719,18 13,17.999 l 0,-2 5.1719,10e-4 -1.793,-1.794 z"
       id="path5" />
  </g>
</svg>
