<?xml version="1.0" encoding="UTF-8" standalone="no"?>
<svg
   xmlns:dc="http://purl.org/dc/elements/1.1/"
   xmlns:cc="http://creativecommons.org/ns#"
   xmlns:rdf="http://www.w3.org/1999/02/22-rdf-syntax-ns#"
   xmlns:svg="http://www.w3.org/2000/svg"
   xmlns="http://www.w3.org/2000/svg"
   xmlns:sodipodi="http://sodipodi.sourceforge.net/DTD/sodipodi-0.dtd"
   xmlns:inkscape="http://www.inkscape.org/namespaces/inkscape"
   width="22"
   height="22"
   version="1.1"
   id="svg2"
   sodipodi:docname="ubuntuone-client-offline.svg"
   inkscape:version="0.92.2 2405546, 2018-03-11">
  <metadata
     id="metadata8">
    <rdf:RDF>
      <cc:Work
         rdf:about="">
        <dc:format>image/svg+xml</dc:format>
        <dc:type
           rdf:resource="http://purl.org/dc/dcmitype/StillImage" />
      </cc:Work>
    </rdf:RDF>
  </metadata>
  <sodipodi:namedview
     pagecolor="#ffffff"
     bordercolor="#666666"
     borderopacity="1"
     objecttolerance="10"
     gridtolerance="10"
     guidetolerance="10"
     inkscape:pageopacity="0"
     inkscape:pageshadow="2"
     inkscape:window-width="761"
     inkscape:window-height="480"
     id="namedview6"
     showgrid="false"
     inkscape:zoom="10.727273"
     inkscape:cx="11"
     inkscape:cy="11"
     inkscape:window-x="0"
     inkscape:window-y="0"
     inkscape:window-maximized="0"
     inkscape:current-layer="svg2" />
  <defs
     id="defs8">
    <style
       type="text/css"
       id="current-color-scheme">
   .ColorScheme-Text { color:#5c616c; } .ColorScheme-Highlight { color:#5294e2; } .ColorScheme-ButtonBackground { color:#d3dae3; }
  </style>
  </defs>
  <path
     opacity=".3"
     style="fill:#4d4d4d"
     d="m9.0435 5.0004c-0.392 0.011001-0.791 0.083004-1.186 0.21701-1.691 0.57503-2.975 2.2281-3.352 4.2982-1.11 0.26801-2.061 1.2571-2.389 2.6661-0.465 2.0001 0.502 4.0782 2.155 4.6402 0.027 0.008 0.055 0.013 0.082 0.02 0.228 0.099 0.472 0.15801 0.729 0.15801h11.988c0.429 0 0.824-0.15601 1.159-0.41502 1.34-0.77404 2.07-2.6151 1.654-4.4032-0.307-1.3211-1.162-2.2781-2.182-2.6131-0.009-0.044002-0.017-0.087004-0.027-0.13201-0.465-2.0001-2.183-3.1691-3.836-2.6061-0.317 0.10801-0.61 0.28001-0.876 0.49402-0.911-1.4811-2.372-2.3651-3.918-2.3231z"
     id="path4"
     class="ColorScheme-ButtonBackground" />
</svg>
