<?xml version="1.0" encoding="UTF-8" standalone="no"?>
<svg
   xmlns:dc="http://purl.org/dc/elements/1.1/"
   xmlns:cc="http://creativecommons.org/ns#"
   xmlns:rdf="http://www.w3.org/1999/02/22-rdf-syntax-ns#"
   xmlns:svg="http://www.w3.org/2000/svg"
   xmlns="http://www.w3.org/2000/svg"
   xmlns:sodipodi="http://sodipodi.sourceforge.net/DTD/sodipodi-0.dtd"
   xmlns:inkscape="http://www.inkscape.org/namespaces/inkscape"
   height="22"
   width="22"
   version="1.1"
   id="svg8"
   sodipodi:docname="vivaldi-tray.svg"
   inkscape:version="0.92.2 2405546, 2018-03-11">
  <metadata
     id="metadata8">
    <rdf:RDF>
      <cc:Work
         rdf:about="">
        <dc:format>image/svg+xml</dc:format>
        <dc:type
           rdf:resource="http://purl.org/dc/dcmitype/StillImage" />
      </cc:Work>
    </rdf:RDF>
  </metadata>
  <sodipodi:namedview
     pagecolor="#ffffff"
     bordercolor="#666666"
     borderopacity="1"
     objecttolerance="10"
     gridtolerance="10"
     guidetolerance="10"
     inkscape:pageopacity="0"
     inkscape:pageshadow="2"
     inkscape:window-width="761"
     inkscape:window-height="480"
     id="namedview6"
     showgrid="false"
     inkscape:zoom="10.727273"
     inkscape:cx="11"
     inkscape:cy="11"
     inkscape:window-x="0"
     inkscape:window-y="0"
     inkscape:window-maximized="0"
     inkscape:current-layer="svg8" />
  <defs
     id="defs3">
    <style
       type="text/css"
       id="current-color-scheme">
   .ColorScheme-Text { color:#5c616c; } .ColorScheme-Highlight { color:#5294e2; } .ColorScheme-ButtonBackground { color:#d3dae3; }
  </style>
  </defs>
  <path
     style="fill:#4d4d4d;fill-opacity:1;stroke-width:0.94279736"
     class="ColorScheme-ButtonBackground"
     d="m 18.00048,3.0001157 c -1.104569,0 -2,0.8954305 -2,2 9.2e-4,0.2672118 0.05538,0.5315299 0.160156,0.7773438 0.01604,0.057736 0.02818,0.124959 0.04687,0.1738281 0.418397,1.6126072 -0.008,2.8737053 -0.960026,4.0214843 C 13.914214,11.315803 11.998504,11.3395 10.674304,10.02746 L 6.6313403,3.6348813 C 6.2214533,3.1926314 5.6512847,3.0340009 5.1293871,3.0313657 4.0073923,3.0127967 3.2299462,3.9083906 3.0454027,4.8692563 2.9090916,5.6382003 2.8467816,5.5049342 6.471184,12.08996 c 2.287717,4.156434 3.3744256,6.073393 3.552735,6.261718 0.631557,0.667205 1.533031,0.831906 2.375,0.435547 0.221377,-0.104224 0.470776,-0.291775 0.630858,-0.472656 0.313564,-0.354299 6.697523,-12.0903838 6.802734,-12.4941408 0.125372,-0.2685977 0.15201,-0.5524121 0.167969,-0.8203125 0,-1.1045695 -0.895431,-2 -2,-2 z"
     id="path8-3" />
</svg>
