<?xml version="1.0" encoding="UTF-8" standalone="no"?>
<svg
   xmlns:dc="http://purl.org/dc/elements/1.1/"
   xmlns:cc="http://creativecommons.org/ns#"
   xmlns:rdf="http://www.w3.org/1999/02/22-rdf-syntax-ns#"
   xmlns:svg="http://www.w3.org/2000/svg"
   xmlns="http://www.w3.org/2000/svg"
   xmlns:sodipodi="http://sodipodi.sourceforge.net/DTD/sodipodi-0.dtd"
   xmlns:inkscape="http://www.inkscape.org/namespaces/inkscape"
   height="22"
   version="1.1"
   width="22"
   id="svg9"
   sodipodi:docname="weather-showers-scattered.svg"
   inkscape:version="0.92.2 2405546, 2018-03-11">
  <metadata
     id="metadata13">
    <rdf:RDF>
      <cc:Work
         rdf:about="">
        <dc:format>image/svg+xml</dc:format>
        <dc:type
           rdf:resource="http://purl.org/dc/dcmitype/StillImage" />
      </cc:Work>
    </rdf:RDF>
  </metadata>
  <sodipodi:namedview
     pagecolor="#ffffff"
     bordercolor="#666666"
     borderopacity="1"
     objecttolerance="10"
     gridtolerance="10"
     guidetolerance="10"
     inkscape:pageopacity="0"
     inkscape:pageshadow="2"
     inkscape:window-width="901"
     inkscape:window-height="480"
     id="namedview11"
     showgrid="false"
     inkscape:zoom="10.727273"
     inkscape:cx="11"
     inkscape:cy="11"
     inkscape:window-x="0"
     inkscape:window-y="0"
     inkscape:window-maximized="0"
     inkscape:current-layer="g7" />
  <defs
     id="defs3">
    <style
       type="text/css"
       id="current-color-scheme">
   .ColorScheme-Text { color:#5c616c; } .ColorScheme-Highlight { color:#5294e2; } .ColorScheme-ButtonBackground { color:#d3dae3; }
  </style>
  </defs>
  <g
     transform="translate(-33.000007,-705.28994)"
     id="g7">
    <path
       style="fill:#4d4d4d;fill-opacity:1"
       class="ColorScheme-ButtonBackground"
       d="M 11 3.0039062 C 8.92893 3.0039062 7.16529 4.2718263 6.40625 6.0664062 C 4.47842 6.3530063 3 7.9963263 3 10.003906 C 3 11.936906 4.36477 13.537176 6.1875 13.910156 C 6.95162 13.131616 7.70872 12.348706 8.5 11.597656 C 9.07304 12.135666 9.63306 12.696886 10.1875 13.253906 C 10.43042 13.184906 10.57002 12.407736 10.90625 12.160156 C 11.76052 11.292076 12.61549 10.435326 13.5 9.5976562 C 14.16629 10.222146 14.79148 10.858716 15.4375 11.503906 C 16.03544 12.075336 16.66508 12.707556 16.875 13.535156 C 16.891 13.586256 16.89305 13.639806 16.90625 13.691406 C 18.1415 13.150916 19 11.938456 19 10.503906 C 19 8.7073662 17.64921 7.2352063 15.90625 7.0351562 C 15.45168 4.7417662 13.42687 3.0039062 11 3.0039062 z M 13.5 11 L 13.15625 11.34375 L 11.75 12.75 C 11.29685 13.20315 11 13.8126 11 14.5 C 11 15.87479 12.12521 17 13.5 17 C 14.87479 17 16 15.87479 16 14.5 C 16 13.8126 15.70315 13.20315 15.25 12.75 L 13.84375 11.34375 L 13.5 11 z M 8.5 13 L 8.15625 13.34375 L 6.75 14.75 C 6.29685 15.20315 6 15.8126 6 16.5 C 6 17.87479 7.12521 19 8.5 19 C 9.87479 19 11 17.87479 11 16.5 C 11 15.8126 10.70315 15.20315 10.25 14.75 L 8.84375 13.34375 L 8.5 13 z"
       transform="translate(33.000007,705.28994)"
       id="path5" />
  </g>
</svg>
