<?xml version="1.0" encoding="UTF-8" standalone="no"?>
<svg
   xmlns:dc="http://purl.org/dc/elements/1.1/"
   xmlns:cc="http://creativecommons.org/ns#"
   xmlns:rdf="http://www.w3.org/1999/02/22-rdf-syntax-ns#"
   xmlns:svg="http://www.w3.org/2000/svg"
   xmlns="http://www.w3.org/2000/svg"
   xmlns:sodipodi="http://sodipodi.sourceforge.net/DTD/sodipodi-0.dtd"
   xmlns:inkscape="http://www.inkscape.org/namespaces/inkscape"
   height="22"
   version="1.1"
   width="22"
   id="svg9"
   sodipodi:docname="weather-many-clouds.svg"
   inkscape:version="0.92.2 2405546, 2018-03-11">
  <metadata
     id="metadata13">
    <rdf:RDF>
      <cc:Work
         rdf:about="">
        <dc:format>image/svg+xml</dc:format>
        <dc:type
           rdf:resource="http://purl.org/dc/dcmitype/StillImage" />
      </cc:Work>
    </rdf:RDF>
  </metadata>
  <sodipodi:namedview
     pagecolor="#ffffff"
     bordercolor="#666666"
     borderopacity="1"
     objecttolerance="10"
     gridtolerance="10"
     guidetolerance="10"
     inkscape:pageopacity="0"
     inkscape:pageshadow="2"
     inkscape:window-width="901"
     inkscape:window-height="480"
     id="namedview11"
     showgrid="false"
     inkscape:zoom="10.727273"
     inkscape:cx="11"
     inkscape:cy="11"
     inkscape:window-x="0"
     inkscape:window-y="0"
     inkscape:window-maximized="0"
     inkscape:current-layer="svg9" />
  <defs
     id="defs3">
    <style
       type="text/css"
       id="current-color-scheme">
   .ColorScheme-Text { color:#5c616c; } .ColorScheme-Highlight { color:#5294e2; } .ColorScheme-ButtonBackground { color:#d3dae3; }
  </style>
  </defs>
  <g
     transform="translate(-81.000004,-705.29)"
     id="g7"
     style="fill:#4d4d4d">
    <path
       style="fill:#4d4d4d;fill-opacity:1;opacity:1"
       class="ColorScheme-ButtonBackground"
       d="M 11 4 C 8.92893 4 7.16529 5.26792 6.40625 7.0625 C 4.47842 7.3491 3 8.99242 3 11 C 3 13.20914 4.79086 15 7 15 L 7.40625 15 C 7.86012 14.19875 8.64718 13.57265 9.53125 13.3125 C 10.15098 11.99047 11.50599 10.9742 13 11 C 14.90766 10.9693 16.58166 12.48472 16.875 14.34375 C 17.01792 14.38895 17.14425 14.43455 17.28125 14.5 C 18.31154 13.89085 19 12.7836 19 11.5 C 19 9.70346 17.64921 8.2313 15.90625 8.03125 C 15.45168 5.73786 13.42687 4 11 4 z M 13 12 C 11.68832 12 10.59518 12.85843 10.1875 14.03125 C 8.95667 14.18722 8 15.22682 8 16.5 C 8 17.88071 9.11929 19 10.5 19 L 16 19 C 17.10457 19 18 18.10457 18 17 C 18 15.89543 17.10457 15 16 15 C 16 13.34315 14.65685 12 13 12 z"
       transform="translate(81.000004,705.29)"
       id="path5" />
  </g>
</svg>
