<?xml version="1.0" encoding="UTF-8" standalone="no"?>
<svg
   xmlns:dc="http://purl.org/dc/elements/1.1/"
   xmlns:cc="http://creativecommons.org/ns#"
   xmlns:rdf="http://www.w3.org/1999/02/22-rdf-syntax-ns#"
   xmlns:svg="http://www.w3.org/2000/svg"
   xmlns="http://www.w3.org/2000/svg"
   xmlns:sodipodi="http://sodipodi.sourceforge.net/DTD/sodipodi-0.dtd"
   xmlns:inkscape="http://www.inkscape.org/namespaces/inkscape"
   height="22"
   version="1.1"
   width="22"
   id="svg9"
   sodipodi:docname="weather-snow-scattered.svg"
   inkscape:version="0.92.2 2405546, 2018-03-11">
  <metadata
     id="metadata13">
    <rdf:RDF>
      <cc:Work
         rdf:about="">
        <dc:format>image/svg+xml</dc:format>
        <dc:type
           rdf:resource="http://purl.org/dc/dcmitype/StillImage" />
      </cc:Work>
    </rdf:RDF>
  </metadata>
  <sodipodi:namedview
     pagecolor="#ffffff"
     bordercolor="#666666"
     borderopacity="1"
     objecttolerance="10"
     gridtolerance="10"
     guidetolerance="10"
     inkscape:pageopacity="0"
     inkscape:pageshadow="2"
     inkscape:window-width="901"
     inkscape:window-height="480"
     id="namedview11"
     showgrid="false"
     inkscape:zoom="10.727273"
     inkscape:cx="11"
     inkscape:cy="11"
     inkscape:window-x="0"
     inkscape:window-y="0"
     inkscape:window-maximized="0"
     inkscape:current-layer="svg9" />
  <defs
     id="defs3">
    <style
       type="text/css"
       id="current-color-scheme">
   .ColorScheme-Text { color:#5c616c; } .ColorScheme-Highlight { color:#5294e2; } .ColorScheme-ButtonBackground { color:#d3dae3; }
  </style>
  </defs>
  <g
     transform="translate(-57.000003,-705.29)"
     id="g7"
     style="fill:#4d4d4d">
    <path
       style="fill:#4d4d4d;fill-opacity:1"
       class="ColorScheme-ButtonBackground"
       d="M 11 3 C 8.92893 3 7.16529 4.26792 6.40625 6.0625 C 4.47842 6.3491 3 7.99242 3 10 C 3 12.20914 4.79086 14 7 14 L 8.1855469 14 C 8.6024017 12.841743 9.7061742 12 11 12 C 12.293826 12 13.397598 12.841743 13.814453 14 L 15.5 14 C 17.433 14 19 12.433 19 10.5 C 19 8.70346 17.64921 7.2313 15.90625 7.03125 C 15.45168 4.73786 13.42687 3 11 3 z M 11 13 A 2 2 0 0 0 9 15 A 2 2 0 0 0 11 17 A 2 2 0 0 0 13 15 A 2 2 0 0 0 11 13 z M 6 15 A 2 2 0 0 0 4 17 A 2 2 0 0 0 6 19 A 2 2 0 0 0 8 17 A 2 2 0 0 0 6 15 z M 16 15 A 2 2 0 0 0 14 17 A 2 2 0 0 0 16 19 A 2 2 0 0 0 18 17 A 2 2 0 0 0 16 15 z"
       transform="translate(57.000003,705.29)"
       id="path5" />
  </g>
</svg>
