<?xml version="1.0" encoding="UTF-8" standalone="no"?>
<svg
   xmlns:dc="http://purl.org/dc/elements/1.1/"
   xmlns:cc="http://creativecommons.org/ns#"
   xmlns:rdf="http://www.w3.org/1999/02/22-rdf-syntax-ns#"
   xmlns:svg="http://www.w3.org/2000/svg"
   xmlns="http://www.w3.org/2000/svg"
   xmlns:sodipodi="http://sodipodi.sourceforge.net/DTD/sodipodi-0.dtd"
   xmlns:inkscape="http://www.inkscape.org/namespaces/inkscape"
   height="22"
   version="1.1"
   width="22"
   id="svg9"
   sodipodi:docname="weather-clear.svg"
   inkscape:version="0.92.2 2405546, 2018-03-11">
  <metadata
     id="metadata13">
    <rdf:RDF>
      <cc:Work
         rdf:about="">
        <dc:format>image/svg+xml</dc:format>
        <dc:type
           rdf:resource="http://purl.org/dc/dcmitype/StillImage" />
      </cc:Work>
    </rdf:RDF>
  </metadata>
  <sodipodi:namedview
     pagecolor="#ffffff"
     bordercolor="#666666"
     borderopacity="1"
     objecttolerance="10"
     gridtolerance="10"
     guidetolerance="10"
     inkscape:pageopacity="0"
     inkscape:pageshadow="2"
     inkscape:window-width="901"
     inkscape:window-height="480"
     id="namedview11"
     showgrid="false"
     inkscape:zoom="10.727273"
     inkscape:cx="11"
     inkscape:cy="11"
     inkscape:window-x="0"
     inkscape:window-y="0"
     inkscape:window-maximized="0"
     inkscape:current-layer="svg9" />
  <defs
     id="defs3">
    <style
       type="text/css"
       id="current-color-scheme">
   .ColorScheme-Text { color:#5c616c; } .ColorScheme-Highlight { color:#5294e2; } .ColorScheme-ButtonBackground { color:#d3dae3; }
  </style>
  </defs>
  <g
     transform="translate(-33.000004,-681.29)"
     id="g7"
     style="fill:#4d4d4d">
    <path
       d="m 43.99999,684.29 -0.5,1.03125 c 0.16526,-0.0117 0.33177,-0.0312 0.5,-0.0312 0.16823,0 0.33474,0.0196 0.5,0.0312 l -0.5,-1.03125 z m 0,2 c -3.31371,0 -6,2.68629 -6,6 0,3.31371 2.68629,6 6,6 3.31371,0 6,-2.68629 6,-6 0,-3.31371 -2.68629,-6 -6,-6 z m -5.65625,0.34375 0.375,1.09375 c 0.21793,-0.25121 0.46754,-0.50082 0.71875,-0.71875 l -1.09375,-0.375 z m 11.3125,0 -1.09375,0.375 c 0.25121,0.21793 0.50082,0.46754 0.71875,0.71875 l 0.375,-1.09375 z m -12.625,5.15625 -1.03125,0.5 1.03125,0.5 c -0.01167,-0.16526 -0.03125,-0.33177 -0.03125,-0.5 0,-0.16823 0.0196,-0.33474 0.0312,-0.5 z m 13.9375,0 c 0.0117,0.16526 0.0312,0.33177 0.0312,0.5 0,0.16823 -0.0196,0.33474 -0.0312,0.5 l 1.03125,-0.5 -1.03125,-0.5 z m -12.25,5.0625 -0.375,1.09375 1.09375,-0.375 c -0.25121,-0.21793 -0.50082,-0.46754 -0.71875,-0.71875 z m 10.5625,0 c -0.21793,0.25121 -0.46754,0.50082 -0.71875,0.71875 l 1.09375,0.375 -0.375,-1.09375 z m -5.78125,2.40625 0.5,1.03125 0.5,-1.03125 c -0.16526,0.0117 -0.33177,0.0312 -0.5,0.0312 -0.16823,0 -0.33474,-0.0196 -0.5,-0.0312 z"
       style="fill:#4d4d4d;fill-opacity:1"
       class="ColorScheme-ButtonBackground"
       id="path5" />
  </g>
</svg>
