<?xml version="1.0" encoding="UTF-8" standalone="no"?>
<svg
   xmlns:dc="http://purl.org/dc/elements/1.1/"
   xmlns:cc="http://creativecommons.org/ns#"
   xmlns:rdf="http://www.w3.org/1999/02/22-rdf-syntax-ns#"
   xmlns:svg="http://www.w3.org/2000/svg"
   xmlns="http://www.w3.org/2000/svg"
   xmlns:sodipodi="http://sodipodi.sourceforge.net/DTD/sodipodi-0.dtd"
   xmlns:inkscape="http://www.inkscape.org/namespaces/inkscape"
   height="22"
   width="22"
   version="1.1"
   id="svg2"
   sodipodi:docname="wechat-tray-unread.svg"
   inkscape:version="0.92.2 2405546, 2018-03-11">
  <metadata
     id="metadata9">
    <rdf:RDF>
      <cc:Work
         rdf:about="">
        <dc:format>image/svg+xml</dc:format>
        <dc:type
           rdf:resource="http://purl.org/dc/dcmitype/StillImage" />
      </cc:Work>
    </rdf:RDF>
  </metadata>
  <sodipodi:namedview
     pagecolor="#ffffff"
     bordercolor="#666666"
     borderopacity="1"
     objecttolerance="10"
     gridtolerance="10"
     guidetolerance="10"
     inkscape:pageopacity="0"
     inkscape:pageshadow="2"
     inkscape:window-width="761"
     inkscape:window-height="480"
     id="namedview7"
     showgrid="false"
     inkscape:zoom="10.727273"
     inkscape:cx="0"
     inkscape:cy="11"
     inkscape:window-x="0"
     inkscape:window-y="0"
     inkscape:window-maximized="0"
     inkscape:current-layer="svg2" />
  <defs
     id="defs4">
    <style
       type="text/css"
       id="current-color-scheme">
   .ColorScheme-Text { color:#5c616c; } .ColorScheme-Highlight { color:#5294e2; } .ColorScheme-ButtonBackground { color:#d3dae3; }
  </style>
  </defs>
  <path
     style="opacity:1;fill:#4d4d4d;fill-opacity:1"
     class="ColorScheme-ButtonBackground"
     d="M 10 3 A 7 6.5 0 0 0 3 9.5 A 7 6.5 0 0 0 5 14.046875 L 5 17 L 6.3203125 15.019531 A 7 6.5 0 0 0 8.5820312 15.853516 C 8.2131044 15.143061 8 14.348082 8 13.5 C 8 11.060117 9.7230409 9.0453833 12.048828 8.3066406 A 1 1 0 0 1 12 8 A 1 1 0 0 1 13 7 A 1 1 0 0 1 14 8 C 15.061383 8 16.066598 8.2619524 16.943359 8.7167969 A 7 6.5 0 0 0 10 3 z M 7 7 A 1 1 0 0 1 8 8 A 1 1 0 0 1 7 9 A 1 1 0 0 1 6 8 A 1 1 0 0 1 7 7 z M 14 9 A 5 4.5 0 0 0 9 13.5 A 5 4.5 0 0 0 14 18 A 5 4.5 0 0 0 15.009766 17.904297 C 15.06218 16.303725 16.387708 15 18 15 C 18.231334 15 18.454974 15.0314 18.671875 15.082031 A 5 4.5 0 0 0 19 13.5 A 5 4.5 0 0 0 14 9 z M 12 11 A 1 1 0 0 1 13 12 A 1 1 0 0 1 12 13 A 1 1 0 0 1 11 12 A 1 1 0 0 1 12 11 z M 16 11 A 1 1 0 0 1 17 12 A 1 1 0 0 1 16 13 A 1 1 0 0 1 15 12 A 1 1 0 0 1 16 11 z M 18 17 C 17.574081 17 17.221528 17.248751 17.074219 17.613281 L 18 19 L 18 17 z"
     id="rect4142" />
  <circle
     style="opacity:1;fill:currentColor;fill-opacity:1;"
     class="ColorScheme-Highlight"
     id="path4165"
     cx="18"
     cy="18"
     r="2" />
</svg>
