<?xml version="1.0" encoding="UTF-8" standalone="no"?>
<svg
   xmlns:dc="http://purl.org/dc/elements/1.1/"
   xmlns:cc="http://creativecommons.org/ns#"
   xmlns:rdf="http://www.w3.org/1999/02/22-rdf-syntax-ns#"
   xmlns:svg="http://www.w3.org/2000/svg"
   xmlns="http://www.w3.org/2000/svg"
   xmlns:sodipodi="http://sodipodi.sourceforge.net/DTD/sodipodi-0.dtd"
   xmlns:inkscape="http://www.inkscape.org/namespaces/inkscape"
   height="22"
   width="22"
   version="1"
   id="svg2"
   sodipodi:docname="wire-tray-attention.svg"
   inkscape:version="0.92.2 2405546, 2018-03-11">
  <metadata
     id="metadata9">
    <rdf:RDF>
      <cc:Work
         rdf:about="">
        <dc:format>image/svg+xml</dc:format>
        <dc:type
           rdf:resource="http://purl.org/dc/dcmitype/StillImage" />
      </cc:Work>
    </rdf:RDF>
  </metadata>
  <sodipodi:namedview
     pagecolor="#ffffff"
     bordercolor="#666666"
     borderopacity="1"
     objecttolerance="10"
     gridtolerance="10"
     guidetolerance="10"
     inkscape:pageopacity="0"
     inkscape:pageshadow="2"
     inkscape:window-width="761"
     inkscape:window-height="480"
     id="namedview7"
     showgrid="false"
     inkscape:zoom="10.727273"
     inkscape:cx="11"
     inkscape:cy="11"
     inkscape:window-x="0"
     inkscape:window-y="0"
     inkscape:window-maximized="0"
     inkscape:current-layer="svg2" />
  <defs
     id="defs10">
    <style
       type="text/css"
       id="current-color-scheme">
   .ColorScheme-Text { color:#5c616c; } .ColorScheme-Highlight { color:#5294e2; } .ColorScheme-ButtonBackground { color:#d3dae3; }
  </style>
  </defs>
  <path
     style="fill:#4d4d4d"
     d="m11 3c-4.432 0-8 3.568-8 8s3.568 8 8 8 8-3.568 8-8-3.568-8-8-8zm-5 4h1v5.4121s-0.00159 0.35817 0.28125 0.75195c0.2829 0.394 0.8348 0.836 2.2188 0.836 0.1057 0 0.1362-0.036 0.2324-0.041-0.0713-0.077-0.2069-0.132-0.2636-0.211-0.4672-0.65-0.4688-1.336-0.4688-1.336v-4.3398l0.00391-0.0293s0.023825-0.14462 0.083984-0.26367c0.0601-0.119 0.1631-0.2585 0.3203-0.3808 0.3143-0.2445 0.8148-0.4097 1.5998-0.3984 0.7801 0.01119 1.2658 0.1747 1.5762 0.4082 0.15521 0.11675 0.26015 0.25098 0.32227 0.36719s0.08984 0.26172 0.08984 0.26172l0.0039 0.0332v4.3418s-0.0016 0.68558-0.46875 1.3359c-0.05676 0.07903-0.19237 0.13433-0.26367 0.21094 0.096 0.005 0.126 0.041 0.232 0.041 1.384 0 1.936-0.442 2.219-0.836s0.281-0.752 0.281-0.752v-5.412h1v5.4121s-0.0016 0.68558-0.46875 1.3359c-0.467 0.65-1.415 1.252-3.031 1.252-0.622 0-1.065-0.148-1.5-0.295-0.435 0.147-0.878 0.295-1.5 0.295-1.6161 0-2.5641-0.602-3.0312-1.252-0.4672-0.65-0.4688-1.336-0.4688-1.336v-5.412zm4.9922 1c-0.63905-0.0092-0.88911 0.12554-0.96875 0.1875-0.02172 0.0169-0.01804 0.01642-0.02344 0.02344v4.2012s-0.00162 0.35816 0.28125 0.75195c0.14343 0.19968 0.36351 0.40974 0.71875 0.57031 0.35523-0.16057 0.57533-0.37064 0.71875-0.57031 0.283-0.394 0.281-0.752 0.281-0.752v-4.1895c-0.0065-0.0066 0.000046-0.0019-0.01563-0.01367-0.083-0.0626-0.348-0.1996-0.992-0.2088z"
     id="path4"
     class="ColorScheme-ButtonBackground" />
  <circle
     cy="17"
     cx="20"
     r="2"
     style="fill:currentColor"
     id="circle6"
     class="ColorScheme-Highlight" />
</svg>
