<?xml version="1.0" encoding="UTF-8" standalone="no"?>
<svg
   xmlns:dc="http://purl.org/dc/elements/1.1/"
   xmlns:cc="http://creativecommons.org/ns#"
   xmlns:rdf="http://www.w3.org/1999/02/22-rdf-syntax-ns#"
   xmlns:svg="http://www.w3.org/2000/svg"
   xmlns="http://www.w3.org/2000/svg"
   xmlns:sodipodi="http://sodipodi.sourceforge.net/DTD/sodipodi-0.dtd"
   xmlns:inkscape="http://www.inkscape.org/namespaces/inkscape"
   height="22"
   width="22"
   version="1.1"
   id="svg2"
   sodipodi:docname="xchat-panel.svg"
   inkscape:version="0.92.2 2405546, 2018-03-11">
  <metadata
     id="metadata8">
    <rdf:RDF>
      <cc:Work
         rdf:about="">
        <dc:format>image/svg+xml</dc:format>
        <dc:type
           rdf:resource="http://purl.org/dc/dcmitype/StillImage" />
      </cc:Work>
    </rdf:RDF>
  </metadata>
  <sodipodi:namedview
     pagecolor="#ffffff"
     bordercolor="#666666"
     borderopacity="1"
     objecttolerance="10"
     gridtolerance="10"
     guidetolerance="10"
     inkscape:pageopacity="0"
     inkscape:pageshadow="2"
     inkscape:window-width="761"
     inkscape:window-height="480"
     id="namedview6"
     showgrid="false"
     inkscape:zoom="10.727273"
     inkscape:cx="11"
     inkscape:cy="11"
     inkscape:window-x="0"
     inkscape:window-y="0"
     inkscape:window-maximized="0"
     inkscape:current-layer="svg2" />
  <defs
     id="defs8">
    <style
       type="text/css"
       id="current-color-scheme">
   .ColorScheme-Text { color:#5c616c; } .ColorScheme-Highlight { color:#5294e2; } .ColorScheme-ButtonBackground { color:#d3dae3; }
  </style>
  </defs>
  <path
     style="fill:#4d4d4d"
     d="m6.4062 3.9874c-0.25562 0-0.52288 0.085381-0.71875 0.28125l-1.4062 1.4062c-0.39174 0.39174-0.39174 1.0458 0 1.4375l0.875 0.875h5.6875l-3.7188-3.7188c-0.1959-0.1959-0.46305-0.28125-0.71875-0.28125zm9.1875 0c-0.26144 0-0.52288 0.085381-0.71875 0.28125l-3.7188 3.7188h5.6875l0.875-0.875c0.39174-0.39174 0.39174-1.0458 0-1.4375l-1.4062-1.4062c-0.19587-0.19587-0.45731-0.28125-0.71875-0.28125zm-8.1155 4.5079a0.50005 0.50005 0 0 0 -0.4785 0.4921v1.5 2a0.50005 0.50005 0 1 0 1 0v-1.5h1v1.5a0.50005 0.50005 0 1 0 1 0v-2a0.50005 0.50005 0 0 0 -0.5 -0.4996h-1.5v-1a0.50005 0.50005 0 0 0 -0.5215 -0.4921zm11 0a0.50005 0.50005 0 0 0 -0.478 0.4921v1h-0.5a0.50005 0.50005 0 0 0 0 1h0.5v1.5a0.50005 0.50005 0 0 0 0.5 0.5h1.5a0.50005 0.50005 0 1 0 0 -1h-1v-1h1a0.50005 0.50005 0 1 0 0 -1h-1v-1a0.50005 0.50005 0 0 0 -0.521 -0.4917zm-15.978 1.4921a0.50005 0.50005 0 0 0 -0.5 0.4996v2a0.50005 0.50005 0 0 0 0.5 0.5h2a0.50005 0.50005 0 1 0 0 -1h-1.5v-1h1.5a0.50005 0.50005 0 1 0 0 -1h-2zm10 0a0.50005 0.50005 0 0 0 -0.5 0.4996v2a0.50005 0.50005 0 0 0 0.5 0.5h0.75a0.50005 0.50005 0 1 0 0 -1h-0.25v-1h1v1.5a0.50005 0.50005 0 1 0 1 0v-2a0.50005 0.50005 0 0 0 -0.5 -0.4996h-2zm-7.3438 4-0.875 0.875c-0.39174 0.39174-0.39174 1.0458 0 1.4375l1.4062 1.4062c0.39174 0.39174 1.0458 0.39174 1.4375 0l3.7188-3.7187h-5.6875zm6 0 3.7188 3.7187c0.39174 0.39174 1.0458 0.39174 1.4375 0l1.4062-1.4062c0.39174-0.39174 0.39174-1.0458 0-1.4375l-0.875-0.875h-5.6875z"
     fill-rule="evenodd"
     id="path4"
     class="ColorScheme-ButtonBackground" />
</svg>
