<?xml version="1.0" encoding="UTF-8" standalone="no"?>
<svg
   xmlns:dc="http://purl.org/dc/elements/1.1/"
   xmlns:cc="http://creativecommons.org/ns#"
   xmlns:rdf="http://www.w3.org/1999/02/22-rdf-syntax-ns#"
   xmlns:svg="http://www.w3.org/2000/svg"
   xmlns="http://www.w3.org/2000/svg"
   xmlns:sodipodi="http://sodipodi.sourceforge.net/DTD/sodipodi-0.dtd"
   xmlns:inkscape="http://www.inkscape.org/namespaces/inkscape"
   height="22"
   width="22"
   version="1.1"
   id="svg2"
   sodipodi:docname="xfce4-whiskermenu.svg"
   inkscape:version="0.92.2 2405546, 2018-03-11">
  <metadata
     id="metadata8">
    <rdf:RDF>
      <cc:Work
         rdf:about="">
        <dc:format>image/svg+xml</dc:format>
        <dc:type
           rdf:resource="http://purl.org/dc/dcmitype/StillImage" />
      </cc:Work>
    </rdf:RDF>
  </metadata>
  <sodipodi:namedview
     pagecolor="#ffffff"
     bordercolor="#666666"
     borderopacity="1"
     objecttolerance="10"
     gridtolerance="10"
     guidetolerance="10"
     inkscape:pageopacity="0"
     inkscape:pageshadow="2"
     inkscape:window-width="1920"
     inkscape:window-height="1021"
     id="namedview6"
     showgrid="false"
     inkscape:zoom="10.727273"
     inkscape:cx="-7.2782793"
     inkscape:cy="10.81356"
     inkscape:window-x="0"
     inkscape:window-y="0"
     inkscape:window-maximized="1"
     inkscape:current-layer="svg2" />
  <defs
     id="defs8">
    <style
       type="text/css"
       id="current-color-scheme">
   .ColorScheme-Text { color:#5c616c; } .ColorScheme-Highlight { color:#5294e2; } .ColorScheme-ButtonBackground { color:#d3dae3; }
  </style>
  </defs>
  <path
     style="color:#d3dae3;fill:#3771c8;stroke-width:1.20974278"
     d="m 11.200725,1.3230512 c -0.23244,-0.00344 -0.465243,0.00194 -0.698228,0.017014 C 6.6683384,1.4837825 3.1041941,4.1585238 1.8715872,7.7885991 0.5967602,11.291047 1.5936851,15.472885 4.3243407,18.010926 c 2.6963958,2.636755 6.9862653,3.407724 10.4411693,1.911031 3.516843,-1.440562 5.971774,-5.110801 5.911771,-8.917136 h -9.68e-4 C 20.677523,9.478005 20.3146,7.9545758 19.617788,6.5993009 18.05722,3.4684865 14.686877,1.373091 11.200398,1.3217979 Z m -8.3186759,5.084791 c 0.061189,0.031444 0.1240833,0.055668 0.1795137,0.088841 0.3516843,0.2172698 1.3282976,0.6483012 1.6175471,0.7107239 0.7464234,0.1664606 2.469811,1.1265125 3.5978961,2.4194856 0.1397979,0.1567827 0.5195846,-0.4952687 1.3889058,-0.3326792 0.25107,0.026614 2.2620982,0.614138 3.0989982,0.4404189 0.28735,-0.1983978 0.300645,-0.742903 0.574446,-0.982916 0,-0.202269 -0.164355,-0.8601271 -0.166291,-0.9980378 -0.0073,-0.4838972 0.41199,-0.7401691 0.530992,-0.7135547 0.122874,0.035808 0.30984,0.014957 0.75586,1.2116784 0.130616,0.2250121 0.352386,0.3201947 0.333526,0.1067973 -0.245747,-0.8356904 -0.459073,-1.7236416 0.120938,-1.8146142 0.07933,0 0.658523,-0.3167349 0.800269,0.9384942 0.02468,0.1853326 0.02151,0.7200874 0.03117,0.90542 0.01887,0.1625894 1.479758,-0.056616 2.902536,0.9677942 0.168348,0.1098447 0.854139,0.8884352 0.168179,1.5121782 -0.462945,0.419539 -2.437753,1.515929 -2.571793,1.618031 -0.07546,0.05662 -0.177663,0.289008 -0.07558,0.499019 0.130615,0.260821 0.19253,0.173889 0.604689,0.739081 0.417483,0.565191 0.328712,0.822334 -0.332582,0.637002 -0.221068,-0.06242 -0.795769,-0.39486 -1.027967,-0.302436 -0.105453,0.04549 0.543973,0.740726 0.634922,1.01316 0.292661,0.861821 -0.695385,0.387674 -1.058199,0.19847 -0.362814,-0.191139 -0.99955,-0.591758 -1.224501,-0.606758 -0.431988,0.202269 -2.765231,0.451766 -4.851674,-0.09262 -0.1267448,0.03968 -1.1753862,1.196387 -1.2547453,1.241922 -0.6516038,0.226947 -0.1795863,-0.841135 -0.075586,-1.285352 0.053212,-0.21727 -0.073652,-0.107619 -0.1965228,-0.03213 -0.059017,0.03774 -0.4496493,0.23065 -0.6953843,0.10774 C 6.4439299,14.478156 7.2130965,13.634095 7.2963026,13.500055 7.4119177,13.339401 6.9677123,11.829884 7.9463337,10.125115 7.8461973,9.9272006 6.5742434,8.7516935 5.6334264,8.175372 4.8889386,7.7084113 3.3205191,6.9202639 2.7762558,6.6178282 2.8106029,6.5476655 2.8462794,6.4781754 2.8820769,6.4080104 Z M 18.390952,7.5400405 c 0.08321,-0.088069 0.109494,1.3214021 -0.168178,1.3780181 -0.05659,0.00919 -0.104171,-1.0852119 0.168178,-1.3780181 z M 19.17893,7.7063801 C 19.2752,7.9880083 18.613835,9.1543213 18.557243,8.9936675 18.430498,8.6234862 19.147005,7.6173431 19.17893,7.7063801 Z m -3.719717,1.7106974 c -0.05322,0.062423 -0.03234,0.5708776 0.19841,0.7107235 0.253005,0.132104 0.62084,-0.08299 0.556506,-0.09073 C 15.666043,9.970777 15.573594,9.7080206 15.4904,9.4321993 c -0.01113,-0.01113 -0.02151,-0.0248 -0.03117,-0.015122 z m 1.422899,1.3892685 c -0.347813,0.06436 -0.989993,0.480341 -0.93726,0.53115 0.08611,0.07936 1.192202,-0.497277 1.058198,-0.53115 -0.03525,-0.0057 -0.07136,-0.0074 -0.120938,0 z m 0.28723,0.36481 c -0.23607,-0.01887 -0.788027,0.654108 -0.725628,0.710724 0.08514,0.08129 0.840759,-0.701046 0.725628,-0.710724 z"
     id="path4"
     class="ColorScheme-ButtonBackground"
     inkscape:connector-curvature="0" />
</svg>
