<?xml version="1.0" encoding="UTF-8" standalone="no"?>
<svg
   xmlns:dc="http://purl.org/dc/elements/1.1/"
   xmlns:cc="http://creativecommons.org/ns#"
   xmlns:rdf="http://www.w3.org/1999/02/22-rdf-syntax-ns#"
   xmlns:svg="http://www.w3.org/2000/svg"
   xmlns="http://www.w3.org/2000/svg"
   xmlns:sodipodi="http://sodipodi.sourceforge.net/DTD/sodipodi-0.dtd"
   xmlns:inkscape="http://www.inkscape.org/namespaces/inkscape"
   height="22"
   width="22"
   version="1.1"
   id="svg9"
   sodipodi:docname="y-ppa-indicator.svg"
   inkscape:version="0.92.2 2405546, 2018-03-11">
  <metadata
     id="metadata13">
    <rdf:RDF>
      <cc:Work
         rdf:about="">
        <dc:format>image/svg+xml</dc:format>
        <dc:type
           rdf:resource="http://purl.org/dc/dcmitype/StillImage" />
      </cc:Work>
    </rdf:RDF>
  </metadata>
  <sodipodi:namedview
     pagecolor="#ffffff"
     bordercolor="#666666"
     borderopacity="1"
     objecttolerance="10"
     gridtolerance="10"
     guidetolerance="10"
     inkscape:pageopacity="0"
     inkscape:pageshadow="2"
     inkscape:window-width="1920"
     inkscape:window-height="1021"
     id="namedview11"
     showgrid="false"
     inkscape:zoom="10.727273"
     inkscape:cx="1.5847458"
     inkscape:cy="11"
     inkscape:window-x="0"
     inkscape:window-y="0"
     inkscape:window-maximized="1"
     inkscape:current-layer="svg9" />
  <defs
     id="defs3">
    <style
       type="text/css"
       id="current-color-scheme">
   .ColorScheme-Text { color:#5c616c; } .ColorScheme-Highlight { color:#5294e2; } .ColorScheme-ButtonBackground { color:#d3dae3; }
  </style>
  </defs>
  <g
     id="g7"
     style="fill:#4d4d4d">
    <path
       class="ColorScheme-ButtonBackground"
       d="M 6.53,3 C 4.5671598,3 3,4.5691747 3,6.5320149 L 3,15.469287 C 3,17.432128 4.5671598,19 6.53,19 l 8.94,0 C 17.43284,19 19,17.432128 19,15.469287 L 19,6.5320149 C 19,4.5691747 17.43284,3 15.47,3 Z M 5.001988,5.0011395 10,5 10,5.4701013 c -0.1289895,0.011999 -0.2094018,0 -0.3733884,0 -0.5399561,0.035997 -0.9379237,0.1039916 -0.9379237,0.405967 0,0.2659783 0.081993,0.5149581 0.2809771,0.7809364 L 11.47,10.53 14.125246,6.6260072 C 14.301231,6.3480299 14.375225,6.0960504 14.375225,5.9380632 14.375225,5.708082 14.18824,5.5549931 14.000256,5.47 l -0.999919,0 0,-0.4698604 3.999675,0 0,0.4698604 C 16.554048,5.505997 16.173079,5.535096 15.844106,5.8130734 15.527131,6.0790518 15.091167,6.6090086 14.56321,7.4069437 l -2.562792,4.0626693 0,4.530631 c 0.210983,0.192984 1.212902,0.518958 1.999838,0.530957 l 0,0.468962 L 8,17.000163 8,16.53 c 0.798935,-0.036 1.8120154,-0.336772 2,-0.529756 L 10,11.44 7.8755,8.1878801 C 6.9595745,6.8829863 6.356476,6.1030498 6.0625,5.8130734 5.7685239,5.523097 5.4619506,5.47 4.9999882,5.47 l 0,-0.4698604 z"
       style="fill:#4d4d4d"
       id="path5" />
  </g>
</svg>
