<?xml version="1.0" encoding="UTF-8" standalone="no"?>
<svg
   xmlns:dc="http://purl.org/dc/elements/1.1/"
   xmlns:cc="http://creativecommons.org/ns#"
   xmlns:rdf="http://www.w3.org/1999/02/22-rdf-syntax-ns#"
   xmlns:svg="http://www.w3.org/2000/svg"
   xmlns="http://www.w3.org/2000/svg"
   xmlns:sodipodi="http://sodipodi.sourceforge.net/DTD/sodipodi-0.dtd"
   xmlns:inkscape="http://www.inkscape.org/namespaces/inkscape"
   width="22"
   version="1.1"
   height="22"
   id="svg2"
   sodipodi:docname="youtube-indicator-light.svg"
   inkscape:version="0.92.2 2405546, 2018-03-11">
  <metadata
     id="metadata9">
    <rdf:RDF>
      <cc:Work
         rdf:about="">
        <dc:format>image/svg+xml</dc:format>
        <dc:type
           rdf:resource="http://purl.org/dc/dcmitype/StillImage" />
      </cc:Work>
    </rdf:RDF>
  </metadata>
  <sodipodi:namedview
     pagecolor="#ffffff"
     bordercolor="#666666"
     borderopacity="1"
     objecttolerance="10"
     gridtolerance="10"
     guidetolerance="10"
     inkscape:pageopacity="0"
     inkscape:pageshadow="2"
     inkscape:window-width="901"
     inkscape:window-height="480"
     id="namedview7"
     showgrid="false"
     inkscape:zoom="10.727273"
     inkscape:cx="11"
     inkscape:cy="11"
     inkscape:window-x="0"
     inkscape:window-y="0"
     inkscape:window-maximized="0"
     inkscape:current-layer="svg2" />
  <defs
     id="defs10">
    <style
       type="text/css"
       id="current-color-scheme">
   .ColorScheme-Text { color:#5c616c; } .ColorScheme-Highlight { color:#5294e2; } .ColorScheme-ButtonBackground { color:#d3dae3; }
  </style>
  </defs>
  <g
     transform="translate(0 -1030.4)"
     id="g4"
     style="fill:#4d4d4d">
    <path
       style="fill:#4d4d4d"
       d="m10.998 1034.4s-3.7785 0.0006-6.2969 0.1895c-0.35178 0.044-1.1182 0.048-1.8027 0.791-0.53956 0.5664-0.71484 1.8515-0.71484 1.8515s-0.17709 1.511-0.17969 3.0215l-0.0039 2.2871c-0.0026 1.5106 0.17969 3.0215 0.17969 3.0215s0.17528 1.2851 0.71484 1.8516c0.68457 0.7435 1.5839 0.7209 1.9844 0.7988 1.4397 0.1432 6.1191 0.1875 6.1191 0.1875s3.7805-0.01 6.2988-0.1953c0.35176-0.044 1.1204-0.048 1.8047-0.791 0.53961-0.5665 0.71484-1.8516 0.71484-1.8516s0.17709-1.5109 0.17969-3.0215l0.0039-2.2871c0.0026-1.5105-0.17969-3.0215-0.17969-3.0215s-0.17524-1.2851-0.71484-1.8515c-0.68432-0.7435-1.4529-0.7475-1.8047-0.791-2.5183-0.1889-6.2949-0.1895-6.2949-0.1895h-0.0078zm-2.998 3 6 4.0137-6 3.9863v-8z"
       id="path6"
       class="ColorScheme-ButtonBackground" />
  </g>
</svg>
