<?xml version="1.0" encoding="UTF-8" standalone="no"?>
<svg
   xmlns:dc="http://purl.org/dc/elements/1.1/"
   xmlns:cc="http://creativecommons.org/ns#"
   xmlns:rdf="http://www.w3.org/1999/02/22-rdf-syntax-ns#"
   xmlns:svg="http://www.w3.org/2000/svg"
   xmlns="http://www.w3.org/2000/svg"
   xmlns:sodipodi="http://sodipodi.sourceforge.net/DTD/sodipodi-0.dtd"
   xmlns:inkscape="http://www.inkscape.org/namespaces/inkscape"
   height="22"
   width="22"
   version="1.1"
   id="svg2"
   sodipodi:docname="youtube-indicator-downloading-light.svg"
   inkscape:version="0.92.2 2405546, 2018-03-11">
  <metadata
     id="metadata10">
    <rdf:RDF>
      <cc:Work
         rdf:about="">
        <dc:format>image/svg+xml</dc:format>
        <dc:type
           rdf:resource="http://purl.org/dc/dcmitype/StillImage" />
      </cc:Work>
    </rdf:RDF>
  </metadata>
  <sodipodi:namedview
     pagecolor="#ffffff"
     bordercolor="#666666"
     borderopacity="1"
     objecttolerance="10"
     gridtolerance="10"
     guidetolerance="10"
     inkscape:pageopacity="0"
     inkscape:pageshadow="2"
     inkscape:window-width="901"
     inkscape:window-height="480"
     id="namedview8"
     showgrid="false"
     inkscape:zoom="10.727273"
     inkscape:cx="11"
     inkscape:cy="11"
     inkscape:window-x="0"
     inkscape:window-y="0"
     inkscape:window-maximized="0"
     inkscape:current-layer="svg2" />
  <defs
     id="defs12">
    <style
       type="text/css"
       id="current-color-scheme">
   .ColorScheme-Text { color:#5c616c; } .ColorScheme-Highlight { color:#5294e2; } .ColorScheme-ButtonBackground { color:#d3dae3; }
  </style>
  </defs>
  <g
     transform="translate(0 -1030.4)"
     id="g4"
     style="fill:#4d4d4d">
    <path
       style="fill:#4d4d4d"
       d="m10.998 4s-3.7785 0.0005531-6.2969 0.18945c-0.35178 0.044-1.1182 0.048016-1.8027 0.79102-0.53956 0.5664-0.71484 1.8516-0.71484 1.8516s-0.17709 1.511-0.17969 3.0215l-0.0039 2.2874c-0.0026 1.5106 0.17969 3.0215 0.17969 3.0215s0.17528 1.2851 0.71484 1.8516c0.68457 0.7435 1.5839 0.72093 1.9844 0.79883 1.4397 0.143 6.1191 0.187 6.1191 0.187s2.7662-0.01494 5.1504-0.13477l-0.949-1.265c-0.494-0.66-0.023-1.6 0.801-1.6h1v-3.1191c0-0.40658 0.08709-0.78972 0.30078-1.1426 0.213-0.353 0.642-0.738 1.232-0.738h0.93359c0.19921 0 0.37296 0.05334 0.5332 0.125v-0.27148c0.0026-1.5105-0.17969-3.0215-0.17969-3.0215s-0.17524-1.2852-0.71484-1.8516c-0.684-0.7434-1.452-0.7474-1.804-0.7909-2.518-0.1889-6.295-0.1895-6.295-0.1895zm-2.998 3 6 4.014-6 3.986z"
       transform="translate(-9.5367e-7 1030.4)"
       id="path6"
       class="ColorScheme-ButtonBackground" />
  </g>
  <path
     style="fill:#4d4d4d"
     d="m18.533 11c-0.295 0-0.533 0.392-0.533 0.881v4.119h-2l1.5 2 1.5 2 1.5-2 1.5-2h-2v-4.119c0-0.489-0.238-0.881-0.533-0.881h-0.934z"
     id="path8"
     class="ColorScheme-ButtonBackground" />
</svg>
