<?xml version="1.0" encoding="UTF-8"?>
<svg xmlns="http://www.w3.org/2000/svg" xmlns:xlink="http://www.w3.org/1999/xlink" width="16px" height="16px" viewBox="0 0 16 16" version="1.1">
<g id="surface1">
<path style=" stroke:none;fill-rule:nonzero;fill:rgb(87.058824%,33.333334%,25.882354%);fill-opacity:1;" d="M 2.148438 0.242188 L 10.355469 0.242188 L 14.707031 4.574219 L 14.707031 14.730469 C 14.707031 15.265625 14.273438 15.695312 13.738281 15.695312 L 2.148438 15.695312 C 1.613281 15.695312 1.183594 15.265625 1.183594 14.730469 L 1.183594 1.207031 C 1.183594 0.671875 1.613281 0.242188 2.148438 0.242188 Z M 2.148438 0.242188 "/>
<path style=" stroke:none;fill-rule:nonzero;fill:rgb(68.235296%,28.235295%,27.058825%);fill-opacity:1;" d="M 14.691406 4.585938 L 11.324219 4.585938 C 10.792969 4.585938 10.359375 4.15625 10.359375 3.621094 L 10.359375 0.25 Z M 14.691406 4.585938 "/>
<path style="fill:none;stroke-width:0.15;stroke-linecap:round;stroke-linejoin:round;stroke:rgb(0%,0%,0%);stroke-opacity:1;stroke-miterlimit:4;" d="M 6.445312 0.726562 L 31.066406 0.726562 L 44.121094 13.722656 L 44.121094 44.191406 C 44.121094 45.796875 42.820312 47.085938 41.214844 47.085938 L 6.445312 47.085938 C 4.839844 47.085938 3.550781 45.796875 3.550781 44.191406 L 3.550781 3.621094 C 3.550781 2.015625 4.839844 0.726562 6.445312 0.726562 Z M 6.445312 0.726562 " transform="matrix(0.333333,0,0,0.333333,0,0)"/>
<path style=" stroke:none;fill-rule:nonzero;fill:rgb(100%,100%,100%);fill-opacity:1;" d="M 7.671875 4.199219 C 7.441406 4.167969 7.410156 4.382812 7.433594 4.554688 C 7.429688 6.269531 7.4375 7.980469 7.429688 9.691406 C 7.375 9.75 7.265625 9.652344 7.195312 9.679688 C 6.414062 9.632812 5.5625 10.199219 5.484375 11.015625 C 5.394531 11.667969 6.078125 12.203125 6.691406 12.101562 C 7.460938 12.019531 8.058594 11.242188 7.960938 10.472656 C 7.960938 9.117188 7.957031 7.757812 7.964844 6.402344 C 8.015625 6.34375 8.09375 6.472656 8.148438 6.476562 C 8.769531 6.847656 9.316406 7.453125 9.351562 8.207031 C 9.394531 8.796875 9.214844 9.375 9.015625 9.921875 C 9.6875 9.09375 9.902344 7.882812 9.433594 6.902344 C 9.195312 6.335938 8.660156 5.984375 8.359375 5.457031 C 8.136719 5.105469 7.964844 4.710938 7.914062 4.292969 C 7.871094 4.207031 7.753906 4.195312 7.671875 4.199219 Z M 7.671875 4.199219 "/>
</g>
</svg>
