<?xml version="1.0" encoding="UTF-8"?>
<svg xmlns="http://www.w3.org/2000/svg" xmlns:xlink="http://www.w3.org/1999/xlink" width="16px" height="16px" viewBox="0 0 16 16" version="1.1">
<g id="surface1">
<path style="fill:none;stroke-width:1.001992;stroke-linecap:round;stroke-linejoin:round;stroke:rgb(0%,0%,0%);stroke-opacity:1;stroke-miterlimit:4;" d="M 38.695004 -0.0331879 L 202.854107 -0.0331879 L 289.960503 86.68948 L 289.960503 289.912155 C 289.960503 300.579811 281.288236 309.252077 270.62058 309.252077 L 38.695004 309.252077 C 27.950603 309.252077 19.355082 300.579811 19.355082 289.912155 L 19.355082 19.306734 C 19.355082 8.639079 28.027349 -0.0331879 38.695004 -0.0331879 Z M 38.695004 -0.0331879 " transform="matrix(0.0508986,0,0,0.0508986,0.36251,0.154033)"/>
<path style=" stroke:none;fill-rule:nonzero;fill:rgb(21.568628%,44.313726%,78.431374%);fill-opacity:1;" d="M 2.332031 0.152344 L 10.6875 0.152344 L 15.121094 4.566406 L 15.121094 14.910156 C 15.121094 15.453125 14.679688 15.894531 14.136719 15.894531 L 2.332031 15.894531 C 1.785156 15.894531 1.347656 15.453125 1.347656 14.910156 L 1.347656 1.136719 C 1.347656 0.59375 1.789062 0.152344 2.332031 0.152344 Z M 2.332031 0.152344 "/>
<path style=" stroke:none;fill-rule:nonzero;fill:rgb(100%,100%,100%);fill-opacity:1;" d="M 4.761719 6.992188 L 3.890625 6.992188 C 3.644531 6.992188 3.507812 7.144531 3.507812 7.375 L 3.507812 10.136719 C 3.507812 10.382812 3.664062 10.523438 3.875 10.523438 C 4.085938 10.523438 4.242188 10.382812 4.242188 10.136719 L 4.242188 9.332031 L 4.789062 9.332031 C 5.464844 9.332031 6.019531 8.882812 6.019531 8.167969 C 6.019531 7.464844 5.484375 6.992188 4.761719 6.992188 Z M 4.746094 8.683594 L 4.242188 8.683594 L 4.242188 7.640625 L 4.746094 7.640625 C 5.054688 7.640625 5.25 7.867188 5.25 8.164062 C 5.25 8.457031 5.054688 8.683594 4.746094 8.683594 Z M 7.707031 7.960938 C 7.707031 7.753906 7.898438 7.640625 8.109375 7.640625 C 8.40625 7.640625 8.5625 7.789062 8.761719 7.789062 C 8.964844 7.789062 9.09375 7.617188 9.09375 7.425781 C 9.09375 7.035156 8.40625 6.933594 8.128906 6.933594 C 7.476562 6.933594 6.910156 7.359375 6.910156 8.050781 C 6.910156 9.191406 8.550781 8.839844 8.550781 9.421875 C 8.550781 9.664062 8.375 9.84375 8.050781 9.84375 C 7.730469 9.84375 7.453125 9.652344 7.222656 9.652344 C 7.023438 9.652344 6.894531 9.808594 6.894531 10 C 6.894531 10.464844 7.710938 10.550781 8.089844 10.550781 C 8.765625 10.550781 9.347656 10.113281 9.347656 9.410156 C 9.347656 8.144531 7.707031 8.464844 7.707031 7.960938 Z M 7.707031 7.960938 "/>
<path style=" stroke:none;fill-rule:nonzero;fill:rgb(12.941177%,26.666668%,47.058824%);fill-opacity:1;" d="M 15.105469 4.582031 L 11.675781 4.582031 C 11.132812 4.582031 10.691406 4.140625 10.691406 3.597656 L 10.691406 0.164062 Z M 15.105469 4.582031 "/>
<path style=" stroke:none;fill-rule:nonzero;fill:rgb(100%,100%,100%);fill-opacity:1;" d="M 11.476562 7 C 11.933594 7 12.363281 7.210938 12.761719 7.636719 C 13.03125 7.992188 13.167969 8.339844 13.167969 8.6875 L 13.167969 8.855469 C 13.167969 9.316406 12.957031 9.742188 12.53125 10.136719 C 12.171875 10.40625 11.820312 10.542969 11.476562 10.542969 L 10.613281 10.542969 C 10.457031 10.542969 10.335938 10.433594 10.25 10.210938 L 10.25 7.363281 C 10.25 7.207031 10.359375 7.085938 10.582031 7 Z M 11.09375 7.832031 L 11.09375 8.824219 L 11.082031 9.710938 C 11.511719 9.710938 11.773438 9.664062 11.867188 9.570312 C 12.167969 9.375 12.320312 9.125 12.320312 8.8125 L 12.320312 8.730469 C 12.320312 8.371094 12.121094 8.09375 11.726562 7.898438 C 11.617188 7.855469 11.441406 7.832031 11.199219 7.832031 Z M 11.09375 7.832031 "/>
</g>
</svg>
