<?xml version="1.0" encoding="UTF-8"?>
<svg xmlns="http://www.w3.org/2000/svg" xmlns:xlink="http://www.w3.org/1999/xlink" width="16px" height="16px" viewBox="0 0 16 16" version="1.1">
<g id="surface1">
<path style=" stroke:none;fill-rule:nonzero;fill:rgb(88.627452%,34.117648%,29.803923%);fill-opacity:1;" d="M 2.148438 0.242188 L 10.355469 0.242188 L 14.707031 4.574219 L 14.707031 14.730469 C 14.707031 15.265625 14.273438 15.695312 13.738281 15.695312 L 2.148438 15.695312 C 1.613281 15.695312 1.183594 15.265625 1.183594 14.730469 L 1.183594 1.207031 C 1.183594 0.671875 1.613281 0.242188 2.148438 0.242188 Z M 2.148438 0.242188 "/>
<path style="fill-rule:nonzero;fill:rgb(70.980394%,21.176471%,16.078432%);fill-opacity:1;stroke-width:0.149924;stroke-linecap:butt;stroke-linejoin:miter;stroke:rgb(0%,0%,0%);stroke-opacity:1;stroke-miterlimit:4;" d="M 44.074219 13.757812 L 33.972656 13.757812 C 32.378906 13.757812 31.078125 12.46875 31.078125 10.863281 L 31.078125 0.75 Z M 44.074219 13.757812 " transform="matrix(0.333333,0,0,0.333333,0,0)"/>
<path style="fill:none;stroke-width:0.15;stroke-linecap:round;stroke-linejoin:round;stroke:rgb(0%,0%,0%);stroke-opacity:1;stroke-miterlimit:4;" d="M 6.445312 0.726562 L 31.066406 0.726562 L 44.121094 13.722656 L 44.121094 44.191406 C 44.121094 45.796875 42.820312 47.085938 41.214844 47.085938 L 6.445312 47.085938 C 4.839844 47.085938 3.550781 45.796875 3.550781 44.191406 L 3.550781 3.621094 C 3.550781 2.015625 4.839844 0.726562 6.445312 0.726562 Z M 6.445312 0.726562 " transform="matrix(0.333333,0,0,0.333333,0,0)"/>
<path style=" stroke:none;fill-rule:nonzero;fill:rgb(100%,100%,100%);fill-opacity:1;" d="M 6.523438 6.992188 L 5.652344 6.992188 C 5.40625 6.992188 5.269531 7.144531 5.269531 7.375 L 5.269531 10.136719 C 5.269531 10.382812 5.425781 10.523438 5.636719 10.523438 C 5.847656 10.523438 6.007812 10.382812 6.007812 10.136719 L 6.007812 9.332031 L 6.550781 9.332031 C 7.226562 9.332031 7.78125 8.882812 7.78125 8.167969 C 7.78125 7.464844 7.246094 6.992188 6.523438 6.992188 Z M 6.507812 8.683594 L 6.007812 8.683594 L 6.007812 7.640625 L 6.507812 7.640625 C 6.820312 7.640625 7.015625 7.867188 7.015625 8.164062 C 7.015625 8.457031 6.820312 8.683594 6.507812 8.683594 Z M 9.46875 7.960938 C 9.46875 7.753906 9.660156 7.640625 9.871094 7.640625 C 10.167969 7.640625 10.324219 7.789062 10.527344 7.789062 C 10.726562 7.789062 10.855469 7.617188 10.855469 7.425781 C 10.855469 7.035156 10.167969 6.933594 9.890625 6.933594 C 9.238281 6.933594 8.671875 7.359375 8.671875 8.050781 C 8.671875 9.191406 10.316406 8.839844 10.316406 9.421875 C 10.316406 9.664062 10.136719 9.84375 9.8125 9.84375 C 9.492188 9.84375 9.21875 9.652344 8.984375 9.652344 C 8.785156 9.652344 8.65625 9.808594 8.65625 10 C 8.65625 10.464844 9.472656 10.550781 9.851562 10.550781 C 10.53125 10.550781 11.113281 10.113281 11.113281 9.410156 C 11.113281 8.144531 9.46875 8.464844 9.46875 7.960938 Z M 9.46875 7.960938 "/>
</g>
</svg>
