<?xml version="1.0" encoding="UTF-8"?>
<svg xmlns="http://www.w3.org/2000/svg" xmlns:xlink="http://www.w3.org/1999/xlink" width="16px" height="16px" viewBox="0 0 16 16" version="1.1">
<g id="surface1">
<path style="fill-rule:nonzero;fill:rgb(50.196081%,50.196081%,50.196081%);fill-opacity:1;stroke-width:0.999669;stroke-linecap:round;stroke-linejoin:round;stroke:rgb(0%,0%,0%);stroke-opacity:1;stroke-miterlimit:4;" d="M 38.633029 0.00788246 L 202.872453 0.00788246 L 289.963278 86.71335 L 289.963278 289.950966 C 289.963278 300.586836 281.254195 309.295919 270.618324 309.295919 L 38.633029 309.295919 C 27.997159 309.295919 19.365148 300.586836 19.365148 289.950966 L 19.365148 19.352836 C 19.365148 8.639893 27.997159 0.00788246 38.633029 0.00788246 Z M 38.633029 0.00788246 " transform="matrix(0.0506834,0,0,0.0506834,0.452101,0.202725)"/>
<path style=" stroke:none;fill-rule:nonzero;fill:rgb(50.196081%,50.196081%,50.196081%);fill-opacity:1;" d="M 2.410156 0.203125 L 10.734375 0.203125 L 15.148438 4.597656 L 15.148438 14.898438 C 15.148438 15.4375 14.707031 15.878906 14.167969 15.878906 L 2.410156 15.878906 C 1.871094 15.878906 1.433594 15.4375 1.433594 14.898438 L 1.433594 1.183594 C 1.433594 0.640625 1.871094 0.203125 2.410156 0.203125 Z M 2.410156 0.203125 "/>
<path style="fill-rule:nonzero;fill:rgb(30.19608%,30.19608%,30.19608%);fill-opacity:1;stroke-width:1;stroke-linecap:butt;stroke-linejoin:miter;stroke:rgb(0%,0%,0%);stroke-opacity:1;stroke-miterlimit:4;" d="M 289.654992 86.944564 L 222.294477 86.944564 C 211.581535 86.944564 202.949524 78.312553 202.949524 67.676683 L 202.949524 0.162026 Z M 289.654992 86.944564 " transform="matrix(0.0506834,0,0,0.0506834,0.452101,0.202725)"/>
<path style=" stroke:none;fill-rule:nonzero;fill:rgb(94.901961%,94.901961%,94.901961%);fill-opacity:1;" d="M 5.667969 4.652344 L 10.667969 4.652344 L 10.667969 5.984375 L 10 5.316406 L 6.667969 5.316406 L 8.667969 7.316406 L 6.667969 9.316406 L 10 9.316406 L 10.667969 8.652344 L 10.667969 9.984375 L 5.667969 9.984375 L 5.667969 9.316406 L 7.667969 7.316406 L 5.667969 5.316406 Z M 5.667969 4.652344 "/>
<path style=" stroke:none;fill-rule:nonzero;fill:rgb(94.901961%,94.901961%,94.901961%);fill-opacity:1;" d="M 5.667969 10.644531 L 6 11.121094 L 5.667969 11.644531 L 6 11.644531 L 6.15625 11.308594 L 6.332031 11.644531 L 6.667969 11.644531 L 6.332031 11.121094 L 6.667969 10.644531 L 6.332031 10.644531 L 6.167969 10.976562 L 6 10.644531 Z M 7 10.644531 L 7 10.976562 L 6.667969 10.976562 L 6.667969 11.308594 L 7 11.308594 L 7 11.644531 L 7.332031 11.644531 L 7.332031 11.308594 L 7.667969 11.308594 L 7.667969 10.976562 L 7.332031 10.976562 L 7.332031 10.644531 Z M 7.667969 10.644531 L 8 11.308594 L 8 11.644531 L 7.667969 11.644531 L 7.667969 11.976562 L 8 11.976562 L 8.332031 11.644531 L 8.332031 11.308594 L 8.667969 10.644531 L 8.332031 10.644531 L 8.167969 10.976562 L 8 10.644531 Z M 8.832031 10.644531 L 8.832031 10.976562 L 9.332031 10.976562 L 9.332031 10.644531 Z M 9.667969 10.644531 L 9.667969 10.976562 L 10.167969 10.976562 L 9.667969 11.308594 L 9.667969 11.644531 L 10.667969 11.644531 L 10.667969 11.308594 L 10.167969 11.308594 L 10.667969 10.976562 L 10.667969 10.644531 Z M 8.832031 11.308594 L 8.84375 11.644531 L 9.332031 11.644531 L 9.332031 11.308594 Z M 8.832031 11.308594 "/>
</g>
</svg>
