<?xml version="1.0" encoding="UTF-8"?>
<svg xmlns="http://www.w3.org/2000/svg" xmlns:xlink="http://www.w3.org/1999/xlink" width="16px" height="16px" viewBox="0 0 16 16" version="1.1">
<g id="surface1">
<path style=" stroke:none;fill-rule:nonzero;fill:rgb(90.196079%,90.196079%,90.196079%);fill-opacity:1;" d="M 2.148438 0.242188 L 10.355469 0.242188 L 14.707031 4.574219 L 14.707031 14.730469 C 14.707031 15.265625 14.273438 15.695312 13.738281 15.695312 L 2.148438 15.695312 C 1.613281 15.695312 1.183594 15.265625 1.183594 14.730469 L 1.183594 1.207031 C 1.183594 0.671875 1.613281 0.242188 2.148438 0.242188 Z M 2.148438 0.242188 "/>
<path style=" stroke:none;fill-rule:nonzero;fill:rgb(40.000001%,40.000001%,40.000001%);fill-opacity:1;" d="M 9.765625 8.292969 L 10.089844 8.292969 L 10.007812 8.527344 L 9.679688 8.527344 Z M 9.015625 9 L 8.835938 9.515625 C 8.8125 9.578125 8.816406 9.636719 8.847656 9.695312 C 8.875 9.753906 8.917969 9.792969 8.980469 9.816406 C 9.007812 9.824219 9.03125 9.828125 9.058594 9.828125 C 9.171875 9.828125 9.246094 9.777344 9.28125 9.671875 L 9.515625 9 L 9.84375 9 L 9.664062 9.515625 C 9.640625 9.578125 9.644531 9.636719 9.671875 9.695312 C 9.703125 9.753906 9.746094 9.792969 9.808594 9.816406 C 9.835938 9.824219 9.859375 9.828125 9.886719 9.828125 C 10 9.828125 10.074219 9.777344 10.109375 9.671875 L 10.34375 9 L 10.773438 9 C 10.839844 9 10.894531 8.976562 10.941406 8.933594 C 10.984375 8.886719 11.007812 8.832031 11.007812 8.765625 C 11.007812 8.699219 10.984375 8.644531 10.941406 8.597656 C 10.894531 8.550781 10.839844 8.527344 10.773438 8.527344 L 10.507812 8.527344 L 10.59375 8.292969 L 10.890625 8.292969 C 10.957031 8.292969 11.011719 8.269531 11.058594 8.222656 C 11.105469 8.175781 11.128906 8.121094 11.128906 8.058594 C 11.128906 7.992188 11.105469 7.933594 11.058594 7.890625 C 11.011719 7.84375 10.957031 7.820312 10.890625 7.820312 L 10.757812 7.820312 L 10.9375 7.308594 C 10.960938 7.246094 10.957031 7.183594 10.925781 7.125 C 10.898438 7.066406 10.855469 7.027344 10.792969 7.003906 C 10.730469 6.984375 10.671875 6.988281 10.613281 7.015625 C 10.554688 7.042969 10.511719 7.089844 10.492188 7.152344 L 10.257812 7.820312 L 9.929688 7.820312 L 10.109375 7.308594 C 10.132812 7.246094 10.128906 7.183594 10.101562 7.125 C 10.070312 7.066406 10.027344 7.027344 9.964844 7.003906 C 9.902344 6.984375 9.84375 6.988281 9.785156 7.015625 C 9.726562 7.042969 9.683594 7.089844 9.664062 7.152344 L 9.429688 7.820312 L 9 7.820312 C 8.933594 7.820312 8.878906 7.84375 8.832031 7.890625 C 8.789062 7.933594 8.765625 7.992188 8.765625 8.058594 C 8.765625 8.121094 8.789062 8.175781 8.832031 8.222656 C 8.878906 8.269531 8.933594 8.292969 9 8.292969 L 9.265625 8.292969 L 9.179688 8.527344 L 8.882812 8.527344 C 8.816406 8.527344 8.761719 8.550781 8.714844 8.597656 C 8.667969 8.644531 8.644531 8.699219 8.644531 8.765625 C 8.644531 8.832031 8.667969 8.886719 8.714844 8.933594 C 8.761719 8.976562 8.816406 9 8.882812 9 Z M 9.015625 9 "/>
<path style="fill-rule:nonzero;fill:rgb(60.000002%,60.000002%,60.000002%);fill-opacity:1;stroke-width:0.149924;stroke-linecap:butt;stroke-linejoin:miter;stroke:rgb(0%,0%,0%);stroke-opacity:1;stroke-miterlimit:4;" d="M 44.074219 13.757812 L 33.972656 13.757812 C 32.378906 13.757812 31.078125 12.46875 31.078125 10.863281 L 31.078125 0.75 Z M 44.074219 13.757812 " transform="matrix(0.333333,0,0,0.333333,0,0)"/>
<path style="fill:none;stroke-width:0.15;stroke-linecap:round;stroke-linejoin:round;stroke:rgb(0%,0%,0%);stroke-opacity:1;stroke-miterlimit:4;" d="M 6.445312 0.726562 L 31.066406 0.726562 L 44.121094 13.722656 L 44.121094 44.191406 C 44.121094 45.796875 42.820312 47.085938 41.214844 47.085938 L 6.445312 47.085938 C 4.839844 47.085938 3.550781 45.796875 3.550781 44.191406 L 3.550781 3.621094 C 3.550781 2.015625 4.839844 0.726562 6.445312 0.726562 Z M 6.445312 0.726562 " transform="matrix(0.333333,0,0,0.333333,0,0)"/>
<path style=" stroke:none;fill-rule:nonzero;fill:rgb(40.000001%,40.000001%,40.000001%);fill-opacity:1;" d="M 6.40625 10.519531 C 7 10.519531 7.511719 10.308594 7.933594 9.886719 C 8.003906 9.816406 8.039062 9.734375 8.039062 9.632812 C 8.039062 9.535156 8.003906 9.449219 7.933594 9.378906 C 7.863281 9.308594 7.777344 9.273438 7.679688 9.273438 C 7.578125 9.273438 7.492188 9.308594 7.421875 9.378906 C 7.140625 9.660156 6.804688 9.800781 6.40625 9.800781 C 6.007812 9.800781 5.664062 9.660156 5.386719 9.378906 C 5.105469 9.097656 4.964844 8.757812 4.964844 8.359375 C 4.964844 7.960938 5.105469 7.621094 5.386719 7.339844 C 5.664062 7.0625 6.007812 6.921875 6.40625 6.921875 C 6.804688 6.921875 7.140625 7.0625 7.421875 7.339844 C 7.492188 7.410156 7.578125 7.445312 7.679688 7.445312 C 7.777344 7.445312 7.863281 7.410156 7.933594 7.339844 C 8.003906 7.269531 8.039062 7.1875 8.039062 7.085938 C 8.039062 6.988281 8.003906 6.902344 7.933594 6.832031 C 7.511719 6.410156 7 6.199219 6.40625 6.199219 C 5.808594 6.199219 5.296875 6.410156 4.875 6.832031 C 4.453125 7.253906 4.242188 7.761719 4.242188 8.359375 C 4.242188 8.957031 4.453125 9.46875 4.875 9.886719 C 5.296875 10.308594 5.808594 10.519531 6.40625 10.519531 Z M 6.40625 10.519531 "/>
</g>
</svg>
