<?xml version="1.0" encoding="UTF-8"?>
<svg xmlns="http://www.w3.org/2000/svg" xmlns:xlink="http://www.w3.org/1999/xlink" width="16px" height="16px" viewBox="0 0 16 16" version="1.1">
<g id="surface1">
<path style=" stroke:none;fill-rule:nonzero;fill:rgb(90.196079%,90.196079%,90.196079%);fill-opacity:1;" d="M 2.148438 0.242188 L 10.355469 0.242188 L 14.707031 4.574219 L 14.707031 14.730469 C 14.707031 15.265625 14.273438 15.695312 13.738281 15.695312 L 2.148438 15.695312 C 1.613281 15.695312 1.183594 15.265625 1.183594 14.730469 L 1.183594 1.207031 C 1.183594 0.671875 1.613281 0.242188 2.148438 0.242188 Z M 2.148438 0.242188 "/>
<path style=" stroke:none;fill-rule:nonzero;fill:rgb(40.000001%,40.000001%,40.000001%);fill-opacity:1;" d="M 4.988281 7.296875 C 5.25 7.296875 5.488281 7.433594 5.699219 7.703125 C 5.796875 7.867188 5.84375 8.019531 5.84375 8.15625 L 5.84375 8.242188 C 5.84375 8.511719 5.707031 8.75 5.4375 8.957031 C 5.269531 9.054688 5.121094 9.101562 4.988281 9.101562 L 4.648438 9.101562 L 4.648438 9.414062 C 4.648438 9.617188 4.613281 9.734375 4.542969 9.769531 C 4.542969 9.796875 4.488281 9.820312 4.378906 9.851562 L 4.300781 9.851562 C 4.191406 9.851562 4.101562 9.769531 4.042969 9.613281 L 4.042969 7.558594 C 4.042969 7.445312 4.121094 7.359375 4.28125 7.296875 Z M 4.648438 7.898438 L 4.648438 8.488281 L 4.980469 8.488281 C 5.089844 8.488281 5.171875 8.414062 5.234375 8.257812 L 5.234375 8.164062 C 5.234375 8.050781 5.15625 7.964844 5.003906 7.90625 L 4.84375 7.898438 Z M 4.648438 7.898438 "/>
<path style=" stroke:none;fill-rule:nonzero;fill:rgb(40.000001%,40.000001%,40.000001%);fill-opacity:1;" d="M 7.753906 7.296875 C 7.867188 7.296875 7.957031 7.378906 8.019531 7.535156 L 8.019531 7.636719 C 8.019531 7.75 7.941406 7.835938 7.777344 7.898438 L 7.132812 7.90625 L 6.824219 7.90625 L 6.824219 8.273438 L 7.605469 8.273438 C 7.71875 8.273438 7.808594 8.355469 7.871094 8.511719 L 7.871094 8.613281 C 7.871094 8.726562 7.789062 8.8125 7.628906 8.875 L 7.472656 8.882812 L 6.824219 8.882812 L 6.824219 9.25 L 7.574219 9.242188 L 7.621094 9.242188 C 7.828125 9.242188 7.949219 9.304688 7.992188 9.421875 C 8 9.421875 8.011719 9.453125 8.019531 9.511719 L 8.019531 9.589844 C 8.019531 9.703125 7.941406 9.789062 7.777344 9.851562 L 6.480469 9.851562 C 6.367188 9.851562 6.28125 9.769531 6.21875 9.613281 L 6.21875 7.558594 C 6.21875 7.445312 6.296875 7.359375 6.457031 7.296875 Z M 7.753906 7.296875 "/>
<path style=" stroke:none;fill-rule:nonzero;fill:rgb(40.000001%,40.000001%,40.000001%);fill-opacity:1;" d="M 9.339844 7.296875 C 9.605469 7.296875 9.84375 7.433594 10.050781 7.703125 C 10.148438 7.867188 10.199219 8.019531 10.199219 8.15625 L 10.199219 8.242188 C 10.199219 8.523438 10.050781 8.765625 9.753906 8.976562 C 10.039062 9.246094 10.183594 9.40625 10.183594 9.449219 C 10.191406 9.472656 10.199219 9.5 10.199219 9.535156 L 10.199219 9.566406 C 10.199219 9.699219 10.117188 9.792969 9.957031 9.851562 L 9.882812 9.851562 C 9.777344 9.851562 9.652344 9.761719 9.507812 9.589844 L 9.011719 9.101562 L 9.003906 9.101562 L 9.003906 9.414062 C 9.003906 9.617188 8.96875 9.734375 8.898438 9.769531 C 8.898438 9.796875 8.84375 9.820312 8.734375 9.851562 L 8.65625 9.851562 C 8.542969 9.851562 8.457031 9.769531 8.394531 9.613281 L 8.394531 7.558594 C 8.394531 7.445312 8.476562 7.359375 8.632812 7.296875 Z M 9.003906 7.898438 L 9.003906 8.488281 L 9.332031 8.488281 C 9.445312 8.488281 9.527344 8.414062 9.585938 8.257812 L 9.585938 8.164062 C 9.585938 8.050781 9.511719 7.964844 9.355469 7.90625 L 9.199219 7.898438 Z M 9.003906 7.898438 "/>
<path style=" stroke:none;fill-rule:nonzero;fill:rgb(40.000001%,40.000001%,40.000001%);fill-opacity:1;" d="M 10.910156 7.296875 C 11.003906 7.296875 11.085938 7.363281 11.15625 7.492188 L 11.179688 7.628906 L 11.171875 9.242188 L 11.171875 9.25 L 12.109375 9.25 C 12.222656 9.25 12.3125 9.328125 12.375 9.488281 L 12.375 9.589844 C 12.375 9.703125 12.292969 9.789062 12.132812 9.851562 L 10.835938 9.851562 C 10.722656 9.851562 10.632812 9.769531 10.574219 9.613281 L 10.574219 7.558594 C 10.574219 7.445312 10.652344 7.359375 10.8125 7.296875 Z M 10.910156 7.296875 "/>
<path style="fill-rule:nonzero;fill:rgb(60.000002%,60.000002%,60.000002%);fill-opacity:1;stroke-width:0.149924;stroke-linecap:butt;stroke-linejoin:miter;stroke:rgb(0%,0%,0%);stroke-opacity:1;stroke-miterlimit:4;" d="M 44.074219 13.757812 L 33.972656 13.757812 C 32.378906 13.757812 31.078125 12.46875 31.078125 10.863281 L 31.078125 0.75 Z M 44.074219 13.757812 " transform="matrix(0.333333,0,0,0.333333,0,0)"/>
<path style="fill:none;stroke-width:0.15;stroke-linecap:round;stroke-linejoin:round;stroke:rgb(0%,0%,0%);stroke-opacity:1;stroke-miterlimit:4;" d="M 6.445312 0.726562 L 31.066406 0.726562 L 44.121094 13.722656 L 44.121094 44.191406 C 44.121094 45.796875 42.820312 47.085938 41.214844 47.085938 L 6.445312 47.085938 C 4.839844 47.085938 3.550781 45.796875 3.550781 44.191406 L 3.550781 3.621094 C 3.550781 2.015625 4.839844 0.726562 6.445312 0.726562 Z M 6.445312 0.726562 " transform="matrix(0.333333,0,0,0.333333,0,0)"/>
</g>
</svg>
