<?xml version="1.0" encoding="UTF-8"?>
<svg xmlns="http://www.w3.org/2000/svg" xmlns:xlink="http://www.w3.org/1999/xlink" width="16px" height="16px" viewBox="0 0 16 16" version="1.1">
<g id="surface1">
<path style=" stroke:none;fill-rule:nonzero;fill:rgb(90.196079%,90.196079%,90.196079%);fill-opacity:1;" d="M 2.148438 0.242188 L 10.355469 0.242188 L 14.707031 4.574219 L 14.707031 14.730469 C 14.707031 15.265625 14.273438 15.695312 13.738281 15.695312 L 2.148438 15.695312 C 1.613281 15.695312 1.183594 15.265625 1.183594 14.730469 L 1.183594 1.207031 C 1.183594 0.671875 1.613281 0.242188 2.148438 0.242188 Z M 2.148438 0.242188 "/>
<path style="fill-rule:nonzero;fill:rgb(60.000002%,60.000002%,60.000002%);fill-opacity:1;stroke-width:0.149924;stroke-linecap:butt;stroke-linejoin:miter;stroke:rgb(0%,0%,0%);stroke-opacity:1;stroke-miterlimit:4;" d="M 44.074219 13.757812 L 33.972656 13.757812 C 32.378906 13.757812 31.078125 12.46875 31.078125 10.863281 L 31.078125 0.75 Z M 44.074219 13.757812 " transform="matrix(0.333333,0,0,0.333333,0,0)"/>
<path style="fill:none;stroke-width:0.15;stroke-linecap:round;stroke-linejoin:round;stroke:rgb(0%,0%,0%);stroke-opacity:1;stroke-miterlimit:4;" d="M 6.445312 0.726562 L 31.066406 0.726562 L 44.121094 13.722656 L 44.121094 44.191406 C 44.121094 45.796875 42.820312 47.085938 41.214844 47.085938 L 6.445312 47.085938 C 4.839844 47.085938 3.550781 45.796875 3.550781 44.191406 L 3.550781 3.621094 C 3.550781 2.015625 4.839844 0.726562 6.445312 0.726562 Z M 6.445312 0.726562 " transform="matrix(0.333333,0,0,0.333333,0,0)"/>
<path style=" stroke:none;fill-rule:nonzero;fill:rgb(40.000001%,40.000001%,40.000001%);fill-opacity:1;" d="M 7.738281 10.519531 C 8.335938 10.519531 8.84375 10.308594 9.265625 9.886719 C 9.335938 9.816406 9.371094 9.734375 9.371094 9.632812 C 9.371094 9.535156 9.335938 9.449219 9.265625 9.378906 C 9.195312 9.308594 9.109375 9.273438 9.011719 9.273438 C 8.910156 9.273438 8.828125 9.308594 8.757812 9.378906 C 8.476562 9.660156 8.136719 9.800781 7.738281 9.800781 C 7.339844 9.800781 7 9.660156 6.71875 9.378906 C 6.4375 9.097656 6.296875 8.757812 6.296875 8.359375 C 6.296875 7.960938 6.4375 7.621094 6.71875 7.339844 C 7 7.0625 7.339844 6.921875 7.738281 6.921875 C 8.136719 6.921875 8.476562 7.0625 8.757812 7.339844 C 8.828125 7.410156 8.910156 7.445312 9.011719 7.445312 C 9.109375 7.445312 9.195312 7.410156 9.265625 7.339844 C 9.335938 7.269531 9.371094 7.1875 9.371094 7.085938 C 9.371094 6.988281 9.335938 6.902344 9.265625 6.832031 C 8.84375 6.410156 8.335938 6.199219 7.738281 6.199219 C 7.140625 6.199219 6.632812 6.410156 6.210938 6.832031 C 5.789062 7.253906 5.578125 7.761719 5.578125 8.359375 C 5.578125 8.957031 5.789062 9.46875 6.210938 9.886719 C 6.632812 10.308594 7.140625 10.519531 7.738281 10.519531 Z M 7.738281 10.519531 "/>
</g>
</svg>
