<?xml version="1.0" encoding="UTF-8"?>
<svg xmlns="http://www.w3.org/2000/svg" xmlns:xlink="http://www.w3.org/1999/xlink" width="16px" height="16px" viewBox="0 0 16 16" version="1.1">
<g id="surface1">
<path style=" stroke:none;fill-rule:nonzero;fill:rgb(90.196079%,90.196079%,90.196079%);fill-opacity:1;" d="M 2.148438 0.242188 L 10.355469 0.242188 L 14.707031 4.574219 L 14.707031 14.730469 C 14.707031 15.265625 14.273438 15.695312 13.738281 15.695312 L 2.148438 15.695312 C 1.613281 15.695312 1.183594 15.265625 1.183594 14.730469 L 1.183594 1.207031 C 1.183594 0.671875 1.613281 0.242188 2.148438 0.242188 Z M 2.148438 0.242188 "/>
<path style=" stroke:none;fill-rule:nonzero;fill:rgb(50.196081%,50.196081%,50.196081%);fill-opacity:1;" d="M 4.46875 9.984375 L 11.402344 9.984375 L 11.402344 10.648438 L 4.46875 10.648438 Z M 4.46875 9.984375 "/>
<path style="fill-rule:nonzero;fill:rgb(60.000002%,60.000002%,60.000002%);fill-opacity:1;stroke-width:0.149924;stroke-linecap:butt;stroke-linejoin:miter;stroke:rgb(0%,0%,0%);stroke-opacity:1;stroke-miterlimit:4;" d="M 44.074219 13.757812 L 33.972656 13.757812 C 32.378906 13.757812 31.078125 12.46875 31.078125 10.863281 L 31.078125 0.75 Z M 44.074219 13.757812 " transform="matrix(0.333333,0,0,0.333333,0,0)"/>
<path style="fill:none;stroke-width:0.15;stroke-linecap:round;stroke-linejoin:round;stroke:rgb(0%,0%,0%);stroke-opacity:1;stroke-miterlimit:4;" d="M 6.445312 0.726562 L 31.066406 0.726562 L 44.121094 13.722656 L 44.121094 44.191406 C 44.121094 45.796875 42.820312 47.085938 41.214844 47.085938 L 6.445312 47.085938 C 4.839844 47.085938 3.550781 45.796875 3.550781 44.191406 L 3.550781 3.621094 C 3.550781 2.015625 4.839844 0.726562 6.445312 0.726562 Z M 6.445312 0.726562 " transform="matrix(0.333333,0,0,0.333333,0,0)"/>
<path style=" stroke:none;fill-rule:nonzero;fill:rgb(50.196081%,50.196081%,50.196081%);fill-opacity:1;" d="M 4.46875 11.316406 L 8.339844 11.316406 L 8.339844 11.984375 L 4.46875 11.984375 Z M 4.46875 11.316406 "/>
<path style=" stroke:none;fill-rule:nonzero;fill:rgb(50.196081%,50.196081%,50.196081%);fill-opacity:1;" d="M 4.46875 8.648438 L 11.402344 8.648438 L 11.402344 9.316406 L 4.46875 9.316406 Z M 4.46875 8.648438 "/>
<path style=" stroke:none;fill-rule:nonzero;fill:rgb(40.000001%,40.000001%,40.000001%);fill-opacity:1;" d="M 5.625 6.195312 L 5.96875 6.957031 L 5.28125 6.957031 Z M 4.703125 7.785156 C 4.75 7.804688 4.796875 7.808594 4.847656 7.789062 C 4.894531 7.769531 4.929688 7.738281 4.953125 7.691406 L 5.113281 7.332031 L 6.136719 7.332031 L 6.296875 7.691406 C 6.332031 7.765625 6.390625 7.800781 6.46875 7.800781 C 6.496094 7.800781 6.523438 7.796875 6.546875 7.785156 C 6.59375 7.765625 6.628906 7.730469 6.644531 7.679688 C 6.664062 7.632812 6.664062 7.585938 6.640625 7.539062 L 5.796875 5.660156 C 5.761719 5.585938 5.707031 5.550781 5.625 5.550781 C 5.542969 5.550781 5.488281 5.585938 5.453125 5.660156 L 4.609375 7.539062 C 4.589844 7.585938 4.585938 7.632812 4.605469 7.679688 C 4.625 7.730469 4.65625 7.765625 4.703125 7.785156 Z M 4.703125 7.785156 "/>
<path style=" stroke:none;fill-rule:nonzero;fill:rgb(40.000001%,40.000001%,40.000001%);fill-opacity:1;" d="M 7.425781 6.863281 L 8.269531 6.863281 C 8.347656 6.863281 8.414062 6.890625 8.46875 6.945312 C 8.523438 7 8.554688 7.066406 8.554688 7.144531 C 8.554688 7.222656 8.523438 7.289062 8.46875 7.34375 C 8.414062 7.398438 8.347656 7.425781 8.269531 7.425781 L 7.425781 7.425781 Z M 7.425781 5.925781 L 8.082031 5.925781 C 8.160156 5.925781 8.226562 5.953125 8.28125 6.007812 C 8.335938 6.0625 8.363281 6.128906 8.363281 6.207031 C 8.363281 6.285156 8.335938 6.351562 8.28125 6.40625 C 8.226562 6.460938 8.160156 6.488281 8.082031 6.488281 L 7.425781 6.488281 Z M 8.269531 7.800781 C 8.453125 7.800781 8.605469 7.738281 8.734375 7.609375 C 8.863281 7.480469 8.929688 7.324219 8.929688 7.144531 C 8.929688 6.902344 8.824219 6.714844 8.617188 6.585938 C 8.699219 6.472656 8.742188 6.347656 8.742188 6.207031 C 8.742188 6.027344 8.675781 5.871094 8.546875 5.742188 C 8.417969 5.613281 8.265625 5.550781 8.082031 5.550781 L 7.238281 5.550781 C 7.1875 5.550781 7.144531 5.570312 7.105469 5.605469 C 7.070312 5.640625 7.050781 5.6875 7.050781 5.738281 L 7.050781 7.613281 C 7.050781 7.667969 7.070312 7.710938 7.105469 7.746094 C 7.144531 7.785156 7.1875 7.800781 7.238281 7.800781 Z M 8.269531 7.800781 "/>
<path style=" stroke:none;fill-rule:nonzero;fill:rgb(40.000001%,40.000001%,40.000001%);fill-opacity:1;" d="M 10.429688 7.800781 C 10.742188 7.800781 11.007812 7.691406 11.226562 7.472656 C 11.261719 7.4375 11.28125 7.390625 11.28125 7.339844 C 11.28125 7.289062 11.261719 7.246094 11.226562 7.207031 C 11.191406 7.171875 11.144531 7.152344 11.09375 7.152344 C 11.042969 7.152344 11 7.171875 10.960938 7.207031 C 10.816406 7.355469 10.636719 7.425781 10.429688 7.425781 C 10.222656 7.425781 10.046875 7.355469 9.898438 7.207031 C 9.753906 7.0625 9.679688 6.882812 9.679688 6.675781 C 9.679688 6.46875 9.753906 6.292969 9.898438 6.144531 C 10.046875 6 10.222656 5.925781 10.429688 5.925781 C 10.636719 5.925781 10.816406 6 10.960938 6.144531 C 11 6.183594 11.042969 6.199219 11.09375 6.199219 C 11.144531 6.199219 11.191406 6.183594 11.226562 6.144531 C 11.261719 6.109375 11.28125 6.0625 11.28125 6.011719 C 11.28125 5.960938 11.261719 5.917969 11.226562 5.878906 C 11.007812 5.660156 10.742188 5.550781 10.429688 5.550781 C 10.121094 5.550781 9.855469 5.660156 9.632812 5.878906 C 9.414062 6.101562 9.304688 6.363281 9.304688 6.675781 C 9.304688 6.988281 9.414062 7.253906 9.632812 7.472656 C 9.855469 7.691406 10.121094 7.800781 10.429688 7.800781 Z M 10.429688 7.800781 "/>
</g>
</svg>
