<?xml version="1.0" encoding="UTF-8"?>
<svg xmlns="http://www.w3.org/2000/svg" xmlns:xlink="http://www.w3.org/1999/xlink" width="16px" height="16px" viewBox="0 0 16 16" version="1.1">
<g id="surface1">
<path style=" stroke:none;fill-rule:nonzero;fill:rgb(59.607846%,33.725491%,59.607846%);fill-opacity:1;" d="M 2.148438 0.242188 L 10.355469 0.242188 L 14.707031 4.574219 L 14.707031 14.730469 C 14.707031 15.265625 14.273438 15.695312 13.738281 15.695312 L 2.148438 15.695312 C 1.613281 15.695312 1.183594 15.265625 1.183594 14.730469 L 1.183594 1.207031 C 1.183594 0.671875 1.613281 0.242188 2.148438 0.242188 Z M 2.148438 0.242188 "/>
<path style="fill-rule:nonzero;fill:rgb(36.470589%,20.392157%,36.470589%);fill-opacity:1;stroke-width:0.149924;stroke-linecap:butt;stroke-linejoin:miter;stroke:rgb(0%,0%,0%);stroke-opacity:1;stroke-miterlimit:4;" d="M 44.074219 13.757812 L 33.972656 13.757812 C 32.378906 13.757812 31.078125 12.46875 31.078125 10.863281 L 31.078125 0.75 Z M 44.074219 13.757812 " transform="matrix(0.333333,0,0,0.333333,0,0)"/>
<path style="fill:none;stroke-width:0.15;stroke-linecap:round;stroke-linejoin:round;stroke:rgb(0%,0%,0%);stroke-opacity:1;stroke-miterlimit:4;" d="M 6.445312 0.726562 L 31.066406 0.726562 L 44.121094 13.722656 L 44.121094 44.191406 C 44.121094 45.796875 42.820312 47.085938 41.214844 47.085938 L 6.445312 47.085938 C 4.839844 47.085938 3.550781 45.796875 3.550781 44.191406 L 3.550781 3.621094 C 3.550781 2.015625 4.839844 0.726562 6.445312 0.726562 Z M 6.445312 0.726562 " transform="matrix(0.333333,0,0,0.333333,0,0)"/>
<path style=" stroke:none;fill-rule:nonzero;fill:rgb(100%,100%,100%);fill-opacity:1;" d="M 2.582031 2.628906 L 3.992188 2.628906 C 4.15625 2.628906 4.285156 2.832031 4.285156 3.082031 L 4.285156 4.195312 C 4.285156 4.449219 4.15625 4.648438 3.992188 4.648438 L 2.582031 4.648438 C 2.421875 4.648438 2.289062 4.449219 2.289062 4.195312 L 2.289062 3.082031 C 2.289062 2.832031 2.421875 2.628906 2.582031 2.628906 Z M 2.582031 2.628906 "/>
<path style=" stroke:none;fill-rule:nonzero;fill:rgb(100%,100%,100%);fill-opacity:1;" d="M 2.582031 5.636719 L 3.992188 5.636719 C 4.15625 5.636719 4.285156 5.839844 4.285156 6.089844 L 4.285156 7.207031 C 4.285156 7.457031 4.15625 7.65625 3.992188 7.65625 L 2.582031 7.65625 C 2.421875 7.65625 2.289062 7.457031 2.289062 7.207031 L 2.289062 6.089844 C 2.289062 5.839844 2.421875 5.636719 2.582031 5.636719 Z M 2.582031 5.636719 "/>
<path style=" stroke:none;fill-rule:nonzero;fill:rgb(100%,100%,100%);fill-opacity:1;" d="M 2.582031 8.648438 L 3.992188 8.648438 C 4.15625 8.648438 4.285156 8.847656 4.285156 9.101562 L 4.285156 10.214844 C 4.285156 10.464844 4.15625 10.667969 3.992188 10.667969 L 2.582031 10.667969 C 2.421875 10.667969 2.289062 10.464844 2.289062 10.214844 L 2.289062 9.101562 C 2.289062 8.847656 2.421875 8.648438 2.582031 8.648438 Z M 2.582031 8.648438 "/>
<path style=" stroke:none;fill-rule:nonzero;fill:rgb(100%,100%,100%);fill-opacity:1;" d="M 2.582031 11.65625 L 3.992188 11.65625 C 4.15625 11.65625 4.285156 11.859375 4.285156 12.109375 L 4.285156 13.222656 C 4.285156 13.472656 4.15625 13.675781 3.992188 13.675781 L 2.582031 13.675781 C 2.421875 13.675781 2.289062 13.472656 2.289062 13.222656 L 2.289062 12.109375 C 2.289062 11.859375 2.421875 11.65625 2.582031 11.65625 Z M 2.582031 11.65625 "/>
<path style=" stroke:none;fill-rule:nonzero;fill:rgb(100%,100%,100%);fill-opacity:1;" d="M 11.917969 5.636719 L 13.328125 5.636719 C 13.488281 5.636719 13.617188 5.839844 13.617188 6.089844 L 13.617188 7.207031 C 13.617188 7.457031 13.488281 7.65625 13.328125 7.65625 L 11.917969 7.65625 C 11.753906 7.65625 11.625 7.457031 11.625 7.207031 L 11.625 6.089844 C 11.625 5.839844 11.753906 5.636719 11.917969 5.636719 Z M 11.917969 5.636719 "/>
<path style=" stroke:none;fill-rule:nonzero;fill:rgb(100%,100%,100%);fill-opacity:1;" d="M 11.917969 8.648438 L 13.328125 8.648438 C 13.488281 8.648438 13.617188 8.847656 13.617188 9.101562 L 13.617188 10.214844 C 13.617188 10.464844 13.488281 10.667969 13.328125 10.667969 L 11.917969 10.667969 C 11.753906 10.667969 11.625 10.464844 11.625 10.214844 L 11.625 9.101562 C 11.625 8.847656 11.753906 8.648438 11.917969 8.648438 Z M 11.917969 8.648438 "/>
<path style=" stroke:none;fill-rule:nonzero;fill:rgb(100%,100%,100%);fill-opacity:1;" d="M 11.917969 11.65625 L 13.328125 11.65625 C 13.488281 11.65625 13.617188 11.859375 13.617188 12.109375 L 13.617188 13.222656 C 13.617188 13.472656 13.488281 13.675781 13.328125 13.675781 L 11.917969 13.675781 C 11.753906 13.675781 11.625 13.472656 11.625 13.222656 L 11.625 12.109375 C 11.625 11.859375 11.753906 11.65625 11.917969 11.65625 Z M 11.917969 11.65625 "/>
<path style=" stroke:none;fill-rule:nonzero;fill:rgb(100%,100%,100%);fill-opacity:1;" d="M 6.433594 6.863281 C 6.246094 6.871094 6.101562 7.023438 6.101562 7.210938 L 6.101562 10.140625 C 6.101562 10.398438 6.371094 10.566406 6.601562 10.449219 L 9.53125 8.984375 C 9.785156 8.855469 9.785156 8.496094 9.53125 8.367188 L 6.601562 6.902344 C 6.550781 6.875 6.492188 6.863281 6.433594 6.863281 Z M 6.433594 6.863281 "/>
</g>
</svg>
