<?xml version="1.0" encoding="UTF-8" standalone="no"?>
<svg
   xmlns:dc="http://purl.org/dc/elements/1.1/"
   xmlns:cc="http://creativecommons.org/ns#"
   xmlns:rdf="http://www.w3.org/1999/02/22-rdf-syntax-ns#"
   xmlns:svg="http://www.w3.org/2000/svg"
   xmlns="http://www.w3.org/2000/svg"
   xmlns:sodipodi="http://sodipodi.sourceforge.net/DTD/sodipodi-0.dtd"
   xmlns:inkscape="http://www.inkscape.org/namespaces/inkscape"
   width="16"
   height="16"
   viewBox="0 0 16 16"
   version="1.1"
   id="svg7"
   sodipodi:docname="folder-owncloud.svg"
   inkscape:version="0.92.2 2405546, 2018-03-11">
  <metadata
     id="metadata11">
    <rdf:RDF>
      <cc:Work
         rdf:about="">
        <dc:format>image/svg+xml</dc:format>
        <dc:type
           rdf:resource="http://purl.org/dc/dcmitype/StillImage" />
      </cc:Work>
    </rdf:RDF>
  </metadata>
  <sodipodi:namedview
     pagecolor="#ffffff"
     bordercolor="#666666"
     borderopacity="1"
     objecttolerance="10"
     gridtolerance="10"
     guidetolerance="10"
     inkscape:pageopacity="0"
     inkscape:pageshadow="2"
     inkscape:window-width="896"
     inkscape:window-height="480"
     id="namedview9"
     showgrid="false"
     inkscape:zoom="14.75"
     inkscape:cx="8"
     inkscape:cy="8"
     inkscape:window-x="0"
     inkscape:window-y="0"
     inkscape:window-maximized="0"
     inkscape:current-layer="svg7" />
  <defs
     id="defs3">
    <style
       type="text/css"
       id="current-color-scheme">
   .ColorScheme-Text { color:#5c616c; } .ColorScheme-Highlight { color:#5294e2; } .ColorScheme-ButtonBackground { color:#d3dae3; }
  </style>
  </defs>
  <path
     style="fill:#d2dbe3;opacity:1;fill-opacity:1"
     class="ColorScheme-Text"
     d="M 9 3 C 7.4968 3 6.1212531 3.8459469 5.4394531 5.1855469 C 5.1411831 5.0637469 4.82218 5.0007 4.5 5 C 3.2495 5 2.1923906 5.9267156 2.0253906 7.1660156 C 0.81479063 7.5819156 0.0014 8.72 0 10 C 0 11.6569 1.3431 13 3 13 L 12 13 C 13.6569 13 15 11.6569 15 10 C 14.9987 8.7267 14.193787 7.592975 12.992188 7.171875 C 12.995988 7.114875 12.9986 7.0573 13 7 C 13 4.7909 11.2091 3 9 3 z"
     id="path5" />
</svg>
