<?xml version="1.0" encoding="UTF-8" standalone="no"?>
<svg
   xmlns:dc="http://purl.org/dc/elements/1.1/"
   xmlns:cc="http://creativecommons.org/ns#"
   xmlns:rdf="http://www.w3.org/1999/02/22-rdf-syntax-ns#"
   xmlns:svg="http://www.w3.org/2000/svg"
   xmlns="http://www.w3.org/2000/svg"
   xmlns:sodipodi="http://sodipodi.sourceforge.net/DTD/sodipodi-0.dtd"
   xmlns:inkscape="http://www.inkscape.org/namespaces/inkscape"
   width="16"
   height="16"
   viewBox="0 0 16 16"
   version="1.1"
   id="svg7"
   sodipodi:docname="folder-games.svg"
   inkscape:version="0.92.2 2405546, 2018-03-11">
  <metadata
     id="metadata11">
    <rdf:RDF>
      <cc:Work
         rdf:about="">
        <dc:format>image/svg+xml</dc:format>
        <dc:type
           rdf:resource="http://purl.org/dc/dcmitype/StillImage" />
      </cc:Work>
    </rdf:RDF>
  </metadata>
  <sodipodi:namedview
     pagecolor="#ffffff"
     bordercolor="#666666"
     borderopacity="1"
     objecttolerance="10"
     gridtolerance="10"
     guidetolerance="10"
     inkscape:pageopacity="0"
     inkscape:pageshadow="2"
     inkscape:window-width="1920"
     inkscape:window-height="1019"
     id="namedview9"
     showgrid="false"
     inkscape:zoom="14.75"
     inkscape:cx="0.98305085"
     inkscape:cy="8"
     inkscape:window-x="0"
     inkscape:window-y="5"
     inkscape:window-maximized="1"
     inkscape:current-layer="svg7" />
  <defs
     id="defs3">
    <style
       type="text/css"
       id="current-color-scheme">
   .ColorScheme-Text { color:#5c616c; } .ColorScheme-Highlight { color:#5294e2; } .ColorScheme-ButtonBackground { color:#d3dae3; }
  </style>
  </defs>
  <path
     style="fill:#d2dbe3;opacity:1;fill-opacity:1"
     class="ColorScheme-Text"
     d="M 3.7845679,2.0312 C 3.5422295,2.0322 3.2635314,2.0972 2.9786833,2.25 1.9412901,2.7965 0.98669651,4.586 0.46799995,6.9062 0.02584288,8.8771 -0.13654604,11.5723 0.12705221,12.6562 0.35663069,13.5879 0.75410805,14 1.4598433,14 2.5057364,13.982 3.8191277,12.8177 4.6524222,11.25 5.2551182,10.3821 6.6529089,9.9875 8,10.0312 c 1.346991,-0.047 2.744782,0.3509 3.347578,1.2188 0.833294,1.5677 2.146686,2.7321 3.192579,2.75 0.705755,0 1.103192,-0.4121 1.332791,-1.3438 C 16.136546,11.5723 15.974157,8.8771 15.532,6.9062 15.013313,4.586 14.05871,2.7965 13.021317,2.25 12.45162,1.9454 11.981124,1.9544 11.564526,2.25 11.03734,2.6263 9.9387371,3.0296 8.00005,3.0312 6.0613628,3.0312 4.9627701,2.6263 4.4355736,2.25 4.227255,2.1022 4.0270063,2.0301 3.7846679,2.0312 Z m 0.2479684,3 0.9918534,0 0,1 0.9918634,0 0,1 -0.9918634,0 0,1 -0.9918534,0 0,-1 -0.9918635,0 0,-1 0.9918635,0 0,-1 z m 7.4389507,0 c 0.273898,0 0.495927,0.2239 0.495927,0.5 0,0.2762 -0.222029,0.5 -0.495927,0.5 -0.273898,0 -0.495927,-0.2238 -0.495927,-0.5 0,-0.2761 0.222029,-0.5 0.495927,-0.5 z m -0.991863,1 c 0.273898,0 0.495936,0.2239 0.495936,0.5 0,0.2762 -0.222038,0.5 -0.495936,0.5 -0.273889,0 -0.4959272,-0.2238 -0.4959272,-0.5 0,-0.2761 0.2220382,-0.5 0.4959272,-0.5 z m 1.983686,0 c 0.273889,0 0.495927,0.2239 0.495927,0.5 0,0.2762 -0.222038,0.5 -0.495927,0.5 -0.273898,0 -0.495936,-0.2238 -0.495936,-0.5 0,-0.2761 0.222038,-0.5 0.495936,-0.5 z m -0.991863,1 c 0.273898,0 0.495927,0.2239 0.495927,0.5 0,0.2762 -0.222029,0.5 -0.495927,0.5 -0.273898,0 -0.495927,-0.2238 -0.495927,-0.5 0,-0.2761 0.222029,-0.5 0.495927,-0.5 z"
     id="path5" />
</svg>
