<?xml version="1.0" encoding="UTF-8" standalone="no"?>
<svg
   xmlns:dc="http://purl.org/dc/elements/1.1/"
   xmlns:cc="http://creativecommons.org/ns#"
   xmlns:rdf="http://www.w3.org/1999/02/22-rdf-syntax-ns#"
   xmlns:svg="http://www.w3.org/2000/svg"
   xmlns="http://www.w3.org/2000/svg"
   xmlns:sodipodi="http://sodipodi.sourceforge.net/DTD/sodipodi-0.dtd"
   xmlns:inkscape="http://www.inkscape.org/namespaces/inkscape"
   width="16"
   height="16"
   viewBox="0 0 16 16"
   version="1.1"
   id="svg8"
   sodipodi:docname="folder-visiting.svg"
   inkscape:version="0.92.2 2405546, 2018-03-11">
  <metadata
     id="metadata12">
    <rdf:RDF>
      <cc:Work
         rdf:about="">
        <dc:format>image/svg+xml</dc:format>
        <dc:type
           rdf:resource="http://purl.org/dc/dcmitype/StillImage" />
      </cc:Work>
    </rdf:RDF>
  </metadata>
  <sodipodi:namedview
     pagecolor="#ffffff"
     bordercolor="#666666"
     borderopacity="1"
     objecttolerance="10"
     gridtolerance="10"
     guidetolerance="10"
     inkscape:pageopacity="0"
     inkscape:pageshadow="2"
     inkscape:window-width="1920"
     inkscape:window-height="1019"
     id="namedview10"
     showgrid="false"
     inkscape:zoom="14.75"
     inkscape:cx="8"
     inkscape:cy="8"
     inkscape:window-x="0"
     inkscape:window-y="5"
     inkscape:window-maximized="1"
     inkscape:current-layer="svg8" />
  <defs
     id="defs3">
    <style
       type="text/css"
       id="current-color-scheme">
   .ColorScheme-Text { color:#5c616c; } .ColorScheme-Highlight { color:#5294e2; } .ColorScheme-ButtonBackground { color:#d3dae3; }
  </style>
  </defs>
  <g
     id="layer1"
     transform="translate(-466 -224)">
    <path
       id="path5057-4"
       class="ColorScheme-Text"
       style="fill:#d2dbe3;fill-opacity:1"
       d="m467 226v11s0 1 1 1h12s1 0 1-1v-9c0-1-1-1-1-1h-5l-2-2h-5s-1 0-1 1z"
       opacity="1" />
  </g>
  <path
     id="rect4138"
     d="m1.8926 1.0098c-0.2356 0.0244-0.8926 0.1619-0.8926 0.9902v0.8047l14 8.0823v-2.3089zm7.4472 1.9902 5.6602 3.2676v-2.2676c0-0.017012-0.0053-0.028483-0.0059-0.044922l-1.654-0.9551zm-8.3398 2.1133v2.3086l11.393 6.5781h1.607s0.85728-0.01083 0.97656-0.81836zm0 4.6191v2.3086l3.3926 1.959h4z"
     opacity=".2"
     style="opacity:0.07" />
</svg>
