<?xml version="1.0" encoding="UTF-8" standalone="no"?>
<svg
   xmlns:dc="http://purl.org/dc/elements/1.1/"
   xmlns:cc="http://creativecommons.org/ns#"
   xmlns:rdf="http://www.w3.org/1999/02/22-rdf-syntax-ns#"
   xmlns:svg="http://www.w3.org/2000/svg"
   xmlns="http://www.w3.org/2000/svg"
   xmlns:sodipodi="http://sodipodi.sourceforge.net/DTD/sodipodi-0.dtd"
   xmlns:inkscape="http://www.inkscape.org/namespaces/inkscape"
   width="16"
   height="16"
   viewBox="0 0 16 16"
   id="svg4140"
   version="1.1"
   sodipodi:docname="folder-mail.svg"
   inkscape:version="0.92.2 2405546, 2018-03-11">
  <metadata
     id="metadata8">
    <rdf:RDF>
      <cc:Work
         rdf:about="">
        <dc:format>image/svg+xml</dc:format>
        <dc:type
           rdf:resource="http://purl.org/dc/dcmitype/StillImage" />
      </cc:Work>
    </rdf:RDF>
  </metadata>
  <sodipodi:namedview
     pagecolor="#ffffff"
     bordercolor="#666666"
     borderopacity="1"
     objecttolerance="10"
     gridtolerance="10"
     guidetolerance="10"
     inkscape:pageopacity="0"
     inkscape:pageshadow="2"
     inkscape:window-width="896"
     inkscape:window-height="480"
     id="namedview6"
     showgrid="false"
     inkscape:zoom="14.75"
     inkscape:cx="8"
     inkscape:cy="8"
     inkscape:window-x="0"
     inkscape:window-y="0"
     inkscape:window-maximized="0"
     inkscape:current-layer="svg4140" />
  <defs
     id="defs4142">
    <style
       type="text/css"
       id="current-color-scheme">
   .ColorScheme-Text { color:#5c616c; } .ColorScheme-Highlight { color:#5294e2; } .ColorScheme-ButtonBackground { color:#d3dae3; }
  </style>
  </defs>
  <path
     style="opacity:1;fill:#d2dbe3;fill-opacity:1;enable-background:new"
     class="ColorScheme-Text"
     d="M 8 1 C 4.1340116 1 1 4.1340117 1 8 C 1 11.865988 4.1340116 15 8 15 L 12.113281 15 C 12.113281 15 12.933594 14.874995 12.988281 14 C 12.988281 13.125006 12.113281 13 12.113281 13 L 8 13 A 5 5 0 0 1 3 8 A 5 5 0 0 1 8 3 A 5 5 0 0 1 13 8 A 5 5 0 0 1 12.576172 10 L 11.458984 10 A 4 4 0 0 0 12 8 A 4 4 0 0 0 8 4 A 4 4 0 0 0 4 8 A 4 4 0 0 0 8 12 L 12.251953 12 L 12.253906 11.998047 C 12.261345 11.998112 12.267926 12 12.275391 12 C 13.725082 12 15 10.32469 15 8.875 L 15 8 C 15 4.1342741 11.865726 1 8 1 z M 8 6 A 2 2 0 0 1 10 8 A 2 2 0 0 1 8 10 A 2 2 0 0 1 6 8 A 2 2 0 0 1 8 6 z"
     id="path4138" />
</svg>
