<?xml version="1.0" encoding="UTF-8" standalone="no"?>
<svg
   xmlns:dc="http://purl.org/dc/elements/1.1/"
   xmlns:cc="http://creativecommons.org/ns#"
   xmlns:rdf="http://www.w3.org/1999/02/22-rdf-syntax-ns#"
   xmlns:svg="http://www.w3.org/2000/svg"
   xmlns="http://www.w3.org/2000/svg"
   xmlns:sodipodi="http://sodipodi.sourceforge.net/DTD/sodipodi-0.dtd"
   xmlns:inkscape="http://www.inkscape.org/namespaces/inkscape"
   width="16"
   height="16"
   viewBox="0 0 16 16"
   version="1.1"
   id="svg7"
   sodipodi:docname="folder-git.svg"
   inkscape:version="0.92.2 2405546, 2018-03-11">
  <metadata
     id="metadata11">
    <rdf:RDF>
      <cc:Work
         rdf:about="">
        <dc:format>image/svg+xml</dc:format>
        <dc:type
           rdf:resource="http://purl.org/dc/dcmitype/StillImage" />
      </cc:Work>
    </rdf:RDF>
  </metadata>
  <sodipodi:namedview
     pagecolor="#ffffff"
     bordercolor="#666666"
     borderopacity="1"
     objecttolerance="10"
     gridtolerance="10"
     guidetolerance="10"
     inkscape:pageopacity="0"
     inkscape:pageshadow="2"
     inkscape:window-width="896"
     inkscape:window-height="480"
     id="namedview9"
     showgrid="false"
     inkscape:zoom="14.75"
     inkscape:cx="8"
     inkscape:cy="8"
     inkscape:window-x="0"
     inkscape:window-y="0"
     inkscape:window-maximized="0"
     inkscape:current-layer="svg7" />
  <defs
     id="defs3">
    <style
       type="text/css"
       id="current-color-scheme">
   .ColorScheme-Text { color:#5c616c; } .ColorScheme-Highlight { color:#5294e2; } .ColorScheme-ButtonBackground { color:#d3dae3; }
  </style>
  </defs>
  <path
     style="fill:#d2dbe3;opacity:1;fill-opacity:1"
     class="ColorScheme-Text"
     d="M 2.7070312 0.015625 L 2.0019531 0.72265625 L 3.4082031 2.1308594 A 2.5 2.5 0 0 0 2.9980469 3.5 A 2.5 2.5 0 0 0 4.9980469 5.9492188 L 4.9980469 10.054688 A 2.5 2.5 0 0 0 2.9980469 12.5 A 2.5 2.5 0 0 0 5.4980469 15 A 2.5 2.5 0 0 0 7.9980469 12.5 A 2.5 2.5 0 0 0 5.9980469 10.050781 L 5.9980469 5.9453125 A 2.5 2.5 0 0 0 6.8671875 5.5917969 L 8.4082031 7.1328125 A 2.5 2.5 0 0 0 8 8.5019531 A 2.5 2.5 0 0 0 10.5 11.001953 A 2.5 2.5 0 0 0 13 8.5019531 A 2.5 2.5 0 0 0 10.5 6.0019531 A 2.5 2.5 0 0 0 9.1132812 6.4238281 L 7.5800781 4.8886719 A 2.5 2.5 0 0 0 8 3.5019531 A 2.5 2.5 0 0 0 5.5 1.0019531 A 2.5 2.5 0 0 0 4.1152344 1.4238281 L 2.7089844 0.017578125 L 2.7070312 0.015625 z"
     id="path5" />
</svg>
